P2
64 64
255
242 242 242 242 242 242 242 242 242 242 242 242 242 242 242 242 242 242 242 242 242 242 242 242 242 242 242 242 242 242 242 242 242 242 242 242 242 242 242 242 242 242 242 242 242 242 242 242 242 242 242 242 242 242 242 242 242 242 242 242 242 242 242 242
242 242 242 242 242 242 242 242 242 242 242 242 242 242 242 242 242 242 242 242 242 242 242 242 242 242 242 242 242 242 242 242 242 242 242 242 242 242 242 242 242 242 242 242 242 242 242 242 242 242 242 242 242 242 242 242 242 242 242 242 242 242 242 242
242 242 242 242 242 242 242 242 242 242 242 242 242 242 242 242 242 242 242 242 242 242 242 242 242 242 242 242 242 242 242 242 242 242 242 242 242 242 242 242 242 242 242 242 242 242 242 242 242 242 242 242 242 242 242 242 242 242 242 242 242 242 242 242
242 242 242 242 242 242 242 242 242 242 242 242 242 242 242 242 242 242 242 242 242 242 242 242 242 242 242 242 242 242 242 242 242 242 242 242 242 242 242 242 242 242 242 242 242 242 242 242 242 242 242 242 242 242 242 242 242 242 242 242 242 242 242 242
242 242 242 242 242 242 242 242 242 242 242 242 242 242 242 242 242 242 242 242 242 242 242 242 242 242 242 242 242 242 242 242 242 242 242 242 242 242 242 242 242 242 242 242 242 242 242 242 242 242 242 242 242 242 242 242 242 242 242 242 242 242 242 242
242 242 242 242 242 242 242 242 242 242 242 242 242 242 242 242 242 242 242 242 242 242 242 242 242 242 242 242 242 242 242 242 242 242 242 242 242 242 242 242 242 242 242 242 242 242 242 242 242 242 242 242 242 242 242 242 242 242 242 242 242 242 242 242
242 242 242 242 242 242 242 242 242 242 242 242 242 242 242 242 242 242 242 242 242 242 242 242 242 242 242 242 242 242 242 242 242 242 242 242 242 242 242 242 242 242 242 242 242 242 242 242 242 242 242 242 242 242 242 242 242 242 242 242 242 242 242 242
242 242 242 242 242 242 242 242 242 242 242 242 242 242 242 242 242 242 242 242 242 242 242 242 242 242 242 242 242 242 242 242 242 242 242 242 242 242 242 242 242 242 242 242 242 242 242 242 242 242 242 242 242 242 242 242 242 242 242 242 242 242 242 242
242 242 242 242 242 242 242 242 242 242 242 242 242 242 242 242 242 242 242 242 242 242 242 242 242 242 242 242 242 242 242 242 242 242 242 242 242 242 242 242 242 242 242 242 242 242 242 242 242 242 242 242 242 242 242 242 242 242 242 242 242 242 242 242
242 242 242 242 242 242 242 242 242 242 242 242 242 242 242 242 242 242 242 242 242 242 242 242 242 242 242 242 242 242 242 242 242 242 242 242 242 242 242 242 242 242 242 242 242 242 242 242 242 242 242 242 242 242 242 242 242 242 242 242 242 242 242 242
242 242 242 242 242 242 242 242 242 242 242 242 242 242 242 242 242 242 242 242 242 242 242 242 242 242 242 242 242 242 242 242 242 242 242 242 242 242 242 242 242 242 242 242 242 242 242 242 242 242 242 242 242 242 242 242 242 242 242 242 242 242 242 242
242 242 242 242 242 242 242 242 242 242 242 242 242 242 242 242 242 242 242 242 242 242 242 242 242 242 242 242 242 242 242 242 242 242 242 242 242 242 242 242 242 242 242 242 242 242 242 242 242 242 242 242 242 242 242 242 242 242 242 242 242 242 242 242
242 242 242 242 242 242 242 242 242 242 242 242 242 242 242 242 242 242 242 242 242 242 242 242 242 242 242 242 242 242 242 242 242 242 242 242 242 242 242 242 242 242 242 242 242 242 242 242 242 242 242 242 242 242 242 242 242 242 242 242 242 242 242 242
242 242 242 242 242 242 242 242 242 242 242 242 242 242 242 242 242 242 242 242 242 242 242 242 242 242 242 242 242 242 242 242 242 242 242 242 242 242 242 242 242 242 242 242 242 242 242 242 242 242 242 242 242 242 242 242 242 242 242 242 242 242 242 242
242 242 242 242 242 242 242 242 242 242 242 242 242 242 242 242 242 242 242 242 242 242 242 242 242 242 242 242 242 242 242 242 242 242 242 242 242 242 242 242 242 242 242 242 242 242 242 242 242 242 242 242 242 242 242 242 242 242 242 242 242 242 242 242
242 242 242 242 242 242 242 242 242 242 242 242 242 242 242 242 242 242 242 241 241 242 240 241 240 240 242 238 240 239 238 240 238 239 240 242 242 242 242 242 242 242 242 242 242 242 242 242 242 242 242 242 242 242 242 242 242 242 242 242 242 242 242 242
242 242 242 242 242 242 242 242 242 242 242 242 242 242 241 241 242 238 239 232 221 223 210 208 212 199 202 197 191 198 194 202 208 217 231 239 241 242 242 242 242 242 242 242 242 242 242 242 242 242 242 242 242 242 242 242 242 242 242 242 242 242 242 242
242 242 242 242 242 242 242 242 242 241 241 242 238 238 230 214 211 194 176 165 136 116 108 97 89 85 75 76 74 69 88 98 120 165 198 227 241 242 242 242 242 242 242 242 242 242 242 242 242 242 242 242 242 242 242 242 242 242 242 242 242 242 242 242
242 242 242 242 242 242 242 241 240 233 213 209 190 165 145 118 94 79 62 37 35 18 12 16 4 5 8 2 4 5 15 28 49 113 177 222 237 242 242 242 242 242 242 242 242 242 242 242 242 242 242 242 242 242 242 242 242 242 242 242 242 242 242 242
242 242 242 242 241 241 241 225 196 162 120 86 71 50 19 20 13 2 4 0 0 0 3 6 3 11 7 8 17 12 30 54 76 128 191 226 239 241 242 242 242 242 242 242 242 242 242 242 242 242 242 242 242 242 242 242 242 242 242 242 242 242 242 242
242 242 242 241 240 221 197 159 101 43 23 11 0 1 0 1 1 6 17 14 29 48 55 75 82 87 98 99 105 115 126 145 173 196 221 237 240 241 242 242 242 242 242 242 242 242 242 242 242 242 242 242 242 242 242 242 242 242 242 242 242 242 242 242
242 242 241 234 217 160 103 55 26 3 0 0 1 12 16 37 64 77 100 119 135 157 182 187 198 207 208 219 214 216 225 222 230 235 238 242 242 242 242 242 242 242 242 242 242 242 242 242 242 242 242 242 242 242 242 242 242 242 242 242 242 242 242 242
242 242 238 216 156 83 28 1 0 0 9 21 34 83 126 153 178 207 207 217 230 229 237 238 238 242 241 241 242 241 241 241 241 242 242 242 242 242 242 242 242 242 242 242 242 242 242 242 242 242 242 242 242 242 242 242 242 242 242 242 242 242 242 242
242 241 236 184 98 21 4 0 19 43 71 113 157 189 217 238 237 239 241 241 242 242 241 242 242 242 242 242 242 242 242 242 242 242 242 242 242 242 242 242 242 242 242 242 242 242 242 242 242 242 242 242 242 242 242 242 242 242 242 242 242 242 242 242
242 240 225 159 62 10 2 18 73 137 188 208 231 240 241 242 242 242 242 242 242 242 242 242 242 242 242 242 242 242 242 242 242 242 242 242 242 242 242 242 242 242 242 242 242 242 242 242 242 242 242 242 242 242 242 242 242 242 242 242 242 242 242 242
241 236 208 125 44 5 16 61 143 205 239 241 241 242 242 242 242 242 242 242 242 242 242 242 242 242 242 242 242 242 242 242 242 242 242 242 242 242 242 242 242 242 242 242 242 242 242 242 242 242 242 242 242 242 242 242 242 242 242 242 242 242 242 242
241 227 179 89 25 5 32 107 189 231 241 242 242 242 242 242 242 242 242 242 242 242 242 242 242 242 242 242 242 242 242 242 242 242 242 242 241 241 241 239 240 242 242 242 242 242 242 242 242 242 242 242 242 242 242 242 242 242 242 242 242 242 242 242
240 226 160 70 11 1 39 117 211 236 241 242 242 242 242 242 242 242 242 242 242 242 242 242 242 242 242 242 242 242 242 242 241 241 234 232 233 212 209 213 225 234 241 241 242 242 242 242 242 242 242 242 242 242 242 242 242 242 242 242 242 242 242 242
242 223 164 63 14 0 18 97 185 236 241 242 242 242 242 242 242 242 242 242 242 242 242 242 242 242 242 242 242 242 242 241 228 215 183 150 132 112 96 124 169 217 235 241 242 242 242 242 242 242 242 242 242 242 242 242 242 242 242 242 242 242 242 242
241 235 182 92 17 0 6 56 149 215 239 241 241 242 242 242 242 242 242 242 242 242 242 242 241 242 241 241 241 235 225 215 159 102 62 40 11 11 16 24 110 183 231 241 242 242 242 242 242 242 242 242 242 242 242 242 242 242 242 242 242 242 242 242
242 239 208 131 43 3 1 16 82 147 208 221 227 238 237 239 240 238 240 238 239 241 236 238 230 223 227 212 198 178 126 70 41 19 0 0 0 0 0 13 89 188 230 241 242 242 242 242 242 242 242 242 242 242 242 242 242 242 242 242 242 242 242 242
242 241 231 173 95 18 2 3 9 54 92 121 147 167 183 184 190 179 185 194 184 189 182 163 152 132 116 104 72 33 23 7 0 0 0 0 0 3 15 41 130 205 238 241 242 242 242 242 242 242 242 242 242 242 242 242 242 242 242 242 242 242 242 242
242 242 237 226 155 83 14 5 0 5 12 20 37 47 58 61 47 52 57 59 65 57 57 46 25 28 15 2 6 0 0 0 0 0 0 16 27 44 92 151 199 231 242 242 242 242 242 242 242 242 242 242 242 242 242 242 241 240 232 234 237 242 242 242
242 242 242 237 219 170 102 55 13 10 8 2 4 7 1 1 2 0 1 0 3 3 0 1 0 0 0 0 0 0 0 0 7 37 58 96 142 182 199 226 241 241 242 242 242 242 242 242 242 242 242 242 242 242 242 240 225 198 177 177 209 229 241 242
242 242 242 242 240 225 207 159 122 89 74 64 53 37 17 13 0 5 7 3 17 15 9 6 1 0 0 0 0 0 22 57 91 146 201 223 226 240 241 241 242 242 242 242 242 242 242 242 242 242 242 242 242 242 241 236 185 115 59 80 129 205 238 242
242 242 242 242 242 242 238 229 221 209 190 185 170 150 130 97 85 75 88 101 95 83 56 18 2 0 0 2 37 75 116 169 227 237 239 242 242 241 242 242 242 242 242 242 242 242 242 242 242 242 242 242 242 241 239 216 143 56 11 31 98 189 232 242
242 242 242 242 242 242 241 242 240 240 240 236 235 230 225 211 204 209 197 194 155 84 28 5 0 6 32 67 123 179 221 232 240 242 242 242 242 242 242 242 242 242 242 242 242 242 242 242 242 242 242 242 242 241 229 189 95 28 3 33 112 198 236 241
242 242 242 242 242 242 242 242 242 242 242 241 242 241 241 242 239 239 202 143 79 32 3 1 10 40 107 170 208 229 242 242 242 242 242 242 242 242 242 242 242 242 242 242 242 242 242 242 242 242 242 242 241 238 193 118 44 8 3 51 144 215 238 242
242 242 242 242 242 242 242 242 242 242 242 242 242 242 242 240 227 196 128 57 7 1 0 22 71 134 190 228 241 241 242 242 242 242 242 242 242 242 242 242 242 242 242 242 242 242 242 242 242 242 242 240 231 201 124 46 5 2 11 87 176 232 240 241
242 242 242 242 242 242 242 242 242 242 242 242 242 241 240 232 182 112 47 13 0 7 32 87 156 220 236 241 242 242 242 242 242 242 242 242 242 242 242 242 242 242 242 242 242 242 242 242 242 241 241 228 180 113 49 12 0 15 59 141 212 240 242 242
242 242 242 242 242 242 242 242 242 242 242 242 242 237 218 182 109 37 4 0 3 48 113 180 217 238 242 242 242 242 242 242 242 242 242 242 242 242 242 242 242 242 242 242 242 242 242 242 242 235 214 170 94 29 3 0 4 57 134 204 232 241 242 242
242 242 242 242 242 242 242 242 242 242 242 241 239 218 160 88 37 8 0 19 61 131 195 236 241 241 242 242 242 242 242 242 242 242 242 242 242 242 242 242 242 242 242 242 242 242 241 240 236 207 145 72 26 3 1 17 55 133 201 238 241 242 242 242
242 242 242 242 242 242 242 242 242 242 242 239 224 175 89 21 1 1 11 68 146 207 232 241 242 242 242 242 242 242 242 242 242 242 242 242 242 242 242 242 242 242 242 242 241 241 241 208 169 115 56 10 0 1 16 74 149 206 233 242 242 242 242 242
242 242 242 242 242 242 242 242 242 242 241 233 190 111 36 3 5 30 75 147 208 239 241 242 242 242 242 242 242 242 242 242 242 242 242 242 242 242 242 242 242 242 241 241 229 195 161 115 64 18 5 0 9 39 92 162 219 240 241 242 242 242 242 242
242 242 242 242 242 242 242 242 242 241 240 209 132 44 9 2 18 89 167 214 235 242 242 242 242 242 242 242 242 242 242 242 242 242 242 242 242 242 242 241 240 240 216 182 146 96 48 20 10 0 2 8 47 115 188 225 238 242 242 242 242 242 242 242
242 242 242 242 242 242 242 242 242 240 225 170 72 10 0 5 54 146 224 240 241 242 242 242 242 242 242 242 242 242 242 242 242 242 241 242 242 236 231 227 194 164 126 77 28 17 5 0 1 4 41 91 146 196 233 241 242 242 242 242 242 242 242 242
242 242 242 242 242 242 242 242 242 240 215 131 37 1 0 14 67 174 229 240 241 242 242 242 241 242 242 241 242 241 241 241 240 240 237 215 208 191 155 123 87 49 20 12 1 0 2 14 53 93 138 187 230 238 241 242 242 242 242 242 242 242 242 242
242 242 242 242 242 242 242 242 242 241 217 141 43 2 0 3 61 122 186 208 220 237 230 231 234 230 233 227 224 227 215 218 209 179 154 119 88 67 48 15 5 3 0 1 3 29 68 108 151 196 223 233 241 242 242 242 242 242 242 242 242 242 242 242
242 242 242 242 242 242 242 242 242 241 237 176 92 13 0 0 5 31 57 81 127 146 155 149 152 148 143 142 130 123 121 109 93 67 30 18 12 0 0 0 4 7 9 49 86 126 170 214 226 235 242 242 242 242 242 242 242 242 242 242 242 242 242 242
242 242 242 242 242 242 242 242 242 242 238 227 148 73 7 1 0 0 0 4 25 37 37 38 25 32 30 21 27 16 18 19 2 3 1 0 0 0 9 19 44 86 122 154 191 221 229 239 242 242 242 242 242 242 242 242 242 242 242 242 242 242 242 242
242 242 242 242 242 242 242 242 242 242 242 233 208 150 76 33 2 4 3 0 8 10 2 1 0 1 0 0 1 1 4 4 0 10 7 16 32 32 69 116 161 192 224 233 236 242 242 242 242 242 242 242 242 242 242 242 242 242 242 242 242 242 242 242
242 242 242 242 242 242 242 242 242 242 242 242 236 215 189 133 101 72 70 73 72 64 38 41 34 32 44 36 46 56 56 66 66 82 106 123 140 166 183 210 241 241 241 242 242 242 242 242 242 242 242 242 242 242 242 242 242 242 242 242 242 242 242 242
242 242 242 242 242 242 242 242 242 242 242 242 241 241 235 225 214 208 194 200 197 179 171 155 156 157 159 169 166 174 184 179 191 198 210 233 229 233 240 241 241 242 242 242 242 242 242 242 242 242 242 242 242 242 242 242 242 242 242 242 242 242 242 242
242 242 242 242 242 242 242 242 242 242 242 242 242 242 241 242 240 240 241 239 240 237 235 232 230 238 233 234 238 235 240 237 237 241 241 241 242 242 242 242 242 242 242 242 242 242 242 242 242 242 242 242 242 242 242 242 242 242 242 242 242 242 242 242
242 242 242 242 242 242 242 242 242 242 242 242 242 242 242 242 242 242 242 242 242 242 241 242 242 241 242 242 242 242 242 242 242 242 242 242 242 242 242 242 242 242 242 242 242 242 242 242 242 242 242 242 242 242 242 242 242 242 242 242 242 242 242 242
242 242 242 242 242 242 242 242 242 242 242 242 242 242 242 242 242 242 242 242 242 242 242 242 242 242 242 242 242 242 242 242 242 242 242 242 242 242 242 242 242 242 242 242 242 242 242 242 242 242 242 242 242 242 242 242 242 242 242 242 242 242 242 242
242 242 242 242 242 242 242 242 242 242 242 242 242 242 242 242 242 242 242 242 242 242 242 242 242 242 242 242 242 242 242 242 242 242 242 242 242 242 242 242 242 242 242 242 242 242 242 242 242 242 242 242 242 242 242 242 242 242 242 242 242 242 242 242
242 242 242 242 242 242 242 242 242 242 242 242 242 242 242 242 242 242 242 242 242 242 242 242 242 242 242 242 242 242 242 242 242 242 242 242 242 242 242 242 242 242 242 242 242 242 242 242 242 242 242 242 242 242 242 242 242 242 242 242 242 242 242 242
242 242 242 242 242 242 242 242 242 242 242 242 242 242 242 242 242 242 242 242 242 242 242 242 242 242 242 242 242 242 242 242 242 242 242 242 242 242 242 242 242 242 242 242 242 242 242 242 242 242 242 242 242 242 242 242 242 242 242 242 242 242 242 242
242 242 242 242 242 242 242 242 242 242 242 242 242 242 242 242 242 242 242 242 242 242 242 242 242 242 242 242 242 242 242 242 242 242 242 242 242 242 242 242 242 242 242 242 242 242 242 242 242 242 242 242 242 242 242 242 242 242 242 242 242 242 242 242
242 242 242 242 242 242 242 242 242 242 242 242 242 242 242 242 242 242 242 242 242 242 242 242 242 242 242 242 242 242 242 242 242 242 242 242 242 242 242 242 242 242 242 242 242 242 242 242 242 242 242 242 242 242 242 242 242 242 242 242 242 242 242 242
242 242 242 242 242 242 242 242 242 242 242 242 242 242 242 242 242 242 242 242 242 242 242 242 242 242 242 242 242 242 242 242 242 242 242 242 242 242 242 242 242 242 242 242 242 242 242 242 242 242 242 242 242 242 242 242 242 242 242 242 242 242 242 242
242 242 242 242 242 242 242 242 242 242 242 242 242 242 242 242 242 242 242 242 242 242 242 242 242 242 242 242 242 242 242 242 242 242 242 242 242 242 242 242 242 242 242 242 242 242 242 242 242 242 242 242 242 242 242 242 242 242 242 242 242 242 242 242
242 242 242 242 242 242 242 242 242 242 242 242 242 242 242 242 242 242 242 242 242 242 242 242 242 242 242 242 242 242 242 242 242 242 242 242 242 242 242 242 242 242 242 242 242 242 242 242 242 242 242 242 242 242 242 242 242 242 242 242 242 242 242 242
