P2
64 64
255
188 188 188 188 188 188 188 188 188 188 188 188 188 188 188 188 188 188 188 188 188 188 188 188 188 188 188 188 188 188 188 188 188 188 188 188 188 188 175 149 134 135 156 180 188 188 188 188 188 188 188 188 188 188 188 188 188 188 188 188 188 188 188 188
188 188 188 188 188 188 188 188 188 188 188 188 188 188 188 188 188 188 188 188 188 188 188 188 188 188 188 188 188 188 188 188 188 188 188 188 169 144 118 82 54 55 109 160 183 188 188 188 188 188 188 188 188 188 188 188 188 188 188 188 188 188 188 188
188 188 188 188 188 188 188 188 188 188 188 188 188 188 188 188 188 188 188 188 188 188 188 188 188 188 188 188 188 188 188 188 188 187 162 138 111 76 39 15 9 11 66 140 180 188 188 188 188 188 188 188 188 188 188 188 188 188 188 188 188 188 188 188
188 188 188 188 188 188 188 188 188 188 188 188 188 188 188 188 188 188 188 188 188 188 188 188 188 188 188 188 188 188 188 181 156 131 102 66 31 16 7 0 0 11 59 142 182 188 188 188 188 188 188 188 188 188 188 188 188 188 188 188 188 188 188 188
188 188 188 188 188 188 188 188 188 188 188 188 188 188 188 188 188 188 188 188 188 188 188 188 188 188 188 188 188 174 150 125 93 57 22 14 5 0 1 2 14 44 101 160 183 188 188 188 188 188 188 188 188 188 188 188 188 188 188 188 188 188 188 188
188 188 188 188 188 188 188 188 188 188 188 188 188 188 188 188 188 188 188 188 188 188 188 188 188 188 188 168 143 119 83 48 19 11 3 0 1 2 22 49 73 108 151 181 187 188 188 188 188 188 188 188 188 188 188 188 188 188 188 188 188 188 188 188
188 188 188 188 188 188 188 188 188 188 188 188 188 188 188 188 188 188 188 188 188 188 188 188 186 162 136 109 74 39 17 9 1 0 2 2 29 57 86 118 149 171 179 187 188 188 188 188 188 188 188 188 188 188 188 188 188 188 188 188 188 188 188 188
188 188 188 188 188 188 188 188 188 188 188 188 188 188 188 188 188 188 188 188 188 188 179 155 131 100 65 30 15 7 0 0 2 9 37 65 94 127 159 173 180 187 188 188 188 188 188 188 188 188 188 188 188 188 188 188 188 188 188 188 188 188 188 188
188 188 188 188 188 188 188 188 188 188 188 188 188 188 188 188 188 188 188 188 173 148 124 91 56 21 13 5 0 1 2 16 44 72 103 135 167 176 182 188 188 188 188 188 188 188 188 188 188 188 188 188 188 188 188 188 188 188 188 188 188 188 188 188
188 188 188 188 188 188 188 188 188 188 188 188 188 188 188 188 188 188 167 142 116 82 46 19 11 3 0 1 2 23 51 79 111 143 171 177 184 188 188 188 188 188 188 188 188 188 188 188 188 188 188 188 188 188 188 188 188 188 188 188 188 188 188 188
188 188 188 188 188 188 188 188 188 188 188 188 188 188 188 185 160 136 108 72 37 17 9 1 0 2 2 31 59 88 119 152 173 179 186 188 188 188 188 188 188 188 188 188 188 188 188 188 188 188 188 188 188 188 188 188 188 188 188 188 188 188 188 188
188 188 188 188 188 188 188 188 188 188 186 181 182 176 153 129 99 63 28 15 7 0 0 2 10 38 66 96 128 160 174 181 188 188 188 188 188 188 188 188 188 188 188 188 188 188 188 188 188 188 188 188 188 188 188 188 188 188 188 188 188 188 188 188
188 188 188 188 188 188 188 188 185 176 167 148 131 117 89 54 21 13 5 0 1 2 17 45 74 105 136 168 176 182 188 188 188 188 188 188 188 188 188 188 188 188 188 188 188 188 188 188 188 188 188 188 188 188 188 188 188 188 188 188 188 188 188 188
188 188 188 188 188 188 185 177 170 139 102 73 59 39 18 11 2 0 1 2 25 53 81 113 145 171 178 185 188 188 188 188 188 188 188 188 188 188 188 188 188 188 188 188 188 188 188 188 188 188 188 188 188 188 188 188 188 188 188 188 188 188 188 188
188 188 188 188 188 183 170 133 99 68 39 14 6 6 0 0 2 4 32 60 89 121 153 173 179 186 188 188 188 188 188 188 188 188 188 188 188 188 188 188 188 188 188 188 188 188 188 188 188 188 188 188 188 188 188 188 188 188 188 188 188 188 188 188
188 188 188 188 186 166 119 68 33 5 1 0 0 2 2 11 39 68 98 130 162 174 181 188 188 188 188 188 188 188 188 188 188 188 188 188 188 188 188 188 188 188 188 188 188 188 188 188 188 188 188 188 188 188 188 188 188 188 188 188 188 188 188 188
188 188 188 188 182 144 68 5 0 0 0 7 18 28 51 76 106 138 170 176 183 188 188 188 188 188 188 188 188 188 188 188 188 188 188 188 188 188 188 188 188 188 188 188 188 188 188 188 188 188 188 188 188 188 188 188 188 188 188 188 188 188 188 188
188 188 188 188 179 134 43 0 0 0 0 17 57 96 116 146 171 178 185 188 188 188 188 188 188 188 188 188 188 188 188 188 188 188 188 188 188 188 188 188 188 188 188 188 188 188 188 188 188 188 188 188 188 188 188 188 188 188 188 188 188 188 188 188
188 188 188 188 187 144 53 10 0 0 0 17 54 104 144 168 185 187 188 188 188 188 188 188 188 188 188 188 188 188 188 188 188 188 188 188 188 188 188 188 188 188 188 188 188 188 188 188 188 188 188 188 188 188 188 188 188 188 188 188 188 188 188 188
188 188 188 188 188 163 101 42 5 2 0 2 22 48 86 128 161 179 184 188 188 188 188 188 188 188 188 188 188 188 188 188 188 188 188 188 188 188 188 188 188 188 188 188 188 188 188 188 188 188 188 188 188 188 188 188 188 188 188 188 188 188 188 188
188 188 188 188 188 181 157 108 57 23 17 9 5 11 27 59 100 139 163 179 186 188 188 188 188 188 188 188 188 188 188 188 188 188 188 188 188 188 188 188 188 188 188 188 188 188 188 188 188 188 188 188 188 188 188 188 188 188 188 188 188 188 188 188
188 188 188 188 188 188 183 168 136 107 75 51 22 5 2 7 34 62 99 135 166 182 187 188 188 188 188 188 188 188 188 188 188 188 188 188 188 188 188 188 188 188 188 188 188 188 188 188 188 188 188 188 188 188 188 188 188 188 188 188 188 188 188 188
188 188 188 188 188 188 188 186 179 167 153 119 76 30 14 6 6 15 30 65 108 153 175 185 187 188 188 188 188 188 188 188 188 188 188 188 188 188 188 188 188 188 188 188 188 188 188 188 188 188 188 188 188 188 188 188 188 188 188 188 188 188 188 188
188 188 188 188 188 188 188 188 188 187 182 171 141 101 63 39 14 4 2 8 43 83 125 151 171 181 187 188 188 188 188 188 188 188 188 188 188 188 188 188 188 188 188 188 188 188 188 188 188 188 188 188 188 188 188 188 188 188 188 188 188 188 188 188
188 188 188 188 188 188 188 188 188 188 188 187 179 163 141 106 65 28 11 3 11 32 59 85 112 152 171 182 186 188 188 188 188 188 188 188 188 188 188 188 188 188 188 188 188 188 188 188 188 188 188 188 188 188 188 188 188 188 188 188 188 188 188 188
188 188 188 188 188 188 188 188 188 188 188 188 188 186 182 166 136 96 56 28 12 14 16 19 40 72 112 145 174 185 187 188 188 188 188 188 188 188 188 188 188 188 188 188 188 188 188 188 188 188 188 188 188 188 188 188 188 188 188 188 188 188 188 188
188 188 188 188 188 188 188 188 188 188 188 188 188 188 188 186 177 160 129 93 62 37 15 2 5 19 41 84 131 167 177 186 188 188 188 188 188 188 188 188 188 188 188 188 188 188 188 188 188 188 188 188 188 188 188 188 188 188 188 188 188 188 188 188
188 188 188 188 188 188 188 188 188 188 188 188 188 188 188 188 188 185 177 157 134 94 49 17 3 2 3 28 66 104 139 168 186 188 188 188 188 188 188 188 188 188 188 188 188 188 188 188 188 188 188 188 188 188 188 188 188 188 188 188 188 188 188 188
188 188 188 188 188 188 188 188 188 188 188 188 188 188 188 188 188 188 186 185 176 157 113 67 31 16 8 13 22 37 75 125 168 182 186 188 188 188 188 188 188 188 188 188 188 188 188 188 188 188 188 188 188 188 188 188 188 188 188 188 188 188 188 188
188 188 188 188 188 188 188 188 188 188 188 188 188 188 188 188 188 188 188 188 188 182 166 136 105 69 47 30 8 4 19 62 108 147 171 185 188 188 188 188 188 188 188 188 188 188 188 188 188 188 188 188 188 188 188 188 188 188 188 188 188 188 188 188
188 188 188 188 188 188 188 188 188 188 188 188 188 188 188 188 188 188 188 188 188 188 185 179 165 148 114 73 23 7 5 17 44 82 127 165 185 188 188 188 188 188 188 188 188 188 188 188 188 188 188 188 188 188 188 188 188 188 188 188 188 188 188 188
188 188 188 188 188 188 188 188 188 188 188 188 188 188 188 188 188 188 188 188 188 188 188 188 187 180 168 129 78 35 13 2 6 22 56 114 155 179 186 188 188 188 188 188 188 188 188 188 188 188 188 188 188 188 188 188 188 188 188 188 188 188 188 188
188 188 188 188 188 188 188 188 188 188 188 188 188 188 188 188 188 188 188 188 188 188 188 188 188 188 185 171 141 96 48 14 4 5 16 48 96 144 175 186 188 188 188 188 188 188 188 188 188 188 188 188 188 188 188 188 188 188 188 188 188 188 188 188
188 188 188 188 188 188 188 188 188 188 188 188 188 188 188 188 188 188 188 188 188 188 188 188 188 188 188 188 178 155 114 69 32 12 4 8 32 79 136 169 184 188 188 188 188 188 188 188 188 188 188 188 188 188 188 188 188 188 188 188 188 188 188 188
188 188 188 188 188 188 188 188 188 188 188 188 188 188 188 188 188 188 188 188 188 188 188 188 188 188 188 188 187 180 168 137 97 49 14 2 3 28 69 122 165 186 188 188 188 188 188 188 188 188 188 188 188 188 188 188 188 188 188 188 188 188 188 188
188 188 188 188 188 188 188 188 188 188 188 188 188 188 188 188 188 188 188 188 188 188 188 188 188 188 188 188 188 188 186 181 157 114 61 23 2 5 21 60 119 164 180 186 188 188 188 188 188 188 188 188 188 188 188 188 188 188 188 188 188 188 188 188
188 188 188 188 188 188 188 188 188 188 188 188 188 188 188 188 188 188 188 188 188 188 188 188 188 188 188 188 188 188 188 188 182 162 125 73 24 2 1 17 57 102 145 175 188 188 188 188 188 188 188 188 188 188 188 188 188 188 188 188 188 188 188 188
188 188 188 188 188 188 188 188 188 188 188 188 188 188 188 188 188 188 188 188 188 188 188 188 188 188 188 188 188 188 188 188 188 185 176 136 78 28 8 5 14 40 85 148 186 188 188 188 188 188 188 188 188 188 188 188 188 188 188 188 188 188 188 188
188 188 188 188 188 188 188 188 188 188 188 188 188 188 188 188 188 188 188 188 188 188 188 188 188 188 188 188 188 188 188 188 188 188 185 173 136 86 38 13 2 2 32 98 157 183 188 188 188 188 188 188 188 188 188 188 188 188 188 188 188 188 188 188
188 188 188 188 188 188 188 188 188 188 188 188 188 188 188 188 188 188 188 188 188 188 188 188 188 188 188 188 188 188 188 188 188 188 188 185 176 148 102 53 16 0 8 46 109 162 186 188 188 188 188 188 188 188 188 188 188 188 188 188 188 188 188 188
188 188 188 188 188 188 188 188 188 188 188 188 188 188 188 188 188 188 188 188 188 188 188 188 188 188 188 188 188 188 188 188 188 188 188 188 188 179 158 114 52 7 0 10 47 116 165 184 188 188 188 188 188 188 188 188 188 188 188 188 188 188 188 188
188 188 188 188 188 188 188 188 188 188 188 188 188 188 188 188 188 188 188 188 188 188 188 188 188 188 188 188 188 188 188 188 188 188 188 188 188 187 182 164 105 32 4 0 11 53 111 160 184 188 188 188 188 188 188 188 188 188 188 188 188 188 188 188
188 188 188 188 188 188 188 188 188 188 188 188 188 188 188 188 188 188 188 188 188 188 188 188 188 188 188 188 188 188 188 188 188 188 188 188 188 188 188 185 153 93 37 7 2 14 49 111 171 183 188 188 188 188 188 188 188 188 188 188 188 188 188 188
188 188 188 188 188 188 188 188 188 188 188 188 188 188 188 188 188 188 188 188 188 188 188 188 188 188 188 188 188 188 188 188 188 188 188 188 188 188 188 188 179 149 95 34 3 0 6 48 104 151 179 188 188 188 188 188 188 188 188 188 188 188 188 188
188 188 188 188 188 188 188 188 188 188 188 188 188 188 188 188 188 188 188 188 188 188 188 188 188 188 188 188 188 188 188 188 188 188 188 188 188 188 188 188 187 185 154 93 35 8 0 11 38 87 148 182 188 188 188 188 188 188 188 188 188 188 188 188
188 188 188 188 188 188 188 188 188 188 188 188 188 188 188 188 188 188 188 188 188 188 188 188 188 188 188 188 188 188 188 188 188 188 188 188 188 188 188 188 188 188 180 148 96 37 2 0 1 22 79 131 167 183 188 188 188 188 188 188 188 188 188 188
188 188 188 188 188 188 188 188 188 188 188 188 188 188 188 188 188 188 188 188 188 188 188 188 188 188 188 188 188 188 188 188 188 188 188 188 188 188 188 188 188 188 188 180 156 88 22 3 0 2 17 56 108 166 188 188 188 188 188 188 188 188 188 188
188 188 188 188 188 188 188 188 188 188 188 188 188 188 188 188 188 188 188 188 188 188 188 188 188 188 188 188 188 188 188 188 188 188 188 188 188 188 188 188 188 188 188 188 182 142 78 25 0 0 0 5 43 134 179 188 188 188 188 188 188 188 188 188
188 188 188 188 188 188 188 188 188 188 188 188 188 188 188 188 188 188 188 188 188 188 188 188 188 188 188 188 188 188 188 188 188 188 188 188 188 188 188 188 188 188 188 188 187 176 141 80 17 1 0 0 27 109 172 188 188 188 188 188 188 188 188 188
188 188 188 188 188 188 188 188 188 188 188 188 188 188 188 188 188 188 188 188 188 188 188 188 188 188 188 188 188 188 188 188 188 188 188 188 188 188 188 188 188 188 188 188 188 188 183 145 78 25 4 0 32 114 178 188 188 188 188 188 188 188 188 188
188 188 188 188 188 188 188 188 188 188 188 188 188 188 188 188 188 188 188 188 188 188 188 188 188 188 188 188 188 188 188 188 188 188 188 188 188 188 188 188 188 188 188 188 188 188 188 177 139 81 34 29 64 142 181 188 188 188 188 188 188 188 188 188
188 188 188 188 188 188 188 188 188 188 188 188 188 188 188 188 188 188 188 188 188 188 188 188 188 188 188 188 188 188 188 188 188 188 188 188 188 188 188 188 188 188 188 188 188 188 188 187 179 148 108 96 134 173 185 188 188 188 188 188 188 188 188 188
188 188 188 188 188 188 188 188 188 188 188 188 188 188 188 188 188 188 188 188 188 188 188 188 188 188 188 188 188 188 188 188 188 188 188 188 188 188 188 188 188 188 188 188 188 188 188 188 188 178 168 165 173 187 188 188 188 188 188 188 188 188 188 188
188 188 188 188 188 188 188 188 188 188 188 188 188 188 188 188 188 188 188 188 188 188 188 188 188 188 188 188 188 188 188 188 188 188 188 188 188 188 188 188 188 188 188 188 188 188 188 188 188 187 185 188 188 188 188 188 188 188 188 188 188 188 188 188
188 188 188 188 188 188 188 188 188 188 188 188 188 188 188 188 188 188 188 188 188 188 188 188 188 188 188 188 188 188 188 188 188 188 188 188 188 188 188 188 188 188 188 188 188 188 188 188 188 188 188 188 188 188 188 188 188 188 188 188 188 188 188 188
188 188 188 188 188 188 188 188 188 188 188 188 188 188 188 188 188 188 188 188 188 188 188 188 188 188 188 188 188 188 188 188 188 188 188 188 188 188 188 188 188 188 188 188 188 188 188 188 188 188 188 188 188 188 188 188 188 188 188 188 188 188 188 188
188 188 188 188 188 188 188 188 188 188 188 188 188 188 188 188 188 188 188 188 188 188 188 188 188 188 188 188 188 188 188 188 188 188 188 188 188 188 188 188 188 188 188 188 188 188 188 188 188 188 188 188 188 188 188 188 188 188 188 188 188 188 188 188
188 188 188 188 188 188 188 188 188 188 188 188 188 188 188 188 188 188 188 188 188 188 188 188 188 188 188 188 188 188 188 188 188 188 188 188 188 188 188 188 188 188 188 188 188 188 188 188 188 188 188 188 188 188 188 188 188 188 188 188 188 188 188 188
188 188 188 188 188 188 188 188 188 188 188 188 188 188 188 188 188 188 188 188 188 188 188 188 188 188 188 188 188 188 188 188 188 188 188 188 188 188 188 188 188 188 188 188 188 188 188 188 188 188 188 188 188 188 188 188 188 188 188 188 188 188 188 188
188 188 188 188 188 188 188 188 188 188 188 188 188 188 188 188 188 188 188 188 188 188 188 188 188 188 188 188 188 188 188 188 188 188 188 188 188 188 188 188 188 188 188 188 188 188 188 188 188 188 188 188 188 188 188 188 188 188 188 188 188 188 188 188
188 188 188 188 188 188 188 188 188 188 188 188 188 188 188 188 188 188 188 188 188 188 188 188 188 188 188 188 188 188 188 188 188 188 188 188 188 188 188 188 188 188 188 188 188 188 188 188 188 188 188 188 188 188 188 188 188 188 188 188 188 188 188 188
188 188 188 188 188 188 188 188 188 188 188 188 188 188 188 188 188 188 188 188 188 188 188 188 188 188 188 188 188 188 188 188 188 188 188 188 188 188 188 188 188 188 188 188 188 188 188 188 188 188 188 188 188 188 188 188 188 188 188 188 188 188 188 188
188 188 188 188 188 188 188 188 188 188 188 188 188 188 188 188 188 188 188 188 188 188 188 188 188 188 188 188 188 188 188 188 188 188 188 188 188 188 188 188 188 188 188 188 188 188 188 188 188 188 188 188 188 188 188 188 188 188 188 188 188 188 188 188
188 188 188 188 188 188 188 188 188 188 188 188 188 188 188 188 188 188 188 188 188 188 188 188 188 188 188 188 188 188 188 188 188 188 188 188 188 188 188 188 188 188 188 188 188 188 188 188 188 188 188 188 188 188 188 188 188 188 188 188 188 188 188 188
