P2
64 64
255
225 225 225 225 225 225 225 225 225 225 225 225 225 225 225 225 225 225 225 225 225 225 225 225 225 225 225 225 225 225 225 225 225 225 225 225 225 225 225 225 225 225 225 225 225 225 225 225 225 225 225 225 225 225 225 225 225 225 225 225 225 225 225 225
225 225 225 225 225 225 225 225 225 225 225 225 225 225 225 225 225 225 225 225 225 225 225 225 225 225 225 225 225 225 225 225 225 225 225 225 225 225 225 225 225 225 225 225 225 225 225 225 225 225 225 225 225 225 225 225 225 225 225 225 225 225 225 225
225 225 225 225 225 225 225 225 225 225 225 225 225 225 225 225 225 225 225 225 225 225 225 225 225 225 225 225 225 225 225 225 225 225 225 225 225 225 225 225 225 225 225 225 225 225 225 225 225 225 225 225 225 225 225 225 225 225 225 225 225 225 225 225
225 225 225 225 225 225 225 225 225 225 225 225 225 225 225 225 225 225 225 225 225 225 225 225 225 225 225 225 225 225 225 225 225 225 225 225 225 225 225 225 225 225 225 225 225 225 225 225 225 225 225 225 225 225 225 225 225 225 225 225 225 225 225 225
225 225 225 225 225 225 225 225 225 225 225 225 225 225 225 225 225 225 225 225 225 225 225 225 225 225 225 225 225 225 225 225 225 225 225 225 225 225 225 225 225 225 225 225 225 225 225 225 225 225 225 225 225 225 225 225 225 225 225 225 225 225 225 225
225 225 225 225 225 225 225 225 225 225 225 225 225 225 225 225 225 225 225 225 225 225 225 225 225 225 225 225 225 225 225 225 225 225 225 225 225 225 225 225 225 225 225 225 225 225 225 225 225 225 225 225 225 225 225 225 225 225 225 225 225 225 225 225
225 225 225 225 225 225 225 225 225 225 225 225 225 225 225 225 225 225 225 225 225 225 225 225 225 225 225 225 225 225 225 225 225 225 225 225 225 225 225 225 225 225 225 225 225 225 225 225 225 225 225 225 225 225 225 225 225 225 225 225 225 225 225 225
225 225 225 225 225 225 225 225 225 225 225 225 225 225 225 225 225 225 225 225 225 225 225 225 225 225 225 225 225 225 225 225 225 225 225 225 225 225 225 225 225 225 225 225 225 225 225 225 225 225 225 225 225 225 225 225 225 225 225 225 225 225 225 225
225 225 225 225 225 225 225 225 225 225 225 225 225 225 225 225 225 225 225 225 225 225 225 225 225 225 224 224 225 225 225 225 225 225 225 225 225 225 225 225 225 225 225 225 225 225 225 225 225 225 225 225 225 225 225 225 225 225 225 225 225 225 225 225
225 225 225 225 225 225 225 225 225 225 225 225 225 225 225 225 225 225 225 225 224 224 221 221 217 219 210 218 217 223 224 225 225 225 225 225 225 225 225 225 225 225 225 225 225 225 225 225 225 225 225 225 225 225 225 225 225 225 225 225 225 225 225 225
225 225 225 225 225 225 225 225 225 225 225 225 225 225 225 224 224 220 222 214 214 187 180 162 160 136 127 125 149 186 200 215 223 225 225 225 225 225 225 225 225 225 225 225 225 225 225 225 225 225 225 225 225 225 225 225 225 225 225 225 225 225 225 225
225 225 225 225 225 225 225 225 225 225 225 225 225 224 223 210 190 179 168 147 115 88 59 54 37 31 8 18 36 67 107 157 190 214 223 225 225 225 225 225 225 225 225 225 225 225 225 225 225 225 225 225 225 225 225 225 225 225 225 225 225 225 225 225
225 225 225 225 225 225 225 225 225 225 224 224 216 215 172 132 86 66 55 45 20 9 5 2 0 0 0 0 0 5 22 47 93 150 187 213 224 224 225 225 225 225 225 225 225 225 225 225 225 225 225 225 225 225 225 225 225 225 225 225 225 225 225 225
225 225 225 225 225 225 225 225 224 224 210 189 156 114 72 19 11 0 4 0 0 6 8 22 26 24 15 23 14 5 1 3 18 42 92 155 195 221 225 225 225 225 225 225 225 225 225 225 225 225 225 225 225 225 225 225 225 225 225 225 225 225 225 225
225 225 225 225 225 225 225 225 221 197 157 97 55 21 4 0 0 0 10 13 39 56 93 116 135 135 136 125 112 76 36 5 1 2 21 53 121 179 209 223 225 225 225 225 225 225 225 225 225 225 225 225 225 225 225 225 225 225 225 225 225 225 225 225
225 225 225 225 225 225 225 221 207 135 64 25 0 0 5 5 26 42 75 110 135 172 189 212 212 217 213 213 210 182 135 84 35 4 0 7 32 81 148 191 217 225 225 225 225 225 225 225 225 225 225 225 225 225 225 225 225 225 225 225 225 225 225 225
225 225 225 225 225 225 224 200 136 60 4 0 3 28 51 95 127 161 180 202 210 220 224 225 224 225 225 225 224 220 217 181 128 68 11 2 0 18 49 118 183 212 224 225 225 225 225 225 225 225 225 225 225 225 225 225 225 225 225 225 225 225 225 225
225 225 225 225 225 223 209 152 62 8 0 15 46 110 165 191 217 217 224 223 225 224 225 225 225 225 225 225 225 225 224 220 211 157 99 45 4 1 4 39 98 173 209 224 225 225 225 225 225 225 225 225 225 225 225 225 225 225 225 225 225 225 225 225
225 225 225 225 224 216 157 79 20 0 7 59 138 188 219 224 225 225 225 225 225 225 225 225 225 225 225 225 225 225 225 225 223 217 192 134 73 18 0 1 30 82 157 213 223 225 225 225 225 225 225 225 225 225 225 225 225 225 225 225 225 225 225 225
225 225 225 225 217 181 93 11 0 7 55 132 200 223 224 225 225 225 225 225 225 225 225 225 225 225 225 225 225 225 225 225 225 225 220 214 156 86 32 0 0 19 76 146 210 218 224 225 225 225 225 225 225 225 225 225 225 225 225 225 225 225 225 225
225 225 225 223 209 148 51 3 7 34 121 199 220 225 225 225 225 225 225 225 225 225 225 225 225 225 225 225 225 225 225 225 225 225 225 223 211 176 103 43 2 0 6 56 111 174 220 224 225 225 225 225 225 225 225 225 225 225 225 225 225 225 225 225
225 225 225 225 205 133 39 7 31 105 182 223 224 225 225 225 225 225 225 225 225 225 225 225 225 225 225 225 225 225 225 225 225 225 225 225 224 214 188 115 41 5 0 0 18 81 155 223 224 225 225 225 225 225 225 225 225 225 225 225 225 225 225 225
225 225 224 223 209 121 37 13 48 142 208 224 225 225 225 225 225 225 225 225 225 225 225 225 225 225 225 225 225 225 225 225 225 225 225 225 225 225 217 189 120 35 6 0 0 2 77 162 222 225 225 225 225 225 225 225 225 225 225 225 225 225 225 225
225 225 225 222 198 117 17 3 36 120 210 223 225 225 225 225 225 225 225 225 225 225 225 225 225 225 225 225 225 225 225 225 225 225 225 225 225 225 225 222 185 114 18 4 0 0 10 81 177 223 225 225 225 225 225 225 225 225 225 225 225 225 225 225
225 225 225 225 204 124 32 0 10 99 187 224 225 225 225 225 225 225 225 225 225 225 225 225 225 225 225 225 225 225 225 225 225 225 225 225 225 225 225 224 223 180 106 20 1 0 0 22 89 196 223 225 225 225 225 225 225 225 225 225 225 225 225 225
225 225 225 224 214 146 45 3 10 71 177 217 225 225 225 225 225 225 225 225 225 225 225 225 225 225 225 225 225 225 225 225 225 225 225 225 225 225 225 225 224 224 181 99 24 0 0 0 37 120 219 224 225 225 225 225 225 225 225 225 225 225 225 225
225 225 225 225 217 166 63 7 4 56 152 217 224 225 225 225 225 225 225 225 225 225 225 225 225 225 225 225 225 225 225 225 225 225 225 225 225 225 225 225 225 224 218 188 90 25 0 0 2 72 163 224 224 225 225 225 225 225 225 225 225 225 225 225
225 225 225 224 222 180 89 13 0 34 120 197 224 225 225 225 225 225 225 225 225 225 225 225 225 225 225 225 225 225 225 225 225 225 225 225 225 225 225 225 225 225 224 216 189 82 26 0 1 19 108 183 224 225 225 225 225 225 225 225 225 225 225 225
225 225 225 225 221 202 112 31 0 12 81 174 218 225 225 225 225 225 225 225 225 225 225 225 225 225 225 225 225 225 225 225 225 225 225 225 225 225 225 225 225 225 225 225 214 175 85 22 0 7 38 129 197 224 225 225 225 225 225 225 225 225 225 225
225 225 225 225 224 208 152 50 8 3 46 142 211 224 225 225 225 225 225 225 225 225 225 225 225 225 225 225 225 225 225 225 225 225 225 225 225 225 225 225 225 225 225 225 225 211 163 82 11 0 14 62 157 212 224 225 225 225 225 225 225 225 225 225
225 225 225 225 224 223 180 95 13 0 23 101 187 224 224 225 225 225 225 225 225 225 225 225 225 225 225 225 225 225 225 225 225 225 225 225 225 225 225 225 225 225 225 225 225 225 208 146 67 3 0 28 102 188 223 224 225 225 225 225 225 225 225 225
225 225 225 225 225 223 211 129 45 1 4 60 154 214 225 225 225 225 225 225 225 225 225 225 225 225 225 225 225 225 225 225 225 225 225 225 225 225 225 225 225 225 225 225 225 225 222 200 119 41 0 1 62 155 215 225 225 225 225 225 225 225 225 225
225 225 225 225 225 225 215 173 74 15 1 26 115 200 223 225 225 225 225 225 225 225 225 225 225 225 225 225 225 225 225 225 225 225 225 225 225 225 225 225 225 225 225 225 225 225 225 214 174 73 15 2 28 130 204 224 225 225 225 225 225 225 225 225
225 225 225 225 225 225 224 195 121 21 1 12 73 168 219 224 225 225 225 225 225 225 225 225 225 225 225 225 225 225 225 225 225 225 225 225 225 225 225 225 225 225 225 225 225 225 225 223 194 114 15 1 22 100 199 222 225 225 225 225 225 225 225 225
225 225 225 225 225 225 224 219 155 65 2 0 36 115 189 224 224 225 225 225 225 225 225 225 225 225 225 225 225 225 225 225 225 225 225 225 225 225 225 225 225 225 225 225 225 225 225 224 213 138 45 0 3 75 168 220 225 225 225 225 225 225 225 225
225 225 225 225 225 225 225 220 199 105 31 0 7 59 149 208 225 225 225 225 225 225 225 225 225 225 225 225 225 225 225 225 225 225 225 225 225 225 225 225 225 225 225 225 225 225 225 224 217 170 66 10 6 42 147 208 224 225 225 225 225 225 225 225
225 225 225 225 225 225 225 224 209 160 67 15 0 23 97 190 221 225 225 225 225 225 225 225 225 225 225 225 225 225 225 225 225 225 225 225 225 225 225 225 225 225 225 225 225 225 225 225 221 187 97 13 1 34 123 209 223 225 225 225 225 225 225 225
225 225 225 225 225 225 225 225 224 195 127 35 3 2 50 138 220 224 225 225 225 225 225 225 225 225 225 225 225 225 225 225 225 225 225 225 225 225 225 225 225 225 225 225 225 225 225 225 224 202 119 29 1 22 117 202 224 225 225 225 225 225 225 225
225 225 225 225 225 225 225 225 224 224 172 86 11 0 6 80 166 223 224 225 225 225 225 225 225 225 225 225 225 225 225 225 225 225 225 225 225 225 225 225 225 225 225 225 225 225 225 225 223 210 127 32 1 17 100 197 223 225 225 225 225 225 225 225
225 225 225 225 225 225 225 225 225 224 217 142 52 3 1 19 116 187 224 225 225 225 225 225 225 225 225 225 225 225 225 225 225 225 225 225 225 225 225 225 225 225 225 225 225 225 225 225 225 210 143 30 2 9 79 184 222 225 225 225 225 225 225 225
225 225 225 225 225 225 225 225 225 225 223 197 109 25 1 9 45 135 197 224 225 225 225 225 225 225 225 225 225 225 225 225 225 225 225 225 225 225 225 225 225 225 225 225 225 225 225 225 224 221 157 59 3 5 79 177 219 225 225 225 225 225 225 225
225 225 225 225 225 225 225 225 225 225 225 215 162 75 8 0 14 59 147 210 224 225 225 225 225 225 225 225 225 225 225 225 225 225 225 225 225 225 225 225 225 225 225 225 225 225 225 225 225 204 145 52 12 31 103 194 221 224 225 225 225 225 225 225
225 225 225 225 225 225 225 225 225 225 224 224 202 138 63 3 0 16 75 158 221 223 225 225 225 225 225 225 225 225 225 225 225 225 225 225 225 225 225 225 225 225 225 225 225 225 225 224 219 163 73 20 4 54 145 209 225 225 225 225 225 225 225 225
225 225 225 225 225 225 225 225 225 225 225 224 221 202 128 53 2 0 20 90 163 217 223 225 225 225 225 225 225 225 225 225 225 225 225 225 225 225 225 225 225 225 225 225 225 224 224 208 160 93 22 0 7 71 178 217 225 225 225 225 225 225 225 225
225 225 225 225 225 225 225 225 225 225 225 225 225 217 195 113 39 2 3 17 89 157 206 224 224 225 225 225 225 225 225 225 225 225 225 225 225 225 225 225 225 225 225 225 222 221 180 132 68 18 3 2 29 113 199 223 224 225 225 225 225 225 225 225
225 225 225 225 225 225 225 225 225 225 225 225 225 225 215 180 102 30 4 2 15 75 143 192 219 224 224 225 225 225 225 225 225 225 225 225 225 225 225 225 224 224 217 210 185 150 93 28 12 0 2 23 94 173 216 225 225 225 225 225 225 225 225 225
225 225 225 225 225 225 225 225 225 225 225 225 225 225 225 213 172 105 29 7 0 15 46 112 161 199 218 223 223 224 225 224 224 224 225 225 225 223 223 212 208 183 163 123 89 48 19 2 1 3 52 109 172 218 224 225 225 225 225 225 225 225 225 225
225 225 225 225 225 225 225 225 225 225 225 225 225 225 225 225 218 177 114 44 10 1 7 22 56 110 149 183 198 210 208 212 211 216 217 210 206 186 169 138 109 81 48 30 6 4 1 2 31 82 139 197 216 225 225 225 225 225 225 225 225 225 225 225
225 225 225 225 225 225 225 225 225 225 225 225 225 225 225 225 224 223 188 135 74 19 7 1 7 17 40 69 93 104 122 130 130 140 138 132 105 83 52 37 13 9 1 0 1 11 22 62 112 173 208 221 225 225 225 225 225 225 225 225 225 225 225 225
225 225 225 225 225 225 225 225 225 225 225 225 225 225 225 225 225 224 222 208 165 117 64 23 11 3 3 6 10 15 24 23 28 29 35 19 18 3 5 1 1 8 7 31 45 83 120 156 198 214 225 225 225 225 225 225 225 225 225 225 225 225 225 225
225 225 225 225 225 225 225 225 225 225 225 225 225 225 225 225 225 225 225 223 221 202 167 127 82 52 34 28 17 5 9 7 8 5 4 0 3 3 14 21 48 67 100 126 162 183 210 216 224 224 225 225 225 225 225 225 225 225 225 225 225 225 225 225
225 225 225 225 225 225 225 225 225 225 225 225 225 225 225 225 225 225 225 225 224 223 222 208 189 167 154 128 110 94 75 73 67 61 53 45 58 73 99 127 153 181 195 213 217 224 224 225 224 225 225 225 225 225 225 225 225 225 225 225 225 225 225 225
225 225 225 225 225 225 225 225 225 225 225 225 225 225 225 225 225 225 225 225 225 225 224 224 224 219 217 211 212 195 192 182 183 172 164 165 170 190 196 214 217 224 224 225 225 225 225 225 225 225 225 225 225 225 225 225 225 225 225 225 225 225 225 225
225 225 225 225 225 225 225 225 225 225 225 225 225 225 225 225 225 225 225 225 225 225 225 225 225 224 224 225 224 223 224 222 223 220 221 218 223 222 224 224 225 225 225 225 225 225 225 225 225 225 225 225 225 225 225 225 225 225 225 225 225 225 225 225
225 225 225 225 225 225 225 225 225 225 225 225 225 225 225 225 225 225 225 225 225 225 225 225 225 225 225 225 225 225 225 225 225 225 225 225 225 225 225 225 225 225 225 225 225 225 225 225 225 225 225 225 225 225 225 225 225 225 225 225 225 225 225 225
225 225 225 225 225 225 225 225 225 225 225 225 225 225 225 225 225 225 225 225 225 225 225 225 225 225 225 225 225 225 225 225 225 225 225 225 225 225 225 225 225 225 225 225 225 225 225 225 225 225 225 225 225 225 225 225 225 225 225 225 225 225 225 225
225 225 225 225 225 225 225 225 225 225 225 225 225 225 225 225 225 225 225 225 225 225 225 225 225 225 225 225 225 225 225 225 225 225 225 225 225 225 225 225 225 225 225 225 225 225 225 225 225 225 225 225 225 225 225 225 225 225 225 225 225 225 225 225
225 225 225 225 225 225 225 225 225 225 225 225 225 225 225 225 225 225 225 225 225 225 225 225 225 225 225 225 225 225 225 225 225 225 225 225 225 225 225 225 225 225 225 225 225 225 225 225 225 225 225 225 225 225 225 225 225 225 225 225 225 225 225 225
225 225 225 225 225 225 225 225 225 225 225 225 225 225 225 225 225 225 225 225 225 225 225 225 225 225 225 225 225 225 225 225 225 225 225 225 225 225 225 225 225 225 225 225 225 225 225 225 225 225 225 225 225 225 225 225 225 225 225 225 225 225 225 225
225 225 225 225 225 225 225 225 225 225 225 225 225 225 225 225 225 225 225 225 225 225 225 225 225 225 225 225 225 225 225 225 225 225 225 225 225 225 225 225 225 225 225 225 225 225 225 225 225 225 225 225 225 225 225 225 225 225 225 225 225 225 225 225
225 225 225 225 225 225 225 225 225 225 225 225 225 225 225 225 225 225 225 225 225 225 225 225 225 225 225 225 225 225 225 225 225 225 225 225 225 225 225 225 225 225 225 225 225 225 225 225 225 225 225 225 225 225 225 225 225 225 225 225 225 225 225 225
225 225 225 225 225 225 225 225 225 225 225 225 225 225 225 225 225 225 225 225 225 225 225 225 225 225 225 225 225 225 225 225 225 225 225 225 225 225 225 225 225 225 225 225 225 225 225 225 225 225 225 225 225 225 225 225 225 225 225 225 225 225 225 225
225 225 225 225 225 225 225 225 225 225 225 225 225 225 225 225 225 225 225 225 225 225 225 225 225 225 225 225 225 225 225 225 225 225 225 225 225 225 225 225 225 225 225 225 225 225 225 225 225 225 225 225 225 225 225 225 225 225 225 225 225 225 225 225
225 225 225 225 225 225 225 225 225 225 225 225 225 225 225 225 225 225 225 225 225 225 225 225 225 225 225 225 225 225 225 225 225 225 225 225 225 225 225 225 225 225 225 225 225 225 225 225 225 225 225 225 225 225 225 225 225 225 225 225 225 225 225 225
