P2
64 64
255
246 246 246 246 246 246 246 246 246 246 246 246 246 246 246 246 246 246 246 246 246 246 246 246 246 246 246 246 246 246 246 246 246 246 246 246 246 246 246 246 246 246 246 246 246 246 246 246 246 246 246 246 246 246 246 246 246 246 246 246 246 246 246 246
246 246 246 246 246 246 246 246 246 246 246 246 246 246 246 246 246 246 246 246 246 246 246 246 246 246 246 246 246 246 246 246 246 246 246 246 246 246 246 246 246 246 246 246 246 246 246 246 246 246 246 246 246 246 246 246 246 246 246 246 246 246 246 246
246 246 246 246 246 246 246 246 246 246 246 246 246 246 246 246 246 246 246 246 246 246 246 246 246 246 246 246 246 246 246 246 246 246 246 246 246 246 246 246 246 246 246 246 246 246 246 246 246 246 246 246 246 246 246 246 246 246 246 246 246 246 246 246
246 246 246 246 246 246 246 246 246 246 246 246 246 246 246 246 246 246 246 246 246 246 246 246 246 246 246 246 246 246 246 246 246 246 246 246 246 246 246 246 246 246 246 246 245 246 246 246 246 246 246 246 246 246 246 246 246 246 246 246 246 246 246 246
246 246 246 246 246 246 246 246 246 246 246 246 246 246 246 246 246 246 246 246 246 246 246 246 246 246 246 246 246 246 246 246 246 246 246 246 246 246 246 246 246 244 244 242 243 243 244 246 246 246 246 246 246 246 246 246 246 246 246 246 246 246 246 246
246 246 246 246 246 246 246 246 246 246 246 246 246 246 246 246 246 246 246 246 246 246 246 246 246 246 246 246 246 246 246 246 246 246 246 246 246 246 244 243 238 231 214 204 206 209 233 238 246 246 246 246 246 246 246 246 246 246 246 246 246 246 246 246
246 246 246 246 246 246 246 246 246 246 246 246 246 246 246 246 246 246 246 246 246 246 246 246 246 246 246 246 246 246 246 246 246 246 246 246 245 236 227 221 189 157 126 100 103 127 158 207 236 243 246 246 246 246 246 246 246 246 246 246 246 246 246 246
246 246 246 246 246 246 246 246 246 246 246 246 246 246 246 246 246 246 246 246 246 246 246 246 246 246 246 246 246 246 246 246 246 246 246 242 229 198 163 136 102 56 32 18 14 27 73 126 185 238 244 246 246 246 246 246 246 246 246 246 246 246 246 246
246 246 246 246 246 246 246 246 246 246 246 246 246 246 246 246 246 246 246 246 246 246 246 246 246 246 246 246 246 246 246 246 246 245 238 227 165 109 58 47 32 11 0 1 0 2 4 45 115 186 230 246 246 246 246 246 246 246 246 246 246 246 246 246
246 246 246 246 246 246 246 246 246 246 246 246 246 246 246 246 246 246 246 246 246 246 246 246 246 246 246 246 246 246 246 246 245 244 209 149 79 21 10 5 12 14 22 23 12 6 0 8 33 121 205 238 245 246 246 246 246 246 246 246 246 246 246 246
246 246 246 246 246 246 246 246 246 246 246 246 246 246 246 246 246 246 246 246 246 246 246 246 246 246 246 246 246 246 246 246 245 213 153 64 24 0 0 4 43 75 100 103 83 33 6 0 13 61 142 212 244 246 246 246 246 246 246 246 246 246 246 246
246 246 246 246 246 246 246 246 246 246 246 246 246 246 246 246 246 246 246 246 246 246 246 246 246 246 246 246 246 246 246 245 230 173 85 25 0 0 6 40 108 168 195 205 176 115 47 1 0 9 81 179 230 244 246 246 246 246 246 246 246 246 246 246
246 246 246 246 246 246 246 246 246 246 246 246 246 246 246 246 246 246 246 246 246 246 246 246 246 246 246 246 246 246 245 245 190 113 30 5 0 8 25 109 180 230 240 240 239 187 105 35 4 2 34 113 201 244 245 246 246 246 246 246 246 246 246 246
246 246 246 246 246 246 246 246 246 246 246 246 246 246 246 246 246 246 246 246 246 246 246 246 246 246 246 246 246 246 245 211 143 50 13 0 2 39 105 177 236 244 245 246 244 227 175 78 7 0 4 62 169 229 245 246 246 246 246 246 246 246 246 246
246 246 246 246 246 246 246 246 246 246 246 246 246 246 246 246 246 246 246 246 246 246 246 246 246 246 246 246 246 245 235 178 84 21 0 2 46 107 188 224 244 246 246 246 246 245 211 121 33 0 1 37 124 214 244 246 246 246 246 246 246 246 246 246
246 246 246 246 246 246 246 246 246 246 246 246 246 246 246 246 246 246 246 246 246 246 246 246 246 246 246 246 246 246 217 141 41 7 1 27 100 179 225 245 245 246 246 246 246 245 230 176 66 4 0 14 101 196 242 245 246 246 246 246 246 246 246 246
246 246 246 246 246 246 246 246 246 246 246 246 246 246 246 246 246 246 246 246 246 246 246 246 246 246 246 246 246 241 213 112 33 0 1 66 153 223 243 246 246 246 246 246 246 245 242 200 106 26 4 16 82 189 234 245 246 246 246 246 246 246 246 246
246 246 246 246 246 246 246 246 246 246 246 246 246 246 246 246 246 246 246 246 246 246 246 246 246 246 246 246 245 242 196 106 14 1 24 94 196 235 246 246 246 246 246 246 246 246 244 226 159 64 10 12 65 158 230 245 246 246 246 246 246 246 246 246
246 246 246 246 246 246 246 246 246 246 246 246 246 246 246 246 246 246 246 246 246 246 246 246 246 246 246 246 245 239 207 96 21 2 22 115 203 244 245 246 246 246 246 246 246 246 245 236 189 90 19 5 27 122 216 243 245 246 246 246 246 246 246 246
246 246 246 246 246 246 246 246 246 246 246 246 246 246 246 246 246 246 246 246 246 246 246 246 246 246 246 246 245 242 193 96 10 1 31 118 219 242 246 246 246 246 246 246 246 246 245 242 203 116 27 1 15 81 187 235 246 246 246 246 246 246 246 246
246 246 246 246 246 246 246 246 246 246 246 246 246 246 246 246 246 246 246 246 246 246 246 246 246 246 246 246 246 240 199 92 20 1 27 125 213 244 246 246 246 246 246 246 246 246 246 243 223 135 39 0 0 44 154 234 245 246 246 246 246 246 246 246
246 246 246 246 246 246 246 246 246 246 246 246 246 246 246 246 246 246 246 246 246 246 246 246 246 246 246 246 246 239 188 92 15 1 35 123 214 243 246 246 246 246 246 246 246 246 246 246 230 149 30 2 0 35 140 222 244 246 246 246 246 246 246 246
246 246 246 246 246 246 246 246 246 246 246 246 246 246 246 246 246 246 246 246 246 246 246 246 246 246 246 246 245 236 188 84 16 2 34 129 214 245 245 246 246 246 246 246 246 246 246 245 235 154 52 3 0 35 131 224 244 246 246 246 246 246 246 246
246 246 246 246 246 246 246 246 246 246 246 246 246 246 246 246 246 246 246 246 246 246 246 246 246 246 246 246 246 234 176 76 10 3 38 136 218 242 246 246 246 246 246 246 246 246 246 245 231 175 65 10 4 33 140 220 246 246 246 246 246 246 246 246
246 246 246 246 246 246 246 246 246 246 246 246 246 246 246 246 246 246 246 246 246 246 246 246 246 246 246 246 245 235 173 73 11 2 47 141 222 244 246 246 246 246 246 246 246 246 246 245 241 191 93 20 4 42 136 230 244 245 246 246 246 246 246 246
246 246 246 246 246 246 246 246 246 246 246 246 246 246 246 246 246 246 246 246 246 246 246 246 246 246 246 246 246 232 172 69 12 4 50 153 221 244 246 246 246 246 246 246 246 246 246 246 243 203 105 28 4 29 129 213 242 246 246 246 246 246 246 246
246 246 246 246 246 246 246 246 246 246 246 246 246 246 246 246 246 246 246 246 246 246 246 246 246 246 246 246 245 235 176 77 9 1 51 146 225 245 246 246 246 246 246 246 246 246 246 246 244 205 116 26 0 27 108 208 241 246 246 246 246 246 246 246
246 246 246 246 246 246 246 246 246 246 246 246 246 246 246 246 246 246 246 246 246 246 246 246 246 246 246 246 245 233 180 75 14 8 46 149 223 244 246 246 246 246 246 246 246 246 246 246 241 214 120 34 3 17 105 197 243 245 246 246 246 246 246 246
246 246 246 246 246 246 246 246 246 246 246 246 246 246 246 246 246 246 246 246 246 246 246 246 246 246 246 246 245 242 183 85 15 2 49 141 225 243 246 246 246 246 246 246 246 246 246 245 244 216 137 39 10 27 102 203 237 245 246 246 246 246 246 246
246 246 246 246 246 246 246 246 246 246 246 246 246 246 246 246 246 246 246 246 246 246 246 246 246 246 246 246 246 238 193 88 20 3 39 139 216 244 246 246 246 246 246 246 246 246 246 246 244 225 158 71 21 27 105 188 236 245 246 246 246 246 246 246
246 246 246 246 246 246 246 246 246 246 246 246 246 246 246 246 246 246 246 246 246 246 246 246 246 246 246 246 245 243 200 103 16 1 35 124 219 243 246 246 246 246 246 246 246 246 246 246 245 228 178 89 37 49 108 192 233 245 246 246 246 246 246 246
246 246 246 246 246 246 246 246 246 246 246 246 246 246 246 246 246 246 246 246 246 246 246 246 246 246 246 246 246 241 208 109 26 3 19 117 209 243 246 246 246 246 246 246 246 246 246 246 244 236 190 118 62 64 129 196 238 245 246 246 246 246 246 246
246 246 246 246 246 246 246 246 246 246 246 246 246 246 246 246 246 246 246 246 246 246 246 246 246 246 246 246 245 245 208 122 29 3 27 107 209 240 246 246 246 246 246 246 246 246 246 245 244 237 210 159 118 114 168 216 239 246 246 246 246 246 246 246
246 246 246 246 246 246 246 246 246 246 246 246 246 246 246 246 246 246 246 246 246 246 246 246 246 246 246 246 246 242 216 126 40 3 18 100 193 241 245 246 246 246 246 246 246 246 246 246 246 242 231 205 183 189 208 232 246 246 246 246 246 246 246 246
246 246 246 246 246 246 246 246 246 246 246 246 246 246 246 246 246 246 246 246 246 246 246 246 246 246 246 246 245 244 215 133 33 5 21 91 195 237 245 246 246 246 246 246 246 246 246 246 246 246 243 234 231 227 238 243 246 246 246 246 246 246 246 246
246 246 246 246 246 246 246 245 246 246 245 246 246 246 246 246 246 246 246 246 246 246 246 246 246 246 246 246 246 243 223 136 43 4 7 90 187 239 245 246 246 246 246 246 246 246 246 246 246 246 246 246 243 243 244 246 246 246 246 246 246 246 246 246
246 246 246 246 246 244 242 239 236 238 245 244 246 245 246 246 246 246 246 246 246 246 246 246 246 246 246 246 245 245 221 149 45 7 18 81 186 233 246 246 246 246 246 246 246 246 246 246 246 246 246 246 246 246 246 246 246 246 246 246 246 246 246 246
246 246 246 245 243 227 204 190 180 195 202 233 234 239 242 243 246 245 246 246 246 246 246 246 246 246 246 246 246 244 233 161 65 5 11 70 167 236 245 246 246 246 246 246 246 246 246 246 246 246 246 246 246 246 246 246 246 246 246 246 246 246 246 246
246 246 245 245 219 178 121 87 76 81 111 141 170 191 200 226 228 242 245 245 246 246 246 246 246 246 246 246 245 245 233 174 72 16 11 57 161 227 245 246 246 246 246 246 246 246 246 246 246 246 246 246 246 246 246 246 246 246 246 246 246 246 246 246
246 246 246 237 206 117 47 14 6 15 13 50 65 87 111 135 170 196 217 241 239 245 245 245 246 246 246 246 246 245 239 184 91 20 5 54 143 224 243 246 246 246 246 246 246 246 246 246 246 246 246 246 246 246 246 246 246 246 246 246 246 246 246 246
246 246 245 237 193 106 30 6 0 0 1 2 9 16 18 49 65 103 139 167 202 217 231 245 245 246 246 246 246 246 238 202 105 28 8 37 130 210 243 245 246 246 246 246 246 246 246 246 246 246 246 246 246 246 246 246 246 246 246 246 246 246 246 246
246 246 245 239 211 153 83 35 20 0 6 2 2 1 1 0 13 22 32 72 101 141 189 214 239 245 245 246 246 245 244 209 119 27 5 28 111 211 240 245 246 246 246 246 246 246 246 246 246 246 246 246 246 246 246 246 246 246 246 246 246 246 246 246
246 246 245 243 238 203 171 129 86 68 59 55 43 21 19 0 1 0 3 3 27 55 95 150 197 223 245 245 245 246 243 218 125 37 3 15 103 196 241 245 246 246 246 246 246 246 246 246 246 246 246 246 246 246 246 246 246 246 246 246 246 246 246 246
246 246 246 246 243 240 230 209 198 171 170 159 139 114 80 55 29 7 5 0 0 2 31 60 114 171 206 232 245 245 245 218 140 36 1 19 86 195 238 246 246 246 246 246 246 246 246 246 246 246 246 246 246 246 246 246 246 246 246 246 246 246 246 246
246 246 246 246 246 246 244 245 237 237 230 228 224 200 185 148 115 83 43 30 11 0 1 13 42 78 135 190 216 242 243 231 146 50 3 7 81 180 241 245 246 246 246 246 246 246 246 246 246 246 246 246 246 246 246 246 246 246 246 246 246 246 246 246
246 246 246 246 246 246 246 246 246 245 245 245 244 244 232 227 210 179 154 106 57 31 2 1 1 24 53 99 159 206 229 226 157 50 9 12 72 180 232 245 246 246 246 246 246 246 246 246 246 246 246 246 246 246 246 246 246 246 246 246 246 246 246 246
246 246 246 246 246 246 246 246 246 246 246 246 246 245 245 245 243 244 219 195 149 92 50 21 1 1 5 35 70 132 193 212 158 67 8 7 70 166 233 245 246 246 246 246 246 246 246 246 246 246 246 246 246 246 246 246 246 246 246 246 246 246 246 246
246 246 246 246 246 246 246 246 246 246 246 246 246 246 246 246 246 245 245 239 213 186 129 72 39 10 1 0 18 56 108 161 167 70 12 11 56 160 226 245 246 246 246 246 246 246 246 246 246 246 246 246 246 246 246 246 246 246 246 246 246 246 246 246
246 246 246 246 246 246 246 246 246 246 246 246 246 246 246 246 246 246 246 245 245 229 204 166 109 55 27 0 0 2 41 96 117 74 15 6 50 143 229 243 245 246 246 246 246 246 246 246 246 246 246 246 246 246 246 246 246 246 246 246 246 246 246 246
246 246 246 246 246 246 246 246 246 246 246 246 246 246 246 246 246 246 246 246 245 245 245 221 194 142 80 35 11 0 3 22 66 64 19 2 32 132 212 243 245 246 246 246 246 246 246 246 246 246 246 246 246 246 246 246 246 246 246 246 246 246 246 246
246 246 246 246 246 246 246 246 246 246 246 246 246 246 246 246 246 246 246 246 246 246 245 245 236 208 170 105 39 13 0 5 15 23 6 1 29 111 212 242 246 246 246 246 246 246 246 246 246 246 246 246 246 246 246 246 246 246 246 246 246 246 246 246
246 246 246 246 246 246 246 246 246 246 246 246 246 246 246 246 246 246 246 246 246 246 246 246 245 245 223 185 127 48 2 0 0 5 4 1 14 111 201 243 245 246 246 246 246 246 246 246 246 246 246 246 246 246 246 246 246 246 246 246 246 246 246 246
246 246 246 246 246 246 246 246 246 246 246 246 246 246 246 246 246 246 246 246 246 246 246 246 246 245 245 243 189 109 38 4 0 0 0 0 25 101 206 238 245 246 246 246 246 246 246 246 246 246 246 246 246 246 246 246 246 246 246 246 246 246 246 246
246 246 246 246 246 246 246 246 246 246 246 246 246 246 246 246 246 246 246 246 246 246 246 246 246 246 246 244 233 183 93 19 2 0 0 0 14 90 185 238 245 246 246 246 246 246 246 246 246 246 246 246 246 246 246 246 246 246 246 246 246 246 246 246
246 246 246 246 246 246 246 246 246 246 246 246 246 246 246 246 246 246 246 246 246 246 246 246 246 246 246 246 246 221 169 93 25 0 0 0 9 58 171 234 245 246 246 246 246 246 246 246 246 246 246 246 246 246 246 246 246 246 246 246 246 246 246 246
246 246 246 246 246 246 246 246 246 246 246 246 246 246 246 246 246 246 246 246 246 246 246 246 246 246 246 246 245 244 228 165 82 19 0 0 0 47 152 234 244 246 246 246 246 246 246 246 246 246 246 246 246 246 246 246 246 246 246 246 246 246 246 246
246 246 246 246 246 246 246 246 246 246 246 246 246 246 246 246 246 246 246 246 246 246 246 246 246 246 246 246 246 246 243 224 139 39 0 0 1 30 146 223 245 246 246 246 246 246 246 246 246 246 246 246 246 246 246 246 246 246 246 246 246 246 246 246
246 246 246 246 246 246 246 246 246 246 246 246 246 246 246 246 246 246 246 246 246 246 246 246 246 246 246 246 246 246 246 238 177 67 12 0 0 52 150 238 245 246 246 246 246 246 246 246 246 246 246 246 246 246 246 246 246 246 246 246 246 246 246 246
246 246 246 246 246 246 246 246 246 246 246 246 246 246 246 246 246 246 246 246 246 246 246 246 246 246 246 246 246 246 246 241 213 133 45 14 38 86 192 237 246 246 246 246 246 246 246 246 246 246 246 246 246 246 246 246 246 246 246 246 246 246 246 246
246 246 246 246 246 246 246 246 246 246 246 246 246 246 246 246 246 246 246 246 246 246 246 246 246 246 246 246 246 246 245 245 238 191 140 106 124 173 225 244 245 246 246 246 246 246 246 246 246 246 246 246 246 246 246 246 246 246 246 246 246 246 246 246
246 246 246 246 246 246 246 246 246 246 246 246 246 246 246 246 246 246 246 246 246 246 246 246 246 246 246 246 246 246 246 246 243 236 220 204 214 234 241 245 246 246 246 246 246 246 246 246 246 246 246 246 246 246 246 246 246 246 246 246 246 246 246 246
246 246 246 246 246 246 246 246 246 246 246 246 246 246 246 246 246 246 246 246 246 246 246 246 246 246 246 246 246 246 246 246 246 246 243 245 241 244 246 246 246 246 246 246 246 246 246 246 246 246 246 246 246 246 246 246 246 246 246 246 246 246 246 246
246 246 246 246 246 246 246 246 246 246 246 246 246 246 246 246 246 246 246 246 246 246 246 246 246 246 246 246 246 246 246 246 246 246 246 245 246 245 246 246 246 246 246 246 246 246 246 246 246 246 246 246 246 246 246 246 246 246 246 246 246 246 246 246
246 246 246 246 246 246 246 246 246 246 246 246 246 246 246 246 246 246 246 246 246 246 246 246 246 246 246 246 246 246 246 246 246 246 246 246 246 246 246 246 246 246 246 246 246 246 246 246 246 246 246 246 246 246 246 246 246 246 246 246 246 246 246 246
