P2
64 64
255
138 138 138 138 138 138 138 138 138 138 138 138 138 138 138 138 138 138 138 138 138 138 138 138 138 138 138 138 138 138 138 138 138 138 138 138 138 138 138 138 138 138 138 138 138 138 138 138 138 138 138 138 138 138 138 138 138 138 138 138 138 138 138 138
138 138 138 138 138 138 138 138 138 138 138 138 138 138 138 138 138 138 138 138 138 138 138 138 138 138 138 138 138 138 138 138 138 138 138 138 138 138 138 138 138 138 138 138 138 138 138 138 138 138 138 138 138 138 138 138 138 138 138 138 138 138 138 138
138 138 138 138 138 138 138 138 138 138 138 138 138 138 138 138 138 138 138 138 138 138 138 138 138 138 138 138 138 138 138 138 138 138 138 138 138 138 138 138 138 138 138 138 138 138 138 138 138 138 138 138 138 138 138 138 138 138 138 138 138 138 138 138
138 138 138 138 138 138 138 138 138 138 138 138 138 138 138 138 138 138 138 138 138 138 138 138 138 138 138 138 138 138 138 138 138 138 138 138 138 138 138 138 138 138 138 138 138 138 138 138 138 138 138 138 138 138 138 138 138 138 138 138 138 138 138 138
138 138 138 138 138 138 138 138 138 138 138 138 138 138 138 138 138 138 138 138 138 138 138 138 138 138 138 138 138 138 138 138 138 138 138 138 138 138 138 138 138 138 138 138 138 138 138 138 138 138 138 138 138 138 138 138 138 138 138 138 138 138 138 138
138 138 138 138 138 138 138 138 138 138 138 138 138 138 138 138 138 138 138 138 138 138 138 138 138 138 138 138 138 138 138 138 138 138 138 138 138 138 138 138 138 138 138 138 138 138 138 138 138 138 138 138 138 138 138 138 138 138 138 138 138 138 138 138
138 138 138 138 138 138 138 138 138 138 138 138 138 138 138 138 138 138 138 138 138 138 138 138 138 138 138 138 138 138 138 138 138 138 138 138 138 138 138 138 138 138 138 138 138 138 138 138 138 138 138 138 138 138 138 138 138 138 138 138 138 138 138 138
138 138 138 138 138 138 138 138 138 138 138 138 138 138 138 138 137 135 134 136 138 138 138 138 138 138 138 138 138 138 138 138 138 138 138 138 138 138 138 138 138 138 138 138 138 138 138 138 138 138 138 138 138 138 138 138 138 138 138 138 138 138 138 138
138 138 138 138 138 138 138 138 138 138 138 138 138 138 138 136 129 118 109 116 129 135 138 138 138 138 138 138 138 138 138 138 138 138 138 138 138 138 138 138 138 138 138 138 138 138 138 138 138 138 138 138 138 138 138 138 138 138 138 138 138 138 138 138
138 138 138 138 138 138 138 138 138 138 138 138 138 138 138 128 104 72 57 72 108 131 137 138 138 138 138 138 138 138 138 138 138 138 138 138 138 138 138 138 138 138 138 138 138 138 138 138 138 138 138 138 138 138 138 138 138 138 138 138 138 138 138 138
138 138 138 138 138 138 138 138 138 138 138 138 138 138 138 116 71 30 19 44 90 126 138 138 138 138 138 138 138 138 138 138 138 138 138 138 138 138 138 138 138 138 138 138 138 138 138 138 138 138 138 138 138 138 138 138 138 138 138 138 138 138 138 138
138 138 138 138 138 138 138 138 138 138 138 138 138 138 129 97 40 5 3 36 88 125 138 138 138 138 138 138 138 138 138 138 138 138 138 138 138 138 138 138 138 138 138 138 138 138 138 138 138 138 138 138 138 138 138 138 138 138 138 138 138 138 138 138
138 138 138 138 138 138 138 138 138 138 138 138 138 138 120 76 25 1 4 38 98 130 138 138 138 138 138 138 138 138 138 138 138 138 138 138 138 138 138 138 138 138 138 138 138 138 138 138 138 138 138 138 138 138 138 138 138 138 138 138 138 138 138 138
138 138 138 138 138 138 138 138 138 138 138 138 138 138 117 61 16 0 12 52 110 138 138 138 138 138 138 138 138 138 138 138 138 138 138 138 138 138 138 138 138 138 138 138 138 138 138 138 138 138 138 138 138 138 138 138 138 138 138 138 138 138 138 138
138 138 138 138 138 138 138 138 138 138 138 138 138 135 117 56 7 0 15 65 116 138 138 138 138 138 138 138 138 138 138 138 138 138 138 138 134 127 120 117 123 134 138 138 138 138 138 138 138 138 138 138 138 138 138 138 138 138 138 138 138 138 138 138
138 138 138 138 138 138 138 138 138 138 138 138 138 136 109 51 2 0 10 73 123 138 138 138 138 138 138 138 138 138 138 138 138 138 138 138 121 89 58 51 79 115 134 138 138 138 138 138 138 138 138 138 138 138 138 138 138 138 138 138 138 138 138 138
138 138 138 138 138 138 138 138 138 138 138 138 138 137 96 35 2 1 21 84 136 138 138 138 138 138 138 138 138 138 138 138 138 138 138 129 99 45 9 6 44 96 128 138 138 138 138 138 138 138 138 138 138 138 138 138 138 138 138 138 138 138 138 138
138 138 138 138 138 138 138 138 138 138 138 138 138 133 79 16 1 3 40 100 137 138 138 138 138 138 138 138 138 138 138 138 138 138 138 120 76 26 1 4 38 98 130 138 138 138 138 138 138 138 138 138 138 138 138 138 138 138 138 138 138 138 138 138
138 138 138 138 138 138 138 138 138 138 138 138 138 116 59 4 0 4 60 116 138 138 138 138 138 138 138 138 138 138 138 138 138 138 138 113 58 15 1 13 52 110 138 138 138 138 138 138 138 138 138 138 138 138 138 138 138 138 138 138 138 138 138 138
138 138 138 138 138 138 138 138 138 138 138 138 137 100 40 3 1 16 79 133 138 138 138 138 138 138 138 138 138 138 138 138 138 138 133 108 46 6 0 20 69 117 138 138 138 138 138 138 138 138 138 138 138 138 138 138 138 138 138 138 138 138 138 138
138 138 138 138 138 138 138 138 138 138 138 138 136 86 22 2 2 35 94 136 138 138 138 138 138 138 138 138 138 138 138 138 138 138 132 99 41 1 0 20 82 125 138 138 138 138 138 138 138 138 138 138 138 138 138 138 138 138 138 138 138 138 138 138
138 138 138 138 138 138 138 138 138 138 138 138 122 72 12 0 2 50 107 135 138 138 138 138 138 138 138 138 138 138 138 138 138 138 134 90 32 1 3 28 91 136 138 138 138 138 138 138 138 138 138 138 138 138 138 138 138 138 138 138 138 138 138 138
138 138 138 138 138 138 138 138 138 138 138 138 108 53 9 0 10 62 120 135 138 138 138 138 138 138 138 138 138 138 138 138 138 138 133 78 16 1 3 41 101 137 138 138 138 138 138 138 138 138 138 138 138 138 138 138 138 138 138 138 138 138 138 138
138 138 138 138 138 138 138 138 138 138 138 138 94 33 5 1 25 78 127 138 138 138 138 138 138 138 138 138 138 138 138 138 138 138 117 61 4 0 4 59 115 138 138 138 138 138 138 138 138 138 138 138 138 138 138 138 138 138 138 138 138 138 138 138
138 138 138 138 138 138 138 138 138 138 138 125 77 15 1 1 41 96 131 138 138 138 138 138 138 138 138 138 138 138 138 138 138 137 100 41 3 1 16 79 132 138 138 138 138 138 138 138 138 138 138 138 138 138 138 138 138 138 138 138 138 138 138 138
138 138 138 138 138 138 138 138 138 138 138 111 59 11 0 7 57 114 134 138 138 138 138 138 138 138 138 138 138 138 138 138 138 136 84 21 1 2 35 95 137 138 138 138 138 138 138 138 138 138 138 138 138 138 138 138 138 138 138 138 138 138 138 138
138 138 138 138 138 138 138 138 138 138 138 101 40 7 0 18 68 123 138 138 138 138 138 138 138 138 138 138 138 138 138 138 138 122 70 8 0 3 52 109 136 138 138 138 138 138 138 138 138 138 138 138 138 138 138 138 138 138 138 138 138 138 138 138
138 138 138 138 138 138 138 138 138 138 127 86 20 2 0 19 72 121 138 138 138 138 138 138 138 138 138 138 138 138 138 138 138 109 54 9 0 9 64 122 136 138 138 138 138 138 138 138 138 138 138 138 138 138 138 138 138 138 138 138 138 138 138 138
138 138 138 138 138 138 138 138 138 138 119 70 16 0 0 19 82 125 138 138 138 138 138 138 138 138 138 138 138 138 138 138 138 95 35 5 1 25 78 127 138 138 138 138 138 138 138 138 138 138 138 138 138 138 138 138 138 138 138 138 138 138 138 138
138 138 138 138 138 138 138 138 138 138 114 59 15 0 8 41 102 136 138 138 138 138 138 138 138 138 138 138 138 138 138 138 126 81 17 1 1 40 95 130 138 138 138 138 138 138 138 138 138 138 138 138 138 138 138 138 138 138 138 138 138 138 138 138
138 138 138 138 138 138 138 138 138 134 110 48 8 0 17 65 116 138 138 138 138 138 138 138 138 138 138 138 138 138 138 138 116 67 16 0 4 51 110 133 138 138 138 138 138 138 138 138 138 138 138 138 138 138 138 138 138 138 138 138 138 138 138 138
138 138 138 138 138 138 138 138 138 131 99 42 1 0 20 79 123 138 138 138 138 138 138 138 138 138 138 138 138 138 138 138 110 54 13 0 15 60 117 138 138 138 138 138 138 138 138 138 138 138 138 138 138 138 138 138 138 138 138 138 138 138 138 138
138 138 138 138 138 138 138 138 138 128 85 30 1 4 28 91 134 138 138 138 138 138 138 138 138 138 138 138 138 138 138 131 100 38 5 1 23 72 119 138 138 138 138 138 138 138 138 138 138 138 138 138 138 138 138 138 138 138 138 138 138 138 138 138
138 138 138 138 138 138 138 138 137 128 71 16 1 8 46 103 138 138 138 138 138 138 138 138 138 138 138 138 138 138 138 122 81 27 1 1 32 91 127 138 138 138 138 138 138 138 138 138 138 138 138 138 138 138 138 138 138 138 138 138 138 138 138 138
138 138 138 138 138 138 138 138 136 116 59 3 0 8 60 115 133 129 129 134 137 138 137 137 138 138 138 138 138 138 138 114 61 17 1 11 48 108 136 138 138 138 138 138 138 138 138 138 138 138 138 138 138 138 138 138 138 138 138 138 138 138 138 138
138 138 138 138 138 138 138 138 137 102 43 2 0 7 47 76 76 73 74 81 93 102 107 112 119 123 121 123 129 135 133 106 44 8 1 20 67 116 138 138 138 138 138 138 138 138 138 138 138 138 138 138 138 138 138 138 138 138 138 138 138 138 138 138
138 138 138 138 138 138 138 138 137 88 23 1 0 2 9 10 4 9 11 13 15 21 31 38 45 48 54 64 77 92 100 77 32 0 0 25 83 124 138 138 138 138 138 138 138 138 138 138 138 138 138 138 138 138 138 138 138 138 138 138 138 138 138 138
138 138 138 138 138 138 138 138 127 82 13 1 0 0 0 1 1 0 0 0 0 0 1 1 1 1 1 9 16 23 29 23 10 0 2 21 77 117 130 135 138 138 138 138 138 138 138 138 138 138 138 138 138 138 138 138 138 138 138 138 138 138 138 138
138 138 138 138 138 138 138 138 129 95 44 14 9 17 34 38 37 28 19 15 14 13 5 8 9 8 4 1 1 1 1 0 0 0 0 8 30 61 84 107 127 135 137 138 138 138 138 138 138 138 138 138 138 138 138 138 138 138 138 138 138 138 138 138
138 138 138 138 138 138 138 138 136 126 99 78 78 95 112 113 111 106 97 85 81 82 82 79 71 63 53 40 30 22 13 2 0 0 0 0 0 6 20 37 59 86 106 117 126 133 138 138 138 138 138 138 138 138 138 138 138 138 138 138 138 138 138 138
138 138 138 138 138 138 138 138 138 138 135 131 132 135 137 137 138 138 137 135 132 133 135 136 131 125 119 112 105 90 55 17 0 0 1 7 7 0 0 1 5 16 33 53 70 85 101 115 127 135 138 138 138 138 138 138 138 138 138 138 138 138 138 138
138 138 138 138 138 138 138 138 138 138 138 138 138 138 138 138 138 138 138 138 138 138 138 138 138 138 138 138 138 134 82 22 1 1 19 48 55 32 13 5 1 0 0 4 13 20 30 53 92 123 135 138 138 138 138 138 138 138 138 138 138 138 138 138
138 138 138 138 138 138 138 138 138 138 138 138 138 138 138 138 138 138 138 138 138 138 138 138 138 138 138 138 138 126 76 10 1 2 47 97 117 104 87 62 38 21 9 1 1 1 2 14 55 113 134 138 138 138 138 138 138 138 138 138 138 138 138 138
138 138 138 138 138 138 138 138 138 138 138 138 138 138 138 138 138 138 138 138 138 138 138 138 138 138 138 138 138 115 63 13 0 5 57 116 135 137 135 129 107 83 63 47 34 28 27 39 73 119 138 138 138 138 138 138 138 138 138 138 138 138 138 138
138 138 138 138 138 138 138 138 138 138 138 138 138 138 138 138 138 138 138 138 138 138 138 138 138 138 138 138 138 109 53 12 0 16 64 121 138 138 138 138 136 130 122 115 109 98 92 100 118 133 138 138 138 138 138 138 138 138 138 138 138 138 138 138
138 138 138 138 138 138 138 138 138 138 138 138 138 138 138 138 138 138 138 138 138 138 138 138 138 138 138 138 132 101 38 6 0 23 74 120 138 138 138 138 138 138 138 138 138 138 133 134 136 138 138 138 138 138 138 138 138 138 138 138 138 138 138 138
138 138 138 138 138 138 138 138 138 138 138 138 138 138 138 138 138 138 138 138 138 138 138 138 138 138 138 138 123 82 27 1 1 32 90 127 138 138 138 138 138 138 138 138 138 138 138 138 138 138 138 138 138 138 138 138 138 138 138 138 138 138 138 138
138 138 138 138 138 138 138 138 138 138 138 138 138 138 138 138 138 138 138 138 138 138 138 138 138 138 138 138 114 62 17 1 10 47 107 135 138 138 138 138 138 138 138 138 138 138 138 138 138 138 138 138 138 138 138 138 138 138 138 138 138 138 138 138
138 138 138 138 138 138 138 138 138 138 138 138 138 138 138 138 138 138 138 138 138 138 138 138 138 138 138 133 104 42 8 1 20 67 116 138 138 138 138 138 138 138 138 138 138 138 138 138 138 138 138 138 138 138 138 138 138 138 138 138 138 138 138 138
138 138 138 138 138 138 138 138 138 138 138 138 138 138 138 138 138 138 138 138 138 138 138 138 138 138 138 124 85 29 1 1 30 86 125 138 138 138 138 138 138 138 138 138 138 138 138 138 138 138 138 138 138 138 138 138 138 138 138 138 138 138 138 138
138 138 138 138 138 138 138 138 138 138 138 138 138 138 138 138 138 138 138 138 138 138 138 138 138 138 138 115 65 19 0 9 44 106 134 138 138 138 138 138 138 138 138 138 138 138 138 138 138 138 138 138 138 138 138 138 138 138 138 138 138 138 138 138
138 138 138 138 138 138 138 138 138 138 138 138 138 138 138 138 138 138 138 138 138 138 138 138 138 138 134 107 44 8 0 17 62 114 138 138 138 138 138 138 138 138 138 138 138 138 138 138 138 138 138 138 138 138 138 138 138 138 138 138 138 138 138 138
138 138 138 138 138 138 138 138 138 138 138 138 138 138 138 138 138 138 138 138 138 138 138 138 138 138 126 87 27 0 0 19 75 121 138 138 138 138 138 138 138 138 138 138 138 138 138 138 138 138 138 138 138 138 138 138 138 138 138 138 138 138 138 138
138 138 138 138 138 138 138 138 138 138 138 138 138 138 138 138 138 138 138 138 138 138 138 138 138 138 125 79 25 0 3 22 85 129 138 138 138 138 138 138 138 138 138 138 138 138 138 138 138 138 138 138 138 138 138 138 138 138 138 138 138 138 138 138
138 138 138 138 138 138 138 138 138 138 138 138 138 138 138 138 138 138 138 138 138 138 138 138 138 138 132 102 51 25 32 61 107 137 138 138 138 138 138 138 138 138 138 138 138 138 138 138 138 138 138 138 138 138 138 138 138 138 138 138 138 138 138 138
138 138 138 138 138 138 138 138 138 138 138 138 138 138 138 138 138 138 138 138 138 138 138 138 138 138 136 129 111 98 100 115 131 138 138 138 138 138 138 138 138 138 138 138 138 138 138 138 138 138 138 138 138 138 138 138 138 138 138 138 138 138 138 138
138 138 138 138 138 138 138 138 138 138 138 138 138 138 138 138 138 138 138 138 138 138 138 138 138 138 138 138 138 137 135 136 138 138 138 138 138 138 138 138 138 138 138 138 138 138 138 138 138 138 138 138 138 138 138 138 138 138 138 138 138 138 138 138
138 138 138 138 138 138 138 138 138 138 138 138 138 138 138 138 138 138 138 138 138 138 138 138 138 138 138 138 138 138 138 138 138 138 138 138 138 138 138 138 138 138 138 138 138 138 138 138 138 138 138 138 138 138 138 138 138 138 138 138 138 138 138 138
138 138 138 138 138 138 138 138 138 138 138 138 138 138 138 138 138 138 138 138 138 138 138 138 138 138 138 138 138 138 138 138 138 138 138 138 138 138 138 138 138 138 138 138 138 138 138 138 138 138 138 138 138 138 138 138 138 138 138 138 138 138 138 138
138 138 138 138 138 138 138 138 138 138 138 138 138 138 138 138 138 138 138 138 138 138 138 138 138 138 138 138 138 138 138 138 138 138 138 138 138 138 138 138 138 138 138 138 138 138 138 138 138 138 138 138 138 138 138 138 138 138 138 138 138 138 138 138
138 138 138 138 138 138 138 138 138 138 138 138 138 138 138 138 138 138 138 138 138 138 138 138 138 138 138 138 138 138 138 138 138 138 138 138 138 138 138 138 138 138 138 138 138 138 138 138 138 138 138 138 138 138 138 138 138 138 138 138 138 138 138 138
138 138 138 138 138 138 138 138 138 138 138 138 138 138 138 138 138 138 138 138 138 138 138 138 138 138 138 138 138 138 138 138 138 138 138 138 138 138 138 138 138 138 138 138 138 138 138 138 138 138 138 138 138 138 138 138 138 138 138 138 138 138 138 138
138 138 138 138 138 138 138 138 138 138 138 138 138 138 138 138 138 138 138 138 138 138 138 138 138 138 138 138 138 138 138 138 138 138 138 138 138 138 138 138 138 138 138 138 138 138 138 138 138 138 138 138 138 138 138 138 138 138 138 138 138 138 138 138
138 138 138 138 138 138 138 138 138 138 138 138 138 138 138 138 138 138 138 138 138 138 138 138 138 138 138 138 138 138 138 138 138 138 138 138 138 138 138 138 138 138 138 138 138 138 138 138 138 138 138 138 138 138 138 138 138 138 138 138 138 138 138 138
