P2
64 64
255
215 215 215 215 215 215 215 215 215 215 215 215 215 215 215 215 215 215 215 215 215 215 215 215 215 215 215 215 215 215 215 215 215 215 215 215 215 215 215 215 215 215 215 215 215 215 215 215 215 215 215 215 215 215 215 215 215 215 215 215 215 215 215 215
215 215 215 215 215 215 215 215 215 215 215 215 215 215 215 215 215 215 215 215 215 215 215 215 215 215 215 215 215 215 215 215 215 215 215 215 215 215 215 215 215 215 215 215 215 215 215 215 215 215 215 215 215 215 215 215 215 215 215 215 215 215 215 215
215 215 215 215 215 215 215 215 215 215 215 215 215 215 215 215 215 215 215 215 215 215 215 215 215 215 215 215 215 215 215 215 215 215 215 215 215 215 215 215 215 215 215 215 215 215 215 215 215 215 215 215 215 215 215 215 215 215 215 215 215 215 215 215
215 215 215 215 215 215 215 215 215 215 215 215 215 215 215 215 215 215 215 215 215 215 215 215 215 215 215 215 215 215 215 215 215 215 215 215 215 215 215 215 215 215 215 215 215 215 215 215 215 215 215 215 215 215 215 215 215 215 215 215 215 215 215 215
215 215 215 215 215 215 215 215 215 215 215 215 215 215 215 215 215 215 215 215 215 215 215 215 215 215 215 215 215 215 215 215 215 215 215 215 215 215 215 215 215 215 215 215 215 215 215 215 215 215 215 215 215 215 215 215 215 215 215 215 215 215 215 215
215 215 215 215 215 215 215 215 215 215 215 215 215 215 215 215 215 215 215 215 215 215 215 215 215 215 215 215 215 215 215 215 215 215 215 215 215 215 215 215 215 215 215 215 215 215 215 215 215 215 215 215 215 215 215 215 215 215 215 215 215 215 215 215
215 215 215 215 215 215 215 215 215 215 215 215 215 215 215 215 215 215 215 215 215 215 215 215 215 215 215 215 215 215 215 215 215 215 215 215 215 215 215 215 215 215 215 215 215 215 215 215 215 215 215 215 215 215 215 215 215 215 215 215 215 215 215 215
215 215 215 215 215 215 215 215 215 215 215 215 215 215 215 215 215 215 215 215 215 215 214 214 214 215 215 215 215 215 215 215 215 215 215 215 215 215 215 215 215 215 215 215 215 215 215 215 215 215 215 215 215 215 215 215 215 215 215 215 215 215 215 215
215 215 215 215 215 215 215 215 215 215 215 215 215 215 215 215 211 204 192 182 178 179 187 198 205 201 198 196 199 207 212 215 215 215 215 215 215 215 215 215 215 215 215 215 215 215 215 215 215 215 215 215 215 215 215 215 215 215 215 215 215 215 215 215
215 215 215 215 215 215 215 215 215 215 215 215 215 215 215 211 197 166 132 110 98 89 87 88 92 99 110 124 144 166 182 195 205 212 215 215 215 215 215 215 215 215 215 215 215 215 215 215 215 215 215 215 215 215 215 215 215 215 215 215 215 215 215 215
215 215 215 215 215 215 215 215 215 215 215 215 215 215 214 201 162 102 58 38 28 23 21 21 20 19 17 18 33 69 104 137 168 195 211 215 215 215 215 215 215 215 215 215 215 215 215 215 215 215 215 215 215 215 215 215 215 215 215 215 215 215 215 215
215 215 215 215 215 215 215 215 215 215 215 215 215 215 208 176 99 29 5 0 0 0 0 0 0 0 0 1 4 6 15 45 94 151 194 211 215 215 215 215 215 215 215 215 215 215 215 215 215 215 215 215 215 215 215 215 215 215 215 215 215 215 215 215
215 215 215 215 215 215 215 215 215 215 215 215 215 215 198 137 40 4 0 1 2 1 0 0 0 0 0 0 0 0 1 5 22 76 147 191 207 213 215 215 215 215 215 215 215 215 215 215 215 215 215 215 215 215 215 215 215 215 215 215 215 215 215 215
215 215 215 215 215 215 215 215 215 215 215 215 215 214 191 110 13 0 0 13 18 15 11 11 11 9 3 0 0 0 0 0 4 20 63 132 179 203 212 215 215 215 215 215 215 215 215 215 215 215 215 215 215 215 215 215 215 215 215 215 215 215 215 215
215 215 215 215 215 215 215 215 215 215 215 215 215 212 189 99 11 0 5 45 90 101 80 66 61 55 40 26 12 3 0 0 0 2 12 46 107 165 198 212 215 215 215 215 215 215 215 215 215 215 215 215 215 215 215 215 215 215 215 215 215 215 215 215
215 215 215 215 215 215 215 215 215 215 215 215 215 212 193 104 19 0 7 59 133 178 179 179 182 169 138 101 66 38 18 5 0 0 0 9 38 93 158 202 215 215 215 215 215 215 215 215 215 215 215 215 215 215 215 215 215 215 215 215 215 215 215 215
215 215 215 215 215 215 215 215 215 215 215 215 215 213 201 121 33 4 5 49 130 196 209 209 209 209 205 195 165 121 77 39 11 0 0 0 7 33 86 159 208 215 215 215 215 215 215 215 215 215 215 215 215 215 215 215 215 215 215 215 215 215 215 215
215 215 215 215 215 215 215 215 215 215 215 215 215 215 208 144 58 11 1 28 96 177 213 215 215 215 214 213 210 199 166 114 49 11 0 0 0 5 28 78 153 202 214 215 215 215 215 215 215 215 215 215 215 215 215 215 215 215 215 215 215 215 215 215
215 215 215 215 215 215 215 215 215 215 215 215 215 215 213 173 93 27 1 11 55 138 200 212 215 215 215 215 215 213 207 185 117 49 17 5 0 0 3 20 66 147 197 213 215 215 215 215 215 215 215 215 215 215 215 215 215 215 215 215 215 215 215 215
215 215 215 215 215 215 215 215 215 215 215 215 215 215 215 196 133 55 6 2 20 85 163 200 213 215 215 215 215 215 215 209 182 132 77 37 12 0 0 0 12 75 158 204 215 215 215 215 215 215 215 215 215 215 215 215 215 215 215 215 215 215 215 215
215 215 215 215 215 215 215 215 215 215 215 215 215 215 215 209 171 99 31 2 5 33 106 171 205 215 215 215 215 215 215 215 208 193 167 121 57 5 0 0 0 26 114 188 215 215 215 215 215 215 215 215 215 215 215 215 215 215 215 215 215 215 215 215
215 215 215 215 215 215 215 215 215 215 215 215 215 215 215 214 196 148 78 22 3 8 55 129 187 211 215 215 215 215 215 215 215 211 205 185 129 31 0 0 0 11 88 177 214 215 215 215 215 215 215 215 215 215 215 215 215 215 215 215 215 215 215 215
215 215 215 215 215 215 215 215 215 215 215 215 215 215 215 215 209 187 134 63 14 4 27 80 148 198 214 215 215 215 215 215 215 215 215 208 179 90 11 0 0 21 95 180 215 215 215 215 215 215 215 215 215 215 215 215 215 215 215 215 215 215 215 215
215 215 215 215 215 215 215 215 215 215 215 215 215 215 215 215 215 207 182 122 50 16 11 32 84 157 207 215 215 215 215 215 215 215 215 214 205 154 77 32 22 61 136 197 215 215 215 215 215 215 215 215 215 215 215 215 215 215 215 215 215 215 215 215
215 215 215 215 215 215 215 215 215 215 215 215 215 215 215 215 215 214 208 176 103 39 7 6 33 92 170 210 215 215 215 215 215 215 215 215 215 196 154 120 115 145 186 210 215 215 215 215 215 215 215 215 215 215 215 215 215 215 215 215 215 215 215 215
215 215 215 215 215 215 215 215 215 215 215 215 215 215 215 215 215 215 215 207 154 73 18 0 6 34 102 173 205 214 215 215 215 215 215 215 215 212 201 188 187 197 209 215 215 215 215 215 215 215 215 215 215 215 215 215 215 215 215 215 215 215 215 215
215 215 215 215 215 215 215 215 215 215 215 215 215 215 215 215 215 215 215 215 191 120 44 4 0 5 38 114 177 208 215 215 215 215 215 215 215 215 215 215 215 215 215 215 215 215 215 215 215 215 215 215 215 215 215 215 215 215 215 215 215 215 215 215
215 215 215 215 215 215 215 215 215 215 215 215 215 215 215 215 215 215 215 215 208 165 88 21 0 0 7 58 134 191 213 215 215 215 215 215 215 215 215 215 215 215 215 215 215 215 215 215 215 215 215 215 215 215 215 215 215 215 215 215 215 215 215 215
215 215 215 215 215 215 215 215 215 215 215 215 215 215 215 215 215 215 215 215 214 196 147 68 8 1 0 22 85 156 201 214 215 215 215 215 215 215 215 215 215 215 215 215 215 215 215 215 215 215 215 215 215 215 215 215 215 215 215 215 215 215 215 215
215 215 215 215 215 215 215 215 215 215 215 215 215 215 215 215 215 215 215 215 215 210 190 143 74 23 6 7 40 104 171 207 215 215 215 215 215 215 215 215 215 215 215 215 215 215 215 215 215 215 215 215 215 215 215 215 215 215 215 215 215 215 215 215
215 215 215 215 215 215 215 215 215 215 215 215 215 215 215 215 215 215 215 215 215 215 209 195 156 90 34 6 7 47 119 185 210 215 215 215 215 215 215 215 215 215 215 215 215 215 215 215 215 215 215 215 215 215 215 215 215 215 215 215 215 215 215 215
215 215 215 215 215 215 215 215 215 215 215 215 215 215 215 215 215 215 215 215 215 215 215 214 200 148 76 22 2 17 61 136 192 209 215 215 215 215 215 215 215 215 215 215 215 215 215 215 215 215 215 215 215 215 215 215 215 215 215 215 215 215 215 215
215 215 215 215 215 215 215 215 215 215 215 215 215 215 215 215 215 215 215 215 215 215 215 215 214 187 124 55 11 4 17 57 137 190 210 215 215 215 215 215 215 215 215 215 215 215 215 215 215 215 215 215 215 215 215 215 215 215 215 215 215 215 215 215
215 215 215 215 215 215 215 215 215 215 215 215 215 215 215 215 215 215 215 215 215 215 215 215 215 206 169 104 38 4 1 12 67 144 195 213 215 215 215 215 215 215 215 215 215 215 215 215 215 215 215 215 215 215 215 215 215 215 215 215 215 215 215 215
215 215 215 215 215 215 215 215 215 215 215 215 215 215 215 215 215 215 215 215 215 215 215 215 215 214 200 157 82 16 0 0 24 90 162 205 215 215 215 215 215 215 215 215 215 215 215 215 215 215 215 215 215 215 215 215 215 215 215 215 215 215 215 215
215 215 215 215 215 215 215 215 215 215 215 215 215 215 215 215 215 215 215 215 215 215 215 215 215 215 213 193 132 47 6 0 5 45 116 183 213 215 215 215 215 215 215 215 215 215 215 215 215 215 215 215 215 215 215 215 215 215 215 215 215 215 215 215
215 215 215 215 215 215 215 215 215 215 215 215 215 215 215 215 215 215 215 215 215 215 215 215 215 215 215 209 179 104 36 9 1 16 69 145 202 215 215 215 215 215 215 215 215 215 215 215 215 215 215 215 215 215 215 215 215 215 215 215 215 215 215 215
215 215 215 215 215 215 215 215 215 215 215 215 215 215 215 215 215 215 215 215 215 215 215 215 215 215 215 214 207 175 99 36 6 4 31 95 171 209 215 215 215 215 215 215 215 215 215 215 215 215 215 215 215 215 215 215 215 215 215 215 215 215 215 215
215 215 215 215 215 215 215 215 215 215 215 215 215 215 215 215 215 215 215 215 215 215 215 215 215 215 215 215 214 207 164 88 27 3 11 44 116 184 209 215 215 215 215 215 215 215 215 215 215 215 215 215 215 215 215 215 215 215 215 215 215 215 215 215
215 215 215 215 215 215 215 215 215 215 215 215 215 215 215 215 215 215 215 215 215 215 215 215 215 215 215 215 215 215 195 141 69 16 1 8 52 137 191 211 215 215 215 215 215 215 215 215 215 215 215 215 215 215 215 215 215 215 215 215 215 215 215 215
215 215 215 215 215 215 215 215 215 215 215 215 215 215 215 215 215 215 215 215 215 215 215 215 215 215 215 215 215 215 209 182 126 53 5 0 11 78 154 197 212 215 215 215 215 215 215 215 215 215 215 215 215 215 215 215 215 215 215 215 215 215 215 215
215 215 215 215 215 215 215 215 215 215 215 215 215 215 215 215 215 215 215 215 215 215 215 215 215 215 215 215 215 215 215 206 174 108 33 3 3 33 98 162 200 213 215 215 215 215 215 215 215 215 215 215 215 215 215 215 215 215 215 215 215 215 215 215
215 215 215 215 215 215 215 215 215 215 215 215 215 215 215 215 215 215 215 215 215 215 215 215 215 215 215 215 215 215 215 214 203 162 84 24 5 9 41 102 168 206 215 215 215 215 215 215 215 215 215 215 215 215 215 215 215 215 215 215 215 215 215 215
215 215 215 215 215 215 215 215 215 215 215 215 215 215 215 215 215 215 215 215 215 215 215 215 215 215 215 215 215 215 215 215 213 198 143 71 25 6 11 46 113 184 214 215 215 215 215 215 215 215 215 215 215 215 215 215 215 215 215 215 215 215 215 215
215 215 215 215 215 215 215 215 215 215 215 215 215 215 215 215 215 215 215 215 215 215 215 215 215 215 215 215 215 215 215 215 215 213 190 132 66 21 3 16 61 143 204 214 215 215 215 215 215 215 215 215 215 215 215 215 215 215 215 215 215 215 215 215
215 215 215 215 215 215 215 215 215 215 215 215 215 215 215 215 215 215 215 215 215 215 215 215 215 215 215 215 215 215 215 215 215 215 211 184 121 51 8 4 22 85 166 204 214 215 215 215 215 215 215 215 215 215 215 215 215 215 215 215 215 215 215 215
215 215 215 215 215 215 215 215 215 215 215 215 215 215 215 215 215 215 215 215 215 215 215 215 215 215 215 215 215 215 215 215 215 215 215 207 166 93 26 0 3 31 108 176 208 215 215 215 215 215 215 215 215 215 215 215 215 215 215 215 215 215 215 215
215 215 215 215 215 215 215 215 215 215 215 215 215 215 215 215 215 215 215 215 215 215 215 213 209 203 196 191 190 189 187 183 180 181 187 194 185 133 51 2 0 3 52 134 193 214 215 215 215 215 215 215 215 215 215 215 215 215 215 215 215 215 215 215
215 215 215 215 215 215 215 215 215 215 215 215 215 215 215 215 215 215 215 215 214 213 207 194 177 154 136 126 125 125 120 112 106 104 108 115 117 103 61 7 0 0 17 85 160 204 214 215 215 215 215 215 215 215 215 215 215 215 215 215 215 215 215 215
215 215 215 215 215 215 215 215 215 215 215 215 215 215 215 214 211 207 198 184 168 153 137 114 87 60 38 31 36 41 41 38 34 34 35 37 37 34 27 8 0 0 1 39 108 173 204 214 215 215 215 215 215 215 215 215 215 215 215 215 215 215 215 215
215 215 215 215 215 215 215 215 215 215 215 215 215 215 213 204 190 171 146 115 86 66 51 37 23 12 5 2 0 0 0 1 1 0 1 1 2 4 5 2 0 0 0 8 46 115 180 209 215 215 215 215 215 215 215 215 215 215 215 215 215 215 215 215
215 215 215 215 215 215 215 215 215 215 215 215 212 198 172 143 115 88 60 33 15 5 3 1 0 0 0 0 0 0 0 2 6 9 9 8 6 3 1 0 0 0 0 0 14 57 142 196 212 215 215 215 215 215 215 215 215 215 215 215 215 215 215 215
215 215 215 215 215 215 215 215 215 215 215 215 203 162 105 59 31 13 3 0 0 0 0 5 12 17 18 18 25 37 44 49 52 51 49 45 43 38 33 22 7 0 0 0 6 37 121 183 209 215 215 215 215 215 215 215 215 215 215 215 215 215 215 215
215 215 215 215 215 215 215 215 215 215 215 215 192 126 55 15 5 0 0 0 0 2 14 35 59 74 80 83 98 115 126 135 142 146 146 142 136 125 110 82 48 26 18 21 33 66 141 190 210 215 215 215 215 215 215 215 215 215 215 215 215 215 215 215
215 215 215 215 215 215 215 215 215 215 215 215 187 119 47 10 6 11 18 23 30 51 86 124 150 163 167 167 176 184 189 193 197 199 201 204 206 206 194 166 126 93 78 86 103 132 176 203 213 215 215 215 215 215 215 215 215 215 215 215 215 215 215 215
215 215 215 215 215 215 215 215 215 215 215 215 198 148 88 52 50 66 85 100 115 143 175 199 210 215 215 214 215 215 215 215 215 215 215 215 215 214 213 210 199 181 169 171 179 190 204 212 215 215 215 215 215 215 215 215 215 215 215 215 215 215 215 215
215 215 215 215 215 215 215 215 215 215 215 215 209 191 160 134 132 148 165 176 185 197 208 214 215 215 215 215 215 215 215 215 215 215 215 215 215 215 215 215 214 214 214 215 215 215 215 215 215 215 215 215 215 215 215 215 215 215 215 215 215 215 215 215
215 215 215 215 215 215 215 215 215 215 215 215 214 210 204 201 202 208 212 214 215 215 215 215 215 215 215 215 215 215 215 215 215 215 215 215 215 215 215 215 215 215 215 215 215 215 215 215 215 215 215 215 215 215 215 215 215 215 215 215 215 215 215 215
215 215 215 215 215 215 215 215 215 215 215 215 215 215 214 213 214 215 215 215 215 215 215 215 215 215 215 215 215 215 215 215 215 215 215 215 215 215 215 215 215 215 215 215 215 215 215 215 215 215 215 215 215 215 215 215 215 215 215 215 215 215 215 215
215 215 215 215 215 215 215 215 215 215 215 215 215 215 215 215 215 215 215 215 215 215 215 215 215 215 215 215 215 215 215 215 215 215 215 215 215 215 215 215 215 215 215 215 215 215 215 215 215 215 215 215 215 215 215 215 215 215 215 215 215 215 215 215
215 215 215 215 215 215 215 215 215 215 215 215 215 215 215 215 215 215 215 215 215 215 215 215 215 215 215 215 215 215 215 215 215 215 215 215 215 215 215 215 215 215 215 215 215 215 215 215 215 215 215 215 215 215 215 215 215 215 215 215 215 215 215 215
215 215 215 215 215 215 215 215 215 215 215 215 215 215 215 215 215 215 215 215 215 215 215 215 215 215 215 215 215 215 215 215 215 215 215 215 215 215 215 215 215 215 215 215 215 215 215 215 215 215 215 215 215 215 215 215 215 215 215 215 215 215 215 215
215 215 215 215 215 215 215 215 215 215 215 215 215 215 215 215 215 215 215 215 215 215 215 215 215 215 215 215 215 215 215 215 215 215 215 215 215 215 215 215 215 215 215 215 215 215 215 215 215 215 215 215 215 215 215 215 215 215 215 215 215 215 215 215
215 215 215 215 215 215 215 215 215 215 215 215 215 215 215 215 215 215 215 215 215 215 215 215 215 215 215 215 215 215 215 215 215 215 215 215 215 215 215 215 215 215 215 215 215 215 215 215 215 215 215 215 215 215 215 215 215 215 215 215 215 215 215 215
