P2
64 64
255
237 237 237 237 237 237 237 237 237 237 237 237 237 237 237 237 237 237 237 237 237 237 237 237 237 237 237 237 237 237 237 237 237 237 237 237 237 237 237 237 237 237 237 237 237 237 237 237 237 237 237 237 237 237 237 237 237 237 237 237 237 237 237 237
237 237 237 237 237 237 237 237 237 237 237 237 237 237 237 237 237 237 237 237 237 237 237 237 237 237 237 237 237 237 237 237 237 237 237 237 237 237 237 237 237 237 237 237 237 237 237 237 237 237 237 237 237 237 237 237 237 237 237 237 237 237 237 237
237 237 237 237 237 237 237 237 237 237 237 237 237 237 237 237 237 237 237 237 237 237 237 237 237 237 237 237 237 236 236 236 236 236 237 235 236 237 237 237 237 237 237 237 237 237 237 237 237 237 237 237 237 237 237 237 237 237 237 237 237 237 237 237
237 237 237 237 237 237 237 237 237 237 237 237 237 237 237 237 237 237 237 237 237 237 237 236 235 234 235 236 236 236 229 221 214 213 219 227 227 229 235 237 237 237 237 237 237 237 237 237 237 237 237 237 237 237 237 237 237 237 237 237 237 237 237 237
237 237 237 237 237 237 237 237 237 237 237 237 237 237 237 237 237 237 237 237 237 236 235 228 221 216 224 225 210 195 185 170 154 148 148 152 164 191 217 233 236 237 237 237 237 237 237 237 237 237 237 237 237 237 237 237 237 237 237 237 237 237 237 237
237 237 237 237 237 237 237 237 237 237 237 237 237 237 237 237 237 237 237 237 236 230 206 166 141 155 184 180 146 114 92 72 61 60 62 62 65 87 154 214 233 237 237 237 237 237 237 237 237 237 237 237 237 237 237 237 237 237 237 237 237 237 237 237
237 237 237 237 237 237 237 237 237 237 237 237 237 237 237 237 237 237 237 237 235 205 141 78 50 51 80 89 63 40 27 18 9 1 3 6 12 22 61 152 215 232 235 237 237 237 237 237 237 237 237 237 237 237 237 237 237 237 237 237 237 237 237 237
237 237 237 237 237 237 237 237 237 237 237 237 237 237 237 237 237 237 236 230 197 127 50 10 1 7 18 13 1 0 1 1 1 0 0 0 0 0 15 73 154 208 229 236 237 237 237 237 237 237 237 237 237 237 237 237 237 237 237 237 237 237 237 237
237 237 237 237 237 237 237 237 237 237 237 237 237 237 237 237 237 236 233 199 122 43 5 0 0 0 0 0 0 1 12 22 30 33 26 11 7 4 3 28 74 139 204 234 237 237 237 237 237 237 237 237 237 237 237 237 237 237 237 237 237 237 237 237
237 237 237 237 237 237 237 237 237 237 237 237 237 237 237 237 237 237 222 145 51 8 0 0 0 0 1 6 22 43 60 81 97 110 110 95 55 29 22 20 26 62 142 220 236 237 237 237 237 237 237 237 237 237 237 237 237 237 237 237 237 237 237 237
237 237 237 237 237 237 237 237 237 237 237 237 237 237 237 237 237 234 187 69 4 0 0 0 0 2 24 53 92 130 157 178 188 193 192 183 161 124 83 44 13 17 72 171 231 237 237 237 237 237 237 237 237 237 237 237 237 237 237 237 237 237 237 237
237 237 237 237 237 237 237 237 237 237 237 237 237 237 237 237 235 211 116 16 0 0 5 15 38 70 110 147 179 202 215 224 233 236 235 231 220 205 173 97 27 3 25 107 204 236 237 237 237 237 237 237 237 237 237 237 237 237 237 237 237 237 237 237
237 237 237 237 237 237 237 237 237 237 237 237 237 237 237 236 231 173 61 4 0 3 34 70 113 158 198 228 235 236 236 236 236 236 237 237 237 235 221 167 67 9 4 55 160 228 236 237 237 237 237 237 237 237 237 237 237 237 237 237 237 237 237 237
237 237 237 237 237 237 237 237 237 237 237 237 237 237 237 236 221 130 26 0 4 57 134 168 194 215 230 235 236 237 237 237 237 237 237 237 237 237 235 216 134 35 0 22 115 214 236 237 237 237 237 237 237 237 237 237 237 237 237 237 237 237 237 237
237 237 237 237 237 237 237 237 237 237 237 237 237 237 237 235 204 89 8 0 26 126 208 231 236 236 237 237 237 237 237 237 237 237 237 237 237 237 237 235 193 74 2 6 78 198 236 237 237 237 237 237 237 237 237 237 237 237 237 237 237 237 237 237
237 237 237 237 237 237 237 237 237 237 237 237 237 237 237 236 189 61 0 1 54 174 231 236 236 237 237 237 237 237 237 237 237 237 237 237 237 237 237 237 224 110 5 2 56 183 236 237 237 237 237 237 237 237 237 237 237 237 237 237 237 237 237 237
237 237 237 237 237 237 237 237 237 237 237 237 237 237 237 236 180 44 0 5 77 196 235 237 237 237 237 237 237 237 237 237 237 237 237 237 237 237 237 237 234 137 7 0 41 170 235 237 237 237 237 237 237 237 237 237 237 237 237 237 237 237 237 237
237 237 237 237 237 237 237 237 237 237 237 237 237 237 237 235 177 41 0 8 85 202 236 237 237 237 237 237 237 237 237 237 237 237 237 237 237 237 237 237 235 152 19 0 27 159 235 237 237 237 237 237 237 237 237 237 237 237 237 237 237 237 237 237
237 237 237 237 237 237 237 237 237 237 237 237 237 237 237 236 185 58 0 6 83 199 236 237 237 237 237 237 237 237 237 237 237 237 237 237 237 237 237 237 235 162 31 0 13 151 235 237 237 237 237 237 237 237 237 237 237 237 237 237 237 237 237 237
237 237 237 237 237 237 237 237 237 237 237 237 237 237 237 236 198 83 6 1 69 190 236 237 237 237 237 237 237 237 237 237 237 237 237 237 237 237 237 237 234 166 41 0 15 148 235 237 237 237 237 237 237 237 237 237 237 237 237 237 237 237 237 237
237 237 237 237 237 237 237 237 237 237 237 237 237 237 237 236 208 109 16 0 47 175 236 237 237 237 237 237 237 237 237 237 237 237 237 237 237 237 237 237 231 165 45 0 25 147 236 237 237 237 237 237 237 237 237 237 237 237 237 237 237 237 237 237
237 237 237 237 237 237 237 237 237 237 237 237 237 237 237 236 219 134 29 0 30 157 235 237 237 237 237 237 237 237 237 237 237 237 237 237 237 237 237 236 230 162 45 0 33 149 231 237 237 237 237 237 237 237 237 237 237 237 237 237 237 237 237 237
237 237 237 237 237 237 237 237 237 237 237 237 237 237 237 237 227 157 44 0 21 135 233 237 237 237 237 237 237 237 237 237 237 237 237 237 237 237 237 237 232 160 41 0 37 150 227 236 237 237 237 237 237 237 237 237 237 237 237 237 237 237 237 237
237 237 237 237 237 237 237 237 237 237 237 237 237 237 237 237 232 180 63 2 13 106 216 237 237 237 237 237 237 237 237 237 237 237 237 237 237 237 237 237 236 159 34 0 39 153 227 237 237 237 237 237 237 237 237 237 237 237 237 237 237 237 237 237
237 237 237 237 237 237 237 237 237 237 237 237 237 237 237 237 235 200 88 9 5 70 184 234 237 237 237 237 237 237 237 237 237 237 237 237 237 237 237 237 235 154 24 0 38 157 230 237 237 237 237 237 237 237 237 237 237 237 237 237 237 237 237 237
237 237 237 237 237 237 237 237 237 237 237 237 237 237 237 237 237 220 122 24 1 38 138 220 236 237 237 237 237 237 237 237 237 237 237 237 237 237 237 237 233 147 15 0 36 162 234 237 237 237 237 237 237 237 237 237 237 237 237 237 237 237 237 237
237 237 237 237 237 237 237 237 237 237 237 237 237 237 237 237 237 234 166 52 2 14 85 182 229 236 237 237 237 237 237 237 237 237 237 237 237 237 237 237 229 142 21 0 34 166 235 237 237 237 237 237 237 237 237 237 237 237 237 237 237 237 237 237
237 237 237 237 237 237 237 237 237 237 237 237 237 237 237 237 237 236 207 97 10 2 40 123 197 232 236 237 237 237 237 237 237 237 237 237 237 237 237 237 224 136 25 0 38 173 236 237 237 237 237 237 237 237 237 237 237 237 237 237 237 237 237 237
237 237 237 237 237 237 237 237 237 237 237 237 237 237 237 237 237 237 227 153 44 2 13 60 137 204 233 236 237 237 237 237 237 237 237 237 237 237 237 237 220 123 21 0 56 188 236 237 237 237 237 237 237 237 237 237 237 237 237 237 237 237 237 237
237 237 237 237 237 237 237 237 237 237 237 237 237 237 237 237 237 237 235 198 109 29 5 14 66 146 212 235 237 237 237 237 237 237 237 237 237 237 237 235 206 95 11 3 77 199 236 237 237 237 237 237 237 237 237 237 237 237 237 237 237 237 237 237
237 237 237 237 237 237 237 237 237 237 237 237 237 237 237 237 237 237 237 225 175 90 20 1 13 73 166 222 236 237 237 237 237 237 237 237 237 236 233 215 153 49 1 10 100 209 235 237 237 237 237 237 237 237 237 237 237 237 237 237 237 237 237 237
237 237 237 237 237 237 237 237 237 237 237 237 237 237 237 237 237 237 237 235 219 160 61 2 0 19 99 184 225 236 237 237 237 237 237 237 237 235 215 161 79 15 0 22 128 221 236 237 237 237 237 237 237 237 237 237 237 237 237 237 237 237 237 237
237 237 237 237 237 237 237 237 237 237 237 237 237 237 237 237 237 237 237 236 235 211 122 23 0 4 41 121 187 221 234 236 237 236 235 231 222 200 148 70 15 0 1 45 164 231 237 237 237 237 237 237 237 237 237 237 237 237 237 237 237 237 237 237
237 237 237 237 237 237 237 237 237 237 237 237 237 237 237 237 237 237 237 237 236 234 180 81 21 4 13 53 117 172 201 219 229 233 216 186 152 114 61 13 0 0 15 95 199 235 237 237 237 237 237 237 237 237 237 237 237 237 237 237 237 237 237 237
237 237 237 237 237 237 237 237 237 237 237 237 237 237 237 237 237 237 237 237 237 236 221 156 85 40 14 14 40 85 124 151 164 158 124 79 54 36 15 1 0 2 55 160 224 236 237 237 237 237 237 237 237 237 237 237 237 237 237 237 237 237 237 237
237 237 237 237 237 237 237 237 237 237 237 237 237 237 237 237 237 237 237 237 237 237 233 217 172 111 48 9 8 12 30 58 74 67 36 9 0 0 0 0 5 42 135 214 235 237 237 237 237 237 237 237 237 237 237 237 237 237 237 237 237 237 237 237
237 237 237 237 237 237 237 237 237 237 237 237 237 237 237 237 237 237 237 237 237 237 236 234 227 191 109 30 1 0 1 0 7 10 3 0 0 0 0 0 8 53 147 221 235 237 237 237 237 237 237 237 237 237 237 237 237 237 237 237 237 237 237 237
237 237 237 237 237 237 237 237 237 237 237 237 237 237 237 237 237 237 237 237 237 237 237 236 235 225 165 59 4 0 0 0 0 0 0 0 0 0 0 0 4 31 92 170 223 235 237 237 237 237 237 237 237 237 237 237 237 237 237 237 237 237 237 237
237 237 237 237 237 237 237 237 237 237 237 237 237 237 237 237 237 237 237 237 237 237 237 237 236 220 152 55 6 0 0 0 1 5 17 26 28 22 8 1 3 7 36 100 179 227 236 237 237 237 237 237 237 237 237 237 237 237 237 237 237 237 237 237
237 237 237 237 237 237 237 237 237 237 237 237 237 237 237 237 237 237 237 237 237 237 236 236 228 184 97 21 0 0 1 13 51 84 95 100 106 105 90 64 27 8 10 41 107 183 228 236 237 237 237 237 237 237 237 237 237 237 237 237 237 237 237 237
237 237 237 237 237 237 237 237 237 237 237 237 237 237 237 237 237 237 237 237 237 237 237 235 205 124 45 8 3 6 26 67 134 174 191 209 214 201 181 157 110 49 11 9 42 115 198 234 236 237 237 237 237 237 237 237 237 237 237 237 237 237 237 237
237 237 237 237 237 237 237 237 237 237 237 237 237 237 237 237 237 237 237 237 237 237 237 226 152 48 10 10 42 87 124 166 208 225 228 232 235 236 234 220 187 131 46 3 6 52 151 222 236 237 237 237 237 237 237 237 237 237 237 237 237 237 237 237
237 237 237 237 237 237 237 237 237 237 237 237 237 237 237 237 237 237 237 237 237 237 235 196 79 1 1 30 105 170 206 228 236 237 237 237 237 236 237 236 228 195 101 8 0 16 102 203 235 237 237 237 237 237 237 237 237 237 237 237 237 237 237 237
237 237 237 237 237 237 237 237 237 237 237 237 237 237 237 237 237 237 237 237 237 237 232 163 41 0 0 66 171 221 233 235 236 237 237 237 237 237 237 237 236 227 162 47 2 6 64 173 229 237 237 237 237 237 237 237 237 237 237 237 237 237 237 237
237 237 237 237 237 237 237 237 237 237 237 237 237 237 237 237 237 237 237 237 237 237 224 135 25 0 9 113 220 235 237 237 237 237 237 237 237 237 237 237 236 236 208 111 23 1 30 136 219 236 237 237 237 237 237 237 237 237 237 237 237 237 237 237
237 237 237 237 237 237 237 237 237 237 237 237 237 237 237 237 237 237 237 237 237 236 215 114 17 0 36 159 235 237 237 237 237 237 237 237 237 237 237 237 237 236 231 167 55 1 11 101 205 236 237 237 237 237 237 237 237 237 237 237 237 237 237 237
237 237 237 237 237 237 237 237 237 237 237 237 237 237 237 237 237 237 237 237 237 235 204 94 10 4 69 187 235 237 237 237 237 237 237 237 237 237 237 237 237 237 236 197 85 8 1 77 194 236 237 237 237 237 237 237 237 237 237 237 237 237 237 237
237 237 237 237 237 237 237 237 237 237 237 237 237 237 237 237 237 237 237 237 237 236 196 76 3 13 96 203 235 237 237 237 237 237 237 237 237 237 237 237 237 237 236 208 105 16 1 60 187 236 237 237 237 237 237 237 237 237 237 237 237 237 237 237
237 237 237 237 237 237 237 237 237 237 237 237 237 237 237 237 237 237 237 237 237 236 193 68 1 17 108 208 236 237 237 237 237 237 237 237 237 237 237 237 237 237 236 215 121 24 1 53 179 236 237 237 237 237 237 237 237 237 237 237 237 237 237 237
237 237 237 237 237 237 237 237 237 237 237 237 237 237 237 237 237 237 237 237 237 236 192 68 1 13 98 205 236 237 237 237 237 237 237 237 237 237 237 237 237 237 236 221 134 30 0 48 167 235 237 237 237 237 237 237 237 237 237 237 237 237 237 237
237 237 237 237 237 237 237 237 237 237 237 237 237 237 237 237 237 237 237 237 237 236 196 80 3 6 83 197 236 237 237 237 237 237 237 237 237 237 237 237 237 237 236 227 143 32 0 45 161 230 236 237 237 237 237 237 237 237 237 237 237 237 237 237
237 237 237 237 237 237 237 237 237 237 237 237 237 237 237 237 237 237 237 237 237 236 203 96 11 0 65 188 236 237 237 237 237 237 237 237 237 237 237 237 237 237 237 234 149 30 0 44 160 229 237 237 237 237 237 237 237 237 237 237 237 237 237 237
237 237 237 237 237 237 237 237 237 237 237 237 237 237 237 237 237 237 237 237 237 236 211 114 19 0 47 175 236 237 237 237 237 237 237 237 237 237 237 237 237 237 237 236 152 26 0 41 159 229 237 237 237 237 237 237 237 237 237 237 237 237 237 237
237 237 237 237 237 237 237 237 237 237 237 237 237 237 237 237 237 237 237 237 237 236 220 134 30 0 36 160 236 237 237 237 237 237 237 237 237 237 237 237 237 237 237 235 152 19 0 36 159 231 237 237 237 237 237 237 237 237 237 237 237 237 237 237
237 237 237 237 237 237 237 237 237 237 237 237 237 237 237 237 237 237 237 237 237 236 226 152 41 0 28 142 232 237 237 237 237 237 237 237 237 237 237 237 237 237 237 232 147 19 0 32 161 234 237 237 237 237 237 237 237 237 237 237 237 237 237 237
237 237 237 237 237 237 237 237 237 237 237 237 237 237 237 237 237 237 237 237 237 236 231 172 57 1 17 113 217 235 237 237 237 237 237 237 237 237 237 237 237 237 237 227 139 24 0 34 168 235 237 237 237 237 237 237 237 237 237 237 237 237 237 237
237 237 237 237 237 237 237 237 237 237 237 237 237 237 237 237 237 237 237 237 237 237 236 196 80 5 7 73 180 229 236 237 237 237 237 237 237 237 237 237 237 237 236 219 126 23 0 50 182 236 237 237 237 237 237 237 237 237 237 237 237 237 237 237
237 237 237 237 237 237 237 237 237 237 237 237 237 237 237 237 237 237 237 237 237 237 237 221 114 16 2 36 118 196 232 236 237 237 237 237 237 237 237 237 237 237 235 207 100 15 1 68 193 236 237 237 237 237 237 237 237 237 237 237 237 237 237 237
237 237 237 237 237 237 237 237 237 237 237 237 237 237 237 237 237 237 237 237 237 237 237 233 165 50 6 13 57 138 210 235 236 237 237 237 237 237 236 236 236 231 207 146 53 5 7 87 201 235 237 237 237 237 237 237 237 237 237 237 237 237 237 237
237 237 237 237 237 237 237 237 237 237 237 237 237 237 237 237 237 237 237 237 237 237 237 236 204 116 33 5 16 74 156 212 232 236 236 237 237 237 236 235 221 194 140 69 13 0 19 114 212 236 237 237 237 237 237 237 237 237 237 237 237 237 237 237
237 237 237 237 237 237 237 237 237 237 237 237 237 237 237 237 237 237 237 237 237 237 237 237 226 181 94 21 3 27 87 149 199 229 234 231 228 222 210 191 163 117 60 17 0 2 42 152 224 236 237 237 237 237 237 237 237 237 237 237 237 237 237 237
237 237 237 237 237 237 237 237 237 237 237 237 237 237 237 237 237 237 237 237 237 237 237 237 235 221 162 69 8 7 28 71 125 164 185 201 194 174 143 106 67 28 6 0 5 35 109 200 235 237 237 237 237 237 237 237 237 237 237 237 237 237 237 237
237 237 237 237 237 237 237 237 237 237 237 237 237 237 237 237 237 237 237 237 237 237 237 237 237 235 209 139 56 17 2 14 49 78 92 101 101 85 60 36 17 5 0 7 37 100 177 225 236 237 237 237 237 237 237 237 237 237 237 237 237 237 237 237
237 237 237 237 237 237 237 237 237 237 237 237 237 237 237 237 237 237 237 237 237 237 237 237 237 237 231 200 137 69 13 1 5 15 26 29 24 9 2 0 0 2 14 53 118 182 222 235 237 237 237 237 237 237 237 237 237 237 237 237 237 237 237 237
