P2
64 64
255
226 226 226 226 226 226 226 226 226 226 226 226 226 226 226 226 226 226 226 226 226 226 226 226 226 226 226 226 226 226 226 226 226 226 226 226 226 226 226 226 226 226 226 226 226 226 226 226 226 226 226 226 226 226 226 226 226 226 226 226 226 226 226 226
226 226 226 226 226 226 226 226 226 226 226 226 226 226 226 226 226 226 226 226 226 226 226 226 226 226 226 226 226 226 226 226 226 226 226 226 226 226 226 226 226 226 226 226 226 226 226 226 226 226 226 226 226 226 226 226 226 226 226 226 226 226 226 226
226 226 226 226 226 226 226 226 226 226 226 226 226 226 226 226 226 226 226 226 226 226 226 226 226 226 226 226 226 226 226 226 226 226 226 226 226 226 226 226 226 226 226 226 226 226 226 226 226 226 226 226 226 226 226 226 226 226 226 226 226 226 226 226
226 226 226 226 226 226 226 226 226 226 226 226 226 226 226 226 226 226 226 226 226 226 226 226 226 226 226 226 226 226 226 226 226 226 226 226 226 226 226 226 226 226 226 226 226 226 226 226 226 226 226 226 226 226 226 226 226 226 226 226 226 226 226 226
226 226 226 226 226 226 226 226 226 226 226 226 226 226 226 226 226 226 226 226 226 226 226 226 226 226 226 226 226 226 226 226 226 226 226 226 226 226 226 226 226 226 226 226 226 226 226 226 226 226 226 226 226 226 226 226 226 226 226 226 226 226 226 226
226 226 226 226 226 226 226 226 226 226 226 226 226 226 226 226 226 226 226 226 226 226 226 226 226 226 226 226 226 226 226 226 226 226 226 226 226 226 226 226 226 226 226 226 226 226 226 226 226 226 226 226 226 226 226 226 226 226 226 226 226 226 226 226
226 226 226 226 226 226 226 226 226 226 226 226 226 226 226 226 226 226 226 226 226 226 226 226 226 226 226 226 226 226 226 226 226 226 226 226 226 226 226 226 226 226 226 226 226 226 226 226 226 226 226 226 226 226 226 226 226 226 226 226 226 226 226 226
226 226 226 226 226 226 226 226 226 226 226 226 226 226 226 226 226 226 226 226 226 226 226 226 226 225 225 224 224 225 225 225 225 225 224 225 226 226 226 226 226 226 226 226 226 226 226 226 226 226 226 226 226 226 226 226 226 226 226 226 226 226 226 226
226 226 226 226 226 226 226 226 226 226 226 226 226 226 226 226 226 226 226 226 226 226 226 225 222 218 210 203 197 192 182 177 178 176 177 193 216 225 226 226 226 226 226 226 226 226 226 226 226 226 226 226 226 226 226 226 226 226 226 226 226 226 226 226
226 226 226 226 226 226 226 226 226 226 226 226 226 226 226 226 226 226 226 226 226 224 219 206 189 166 136 109 93 82 71 66 69 67 67 96 160 211 224 226 226 226 226 226 226 226 226 226 226 226 226 226 226 226 226 226 226 226 226 226 226 226 226 226
226 226 226 226 226 226 226 226 226 226 226 226 226 226 226 226 226 226 226 225 223 210 177 130 90 62 34 13 4 2 1 4 6 7 7 17 64 147 205 224 226 226 226 226 226 226 226 226 226 226 226 226 226 226 226 226 226 226 226 226 226 226 226 226
226 226 226 226 226 226 226 226 226 226 226 226 226 226 226 226 226 226 225 218 198 156 87 31 7 2 0 0 1 0 0 1 0 0 0 0 9 54 148 210 225 226 226 226 226 226 226 226 226 226 226 226 226 226 226 226 226 226 226 226 226 226 226 226
226 226 226 226 226 226 226 226 226 226 226 226 226 226 226 226 226 226 221 191 132 70 16 0 1 7 15 25 34 38 47 54 52 39 21 4 0 8 73 171 218 226 226 226 226 226 226 226 226 226 226 226 226 226 226 226 226 226 226 226 226 226 226 226
226 226 226 226 226 226 226 226 226 226 226 226 226 226 226 226 226 224 205 137 55 15 7 14 31 61 94 125 146 154 165 167 162 149 117 58 12 1 25 113 198 224 226 226 226 226 226 226 226 226 226 226 226 226 226 226 226 226 226 226 226 226 226 226
226 226 226 226 226 226 226 226 226 226 226 226 226 226 226 226 225 213 158 72 17 14 43 79 124 165 194 213 222 225 225 222 220 217 204 157 67 7 5 52 150 212 225 226 226 226 226 226 226 226 226 226 226 226 226 226 226 226 226 226 226 226 226 226
226 226 226 226 226 226 226 226 226 226 226 226 226 226 226 226 221 178 83 21 10 52 127 178 209 222 225 226 226 226 226 225 225 225 224 213 148 39 0 13 81 180 222 226 226 226 226 226 226 226 226 226 226 226 226 226 226 226 226 226 226 226 226 226
226 226 226 226 226 226 226 226 226 226 226 226 226 226 226 225 210 129 29 0 11 103 201 222 226 226 226 226 226 226 226 226 226 226 226 225 199 91 10 0 31 135 216 226 226 226 226 226 226 226 226 226 226 226 226 226 226 226 226 226 226 226 226 226
226 226 226 226 226 226 226 226 226 226 226 226 226 226 226 224 194 89 10 0 27 148 222 226 226 226 226 226 226 226 226 226 226 226 226 226 218 146 35 0 8 93 202 225 226 226 226 226 226 226 226 226 226 226 226 226 226 226 226 226 226 226 226 226
226 226 226 226 226 226 226 226 226 226 226 226 226 226 226 220 170 59 3 6 71 190 226 226 226 226 226 226 226 226 226 226 226 226 226 226 224 189 85 11 1 53 169 221 226 226 226 226 226 226 226 226 226 226 226 226 226 226 226 226 226 226 226 226
226 226 226 226 226 226 226 226 226 226 226 226 226 226 225 215 143 38 0 24 129 217 226 226 226 226 226 226 226 226 226 226 226 226 226 226 225 213 140 36 1 16 114 209 226 226 226 226 226 226 226 226 226 226 226 226 226 226 226 226 226 226 226 226
226 226 226 226 226 226 226 226 226 226 226 226 226 226 225 208 119 23 0 48 169 224 226 226 226 226 226 226 226 226 226 226 226 226 226 226 226 222 169 50 1 0 55 184 225 226 226 226 226 226 226 226 226 226 226 226 226 226 226 226 226 226 226 226
226 226 226 226 226 226 226 226 226 226 226 226 226 226 225 198 94 13 1 70 190 225 226 226 226 226 226 226 226 226 226 226 226 226 226 226 226 224 177 53 1 0 21 153 222 226 226 226 226 226 226 226 226 226 226 226 226 226 226 226 226 226 226 226
226 226 226 226 226 226 226 226 226 226 226 226 226 226 224 184 70 5 5 96 208 226 226 226 226 226 226 226 226 226 226 226 226 226 226 226 226 225 183 60 2 0 13 136 219 226 226 226 226 226 226 226 226 226 226 226 226 226 226 226 226 226 226 226
226 226 226 226 226 226 226 226 226 226 226 226 226 226 221 170 54 1 12 121 219 226 226 226 226 226 226 226 226 226 226 226 226 226 226 226 226 225 191 75 5 0 25 147 220 226 226 226 226 226 226 226 226 226 226 226 226 226 226 226 226 226 226 226
226 226 226 226 226 226 226 226 226 226 226 226 226 226 218 158 45 0 19 139 224 226 226 226 226 226 226 226 226 226 226 226 226 226 226 226 226 225 195 85 6 0 47 168 223 226 226 226 226 226 226 226 226 226 226 226 226 226 226 226 226 226 226 226
226 226 226 226 226 226 226 226 226 226 226 226 226 226 218 153 40 0 22 144 224 226 226 226 226 226 226 226 226 226 226 226 226 226 226 226 226 225 192 78 3 1 56 176 225 226 226 226 226 226 226 226 226 226 226 226 226 226 226 226 226 226 226 226
226 226 226 226 226 226 226 226 226 226 226 226 226 226 218 155 40 0 18 137 220 226 226 226 226 226 226 226 226 226 226 226 226 226 226 226 226 225 182 61 0 2 56 177 225 226 226 226 226 226 226 226 226 226 226 226 226 226 226 226 226 226 226 226
226 226 226 226 226 226 226 226 226 226 226 226 226 226 221 166 52 2 9 117 211 226 226 226 226 226 226 226 226 226 226 226 226 226 226 226 226 224 170 45 0 5 73 187 225 226 226 226 226 226 226 226 226 226 226 226 226 226 226 226 226 226 226 226
226 226 226 226 226 226 226 226 226 226 226 226 226 226 224 184 74 6 3 87 195 225 226 226 226 226 226 226 226 226 226 226 226 226 226 226 226 220 149 27 0 15 109 204 225 226 226 226 226 226 226 226 226 226 226 226 226 226 226 226 226 226 226 226
226 226 226 226 226 226 226 226 226 226 226 226 226 226 225 203 104 9 2 58 172 222 226 226 226 226 226 226 226 226 226 226 226 226 226 226 226 210 118 12 0 39 151 218 226 226 226 226 226 226 226 226 226 226 226 226 226 226 226 226 226 226 226 226
226 226 226 226 226 226 226 226 226 226 226 226 226 226 226 216 136 23 1 34 143 215 225 226 226 226 226 226 226 226 226 226 226 226 226 226 225 189 82 3 5 71 182 224 226 226 226 226 226 226 226 226 226 226 226 226 226 226 226 226 226 226 226 226
226 226 226 226 226 226 226 226 226 226 226 226 226 226 226 223 168 49 1 17 103 195 223 226 226 226 226 226 226 226 226 226 226 226 226 224 213 148 45 0 15 109 203 225 226 226 226 226 226 226 226 226 226 226 226 226 226 226 226 226 226 226 226 226
226 226 226 226 226 226 226 226 226 226 226 226 226 226 226 225 198 97 14 7 55 155 215 225 226 226 226 226 226 226 226 226 226 226 226 217 171 82 16 2 42 148 216 226 226 226 226 226 226 226 226 226 226 226 226 226 226 226 226 226 226 226 226 226
226 226 226 226 226 226 226 226 226 226 226 226 226 226 226 226 218 156 51 5 19 92 178 215 224 226 226 226 226 226 226 226 226 226 223 187 99 24 6 25 101 189 223 226 226 226 226 226 226 226 226 226 226 226 226 226 226 226 226 226 226 226 226 226
226 226 226 226 226 226 226 226 226 226 226 226 226 226 226 226 225 201 104 17 3 32 101 165 203 217 221 224 225 225 225 225 225 218 187 115 34 3 13 87 171 215 225 226 226 226 226 226 226 226 226 226 226 226 226 226 226 226 226 226 226 226 226 226
226 226 226 226 226 226 226 226 226 226 226 226 226 226 226 226 225 211 118 21 0 4 28 73 127 164 186 202 210 214 216 212 191 146 87 36 6 6 62 163 214 224 226 226 226 226 226 226 226 226 226 226 226 226 226 226 226 226 226 226 226 226 226 226
226 226 226 226 226 226 226 226 226 226 226 226 226 226 226 226 225 195 86 9 0 1 1 11 36 62 87 109 122 128 130 116 81 39 11 3 5 53 148 210 225 226 226 226 226 226 226 226 226 226 226 226 226 226 226 226 226 226 226 226 226 226 226 226
226 226 226 226 226 226 226 226 226 226 226 226 226 226 226 226 221 159 48 1 9 29 20 3 1 2 8 16 21 23 22 15 3 1 0 0 10 91 193 222 226 226 226 226 226 226 226 226 226 226 226 226 226 226 226 226 226 226 226 226 226 226 226 226
226 226 226 226 226 226 226 226 226 226 226 226 226 226 226 226 210 117 23 1 39 103 90 42 19 8 3 0 0 0 0 0 0 0 0 0 2 43 149 212 225 226 226 226 226 226 226 226 226 226 226 226 226 226 226 226 226 226 226 226 226 226 226 226
226 226 226 226 226 226 226 226 226 226 226 226 226 226 226 224 184 76 7 9 80 177 179 133 93 62 41 27 21 16 14 16 34 51 35 6 0 7 78 179 221 226 226 226 226 226 226 226 226 226 226 226 226 226 226 226 226 226 226 226 226 226 226 226
226 226 226 226 226 226 226 226 226 226 226 226 226 226 226 215 140 39 1 28 124 210 220 207 187 165 143 126 117 111 110 122 148 170 141 59 5 1 32 125 203 224 226 226 226 226 226 226 226 226 226 226 226 226 226 226 226 226 226 226 226 226 226 226
226 226 226 226 226 226 226 226 226 226 226 226 226 226 226 193 88 12 7 62 167 221 226 225 224 222 216 210 207 206 207 212 220 223 213 156 59 7 9 62 158 215 225 226 226 226 226 226 226 226 226 226 226 226 226 226 226 226 226 226 226 226 226 226
226 226 226 226 226 226 226 226 226 226 226 226 226 226 225 159 46 1 23 110 201 225 226 226 226 226 226 226 226 226 226 226 226 225 225 214 146 39 2 19 96 190 223 226 226 226 226 226 226 226 226 226 226 226 226 226 226 226 226 226 226 226 226 226
226 226 226 226 226 226 226 226 226 226 226 226 226 226 221 123 17 0 47 158 218 225 226 226 226 226 226 226 226 226 226 226 226 226 226 225 197 88 9 2 46 156 219 226 226 226 226 226 226 226 226 226 226 226 226 226 226 226 226 226 226 226 226 226
226 226 226 226 226 226 226 226 226 226 226 226 226 226 212 98 6 3 71 188 224 226 226 226 226 226 226 226 226 226 226 226 226 226 226 226 214 123 20 0 19 123 216 226 226 226 226 226 226 226 226 226 226 226 226 226 226 226 226 226 226 226 226 226
226 226 226 226 226 226 226 226 226 226 226 226 226 226 200 84 3 8 92 203 225 226 226 226 226 226 226 226 226 226 226 226 226 226 226 226 220 156 40 0 6 94 208 226 226 226 226 226 226 226 226 226 226 226 226 226 226 226 226 226 226 226 226 226
226 226 226 226 226 226 226 226 226 226 226 226 226 225 190 74 2 13 104 210 225 226 226 226 226 226 226 226 226 226 226 226 226 226 226 226 224 187 78 8 2 72 194 225 226 226 226 226 226 226 226 226 226 226 226 226 226 226 226 226 226 226 226 226
226 226 226 226 226 226 226 226 226 226 226 226 226 225 186 70 2 14 109 211 225 226 226 226 226 226 226 226 226 226 226 226 226 226 226 226 225 203 108 18 0 60 180 225 226 226 226 226 226 226 226 226 226 226 226 226 226 226 226 226 226 226 226 226
226 226 226 226 226 226 226 226 226 226 226 226 226 224 187 73 3 12 102 210 226 226 226 226 226 226 226 226 226 226 226 226 226 226 226 226 225 205 114 21 0 55 177 225 226 226 226 226 226 226 226 226 226 226 226 226 226 226 226 226 226 226 226 226
226 226 226 226 226 226 226 226 226 226 226 226 226 224 195 87 9 5 83 198 226 226 226 226 226 226 226 226 226 226 226 226 226 226 226 226 225 203 109 18 1 57 179 225 226 226 226 226 226 226 226 226 226 226 226 226 226 226 226 226 226 226 226 226
226 226 226 226 226 226 226 226 226 226 226 226 226 225 205 113 21 1 56 177 224 226 226 226 226 226 226 226 226 226 226 226 226 226 226 226 225 197 96 14 0 66 185 225 226 226 226 226 226 226 226 226 226 226 226 226 226 226 226 226 226 226 226 226
226 226 226 226 226 226 226 226 226 226 226 226 226 225 215 141 35 1 30 146 220 226 226 226 226 226 226 226 226 226 226 226 226 226 226 226 224 183 72 7 2 87 198 225 226 226 226 226 226 226 226 226 226 226 226 226 226 226 226 226 226 226 226 226
226 226 226 226 226 226 226 226 226 226 226 226 226 226 221 168 56 4 10 109 209 226 226 226 226 226 226 226 226 226 226 226 226 225 226 226 218 153 42 1 10 119 212 226 226 226 226 226 226 226 226 226 226 226 226 226 226 226 226 226 226 226 226 226
226 226 226 226 226 226 226 226 226 226 226 226 226 226 224 191 86 9 1 70 185 223 225 225 225 225 225 225 225 225 225 225 224 224 221 211 177 94 18 0 39 159 221 226 226 226 226 226 226 226 226 226 226 226 226 226 226 226 226 226 226 226 226 226
226 226 226 226 226 226 226 226 226 226 226 226 226 226 225 210 124 21 0 35 127 172 185 197 203 205 208 209 209 210 212 209 194 170 141 115 80 32 4 10 93 196 225 226 226 226 226 226 226 226 226 226 226 226 226 226 226 226 226 226 226 226 226 226
226 226 226 226 226 226 226 226 226 226 226 226 226 226 226 221 165 56 2 14 51 69 85 110 124 131 135 135 129 130 131 117 87 53 27 14 9 4 7 57 162 218 226 226 226 226 226 226 226 226 226 226 226 226 226 226 226 226 226 226 226 226 226 226
226 226 226 226 226 226 226 226 226 226 226 226 226 226 226 225 202 124 40 13 7 7 12 25 34 37 39 35 27 24 24 17 4 0 0 0 0 7 49 140 209 225 226 226 226 226 226 226 226 226 226 226 226 226 226 226 226 226 226 226 226 226 226 226
226 226 226 226 226 226 226 226 226 226 226 226 226 226 226 226 219 191 119 46 5 0 0 0 0 1 0 0 0 0 0 0 0 2 4 15 39 78 140 203 224 226 226 226 226 226 226 226 226 226 226 226 226 226 226 226 226 226 226 226 226 226 226 226
226 226 226 226 226 226 226 226 226 226 226 226 226 226 226 226 225 220 189 124 62 31 23 25 25 23 20 14 8 7 12 17 34 63 94 122 148 176 204 222 226 226 226 226 226 226 226 226 226 226 226 226 226 226 226 226 226 226 226 226 226 226 226 226
226 226 226 226 226 226 226 226 226 226 226 226 226 226 226 226 226 225 218 195 157 125 110 109 107 102 96 83 66 68 91 117 144 177 203 213 217 220 223 225 226 226 226 226 226 226 226 226 226 226 226 226 226 226 226 226 226 226 226 226 226 226 226 226
226 226 226 226 226 226 226 226 226 226 226 226 226 226 226 226 226 225 225 221 215 204 198 196 195 193 190 183 174 178 195 210 218 224 225 225 225 225 226 226 226 226 226 226 226 226 226 226 226 226 226 226 226 226 226 226 226 226 226 226 226 226 226 226
226 226 226 226 226 226 226 226 226 226 226 226 226 226 226 226 226 226 226 226 226 225 225 225 225 225 225 225 224 225 225 226 226 226 226 226 226 226 226 226 226 226 226 226 226 226 226 226 226 226 226 226 226 226 226 226 226 226 226 226 226 226 226 226
226 226 226 226 226 226 226 226 226 226 226 226 226 226 226 226 226 226 226 226 226 226 226 226 226 226 226 226 226 226 226 226 226 226 226 226 226 226 226 226 226 226 226 226 226 226 226 226 226 226 226 226 226 226 226 226 226 226 226 226 226 226 226 226
226 226 226 226 226 226 226 226 226 226 226 226 226 226 226 226 226 226 226 226 226 226 226 226 226 226 226 226 226 226 226 226 226 226 226 226 226 226 226 226 226 226 226 226 226 226 226 226 226 226 226 226 226 226 226 226 226 226 226 226 226 226 226 226
