P2
64 64
255
189 189 189 189 189 189 189 189 189 189 189 189 189 189 189 189 189 189 189 189 189 189 189 189 189 189 189 189 189 189 189 189 189 189 189 189 189 189 189 189 189 189 189 189 189 189 189 189 189 189 189 189 189 189 189 189 189 189 189 189 189 189 189 189
189 189 189 189 189 189 189 189 189 189 189 189 189 189 189 189 189 189 189 189 189 189 189 189 189 189 189 189 189 189 189 189 189 189 189 189 189 189 189 189 189 189 189 189 189 189 189 189 189 189 189 189 189 189 189 189 189 189 189 189 189 189 189 189
189 189 189 189 189 189 189 189 189 189 189 189 189 189 189 189 189 189 189 189 189 189 189 189 189 189 189 189 189 189 189 189 189 189 189 189 189 189 189 189 189 189 189 189 189 189 189 189 189 189 189 189 189 189 189 189 189 189 189 189 189 189 189 189
189 189 189 189 189 189 189 189 189 189 189 189 189 189 189 189 189 189 189 189 189 189 189 189 189 189 189 189 189 189 189 189 189 189 189 189 189 189 189 189 189 189 189 189 189 189 189 189 189 189 189 189 189 189 189 189 189 189 189 189 189 189 189 189
189 189 189 189 189 189 189 189 189 189 189 189 189 189 189 189 189 189 189 189 189 189 189 189 189 189 189 189 189 189 189 189 189 189 189 189 189 189 189 189 189 189 189 189 189 189 189 189 189 189 189 189 189 189 189 189 189 189 189 189 189 189 189 189
189 189 189 189 189 189 189 189 189 189 189 189 189 189 189 189 189 189 189 189 189 189 189 189 189 189 189 189 189 189 189 189 189 189 189 189 189 189 189 189 189 189 189 189 189 189 189 189 189 189 189 189 189 189 189 189 189 189 189 189 189 189 189 189
189 189 189 189 189 189 189 189 189 189 189 189 189 189 189 189 189 189 189 189 189 189 189 189 189 189 189 189 189 189 189 189 189 189 189 189 189 189 189 189 189 189 189 189 189 189 189 189 189 189 189 189 189 189 189 189 189 189 189 189 189 189 189 189
189 189 189 189 189 189 189 189 189 189 189 189 189 189 189 189 189 189 189 189 189 189 189 189 189 189 189 189 189 189 189 189 189 189 189 189 189 189 189 189 189 189 189 189 189 189 189 189 189 189 189 189 189 189 189 189 189 189 189 189 189 189 189 189
189 189 189 189 189 189 189 189 189 189 189 189 189 189 189 189 189 189 189 189 189 189 189 189 189 189 189 189 189 189 189 189 189 189 189 189 189 189 189 189 189 189 189 189 189 189 189 189 189 189 189 189 189 189 189 189 189 189 189 189 189 189 189 189
189 189 189 189 189 189 189 189 189 189 189 189 189 189 189 189 189 189 189 189 189 189 189 189 189 189 189 189 189 189 189 189 189 189 189 189 189 189 189 189 189 189 189 189 189 189 189 189 189 189 189 189 189 189 189 189 189 189 189 189 189 189 189 189
189 189 189 189 189 189 189 189 189 189 189 189 189 189 189 189 189 189 189 189 189 189 189 189 189 189 188 188 188 189 189 189 189 189 189 189 189 189 189 189 189 189 189 189 189 189 189 189 189 189 189 189 189 189 189 189 189 189 189 189 189 189 189 189
189 189 189 189 189 189 189 189 189 189 189 189 189 189 189 189 189 189 189 189 189 189 188 188 188 182 173 170 172 179 185 185 184 186 188 189 189 188 189 189 189 189 189 189 189 189 189 189 189 189 189 189 189 189 189 189 189 189 189 189 189 189 189 189
189 189 189 189 189 189 189 189 189 189 189 189 189 189 189 189 189 189 189 189 188 182 166 136 111 94 86 84 86 92 104 115 126 138 153 170 176 177 182 187 188 189 188 189 189 189 189 189 189 189 189 189 189 189 189 189 189 189 189 189 189 189 189 189
189 189 189 189 189 189 189 189 189 189 189 189 189 189 189 189 189 189 188 184 170 138 89 37 14 8 9 10 8 2 9 18 28 34 48 65 85 101 120 144 166 179 186 189 189 189 189 189 189 189 189 189 189 189 189 189 189 189 189 189 189 189 189 189
189 189 189 189 189 189 189 189 189 189 189 189 189 189 189 189 189 188 182 158 107 52 14 2 0 0 0 0 0 1 0 0 0 0 0 2 7 16 26 47 84 128 165 185 188 188 189 189 189 189 189 189 189 189 189 189 189 189 189 189 189 189 189 189
189 189 189 189 189 189 189 189 189 189 189 189 189 189 189 189 188 183 159 93 33 4 0 4 13 17 20 26 40 43 29 20 14 8 11 11 5 2 0 2 17 49 96 141 170 185 188 189 189 189 189 189 189 189 189 189 189 189 189 189 189 189 189 189
189 189 189 189 189 189 189 189 189 189 189 189 189 189 189 188 185 167 102 34 2 0 5 34 81 109 126 137 146 144 129 119 115 110 101 87 72 54 32 18 12 11 25 63 115 164 185 188 189 189 189 189 189 189 189 189 189 189 189 189 189 189 189 189
189 189 189 189 189 189 189 189 189 189 189 189 189 189 189 188 179 123 49 7 0 2 27 97 153 182 188 188 188 187 184 185 187 185 179 171 166 159 136 94 49 15 2 14 47 112 163 183 189 189 189 189 189 189 189 189 189 189 189 189 189 189 189 189
189 189 189 189 189 189 189 189 189 189 189 189 189 189 188 188 154 78 17 0 0 13 80 147 183 189 189 189 189 189 189 189 189 189 189 188 188 188 186 160 107 50 10 1 5 57 121 169 188 189 189 189 189 189 189 189 189 189 189 189 189 189 189 189
189 189 189 189 189 189 189 189 189 189 189 189 189 189 189 181 130 54 1 0 7 57 130 180 189 189 189 189 189 189 189 189 189 189 189 189 189 189 189 183 157 105 36 5 0 26 79 148 188 188 189 189 189 189 189 189 189 189 189 189 189 189 189 189
189 189 189 189 189 189 189 189 189 189 189 189 189 189 188 170 114 34 1 1 31 99 168 188 189 189 189 189 189 189 189 189 189 189 189 189 189 189 189 188 181 152 77 23 0 8 38 118 173 188 189 189 189 189 189 189 189 189 189 189 189 189 189 189
189 189 189 189 189 189 189 189 189 189 189 189 189 189 186 164 98 18 2 6 49 124 185 188 189 189 189 189 189 189 189 189 189 189 189 189 189 189 189 188 188 173 118 50 2 0 8 82 152 188 189 189 189 189 189 189 189 189 189 189 189 189 189 189
189 189 189 189 189 189 189 189 189 189 189 189 189 189 185 165 84 23 1 12 56 141 180 188 189 189 189 189 189 189 189 189 189 189 189 189 189 189 189 189 189 185 152 81 5 0 4 56 132 188 188 189 189 189 189 189 189 189 189 189 189 189 189 189
189 189 189 189 189 189 189 189 189 189 189 189 189 188 186 144 71 18 1 11 72 147 181 189 189 189 189 189 189 189 189 189 189 189 189 189 189 189 189 189 189 188 176 107 27 2 2 33 112 181 188 189 189 189 189 189 189 189 189 189 189 189 189 189
189 189 189 189 189 189 189 189 189 189 189 189 189 189 177 122 52 5 1 20 92 154 185 189 189 189 189 189 189 189 189 189 189 189 189 189 189 189 189 189 189 188 188 127 50 3 1 11 92 162 188 189 189 189 189 189 189 189 189 189 189 189 189 189
189 189 189 189 189 189 189 189 189 189 189 189 189 188 164 99 23 0 0 20 82 156 188 188 189 189 189 189 189 189 189 189 189 189 189 189 189 189 189 189 189 189 188 144 69 4 0 7 73 146 188 189 189 189 189 189 189 189 189 189 189 189 189 189
189 189 189 189 189 189 189 189 189 189 189 189 189 188 160 76 7 0 0 6 46 142 183 188 189 189 189 189 189 189 189 189 189 189 189 189 189 189 189 189 189 189 185 153 76 8 0 12 65 141 188 188 189 189 189 189 189 189 189 189 189 189 189 189
189 189 189 189 189 189 189 189 189 189 189 189 189 188 179 76 17 0 0 1 11 106 165 188 188 189 189 189 189 189 189 189 189 189 189 189 189 189 189 189 189 188 177 139 60 14 1 20 76 155 184 188 189 189 189 189 189 189 189 189 189 189 189 189
189 189 189 189 189 189 189 189 189 189 189 189 189 189 187 115 41 0 0 0 3 56 121 170 186 188 189 189 189 189 189 189 189 189 189 189 189 189 189 189 189 185 164 95 34 5 5 37 112 167 185 189 189 189 189 189 189 189 189 189 189 189 189 189
189 189 189 189 189 189 189 189 189 189 189 189 189 189 188 151 79 4 0 0 0 14 52 118 166 184 189 189 189 189 189 189 189 189 189 189 189 189 189 189 186 170 115 52 12 4 23 87 150 181 188 189 189 189 189 189 189 189 189 189 189 189 189 189
189 189 189 189 189 189 189 189 189 189 189 189 189 189 188 174 114 29 4 0 0 0 4 52 112 159 185 188 188 189 189 189 189 189 189 189 189 189 188 183 153 104 51 14 2 19 78 141 178 188 189 189 189 189 189 189 189 189 189 189 189 189 189 189
189 189 189 189 189 189 189 189 189 189 189 189 189 189 188 188 134 57 11 0 0 0 0 11 42 95 159 182 188 189 189 189 189 189 189 189 188 187 182 137 79 33 9 3 15 71 135 175 188 189 189 189 189 189 189 189 189 189 189 189 189 189 189 189
189 189 189 189 189 189 189 189 189 189 189 189 189 189 189 188 150 81 17 0 0 1 0 0 5 22 92 147 176 187 189 189 188 188 187 182 165 139 102 55 19 2 2 14 71 133 173 188 189 189 189 189 189 189 189 189 189 189 189 189 189 189 189 189
189 189 189 189 189 189 189 189 189 189 189 189 189 189 189 188 165 104 23 3 0 7 11 1 0 2 34 78 118 152 176 176 170 162 147 121 73 37 17 7 1 3 31 86 141 175 188 188 189 189 189 189 189 189 189 189 189 189 189 189 189 189 189 189
189 189 189 189 189 189 189 189 189 189 189 189 189 189 189 188 181 124 45 8 0 12 45 37 17 8 10 17 27 41 63 79 81 69 48 23 5 0 0 0 6 46 108 157 182 188 188 189 189 189 189 189 189 189 189 189 189 189 189 189 189 189 189 189
189 189 189 189 189 189 189 189 189 189 189 189 189 189 189 188 188 140 68 14 0 4 61 97 90 62 31 6 1 0 0 4 8 7 2 0 0 2 10 29 71 128 169 186 189 189 189 189 189 189 189 189 189 189 189 189 189 189 189 189 189 189 189 189
189 189 189 189 189 189 189 189 189 189 189 189 189 189 189 189 188 156 90 19 0 2 50 114 156 148 108 52 16 2 0 0 0 0 0 6 19 43 81 121 159 179 188 188 189 189 189 189 189 189 189 189 189 189 189 189 189 189 189 189 189 189 189 189
189 189 189 189 189 189 189 189 189 189 189 189 189 189 189 189 188 171 112 31 5 1 32 99 170 183 171 138 90 52 35 31 33 36 49 66 96 136 168 186 188 189 189 189 189 189 189 189 189 189 189 189 189 189 189 189 189 189 189 189 189 189 189 189
189 189 189 189 189 189 189 189 189 189 189 189 189 189 189 189 188 187 130 54 11 0 14 79 153 182 188 183 173 153 141 138 144 147 151 158 172 183 188 189 189 189 189 189 189 189 189 189 189 189 189 189 189 189 189 189 189 189 189 189 189 189 189 189
189 189 189 189 189 189 189 189 189 189 189 189 189 189 189 189 189 188 146 76 15 0 2 61 133 178 189 189 189 188 186 187 188 188 188 188 188 188 189 189 189 189 189 189 189 189 189 189 189 189 189 189 189 189 189 189 189 189 189 189 189 189 189 189
189 189 189 189 189 189 189 189 189 189 189 189 189 189 189 189 189 188 162 99 20 2 2 43 112 173 189 189 189 189 189 189 189 189 189 189 189 189 189 189 189 189 189 189 189 189 189 189 189 189 189 189 189 189 189 189 189 189 189 189 189 189 189 189
189 189 189 189 189 189 189 189 189 189 189 189 189 189 189 189 189 188 177 121 40 7 1 26 92 165 185 189 189 189 189 189 189 189 189 189 189 189 189 189 189 189 189 189 189 189 189 189 189 189 189 189 189 189 189 189 189 189 189 189 189 189 189 189
189 189 189 189 189 189 189 189 189 189 189 189 189 189 189 189 189 188 188 136 63 12 0 8 72 145 180 189 189 189 189 189 189 189 189 189 189 189 189 189 189 189 189 189 189 189 189 189 189 189 189 189 189 189 189 189 189 189 189 189 189 189 189 189
189 189 189 189 189 189 189 189 189 189 189 189 189 189 189 189 189 189 188 152 85 17 0 2 55 124 176 189 189 189 189 189 189 189 189 189 189 189 189 189 189 189 189 189 189 189 189 189 189 189 189 189 189 189 189 189 189 189 189 189 189 189 189 189
189 189 189 189 189 189 189 189 189 189 189 189 189 189 189 189 189 189 188 168 107 26 4 2 37 104 172 187 189 189 189 189 189 189 189 189 189 189 189 189 189 189 189 189 189 189 189 189 189 189 189 189 189 189 189 189 189 189 189 189 189 189 189 189
189 189 189 189 189 189 189 189 189 189 189 189 189 189 189 189 189 189 188 183 127 49 9 0 19 84 157 183 189 189 189 189 189 189 189 189 189 189 189 189 189 189 189 189 189 189 189 189 189 189 189 189 189 189 189 189 189 189 189 189 189 189 189 189
189 189 189 189 189 189 189 189 189 189 189 189 189 189 189 189 189 189 188 188 142 71 14 0 2 66 137 179 189 189 189 189 189 189 189 189 189 189 189 189 189 189 189 189 189 189 189 189 189 189 189 189 189 189 189 189 189 189 189 189 189 189 189 189
189 189 189 189 189 189 189 189 189 189 189 189 189 189 189 189 189 189 189 188 158 94 20 1 2 48 117 174 189 189 189 189 189 189 189 189 189 189 189 189 189 189 189 189 189 189 189 189 189 189 189 189 189 189 189 189 189 189 189 189 189 189 189 189
189 189 189 189 189 189 189 189 189 189 189 189 189 189 189 189 189 189 189 188 173 116 35 6 1 30 96 170 185 189 189 189 189 189 189 189 189 189 189 189 189 189 189 189 189 189 189 189 189 189 189 189 189 189 189 189 189 189 189 189 189 189 189 189
189 189 189 189 189 189 189 189 189 189 189 189 189 189 189 189 189 189 189 188 188 133 57 11 0 12 76 150 181 189 189 189 189 189 189 189 189 189 189 189 189 189 189 189 189 189 189 189 189 189 189 189 189 189 189 189 189 189 189 189 189 189 189 189
189 189 189 189 189 189 189 189 189 189 189 189 189 189 189 189 189 189 189 189 188 148 80 17 0 3 61 131 177 189 189 189 189 189 189 189 189 189 189 189 189 189 189 189 189 189 189 189 189 189 189 189 189 189 189 189 189 189 189 189 189 189 189 189
189 189 189 189 189 189 189 189 189 189 189 189 189 189 189 189 189 189 189 189 188 165 107 31 6 9 57 127 178 188 189 189 189 189 189 189 189 189 189 189 189 189 189 189 189 189 189 189 189 189 189 189 189 189 189 189 189 189 189 189 189 189 189 189
189 189 189 189 189 189 189 189 189 189 189 189 189 189 189 189 189 189 189 189 188 182 146 87 51 51 92 153 182 188 189 189 189 189 189 189 189 189 189 189 189 189 189 189 189 189 189 189 189 189 189 189 189 189 189 189 189 189 189 189 189 189 189 189
189 189 189 189 189 189 189 189 189 189 189 189 189 189 189 189 189 189 189 189 189 189 177 156 139 141 162 180 187 188 189 189 189 189 189 189 189 189 189 189 189 189 189 189 189 189 189 189 189 189 189 189 189 189 189 189 189 189 189 189 189 189 189 189
189 189 189 189 189 189 189 189 189 189 189 189 189 189 189 189 189 189 189 189 189 189 188 186 185 188 188 189 189 189 189 189 189 189 189 189 189 189 189 189 189 189 189 189 189 189 189 189 189 189 189 189 189 189 189 189 189 189 189 189 189 189 189 189
189 189 189 189 189 189 189 189 189 189 189 189 189 189 189 189 189 189 189 189 189 189 189 189 189 189 189 189 189 189 189 189 189 189 189 189 189 189 189 189 189 189 189 189 189 189 189 189 189 189 189 189 189 189 189 189 189 189 189 189 189 189 189 189
189 189 189 189 189 189 189 189 189 189 189 189 189 189 189 189 189 189 189 189 189 189 189 189 189 189 189 189 189 189 189 189 189 189 189 189 189 189 189 189 189 189 189 189 189 189 189 189 189 189 189 189 189 189 189 189 189 189 189 189 189 189 189 189
189 189 189 189 189 189 189 189 189 189 189 189 189 189 189 189 189 189 189 189 189 189 189 189 189 189 189 189 189 189 189 189 189 189 189 189 189 189 189 189 189 189 189 189 189 189 189 189 189 189 189 189 189 189 189 189 189 189 189 189 189 189 189 189
189 189 189 189 189 189 189 189 189 189 189 189 189 189 189 189 189 189 189 189 189 189 189 189 189 189 189 189 189 189 189 189 189 189 189 189 189 189 189 189 189 189 189 189 189 189 189 189 189 189 189 189 189 189 189 189 189 189 189 189 189 189 189 189
189 189 189 189 189 189 189 189 189 189 189 189 189 189 189 189 189 189 189 189 189 189 189 189 189 189 189 189 189 189 189 189 189 189 189 189 189 189 189 189 189 189 189 189 189 189 189 189 189 189 189 189 189 189 189 189 189 189 189 189 189 189 189 189
189 189 189 189 189 189 189 189 189 189 189 189 189 189 189 189 189 189 189 189 189 189 189 189 189 189 189 189 189 189 189 189 189 189 189 189 189 189 189 189 189 189 189 189 189 189 189 189 189 189 189 189 189 189 189 189 189 189 189 189 189 189 189 189
189 189 189 189 189 189 189 189 189 189 189 189 189 189 189 189 189 189 189 189 189 189 189 189 189 189 189 189 189 189 189 189 189 189 189 189 189 189 189 189 189 189 189 189 189 189 189 189 189 189 189 189 189 189 189 189 189 189 189 189 189 189 189 189
189 189 189 189 189 189 189 189 189 189 189 189 189 189 189 189 189 189 189 189 189 189 189 189 189 189 189 189 189 189 189 189 189 189 189 189 189 189 189 189 189 189 189 189 189 189 189 189 189 189 189 189 189 189 189 189 189 189 189 189 189 189 189 189
189 189 189 189 189 189 189 189 189 189 189 189 189 189 189 189 189 189 189 189 189 189 189 189 189 189 189 189 189 189 189 189 189 189 189 189 189 189 189 189 189 189 189 189 189 189 189 189 189 189 189 189 189 189 189 189 189 189 189 189 189 189 189 189
