P2
64 64
255
169 169 169 169 169 169 169 169 169 169 169 169 169 169 169 169 169 169 169 169 169 169 169 169 169 169 169 169 169 169 169 169 169 169 169 169 169 169 169 169 169 169 169 169 169 169 169 169 169 169 169 169 169 169 169 169 169 169 169 169 169 169 169 169
169 169 169 169 169 169 169 169 169 169 169 169 169 169 169 169 169 169 169 169 169 169 169 169 169 169 169 169 169 169 169 169 169 169 169 169 169 169 169 169 169 169 169 169 169 169 169 169 169 169 169 169 169 169 169 169 169 169 169 169 169 169 169 169
169 169 169 169 169 169 169 169 169 169 169 169 169 169 169 169 169 169 169 169 169 169 169 169 169 169 169 169 169 169 169 169 169 169 168 168 169 169 168 169 169 169 169 169 169 169 169 169 169 169 169 169 169 169 169 169 169 169 169 169 169 169 169 169
169 169 169 169 169 169 169 169 169 169 169 169 169 169 169 169 169 169 169 169 169 169 169 169 169 169 169 169 169 169 169 169 169 169 167 165 164 164 168 168 169 169 169 169 169 169 169 169 169 169 169 169 169 169 169 169 169 169 169 169 169 169 169 169
169 169 169 169 169 169 169 169 169 169 169 169 169 169 169 169 169 169 169 169 169 169 169 169 169 169 169 169 169 169 169 169 169 168 165 155 146 151 159 166 169 169 169 169 169 169 169 169 169 169 169 169 169 169 169 169 169 169 169 169 169 169 169 169
169 169 169 169 169 169 169 169 169 169 169 169 169 169 169 169 169 169 169 169 169 169 169 169 169 169 169 169 169 169 169 169 169 167 155 133 110 116 141 162 167 169 169 169 169 169 169 169 169 169 169 169 169 169 169 169 169 169 169 169 169 169 169 169
169 169 169 169 169 169 169 169 169 169 169 169 169 169 169 169 169 169 169 169 169 169 169 169 169 169 169 169 169 169 169 169 169 165 137 94 58 70 121 157 167 169 169 169 169 169 169 169 169 169 169 169 169 169 169 169 169 169 169 169 169 169 169 169
169 169 169 169 169 169 169 169 169 169 169 169 169 169 169 169 169 169 169 169 169 169 169 169 169 169 169 169 169 169 169 169 168 165 116 54 26 45 102 153 168 169 169 169 169 169 169 169 169 169 169 169 169 169 169 169 169 169 169 169 169 169 169 169
169 169 169 169 169 169 169 169 169 169 169 169 169 169 169 169 169 169 169 169 169 169 169 169 169 169 169 169 169 169 169 169 168 149 90 19 5 31 100 151 168 169 169 169 169 169 169 169 169 169 169 169 169 169 169 169 169 169 169 169 169 169 169 169
169 169 169 169 169 169 169 169 169 169 169 169 169 169 169 169 169 169 169 169 169 169 169 169 169 169 169 169 169 169 169 169 168 134 67 13 1 25 105 158 168 169 169 169 169 169 169 169 169 169 169 169 168 169 169 169 169 169 169 169 169 169 169 169
169 169 169 169 169 169 169 169 169 169 169 169 169 169 169 169 169 169 169 169 169 169 169 169 169 169 169 169 169 169 169 168 165 126 47 8 1 36 108 163 168 169 169 169 169 169 169 169 169 169 169 169 167 166 167 168 168 169 169 169 169 169 169 169
169 169 169 169 169 169 169 169 169 169 169 169 169 169 169 169 169 169 169 169 169 169 169 169 169 169 169 169 169 169 169 168 153 106 33 0 1 47 118 161 169 169 169 169 169 169 169 169 169 169 169 169 163 156 155 157 166 169 169 169 169 169 169 169
169 169 169 169 169 169 169 169 169 169 169 169 169 169 169 169 169 169 169 169 169 169 169 169 169 169 169 169 169 169 169 168 147 86 26 0 9 55 133 163 169 169 169 169 169 169 169 169 169 169 168 164 150 125 111 130 154 165 168 169 169 169 169 169
169 169 169 169 169 169 169 169 169 169 169 169 169 169 169 169 169 169 169 169 169 169 169 169 169 169 169 169 169 169 169 166 147 70 14 0 20 75 141 168 168 169 169 169 169 169 169 169 169 169 168 153 116 74 55 78 131 161 167 169 169 169 169 169
169 169 169 169 169 169 169 169 169 169 169 169 169 169 169 169 169 169 169 169 169 169 169 169 169 169 169 169 169 169 169 165 134 62 3 0 24 94 149 168 169 169 169 169 169 169 169 169 169 168 168 144 84 34 12 47 111 159 167 169 169 169 169 169
169 169 169 169 169 169 169 169 169 169 169 169 169 169 169 169 169 169 169 169 169 169 169 169 169 169 169 169 169 169 169 167 126 53 5 2 27 110 160 168 169 169 169 169 169 169 169 169 169 169 164 135 61 9 3 35 100 153 168 169 169 169 169 169
169 169 169 169 169 169 169 169 169 169 169 169 169 169 169 169 169 169 169 169 169 169 169 169 169 169 169 169 169 169 168 163 120 39 5 2 41 114 165 169 169 169 169 169 169 169 169 169 169 169 164 121 49 1 1 30 108 155 168 169 169 169 169 169
169 169 169 169 169 169 169 169 169 169 169 169 169 169 169 169 169 169 169 169 169 169 169 169 169 169 169 169 169 169 168 153 104 32 0 1 52 124 163 169 169 169 169 169 169 169 169 169 169 168 165 110 35 2 5 41 119 167 168 169 169 169 169 169
169 169 169 169 169 169 169 169 169 169 169 169 169 169 169 169 169 169 169 169 169 169 169 169 169 169 169 169 169 169 169 151 88 25 0 11 61 139 165 169 169 169 169 169 169 169 169 169 169 168 155 101 19 1 4 57 128 167 169 169 169 169 169 169
169 169 169 169 169 169 169 169 169 169 169 169 169 169 169 169 169 169 169 169 169 169 169 169 169 169 169 169 169 169 167 149 74 13 0 19 77 143 168 169 169 169 169 169 169 169 169 169 169 168 145 84 19 0 5 70 142 166 169 169 169 169 169 169
169 169 169 169 169 169 169 169 169 169 169 169 169 169 169 169 169 169 169 169 169 169 169 169 169 169 169 169 169 169 166 136 66 5 0 21 93 150 168 169 169 169 169 169 169 169 169 169 168 168 139 67 15 0 21 82 153 167 169 169 169 169 169 169
169 169 169 169 169 169 169 169 169 169 169 169 169 169 169 169 169 169 169 169 169 169 169 169 169 169 169 169 169 169 167 129 56 7 2 27 105 161 168 169 169 169 169 169 169 169 169 169 169 161 128 52 4 0 31 96 152 168 169 169 169 169 169 169
169 169 169 169 169 169 169 169 169 169 169 169 169 169 169 169 169 169 169 169 169 169 169 169 169 169 169 169 169 168 162 126 43 6 1 39 110 163 169 169 169 169 169 169 169 169 169 169 169 159 110 41 1 3 35 114 157 168 169 169 169 169 169 169
169 169 169 169 169 169 169 169 169 169 169 169 169 169 169 169 169 169 169 169 169 169 169 169 169 169 169 169 169 169 157 111 39 0 1 47 121 161 169 169 169 169 169 169 169 169 169 169 168 160 93 25 1 9 53 127 168 168 169 169 169 169 169 169
169 169 169 169 169 169 169 169 169 169 169 169 169 169 169 169 169 169 169 169 169 169 169 169 169 169 169 169 169 169 158 96 30 0 9 55 135 164 168 169 169 169 169 169 169 169 169 169 167 145 78 5 0 12 74 138 168 169 169 169 169 169 169 169
169 169 169 169 169 169 169 169 169 169 169 169 169 169 169 169 169 169 169 169 169 169 169 169 169 169 169 169 169 167 153 82 13 0 14 70 137 168 169 169 169 169 169 169 169 169 169 169 167 132 63 7 1 15 93 154 168 169 169 169 169 169 169 169
169 169 169 169 169 169 169 169 169 169 169 169 169 169 169 169 169 169 169 169 169 169 169 169 169 169 169 169 169 167 135 65 4 0 13 88 148 168 169 169 169 169 169 169 169 169 169 168 166 128 49 7 1 33 106 164 168 169 169 169 169 169 169 169
169 169 169 169 169 169 169 169 169 169 169 169 169 169 169 169 169 169 169 169 169 169 169 169 168 169 168 169 168 168 120 45 4 1 27 104 165 168 169 169 169 169 169 169 169 169 169 169 160 120 42 1 1 45 118 162 169 169 169 169 169 169 169 169
169 169 169 169 169 169 169 169 169 169 169 169 169 169 169 169 169 169 169 169 169 169 169 168 167 165 168 168 168 159 112 27 3 2 48 120 166 169 169 169 169 169 169 169 169 169 169 169 161 110 39 1 6 47 129 163 169 169 169 169 169 169 169 169
169 169 169 169 169 169 169 169 169 169 169 169 169 169 169 169 169 169 169 169 169 169 168 164 155 149 147 157 168 153 98 27 0 1 61 135 165 169 169 169 169 169 169 169 169 169 169 168 163 106 31 3 9 57 131 167 168 169 169 169 169 169 169 169
169 169 169 169 169 169 169 169 169 169 169 169 169 169 169 169 169 169 169 169 169 169 168 151 122 97 99 133 159 153 88 23 0 15 70 147 167 169 169 169 169 169 169 169 169 169 169 168 153 99 23 0 7 64 133 166 169 169 169 169 169 169 169 169
169 169 169 169 169 169 169 169 169 169 169 169 169 169 169 169 169 169 169 169 169 168 164 134 72 41 43 82 130 143 77 9 0 19 82 145 168 169 169 169 169 169 169 169 169 169 169 168 147 86 23 0 9 69 143 165 169 169 169 169 169 169 169 169
169 169 169 169 169 169 169 169 169 169 169 169 169 169 169 169 169 169 169 169 169 168 155 107 40 2 5 44 93 104 57 5 0 15 94 151 168 169 169 169 169 169 169 169 169 169 169 167 150 72 16 0 21 80 147 168 169 169 169 169 169 169 169 169
169 169 169 169 169 169 169 169 169 169 169 169 169 169 169 169 169 169 169 169 169 169 156 101 34 0 1 15 42 57 31 5 1 28 104 165 168 169 169 169 169 169 169 169 169 169 169 166 136 63 2 0 24 94 150 168 169 169 169 169 169 169 169 169
169 169 169 169 169 169 169 169 169 169 169 169 169 169 169 169 169 169 169 169 169 168 162 116 40 4 0 0 11 19 5 0 0 36 104 161 168 168 169 169 169 169 169 169 169 169 169 167 122 48 2 1 22 106 159 168 169 169 169 169 169 169 169 169
169 169 169 169 169 169 169 169 169 169 169 169 169 169 169 169 169 169 169 169 169 169 163 137 80 31 7 0 0 0 0 0 0 26 90 133 153 167 168 168 169 169 169 169 169 169 168 165 112 30 2 1 33 109 165 168 169 169 169 169 169 169 169 169
169 169 169 169 169 169 169 169 169 169 169 169 169 169 169 169 169 169 169 169 169 169 167 160 123 76 41 23 6 0 0 0 0 10 44 85 118 139 153 168 168 168 169 169 169 169 169 157 104 21 0 0 35 113 162 169 169 169 169 169 169 169 169 169
169 169 169 169 169 169 169 169 169 169 169 169 169 169 169 169 169 169 169 169 169 169 169 165 153 135 99 64 31 7 0 0 0 0 14 33 55 87 120 139 154 168 168 168 169 169 169 157 95 25 0 3 31 122 162 169 169 169 169 169 169 169 169 169
169 169 169 169 169 169 169 169 169 169 169 169 169 169 169 169 169 169 169 169 169 169 169 168 168 159 144 126 68 17 0 0 0 0 0 1 17 33 56 88 120 140 155 168 168 169 168 161 90 19 0 6 49 126 167 168 169 169 169 169 169 169 169 169
169 169 169 169 169 169 169 169 169 169 169 169 169 169 169 169 169 169 169 169 169 169 169 169 168 168 167 155 85 19 0 0 7 13 5 1 1 1 18 34 57 90 122 144 160 169 168 145 80 8 0 6 68 137 167 169 169 169 169 169 169 169 169 169
169 169 169 169 169 169 169 169 169 169 169 169 169 169 169 169 169 169 169 169 169 169 169 169 169 169 168 146 81 7 0 3 35 49 37 21 4 1 1 2 19 35 62 100 140 159 165 128 59 9 0 15 88 153 167 169 169 169 169 169 169 169 169 169
169 169 169 169 169 169 169 169 169 169 169 169 169 169 169 169 169 169 169 169 169 169 169 169 169 169 168 133 63 9 0 12 74 116 94 61 36 20 3 1 1 3 21 47 84 124 151 108 33 5 1 37 105 161 169 169 169 169 169 169 169 169 169 169
169 169 169 169 169 169 169 169 169 169 169 169 169 169 169 169 169 169 169 169 169 169 169 169 169 168 165 129 49 7 1 33 104 151 141 125 92 60 35 19 3 0 0 6 34 70 91 67 15 0 3 58 126 162 169 169 169 169 169 169 169 169 169 169
169 169 169 169 169 169 169 169 169 169 169 169 169 169 169 169 169 169 169 169 169 169 169 169 169 169 161 119 42 0 1 45 118 161 168 155 141 124 91 59 34 17 1 0 2 13 37 28 7 0 17 80 148 165 169 169 169 169 169 169 169 169 169 169
169 169 169 169 169 169 169 169 169 169 169 169 169 169 169 169 169 169 169 169 169 169 169 169 169 169 161 107 37 1 6 48 131 163 168 168 168 155 141 122 88 51 22 7 0 1 5 2 1 1 40 104 156 169 169 169 169 169 169 169 169 169 169 169
169 169 169 169 169 169 169 169 169 169 169 169 169 169 169 169 169 169 169 169 169 169 169 169 169 168 161 97 23 1 9 61 133 168 168 169 168 168 168 154 138 114 71 30 5 0 0 0 0 2 61 129 161 169 169 169 169 169 169 169 169 169 169 169
169 169 169 169 169 169 169 169 169 169 169 169 169 169 169 169 169 169 169 169 169 169 169 169 169 168 147 86 13 0 7 74 140 167 169 169 169 169 168 168 168 150 125 90 41 6 0 0 0 22 83 151 167 169 169 169 169 169 169 169 169 169 169 169
169 169 169 169 169 169 169 169 169 169 169 169 169 169 169 169 169 169 169 169 169 169 169 169 169 168 141 73 15 0 15 85 154 167 169 169 169 169 169 169 168 168 167 136 87 32 9 1 3 45 106 155 169 169 169 169 169 169 169 169 169 169 169 169
169 169 169 169 169 169 169 169 169 169 169 169 169 169 169 169 169 169 169 169 169 169 169 169 169 165 141 60 11 0 29 96 157 169 169 169 169 169 169 169 169 169 168 163 142 87 42 24 33 78 133 161 169 169 169 169 169 169 169 169 169 169 169 169
169 169 169 169 169 169 169 169 169 169 169 169 169 169 169 169 169 169 169 169 169 169 169 169 169 162 124 51 1 0 33 107 156 169 169 169 169 169 169 169 169 169 169 169 159 134 112 90 92 123 153 168 168 169 169 169 169 169 169 169 169 169 169 169
169 169 169 169 169 169 169 169 169 169 169 169 169 169 169 169 169 169 169 169 169 169 169 169 169 161 108 38 1 5 39 122 162 168 169 169 169 169 169 169 169 169 169 169 168 167 153 144 147 153 163 168 169 169 169 169 169 169 169 169 169 169 169 169
169 169 169 169 169 169 169 169 169 169 169 169 169 169 169 169 169 169 169 169 169 169 169 169 167 157 93 19 1 9 58 129 168 169 169 169 169 169 169 169 169 169 169 169 169 168 168 168 165 166 168 169 169 169 169 169 169 169 169 169 169 169 169 169
169 169 169 169 169 169 169 169 169 169 169 169 169 169 169 169 169 169 169 169 169 169 169 169 167 143 78 10 0 8 77 143 167 169 169 169 169 169 169 169 169 169 169 169 169 169 169 168 169 169 169 169 169 169 169 169 169 169 169 169 169 169 169 169
169 169 169 169 169 169 169 169 169 169 169 169 169 169 169 169 169 169 169 169 169 169 169 168 168 137 65 11 0 19 92 159 168 169 169 169 169 169 169 169 169 169 169 169 169 169 169 169 169 169 169 169 169 169 169 169 169 169 169 169 169 169 169 169
169 169 169 169 169 169 169 169 169 169 169 169 169 169 169 169 169 169 169 169 169 169 169 169 165 135 54 8 1 33 102 159 169 169 169 169 169 169 169 169 169 169 169 169 169 169 169 169 169 169 169 169 169 169 169 169 169 169 169 169 169 169 169 169
169 169 169 169 169 169 169 169 169 169 169 169 169 169 169 169 169 169 169 169 169 169 169 169 163 123 51 1 0 37 114 159 169 169 169 169 169 169 169 169 169 169 169 169 169 169 169 169 169 169 169 169 169 169 169 169 169 169 169 169 169 169 169 169
169 169 169 169 169 169 169 169 169 169 169 169 169 169 169 169 169 169 169 169 169 169 169 169 164 112 41 3 5 42 123 163 168 169 169 169 169 169 169 169 169 169 169 169 169 169 169 169 169 169 169 169 169 169 169 169 169 169 169 169 169 169 169 169
169 169 169 169 169 169 169 169 169 169 169 169 169 169 169 169 169 169 169 169 169 169 169 168 157 95 20 2 6 55 126 166 169 169 169 169 169 169 169 169 169 169 169 169 169 169 169 169 169 169 169 169 169 169 169 169 169 169 169 169 169 169 169 169
169 169 169 169 169 169 169 169 169 169 169 169 169 169 169 169 169 169 169 169 169 169 169 168 139 73 9 0 5 72 139 166 169 169 169 169 169 169 169 169 169 169 169 169 169 169 169 169 169 169 169 169 169 169 169 169 169 169 169 169 169 169 169 169
169 169 169 169 169 169 169 169 169 169 169 169 169 169 169 169 169 169 169 169 169 169 168 168 128 55 8 1 23 92 159 167 169 169 169 169 169 169 169 169 169 169 169 169 169 169 169 169 169 169 169 169 169 169 169 169 169 169 169 169 169 169 169 169
169 169 169 169 169 169 169 169 169 169 169 169 169 169 169 169 169 169 169 169 169 169 169 162 125 43 6 6 49 114 161 169 169 169 169 169 169 169 169 169 169 169 169 169 169 169 169 169 169 169 169 169 169 169 169 169 169 169 169 169 169 169 169 169
169 169 169 169 169 169 169 169 169 169 169 169 169 169 169 169 169 169 169 169 169 169 169 162 130 68 23 20 82 139 164 169 169 169 169 169 169 169 169 169 169 169 169 169 169 169 169 169 169 169 169 169 169 169 169 169 169 169 169 169 169 169 169 169
169 169 169 169 169 169 169 169 169 169 169 169 169 169 169 169 169 169 169 169 169 169 168 166 149 104 70 81 120 158 168 169 169 169 169 169 169 169 169 169 169 169 169 169 169 169 169 169 169 169 169 169 169 169 169 169 169 169 169 169 169 169 169 169
169 169 169 169 169 169 169 169 169 169 169 169 169 169 169 169 169 169 169 169 169 169 169 169 161 143 132 133 151 165 169 169 169 169 169 169 169 169 169 169 169 169 169 169 169 169 169 169 169 169 169 169 169 169 169 169 169 169 169 169 169 169 169 169
