P2
64 64
255
255 255 255 255 255 255 255 255 255 255 255 255 255 255 255 255 255 255 255 255 255 255 255 255 255 255 255 255 255 255 255 255 255 255 255 255 255 255 255 255 255 255 255 255 255 255 255 255 255 255 255 255 255 255 255 255 255 255 255 255 255 255 255 255
255 255 255 255 255 255 255 255 255 255 255 255 255 255 255 255 255 255 255 255 255 255 255 255 255 255 255 255 255 255 255 255 255 255 255 255 255 255 255 255 255 255 255 255 255 255 255 255 255 255 255 255 255 255 255 255 255 255 255 255 255 255 255 255
255 255 255 255 255 255 255 255 255 255 255 255 255 255 255 255 255 255 255 255 255 255 255 255 255 255 255 255 255 255 255 255 255 255 255 255 255 255 255 255 255 255 255 255 255 255 255 255 255 255 255 255 255 255 255 255 255 255 255 255 255 255 255 255
255 255 255 255 255 255 255 255 255 255 255 255 255 255 255 255 255 255 255 255 255 255 255 255 255 255 255 255 255 255 255 255 255 255 255 255 255 255 255 255 255 255 255 255 255 255 255 255 255 255 255 255 255 255 255 255 255 255 255 255 255 255 255 255
255 255 255 255 255 255 255 255 255 255 255 255 255 255 255 255 255 255 255 255 255 255 255 255 255 255 255 255 255 255 255 255 255 255 255 255 255 255 255 255 255 255 255 255 255 255 255 255 255 255 255 255 255 255 255 255 255 255 255 255 255 255 255 255
255 255 255 255 255 255 255 255 255 255 255 255 255 255 255 255 255 255 255 255 255 255 255 255 255 255 255 255 255 255 255 255 255 255 255 255 255 255 255 255 255 255 255 255 255 255 255 255 255 255 255 255 255 255 255 255 255 255 255 255 255 255 255 255
255 255 255 255 255 255 255 255 255 255 255 255 255 255 255 255 255 255 255 255 255 255 255 255 255 255 255 255 255 255 255 255 255 255 255 255 255 255 255 255 255 255 255 255 255 255 255 255 255 255 255 255 255 255 255 255 255 255 255 255 255 255 255 255
255 255 255 255 255 255 255 255 255 255 255 255 255 255 255 255 255 255 255 255 255 255 255 255 255 255 255 255 255 255 255 255 255 255 255 255 255 255 255 255 255 255 255 255 255 255 255 255 255 255 255 255 255 255 255 255 255 255 255 255 255 255 255 255
255 255 255 255 255 255 255 255 255 255 255 255 255 255 255 255 255 255 255 255 255 255 255 255 255 255 255 255 255 255 255 255 255 255 255 255 255 255 255 255 255 255 255 255 255 255 255 255 255 255 255 255 255 255 255 255 255 255 255 255 255 255 255 255
255 255 255 255 255 255 255 255 255 255 255 255 255 255 255 255 255 255 255 255 255 255 255 255 255 255 255 255 255 255 255 255 255 255 255 255 255 255 255 255 255 255 255 255 255 255 255 255 255 255 255 255 255 255 255 255 255 255 255 255 255 255 255 255
255 255 255 255 255 255 255 255 255 255 255 255 255 255 255 255 255 255 255 255 255 255 255 255 255 255 255 255 255 255 248 235 227 214 220 234 251 255 255 255 255 255 255 255 255 255 255 255 255 255 255 255 255 255 255 255 255 255 255 255 255 255 255 255
255 255 255 255 255 255 255 255 255 255 255 255 255 255 255 255 255 255 255 255 255 255 255 255 255 255 255 255 238 210 184 149 113 112 131 155 177 194 214 235 255 255 255 255 255 255 255 255 255 255 255 255 255 255 255 255 255 255 255 255 255 255 255 255
255 255 255 255 255 255 255 255 255 255 255 255 255 255 255 255 255 255 255 255 255 255 255 255 255 255 255 237 174 115 62 40 31 28 32 41 67 94 126 164 203 231 252 255 255 255 255 255 255 255 255 255 255 255 255 255 255 255 255 255 255 255 255 255
255 255 255 255 255 255 255 255 255 255 255 255 255 255 255 255 255 255 255 255 255 255 255 255 255 255 246 186 80 20 9 4 0 0 0 7 14 20 31 57 104 156 210 252 255 255 255 255 255 255 255 255 255 255 255 255 255 255 255 255 255 255 255 255
255 255 255 255 255 255 255 255 255 255 255 255 255 255 255 255 255 255 255 255 255 255 255 255 255 241 194 111 16 1 0 0 2 0 0 1 1 0 1 13 34 71 131 203 248 255 255 255 255 255 255 255 255 255 255 255 255 255 255 255 255 255 255 255
255 255 255 255 255 255 255 255 255 255 255 255 255 255 255 255 255 255 255 255 255 255 255 255 241 186 117 48 6 0 2 11 15 32 43 40 24 4 3 1 2 8 45 124 204 252 255 255 255 255 255 255 255 255 255 255 255 255 255 255 255 255 255 255
255 255 255 255 255 255 255 255 255 255 255 255 255 255 255 255 255 255 255 255 255 255 255 247 193 104 37 9 7 20 38 66 116 134 135 128 110 85 55 28 8 0 12 60 142 225 255 255 255 255 255 255 255 255 255 255 255 255 255 255 255 255 255 255
255 255 255 255 255 255 255 255 255 255 255 255 255 255 255 255 255 255 255 255 255 255 247 200 118 31 5 3 32 79 137 189 216 226 231 233 211 180 140 92 38 6 1 14 66 160 235 255 255 255 255 255 255 255 255 255 255 255 255 255 255 255 255 255
255 255 255 255 255 255 255 255 255 255 255 255 255 255 255 255 255 255 255 255 255 255 213 134 52 6 3 17 86 173 226 248 255 255 255 255 253 243 226 193 122 45 4 0 8 94 197 253 255 255 255 255 255 255 255 255 255 255 255 255 255 255 255 255
255 255 255 255 255 255 255 255 255 255 255 255 255 255 255 255 255 255 255 255 255 242 160 69 17 2 19 68 160 235 255 255 255 255 255 255 255 255 255 247 188 94 16 0 1 49 162 240 255 255 255 255 255 255 255 255 255 255 255 255 255 255 255 255
255 255 255 255 255 255 255 255 255 255 255 255 255 255 255 255 255 255 255 255 247 197 96 20 4 10 58 139 222 255 255 255 255 255 255 255 255 255 255 255 233 144 41 2 2 22 126 227 255 255 255 255 255 255 255 255 255 255 255 255 255 255 255 255
255 255 255 255 255 255 255 255 255 255 255 255 255 255 255 255 255 255 255 253 208 130 43 2 1 34 116 202 251 255 255 255 255 255 255 255 255 255 255 255 255 204 95 22 2 16 87 208 254 255 255 255 255 255 255 255 255 255 255 255 255 255 255 255
255 255 255 255 255 255 255 255 255 255 255 255 255 255 255 255 255 255 255 222 140 57 10 2 15 77 182 240 255 255 255 255 255 255 255 255 255 255 255 255 255 245 147 47 6 8 66 177 251 255 255 255 255 255 255 255 255 255 255 255 255 255 255 255
255 255 255 255 255 255 255 255 255 255 255 255 255 255 255 255 255 255 240 156 53 14 1 9 53 144 233 255 255 255 255 255 255 255 255 255 255 255 255 255 255 252 187 65 10 3 56 157 242 255 255 255 255 255 255 255 255 255 255 255 255 255 255 255
255 255 255 255 255 255 255 255 255 255 255 255 255 255 255 255 255 246 185 72 6 1 0 28 111 201 255 255 255 255 255 255 255 255 255 255 255 255 255 255 255 254 201 84 6 1 42 145 234 255 255 255 255 255 255 255 255 255 255 255 255 255 255 255
255 255 255 255 255 255 255 255 255 255 255 255 255 255 255 255 255 218 119 29 0 0 0 51 167 237 255 255 255 255 255 255 255 255 255 255 255 255 255 255 255 255 209 104 14 1 24 129 225 255 255 255 255 255 255 255 255 255 255 255 255 255 255 255
255 255 255 255 255 255 255 255 255 255 255 255 255 255 255 255 255 180 68 10 0 1 16 95 220 255 255 255 255 255 255 255 255 255 255 255 255 255 255 255 255 255 213 112 24 2 16 117 223 255 255 255 255 255 255 255 255 255 255 255 255 255 255 255
255 255 255 255 255 255 255 255 255 255 255 255 255 255 255 255 240 146 34 4 0 9 62 164 252 255 255 255 255 255 255 255 255 255 255 255 255 255 255 255 255 255 215 110 28 1 25 112 226 255 255 255 255 255 255 255 255 255 255 255 255 255 255 255
255 255 255 255 255 255 255 255 255 255 255 255 255 255 255 255 210 110 10 0 1 47 135 219 255 255 255 255 255 255 255 255 255 255 255 255 255 255 255 255 255 255 219 101 22 1 32 117 220 255 255 255 255 255 255 255 255 255 255 255 255 255 255 255
255 255 255 255 255 255 255 255 255 255 255 255 255 255 255 249 180 78 5 1 13 103 202 251 255 255 255 255 255 255 255 255 255 255 255 255 255 255 255 255 255 254 206 93 10 0 33 126 222 255 255 255 255 255 255 255 255 255 255 255 255 255 255 255
255 255 255 255 255 255 255 255 255 255 255 255 255 255 255 242 153 53 3 8 47 156 247 255 255 255 255 255 255 255 255 255 255 255 255 255 255 255 255 255 255 252 193 85 4 0 31 139 230 255 255 255 255 255 255 255 255 255 255 255 255 255 255 255
255 255 255 255 255 255 255 255 255 255 255 255 255 255 255 236 128 31 1 14 79 187 255 255 255 255 255 255 255 255 255 255 255 255 255 255 255 255 255 255 255 252 178 73 4 4 37 156 242 255 255 255 255 255 255 255 255 255 255 255 255 255 255 255
255 255 255 255 255 255 255 255 255 255 255 255 255 255 255 212 105 10 0 20 107 209 255 255 255 255 255 255 255 255 255 255 255 255 255 255 255 255 255 255 255 255 170 61 6 7 53 166 255 255 255 255 255 255 255 255 255 255 255 255 255 255 255 255
255 255 255 255 255 255 255 255 255 255 255 255 255 255 250 188 84 4 0 26 133 227 255 255 255 255 255 255 255 255 255 255 255 255 255 255 255 255 255 255 255 252 161 46 6 5 66 173 254 255 255 255 255 255 255 255 255 255 255 255 255 255 255 255
255 255 255 255 255 255 255 255 255 255 255 255 255 255 246 165 63 3 6 41 160 246 255 255 255 255 255 255 255 255 255 255 255 255 255 255 255 255 255 255 255 236 146 28 3 5 79 184 252 255 255 255 255 255 255 255 255 255 255 255 255 255 255 255
255 255 255 255 255 255 255 255 255 255 255 255 255 255 241 143 43 2 11 67 180 255 255 255 255 255 255 255 255 255 255 255 255 255 255 255 255 255 255 255 255 219 122 23 0 5 96 201 253 255 255 255 255 255 255 255 255 255 255 255 255 255 255 255
255 255 255 255 255 255 255 255 255 255 255 255 255 255 232 127 24 1 16 91 197 255 255 255 255 255 255 255 255 255 255 255 255 255 255 255 255 255 255 255 255 200 95 17 1 20 116 224 255 255 255 255 255 255 255 255 255 255 255 255 255 255 255 255
255 255 255 255 255 255 255 255 255 255 255 255 255 255 221 121 13 0 17 107 209 255 255 255 255 255 255 255 255 255 255 255 255 255 255 255 255 255 255 255 255 178 64 10 2 43 142 240 255 255 255 255 255 255 255 255 255 255 255 255 255 255 255 255
255 255 255 255 255 255 255 255 255 255 255 255 255 255 218 120 22 0 11 112 218 255 255 255 255 255 255 255 255 255 255 255 255 255 255 255 255 255 255 255 242 146 30 4 4 67 170 248 255 255 255 255 255 255 255 255 255 255 255 255 255 255 255 255
255 255 255 255 255 255 255 255 255 255 255 255 255 255 224 124 33 1 18 103 221 255 255 255 255 255 255 255 255 255 255 255 255 255 255 255 255 255 255 255 213 111 9 0 6 97 201 255 255 255 255 255 255 255 255 255 255 255 255 255 255 255 255 255
255 255 255 255 255 255 255 255 255 255 255 255 255 255 236 129 35 2 20 96 213 255 255 255 255 255 255 255 255 255 255 255 255 255 255 255 255 255 255 251 180 77 5 2 16 131 231 255 255 255 255 255 255 255 255 255 255 255 255 255 255 255 255 255
255 255 255 255 255 255 255 255 255 255 255 255 255 255 241 131 26 1 12 86 197 255 255 255 255 255 255 255 255 255 255 255 255 255 255 255 255 255 255 237 144 47 3 8 51 166 255 255 255 255 255 255 255 255 255 255 255 255 255 255 255 255 255 255
255 255 255 255 255 255 255 255 255 255 255 255 255 255 233 135 14 1 3 69 179 254 255 255 255 255 255 255 255 255 255 255 255 255 255 255 255 255 254 212 103 21 1 17 89 195 255 255 255 255 255 255 255 255 255 255 255 255 255 255 255 255 255 255
255 255 255 255 255 255 255 255 255 255 255 255 255 255 233 143 29 0 0 45 161 243 255 255 255 255 255 255 255 255 255 255 255 255 255 255 255 255 239 172 67 2 0 34 126 219 255 255 255 255 255 255 255 255 255 255 255 255 255 255 255 255 255 255
255 255 255 255 255 255 255 255 255 255 255 255 255 255 245 164 56 2 1 20 134 230 255 255 255 255 255 255 255 255 255 255 255 255 255 255 255 255 216 129 40 1 5 59 168 239 255 255 255 255 255 255 255 255 255 255 255 255 255 255 255 255 255 255
255 255 255 255 255 255 255 255 255 255 255 255 255 255 255 203 97 20 1 17 101 216 255 255 255 255 255 255 255 255 255 255 255 255 255 255 255 255 181 80 18 1 23 97 209 255 255 255 255 255 255 255 255 255 255 255 255 255 255 255 255 255 255 255
255 255 255 255 255 255 255 255 255 255 255 255 255 255 255 236 143 45 4 10 64 169 248 255 255 255 255 255 255 255 255 255 255 255 255 255 255 230 129 35 5 4 51 144 233 255 255 255 255 255 255 255 255 255 255 255 255 255 255 255 255 255 255 255
255 255 255 255 255 255 255 255 255 255 255 255 255 255 255 252 192 73 12 3 30 106 211 255 255 255 255 255 255 255 255 255 255 255 255 255 242 182 82 5 1 13 93 189 251 255 255 255 255 255 255 255 255 255 255 255 255 255 255 255 255 255 255 255
255 255 255 255 255 255 255 255 255 255 255 255 255 255 255 255 219 102 13 0 4 44 143 230 255 255 255 255 255 255 255 255 255 255 255 255 215 130 45 2 5 41 148 229 255 255 255 255 255 255 255 255 255 255 255 255 255 255 255 255 255 255 255 255
255 255 255 255 255 255 255 255 255 255 255 255 255 255 255 255 235 145 33 1 0 12 84 184 249 255 255 255 255 255 255 255 255 255 255 246 168 77 20 1 21 89 198 255 255 255 255 255 255 255 255 255 255 255 255 255 255 255 255 255 255 255 255 255
255 255 255 255 255 255 255 255 255 255 255 255 255 255 255 255 250 187 84 8 0 1 36 128 222 255 255 255 255 255 255 255 255 255 250 205 109 30 6 6 53 141 227 255 255 255 255 255 255 255 255 255 255 255 255 255 255 255 255 255 255 255 255 255
255 255 255 255 255 255 255 255 255 255 255 255 255 255 255 255 255 232 151 50 4 0 4 57 142 205 238 255 255 255 255 255 255 255 218 144 57 3 1 26 104 191 248 255 255 255 255 255 255 255 255 255 255 255 255 255 255 255 255 255 255 255 255 255
255 255 255 255 255 255 255 255 255 255 255 255 255 255 255 255 255 255 219 121 40 6 0 11 59 119 178 223 240 245 247 251 255 223 155 79 21 1 11 65 165 232 255 255 255 255 255 255 255 255 255 255 255 255 255 255 255 255 255 255 255 255 255 255
255 255 255 255 255 255 255 255 255 255 255 255 255 255 255 255 255 255 248 184 97 25 1 2 12 36 77 121 153 174 189 197 180 139 77 26 3 10 48 126 219 255 255 255 255 255 255 255 255 255 255 255 255 255 255 255 255 255 255 255 255 255 255 255
255 255 255 255 255 255 255 255 255 255 255 255 255 255 255 255 255 255 255 237 175 82 19 0 0 0 11 38 61 76 80 84 77 53 19 4 6 44 111 187 248 255 255 255 255 255 255 255 255 255 255 255 255 255 255 255 255 255 255 255 255 255 255 255
255 255 255 255 255 255 255 255 255 255 255 255 255 255 255 255 255 255 255 255 243 162 71 21 4 0 0 2 3 3 13 20 16 9 6 14 46 112 184 237 255 255 255 255 255 255 255 255 255 255 255 255 255 255 255 255 255 255 255 255 255 255 255 255
255 255 255 255 255 255 255 255 255 255 255 255 255 255 255 255 255 255 255 255 255 222 146 77 39 26 17 9 2 0 1 1 3 10 35 77 131 197 245 255 255 255 255 255 255 255 255 255 255 255 255 255 255 255 255 255 255 255 255 255 255 255 255 255
255 255 255 255 255 255 255 255 255 255 255 255 255 255 255 255 255 255 255 255 255 255 229 185 145 110 77 47 31 30 30 25 24 62 117 168 215 250 255 255 255 255 255 255 255 255 255 255 255 255 255 255 255 255 255 255 255 255 255 255 255 255 255 255
255 255 255 255 255 255 255 255 255 255 255 255 255 255 255 255 255 255 255 255 255 255 255 245 226 204 182 158 133 116 106 106 125 165 206 238 255 255 255 255 255 255 255 255 255 255 255 255 255 255 255 255 255 255 255 255 255 255 255 255 255 255 255 255
255 255 255 255 255 255 255 255 255 255 255 255 255 255 255 255 255 255 255 255 255 255 255 255 255 255 255 237 221 211 211 213 218 237 255 255 255 255 255 255 255 255 255 255 255 255 255 255 255 255 255 255 255 255 255 255 255 255 255 255 255 255 255 255
255 255 255 255 255 255 255 255 255 255 255 255 255 255 255 255 255 255 255 255 255 255 255 255 255 255 255 255 255 255 255 254 255 255 255 255 255 255 255 255 255 255 255 255 255 255 255 255 255 255 255 255 255 255 255 255 255 255 255 255 255 255 255 255
255 255 255 255 255 255 255 255 255 255 255 255 255 255 255 255 255 255 255 255 255 255 255 255 255 255 255 255 255 255 255 255 255 255 255 255 255 255 255 255 255 255 255 255 255 255 255 255 255 255 255 255 255 255 255 255 255 255 255 255 255 255 255 255
255 255 255 255 255 255 255 255 255 255 255 255 255 255 255 255 255 255 255 255 255 255 255 255 255 255 255 255 255 255 255 255 255 255 255 255 255 255 255 255 255 255 255 255 255 255 255 255 255 255 255 255 255 255 255 255 255 255 255 255 255 255 255 255
255 255 255 255 255 255 255 255 255 255 255 255 255 255 255 255 255 255 255 255 255 255 255 255 255 255 255 255 255 255 255 255 255 255 255 255 255 255 255 255 255 255 255 255 255 255 255 255 255 255 255 255 255 255 255 255 255 255 255 255 255 255 255 255
