P2
64 64
255
193 193 193 193 193 193 193 193 193 193 193 193 193 193 193 193 193 193 193 193 193 193 193 193 193 193 193 193 193 193 193 193 193 193 193 193 193 193 193 193 193 193 193 193 193 193 193 193 193 193 193 193 193 193 193 193 193 193 193 193 193 193 193 193
193 193 193 193 193 193 193 193 193 193 193 193 193 193 193 193 193 193 193 193 193 193 193 193 193 193 193 193 193 193 193 193 193 193 193 193 193 193 193 193 193 193 193 193 193 193 193 193 193 193 193 193 193 193 193 193 193 193 193 193 193 193 193 193
193 193 193 193 193 193 193 193 193 193 193 193 193 193 193 193 193 193 193 193 193 193 193 193 193 193 193 193 193 193 193 193 193 193 193 193 193 193 193 193 193 193 193 193 193 193 193 193 193 193 193 193 193 193 193 193 193 193 193 193 193 193 193 193
193 193 193 193 193 193 193 193 193 193 193 193 193 193 193 193 193 193 193 193 193 193 193 193 193 193 193 193 193 193 193 193 193 193 193 193 193 193 193 193 193 193 193 193 193 193 193 193 193 193 193 193 193 193 193 193 193 193 193 193 193 193 193 193
193 193 193 193 193 193 193 193 193 193 193 193 193 193 193 193 193 193 193 193 193 193 193 193 193 193 193 193 193 193 193 193 193 193 193 193 193 193 193 193 193 193 193 193 193 193 193 193 193 193 193 193 193 193 193 193 193 193 193 193 193 193 193 193
193 193 193 193 193 193 193 193 193 193 193 193 193 193 193 193 193 193 193 193 193 193 193 193 193 193 193 193 193 193 193 193 193 193 193 193 193 193 193 193 193 193 193 193 193 193 193 193 193 193 193 193 193 193 193 193 193 193 193 193 193 193 193 193
193 193 193 193 193 193 193 193 193 193 193 193 193 193 193 193 193 193 193 193 193 193 193 193 193 193 193 193 193 193 193 193 193 193 193 193 193 193 193 193 193 193 193 193 193 193 193 193 193 193 193 193 193 193 193 193 193 193 193 193 193 193 193 193
193 193 193 193 193 193 193 193 193 193 193 193 193 193 193 193 193 193 193 193 193 193 193 193 193 193 193 193 193 193 193 193 193 193 193 193 193 193 193 193 193 193 193 193 193 193 193 193 193 193 193 193 193 193 193 193 193 193 193 193 193 193 193 193
193 193 193 193 193 193 193 193 193 193 193 193 193 193 193 193 193 193 193 193 193 193 193 193 193 193 193 193 193 193 193 193 193 193 193 193 193 193 193 193 193 193 193 193 193 193 193 193 193 193 193 193 193 193 193 193 193 193 193 193 193 193 193 193
193 193 193 193 193 193 193 193 193 193 193 193 193 193 193 193 193 193 193 193 193 193 193 193 193 193 193 193 193 193 193 193 193 193 193 193 193 193 193 193 193 193 193 193 193 193 193 193 193 193 193 193 193 193 193 193 193 193 193 193 193 193 193 193
193 193 193 193 193 193 193 193 193 193 193 193 193 193 193 193 193 193 193 193 193 192 193 191 193 191 192 192 193 193 193 193 193 193 193 193 193 193 193 193 193 193 193 193 193 193 193 193 193 193 193 193 193 193 193 193 193 193 193 193 193 193 193 193
193 193 193 193 193 193 193 193 193 193 193 193 193 193 193 193 193 193 193 192 191 172 172 165 164 162 170 181 189 190 192 193 193 193 193 193 193 193 193 193 193 193 193 193 193 193 193 193 193 193 193 193 193 193 193 193 193 193 193 193 193 193 193 193
193 193 193 193 193 193 193 193 193 193 193 193 193 193 193 193 193 192 191 164 127 94 75 73 64 66 76 102 125 156 180 188 192 193 193 193 193 193 193 193 193 193 193 193 193 193 193 193 193 193 193 193 193 193 193 193 193 193 193 193 193 193 193 193
193 193 193 193 193 193 193 193 193 193 193 193 193 193 193 193 192 179 148 94 37 12 8 4 6 3 8 8 28 58 99 145 183 191 192 193 193 193 193 193 193 193 193 193 193 193 193 193 193 193 193 193 193 193 193 193 193 193 193 193 193 193 193 193
193 193 193 193 193 193 193 193 193 193 193 193 193 193 193 191 182 138 73 24 4 0 0 3 4 0 0 0 1 3 11 60 116 162 189 192 193 193 193 193 193 193 193 193 193 193 193 193 193 193 193 193 193 193 193 193 193 193 193 193 193 193 193 193
193 193 193 193 193 193 193 193 193 193 193 193 193 193 193 178 131 68 20 0 0 3 16 37 59 46 26 0 3 0 0 9 29 92 146 180 192 192 193 193 193 193 193 193 193 193 193 193 193 193 193 193 193 193 193 193 193 193 193 193 193 193 193 193
193 193 193 193 193 193 193 193 193 193 193 193 193 191 184 139 62 10 0 2 17 33 84 136 156 153 119 89 55 20 7 0 3 24 72 132 167 186 192 193 193 193 193 193 193 193 193 193 193 193 193 193 193 193 193 193 193 193 193 193 193 193 193 193
193 193 193 193 193 193 193 193 193 193 193 193 193 184 141 72 18 0 0 15 75 135 160 188 191 190 186 181 152 114 65 15 3 1 19 51 100 151 178 192 193 193 193 193 193 193 193 193 193 193 193 193 193 193 193 193 193 193 193 193 193 193 193 193
193 193 193 193 193 193 193 193 193 193 193 192 187 158 84 15 1 0 16 61 138 185 192 192 193 193 193 192 190 185 141 84 35 3 0 5 25 60 118 184 191 193 193 193 193 193 193 193 193 193 193 193 193 193 193 193 193 193 193 193 193 193 193 193
193 193 193 193 193 193 193 193 193 193 193 190 157 96 33 0 1 12 67 137 178 192 193 193 193 193 193 193 193 192 184 160 103 53 16 0 0 3 40 111 190 192 193 193 193 193 193 193 193 193 193 193 193 193 193 193 193 193 193 193 193 193 193 193
193 193 193 193 193 193 193 193 193 193 191 175 108 29 4 0 26 81 141 181 192 193 193 193 193 193 193 193 193 193 193 186 169 128 50 9 0 0 1 56 149 191 193 193 193 193 193 193 193 193 193 193 193 193 193 193 193 193 193 193 193 193 193 193
193 193 193 193 193 193 193 193 193 192 182 138 58 6 1 12 74 149 185 192 193 193 193 193 193 193 193 193 193 193 193 193 191 169 109 13 0 0 0 25 106 181 192 193 193 193 193 193 193 193 193 193 193 193 193 193 193 193 193 193 193 193 193 193
193 193 193 193 193 193 193 193 193 191 166 100 26 0 14 63 134 181 192 193 193 193 193 193 193 193 193 193 193 193 193 193 192 192 153 67 6 0 0 3 64 142 192 192 193 193 193 193 193 193 193 193 193 193 193 193 193 193 193 193 193 193 193 193
193 193 193 193 193 193 193 193 193 190 160 77 18 8 40 122 179 191 193 193 193 193 193 193 193 193 193 193 193 193 193 193 193 192 178 112 23 0 0 2 15 98 162 192 193 193 193 193 193 193 193 193 193 193 193 193 193 193 193 193 193 193 193 193
193 193 193 193 193 193 193 193 192 188 145 65 13 19 73 147 191 193 193 193 193 193 193 193 193 193 193 193 193 193 193 193 193 192 182 125 40 0 0 0 8 43 123 179 192 193 193 193 193 193 193 193 193 193 193 193 193 193 193 193 193 193 193 193
193 193 193 193 193 193 193 193 191 183 135 49 6 15 70 155 188 193 193 193 193 193 193 193 193 193 193 193 193 193 193 193 193 192 184 132 45 3 0 0 0 15 69 141 192 192 193 193 193 193 193 193 193 193 193 193 193 193 193 193 193 193 193 193
193 193 193 193 193 193 193 193 192 180 129 46 2 7 61 139 190 192 193 193 193 193 193 193 193 193 193 193 193 193 193 193 193 193 184 139 51 3 0 0 0 2 20 94 158 192 193 193 193 193 193 193 193 193 193 193 193 193 193 193 193 193 193 193
193 193 193 193 193 193 193 193 192 187 135 53 4 6 38 124 176 192 193 193 193 193 193 193 193 193 193 193 193 193 193 193 193 192 190 142 55 3 0 3 3 0 7 38 119 175 192 193 193 193 193 193 193 193 193 193 193 193 193 193 193 193 193 193
193 193 193 193 193 193 193 193 193 185 148 68 10 0 26 90 169 190 193 193 193 193 193 193 193 193 193 193 193 193 193 193 193 193 185 143 47 5 0 9 26 3 0 13 63 137 192 192 193 193 193 193 193 193 193 193 193 193 193 193 193 193 193 193
193 193 193 193 193 193 193 193 192 192 166 99 29 0 2 59 137 188 193 193 193 193 193 193 193 193 193 193 193 193 193 193 193 192 190 144 60 5 1 25 57 38 2 0 18 87 154 192 193 193 193 193 193 193 193 193 193 193 193 193 193 193 193 193
193 193 193 193 193 193 193 193 193 192 184 137 50 8 1 18 97 169 191 193 193 193 193 193 193 193 193 193 193 193 193 193 193 193 186 150 64 12 8 48 109 84 25 1 6 33 113 171 192 193 193 193 193 193 193 193 193 193 193 193 193 193 193 193
193 193 193 193 193 193 193 193 193 193 192 163 94 9 1 3 46 123 191 192 193 193 193 193 193 193 193 193 193 193 193 193 193 193 181 125 50 10 17 81 147 135 70 6 0 12 57 133 188 192 193 193 193 193 193 193 193 193 193 193 193 193 193 193
193 193 193 193 193 193 193 193 193 193 192 191 138 62 5 0 6 71 144 191 193 193 193 193 193 193 193 193 193 193 193 193 192 189 158 76 14 4 30 107 182 176 118 50 2 0 18 82 150 192 192 193 193 193 193 193 193 193 193 193 193 193 193 193
193 193 193 193 193 193 193 193 193 193 193 192 182 116 37 3 1 15 90 157 182 191 193 193 193 193 193 193 192 193 192 191 184 151 91 28 0 0 30 122 182 188 169 96 31 1 5 27 107 167 192 193 193 193 193 193 193 193 193 193 193 193 193 193
193 193 193 193 193 193 193 193 193 193 193 193 191 162 93 12 2 2 31 83 137 164 179 189 188 189 188 190 185 177 176 151 125 75 18 2 0 5 47 139 186 192 183 146 75 11 0 10 52 128 185 192 193 193 193 193 193 193 193 193 193 193 193 193
193 193 193 193 193 193 193 193 193 193 193 193 193 191 143 72 12 0 1 21 49 78 115 129 135 133 143 140 124 95 78 62 24 15 0 0 0 27 97 165 190 193 193 179 123 55 3 0 16 77 146 192 192 193 193 193 193 193 193 193 193 193 193 193
193 193 193 193 193 193 193 193 193 193 193 193 193 192 188 135 70 28 6 0 3 14 25 34 33 36 36 41 21 16 1 5 0 0 0 12 34 87 156 190 192 193 193 188 173 100 35 2 3 21 101 163 192 193 193 193 193 193 193 193 193 193 193 193
193 193 193 193 193 193 193 193 193 193 193 193 193 193 192 179 149 99 59 35 18 10 3 5 1 2 0 1 0 0 0 0 0 11 25 65 119 161 185 193 193 193 193 193 184 151 79 15 0 9 46 125 181 192 193 193 193 193 193 193 193 193 193 193
193 193 193 193 193 193 193 193 193 193 193 193 193 193 193 192 185 170 153 127 100 79 55 41 20 28 19 20 7 18 20 37 55 72 109 148 176 192 192 193 193 193 193 193 193 179 128 59 3 0 15 71 142 192 192 193 193 193 193 193 193 193 193 193
193 193 193 193 193 193 193 193 193 193 193 193 193 193 193 193 193 192 191 184 182 169 156 135 128 119 120 106 104 102 119 135 154 167 176 191 192 193 193 193 193 193 193 193 193 190 175 106 40 2 3 21 96 160 192 193 193 193 193 193 193 193 193 193
193 193 193 193 193 193 193 193 193 193 193 193 193 193 193 193 193 193 193 193 192 191 191 190 187 185 184 183 181 182 182 191 191 192 192 193 193 193 193 193 193 193 193 193 193 193 185 156 84 20 1 8 40 120 176 192 193 193 193 193 193 193 193 193
193 193 193 193 193 193 193 193 193 193 193 193 193 193 193 193 193 193 193 193 193 193 193 193 192 193 193 193 192 193 192 193 193 193 193 193 193 193 193 193 193 193 193 193 193 193 193 180 134 63 3 0 14 65 138 192 192 193 193 193 193 193 193 193
193 193 193 193 193 193 193 193 193 193 193 193 193 193 193 193 193 193 193 193 193 193 193 193 193 193 193 193 193 193 193 193 193 193 193 193 193 193 193 193 193 193 193 193 193 193 193 191 175 111 44 2 1 21 93 160 192 193 193 193 193 193 193 193
193 193 193 193 193 193 193 193 193 193 193 193 193 193 193 193 193 193 193 193 193 193 193 193 193 193 193 193 193 193 193 193 193 193 193 193 193 193 193 193 193 193 193 193 193 193 193 193 186 161 88 25 2 12 56 145 185 193 193 193 193 193 193 193
193 193 193 193 193 193 193 193 193 193 193 193 193 193 193 193 193 193 193 193 193 193 193 193 193 193 193 193 193 193 193 193 193 193 193 193 193 193 193 193 193 193 193 193 193 193 193 193 193 182 141 80 19 26 76 145 186 192 193 193 193 193 193 193
193 193 193 193 193 193 193 193 193 193 193 193 193 193 193 193 193 193 193 193 193 193 193 193 193 193 193 193 193 193 193 193 193 193 193 193 193 193 193 193 193 193 193 193 193 193 193 193 193 192 181 144 113 102 131 174 190 193 193 193 193 193 193 193
193 193 193 193 193 193 193 193 193 193 193 193 193 193 193 193 193 193 193 193 193 193 193 193 193 193 193 193 193 193 193 193 193 193 193 193 193 193 193 193 193 193 193 193 193 193 193 193 193 193 191 186 178 175 182 192 193 193 193 193 193 193 193 193
193 193 193 193 193 193 193 193 193 193 193 193 193 193 193 193 193 193 193 193 193 193 193 193 193 193 193 193 193 193 193 193 193 193 193 193 193 193 193 193 193 193 193 193 193 193 193 193 193 193 193 192 191 193 193 193 193 193 193 193 193 193 193 193
193 193 193 193 193 193 193 193 193 193 193 193 193 193 193 193 193 193 193 193 193 193 193 193 193 193 193 193 193 193 193 193 193 193 193 193 193 193 193 193 193 193 193 193 193 193 193 193 193 193 193 193 193 193 193 193 193 193 193 193 193 193 193 193
193 193 193 193 193 193 193 193 193 193 193 193 193 193 193 193 193 193 193 193 193 193 193 193 193 193 193 193 193 193 193 193 193 193 193 193 193 193 193 193 193 193 193 193 193 193 193 193 193 193 193 193 193 193 193 193 193 193 193 193 193 193 193 193
193 193 193 193 193 193 193 193 193 193 193 193 193 193 193 193 193 193 193 193 193 193 193 193 193 193 193 193 193 193 193 193 193 193 193 193 193 193 193 193 193 193 193 193 193 193 193 193 193 193 193 193 193 193 193 193 193 193 193 193 193 193 193 193
193 193 193 193 193 193 193 193 193 193 193 193 193 193 193 193 193 193 193 193 193 193 193 193 193 193 193 193 193 193 193 193 193 193 193 193 193 193 193 193 193 193 193 193 193 193 193 193 193 193 193 193 193 193 193 193 193 193 193 193 193 193 193 193
193 193 193 193 193 193 193 193 193 193 193 193 193 193 193 193 193 193 193 193 193 193 193 193 193 193 193 193 193 193 193 193 193 193 193 193 193 193 193 193 193 193 193 193 193 193 193 193 193 193 193 193 193 193 193 193 193 193 193 193 193 193 193 193
193 193 193 193 193 193 193 193 193 193 193 193 193 193 193 193 193 193 193 193 193 193 193 193 193 193 193 193 193 193 193 193 193 193 193 193 193 193 193 193 193 193 193 193 193 193 193 193 193 193 193 193 193 193 193 193 193 193 193 193 193 193 193 193
193 193 193 193 193 193 193 193 193 193 193 193 193 193 193 193 193 193 193 193 193 193 193 193 193 193 193 193 193 193 193 193 193 193 193 193 193 193 193 193 193 193 193 193 193 193 193 193 193 193 193 193 193 193 193 193 193 193 193 193 193 193 193 193
193 193 193 193 193 193 193 193 193 193 193 193 193 193 193 193 193 193 193 193 193 193 193 193 193 193 193 193 193 193 193 193 193 193 193 193 193 193 193 193 193 193 193 193 193 193 193 193 193 193 193 193 193 193 193 193 193 193 193 193 193 193 193 193
193 193 193 193 193 193 193 193 193 193 193 193 193 193 193 193 193 193 193 193 193 193 193 193 193 193 193 193 193 193 193 193 193 193 193 193 193 193 193 193 193 193 193 193 193 193 193 193 193 193 193 193 193 193 193 193 193 193 193 193 193 193 193 193
193 193 193 193 193 193 193 193 193 193 193 193 193 193 193 193 193 193 193 193 193 193 193 193 193 193 193 193 193 193 193 193 193 193 193 193 193 193 193 193 193 193 193 193 193 193 193 193 193 193 193 193 193 193 193 193 193 193 193 193 193 193 193 193
193 193 193 193 193 193 193 193 193 193 193 193 193 193 193 193 193 193 193 193 193 193 193 193 193 193 193 193 193 193 193 193 193 193 193 193 193 193 193 193 193 193 193 193 193 193 193 193 193 193 193 193 193 193 193 193 193 193 193 193 193 193 193 193
193 193 193 193 193 193 193 193 193 193 193 193 193 193 193 193 193 193 193 193 193 193 193 193 193 193 193 193 193 193 193 193 193 193 193 193 193 193 193 193 193 193 193 193 193 193 193 193 193 193 193 193 193 193 193 193 193 193 193 193 193 193 193 193
193 193 193 193 193 193 193 193 193 193 193 193 193 193 193 193 193 193 193 193 193 193 193 193 193 193 193 193 193 193 193 193 193 193 193 193 193 193 193 193 193 193 193 193 193 193 193 193 193 193 193 193 193 193 193 193 193 193 193 193 193 193 193 193
193 193 193 193 193 193 193 193 193 193 193 193 193 193 193 193 193 193 193 193 193 193 193 193 193 193 193 193 193 193 193 193 193 193 193 193 193 193 193 193 193 193 193 193 193 193 193 193 193 193 193 193 193 193 193 193 193 193 193 193 193 193 193 193
193 193 193 193 193 193 193 193 193 193 193 193 193 193 193 193 193 193 193 193 193 193 193 193 193 193 193 193 193 193 193 193 193 193 193 193 193 193 193 193 193 193 193 193 193 193 193 193 193 193 193 193 193 193 193 193 193 193 193 193 193 193 193 193
193 193 193 193 193 193 193 193 193 193 193 193 193 193 193 193 193 193 193 193 193 193 193 193 193 193 193 193 193 193 193 193 193 193 193 193 193 193 193 193 193 193 193 193 193 193 193 193 193 193 193 193 193 193 193 193 193 193 193 193 193 193 193 193
