P2
64 64
255
228 228 228 228 228 228 228 228 228 228 228 228 228 228 228 228 228 228 228 228 228 228 228 228 228 228 228 228 228 228 228 228 228 228 228 228 228 228 228 228 228 228 228 228 228 228 228 228 228 228 228 228 228 228 228 228 228 228 228 228 228 228 228 228
228 228 228 228 228 228 228 228 228 228 228 228 228 228 228 228 228 228 228 228 228 228 228 228 228 228 228 228 228 228 228 228 228 228 228 228 228 228 228 228 228 228 228 228 228 228 228 228 228 228 228 228 228 228 228 228 228 228 228 228 228 228 228 228
228 228 228 228 228 228 228 228 228 228 228 228 228 228 228 228 228 228 228 228 228 228 228 228 228 228 228 228 228 228 228 228 228 228 228 228 228 228 228 228 228 228 228 228 228 228 228 228 228 228 228 228 228 228 228 228 228 228 228 228 228 228 228 228
228 228 228 228 228 228 228 228 228 228 228 228 228 228 228 228 228 228 228 228 228 228 228 228 228 228 228 228 228 228 228 228 228 228 228 228 228 228 228 228 228 228 228 228 228 228 228 228 228 228 228 228 228 228 228 228 228 228 228 228 228 228 228 228
228 228 228 228 228 228 228 228 228 228 228 228 228 228 228 228 228 228 228 228 228 228 228 228 228 228 228 228 228 228 228 228 228 227 228 227 228 228 228 228 228 228 228 228 228 228 228 228 228 228 228 228 228 228 228 228 228 228 228 228 228 228 228 228
228 228 228 228 228 228 228 228 228 228 228 228 228 228 228 228 228 228 228 228 228 228 228 228 228 228 228 228 228 228 227 228 226 224 221 227 227 228 228 228 228 228 228 228 228 228 228 228 228 228 228 228 228 228 228 228 228 228 228 228 228 228 228 228
228 228 228 228 228 228 228 228 228 228 228 228 228 228 228 228 228 228 228 228 228 228 228 228 228 228 228 228 227 227 223 218 208 191 187 194 216 226 227 228 228 228 228 228 228 228 228 228 228 228 228 228 228 228 228 228 228 228 228 228 228 228 228 228
228 228 228 228 228 228 228 228 228 228 228 228 228 228 228 228 228 228 228 228 228 228 228 228 228 228 228 228 227 215 192 168 146 113 96 115 151 187 226 227 228 228 228 228 228 228 228 228 228 228 228 228 228 228 228 228 228 228 228 228 228 228 228 228
228 228 228 228 228 228 228 228 228 228 228 228 228 228 228 228 228 228 228 228 228 228 228 228 228 228 228 227 226 188 124 80 59 34 23 28 50 106 165 210 227 227 228 228 228 228 228 228 228 228 228 228 228 228 228 228 228 228 228 228 228 228 228 228
228 228 228 228 228 228 228 228 228 228 228 228 228 228 228 228 228 228 228 228 228 228 228 228 228 228 228 227 200 130 55 8 15 8 2 0 7 17 86 160 205 228 228 228 228 228 228 228 228 228 228 228 228 228 228 228 228 228 228 228 228 228 228 228
228 228 228 228 228 228 228 228 228 228 228 228 228 228 228 228 228 228 228 228 228 228 228 228 228 228 227 227 171 71 17 2 22 39 25 3 1 3 23 79 165 218 227 228 228 228 228 228 228 228 228 228 228 228 228 228 228 228 228 228 228 228 228 228
228 228 228 228 228 228 228 228 228 228 228 228 228 228 228 228 228 228 228 228 228 228 228 228 228 228 227 203 130 36 0 2 55 105 97 63 14 1 0 31 102 187 226 228 228 228 228 228 228 228 228 228 228 228 228 228 228 228 228 228 228 228 228 228
228 228 228 228 228 228 228 228 228 228 228 228 228 228 228 228 228 228 228 228 228 228 228 228 228 227 227 186 86 18 0 32 108 178 196 150 91 33 0 4 43 141 214 227 228 228 228 228 228 228 228 228 228 228 228 228 228 228 228 228 228 228 228 228
228 228 228 228 228 228 228 228 228 228 228 228 228 228 228 228 228 228 228 228 228 228 228 228 228 228 217 157 57 1 0 58 158 214 223 216 167 88 24 0 17 89 185 224 228 228 228 228 228 228 228 228 228 228 228 228 228 228 228 228 228 228 228 228
228 228 228 228 228 228 228 228 228 228 228 228 228 228 228 228 228 228 228 228 228 228 228 228 228 228 217 130 34 0 21 95 189 227 228 227 211 162 66 4 5 45 156 224 227 228 228 228 228 228 228 228 228 228 228 228 228 228 228 228 228 228 228 228
228 228 228 228 228 228 228 228 228 228 228 228 228 228 228 228 228 228 228 228 228 228 228 228 228 227 202 111 11 0 27 133 208 227 228 228 227 201 120 34 4 34 129 208 227 228 228 228 228 228 228 228 228 228 228 228 228 228 228 228 228 228 228 228
228 228 228 228 228 228 228 228 228 228 228 228 228 228 228 228 228 228 228 228 228 228 228 228 228 227 191 87 13 3 47 156 226 227 228 228 228 220 174 72 9 20 95 197 227 228 228 228 228 228 228 228 228 228 228 228 228 228 228 228 228 228 228 228
228 228 228 228 228 228 228 228 228 228 228 228 228 228 228 228 228 228 228 228 228 228 228 228 228 224 183 70 2 2 71 177 224 228 228 228 228 227 200 95 17 8 69 175 226 228 228 228 228 228 228 228 228 228 228 228 228 228 228 228 228 228 228 228
228 228 228 228 228 228 228 228 228 228 228 228 228 228 228 228 228 228 228 228 228 228 228 228 228 226 166 60 3 12 84 198 227 228 228 228 228 226 203 119 22 1 49 164 219 227 228 228 228 228 228 228 228 228 228 228 228 228 228 228 228 228 228 228
228 228 228 228 228 228 228 228 228 228 228 228 228 228 228 228 228 228 228 228 228 228 228 228 227 219 159 41 2 10 101 196 227 228 228 228 228 227 212 130 34 3 43 145 218 228 228 228 228 228 228 228 228 228 228 228 228 228 228 228 228 228 228 228
228 228 228 228 228 228 228 228 228 228 228 228 228 228 228 228 228 228 228 228 228 228 228 228 228 212 139 42 1 19 111 212 227 228 228 228 228 227 218 150 34 3 31 135 212 227 228 228 228 228 228 228 228 228 228 228 228 228 228 228 228 228 228 228
228 228 228 228 228 228 228 228 228 228 228 228 228 228 228 228 228 228 228 228 228 228 228 228 227 214 137 33 2 32 126 208 228 228 228 228 228 228 223 155 47 3 21 121 217 227 228 228 228 228 228 228 228 228 228 228 228 228 228 228 228 228 228 228
228 228 228 228 228 228 228 228 228 228 228 228 228 228 228 228 228 228 228 228 228 228 228 228 227 211 136 35 3 28 132 212 227 228 228 228 228 228 223 168 46 3 18 115 205 227 228 228 228 228 228 228 228 228 228 228 228 228 228 228 228 228 228 228
228 228 228 228 228 228 228 228 228 228 228 228 228 228 228 228 228 228 228 228 228 228 228 228 227 220 130 29 2 34 131 213 228 228 228 228 228 228 221 158 49 1 16 110 209 227 228 228 228 228 228 228 228 228 228 228 228 228 228 228 228 228 228 228
228 228 228 228 228 228 228 228 228 228 228 228 228 228 228 228 228 228 228 228 228 228 228 228 227 208 125 22 1 29 142 214 227 228 228 228 228 227 225 139 32 1 22 115 207 228 228 228 228 228 228 228 228 228 228 228 228 228 228 228 228 228 228 228
228 228 228 228 228 228 228 228 228 228 228 228 228 228 228 228 228 228 228 228 228 228 228 228 228 210 118 26 2 43 147 222 228 228 228 228 228 227 200 113 18 0 12 130 213 227 228 228 228 228 228 228 228 228 228 228 228 228 228 228 228 228 228 228
228 228 228 228 228 228 228 228 228 228 228 228 228 228 228 228 228 228 228 228 228 228 228 228 227 208 127 20 0 43 155 217 228 228 228 228 228 228 193 91 14 0 42 142 220 228 228 228 228 228 228 228 228 228 228 228 228 228 228 228 228 228 228 228
228 228 228 228 228 228 228 228 228 228 228 228 228 228 228 228 228 228 228 228 228 228 228 228 227 213 126 30 3 41 147 221 227 228 228 228 228 224 191 97 16 6 68 170 220 228 228 228 228 228 228 228 228 228 228 228 228 228 228 228 228 228 228 228
228 228 228 228 228 228 228 228 228 228 228 228 228 228 228 228 228 228 228 228 228 228 228 228 227 216 129 17 1 37 146 217 228 228 228 228 228 226 202 139 72 60 121 193 227 228 228 228 228 228 228 228 228 228 228 228 228 228 228 228 228 228 228 228
228 228 228 228 228 228 228 228 228 228 228 228 228 228 228 228 228 228 228 228 228 228 228 228 228 210 125 26 2 34 149 222 227 228 228 228 228 227 220 188 147 152 183 216 227 228 228 228 228 228 228 228 228 228 228 228 228 228 228 228 228 228 228 228
228 228 228 228 228 228 228 228 228 228 228 228 228 228 228 228 228 228 228 228 228 228 228 228 227 216 130 28 2 43 147 218 227 228 228 228 228 228 228 219 214 207 219 228 228 228 228 228 228 228 228 228 228 228 228 228 228 228 228 228 228 228 228 228
228 228 228 228 228 228 228 228 228 228 228 228 228 228 228 228 228 228 228 228 228 228 228 228 227 214 143 37 2 33 146 216 227 228 228 228 228 228 228 228 226 226 226 228 228 228 228 228 228 228 228 228 228 228 228 228 228 228 228 228 228 228 228 228
228 228 228 228 228 228 228 228 228 228 228 228 228 228 228 228 228 228 228 228 228 228 228 228 227 225 158 45 4 30 129 214 228 228 228 228 228 228 228 228 228 228 228 228 228 228 228 228 228 228 228 228 228 228 228 228 228 228 228 228 228 228 228 228
228 228 228 228 228 228 228 228 228 228 228 228 228 228 228 228 228 228 228 228 228 228 228 228 228 225 174 59 3 17 117 208 226 228 228 228 228 228 228 228 228 228 228 228 228 228 228 228 228 228 228 228 228 228 228 228 228 228 228 228 228 228 228 228
228 228 228 228 228 228 228 228 228 228 228 228 228 228 228 228 228 228 228 228 228 228 228 228 228 226 181 75 9 17 97 200 227 228 228 228 228 228 228 228 228 228 228 228 228 228 228 228 228 228 228 228 228 228 228 228 228 228 228 228 228 228 228 228
228 228 228 228 228 228 228 228 228 228 228 228 228 228 228 228 228 228 228 228 228 228 228 228 228 225 193 83 6 10 82 184 226 228 228 228 228 228 228 228 228 228 228 228 228 228 228 228 228 228 228 228 228 228 228 228 228 228 228 228 228 228 228 228
228 228 228 228 228 228 228 228 228 228 228 228 228 228 228 228 228 228 228 228 228 228 228 228 228 226 197 107 24 13 68 175 224 227 228 228 228 228 228 228 228 228 228 228 228 228 228 228 228 228 228 228 228 228 228 228 228 228 228 228 228 228 228 228
228 228 228 228 228 228 228 228 228 228 228 227 228 227 228 227 228 228 228 228 228 228 228 228 228 227 211 143 49 14 55 147 212 227 228 228 228 228 228 228 228 228 228 228 228 228 228 228 228 228 228 228 228 228 228 228 228 228 228 228 228 228 228 228
228 228 228 228 228 228 228 228 228 228 226 223 217 225 222 227 227 228 228 228 228 228 228 228 228 227 222 176 76 17 30 110 200 226 228 228 228 228 228 228 228 228 228 228 228 228 228 228 228 228 228 228 228 228 228 228 228 228 228 228 228 228 228 228
228 228 228 228 228 228 228 228 228 227 210 177 162 163 185 200 217 227 227 228 228 228 228 228 228 228 228 191 91 18 10 78 183 226 228 228 228 228 228 228 228 228 228 228 228 228 228 228 228 228 228 228 228 228 228 228 228 228 228 228 228 228 228 228
228 228 228 228 228 228 228 228 228 222 176 100 57 69 89 126 173 196 227 227 228 228 228 228 228 228 226 199 106 15 2 54 160 217 228 228 228 228 228 228 228 228 228 228 228 228 228 228 228 228 228 228 228 228 228 228 228 228 228 228 228 228 228 228
228 228 228 228 228 228 228 228 228 212 144 50 8 5 18 44 77 124 166 205 226 227 228 228 228 228 227 208 125 30 3 37 138 217 227 228 228 228 228 228 228 228 228 228 228 228 228 228 228 228 228 228 228 228 228 228 228 228 228 228 228 228 228 228
228 228 228 228 228 228 228 228 227 217 152 49 12 1 0 0 19 31 78 134 174 221 226 227 228 228 227 222 152 37 5 28 128 210 228 228 228 228 228 228 228 228 228 228 228 228 228 228 228 228 228 228 228 228 228 228 228 228 228 228 228 228 228 228
228 228 228 228 228 228 228 228 227 222 186 122 62 33 20 0 0 4 15 35 89 143 193 226 227 228 228 223 174 75 15 29 121 213 226 228 228 228 228 228 228 228 228 228 228 228 228 228 228 228 228 228 228 228 228 228 228 228 228 228 228 228 228 228
228 228 228 228 228 228 228 228 228 226 220 190 158 122 78 47 14 2 0 4 8 52 113 165 215 226 227 226 197 94 18 23 104 197 226 228 228 228 228 228 228 228 228 228 228 228 228 228 228 228 228 228 228 228 228 228 228 228 228 228 228 228 228 228
228 228 228 228 228 228 228 228 228 228 227 224 221 195 173 128 85 45 5 2 0 4 19 78 137 187 226 226 202 108 12 6 73 181 225 228 228 228 228 228 228 228 228 228 228 228 228 228 228 228 228 228 228 228 228 228 228 228 228 228 228 228 228 228
228 228 228 228 228 228 228 228 228 228 228 228 227 227 216 204 174 128 83 30 5 0 2 7 45 109 167 213 210 123 31 5 53 160 221 227 228 228 228 228 228 228 228 228 228 228 228 228 228 228 228 228 228 228 228 228 228 228 228 228 228 228 228 228
228 228 228 228 228 228 228 228 228 228 228 228 228 228 227 228 218 215 169 123 66 8 3 0 5 19 88 158 189 156 44 3 34 136 210 227 228 228 228 228 228 228 228 228 228 228 228 228 228 228 228 228 228 228 228 228 228 228 228 228 228 228 228 228
228 228 228 228 228 228 228 228 228 228 228 228 228 228 228 228 228 226 225 204 154 100 40 5 1 4 23 72 138 140 60 7 23 113 208 227 228 228 228 228 228 228 228 228 228 228 228 228 228 228 228 228 228 228 228 228 228 228 228 228 228 228 228 228
228 228 228 228 228 228 228 228 228 228 228 228 228 228 228 228 228 228 228 227 226 182 130 69 11 1 0 23 56 96 63 11 17 97 195 226 228 228 228 228 228 228 228 228 228 228 228 228 228 228 228 228 228 228 228 228 228 228 228 228 228 228 228 228
228 228 228 228 228 228 228 228 228 228 228 228 228 228 228 228 228 228 228 228 227 226 208 151 88 32 1 0 11 40 36 6 8 73 190 225 228 228 228 228 228 228 228 228 228 228 228 228 228 228 228 228 228 228 228 228 228 228 228 228 228 228 228 228
228 228 228 228 228 228 228 228 228 228 228 228 228 228 228 228 228 228 228 228 228 228 226 217 165 95 43 8 0 0 7 2 5 64 175 226 228 228 228 228 228 228 228 228 228 228 228 228 228 228 228 228 228 228 228 228 228 228 228 228 228 228 228 228
228 228 228 228 228 228 228 228 228 228 228 228 228 228 228 228 228 228 228 228 228 228 228 226 211 177 111 47 14 0 0 0 0 44 168 224 228 228 228 228 228 228 228 228 228 228 228 228 228 228 228 228 228 228 228 228 228 228 228 228 228 228 228 228
228 228 228 228 228 228 228 228 228 228 228 228 228 228 228 228 228 228 228 228 228 228 228 228 227 214 185 129 45 3 0 0 0 35 149 222 228 228 228 228 228 228 228 228 228 228 228 228 228 228 228 228 228 228 228 228 228 228 228 228 228 228 228 228
228 228 228 228 228 228 228 228 228 228 228 228 228 228 228 228 228 228 228 228 228 228 228 228 227 227 226 188 116 36 0 0 0 22 132 213 228 228 228 228 228 228 228 228 228 228 228 228 228 228 228 228 228 228 228 228 228 228 228 228 228 228 228 228
228 228 228 228 228 228 228 228 228 228 228 228 228 228 228 228 228 228 228 228 228 228 228 228 228 228 227 225 185 95 27 7 1 29 138 222 227 228 228 228 228 228 228 228 228 228 228 228 228 228 228 228 228 228 228 228 228 228 228 228 228 228 228 228
228 228 228 228 228 228 228 228 228 228 228 228 228 228 228 228 228 228 228 228 228 228 228 228 228 228 228 228 217 181 104 38 36 78 165 218 228 228 228 228 228 228 228 228 228 228 228 228 228 228 228 228 228 228 228 228 228 228 228 228 228 228 228 228
228 228 228 228 228 228 228 228 228 228 228 228 228 228 228 228 228 228 228 228 228 228 228 228 228 228 228 228 227 218 185 151 123 158 206 225 227 228 228 228 228 228 228 228 228 228 228 228 228 228 228 228 228 228 228 228 228 228 228 228 228 228 228 228
228 228 228 228 228 228 228 228 228 228 228 228 228 228 228 228 228 228 228 228 228 228 228 228 228 228 228 228 228 227 227 209 205 208 220 227 228 228 228 228 228 228 228 228 228 228 228 228 228 228 228 228 228 228 228 228 228 228 228 228 228 228 228 228
228 228 228 228 228 228 228 228 228 228 228 228 228 228 228 228 228 228 228 228 228 228 228 228 228 228 228 228 228 228 227 227 226 226 227 228 228 228 228 228 228 228 228 228 228 228 228 228 228 228 228 228 228 228 228 228 228 228 228 228 228 228 228 228
228 228 228 228 228 228 228 228 228 228 228 228 228 228 228 228 228 228 228 228 228 228 228 228 228 228 228 228 228 228 228 228 228 228 228 228 228 228 228 228 228 228 228 228 228 228 228 228 228 228 228 228 228 228 228 228 228 228 228 228 228 228 228 228
228 228 228 228 228 228 228 228 228 228 228 228 228 228 228 228 228 228 228 228 228 228 228 228 228 228 228 228 228 228 228 228 228 228 228 228 228 228 228 228 228 228 228 228 228 228 228 228 228 228 228 228 228 228 228 228 228 228 228 228 228 228 228 228
228 228 228 228 228 228 228 228 228 228 228 228 228 228 228 228 228 228 228 228 228 228 228 228 228 228 228 228 228 228 228 228 228 228 228 228 228 228 228 228 228 228 228 228 228 228 228 228 228 228 228 228 228 228 228 228 228 228 228 228 228 228 228 228
228 228 228 228 228 228 228 228 228 228 228 228 228 228 228 228 228 228 228 228 228 228 228 228 228 228 228 228 228 228 228 228 228 228 228 228 228 228 228 228 228 228 228 228 228 228 228 228 228 228 228 228 228 228 228 228 228 228 228 228 228 228 228 228
