P2
64 64
255
198 198 198 198 198 198 198 198 198 198 198 198 198 198 198 198 198 198 198 198 198 198 198 198 198 198 198 198 198 198 198 198 198 198 198 198 198 198 198 198 198 198 198 198 198 198 198 198 198 198 198 198 198 198 198 198 198 198 198 198 198 198 198 198
198 198 198 198 198 198 198 198 198 198 198 198 198 198 198 198 198 198 198 198 198 198 198 198 198 198 198 198 198 198 198 198 198 198 198 198 198 198 198 198 198 198 198 198 198 198 198 198 198 198 198 198 198 198 198 198 198 198 198 198 198 198 198 198
198 198 198 198 198 198 198 198 198 198 198 198 198 198 198 198 198 198 198 198 198 198 198 198 198 198 198 198 198 198 198 198 198 198 198 198 198 198 198 198 198 198 198 198 198 198 198 198 198 198 198 198 198 198 198 198 198 198 198 198 198 198 198 198
198 198 198 198 198 198 198 198 198 198 198 198 198 198 198 198 198 198 198 198 198 198 198 198 198 198 198 198 198 198 198 198 198 198 198 198 198 198 198 198 198 198 198 198 198 198 198 198 198 198 198 198 198 198 198 198 198 198 198 198 198 198 198 198
198 198 198 198 198 198 198 198 198 198 198 198 198 198 198 198 198 198 198 198 198 198 198 198 198 198 198 198 198 198 198 198 198 198 198 198 198 198 198 198 198 198 198 198 198 198 198 198 198 198 198 198 198 198 198 198 198 198 198 198 198 198 198 198
198 198 198 198 198 198 198 198 198 198 198 198 198 198 198 198 198 198 198 198 198 198 198 198 198 198 198 198 198 198 198 198 198 198 198 198 198 198 198 198 198 198 198 198 198 198 198 198 198 198 198 198 198 198 198 198 198 198 198 198 198 198 198 198
198 198 198 198 198 198 198 198 198 198 198 198 198 198 198 198 198 198 198 198 198 198 198 198 198 198 198 198 198 198 198 198 198 198 198 198 198 198 198 198 198 198 198 198 198 198 198 198 198 198 198 198 198 198 198 198 198 198 198 198 198 198 198 198
198 198 198 198 198 198 198 198 198 198 198 198 198 198 198 198 198 198 198 198 198 198 198 198 198 198 198 198 198 198 198 198 198 198 198 198 198 198 198 198 198 198 198 198 198 198 198 198 198 198 198 198 198 198 198 198 198 198 198 198 198 198 198 198
198 198 198 198 198 198 198 198 198 198 198 198 198 198 198 198 198 198 198 198 198 198 198 198 198 198 198 198 198 198 198 198 198 198 198 198 198 198 198 198 198 198 198 198 198 198 198 198 198 198 198 198 198 198 198 198 198 198 198 198 198 198 198 198
198 198 198 198 198 198 198 198 198 198 198 198 198 198 198 198 198 198 198 198 198 198 198 198 198 198 198 198 198 198 198 198 198 198 198 198 198 198 198 198 198 198 198 198 198 198 198 198 198 198 198 198 198 198 198 198 198 198 198 198 198 198 198 198
198 198 198 198 198 198 198 198 198 198 198 198 198 198 198 198 198 198 198 198 198 198 198 198 198 198 198 198 198 198 198 198 198 198 198 198 198 198 198 198 198 198 198 198 198 198 198 198 198 198 198 198 198 198 198 198 198 198 198 198 198 198 198 198
198 198 198 198 198 198 198 198 198 198 198 198 198 198 198 198 198 198 198 198 198 198 198 198 198 198 198 198 198 198 198 198 198 198 198 198 198 198 198 198 198 198 198 198 198 198 198 198 198 198 198 198 198 198 198 198 198 198 198 198 198 198 198 198
198 198 198 198 198 198 198 198 198 198 198 198 198 198 198 198 198 198 198 198 198 198 198 198 198 198 198 198 198 198 198 198 198 198 198 198 198 197 198 198 198 198 198 198 198 198 198 198 198 198 198 198 198 198 198 198 198 198 198 198 198 198 198 198
198 198 198 198 198 198 198 198 198 198 198 198 198 198 198 198 198 198 198 198 198 198 198 198 198 198 198 198 198 198 198 198 197 196 198 195 190 190 196 196 195 197 197 197 197 198 198 198 198 198 198 198 198 198 198 198 198 198 198 198 198 198 198 198
198 198 198 198 198 198 198 198 198 198 198 198 198 198 198 198 198 198 198 198 198 198 198 198 198 198 198 198 198 198 197 198 194 179 165 141 127 122 119 129 150 170 167 176 190 197 198 198 198 198 198 198 198 198 198 198 198 198 198 198 198 198 198 198
198 198 198 198 198 198 198 198 198 198 198 198 198 198 198 198 198 198 198 198 198 198 198 198 198 198 198 198 198 197 195 191 164 113 60 39 31 13 13 31 41 46 71 104 142 181 196 198 198 198 198 198 198 198 198 198 198 198 198 198 198 198 198 198
198 198 198 198 198 198 198 198 198 198 198 198 198 198 198 198 198 198 198 198 198 198 198 198 198 198 198 198 196 190 176 140 80 30 1 1 0 0 0 0 0 0 10 26 59 131 184 197 198 198 198 198 198 198 198 198 198 198 198 198 198 198 198 198
198 198 198 198 198 198 198 198 198 198 198 198 198 198 198 198 198 198 198 198 198 198 198 198 198 198 198 197 187 150 96 38 14 2 0 0 0 0 0 0 0 0 0 0 7 64 158 195 198 198 198 198 198 198 198 198 198 198 198 198 198 198 198 198
198 198 198 198 198 198 198 198 198 198 198 198 198 198 198 198 198 198 198 198 198 198 198 198 198 198 195 188 134 64 17 1 0 0 0 1 12 19 16 24 20 9 12 6 0 22 132 196 198 198 198 198 198 198 198 198 198 198 198 198 198 198 198 198
198 198 198 198 198 198 198 198 198 198 198 198 198 198 198 198 198 198 198 198 198 198 198 198 198 195 169 104 38 9 0 0 0 12 32 66 93 114 139 129 106 101 83 23 0 4 115 194 198 198 198 198 198 198 198 198 198 198 198 198 198 198 198 198
198 198 198 198 198 198 198 198 198 198 198 198 198 198 198 198 198 198 198 198 198 198 198 198 198 166 79 13 2 0 0 0 19 75 132 164 179 191 195 190 187 183 121 21 0 18 123 192 198 198 198 198 198 198 198 198 198 198 198 198 198 198 198 198
198 198 198 198 198 198 198 198 198 198 198 198 198 198 198 198 198 198 198 198 198 198 198 197 184 104 17 0 0 0 25 54 103 156 189 195 198 198 197 198 196 173 83 6 3 45 147 194 198 198 198 198 198 198 198 198 198 198 198 198 198 198 198 198
198 198 198 198 198 198 198 198 198 198 198 198 198 198 198 198 198 198 198 198 198 198 198 197 171 68 3 0 1 39 115 161 177 193 197 198 198 198 198 196 184 123 34 1 17 89 176 197 198 198 198 198 198 198 198 198 198 198 198 198 198 198 198 198
198 198 198 198 198 198 198 198 198 198 198 198 198 198 198 198 198 198 198 198 198 198 198 198 179 84 10 4 30 117 182 197 196 198 198 198 198 198 197 184 131 54 6 3 52 146 195 198 198 198 198 198 198 198 198 198 198 198 198 198 198 198 198 198
198 198 198 198 198 198 198 198 198 198 198 198 198 198 198 198 198 198 198 198 198 198 198 198 193 144 73 60 115 177 196 198 198 198 198 198 198 197 188 135 59 13 2 29 111 184 197 198 198 198 198 198 198 198 198 198 198 198 198 198 198 198 198 198
198 198 198 198 198 198 198 198 198 198 198 198 198 198 198 198 198 198 198 198 198 198 198 198 198 187 164 164 183 197 198 198 198 198 198 198 197 185 141 69 16 4 27 97 167 195 198 198 198 198 198 198 198 198 198 198 198 198 198 198 198 198 198 198
198 198 198 198 198 198 198 198 198 198 198 198 198 198 198 198 198 198 198 198 198 198 198 198 198 197 197 197 197 198 198 198 198 198 198 197 182 132 56 14 6 28 98 162 191 198 198 198 198 198 198 198 198 198 198 198 198 198 198 198 198 198 198 198
198 198 198 198 198 198 198 198 198 198 198 198 198 198 198 198 198 198 198 198 198 198 198 198 198 198 198 198 198 198 198 198 198 198 195 177 119 48 5 0 28 101 167 191 197 198 198 198 198 198 198 198 198 198 198 198 198 198 198 198 198 198 198 198
198 198 198 198 198 198 198 198 198 198 198 198 198 198 198 198 198 198 198 198 198 198 198 198 198 198 198 198 198 198 198 198 198 196 177 115 40 2 0 14 83 163 194 197 198 198 198 198 198 198 198 198 198 198 198 198 198 198 198 198 198 198 198 198
198 198 198 198 198 198 198 198 198 198 198 198 198 198 198 198 198 198 198 198 198 198 198 198 198 198 198 198 198 198 198 197 196 182 129 42 3 0 10 63 149 193 197 198 198 198 198 198 198 198 198 198 198 198 198 198 198 198 198 198 198 198 198 198
198 198 198 198 198 198 198 198 198 198 198 198 198 198 198 198 198 198 198 198 198 198 198 198 198 198 198 198 198 198 197 196 184 132 52 8 5 21 62 141 191 198 198 198 198 198 198 198 198 198 198 198 198 198 198 198 198 198 198 198 198 198 198 198
198 198 198 198 198 198 198 198 198 198 198 198 198 198 198 198 198 198 198 198 198 198 198 198 198 198 198 198 198 198 195 181 132 56 7 6 42 97 155 190 198 198 198 198 198 198 198 198 198 198 198 198 198 198 198 198 198 198 198 198 198 198 198 198
198 198 198 198 198 198 198 198 198 198 198 198 198 198 198 198 198 198 198 198 198 198 198 198 198 198 198 198 198 195 175 116 43 12 5 34 112 177 195 197 198 198 198 198 198 198 198 198 198 198 198 198 198 198 198 198 198 198 198 198 198 198 198 198
198 198 198 198 198 198 198 198 198 198 198 198 198 198 198 198 198 198 198 198 198 198 198 198 198 198 198 198 197 184 115 35 3 3 30 98 172 196 198 198 198 198 198 198 198 198 198 198 198 198 198 198 198 198 198 198 198 198 198 198 198 198 198 198
198 198 198 198 198 198 198 198 198 198 198 198 198 198 198 198 198 198 198 198 198 198 198 198 198 198 198 197 188 128 46 5 0 17 90 169 193 198 198 198 198 198 198 198 198 198 198 198 198 198 198 198 198 198 198 198 198 198 198 198 198 198 198 198
198 198 198 198 198 198 198 198 198 198 198 198 198 198 198 198 198 198 198 198 198 198 198 198 198 198 197 187 143 59 9 1 8 73 155 195 197 198 198 198 198 198 198 198 198 198 198 198 198 198 198 198 198 198 198 198 198 198 198 198 198 198 198 198
198 198 198 198 198 198 198 198 198 198 198 198 198 198 198 198 198 198 198 198 198 198 198 198 198 197 187 142 69 14 0 18 83 150 188 198 198 198 198 198 198 198 198 198 198 198 198 198 198 198 198 198 198 198 198 198 198 198 198 198 198 198 198 198
198 198 198 198 198 198 198 198 198 198 198 198 198 198 198 198 198 198 198 198 198 198 198 197 196 189 145 68 10 1 21 87 163 191 197 198 198 198 198 198 198 198 198 198 198 198 198 198 198 198 198 198 198 198 198 198 198 198 198 198 198 198 198 198
198 198 198 198 198 198 198 198 198 198 198 198 198 198 198 198 198 198 198 198 198 198 198 195 184 146 73 11 0 20 83 154 191 197 198 198 198 198 198 198 198 198 198 198 198 198 198 198 198 198 198 198 198 198 198 198 198 198 198 198 198 198 198 198
198 198 198 198 198 198 198 198 198 198 198 198 198 198 198 198 198 198 198 198 198 198 197 184 137 62 15 3 20 81 155 191 197 198 198 198 198 198 198 198 198 198 198 198 198 198 198 198 198 198 198 198 198 198 198 198 198 198 198 198 198 198 198 198
198 198 198 198 198 198 198 198 198 198 198 198 198 198 198 198 198 198 198 198 198 197 192 146 60 6 5 24 78 153 192 198 198 198 198 198 198 198 198 198 198 198 198 198 198 198 198 198 198 198 198 198 198 198 198 198 198 198 198 198 198 198 198 198
198 198 198 198 198 198 198 198 198 198 198 198 198 198 198 198 198 198 198 198 198 192 158 73 13 2 27 88 156 193 198 198 198 198 198 198 198 198 198 198 198 198 198 198 198 198 198 198 198 198 198 198 198 198 198 198 198 198 198 198 198 198 198 198
198 198 198 198 198 198 198 198 198 198 198 198 198 198 198 198 198 198 198 198 196 166 76 17 0 15 83 163 194 197 198 198 198 198 198 198 198 198 198 198 198 198 198 198 198 198 198 198 198 198 198 198 198 198 198 198 198 198 198 198 198 198 198 198
198 198 198 198 198 198 198 198 198 198 198 198 198 198 198 198 198 198 197 195 173 97 20 0 2 54 148 184 191 197 197 197 197 198 198 198 198 198 198 198 198 198 198 198 198 198 198 198 198 198 198 198 198 198 198 198 198 198 198 198 198 198 198 198
198 198 198 198 198 198 198 198 198 198 198 198 198 198 198 198 198 198 193 163 102 31 1 0 6 68 112 132 144 157 168 181 193 196 197 197 198 198 198 198 198 198 198 198 198 198 198 198 198 198 198 198 198 198 198 198 198 198 198 198 198 198 198 198
198 198 198 198 198 198 198 198 198 198 198 198 198 198 198 198 197 195 165 97 31 2 0 0 6 13 25 41 49 59 86 113 136 149 167 187 198 198 198 198 198 198 198 198 198 198 198 198 198 198 198 198 198 198 198 198 198 198 198 198 198 198 198 198
198 198 198 198 198 198 198 198 198 198 198 198 198 198 198 198 197 189 139 49 3 0 0 0 0 0 0 0 0 3 17 30 34 48 86 136 180 194 197 197 198 198 198 198 198 198 198 198 198 198 198 198 198 198 198 198 198 198 198 198 198 198 198 198
198 198 198 198 198 198 198 198 198 198 198 198 198 198 198 198 198 191 152 65 20 6 0 14 26 15 15 16 11 1 1 0 0 4 18 48 90 132 164 189 198 198 198 198 198 198 198 198 198 198 198 198 198 198 198 198 198 198 198 198 198 198 198 198
198 198 198 198 198 198 198 198 198 198 198 198 198 198 198 198 198 196 182 140 94 61 59 93 115 114 106 90 73 50 36 19 4 0 0 1 4 35 80 136 177 191 196 197 198 198 198 198 198 198 198 198 198 198 198 198 198 198 198 198 198 198 198 198
198 198 198 198 198 198 198 198 198 198 198 198 198 198 198 198 198 198 197 189 173 158 167 175 185 192 185 172 163 152 123 88 48 27 20 6 0 2 13 45 95 141 177 196 198 198 198 198 198 198 198 198 198 198 198 198 198 198 198 198 198 198 198 198
198 198 198 198 198 198 198 198 198 198 198 198 198 198 198 198 198 198 198 197 197 196 197 196 198 198 197 197 197 197 184 168 147 129 99 53 7 0 0 0 13 57 118 179 196 198 198 198 198 198 198 198 198 198 198 198 198 198 198 198 198 198 198 198
198 198 198 198 198 198 198 198 198 198 198 198 198 198 198 198 198 198 198 198 198 198 198 198 198 198 198 198 198 198 197 197 196 191 174 142 83 32 14 4 0 10 62 153 195 198 198 198 198 198 198 198 198 198 198 198 198 198 198 198 198 198 198 198
198 198 198 198 198 198 198 198 198 198 198 198 198 198 198 198 198 198 198 198 198 198 198 198 198 198 198 198 198 198 198 198 198 197 197 195 175 122 83 45 12 11 55 152 197 198 198 198 198 198 198 198 198 198 198 198 198 198 198 198 198 198 198 198
198 198 198 198 198 198 198 198 198 198 198 198 198 198 198 198 198 198 198 198 198 198 198 198 198 198 198 198 198 198 198 198 198 198 198 198 197 186 166 137 101 82 115 175 197 198 198 198 198 198 198 198 198 198 198 198 198 198 198 198 198 198 198 198
198 198 198 198 198 198 198 198 198 198 198 198 198 198 198 198 198 198 198 198 198 198 198 198 198 198 198 198 198 198 198 198 198 198 198 198 198 197 196 193 183 165 177 193 198 198 198 198 198 198 198 198 198 198 198 198 198 198 198 198 198 198 198 198
198 198 198 198 198 198 198 198 198 198 198 198 198 198 198 198 198 198 198 198 198 198 198 198 198 198 198 198 198 198 198 198 198 198 198 198 198 198 198 198 197 195 195 197 198 198 198 198 198 198 198 198 198 198 198 198 198 198 198 198 198 198 198 198
198 198 198 198 198 198 198 198 198 198 198 198 198 198 198 198 198 198 198 198 198 198 198 198 198 198 198 198 198 198 198 198 198 198 198 198 198 198 198 198 198 198 198 198 198 198 198 198 198 198 198 198 198 198 198 198 198 198 198 198 198 198 198 198
198 198 198 198 198 198 198 198 198 198 198 198 198 198 198 198 198 198 198 198 198 198 198 198 198 198 198 198 198 198 198 198 198 198 198 198 198 198 198 198 198 198 198 198 198 198 198 198 198 198 198 198 198 198 198 198 198 198 198 198 198 198 198 198
198 198 198 198 198 198 198 198 198 198 198 198 198 198 198 198 198 198 198 198 198 198 198 198 198 198 198 198 198 198 198 198 198 198 198 198 198 198 198 198 198 198 198 198 198 198 198 198 198 198 198 198 198 198 198 198 198 198 198 198 198 198 198 198
198 198 198 198 198 198 198 198 198 198 198 198 198 198 198 198 198 198 198 198 198 198 198 198 198 198 198 198 198 198 198 198 198 198 198 198 198 198 198 198 198 198 198 198 198 198 198 198 198 198 198 198 198 198 198 198 198 198 198 198 198 198 198 198
198 198 198 198 198 198 198 198 198 198 198 198 198 198 198 198 198 198 198 198 198 198 198 198 198 198 198 198 198 198 198 198 198 198 198 198 198 198 198 198 198 198 198 198 198 198 198 198 198 198 198 198 198 198 198 198 198 198 198 198 198 198 198 198
198 198 198 198 198 198 198 198 198 198 198 198 198 198 198 198 198 198 198 198 198 198 198 198 198 198 198 198 198 198 198 198 198 198 198 198 198 198 198 198 198 198 198 198 198 198 198 198 198 198 198 198 198 198 198 198 198 198 198 198 198 198 198 198
198 198 198 198 198 198 198 198 198 198 198 198 198 198 198 198 198 198 198 198 198 198 198 198 198 198 198 198 198 198 198 198 198 198 198 198 198 198 198 198 198 198 198 198 198 198 198 198 198 198 198 198 198 198 198 198 198 198 198 198 198 198 198 198
198 198 198 198 198 198 198 198 198 198 198 198 198 198 198 198 198 198 198 198 198 198 198 198 198 198 198 198 198 198 198 198 198 198 198 198 198 198 198 198 198 198 198 198 198 198 198 198 198 198 198 198 198 198 198 198 198 198 198 198 198 198 198 198
