P2
64 64
255
170 170 170 170 170 170 170 170 170 170 170 170 170 170 170 170 170 170 170 170 170 170 170 170 170 170 170 170 170 170 170 170 170 170 170 170 170 170 170 170 170 170 170 170 170 170 170 170 170 170 170 170 170 170 170 170 170 170 170 170 170 170 170 170
170 170 170 170 170 170 170 170 170 170 170 170 170 170 170 170 170 170 170 170 170 170 170 170 170 170 170 170 170 170 170 170 170 170 170 170 170 170 170 170 170 170 170 170 170 170 170 170 170 170 170 170 170 170 170 170 170 170 170 170 170 170 170 170
170 170 170 170 170 170 170 170 170 170 170 170 170 170 170 170 170 170 170 170 170 170 170 170 170 170 170 170 170 170 170 170 170 170 170 170 170 170 170 170 170 170 170 170 170 170 170 170 170 170 170 170 170 170 170 170 170 170 170 170 170 170 170 170
170 170 170 170 170 170 170 170 170 170 170 170 170 170 170 170 170 170 170 170 170 170 170 170 170 170 170 170 170 170 170 170 170 170 170 170 170 170 170 170 170 170 170 170 170 170 170 170 170 170 170 170 170 170 170 170 170 170 170 170 170 170 170 170
170 170 170 170 170 170 170 170 170 170 170 170 170 170 170 170 170 170 170 170 170 170 170 170 170 170 170 170 170 170 170 170 170 170 170 170 170 170 170 170 170 170 170 170 170 170 170 170 170 170 170 170 170 170 170 170 170 170 170 170 170 170 170 170
170 170 170 170 170 170 170 170 170 170 170 170 170 170 170 170 170 170 170 170 170 170 170 170 170 170 170 170 170 170 170 170 170 170 170 170 170 170 170 170 170 170 170 170 170 170 170 170 170 170 170 170 170 170 170 170 170 170 170 170 170 170 170 170
170 170 170 170 170 170 170 170 170 170 170 170 170 170 170 170 170 170 170 170 170 170 170 170 170 170 170 170 170 170 170 170 170 170 170 170 170 170 170 170 170 170 170 170 170 170 170 170 170 170 170 170 170 170 170 170 170 170 170 170 170 170 170 170
170 170 170 170 170 170 170 170 170 170 170 170 170 170 170 170 170 170 170 170 170 170 170 170 170 170 170 170 170 169 170 169 170 169 170 169 170 169 169 169 170 170 170 170 170 170 170 170 170 170 170 170 170 170 170 170 170 170 170 170 170 170 170 170
170 170 170 170 170 170 170 170 170 170 170 170 170 170 170 170 170 170 170 170 170 170 170 170 170 170 169 170 168 169 167 169 163 165 159 163 159 165 164 168 170 170 170 170 170 170 170 170 170 170 170 170 170 170 170 170 170 170 170 170 170 170 170 170
170 170 170 170 170 170 170 170 170 170 170 170 170 170 170 170 170 170 170 170 170 170 169 169 166 167 157 152 140 136 129 122 114 108 104 103 105 109 127 148 165 169 170 170 170 170 170 170 170 170 170 170 170 170 170 170 170 170 170 170 170 170 170 170
170 170 170 170 170 170 170 170 170 170 170 170 170 170 170 170 170 170 170 170 169 169 159 143 132 113 98 76 64 51 47 38 33 28 27 24 25 28 51 103 155 169 170 170 170 170 170 170 170 170 170 170 170 170 170 170 170 170 170 170 170 170 170 170
170 170 170 170 170 170 170 170 170 170 170 170 170 170 170 170 170 170 169 169 162 136 108 70 48 34 18 15 3 6 1 4 1 2 1 2 0 1 13 78 141 166 170 170 170 170 170 170 170 170 170 170 170 170 170 170 170 170 170 170 170 170 170 170
170 170 170 170 170 170 170 170 170 170 170 170 170 170 170 170 169 169 168 137 107 66 28 15 0 1 0 1 2 8 5 12 10 22 18 26 19 23 34 94 151 167 169 170 170 170 170 170 170 170 170 170 170 170 170 170 170 170 170 170 170 170 170 170
170 170 170 170 170 170 170 170 170 170 170 170 170 170 170 169 169 143 113 70 26 12 1 0 0 13 9 33 44 61 68 77 86 93 102 102 100 93 111 138 165 169 170 170 170 170 170 170 170 170 170 170 170 170 170 170 170 170 170 170 170 170 170 170
170 170 170 170 170 170 170 170 170 170 170 170 170 169 169 153 121 79 34 12 2 0 2 22 46 71 94 109 131 138 151 150 157 157 160 159 159 156 162 166 169 170 170 170 170 170 170 170 170 170 170 170 170 170 170 170 170 170 170 170 170 170 170 170
170 170 170 170 170 170 170 170 170 170 170 170 170 165 145 103 49 16 4 0 2 20 52 84 121 145 157 165 165 169 169 169 169 169 169 169 169 169 169 170 170 170 170 170 170 170 170 170 170 170 170 170 170 170 170 170 170 170 170 170 170 170 170 170
170 170 170 170 170 170 170 170 170 170 170 169 167 148 91 38 11 0 2 13 48 85 124 151 161 169 169 170 170 170 170 170 170 170 170 170 170 170 170 170 170 170 170 170 170 170 170 170 170 170 170 170 170 170 170 170 170 170 170 170 170 170 170 170
170 170 170 170 170 170 170 170 170 170 170 169 145 93 34 1 0 5 39 76 117 154 162 170 169 170 170 170 170 170 170 170 170 170 170 170 170 170 170 170 170 170 170 170 170 170 170 170 170 170 170 170 170 170 170 170 170 170 170 170 170 170 170 170
170 170 170 170 170 170 170 170 170 170 169 161 104 29 4 0 16 52 102 149 161 169 170 170 170 170 170 170 170 170 170 170 170 170 170 170 170 170 170 170 170 170 170 170 170 170 170 170 170 170 170 170 170 170 170 170 170 170 170 170 170 170 170 170
170 170 170 170 170 170 170 170 170 170 168 143 68 7 0 2 52 120 153 167 170 170 170 170 170 170 170 170 170 170 170 170 170 170 170 170 170 170 170 170 170 170 170 170 170 170 170 170 170 170 170 170 170 170 170 170 170 170 170 170 170 170 170 170
170 170 170 170 170 170 170 170 170 170 167 133 39 2 3 31 100 155 169 170 170 170 170 170 170 170 170 170 170 170 170 170 170 170 170 170 170 170 169 170 170 170 170 170 170 170 170 170 170 170 170 170 170 170 170 170 170 170 170 170 170 170 170 170
170 170 170 170 170 170 170 170 170 170 165 115 33 1 8 60 146 167 170 170 170 170 170 170 170 170 170 170 170 170 170 170 170 170 169 169 163 163 163 167 170 170 170 170 170 170 170 170 170 170 170 170 170 170 170 170 170 170 170 170 170 170 170 170
170 170 170 170 170 170 170 170 170 169 165 119 24 2 7 54 124 160 169 170 170 170 170 170 170 170 170 170 170 170 170 170 169 169 157 130 117 104 123 152 169 169 170 170 170 170 170 170 170 170 170 170 170 170 170 170 170 170 170 170 170 170 170 170
170 170 170 170 170 170 170 170 170 170 166 128 54 4 2 13 66 125 157 167 170 170 170 170 170 170 169 169 169 168 168 161 159 111 75 44 15 22 39 98 151 169 170 170 170 170 170 170 170 170 170 170 170 170 170 170 170 170 170 170 170 170 170 170
170 170 170 170 170 170 170 170 170 170 169 159 94 29 5 1 20 56 103 142 165 168 169 169 169 166 168 157 154 136 129 98 56 32 3 0 0 0 5 64 147 168 170 170 170 170 170 170 170 170 170 170 170 170 170 170 170 170 170 170 170 170 170 170
170 170 170 170 170 170 170 170 170 170 170 165 139 86 31 2 0 8 32 70 111 141 153 145 139 129 119 102 77 59 33 21 6 0 0 0 0 0 10 82 150 168 170 170 170 170 170 170 170 170 170 170 170 170 170 170 170 170 170 170 170 170 170 170
170 170 170 170 170 170 170 170 170 170 170 170 167 141 91 43 14 2 2 9 34 70 79 72 56 47 35 26 14 2 2 0 0 0 0 4 4 23 67 127 164 170 170 170 170 170 170 170 170 170 170 170 170 170 170 170 170 170 170 170 170 170 170 170
170 170 170 170 170 170 170 170 170 170 170 170 169 165 149 116 65 22 6 1 6 12 16 5 7 0 2 0 0 0 0 0 0 6 24 46 80 102 141 169 169 170 170 170 170 170 170 170 170 170 170 170 170 170 170 170 170 170 170 170 170 170 170 170
170 170 170 170 170 170 170 170 170 170 170 170 170 170 167 160 135 95 52 18 12 4 4 2 6 4 8 2 0 0 0 2 22 47 102 146 152 169 169 170 170 170 170 170 170 170 170 170 170 170 170 170 170 170 170 170 170 170 170 170 170 170 170 170
170 170 170 170 170 170 170 170 170 170 170 170 170 170 169 169 168 155 127 102 77 54 44 40 52 57 30 9 0 0 9 29 82 135 157 169 170 170 170 170 170 170 170 170 170 170 170 170 170 170 170 170 170 170 170 170 170 170 170 170 170 170 170 170
170 170 170 170 170 170 170 170 170 170 170 170 170 170 170 170 170 169 165 161 150 135 122 127 107 74 30 2 0 4 47 107 143 165 169 170 170 170 170 170 170 170 170 170 170 170 170 170 170 170 170 170 170 170 170 170 170 170 170 170 170 170 170 170
170 170 170 170 170 170 170 170 170 170 170 170 170 170 170 170 170 170 170 169 169 166 161 139 92 28 2 0 17 60 114 156 169 169 170 170 170 170 170 170 170 170 170 170 170 170 170 170 170 170 170 170 170 170 170 170 170 170 170 170 170 170 170 170
170 170 170 170 170 170 170 170 170 170 170 170 170 170 170 170 170 170 170 170 170 168 149 92 35 6 1 16 60 123 163 169 170 170 170 170 170 170 170 170 170 170 170 170 170 170 170 170 170 170 170 170 169 170 170 170 170 170 170 170 170 170 170 170
170 170 170 170 170 170 170 170 170 170 170 170 170 170 170 170 170 170 170 170 169 155 111 43 2 1 11 64 125 157 170 170 170 170 170 170 170 170 170 170 170 170 170 170 170 170 170 170 170 170 169 167 167 169 170 170 170 170 170 170 170 170 170 170
170 170 170 170 170 170 170 170 170 170 170 170 170 170 170 170 170 170 170 169 167 123 54 14 0 18 60 121 167 169 170 170 170 170 170 170 170 170 170 170 170 170 170 170 170 170 170 170 169 167 157 138 143 157 169 170 170 170 170 170 170 170 170 170
170 170 170 170 170 170 170 170 170 170 170 170 170 170 170 170 170 170 170 166 144 77 13 0 5 56 122 158 169 170 170 170 170 170 170 170 170 170 170 170 170 170 170 170 170 170 170 170 169 152 111 64 65 125 161 169 170 170 170 170 170 170 170 170
170 170 170 170 170 170 170 170 170 170 170 170 170 170 170 170 170 170 169 154 97 32 3 6 42 106 155 169 170 170 170 170 170 170 170 170 170 170 170 170 170 170 170 170 170 170 170 169 168 131 50 12 19 82 149 170 170 170 170 170 170 170 170 170
170 170 170 170 170 170 170 170 170 170 170 170 170 170 170 170 170 169 163 122 47 4 1 24 93 150 167 170 170 170 170 170 170 170 170 170 170 170 170 170 170 170 170 170 170 170 170 169 163 115 33 0 8 78 152 169 170 170 170 170 170 170 170 170
170 170 170 170 170 170 170 170 170 170 170 170 170 170 170 170 170 169 145 72 15 0 13 66 136 168 170 170 170 170 170 170 170 170 170 170 170 170 170 170 170 170 170 170 170 170 170 169 164 107 28 4 26 98 159 170 170 170 170 170 170 170 170 170
170 170 170 170 170 170 170 170 170 170 170 170 170 170 170 170 170 167 119 34 2 0 33 117 161 170 170 170 170 170 170 170 170 170 170 170 170 170 170 170 170 170 170 170 170 170 170 168 143 80 22 5 43 127 165 170 170 170 170 170 170 170 170 170
170 170 170 170 170 170 170 170 170 170 170 170 170 170 170 170 169 163 106 14 0 2 59 143 168 170 170 170 170 170 170 170 170 170 170 170 170 170 170 170 170 170 170 170 170 170 169 164 109 34 8 11 70 143 167 170 170 170 170 170 170 170 170 170
170 170 170 170 170 170 170 170 170 170 170 170 170 170 170 170 169 159 93 18 0 10 72 158 169 170 170 170 170 170 170 170 170 170 170 170 170 170 170 170 170 170 170 170 170 170 167 145 69 7 1 18 98 159 169 169 170 170 170 170 170 170 170 170
170 170 170 170 170 170 170 170 170 170 170 170 170 170 170 170 169 156 90 10 0 8 72 145 169 170 170 170 170 170 170 170 170 170 170 170 170 170 170 170 170 170 170 170 170 169 160 111 32 2 3 42 120 165 170 170 170 170 170 170 170 170 170 170
170 170 170 170 170 170 170 170 170 170 170 170 170 170 170 170 170 156 91 22 0 6 48 139 167 170 170 170 170 170 170 170 170 170 170 170 170 170 170 170 170 170 170 170 169 168 140 67 10 0 11 70 147 168 170 170 170 170 170 170 170 170 170 170
170 170 170 170 170 170 170 170 170 170 170 170 170 170 170 170 169 164 119 34 4 0 36 106 158 170 170 170 170 170 170 170 170 170 170 170 170 170 170 170 170 170 170 170 167 146 98 28 0 2 31 110 161 169 170 170 170 170 170 170 170 170 170 170
170 170 170 170 170 170 170 170 170 170 170 170 170 170 170 170 170 169 142 77 16 0 8 64 136 163 169 170 170 170 170 170 170 170 170 170 170 170 170 170 170 170 169 169 156 101 38 8 0 25 84 145 169 170 170 170 170 170 170 170 170 170 170 170
170 170 170 170 170 170 170 170 170 170 170 170 170 170 170 170 170 169 169 117 40 6 0 26 76 133 167 169 169 170 170 170 170 170 170 170 170 170 170 170 170 170 169 152 112 50 4 0 7 67 140 165 169 170 170 170 170 170 170 170 170 170 170 170
170 170 170 170 170 170 170 170 170 170 170 170 170 170 170 170 170 170 169 147 88 25 0 0 21 76 128 155 167 169 170 170 170 170 170 170 170 170 170 170 170 168 159 113 51 14 1 14 55 117 162 170 170 170 170 170 170 170 170 170 170 170 170 170
170 170 170 170 170 170 170 170 170 170 170 170 170 170 170 170 170 170 170 169 135 75 26 2 3 19 57 108 146 161 167 169 170 169 170 169 170 169 170 169 169 151 107 52 12 0 6 47 113 156 168 170 170 170 170 170 170 170 170 170 170 170 170 170
170 170 170 170 170 170 170 170 170 170 170 170 170 170 170 170 170 170 170 169 162 137 78 18 4 1 11 37 76 114 139 155 158 159 159 161 161 163 159 154 127 93 43 5 0 8 44 100 149 169 170 170 170 170 170 170 170 170 170 170 170 170 170 170
170 170 170 170 170 170 170 170 170 170 170 170 170 170 170 170 170 170 170 170 170 165 135 88 43 11 1 1 16 34 62 81 88 93 95 104 103 109 98 82 54 17 7 0 8 39 100 151 166 170 170 170 170 170 170 170 170 170 170 170 170 170 170 170
170 170 170 170 170 170 170 170 170 170 170 170 170 170 170 170 170 170 170 170 170 169 168 153 111 64 30 10 6 4 8 10 18 11 20 19 26 20 24 8 7 0 1 4 48 107 147 169 170 170 170 170 170 170 170 170 170 170 170 170 170 170 170 170
170 170 170 170 170 170 170 170 170 170 170 170 170 170 170 170 170 170 170 170 170 170 170 167 157 135 99 62 38 18 11 5 3 1 1 1 1 0 1 0 4 4 30 68 113 157 169 169 170 170 170 170 170 170 170 170 170 170 170 170 170 170 170 170
170 170 170 170 170 170 170 170 170 170 170 170 170 170 170 170 170 170 170 170 170 170 170 170 170 166 155 139 118 94 67 50 34 32 29 28 27 24 24 30 40 66 98 137 161 168 170 170 170 170 170 170 170 170 170 170 170 170 170 170 170 170 170 170
170 170 170 170 170 170 170 170 170 170 170 170 170 170 170 170 170 170 170 170 170 170 170 170 170 169 169 169 167 157 146 131 122 116 113 112 108 106 103 111 123 139 159 165 170 170 170 170 170 170 170 170 170 170 170 170 170 170 170 170 170 170 170 170
170 170 170 170 170 170 170 170 170 170 170 170 170 170 170 170 170 170 170 170 170 170 170 170 170 170 170 170 170 169 169 167 168 164 167 162 165 160 164 161 168 167 170 170 170 170 170 170 170 170 170 170 170 170 170 170 170 170 170 170 170 170 170 170
170 170 170 170 170 170 170 170 170 170 170 170 170 170 170 170 170 170 170 170 170 170 170 170 170 170 170 170 170 170 170 170 169 170 169 169 169 170 169 170 169 170 170 170 170 170 170 170 170 170 170 170 170 170 170 170 170 170 170 170 170 170 170 170
170 170 170 170 170 170 170 170 170 170 170 170 170 170 170 170 170 170 170 170 170 170 170 170 170 170 170 170 170 170 170 170 170 170 170 170 170 170 170 170 170 170 170 170 170 170 170 170 170 170 170 170 170 170 170 170 170 170 170 170 170 170 170 170
170 170 170 170 170 170 170 170 170 170 170 170 170 170 170 170 170 170 170 170 170 170 170 170 170 170 170 170 170 170 170 170 170 170 170 170 170 170 170 170 170 170 170 170 170 170 170 170 170 170 170 170 170 170 170 170 170 170 170 170 170 170 170 170
170 170 170 170 170 170 170 170 170 170 170 170 170 170 170 170 170 170 170 170 170 170 170 170 170 170 170 170 170 170 170 170 170 170 170 170 170 170 170 170 170 170 170 170 170 170 170 170 170 170 170 170 170 170 170 170 170 170 170 170 170 170 170 170
170 170 170 170 170 170 170 170 170 170 170 170 170 170 170 170 170 170 170 170 170 170 170 170 170 170 170 170 170 170 170 170 170 170 170 170 170 170 170 170 170 170 170 170 170 170 170 170 170 170 170 170 170 170 170 170 170 170 170 170 170 170 170 170
170 170 170 170 170 170 170 170 170 170 170 170 170 170 170 170 170 170 170 170 170 170 170 170 170 170 170 170 170 170 170 170 170 170 170 170 170 170 170 170 170 170 170 170 170 170 170 170 170 170 170 170 170 170 170 170 170 170 170 170 170 170 170 170
170 170 170 170 170 170 170 170 170 170 170 170 170 170 170 170 170 170 170 170 170 170 170 170 170 170 170 170 170 170 170 170 170 170 170 170 170 170 170 170 170 170 170 170 170 170 170 170 170 170 170 170 170 170 170 170 170 170 170 170 170 170 170 170
170 170 170 170 170 170 170 170 170 170 170 170 170 170 170 170 170 170 170 170 170 170 170 170 170 170 170 170 170 170 170 170 170 170 170 170 170 170 170 170 170 170 170 170 170 170 170 170 170 170 170 170 170 170 170 170 170 170 170 170 170 170 170 170
