P2
64 64
255
136 136 136 136 136 136 136 136 136 136 136 136 136 136 136 136 136 136 136 136 136 136 136 136 136 136 136 136 136 136 136 136 136 136 136 136 136 136 136 136 136 136 136 136 136 136 136 136 136 136 136 136 136 136 136 136 136 136 136 136 136 136 136 136
136 136 136 136 136 136 136 136 136 136 136 136 136 136 136 136 136 136 136 136 136 136 136 136 136 136 136 136 136 136 136 136 136 136 136 136 136 136 136 136 136 136 136 136 136 136 136 136 136 136 136 136 136 136 136 136 136 136 136 136 136 136 136 136
136 136 136 136 136 136 136 136 136 136 136 136 136 136 136 136 136 136 136 136 136 136 136 136 136 136 136 136 136 136 136 136 136 136 136 136 136 136 136 136 136 136 136 136 136 136 136 136 136 136 136 136 136 136 136 136 136 136 136 136 136 136 136 136
136 136 136 136 136 136 136 136 136 136 136 136 136 136 136 136 136 136 136 136 136 136 136 136 136 136 136 136 136 136 136 136 136 136 136 136 136 136 136 136 136 136 136 136 136 136 136 136 136 136 136 136 136 136 136 136 136 136 136 136 136 136 136 136
136 136 136 136 136 136 136 136 136 136 136 136 136 136 136 136 136 136 136 136 136 136 136 136 136 136 136 136 136 136 136 136 136 136 136 136 136 136 136 136 136 136 136 136 136 136 136 136 136 136 136 136 136 136 136 136 136 136 136 136 136 136 136 136
136 136 136 136 136 136 136 136 136 136 136 136 136 136 136 136 136 136 136 136 136 136 136 136 136 136 136 136 136 136 136 136 136 136 136 136 136 136 136 136 136 136 136 136 136 136 136 136 136 136 136 136 136 136 136 136 136 136 136 136 136 136 136 136
136 136 136 136 136 136 136 136 136 136 136 136 136 136 136 136 136 136 136 136 136 136 136 136 136 136 136 136 136 136 136 136 136 136 136 136 136 136 136 136 136 136 136 136 136 136 136 136 136 136 136 136 136 136 136 136 136 136 136 136 136 136 136 136
136 136 136 136 136 136 136 136 136 136 136 136 136 136 136 136 136 136 136 136 136 136 136 136 136 136 136 136 136 136 136 136 136 136 136 136 136 136 136 136 136 136 136 136 136 136 136 136 136 136 136 136 136 136 136 136 136 136 136 136 136 136 136 136
136 136 136 136 136 136 136 136 136 136 136 136 136 136 136 136 136 136 136 136 136 136 136 136 135 135 135 135 135 135 135 133 133 135 134 135 135 135 135 136 136 135 136 136 136 136 136 136 136 136 136 136 136 136 136 136 136 136 136 136 136 136 136 136
136 136 136 136 136 136 136 136 136 136 136 136 136 136 136 136 136 136 136 136 135 135 135 135 127 118 116 118 111 108 111 105 103 110 112 111 114 120 119 122 129 128 132 135 135 135 136 136 136 136 136 136 136 136 136 136 136 136 136 136 136 136 136 136
136 136 136 136 136 136 136 136 136 136 136 136 136 136 136 136 136 135 135 135 135 121 108 97 81 63 52 49 48 43 37 40 39 40 46 50 50 56 63 67 77 88 95 109 122 132 135 135 136 136 136 136 136 136 136 136 136 136 136 136 136 136 136 136
136 136 136 136 136 136 136 136 136 136 136 136 136 136 135 135 135 131 116 102 87 67 48 29 19 13 8 1 3 4 1 1 3 3 1 6 7 4 10 13 13 22 33 47 83 114 130 135 136 136 136 136 136 136 136 136 136 136 136 136 136 136 136 136
136 136 136 136 136 136 136 136 136 136 136 136 136 135 130 117 101 82 60 39 18 11 7 2 0 0 0 1 4 3 1 7 7 3 4 5 2 1 3 2 1 0 1 9 46 94 127 135 136 136 136 136 136 136 136 136 136 136 136 136 136 136 136 136
136 136 136 136 136 136 136 136 136 136 136 135 132 122 99 68 40 17 10 5 0 0 1 1 8 20 31 34 41 45 48 51 54 52 45 43 42 35 33 29 18 12 12 19 49 99 127 134 136 136 136 136 136 136 136 136 136 136 136 136 136 136 136 136
136 136 136 136 136 136 136 136 136 136 136 126 104 72 41 20 6 0 0 1 2 14 31 46 59 75 92 108 108 109 116 116 114 117 116 108 106 108 99 93 85 70 63 69 94 118 131 135 136 136 136 136 136 136 136 136 136 136 136 136 136 136 136 136
136 136 136 136 136 136 136 136 135 134 126 95 52 18 2 0 0 2 18 35 52 71 90 108 121 124 128 135 135 134 134 135 135 134 135 134 133 134 133 129 128 126 118 121 131 133 135 135 136 136 136 136 136 136 136 136 136 136 136 136 136 136 136 136
136 136 136 136 136 136 136 136 135 130 101 50 14 2 0 6 22 43 70 94 114 125 128 133 136 136 135 135 136 136 136 136 136 136 136 136 136 135 136 135 135 135 135 135 136 136 136 136 136 136 136 136 136 136 136 136 136 136 136 136 136 136 136 136
136 136 136 136 136 136 136 136 135 118 71 19 0 0 3 30 69 106 121 129 134 136 136 136 136 136 136 136 136 136 136 136 136 136 136 136 136 136 136 136 136 136 136 136 136 136 136 136 136 136 136 136 136 136 136 136 136 136 136 136 136 136 136 136
136 136 136 136 136 136 136 136 131 103 48 4 1 6 28 74 114 133 135 136 136 136 136 136 136 136 136 136 136 136 136 136 136 136 136 136 136 136 136 136 136 136 136 136 136 136 136 136 136 136 136 136 136 136 136 136 136 136 136 136 136 136 136 136
136 136 136 136 136 136 136 135 128 96 33 4 1 14 59 109 130 135 136 136 136 136 136 136 136 136 136 136 136 136 136 136 136 136 136 136 136 136 136 136 136 136 136 136 136 136 136 136 136 136 136 136 136 136 136 136 136 136 136 136 136 136 136 136
136 136 136 136 136 136 136 135 131 94 42 3 0 8 50 93 126 136 135 136 136 136 136 136 136 136 136 136 136 136 136 136 136 136 136 136 136 136 136 136 136 136 136 136 136 136 136 136 136 136 136 136 136 136 136 136 136 136 136 136 136 136 136 136
136 136 136 136 136 136 136 136 132 111 63 14 2 2 17 52 98 123 134 136 136 136 136 136 136 136 136 136 136 136 136 136 136 136 136 136 136 136 135 136 136 135 135 136 136 136 136 136 136 136 136 136 136 136 136 136 136 136 136 136 136 136 136 136
136 136 136 136 136 136 136 136 135 129 94 49 15 0 1 18 50 87 120 132 135 135 136 136 136 136 136 136 136 136 136 135 136 136 136 135 135 135 131 128 130 133 134 136 136 136 136 136 136 136 136 136 136 136 136 136 136 136 136 136 136 136 136 136
136 136 136 136 136 136 136 136 136 134 121 93 45 15 2 3 11 31 70 101 124 134 134 134 135 134 135 135 133 132 133 134 130 131 132 117 99 88 85 80 86 106 126 133 136 136 136 136 136 136 136 136 136 136 136 136 136 136 136 136 136 136 136 136
136 136 136 136 136 136 136 136 136 135 135 123 91 56 20 2 1 4 19 48 83 105 106 105 110 111 108 108 106 98 94 97 87 72 53 41 31 16 6 13 18 42 88 121 135 136 136 136 136 136 136 136 136 136 136 136 136 136 136 136 136 136 136 136
136 136 136 136 136 136 136 136 136 136 136 133 125 108 68 32 9 0 1 10 26 36 43 41 39 43 44 41 37 34 27 16 18 14 4 0 0 0 0 0 0 14 59 116 134 136 136 136 136 136 136 136 136 136 136 136 136 136 136 136 136 136 136 136
136 136 136 136 136 136 136 136 136 136 136 135 135 131 114 85 45 18 8 5 3 1 2 4 3 1 3 4 0 0 1 0 0 0 0 0 0 0 0 0 3 20 75 118 133 136 136 136 136 136 136 136 136 136 136 136 136 136 136 136 136 136 136 136
136 136 136 136 136 136 136 136 136 136 136 136 136 135 134 126 102 78 52 31 14 5 7 6 2 3 2 0 0 0 0 0 0 0 0 3 9 8 5 21 40 75 110 129 135 136 136 136 136 136 136 136 136 136 136 136 136 136 136 136 136 136 136 136
136 136 136 136 136 136 136 136 136 136 136 136 136 136 136 135 131 125 115 89 71 57 49 48 45 31 13 2 0 0 0 0 6 15 25 39 62 79 86 88 106 128 135 135 136 136 136 136 136 136 136 136 136 136 136 136 136 136 136 136 136 136 136 136
136 136 136 136 136 136 136 136 136 136 136 136 136 136 136 136 136 135 134 128 122 119 105 83 61 36 12 1 0 2 8 19 42 67 95 118 125 128 135 135 135 135 136 136 136 136 136 136 136 136 136 136 136 136 136 136 136 136 136 136 136 136 136 136
136 136 136 136 136 136 136 136 136 136 136 136 136 136 136 136 136 136 135 135 129 117 89 54 20 3 0 0 2 22 51 82 105 119 129 135 136 136 135 136 136 136 136 136 136 136 136 136 136 136 136 136 136 136 136 136 136 136 136 136 136 136 136 136
136 136 136 136 136 136 136 136 136 136 136 136 136 136 136 136 136 136 136 127 104 70 35 14 2 0 7 23 48 80 107 128 135 135 135 136 136 136 136 136 136 136 136 136 136 136 136 136 136 136 136 136 136 136 136 136 136 136 136 136 136 136 136 136
136 136 136 136 136 136 136 136 136 136 136 136 136 136 136 136 136 135 129 100 60 22 4 1 1 9 38 73 108 126 133 135 136 136 136 136 136 136 136 136 136 136 136 136 136 136 136 136 136 136 136 136 136 136 136 136 136 136 136 136 136 136 136 136
136 136 136 136 136 136 136 136 136 136 136 136 136 136 136 135 133 122 95 51 20 3 1 11 30 59 92 118 133 135 136 136 136 136 136 136 136 136 136 136 136 136 136 136 136 136 136 136 136 136 136 136 136 136 136 136 136 136 136 136 136 136 136 136
136 136 136 136 136 136 136 136 136 136 136 136 136 136 136 134 118 85 41 12 2 1 10 43 80 115 129 134 135 136 136 136 136 136 136 136 136 136 136 136 136 136 136 136 136 136 136 136 136 136 136 136 136 136 136 136 136 136 136 136 136 136 136 136
136 136 136 136 136 136 136 136 136 136 136 136 136 135 133 122 80 37 7 0 2 18 51 90 119 134 135 136 136 136 136 136 136 136 136 136 136 136 136 136 136 136 136 136 136 136 136 136 136 136 136 136 136 136 136 136 135 136 136 136 136 136 136 136
136 136 136 136 136 136 136 136 136 136 136 136 135 134 119 79 33 8 0 4 25 63 104 125 133 135 136 136 136 136 136 136 136 136 136 136 136 136 136 136 136 136 136 136 136 136 136 136 136 136 136 136 135 134 134 134 135 136 136 136 136 136 136 136
136 136 136 136 136 136 136 136 136 136 136 136 135 127 93 37 3 0 1 21 65 110 133 135 136 136 136 136 136 136 136 136 136 136 136 136 136 136 136 136 136 136 136 136 136 136 136 136 136 136 135 135 132 116 108 114 126 135 136 136 136 136 136 136
136 136 136 136 136 136 136 136 136 136 136 136 134 117 71 12 1 0 11 52 105 129 136 136 136 136 136 136 136 136 136 136 136 136 136 136 136 136 136 136 136 136 136 136 136 136 136 136 136 135 135 127 104 68 47 55 93 122 135 136 136 136 136 136
136 136 136 136 136 136 136 136 136 136 136 135 133 110 50 9 0 3 28 89 125 135 136 136 136 136 136 136 136 136 136 136 136 136 136 136 136 136 136 136 136 136 136 136 136 136 136 136 136 135 132 110 63 16 6 18 59 111 135 136 136 136 136 136
136 136 136 136 136 136 136 136 136 136 136 136 130 93 39 1 0 5 45 100 133 135 136 136 136 136 136 136 136 136 136 136 136 136 136 136 136 136 136 136 136 136 136 136 136 136 136 136 136 135 127 97 36 6 1 16 60 114 133 136 136 136 136 136
136 136 136 136 136 136 136 136 136 136 136 136 126 93 30 4 0 8 40 104 131 135 136 136 136 136 136 136 136 136 136 136 136 136 136 136 136 136 136 136 136 136 136 136 136 136 136 136 136 134 116 72 27 4 6 34 88 123 135 136 136 136 136 136
136 136 136 136 136 136 136 136 136 136 136 135 133 102 46 10 0 2 36 93 126 136 136 136 136 136 136 136 136 136 136 136 136 136 136 136 136 136 136 136 136 136 136 136 136 136 136 135 133 121 81 39 10 4 22 67 114 134 135 136 136 136 136 136
136 136 136 136 136 136 136 136 136 136 136 136 135 114 70 17 1 1 27 74 121 134 136 136 136 136 136 136 136 136 136 136 136 136 136 136 136 136 136 136 136 136 136 136 136 136 135 134 119 84 36 9 2 12 48 96 129 135 136 136 136 136 136 136
136 136 136 136 136 136 136 136 136 136 136 136 135 129 91 36 8 0 8 44 94 122 135 136 136 136 136 136 136 136 136 136 136 136 136 136 136 136 136 136 136 136 136 136 136 136 134 122 89 34 6 0 3 27 79 118 134 135 136 136 136 136 136 136
136 136 136 136 136 136 136 136 136 136 136 136 136 135 109 65 18 1 0 18 54 98 132 134 135 136 136 136 136 136 136 136 136 136 136 136 136 136 136 136 136 136 136 136 135 135 128 95 47 9 0 1 12 58 105 130 136 136 136 136 136 136 136 136
136 136 136 136 136 136 136 136 136 136 136 136 136 135 127 101 49 17 1 3 13 57 98 123 133 136 135 136 136 136 136 136 136 136 136 136 136 136 136 136 136 136 136 135 129 116 91 48 15 1 1 9 43 94 126 135 136 136 136 136 136 136 136 136
136 136 136 136 136 136 136 136 136 136 136 136 136 135 135 123 91 47 6 1 2 19 47 88 117 129 135 135 136 136 136 136 136 136 136 136 136 136 136 136 136 135 135 128 103 70 33 12 1 0 12 44 88 125 134 135 136 136 136 136 136 136 136 136
136 136 136 136 136 136 136 136 136 136 136 136 136 136 136 133 126 89 45 16 2 1 7 36 71 102 126 131 134 136 135 136 136 135 136 136 136 136 136 136 134 129 117 92 56 24 1 0 3 16 51 93 124 135 136 136 136 136 136 136 136 136 136 136
136 136 136 136 136 136 136 136 136 136 136 136 136 136 136 136 135 121 95 57 21 7 1 8 21 44 75 96 110 124 125 128 133 134 134 135 136 135 135 135 122 97 65 34 15 4 0 9 31 64 103 126 134 136 136 136 136 136 136 136 136 136 136 136
136 136 136 136 136 136 136 136 136 136 136 136 136 136 136 136 136 134 130 106 70 37 11 2 3 8 16 34 48 59 73 82 95 110 111 116 124 116 105 92 70 42 16 1 0 2 11 42 79 113 131 135 136 136 136 136 136 136 136 136 136 136 136 136
136 136 136 136 136 136 136 136 136 136 136 136 136 136 136 136 136 136 135 130 117 91 59 34 18 4 0 3 7 8 10 20 28 36 48 54 56 55 43 25 12 5 1 1 11 29 57 93 118 132 136 136 136 136 136 136 136 136 136 136 136 136 136 136
136 136 136 136 136 136 136 136 136 136 136 136 136 136 136 136 136 136 136 135 134 126 113 96 68 42 21 13 5 0 1 1 2 1 3 8 4 4 5 2 0 1 4 14 47 80 111 127 134 135 136 136 136 136 136 136 136 136 136 136 136 136 136 136
136 136 136 136 136 136 136 136 136 136 136 136 136 136 136 136 136 136 136 136 136 135 134 133 120 103 87 63 46 34 23 19 11 4 5 2 0 3 3 2 9 26 48 75 102 121 133 136 136 136 136 136 136 136 136 136 136 136 136 136 136 136 136 136
136 136 136 136 136 136 136 136 136 136 136 136 136 136 136 136 136 136 136 136 136 136 136 136 135 133 131 121 109 103 93 80 70 57 47 40 34 34 41 52 65 84 106 128 133 135 135 136 136 136 136 136 136 136 136 136 136 136 136 136 136 136 136 136
136 136 136 136 136 136 136 136 136 136 136 136 136 136 136 136 136 136 136 136 136 136 136 136 136 136 135 135 134 133 133 127 123 123 113 104 104 102 103 112 124 127 132 135 136 136 136 136 136 136 136 136 136 136 136 136 136 136 136 136 136 136 136 136
136 136 136 136 136 136 136 136 136 136 136 136 136 136 136 136 136 136 136 136 136 136 136 136 136 136 136 136 136 136 136 135 135 135 135 133 133 135 133 134 136 136 136 136 136 136 136 136 136 136 136 136 136 136 136 136 136 136 136 136 136 136 136 136
136 136 136 136 136 136 136 136 136 136 136 136 136 136 136 136 136 136 136 136 136 136 136 136 136 136 136 136 136 136 136 136 136 136 136 136 136 136 136 136 136 136 136 136 136 136 136 136 136 136 136 136 136 136 136 136 136 136 136 136 136 136 136 136
136 136 136 136 136 136 136 136 136 136 136 136 136 136 136 136 136 136 136 136 136 136 136 136 136 136 136 136 136 136 136 136 136 136 136 136 136 136 136 136 136 136 136 136 136 136 136 136 136 136 136 136 136 136 136 136 136 136 136 136 136 136 136 136
136 136 136 136 136 136 136 136 136 136 136 136 136 136 136 136 136 136 136 136 136 136 136 136 136 136 136 136 136 136 136 136 136 136 136 136 136 136 136 136 136 136 136 136 136 136 136 136 136 136 136 136 136 136 136 136 136 136 136 136 136 136 136 136
136 136 136 136 136 136 136 136 136 136 136 136 136 136 136 136 136 136 136 136 136 136 136 136 136 136 136 136 136 136 136 136 136 136 136 136 136 136 136 136 136 136 136 136 136 136 136 136 136 136 136 136 136 136 136 136 136 136 136 136 136 136 136 136
136 136 136 136 136 136 136 136 136 136 136 136 136 136 136 136 136 136 136 136 136 136 136 136 136 136 136 136 136 136 136 136 136 136 136 136 136 136 136 136 136 136 136 136 136 136 136 136 136 136 136 136 136 136 136 136 136 136 136 136 136 136 136 136
136 136 136 136 136 136 136 136 136 136 136 136 136 136 136 136 136 136 136 136 136 136 136 136 136 136 136 136 136 136 136 136 136 136 136 136 136 136 136 136 136 136 136 136 136 136 136 136 136 136 136 136 136 136 136 136 136 136 136 136 136 136 136 136
136 136 136 136 136 136 136 136 136 136 136 136 136 136 136 136 136 136 136 136 136 136 136 136 136 136 136 136 136 136 136 136 136 136 136 136 136 136 136 136 136 136 136 136 136 136 136 136 136 136 136 136 136 136 136 136 136 136 136 136 136 136 136 136
