P2
64 64
255
202 202 202 202 202 202 202 202 202 202 202 202 202 202 202 202 202 202 202 202 202 202 202 202 202 202 202 202 202 202 202 202 202 202 202 202 202 202 202 202 202 202 202 202 202 202 202 202 202 202 202 202 202 202 202 202 202 202 202 202 202 202 202 202
202 202 202 202 202 202 202 202 202 202 202 202 202 202 202 202 202 202 202 202 202 202 202 202 202 202 202 202 202 202 202 202 202 202 202 202 202 202 202 202 202 202 202 202 202 202 202 202 202 202 202 202 202 202 202 202 202 202 202 202 202 202 202 202
202 202 202 202 202 202 202 202 202 202 202 202 202 202 202 202 202 202 202 202 202 202 202 202 202 202 202 202 202 202 202 202 202 202 202 202 202 202 202 202 202 202 202 202 202 202 202 202 202 202 202 202 202 202 202 202 202 202 202 202 202 202 202 202
202 202 202 202 202 202 202 202 202 202 202 202 202 202 202 202 202 202 202 202 202 202 202 202 202 202 202 202 202 202 202 202 202 202 202 202 202 202 202 202 202 202 202 202 202 202 202 202 202 202 202 202 202 202 202 202 202 202 202 202 202 202 202 202
202 202 202 202 202 202 202 202 202 202 202 202 202 202 202 202 202 202 202 202 202 202 202 202 202 202 202 202 202 202 202 202 202 202 202 202 202 202 202 202 202 202 202 202 202 202 202 202 202 202 202 202 202 202 202 202 202 202 202 202 202 202 202 202
202 202 202 202 202 202 202 202 202 202 202 202 202 202 202 202 202 202 202 202 202 202 202 202 202 202 202 202 202 202 202 202 202 202 202 202 202 202 202 202 202 202 202 202 202 202 202 202 202 202 202 202 202 202 202 202 202 202 202 202 202 202 202 202
202 202 202 202 202 202 202 202 202 202 202 202 202 202 202 202 202 202 202 202 202 202 202 202 202 202 202 201 202 201 202 202 202 202 202 202 202 202 202 202 202 202 202 202 202 202 202 202 202 202 202 202 202 202 202 202 202 202 202 202 202 202 202 202
202 202 202 202 202 202 202 202 202 202 202 202 202 202 202 202 202 202 202 202 202 202 202 202 201 201 190 188 180 183 180 185 196 198 201 201 202 202 202 202 202 202 202 202 202 202 202 202 202 202 202 202 202 202 202 202 202 202 202 202 202 202 202 202
202 202 202 202 202 202 202 202 202 202 202 202 202 202 202 202 202 202 202 202 202 201 200 190 184 164 144 119 107 95 99 120 140 162 174 183 189 196 202 202 202 202 202 202 202 202 202 202 202 202 202 202 202 202 202 202 202 202 202 202 202 202 202 202
202 202 202 202 202 202 202 202 202 202 202 202 202 202 202 202 202 202 202 201 198 183 159 136 110 88 55 41 16 18 17 31 47 77 93 106 133 163 179 195 202 202 202 202 202 202 202 202 202 202 202 202 202 202 202 202 202 202 202 202 202 202 202 202
202 202 202 202 202 202 202 202 202 202 202 202 202 202 202 202 202 202 194 187 156 120 80 47 33 14 11 1 1 0 0 0 6 16 15 27 50 79 122 162 187 202 202 202 202 202 202 202 202 202 202 202 202 202 202 202 202 202 202 202 202 202 202 202
202 202 202 202 202 202 202 202 202 202 202 202 202 202 202 202 202 183 167 123 81 38 14 7 0 0 2 0 1 2 0 4 4 8 4 3 2 18 46 93 155 186 200 202 202 202 202 202 202 202 202 202 202 202 202 202 202 202 202 202 202 202 202 202
202 202 202 202 202 202 202 202 202 202 202 202 202 202 202 197 172 137 87 51 15 3 0 1 5 20 25 45 47 38 36 44 58 49 31 17 6 1 2 35 83 139 187 197 202 202 202 202 202 202 202 202 202 202 202 202 202 202 202 202 202 202 202 202
202 202 202 202 202 202 202 202 202 202 202 202 202 202 194 171 118 61 30 1 0 3 9 29 62 87 112 129 147 133 134 140 147 136 112 77 34 14 0 5 17 70 125 178 197 202 202 202 202 202 202 202 202 202 202 202 202 202 202 202 202 202 202 202
202 202 202 202 202 202 202 202 202 202 202 202 202 199 185 117 54 19 0 0 11 23 64 108 143 174 179 193 192 194 194 193 196 192 186 150 108 52 12 2 2 11 61 120 170 202 202 202 202 202 202 202 202 202 202 202 202 202 202 202 202 202 202 202
202 202 202 202 202 202 202 202 202 202 202 202 202 191 138 63 12 0 0 25 49 98 141 176 196 198 202 202 202 202 202 202 202 202 200 196 171 120 66 14 4 0 18 52 122 171 202 202 202 202 202 202 202 202 202 202 202 202 202 202 202 202 202 202
202 202 202 202 202 202 202 202 202 202 202 202 198 179 97 16 2 3 27 72 129 165 194 201 202 202 202 202 202 202 202 202 202 202 202 202 195 186 133 77 29 0 0 19 56 131 183 202 202 202 202 202 202 202 202 202 202 202 202 202 202 202 202 202
202 202 202 202 202 202 202 202 202 202 202 202 198 154 70 7 0 11 70 145 178 202 202 202 202 202 202 202 202 202 202 202 202 202 202 202 202 200 185 149 81 33 1 0 17 70 140 196 202 202 202 202 202 202 202 202 202 202 202 202 202 202 202 202
202 202 202 202 202 202 202 202 202 202 202 202 194 148 52 7 1 35 114 178 201 202 202 202 202 202 202 202 202 202 202 202 202 202 202 202 202 202 202 183 147 80 28 1 3 16 82 148 199 202 202 202 202 202 202 202 202 202 202 202 202 202 202 202
202 202 202 202 202 202 202 202 202 202 202 202 194 143 55 1 3 49 141 196 202 202 202 202 202 202 202 202 202 202 202 202 202 202 202 202 202 202 202 202 184 141 77 15 1 3 20 93 155 192 202 202 202 202 202 202 202 202 202 202 202 202 202 202
202 202 202 202 202 202 202 202 202 202 202 202 195 153 60 6 4 44 138 193 202 202 202 202 202 202 202 202 202 202 202 202 202 202 202 202 202 202 202 202 200 186 132 67 5 0 3 34 95 160 190 202 202 202 202 202 202 202 202 202 202 202 202 202
202 202 202 202 202 202 202 202 202 202 202 202 199 157 72 9 3 45 131 192 202 202 202 202 202 202 202 202 202 202 202 202 202 202 202 202 202 202 202 202 202 198 188 124 55 7 0 3 42 105 176 196 202 202 202 202 202 202 202 202 202 202 202 202
202 202 202 202 202 202 202 202 202 202 202 202 199 169 81 16 2 38 125 187 202 202 202 202 202 202 202 202 202 202 202 202 202 202 202 202 202 202 202 202 202 202 199 178 117 42 11 0 2 58 128 186 201 202 202 202 202 202 202 202 202 202 202 202
202 202 202 202 202 202 202 202 202 202 202 202 199 171 89 15 3 34 120 185 201 202 202 202 202 202 202 202 202 202 202 202 202 202 202 202 202 202 202 202 202 202 202 201 167 110 34 8 0 17 80 152 193 202 202 202 202 202 202 202 202 202 202 202
202 202 202 202 202 202 202 202 202 202 202 202 201 175 95 19 0 27 107 181 202 202 202 202 202 202 202 202 202 202 202 202 202 202 202 202 202 202 202 202 202 202 202 202 202 158 92 22 2 2 37 105 178 199 202 202 202 202 202 202 202 202 202 202
202 202 202 202 202 202 202 202 202 202 202 202 201 178 104 27 1 19 94 171 199 202 202 202 202 202 202 202 202 202 202 202 202 202 202 202 202 202 202 202 202 202 202 202 202 194 141 66 15 0 3 59 134 198 202 202 202 202 202 202 202 202 202 202
202 202 202 202 202 202 202 202 202 202 202 202 202 184 116 33 2 15 80 167 199 202 202 202 202 202 202 202 202 202 202 202 202 202 202 202 202 202 202 202 202 202 202 202 202 202 179 122 41 7 1 10 87 159 201 202 202 202 202 202 202 202 202 202
202 202 202 202 202 202 202 202 202 202 202 202 202 192 130 44 4 8 68 155 198 202 202 202 202 202 202 202 202 202 202 202 202 202 202 202 202 202 202 202 202 202 202 202 202 202 202 163 94 11 1 3 34 116 181 202 202 202 202 202 202 202 202 202
202 202 202 202 202 202 202 202 202 202 202 202 202 194 143 50 5 4 54 147 194 202 202 202 202 202 202 202 202 202 202 202 202 202 202 202 202 202 202 202 202 202 202 202 202 202 202 201 140 65 5 0 9 69 148 198 202 202 202 202 202 202 202 202
202 202 202 202 202 202 202 202 202 202 202 202 202 198 155 68 7 1 42 128 188 202 202 202 202 202 202 202 202 202 202 202 202 202 202 202 202 202 202 202 202 202 202 202 202 202 202 202 185 114 38 2 3 30 110 171 202 202 202 202 202 202 202 202
202 202 202 202 202 202 202 202 202 202 202 202 202 199 168 89 23 7 35 120 183 200 202 202 202 202 202 202 202 202 202 202 202 202 202 202 202 202 202 202 202 202 202 202 202 202 202 202 198 157 78 12 0 15 62 144 187 202 202 202 202 202 202 202
202 202 202 202 202 202 202 202 202 202 202 202 202 202 183 121 57 19 53 124 183 200 202 202 202 202 202 202 202 202 202 202 202 202 202 202 202 202 202 202 202 202 202 202 202 202 202 202 201 185 116 44 0 1 35 101 181 199 202 202 202 202 202 202
202 202 202 202 202 202 202 202 202 202 202 202 202 202 194 164 109 82 96 156 189 201 202 202 202 202 202 202 202 202 202 202 202 202 202 202 202 202 201 202 199 200 201 200 201 202 202 202 202 193 159 77 23 0 4 69 148 198 202 202 202 202 202 202
202 202 202 202 202 202 202 202 202 202 202 202 202 202 202 189 169 151 163 182 198 202 202 202 202 202 202 202 202 202 202 202 202 202 202 198 196 185 179 171 170 171 169 180 188 191 191 198 202 200 179 124 37 6 3 36 123 183 202 202 202 202 202 202
202 202 202 202 202 202 202 202 202 202 202 202 202 202 202 202 195 191 194 198 202 202 202 202 202 202 202 202 202 202 202 202 202 194 184 167 142 120 97 88 80 82 89 105 124 133 145 160 173 190 194 151 75 7 0 19 84 163 198 202 202 202 202 202
202 202 202 202 202 202 202 202 202 202 202 202 202 202 202 202 202 202 201 202 202 202 202 202 202 202 202 202 202 202 202 201 176 151 118 85 55 31 24 12 11 13 17 28 45 51 54 74 104 124 145 156 101 31 1 6 50 132 188 202 202 202 202 202
202 202 202 202 202 202 202 202 202 202 202 202 202 202 202 202 202 202 202 202 202 202 202 202 202 202 202 202 202 202 202 163 117 66 37 19 4 2 0 0 0 0 0 6 14 6 5 15 24 37 58 92 89 54 7 1 27 97 177 200 202 202 202 202
202 202 202 202 202 202 202 202 202 202 202 202 202 202 202 202 202 202 202 202 202 202 202 202 202 202 202 202 202 199 175 114 39 12 2 0 0 6 7 7 11 14 24 27 30 15 6 1 1 1 9 15 52 42 18 0 6 71 155 201 202 202 202 202
202 202 202 202 202 202 202 202 202 202 202 202 202 202 202 202 202 202 202 202 202 202 202 202 202 202 202 202 201 194 139 55 13 0 0 9 27 51 68 73 73 82 96 105 97 70 46 31 11 0 0 0 11 27 11 1 5 41 138 190 202 202 202 202
202 202 202 202 202 202 202 202 202 202 202 202 202 202 202 202 202 202 202 202 202 202 202 202 202 202 202 202 200 171 104 25 0 0 15 45 97 139 156 170 163 167 175 183 175 151 135 105 61 29 6 0 0 6 6 0 0 32 109 189 201 202 202 202
202 202 202 202 202 202 202 202 202 202 202 202 202 202 202 202 202 202 202 202 202 202 202 202 202 202 202 202 195 148 62 12 0 17 48 118 167 190 200 198 198 202 200 202 199 198 190 175 149 99 59 27 1 0 1 0 0 9 89 167 202 202 202 202
202 202 202 202 202 202 202 202 202 202 202 202 202 202 202 202 202 202 202 202 202 202 202 202 202 202 202 202 176 112 34 1 7 48 122 171 199 202 202 202 202 202 202 202 202 202 202 202 193 173 143 82 31 2 0 0 0 11 64 159 196 202 202 202
202 202 202 202 202 202 202 202 202 202 202 202 202 202 202 202 202 202 202 202 202 202 202 202 202 202 202 195 155 69 13 0 27 93 163 200 202 202 202 202 202 202 202 202 202 202 202 202 202 202 186 147 78 17 1 0 0 4 61 148 199 202 202 202
202 202 202 202 202 202 202 202 202 202 202 202 202 202 202 202 202 202 202 202 202 202 202 202 202 202 202 186 128 46 0 5 50 136 190 202 202 202 202 202 202 202 202 202 202 202 202 202 202 202 201 186 131 65 6 1 0 6 52 150 194 202 202 202
202 202 202 202 202 202 202 202 202 202 202 202 202 202 202 202 202 202 202 202 202 202 202 202 202 202 200 177 99 24 3 23 89 164 201 202 202 202 202 202 202 202 202 202 202 202 202 202 202 202 202 197 183 121 60 14 0 4 54 143 198 202 202 202
202 202 202 202 202 202 202 202 202 202 202 202 202 202 202 202 202 202 202 202 202 202 202 202 202 202 198 164 78 9 4 38 122 188 202 202 202 202 202 202 202 202 202 202 202 202 202 202 202 202 202 202 195 172 120 43 7 6 46 139 191 202 202 202
202 202 202 202 202 202 202 202 202 202 202 202 202 202 202 202 202 202 202 202 202 202 202 202 202 202 195 149 55 9 9 54 142 194 202 202 202 202 202 202 202 202 202 202 202 202 202 202 202 202 202 202 201 191 123 53 8 10 63 146 194 202 202 202
202 202 202 202 202 202 202 202 202 202 202 202 202 202 202 202 202 202 202 202 202 202 202 202 202 202 196 144 56 6 3 59 142 194 202 202 202 202 202 202 202 202 202 202 202 202 202 202 202 202 202 202 191 148 87 24 7 19 89 167 197 202 202 202
202 202 202 202 202 202 202 202 202 202 202 202 202 202 202 202 202 202 202 202 202 202 202 202 202 202 191 147 58 10 8 44 131 183 202 202 202 202 202 202 202 202 202 202 202 202 202 202 202 202 202 193 164 95 26 7 4 45 120 186 202 202 202 202
202 202 202 202 202 202 202 202 202 202 202 202 202 202 202 202 202 202 202 202 202 202 202 202 202 202 196 149 72 6 1 30 92 168 197 202 202 202 202 202 202 202 202 202 202 202 202 202 202 202 193 172 106 42 9 1 12 73 159 194 202 202 202 202
202 202 202 202 202 202 202 202 202 202 202 202 202 202 202 202 202 202 202 202 202 202 202 202 202 202 197 168 88 27 0 5 54 128 185 202 202 202 202 202 202 202 202 202 202 202 202 202 198 188 157 105 51 6 0 5 56 124 179 202 202 202 202 202
202 202 202 202 202 202 202 202 202 202 202 202 202 202 202 202 202 202 202 202 202 202 202 202 202 202 202 181 128 47 9 0 23 83 160 194 202 202 202 202 202 202 202 202 202 202 202 193 183 139 88 41 3 0 7 43 109 175 196 202 202 202 202 202
202 202 202 202 202 202 202 202 202 202 202 202 202 202 202 202 202 202 202 202 202 202 202 202 202 202 202 201 163 93 26 0 2 43 110 179 195 202 202 202 202 202 202 202 202 202 182 164 116 70 25 3 0 7 21 94 167 193 202 202 202 202 202 202
202 202 202 202 202 202 202 202 202 202 202 202 202 202 202 202 202 202 202 202 202 202 202 202 202 202 202 202 190 140 59 12 0 3 55 114 167 195 200 200 202 201 201 198 192 167 132 85 48 9 1 0 12 35 93 151 191 202 202 202 202 202 202 202
202 202 202 202 202 202 202 202 202 202 202 202 202 202 202 202 202 202 202 202 202 202 202 202 202 202 202 202 202 173 112 31 6 0 9 41 97 144 170 181 181 183 180 163 140 101 54 27 1 0 4 18 55 113 157 198 202 202 202 202 202 202 202 202
202 202 202 202 202 202 202 202 202 202 202 202 202 202 202 202 202 202 202 202 202 202 202 202 202 202 202 202 202 202 155 87 14 3 0 8 23 56 81 89 110 117 105 84 58 30 13 0 0 12 26 76 132 172 202 202 202 202 202 202 202 202 202 202
202 202 202 202 202 202 202 202 202 202 202 202 202 202 202 202 202 202 202 202 202 202 202 202 202 202 202 202 202 202 196 141 70 19 0 0 1 8 3 15 26 33 28 16 7 2 0 2 27 52 101 147 185 202 202 202 202 202 202 202 202 202 202 202
202 202 202 202 202 202 202 202 202 202 202 202 202 202 202 202 202 202 202 202 202 202 202 202 202 202 202 202 202 202 202 183 137 60 26 3 0 0 0 0 0 3 1 1 2 6 17 46 84 134 166 198 202 202 202 202 202 202 202 202 202 202 202 202
202 202 202 202 202 202 202 202 202 202 202 202 202 202 202 202 202 202 202 202 202 202 202 202 202 202 202 202 202 202 202 201 176 140 90 58 37 7 3 3 11 15 20 26 34 54 81 117 161 182 202 202 202 202 202 202 202 202 202 202 202 202 202 202
202 202 202 202 202 202 202 202 202 202 202 202 202 202 202 202 202 202 202 202 202 202 202 202 202 202 202 202 202 202 202 202 202 186 168 150 120 82 62 59 71 89 95 101 115 138 160 183 193 202 202 202 202 202 202 202 202 202 202 202 202 202 202 202
202 202 202 202 202 202 202 202 202 202 202 202 202 202 202 202 202 202 202 202 202 202 202 202 202 202 202 202 202 202 202 202 202 201 199 195 184 171 159 151 167 170 176 175 182 192 198 201 202 202 202 202 202 202 202 202 202 202 202 202 202 202 202 202
202 202 202 202 202 202 202 202 202 202 202 202 202 202 202 202 202 202 202 202 202 202 202 202 202 202 202 202 202 202 202 202 202 202 202 202 202 200 196 198 198 200 200 200 202 202 202 202 202 202 202 202 202 202 202 202 202 202 202 202 202 202 202 202
202 202 202 202 202 202 202 202 202 202 202 202 202 202 202 202 202 202 202 202 202 202 202 202 202 202 202 202 202 202 202 202 202 202 202 202 202 202 202 202 202 202 202 202 202 202 202 202 202 202 202 202 202 202 202 202 202 202 202 202 202 202 202 202
202 202 202 202 202 202 202 202 202 202 202 202 202 202 202 202 202 202 202 202 202 202 202 202 202 202 202 202 202 202 202 202 202 202 202 202 202 202 202 202 202 202 202 202 202 202 202 202 202 202 202 202 202 202 202 202 202 202 202 202 202 202 202 202
