P2
64 64
255
255 255 255 255 255 255 255 255 255 255 255 255 255 255 255 255 255 255 255 255 255 255 255 255 255 255 255 255 245 224 196 193 196 232 255 255 255 255 255 255 255 255 255 255 255 255 255 255 255 255 255 255 255 255 255 255 255 255 255 255 255 255 255 255
255 255 255 255 255 255 255 255 255 255 255 255 255 255 255 255 255 255 255 255 255 255 255 255 255 253 205 146 109 70 62 46 62 75 126 178 236 255 255 255 255 255 255 255 255 255 255 255 255 255 255 255 255 255 255 255 255 255 255 255 255 255 255 255
255 255 255 255 255 255 255 255 255 255 255 255 255 255 255 255 255 255 255 255 255 255 255 255 210 126 49 39 5 7 2 5 3 7 16 33 98 202 255 255 255 255 255 255 255 255 255 255 255 255 255 255 255 255 255 255 255 255 255 255 255 255 255 255
255 255 255 255 255 255 255 255 255 255 255 255 255 255 255 255 255 255 255 255 255 255 253 172 78 11 5 1 1 9 5 26 15 11 1 1 16 84 191 255 255 255 255 255 255 255 255 255 255 255 255 255 255 255 255 255 255 255 255 255 255 255 255 255
255 255 255 255 255 255 255 255 255 255 255 255 255 255 255 255 255 255 255 255 255 228 131 35 6 0 3 14 54 72 111 127 126 83 22 2 0 14 68 184 255 255 255 255 255 255 255 255 255 255 255 255 255 255 255 255 255 255 255 255 255 255 255 255
255 255 255 255 255 255 255 255 255 255 255 255 255 255 255 255 255 255 255 255 241 106 10 3 1 9 62 128 175 230 250 255 255 215 123 54 16 1 6 78 197 255 255 255 255 255 255 255 255 255 255 255 255 255 255 255 255 255 255 255 255 255 255 255
255 255 255 255 255 255 255 255 255 255 255 255 255 255 255 255 255 255 255 255 123 27 1 1 11 109 196 255 255 255 255 255 255 255 255 193 97 13 0 18 96 252 255 255 255 255 255 255 255 255 255 255 255 255 255 255 255 255 255 255 255 255 255 255
255 255 255 255 255 255 255 255 255 255 255 255 255 255 255 255 255 255 255 193 52 0 0 29 133 236 255 255 255 255 255 255 255 255 255 255 205 62 6 0 44 197 255 255 255 255 255 255 255 255 255 255 255 255 255 255 255 255 255 255 255 255 255 255
255 255 255 255 255 255 255 255 255 255 255 255 255 255 255 255 255 255 255 105 13 0 27 101 244 255 255 255 255 255 255 255 255 255 255 255 255 148 29 0 23 132 255 255 255 255 255 255 255 255 255 255 255 255 255 255 255 255 255 255 255 255 255 255
255 255 255 255 255 255 255 255 255 255 255 255 255 255 255 255 255 255 185 46 2 22 101 227 255 255 255 255 255 255 255 255 255 255 255 255 255 235 74 6 1 75 234 255 255 255 255 255 255 255 255 255 255 255 255 255 255 255 255 255 255 255 255 255
255 255 255 255 255 255 255 255 255 255 255 255 255 255 255 255 255 243 74 7 1 87 217 255 255 255 255 255 255 255 255 255 255 255 255 255 255 255 166 44 1 42 172 255 255 255 255 255 255 255 255 255 255 255 255 255 255 255 255 255 255 255 255 255
255 255 255 255 255 255 255 255 255 255 255 255 255 255 255 255 255 163 27 0 20 149 255 255 255 255 255 255 255 255 255 255 255 255 255 255 255 255 244 76 1 5 131 255 255 255 255 255 255 255 255 255 255 255 255 255 255 255 255 255 255 255 255 255
255 255 255 255 255 255 255 255 255 255 255 255 255 255 255 255 255 84 0 0 40 219 255 255 255 255 255 255 255 255 255 255 255 255 255 255 255 255 255 135 20 6 104 255 255 255 255 255 255 255 255 255 255 255 255 255 255 255 255 255 255 255 255 255
255 255 255 255 255 255 255 255 255 255 255 255 255 255 255 255 245 62 0 0 92 255 255 255 255 255 255 255 255 255 255 255 255 255 255 255 255 255 255 176 19 3 72 255 255 255 255 255 255 255 255 255 255 255 255 255 255 255 255 255 255 255 255 255
255 255 255 255 255 255 255 255 255 255 255 255 255 255 255 255 215 37 0 18 146 255 255 255 255 255 255 255 255 255 255 255 255 255 255 255 255 255 255 198 44 1 71 236 255 255 255 255 255 255 255 255 255 255 255 255 255 255 255 255 255 255 255 255
255 255 255 255 255 255 255 255 255 255 255 255 255 255 255 255 162 22 0 54 227 255 255 255 255 255 255 255 255 255 255 255 255 255 255 255 255 255 255 222 49 2 53 237 255 255 255 255 255 255 255 255 255 255 255 255 255 255 255 255 255 255 255 255
255 255 255 255 255 255 255 255 255 255 255 255 255 255 255 255 132 6 5 89 255 255 255 255 255 255 255 255 255 255 255 255 255 255 255 255 255 255 255 222 53 6 71 247 255 255 255 255 255 255 255 255 255 255 255 255 255 255 255 255 255 255 255 255
255 255 255 255 255 255 255 255 255 255 255 255 255 255 255 255 102 6 22 150 255 255 255 255 255 255 255 255 255 255 255 255 255 255 255 255 255 255 255 219 63 16 110 255 255 255 255 255 255 255 255 255 255 255 255 255 255 255 255 255 255 255 255 255
255 255 255 255 255 255 255 255 255 255 255 255 255 255 255 252 85 6 40 195 255 255 255 255 255 255 255 255 255 255 255 255 255 255 255 255 255 255 255 159 45 28 150 255 255 255 255 255 255 255 255 255 255 255 255 255 255 255 255 255 255 255 255 255
255 255 255 255 255 255 255 255 255 255 255 255 255 255 255 249 58 2 40 217 255 255 255 255 255 255 255 255 255 255 255 255 255 255 255 255 255 255 210 75 9 33 171 255 255 255 255 255 255 255 255 255 255 255 255 255 255 255 255 255 255 255 255 255
255 255 255 255 255 255 255 255 255 255 255 255 255 255 255 239 72 2 48 205 255 255 255 255 255 255 255 255 255 255 255 255 255 255 255 255 255 234 96 20 0 42 187 255 255 255 255 255 255 255 255 255 255 255 255 255 255 255 255 255 255 255 255 255
255 255 255 255 255 255 255 255 255 255 255 255 255 255 255 255 63 1 26 197 255 255 255 255 255 255 255 255 255 255 255 255 255 255 255 255 243 133 31 0 3 49 137 152 169 223 255 255 255 255 255 255 255 255 255 255 255 255 255 255 255 255 255 255
255 255 255 255 255 255 255 255 255 255 255 255 255 255 255 188 49 1 32 176 255 255 255 255 255 255 255 255 255 255 255 255 255 255 255 210 122 18 1 0 2 27 31 24 23 81 196 255 255 255 255 255 255 255 255 255 255 255 255 255 255 255 255 255
255 255 255 255 255 255 255 255 255 255 255 255 255 255 255 100 6 0 14 154 255 255 255 255 255 255 255 255 255 255 255 255 255 255 172 71 10 2 0 0 0 1 2 0 0 14 72 161 241 255 255 255 255 255 255 255 255 255 255 255 255 255 255 255
255 255 255 255 255 255 255 255 255 255 255 255 255 255 206 50 0 0 9 141 255 255 255 255 255 255 255 255 255 255 255 255 255 184 35 3 0 0 0 0 11 10 19 3 0 0 5 35 122 243 255 255 255 255 255 255 255 255 255 255 255 255 255 255
255 255 255 255 255 255 255 255 255 255 255 255 255 255 211 50 0 0 9 110 255 255 255 255 255 255 255 255 255 255 255 255 219 78 9 0 0 1 2 57 80 113 113 94 53 23 9 5 39 131 255 255 255 255 255 255 255 255 255 255 255 255 255 255
255 255 255 255 255 255 255 255 255 255 255 255 255 255 255 92 14 0 1 80 230 255 255 255 255 255 255 255 255 255 255 205 105 10 0 0 5 33 117 180 240 250 255 243 201 128 55 3 2 32 175 255 255 255 255 255 255 255 255 255 255 255 255 255
255 255 255 255 255 255 255 255 255 255 255 255 255 255 255 189 65 1 0 28 115 240 255 255 255 255 255 255 255 249 170 75 9 1 6 14 84 182 250 255 255 255 255 255 255 255 166 53 3 6 91 224 255 255 255 255 255 255 255 255 255 255 255 255
255 255 255 255 255 255 255 255 255 255 255 255 255 255 255 255 148 23 1 0 28 132 239 255 255 255 255 237 184 120 32 6 0 6 35 136 224 255 255 255 255 255 255 255 255 255 255 143 22 0 23 136 255 255 255 255 255 255 255 255 255 255 255 255
255 255 255 255 255 255 255 255 255 255 255 255 255 255 255 255 244 115 22 0 5 41 113 171 192 167 128 78 58 7 2 2 9 70 171 255 255 255 255 255 255 255 255 255 255 255 255 231 84 14 2 74 214 255 255 255 255 255 255 255 255 255 255 255
255 255 255 255 255 255 255 255 255 255 255 255 255 255 255 255 255 230 92 26 3 2 22 50 53 40 16 10 1 0 6 16 111 204 255 255 255 255 255 255 255 255 255 255 255 255 255 255 176 46 1 28 165 255 255 255 255 255 255 255 255 255 255 255
255 255 255 255 255 255 255 255 255 255 255 255 255 255 255 255 255 255 227 140 67 24 10 10 2 1 0 0 5 22 63 154 237 255 255 255 255 255 255 255 255 255 255 255 255 255 255 255 249 89 10 10 145 255 255 255 255 255 255 255 255 255 255 255
255 255 255 255 255 255 255 255 255 255 255 255 255 255 255 255 255 255 255 255 189 106 71 31 7 0 0 1 28 124 205 255 255 255 255 255 255 255 255 255 255 255 255 255 255 255 255 255 255 131 14 16 132 255 255 255 255 255 255 255 255 255 255 255
255 255 255 255 255 255 255 255 255 255 255 255 255 255 255 255 255 255 255 255 255 252 191 124 23 1 0 15 117 240 255 255 255 255 255 255 255 255 255 255 255 255 255 255 255 255 255 255 255 137 10 7 131 255 255 255 255 255 255 255 255 255 255 255
255 255 255 255 255 255 255 255 255 255 255 255 255 255 255 255 255 255 255 255 255 255 240 91 10 0 5 37 204 255 255 255 255 255 255 255 255 255 255 255 255 255 255 255 255 255 255 255 255 143 16 14 131 255 255 255 255 255 255 255 255 255 255 255
255 255 255 255 255 255 255 255 255 255 255 255 255 255 255 255 255 255 255 255 255 255 158 41 0 0 37 152 255 255 255 255 255 255 255 255 255 255 255 255 255 255 255 255 255 255 255 255 255 127 7 6 141 255 255 255 255 255 255 255 255 255 255 255
255 255 255 255 255 255 255 255 255 255 255 255 255 255 255 255 255 255 255 255 255 206 59 3 0 29 107 247 255 255 255 255 255 255 255 255 255 255 255 255 255 255 255 255 255 255 255 255 255 97 9 22 159 255 255 255 255 255 255 255 255 255 255 255
255 255 255 255 255 255 255 255 255 255 255 255 255 255 255 255 255 255 255 255 255 109 19 2 24 105 234 255 255 255 255 255 255 255 255 255 255 255 255 255 255 255 255 255 255 255 255 255 239 58 0 22 178 255 255 255 255 255 255 255 255 255 255 255
255 255 255 255 255 255 255 255 255 255 255 255 255 255 255 255 255 255 255 255 200 33 0 6 107 232 255 255 255 255 255 255 255 255 255 255 255 255 255 255 255 255 255 255 255 255 255 255 189 36 0 48 213 255 255 255 255 255 255 255 255 255 255 255
255 255 255 255 255 255 255 255 255 255 255 255 255 255 255 255 255 255 255 255 133 13 0 40 193 255 255 255 255 255 255 255 255 255 255 255 255 255 255 255 255 255 255 255 255 255 255 255 150 15 3 72 252 255 255 255 255 255 255 255 255 255 255 255
255 255 255 255 255 255 255 255 255 255 255 255 255 255 255 255 255 255 255 255 102 5 1 84 255 255 255 255 255 255 255 255 255 255 255 255 255 255 255 255 255 255 255 255 255 255 255 255 110 6 7 107 255 255 255 255 255 255 255 255 255 255 255 255
255 255 255 255 255 255 255 255 255 255 255 255 255 255 255 255 255 255 255 255 84 0 1 123 255 255 255 255 255 255 255 255 255 255 255 255 255 255 255 255 255 255 255 255 255 255 255 255 97 6 29 159 255 255 255 255 255 255 255 255 255 255 255 255
255 255 255 255 255 255 255 255 255 255 255 255 255 255 255 255 255 255 255 255 94 2 22 161 255 255 255 255 255 255 255 255 255 255 255 255 255 255 255 255 255 255 255 255 255 255 255 236 83 20 63 222 255 255 255 255 255 255 255 255 255 255 255 255
255 255 255 255 255 255 255 255 255 255 255 255 255 255 255 255 255 255 255 255 93 1 11 162 255 255 255 255 255 255 255 255 255 255 255 255 255 255 255 255 255 255 255 255 255 255 255 180 44 29 124 255 255 255 255 255 255 255 255 255 255 255 255 255
255 255 255 255 255 255 255 255 255 255 255 255 255 255 255 255 255 255 255 255 106 10 9 122 255 255 255 255 255 255 255 255 255 255 255 255 255 255 255 255 255 255 255 255 255 255 255 110 11 19 169 255 255 255 255 255 255 255 255 255 255 255 255 255
255 255 255 255 255 255 255 255 255 255 255 255 255 255 255 255 255 255 255 255 149 10 3 58 224 255 255 255 255 255 255 255 255 255 255 255 255 255 255 255 255 255 255 255 255 255 236 74 9 49 205 255 255 255 255 255 255 255 255 255 255 255 255 255
255 255 255 255 255 255 255 255 255 255 255 255 255 255 255 255 255 255 255 255 197 45 1 26 153 255 255 255 255 255 255 255 255 255 255 255 255 255 255 255 255 255 255 255 255 255 184 40 7 84 250 255 255 255 255 255 255 255 255 255 255 255 255 255
255 255 255 255 255 255 255 255 255 255 255 255 255 255 255 255 255 255 255 255 254 105 3 9 76 234 255 255 255 255 255 255 255 255 255 255 255 255 255 255 255 255 255 255 255 255 118 18 10 136 255 255 255 255 255 255 255 255 255 255 255 255 255 255
255 255 255 255 255 255 255 255 255 255 255 255 255 255 255 255 255 255 255 255 255 166 29 0 29 167 255 255 255 255 255 255 255 255 255 255 255 255 255 255 255 255 255 255 255 236 76 6 45 187 255 255 255 255 255 255 255 255 255 255 255 255 255 255
255 255 255 255 255 255 255 255 255 255 255 255 255 255 255 255 255 255 255 255 255 236 91 3 11 89 241 255 255 255 255 255 255 255 255 255 255 255 255 255 255 255 255 255 255 159 39 6 91 247 255 255 255 255 255 255 255 255 255 255 255 255 255 255
255 255 255 255 255 255 255 255 255 255 255 255 255 255 255 255 255 255 255 255 255 255 153 19 0 28 170 255 255 255 255 255 255 255 255 255 255 255 255 255 255 255 255 255 230 76 6 19 139 255 255 255 255 255 255 255 255 255 255 255 255 255 255 255
255 255 255 255 255 255 255 255 255 255 255 255 255 255 255 255 255 255 255 255 255 255 226 84 3 9 79 211 255 255 255 255 255 255 255 255 255 255 255 255 255 255 255 255 123 26 1 48 196 255 255 255 255 255 255 255 255 255 255 255 255 255 255 255
255 255 255 255 255 255 255 255 255 255 255 255 255 255 255 255 255 255 255 255 255 255 255 156 11 0 6 102 224 255 255 255 255 255 255 255 255 255 255 255 255 255 249 150 40 2 9 113 255 255 255 255 255 255 255 255 255 255 255 255 255 255 255 255
255 255 255 255 255 255 255 255 255 255 255 255 255 255 255 255 255 255 255 255 255 255 255 235 96 13 1 28 96 200 255 255 255 255 255 255 255 255 255 255 255 252 132 23 5 2 63 202 255 255 255 255 255 255 255 255 255 255 255 255 255 255 255 255
255 255 255 255 255 255 255 255 255 255 255 255 255 255 255 255 255 255 255 255 255 255 255 255 198 63 5 0 7 78 188 255 255 255 255 255 255 255 255 255 255 137 35 5 1 18 148 255 255 255 255 255 255 255 255 255 255 255 255 255 255 255 255 255
255 255 255 255 255 255 255 255 255 255 255 255 255 255 255 255 255 255 255 255 255 255 255 255 255 184 81 23 2 19 74 153 218 255 255 255 255 255 255 254 158 55 0 0 18 118 245 255 255 255 255 255 255 255 255 255 255 255 255 255 255 255 255 255
255 255 255 255 255 255 255 255 255 255 255 255 255 255 255 255 255 255 255 255 255 255 255 255 255 255 208 93 15 2 6 29 72 145 231 255 255 245 187 128 48 2 0 20 80 219 255 255 255 255 255 255 255 255 255 255 255 255 255 255 255 255 255 255
255 255 255 255 255 255 255 255 255 255 255 255 255 255 255 255 255 255 255 255 255 255 255 255 255 255 255 209 110 41 6 2 3 36 84 123 136 97 65 7 3 1 24 85 202 255 255 255 255 255 255 255 255 255 255 255 255 255 255 255 255 255 255 255
255 255 255 255 255 255 255 255 255 255 255 255 255 255 255 255 255 255 255 255 255 255 255 255 255 255 255 255 234 141 52 5 0 1 3 22 22 20 1 0 6 16 111 222 255 255 255 255 255 255 255 255 255 255 255 255 255 255 255 255 255 255 255 255
255 255 255 255 255 255 255 255 255 255 255 255 255 255 255 255 255 255 255 255 255 255 255 255 255 255 255 255 255 255 170 74 27 11 3 9 5 6 3 32 53 139 231 255 255 255 255 255 255 255 255 255 255 255 255 255 255 255 255 255 255 255 255 255
255 255 255 255 255 255 255 255 255 255 255 255 255 255 255 255 255 255 255 255 255 255 255 255 255 255 255 255 255 255 255 218 145 88 70 59 71 62 88 135 201 255 255 255 255 255 255 255 255 255 255 255 255 255 255 255 255 255 255 255 255 255 255 255
255 255 255 255 255 255 255 255 255 255 255 255 255 255 255 255 255 255 255 255 255 255 255 255 255 255 255 255 255 255 255 255 255 247 209 211 210 211 227 255 255 255 255 255 255 255 255 255 255 255 255 255 255 255 255 255 255 255 255 255 255 255 255 255
255 255 255 255 255 255 255 255 255 255 255 255 255 255 255 255 255 255 255 255 255 255 255 255 255 255 255 255 255 255 255 255 255 255 255 255 255 255 255 255 255 255 255 255 255 255 255 255 255 255 255 255 255 255 255 255 255 255 255 255 255 255 255 255
255 255 255 255 255 255 255 255 255 255 255 255 255 255 255 255 255 255 255 255 255 255 255 255 255 255 255 255 255 255 255 255 255 255 255 255 255 255 255 255 255 255 255 255 255 255 255 255 255 255 255 255 255 255 255 255 255 255 255 255 255 255 255 255
