P2
64 64
255
241 241 241 241 241 241 241 241 241 241 241 241 241 241 241 241 241 241 241 241 241 241 241 241 241 241 241 241 241 241 241 241 241 241 241 241 241 241 241 241 241 241 241 241 241 241 241 241 241 241 241 241 241 241 241 241 241 241 241 241 241 241 241 241
241 241 241 241 241 241 241 241 241 241 241 241 241 241 241 241 241 241 241 241 241 241 241 241 241 241 241 241 241 241 241 241 241 241 241 241 241 241 241 241 241 241 241 241 241 241 241 241 241 241 241 241 241 241 241 241 241 241 241 241 241 241 241 241
241 241 241 241 241 241 241 241 241 241 241 241 241 241 241 241 241 241 241 241 241 241 241 241 241 241 241 241 241 241 241 241 241 241 241 241 241 241 241 241 241 241 241 241 241 241 241 241 241 241 241 241 241 241 241 241 241 241 241 241 241 241 241 241
241 241 241 241 241 241 241 241 241 241 241 241 241 241 241 241 241 241 241 241 241 241 241 241 241 241 241 241 241 241 241 241 241 241 241 241 241 241 241 241 241 241 241 241 241 241 241 241 241 241 241 241 241 241 241 241 241 241 241 241 241 241 241 241
241 241 241 241 241 241 241 241 241 241 241 241 241 241 241 241 241 241 241 241 241 241 241 241 241 241 241 241 241 241 241 241 241 241 241 241 241 241 241 241 241 241 241 241 241 241 241 241 241 241 241 241 241 241 241 241 241 241 241 241 241 241 241 241
241 241 241 241 241 241 241 241 241 241 241 241 241 241 241 241 241 241 241 241 241 241 241 241 241 241 241 241 241 241 241 241 241 241 241 241 241 241 241 241 241 241 241 241 241 241 241 241 241 241 241 241 241 241 241 241 241 241 241 241 241 241 241 241
241 241 241 241 241 241 241 241 241 241 241 241 241 241 241 241 241 241 241 241 241 241 241 241 241 241 241 241 241 241 241 241 241 241 241 241 241 241 241 241 241 241 241 241 241 241 241 241 241 241 241 241 241 241 241 241 241 241 241 241 241 241 241 241
241 241 241 241 241 241 241 241 241 241 241 241 241 241 241 241 241 241 241 241 241 241 241 241 241 241 241 241 241 241 241 241 241 241 241 241 241 241 241 241 241 241 241 241 241 241 241 241 241 241 241 241 241 241 241 241 241 241 241 241 241 241 241 241
241 241 241 241 241 241 241 241 241 241 241 241 241 241 241 241 241 241 241 241 241 241 241 241 241 241 241 241 241 241 241 241 241 241 241 241 241 241 241 241 241 241 241 241 241 241 241 241 241 241 241 241 241 241 241 241 241 241 241 241 241 241 241 241
241 241 241 241 241 241 241 241 241 241 241 241 241 241 241 241 241 241 241 241 241 241 241 241 241 241 241 241 241 241 241 241 241 241 241 241 241 241 241 241 241 241 241 241 241 241 241 241 241 241 241 241 241 241 241 241 241 241 241 241 241 241 241 241
241 241 241 241 241 241 241 241 241 241 241 241 241 241 241 241 241 241 241 241 241 241 241 241 241 241 241 241 241 241 241 240 241 240 241 241 240 241 241 241 241 241 241 241 241 241 241 241 241 241 241 241 241 241 241 241 241 241 241 241 241 241 241 241
241 241 241 241 241 241 241 241 241 241 241 241 241 241 241 241 241 241 241 241 241 241 241 241 241 241 240 241 240 240 238 238 235 234 231 229 237 235 240 240 240 241 241 241 241 241 241 241 241 241 241 241 241 241 241 241 241 241 241 241 241 241 241 241
241 241 241 241 241 241 241 241 241 241 241 241 241 241 241 241 241 241 241 241 241 241 241 241 241 241 240 238 238 224 210 199 184 184 173 176 177 196 210 221 240 240 240 241 241 241 241 241 241 241 241 241 241 241 241 241 241 241 241 241 241 241 241 241
241 241 241 241 241 241 241 241 241 241 241 241 241 241 241 241 241 241 241 241 241 241 241 241 241 238 235 219 195 165 116 93 75 72 72 65 78 96 126 163 189 219 240 240 241 241 241 241 241 241 241 241 241 241 241 241 241 241 241 241 241 241 241 241
241 241 241 241 241 241 241 241 241 241 241 241 241 241 241 241 241 241 241 241 241 241 241 240 238 226 194 161 107 66 30 8 7 10 0 10 7 21 40 60 104 153 189 226 240 240 241 241 241 241 241 241 241 241 241 241 241 241 241 241 241 241 241 241
241 241 241 241 241 241 241 241 241 241 241 241 241 241 241 241 241 241 241 241 241 241 239 235 212 176 118 66 31 3 2 0 0 1 3 4 0 0 0 13 25 56 110 164 201 235 239 240 241 241 241 241 241 241 241 241 241 241 241 241 241 241 241 241
241 241 241 241 241 241 241 241 241 241 241 241 241 241 241 241 241 241 241 241 240 240 227 198 152 90 44 6 2 2 4 1 18 27 46 42 35 19 1 0 0 13 27 72 130 181 216 240 241 241 241 241 241 241 241 241 241 241 241 241 241 241 241 241
241 241 241 241 241 241 241 241 241 241 241 241 241 241 241 241 241 241 241 241 240 222 195 126 70 20 6 1 9 20 46 71 89 127 144 150 120 83 56 20 2 0 2 18 36 96 172 220 237 241 241 241 241 241 241 241 241 241 241 241 241 241 241 241
241 241 241 241 241 241 241 241 241 241 241 241 241 241 241 241 241 241 241 240 229 190 123 59 9 2 4 7 50 97 145 177 198 214 232 217 205 182 140 95 53 9 0 0 7 37 98 181 232 240 241 241 241 241 241 241 241 241 241 241 241 241 241 241
241 241 241 241 241 241 241 241 241 241 241 241 241 241 241 241 241 241 240 239 191 128 51 18 0 4 24 72 126 188 214 236 237 238 240 240 240 228 218 181 124 63 20 0 0 0 47 136 216 236 241 241 241 241 241 241 241 241 241 241 241 241 241 241
241 241 241 241 241 241 241 241 241 241 241 241 241 241 241 241 241 240 236 201 142 59 19 0 0 35 84 153 200 229 241 240 241 241 241 241 241 241 238 225 206 138 58 10 0 0 17 73 171 229 240 241 241 241 241 241 241 241 241 241 241 241 241 241
241 241 241 241 241 241 241 241 241 241 241 241 241 241 241 241 241 234 212 150 75 20 0 1 31 80 157 206 238 239 241 241 241 241 241 241 241 241 241 241 231 197 129 47 3 0 0 44 142 219 238 241 241 241 241 241 241 241 241 241 241 241 241 241
241 241 241 241 241 241 241 241 241 241 241 241 241 241 241 241 235 222 154 86 17 5 1 16 78 149 209 235 240 241 241 241 241 241 241 241 241 241 241 241 240 235 181 83 13 0 1 34 127 215 238 241 241 241 241 241 241 241 241 241 241 241 241 241
241 241 241 241 241 241 241 241 241 241 241 241 241 241 241 240 223 170 96 26 3 2 7 70 139 213 231 240 241 241 241 241 241 241 241 241 241 241 241 241 241 239 211 133 44 5 5 42 143 215 240 241 241 241 241 241 241 241 241 241 241 241 241 241
241 241 241 241 241 241 241 241 241 241 241 241 241 241 241 229 195 115 45 3 0 14 60 132 199 230 241 241 241 241 241 241 241 241 241 241 241 241 241 241 241 240 227 168 67 10 4 52 143 224 239 241 241 241 241 241 241 241 241 241 241 241 241 241
241 241 241 241 241 241 241 241 241 241 241 241 241 241 236 222 144 69 4 0 12 44 125 189 233 239 241 241 241 241 241 241 241 241 241 241 241 241 241 241 241 240 231 166 72 12 5 40 139 217 239 240 241 241 241 241 241 241 241 241 241 241 241 241
241 241 241 241 241 241 241 241 241 241 241 241 241 240 233 178 97 22 1 5 25 104 178 237 239 241 241 241 241 241 241 241 241 241 241 241 241 241 241 241 241 240 225 164 68 11 0 40 126 214 237 241 241 241 241 241 241 241 241 241 241 241 241 241
241 241 241 241 241 241 241 241 241 241 241 241 241 239 212 134 51 3 0 17 76 161 220 240 241 241 241 241 241 241 241 241 241 241 241 241 241 241 241 241 241 240 222 157 57 10 4 36 129 206 239 240 241 241 241 241 241 241 241 241 241 241 241 241
241 241 241 241 241 241 241 241 241 241 241 241 240 239 170 87 8 0 7 41 131 200 240 240 241 241 241 241 241 241 241 241 241 241 241 241 241 241 241 241 241 238 219 143 54 2 1 46 132 220 237 241 241 241 241 241 241 241 241 241 241 241 241 241
241 241 241 241 241 241 241 241 241 241 241 240 240 200 129 37 6 1 9 90 174 239 240 241 241 241 241 241 241 241 241 241 241 241 241 241 241 241 241 241 240 240 206 129 33 6 9 45 147 216 239 240 241 241 241 241 241 241 241 241 241 241 241 241
241 241 241 241 241 241 241 241 241 241 241 240 223 170 79 18 0 3 54 138 216 239 241 241 241 241 241 241 241 241 241 241 241 241 241 241 241 241 241 241 241 235 204 108 33 0 4 69 157 229 239 241 241 241 241 241 241 241 241 241 241 241 241 241
241 241 241 241 241 241 241 241 241 241 240 239 200 126 41 7 1 22 98 181 234 240 241 241 241 241 241 241 241 241 241 241 241 241 241 241 241 241 241 241 240 237 181 93 12 1 18 78 179 228 241 241 241 241 241 241 241 241 241 241 241 241 241 241
241 241 241 241 241 241 241 241 241 241 241 224 177 84 26 0 1 59 138 219 236 241 241 241 241 241 241 241 241 241 241 241 241 241 241 241 241 241 241 241 240 224 173 69 13 0 17 96 190 235 241 241 241 241 241 241 241 241 241 241 241 241 241 241
241 241 241 241 241 241 241 241 241 241 237 222 139 58 1 0 28 89 181 225 241 241 241 241 241 241 241 241 241 241 241 241 241 241 241 241 241 241 241 241 238 218 132 40 3 0 21 97 194 236 241 241 241 241 241 241 241 241 241 241 241 241 241 241
241 241 241 241 241 241 241 241 241 240 237 192 109 26 1 8 44 131 203 239 240 241 241 241 241 241 241 241 241 241 241 241 241 241 241 241 241 241 241 241 236 195 90 23 0 0 17 101 202 237 241 241 241 241 241 241 241 241 241 241 241 241 241 241
241 241 241 241 241 241 241 241 241 240 227 174 78 12 0 14 75 169 225 240 241 241 241 241 241 241 241 241 241 241 241 241 241 241 241 241 241 241 241 240 235 175 76 3 0 0 19 108 201 239 241 241 241 241 241 241 241 241 241 241 241 241 241 241
241 241 241 241 241 241 241 241 241 240 210 141 48 9 2 22 108 191 237 240 241 241 241 241 241 241 241 241 241 241 241 241 241 241 241 241 241 241 241 241 226 168 52 6 0 0 32 120 221 238 241 241 241 241 241 241 241 241 241 241 241 241 241 241
241 241 241 241 241 241 241 241 241 232 197 108 36 0 1 54 134 223 237 241 241 241 241 241 241 241 241 241 241 241 241 241 241 241 241 241 241 241 241 238 231 143 53 0 0 7 47 157 219 240 241 241 241 241 241 241 241 241 241 241 241 241 241 241
241 241 241 241 241 241 241 241 239 233 173 88 7 1 19 72 168 222 240 241 241 241 241 241 241 241 241 241 241 241 241 241 241 241 241 241 241 241 240 239 194 117 30 3 2 13 95 181 239 240 241 241 241 241 241 241 241 241 241 241 241 241 241 241
241 241 241 241 241 241 241 240 240 219 163 65 14 2 23 102 187 235 240 241 241 241 241 241 241 241 241 241 241 241 241 241 241 241 241 241 241 241 240 219 157 72 15 0 5 56 141 215 239 241 241 241 241 241 241 241 241 241 241 241 241 241 241 241
241 241 241 241 241 241 241 241 237 217 139 54 4 2 40 122 202 236 241 241 241 241 241 241 241 241 241 241 241 241 241 241 241 241 241 241 241 240 238 178 102 24 4 1 24 101 181 233 240 241 241 241 241 241 241 241 241 241 241 241 241 241 241 241
241 241 241 241 241 241 241 241 237 205 128 42 4 6 53 140 215 238 241 241 241 241 241 241 241 241 241 241 241 241 241 241 241 241 241 241 240 240 198 130 43 11 0 3 71 145 221 236 241 241 241 241 241 241 241 241 241 241 241 241 241 241 241 241
241 241 241 241 241 241 241 241 236 207 125 38 2 12 64 160 218 240 241 241 241 241 241 241 241 241 241 241 241 241 241 241 241 241 241 241 239 217 157 72 18 0 2 47 117 197 230 241 241 241 241 241 241 241 241 241 241 241 241 241 241 241 241 241
241 241 241 241 241 241 241 241 237 212 132 42 4 7 69 159 231 239 241 241 241 241 241 241 241 241 241 241 241 241 241 241 241 241 241 238 232 173 98 24 4 1 24 93 171 224 240 241 241 241 241 241 241 241 241 241 241 241 241 241 241 241 241 241
241 241 241 241 241 241 241 240 239 217 146 54 11 12 62 158 220 239 241 241 241 241 241 241 241 241 241 241 241 241 241 241 241 240 237 224 177 113 36 10 0 3 71 145 218 235 241 241 241 241 241 241 241 241 241 241 241 241 241 241 241 241 241 241
241 241 241 241 241 241 241 241 239 225 176 83 19 7 45 119 197 235 240 241 241 241 241 241 241 241 241 241 241 241 241 240 239 238 211 169 103 46 11 0 4 50 121 199 230 241 241 241 241 241 241 241 241 241 241 241 241 241 241 241 241 241 241 241
241 241 241 241 241 241 241 241 240 235 198 110 27 7 15 70 144 202 226 241 241 241 241 241 241 241 241 241 241 241 239 240 227 199 152 86 40 3 0 8 33 104 176 225 241 241 241 241 241 241 241 241 241 241 241 241 241 241 241 241 241 241 241 241
241 241 241 241 241 241 241 241 241 239 216 142 54 7 3 27 67 130 190 222 233 241 240 240 241 240 241 239 239 237 231 203 175 110 64 20 3 1 14 31 102 164 224 236 241 241 241 241 241 241 241 241 241 241 241 241 241 241 241 241 241 241 241 241
241 241 241 241 241 241 241 241 241 240 228 185 92 19 1 0 18 58 107 157 203 217 229 238 237 236 225 225 212 197 175 126 73 34 0 1 0 9 54 112 174 220 235 241 241 241 241 241 241 241 241 241 241 241 241 241 241 241 241 241 241 241 241 241
241 241 241 241 241 241 241 241 241 240 238 210 145 73 28 0 0 3 33 73 106 142 175 185 195 180 161 134 118 92 72 43 8 3 0 1 6 62 125 194 220 238 241 241 241 241 241 241 241 241 241 241 241 241 241 241 241 241 241 241 241 241 241 241
241 241 241 241 241 241 241 241 241 241 240 231 208 144 75 31 10 0 1 2 30 41 62 84 80 71 48 32 19 18 9 3 1 0 2 24 65 136 197 228 241 240 241 241 241 241 241 241 241 241 241 241 241 241 241 241 241 241 241 241 241 241 241 241
241 241 241 241 241 241 241 241 241 241 241 240 232 203 163 100 41 19 6 0 0 1 8 5 14 3 3 1 0 0 0 9 13 37 63 94 157 199 236 239 241 241 241 241 241 241 241 241 241 241 241 241 241 241 241 241 241 241 241 241 241 241 241 241
241 241 241 241 241 241 241 241 241 241 241 241 240 240 217 181 137 83 32 18 4 0 0 0 0 0 0 0 0 8 13 54 96 130 169 192 219 238 240 241 241 241 241 241 241 241 241 241 241 241 241 241 241 241 241 241 241 241 241 241 241 241 241 241
241 241 241 241 241 241 241 241 241 241 241 241 241 240 240 240 207 173 130 79 37 27 6 22 24 24 30 35 49 56 101 142 194 212 229 237 239 241 241 241 241 241 241 241 241 241 241 241 241 241 241 241 241 241 241 241 241 241 241 241 241 241 241 241
241 241 241 241 241 241 241 241 241 241 241 241 241 241 241 240 240 236 204 177 136 108 108 109 119 121 127 146 159 177 200 220 232 240 240 241 241 241 241 241 241 241 241 241 241 241 241 241 241 241 241 241 241 241 241 241 241 241 241 241 241 241 241 241
241 241 241 241 241 241 241 241 241 241 241 241 241 241 241 241 241 240 240 230 214 215 204 212 211 214 217 222 237 232 236 240 240 240 241 241 241 241 241 241 241 241 241 241 241 241 241 241 241 241 241 241 241 241 241 241 241 241 241 241 241 241 241 241
241 241 241 241 241 241 241 241 241 241 241 241 241 241 241 241 241 241 241 240 241 237 238 239 239 240 239 240 240 241 240 241 241 241 241 241 241 241 241 241 241 241 241 241 241 241 241 241 241 241 241 241 241 241 241 241 241 241 241 241 241 241 241 241
241 241 241 241 241 241 241 241 241 241 241 241 241 241 241 241 241 241 241 241 241 241 241 241 241 240 241 241 241 241 241 241 241 241 241 241 241 241 241 241 241 241 241 241 241 241 241 241 241 241 241 241 241 241 241 241 241 241 241 241 241 241 241 241
241 241 241 241 241 241 241 241 241 241 241 241 241 241 241 241 241 241 241 241 241 241 241 241 241 241 241 241 241 241 241 241 241 241 241 241 241 241 241 241 241 241 241 241 241 241 241 241 241 241 241 241 241 241 241 241 241 241 241 241 241 241 241 241
241 241 241 241 241 241 241 241 241 241 241 241 241 241 241 241 241 241 241 241 241 241 241 241 241 241 241 241 241 241 241 241 241 241 241 241 241 241 241 241 241 241 241 241 241 241 241 241 241 241 241 241 241 241 241 241 241 241 241 241 241 241 241 241
241 241 241 241 241 241 241 241 241 241 241 241 241 241 241 241 241 241 241 241 241 241 241 241 241 241 241 241 241 241 241 241 241 241 241 241 241 241 241 241 241 241 241 241 241 241 241 241 241 241 241 241 241 241 241 241 241 241 241 241 241 241 241 241
241 241 241 241 241 241 241 241 241 241 241 241 241 241 241 241 241 241 241 241 241 241 241 241 241 241 241 241 241 241 241 241 241 241 241 241 241 241 241 241 241 241 241 241 241 241 241 241 241 241 241 241 241 241 241 241 241 241 241 241 241 241 241 241
241 241 241 241 241 241 241 241 241 241 241 241 241 241 241 241 241 241 241 241 241 241 241 241 241 241 241 241 241 241 241 241 241 241 241 241 241 241 241 241 241 241 241 241 241 241 241 241 241 241 241 241 241 241 241 241 241 241 241 241 241 241 241 241
241 241 241 241 241 241 241 241 241 241 241 241 241 241 241 241 241 241 241 241 241 241 241 241 241 241 241 241 241 241 241 241 241 241 241 241 241 241 241 241 241 241 241 241 241 241 241 241 241 241 241 241 241 241 241 241 241 241 241 241 241 241 241 241
