P2
64 64
255
157 157 157 157 157 157 157 157 157 157 157 157 157 157 157 157 157 157 157 157 157 157 157 157 157 157 157 157 157 157 157 157 157 157 157 157 157 157 157 157 157 157 157 157 157 157 157 157 157 157 157 157 157 157 157 157 157 157 157 157 157 157 157 157
157 157 157 157 157 157 157 157 157 157 157 157 157 157 157 157 157 157 157 157 157 157 157 157 157 157 157 157 157 157 157 157 157 157 157 157 157 157 157 157 157 157 157 157 157 157 157 157 157 157 157 157 157 157 157 157 157 157 157 157 157 157 157 157
157 157 157 157 157 157 157 157 157 157 157 157 157 157 157 157 157 157 157 157 157 157 157 157 157 157 157 157 157 157 157 157 157 157 157 157 157 157 157 157 157 157 157 157 157 157 157 157 157 157 157 157 157 157 157 157 157 157 157 157 157 157 157 157
157 157 157 157 157 157 157 157 157 157 157 157 157 157 157 157 157 157 157 157 157 157 157 157 157 157 157 157 157 157 157 157 157 157 157 157 157 157 157 157 157 157 157 157 157 157 157 157 157 157 157 157 157 157 157 157 157 157 157 157 157 157 157 157
157 157 157 157 157 157 157 157 157 157 157 157 157 157 157 157 157 157 157 157 157 157 157 157 157 157 157 157 157 157 157 157 157 157 157 157 157 157 157 157 157 157 157 157 157 157 157 157 157 157 157 157 157 157 157 157 157 157 157 157 157 157 157 157
157 157 157 157 157 157 157 157 157 157 157 157 157 157 157 157 157 157 157 157 157 157 157 157 157 157 157 157 157 157 157 157 157 157 157 157 157 157 157 157 157 157 157 157 157 157 157 157 157 157 157 157 157 157 157 157 157 157 157 157 157 157 157 157
157 157 157 157 157 157 157 157 157 157 157 157 157 157 157 157 157 157 157 157 157 157 157 157 157 157 157 157 157 157 157 157 157 157 157 157 157 157 157 157 157 157 157 157 157 157 157 157 157 157 157 157 157 157 157 157 157 157 157 157 157 157 157 157
157 157 157 157 157 157 157 157 157 157 157 157 157 157 157 157 157 157 157 157 157 157 157 157 157 157 157 157 157 157 157 157 157 157 157 157 157 157 157 157 157 157 157 157 157 157 157 157 157 157 157 157 157 157 157 157 157 157 157 157 157 157 157 157
157 157 157 157 157 157 157 157 157 157 157 157 157 157 157 157 157 157 157 157 157 157 157 157 157 157 157 157 157 157 157 156 156 157 157 156 157 157 157 157 157 157 157 157 157 157 157 157 157 157 157 157 157 157 157 157 157 157 157 157 157 157 157 157
157 157 157 157 157 157 157 157 157 157 157 157 157 157 157 157 157 157 157 157 157 157 157 157 157 157 157 157 157 157 156 153 152 151 154 156 155 157 157 157 157 157 157 157 157 157 157 157 157 157 157 157 157 157 157 157 157 157 157 157 157 157 157 157
157 157 157 157 157 157 157 157 157 157 157 157 157 157 157 157 157 157 157 157 157 157 157 157 157 157 157 157 157 155 149 134 120 119 120 127 139 146 153 156 156 157 157 157 157 157 157 157 157 157 157 157 157 157 157 157 157 157 157 157 157 157 157 157
157 157 157 157 157 157 157 157 157 157 157 157 157 157 157 157 157 157 157 157 157 157 157 157 157 157 157 156 157 151 122 80 54 43 53 61 72 100 124 139 155 156 157 157 157 157 157 157 157 157 157 157 157 157 157 157 157 157 157 157 157 157 157 157
157 157 157 157 157 157 157 157 157 157 157 157 157 157 157 157 157 157 157 157 157 157 157 157 157 157 157 156 145 123 84 28 8 5 4 6 16 28 53 88 119 148 154 156 157 157 157 157 157 157 157 157 157 157 157 157 157 157 157 157 157 157 157 157
157 157 157 157 157 157 157 157 157 157 157 157 157 157 157 157 157 157 157 157 157 157 157 157 157 157 156 144 108 67 28 7 1 2 6 1 1 1 9 17 57 94 128 149 156 157 157 157 157 157 157 157 157 157 157 157 157 157 157 157 157 157 157 157
157 157 157 157 157 157 157 157 157 157 157 157 157 157 157 157 157 157 157 157 157 157 157 157 157 156 156 103 40 14 5 0 0 12 32 35 8 8 0 1 3 33 64 108 145 156 157 157 157 157 157 157 157 157 157 157 157 157 157 157 157 157 157 157
157 157 157 157 157 157 157 157 157 157 157 157 157 157 157 157 157 157 157 157 157 157 157 157 157 156 121 54 6 0 2 3 2 29 93 101 80 46 22 5 0 0 14 44 96 142 156 157 157 157 157 157 157 157 157 157 157 157 157 157 157 157 157 157
157 157 157 157 157 157 157 157 157 157 157 157 157 157 157 157 157 157 157 157 157 157 157 157 156 144 85 8 0 3 33 42 55 88 133 151 136 120 83 43 20 1 0 6 32 90 140 156 157 157 157 157 157 157 157 157 157 157 157 157 157 157 157 157
157 157 157 157 157 157 157 157 157 157 157 157 157 157 157 157 157 157 157 157 157 157 157 157 156 122 44 4 2 38 93 121 125 143 156 156 156 151 141 113 73 39 3 0 3 29 94 143 156 157 157 157 157 157 157 157 157 157 157 157 157 157 157 157
157 157 157 157 157 157 157 157 157 157 157 157 157 157 157 157 157 157 157 157 157 157 157 157 150 99 24 0 12 83 149 153 154 156 157 157 157 157 156 150 136 98 53 4 0 4 40 115 149 157 157 157 157 157 157 157 157 157 157 157 157 157 157 157
157 157 157 157 157 157 157 157 157 157 157 157 157 157 157 157 157 157 157 157 157 157 157 156 148 88 8 1 41 119 154 157 157 157 157 157 157 157 157 156 154 149 111 59 4 0 15 69 139 155 157 157 157 157 157 157 157 157 157 157 157 157 157 157
157 157 157 157 157 157 157 157 157 157 157 157 157 157 157 157 157 157 157 157 157 157 157 156 146 78 12 7 60 136 157 157 157 157 157 157 157 157 157 157 157 156 155 114 51 1 1 43 117 154 157 157 157 157 157 157 157 157 157 157 157 157 157 157
157 157 157 157 157 157 157 157 157 157 157 157 157 157 157 157 157 157 157 157 157 157 157 156 143 72 6 7 71 143 156 157 157 157 157 157 157 157 157 157 157 157 156 150 94 27 1 23 96 151 156 157 157 157 157 157 157 157 157 157 157 157 157 157
157 157 157 157 157 157 157 157 157 157 157 157 157 157 157 157 157 157 157 157 157 157 156 156 144 62 7 9 62 139 156 157 157 157 157 157 157 157 157 157 157 157 157 156 127 53 4 7 80 143 156 157 157 157 157 157 157 157 157 157 157 157 157 157
157 157 157 157 157 157 157 157 157 157 157 157 157 157 157 157 157 157 157 156 157 157 155 154 140 76 6 2 39 122 154 157 157 157 157 157 157 157 157 157 157 157 157 156 146 75 14 8 64 141 157 157 157 157 157 157 157 157 157 157 157 157 157 157
157 157 157 157 157 157 157 157 157 157 157 157 157 157 157 157 157 157 157 156 151 141 133 136 130 81 17 0 19 90 150 156 157 157 157 157 157 157 157 157 157 157 157 157 149 94 16 3 57 140 156 157 157 157 157 157 157 157 157 157 157 157 157 157
157 157 157 157 157 157 157 157 157 157 157 157 157 157 157 157 157 156 149 133 115 90 70 67 72 53 18 1 5 64 135 157 157 157 157 157 157 157 157 157 157 157 157 157 152 93 16 4 55 136 156 157 157 157 157 157 157 157 157 157 157 157 157 157
157 157 157 157 157 157 157 157 157 157 157 157 157 157 157 157 156 154 122 74 38 20 14 16 16 6 5 1 1 35 109 151 157 157 157 157 157 157 157 157 157 157 157 156 138 77 12 4 53 138 156 157 157 157 157 157 157 157 157 157 157 157 157 157
157 157 157 157 157 157 157 157 157 157 157 157 157 157 157 157 156 120 62 22 3 1 1 8 5 0 0 2 0 9 75 135 156 157 157 157 157 157 157 157 157 157 157 152 120 42 3 4 64 136 156 157 157 157 157 157 157 157 157 157 157 157 157 157
157 157 157 157 157 157 157 157 157 157 157 157 157 157 157 156 134 75 15 0 0 13 32 46 29 11 10 14 6 3 34 112 149 157 157 157 157 157 157 157 157 157 157 147 83 20 0 20 82 145 157 157 157 157 157 157 157 157 157 157 157 157 157 157
157 157 157 157 157 157 157 157 157 157 157 157 157 157 156 153 102 23 3 1 32 71 101 119 99 64 66 68 21 1 14 66 131 154 157 157 157 157 157 157 157 157 156 123 50 1 3 39 117 151 156 157 157 157 157 157 157 157 157 157 157 157 157 157
157 157 157 157 157 157 157 157 157 157 157 157 157 157 156 128 59 9 1 22 79 136 153 154 147 136 131 118 56 8 1 24 88 138 156 157 157 157 157 157 156 154 146 85 11 0 14 80 138 156 157 157 157 157 157 157 157 157 157 157 157 157 157 157
157 157 157 157 157 157 157 157 157 157 157 157 157 157 148 98 23 0 1 60 129 152 157 157 156 155 155 147 96 23 3 5 34 96 138 156 157 157 157 157 156 136 87 33 2 3 38 114 156 157 157 157 157 157 157 157 157 157 157 157 157 157 157 157
157 157 157 157 157 157 157 157 157 157 157 157 157 156 144 60 7 0 20 94 148 157 157 157 157 157 156 156 129 72 9 0 8 35 94 135 152 157 156 156 132 80 30 1 0 7 83 145 156 157 157 157 157 157 157 157 157 157 157 157 157 157 157 157
157 157 157 157 157 157 157 157 157 157 157 157 157 156 116 38 0 2 36 122 157 157 157 157 157 157 157 156 154 115 56 3 0 8 29 76 111 128 144 136 90 22 2 0 3 56 123 156 157 157 157 157 157 157 157 157 157 157 157 157 157 157 157 157
157 157 157 157 157 157 157 157 157 157 157 157 157 149 94 11 0 4 72 139 156 157 157 157 157 157 157 157 156 149 106 52 4 0 4 14 38 62 76 74 32 6 0 6 35 103 156 157 157 157 157 157 157 157 157 157 157 157 157 157 157 157 157 157
157 157 157 157 157 157 157 157 157 157 157 157 157 146 63 8 0 27 104 154 157 157 157 157 157 157 157 157 157 156 145 105 55 8 2 0 3 6 16 17 5 0 6 32 94 145 156 157 157 157 157 157 157 157 157 157 157 157 157 157 157 157 157 157
157 157 157 157 157 157 157 157 157 157 157 157 157 130 48 0 1 37 134 156 157 157 157 157 157 157 157 157 157 157 156 146 111 66 22 12 1 0 0 1 1 8 49 99 137 156 157 157 157 157 157 157 157 157 157 157 157 157 157 157 157 157 157 157
157 157 157 157 157 157 157 157 157 157 157 157 155 128 28 0 0 54 136 157 157 157 157 157 157 157 157 157 157 157 157 157 150 125 94 59 30 2 0 7 33 62 106 145 156 157 157 157 157 157 157 157 157 157 157 157 157 157 157 157 157 157 157 157
157 157 157 157 157 157 157 157 157 157 157 157 156 123 30 0 3 53 143 157 157 157 157 157 157 157 157 157 157 157 157 157 157 155 143 130 73 16 0 19 81 127 149 155 157 157 157 157 157 157 157 157 157 157 157 157 157 157 157 157 157 157 157 157
157 157 157 157 157 157 157 157 157 157 157 157 156 128 37 0 0 54 144 156 157 157 157 157 157 157 157 157 157 157 157 157 157 157 157 151 112 25 1 28 114 149 156 157 157 157 157 157 157 157 157 157 157 157 157 157 157 157 157 157 157 157 157 157
157 157 157 157 157 157 157 157 157 157 157 157 156 139 57 1 3 59 139 156 157 157 157 157 157 157 157 157 157 157 157 157 157 157 157 155 119 38 4 33 111 155 157 157 157 157 157 157 157 157 157 157 157 157 157 157 157 157 157 157 157 157 157 157
157 157 157 157 157 157 157 157 157 157 157 157 156 146 75 10 4 54 133 156 157 157 157 157 157 157 157 157 157 157 157 157 157 157 157 154 114 35 1 24 109 152 156 157 157 157 157 157 157 157 157 157 157 157 157 157 157 157 157 157 157 157 157 157
157 157 157 157 157 157 157 157 157 157 157 157 156 150 93 18 3 31 109 150 157 157 157 157 157 157 157 157 157 157 157 157 157 157 156 152 86 14 0 31 112 152 157 157 157 157 157 157 157 157 157 157 157 157 157 157 157 157 157 157 157 157 157 157
157 157 157 157 157 157 157 157 157 157 157 157 157 152 113 32 2 12 67 133 156 157 157 157 157 157 157 157 157 157 157 157 157 157 156 119 49 4 4 46 127 156 157 157 157 157 157 157 157 157 157 157 157 157 157 157 157 157 157 157 157 157 157 157
157 157 157 157 157 157 157 157 157 157 157 157 157 155 131 60 9 1 27 90 137 156 157 157 157 157 157 157 157 157 157 157 156 151 131 77 14 0 6 81 143 156 157 157 157 157 157 157 157 157 157 157 157 157 157 157 157 157 157 157 157 157 157 157
157 157 157 157 157 157 157 157 157 157 157 157 157 157 147 99 24 2 6 33 91 132 152 157 156 156 157 157 157 157 156 156 149 125 76 25 3 2 43 113 154 157 157 157 157 157 157 157 157 157 157 157 157 157 157 157 157 157 157 157 157 157 157 157
157 157 157 157 157 157 157 157 157 157 157 157 157 157 156 130 69 6 0 7 27 75 112 131 142 142 146 152 156 154 152 144 106 56 22 3 1 20 83 146 156 157 157 157 157 157 157 157 157 157 157 157 157 157 157 157 157 157 157 157 157 157 157 157
157 157 157 157 157 157 157 157 157 157 157 157 157 157 156 152 112 55 6 1 3 13 43 66 75 85 101 114 123 124 107 83 46 9 0 0 6 63 125 152 157 157 157 157 157 157 157 157 157 157 157 157 157 157 157 157 157 157 157 157 157 157 157 157
157 157 157 157 157 157 157 157 157 157 157 157 157 157 157 156 147 107 57 9 2 0 3 8 17 22 27 45 52 47 34 19 3 0 0 14 58 111 148 157 157 157 157 157 157 157 157 157 157 157 157 157 157 157 157 157 157 157 157 157 157 157 157 157
157 157 157 157 157 157 157 157 157 157 157 157 157 157 157 157 157 146 113 69 24 12 3 1 2 1 3 0 3 5 3 1 4 8 19 56 112 151 156 157 157 157 157 157 157 157 157 157 157 157 157 157 157 157 157 157 157 157 157 157 157 157 157 157
157 157 157 157 157 157 157 157 157 157 157 157 157 157 157 157 157 157 151 127 96 59 41 32 24 16 12 5 4 9 14 19 33 54 86 124 147 156 157 157 157 157 157 157 157 157 157 157 157 157 157 157 157 157 157 157 157 157 157 157 157 157 157 157
157 157 157 157 157 157 157 157 157 157 157 157 157 157 157 157 157 157 157 156 142 131 115 104 96 80 64 56 53 59 72 89 108 127 140 152 156 157 157 157 157 157 157 157 157 157 157 157 157 157 157 157 157 157 157 157 157 157 157 157 157 157 157 157
157 157 157 157 157 157 157 157 157 157 157 157 157 157 157 157 157 157 157 157 156 153 152 151 145 139 138 127 126 133 139 143 149 154 157 157 157 157 157 157 157 157 157 157 157 157 157 157 157 157 157 157 157 157 157 157 157 157 157 157 157 157 157 157
157 157 157 157 157 157 157 157 157 157 157 157 157 157 157 157 157 157 157 157 157 157 156 156 156 155 154 156 154 155 156 157 156 156 157 157 157 157 157 157 157 157 157 157 157 157 157 157 157 157 157 157 157 157 157 157 157 157 157 157 157 157 157 157
157 157 157 157 157 157 157 157 157 157 157 157 157 157 157 157 157 157 157 157 157 157 157 157 157 157 157 157 157 157 157 157 157 157 157 157 157 157 157 157 157 157 157 157 157 157 157 157 157 157 157 157 157 157 157 157 157 157 157 157 157 157 157 157
157 157 157 157 157 157 157 157 157 157 157 157 157 157 157 157 157 157 157 157 157 157 157 157 157 157 157 157 157 157 157 157 157 157 157 157 157 157 157 157 157 157 157 157 157 157 157 157 157 157 157 157 157 157 157 157 157 157 157 157 157 157 157 157
157 157 157 157 157 157 157 157 157 157 157 157 157 157 157 157 157 157 157 157 157 157 157 157 157 157 157 157 157 157 157 157 157 157 157 157 157 157 157 157 157 157 157 157 157 157 157 157 157 157 157 157 157 157 157 157 157 157 157 157 157 157 157 157
157 157 157 157 157 157 157 157 157 157 157 157 157 157 157 157 157 157 157 157 157 157 157 157 157 157 157 157 157 157 157 157 157 157 157 157 157 157 157 157 157 157 157 157 157 157 157 157 157 157 157 157 157 157 157 157 157 157 157 157 157 157 157 157
157 157 157 157 157 157 157 157 157 157 157 157 157 157 157 157 157 157 157 157 157 157 157 157 157 157 157 157 157 157 157 157 157 157 157 157 157 157 157 157 157 157 157 157 157 157 157 157 157 157 157 157 157 157 157 157 157 157 157 157 157 157 157 157
157 157 157 157 157 157 157 157 157 157 157 157 157 157 157 157 157 157 157 157 157 157 157 157 157 157 157 157 157 157 157 157 157 157 157 157 157 157 157 157 157 157 157 157 157 157 157 157 157 157 157 157 157 157 157 157 157 157 157 157 157 157 157 157
157 157 157 157 157 157 157 157 157 157 157 157 157 157 157 157 157 157 157 157 157 157 157 157 157 157 157 157 157 157 157 157 157 157 157 157 157 157 157 157 157 157 157 157 157 157 157 157 157 157 157 157 157 157 157 157 157 157 157 157 157 157 157 157
157 157 157 157 157 157 157 157 157 157 157 157 157 157 157 157 157 157 157 157 157 157 157 157 157 157 157 157 157 157 157 157 157 157 157 157 157 157 157 157 157 157 157 157 157 157 157 157 157 157 157 157 157 157 157 157 157 157 157 157 157 157 157 157
157 157 157 157 157 157 157 157 157 157 157 157 157 157 157 157 157 157 157 157 157 157 157 157 157 157 157 157 157 157 157 157 157 157 157 157 157 157 157 157 157 157 157 157 157 157 157 157 157 157 157 157 157 157 157 157 157 157 157 157 157 157 157 157
157 157 157 157 157 157 157 157 157 157 157 157 157 157 157 157 157 157 157 157 157 157 157 157 157 157 157 157 157 157 157 157 157 157 157 157 157 157 157 157 157 157 157 157 157 157 157 157 157 157 157 157 157 157 157 157 157 157 157 157 157 157 157 157
