P2
64 64
255
175 175 175 175 175 175 175 175 175 175 175 175 175 175 175 175 175 175 175 175 175 171 158 141 135 135 135 146 164 173 175 175 175 175 175 175 175 175 175 175 175 175 175 175 175 175 175 175 175 175 175 175 175 175 175 175 175 175 175 175 175 175 175 175
175 175 175 175 175 175 175 175 175 175 175 175 175 175 175 175 175 175 175 175 175 172 159 141 135 135 135 146 163 173 175 175 175 175 175 175 175 175 175 175 175 175 175 175 175 175 175 175 175 175 175 175 175 175 175 175 175 175 175 175 175 175 175 175
175 175 175 175 175 175 175 175 175 175 175 175 175 175 175 175 175 175 175 175 175 172 160 142 135 135 135 145 163 173 175 175 175 175 175 175 175 175 175 175 175 175 175 175 175 175 175 175 175 175 175 175 175 175 175 175 175 175 175 175 175 175 175 175
175 175 175 175 175 175 175 175 175 175 175 175 175 175 175 175 175 175 175 175 175 172 161 143 135 135 135 144 162 173 175 175 175 175 175 175 175 175 175 175 175 175 175 175 175 175 175 175 175 175 175 175 175 175 175 175 175 175 175 175 175 175 175 175
175 175 175 175 175 175 175 175 175 175 175 175 175 175 175 175 175 175 175 175 175 172 161 143 135 135 135 143 161 172 175 175 175 175 175 175 175 175 175 175 175 175 175 175 175 175 175 175 175 175 175 175 175 175 175 175 175 175 175 175 175 175 175 175
175 175 175 175 175 175 175 175 175 175 175 175 175 175 175 175 175 175 174 174 171 159 138 112 96 89 85 91 117 148 167 174 175 174 175 175 175 175 175 175 175 175 175 175 175 175 175 175 175 175 175 175 175 175 175 175 175 175 175 175 175 175 175 175
175 175 175 175 175 175 175 175 175 175 175 175 175 175 175 175 175 175 173 161 128 86 52 29 19 15 13 15 33 66 109 148 167 173 175 175 175 175 175 175 175 175 175 175 175 175 175 175 175 175 175 175 175 175 175 175 175 175 175 175 175 175 175 175
175 175 175 175 175 175 175 175 175 175 175 175 175 175 175 175 174 172 153 99 43 14 4 1 1 1 1 1 1 3 21 55 103 152 174 175 175 175 175 175 175 175 175 175 175 175 175 175 175 175 175 175 175 175 175 175 175 175 175 175 175 175 175 175
175 175 175 175 175 175 175 175 175 175 175 175 175 175 175 174 170 147 87 24 2 0 0 15 37 44 46 36 16 5 0 2 24 89 153 173 175 175 175 175 175 175 175 175 175 175 175 175 175 175 175 175 175 175 175 175 175 175 175 175 175 175 175 175
175 175 175 175 175 175 175 175 175 175 175 175 175 175 174 167 132 74 20 0 0 6 37 92 132 139 139 124 93 54 14 0 2 28 88 149 172 175 175 175 175 175 175 175 175 175 175 175 175 175 175 175 175 175 175 175 175 175 175 175 175 175 175 175
175 175 175 175 175 175 175 175 175 175 175 175 175 175 172 139 62 13 1 2 24 77 131 163 173 174 174 170 159 137 83 32 8 4 19 75 148 173 174 175 175 175 175 175 175 175 175 175 175 175 175 175 175 175 175 175 175 175 175 175 175 175 175 175
175 175 175 175 175 175 175 175 175 175 175 175 175 175 166 95 18 0 6 50 114 157 173 175 175 175 175 175 174 172 157 120 63 13 0 11 79 148 172 174 175 175 175 175 175 175 175 175 175 175 175 175 175 175 175 175 175 175 175 175 175 175 175 175
175 175 175 175 175 175 175 175 175 175 175 175 175 172 137 47 4 9 56 132 169 174 175 175 175 175 175 175 175 175 174 171 131 47 5 0 20 90 152 173 175 175 175 175 175 175 175 175 175 175 175 175 175 175 175 175 175 175 175 175 175 175 175 175
175 175 175 175 175 175 175 175 175 175 175 175 175 159 79 10 9 56 129 168 175 175 175 175 175 175 175 175 175 175 175 174 166 115 48 12 1 31 106 162 174 175 175 175 175 175 175 175 175 175 175 175 175 175 175 175 175 175 175 175 175 175 175 175
175 175 175 175 175 175 175 175 175 175 175 175 174 135 38 0 19 101 164 174 175 175 175 175 175 175 175 175 175 175 175 175 174 163 124 56 6 4 50 127 169 174 175 175 175 175 175 175 175 175 175 175 175 175 175 175 175 175 175 175 175 175 175 175
175 175 175 175 175 175 175 175 175 175 175 175 170 116 22 0 27 124 172 175 175 175 175 175 175 175 175 175 175 175 175 175 175 174 165 116 37 1 12 70 145 172 174 175 175 175 175 175 175 175 175 175 175 175 175 175 175 175 175 175 175 175 175 175
175 175 175 175 175 175 175 175 175 175 175 174 166 102 18 0 39 137 174 175 175 175 175 175 175 175 175 175 175 175 175 175 175 175 174 158 96 19 1 22 94 157 174 175 175 175 175 175 175 175 175 175 175 175 175 175 175 175 175 175 175 175 175 175
175 175 175 175 175 175 175 175 175 175 175 174 163 95 17 0 45 141 174 175 175 175 175 175 175 175 175 175 175 175 175 175 175 175 174 173 148 71 9 4 41 121 169 175 175 175 175 175 175 175 175 175 175 175 175 175 175 175 175 175 175 175 175 175
175 175 175 175 175 175 175 175 175 175 175 174 165 97 18 1 44 141 174 175 175 175 175 175 175 175 175 175 175 175 175 175 175 175 175 175 170 131 45 2 10 65 129 158 172 175 175 175 175 175 175 175 175 175 175 175 175 175 175 175 175 175 175 175
175 175 175 175 175 175 175 175 175 175 175 175 167 102 21 1 42 138 174 175 175 175 175 175 175 175 175 175 175 175 175 175 175 175 175 175 174 165 96 13 0 12 37 86 153 175 175 175 175 175 175 175 175 175 175 175 175 175 175 175 175 175 175 175
175 175 175 175 175 175 175 175 175 175 175 175 170 108 24 1 39 136 174 175 175 175 175 175 175 175 175 175 175 175 175 175 175 175 175 175 175 174 141 46 0 0 1 14 110 174 175 175 175 175 175 175 175 175 175 175 175 175 175 175 175 175 175 175
175 175 175 175 175 175 175 175 175 175 175 175 172 113 26 1 36 132 174 175 175 175 175 175 175 175 175 175 175 175 175 175 175 175 175 175 175 175 168 104 15 0 0 2 88 173 175 175 175 175 175 175 175 175 175 175 175 175 175 175 175 175 175 175
175 175 175 175 175 175 175 175 175 175 175 175 174 119 29 1 33 126 174 175 175 175 175 175 175 175 175 175 175 175 175 175 175 175 175 175 175 175 174 152 43 0 0 2 89 174 175 175 175 175 175 175 175 175 175 175 175 175 175 175 175 175 175 175
175 175 175 175 175 175 175 175 175 175 175 175 174 124 32 1 31 121 174 175 175 175 175 175 175 175 175 175 175 175 175 175 175 175 175 175 175 174 166 119 26 0 0 6 93 174 175 175 175 175 175 175 175 175 175 175 175 175 175 175 175 175 175 175
175 175 175 175 175 175 175 175 175 175 175 175 174 130 35 1 28 115 173 175 175 175 175 175 175 175 175 175 175 175 175 175 175 175 175 174 172 157 111 46 3 0 0 16 104 172 175 175 175 175 175 175 175 175 175 175 175 175 175 175 175 175 175 175
175 175 175 175 175 175 175 175 175 175 175 175 174 136 39 0 22 106 170 175 175 175 175 175 175 175 175 175 175 175 175 175 175 174 174 168 144 94 37 6 1 0 0 30 124 172 175 175 175 175 175 175 175 175 175 175 175 175 175 175 175 175 175 175
175 175 175 175 175 175 175 175 175 175 175 175 174 147 53 1 13 85 163 175 175 175 175 175 175 175 175 175 175 175 174 174 172 167 153 114 62 23 4 6 23 8 0 37 131 172 175 175 175 175 175 175 175 175 175 175 175 175 175 175 175 175 175 175
175 175 175 175 175 175 175 175 175 175 175 175 175 164 79 4 2 46 135 172 175 175 175 175 175 175 175 174 174 172 167 158 139 112 76 29 6 0 12 53 78 17 0 33 125 171 175 175 175 175 175 175 175 175 175 175 175 175 175 175 175 175 175 175
175 175 175 175 175 175 175 175 175 175 175 175 175 172 113 16 0 11 62 130 160 170 174 174 174 171 167 161 151 132 109 84 53 29 12 1 0 8 62 132 119 22 0 27 119 170 175 175 175 175 175 175 175 175 175 175 175 175 175 175 175 175 175 175
175 175 175 175 175 175 175 175 175 175 175 175 175 174 148 48 0 0 8 42 80 101 108 104 98 93 86 75 59 42 26 14 4 0 1 3 17 68 140 170 128 28 0 23 113 169 175 175 175 175 175 175 175 175 175 175 175 175 175 175 175 175 175 175
175 175 175 175 175 175 175 175 175 175 175 175 175 175 169 108 20 0 0 0 3 13 15 15 14 13 11 6 2 1 0 0 5 21 44 73 113 154 172 174 132 34 0 18 108 168 175 175 175 175 175 175 175 175 175 175 175 175 175 175 175 175 175 175
175 175 175 175 175 175 175 175 175 175 175 175 175 175 174 163 101 31 9 6 4 1 0 0 1 1 2 2 4 12 27 46 74 109 137 158 171 175 175 174 136 39 0 14 103 167 175 175 175 175 175 175 175 175 175 175 175 175 175 175 175 175 175 175
175 175 175 175 175 175 175 175 175 175 175 175 175 175 175 175 167 135 100 75 53 39 38 42 46 50 57 66 80 99 121 140 158 170 174 174 175 175 175 174 140 45 1 9 98 166 175 175 175 175 175 175 175 175 175 175 175 175 175 175 175 175 175 175
175 175 175 175 175 175 175 175 175 175 175 175 175 175 175 175 174 173 166 155 140 130 128 132 137 143 148 159 170 174 174 174 174 175 175 175 175 175 175 174 144 50 2 5 93 165 175 175 175 175 175 175 175 175 175 175 175 175 175 175 175 175 175 175
175 175 175 175 175 175 175 175 175 175 175 175 175 175 175 175 175 175 175 174 173 172 171 172 173 174 175 175 175 175 175 175 175 175 175 175 175 175 175 174 148 56 4 2 88 163 175 175 175 175 175 175 175 175 175 175 175 175 175 175 175 175 175 175
175 175 175 175 175 175 175 175 175 175 175 175 175 175 175 175 175 175 175 175 175 175 175 175 175 175 175 175 175 175 175 175 175 175 175 175 175 175 175 174 152 62 5 2 83 162 175 175 175 175 175 175 175 175 175 175 175 175 175 175 175 175 175 175
175 175 175 175 175 175 175 175 175 175 175 175 175 175 175 175 175 175 175 175 175 175 175 175 175 175 175 175 175 175 175 175 175 175 175 175 175 175 175 174 156 68 6 2 77 161 175 175 175 175 175 175 175 175 175 175 175 175 175 175 175 175 175 175
175 175 175 175 175 175 175 175 175 175 175 175 175 175 175 175 175 175 175 175 175 175 175 175 175 175 175 175 175 175 175 175 175 175 175 175 175 175 175 174 159 73 7 2 74 161 175 175 175 175 175 175 175 175 175 175 175 175 175 175 175 175 175 175
175 175 175 175 175 175 175 175 175 175 175 175 175 175 175 175 175 175 175 175 175 175 175 175 175 175 175 175 175 175 175 175 175 175 175 175 175 175 175 175 163 77 7 2 73 163 175 175 175 175 175 175 175 175 175 175 175 175 175 175 175 175 175 175
175 175 175 175 175 175 175 175 175 175 175 175 175 175 175 175 175 175 175 175 175 175 175 175 175 175 175 175 175 175 175 175 175 175 175 175 175 175 175 175 166 75 4 3 76 169 175 175 175 175 175 175 175 175 175 175 175 175 175 175 175 175 175 175
175 175 175 175 175 175 175 175 175 175 175 175 175 175 175 175 175 175 175 175 175 175 175 175 175 175 175 175 175 175 175 175 175 175 175 175 175 175 175 175 170 77 3 3 75 170 175 175 175 175 175 175 175 175 175 175 175 175 175 175 175 175 175 175
175 175 175 175 175 175 175 175 175 175 175 175 175 175 175 175 175 175 175 175 175 175 175 175 175 175 175 175 175 175 175 175 175 175 175 175 175 175 175 175 174 82 4 3 71 166 175 175 175 175 175 175 175 175 175 175 175 175 175 175 175 175 175 175
175 175 175 175 175 175 175 175 175 175 175 175 175 175 175 175 175 175 175 175 175 175 175 175 175 175 175 175 175 175 175 175 175 175 175 175 175 175 175 175 174 88 4 2 66 161 175 175 175 175 175 175 175 175 175 175 175 175 175 175 175 175 175 175
175 175 175 175 175 175 175 175 175 175 175 175 175 175 175 175 175 175 175 175 175 175 175 175 175 175 175 175 175 175 175 175 175 175 175 175 175 175 175 175 174 93 4 2 60 157 174 175 175 175 175 175 175 175 175 175 175 175 175 175 175 175 175 175
175 175 175 175 175 175 175 175 175 175 175 175 175 175 175 175 175 175 175 175 175 175 175 175 175 175 175 175 175 175 175 175 175 175 175 175 175 175 175 175 174 99 5 2 55 152 174 175 175 175 175 175 175 175 175 175 175 175 175 175 175 175 175 175
175 175 175 175 175 175 175 175 175 175 175 175 175 175 175 175 175 175 175 175 175 175 175 175 175 175 175 175 175 175 175 175 175 175 175 175 175 175 175 175 174 104 5 1 48 146 174 175 175 175 175 175 175 175 175 175 175 175 175 175 175 175 175 175
175 175 175 175 175 175 175 175 175 175 175 175 175 175 175 175 175 175 175 175 175 175 175 175 175 175 175 175 175 175 175 175 175 175 175 175 175 175 175 175 174 110 8 0 39 136 173 175 175 175 175 175 175 175 175 175 175 175 175 175 175 175 175 175
175 175 175 175 175 175 175 175 175 175 175 175 175 175 175 175 175 175 175 175 175 175 175 175 175 175 175 175 175 175 175 175 175 175 175 175 175 175 175 175 174 121 18 0 30 124 171 175 175 175 175 175 175 175 175 175 175 175 175 175 175 175 175 175
175 175 175 175 175 175 175 175 175 175 175 175 175 175 175 175 175 175 175 175 175 175 175 175 175 175 175 175 175 175 175 175 175 175 175 175 175 175 175 175 174 129 29 0 23 112 168 175 175 175 175 175 175 175 175 175 175 175 175 175 175 175 175 175
175 175 175 175 175 175 175 175 175 175 175 175 175 175 175 175 175 175 175 175 175 175 175 175 175 175 175 175 175 175 175 175 175 175 175 175 175 175 175 175 174 141 52 2 23 108 166 174 175 175 175 175 175 175 175 175 175 175 175 175 175 175 175 175
175 175 175 175 175 175 175 175 175 175 175 175 175 175 175 175 175 175 175 175 175 175 175 175 175 175 175 175 175 175 175 175 175 175 175 175 175 175 175 175 174 159 99 39 57 127 168 174 175 175 175 175 175 175 175 175 175 175 175 175 175 175 175 175
175 175 175 175 175 175 175 175 175 175 175 175 175 175 175 175 175 175 175 175 175 175 175 175 175 175 175 175 175 175 175 175 175 175 175 175 175 175 175 175 175 171 152 124 130 161 173 175 175 175 175 175 175 175 175 175 175 175 175 175 175 175 175 175
175 175 175 175 175 175 175 175 175 175 175 175 175 175 175 175 175 175 175 175 175 175 175 175 175 175 175 175 175 175 175 175 175 175 175 175 175 175 175 175 175 174 173 171 172 175 175 175 175 175 175 175 175 175 175 175 175 175 175 175 175 175 175 175
175 175 175 175 175 175 175 175 175 175 175 175 175 175 175 175 175 175 175 175 175 175 175 175 175 175 175 175 175 175 175 175 175 175 175 175 175 175 175 175 175 175 175 175 175 175 175 175 175 175 175 175 175 175 175 175 175 175 175 175 175 175 175 175
175 175 175 175 175 175 175 175 175 175 175 175 175 175 175 175 175 175 175 175 175 175 175 175 175 175 175 175 175 175 175 175 175 175 175 175 175 175 175 175 175 175 175 175 175 175 175 175 175 175 175 175 175 175 175 175 175 175 175 175 175 175 175 175
175 175 175 175 175 175 175 175 175 175 175 175 175 175 175 175 175 175 175 175 175 175 175 175 175 175 175 175 175 175 175 175 175 175 175 175 175 175 175 175 175 175 175 175 175 175 175 175 175 175 175 175 175 175 175 175 175 175 175 175 175 175 175 175
175 175 175 175 175 175 175 175 175 175 175 175 175 175 175 175 175 175 175 175 175 175 175 175 175 175 175 175 175 175 175 175 175 175 175 175 175 175 175 175 175 175 175 175 175 175 175 175 175 175 175 175 175 175 175 175 175 175 175 175 175 175 175 175
175 175 175 175 175 175 175 175 175 175 175 175 175 175 175 175 175 175 175 175 175 175 175 175 175 175 175 175 175 175 175 175 175 175 175 175 175 175 175 175 175 175 175 175 175 175 175 175 175 175 175 175 175 175 175 175 175 175 175 175 175 175 175 175
175 175 175 175 175 175 175 175 175 175 175 175 175 175 175 175 175 175 175 175 175 175 175 175 175 175 175 175 175 175 175 175 175 175 175 175 175 175 175 175 175 175 175 175 175 175 175 175 175 175 175 175 175 175 175 175 175 175 175 175 175 175 175 175
175 175 175 175 175 175 175 175 175 175 175 175 175 175 175 175 175 175 175 175 175 175 175 175 175 175 175 175 175 175 175 175 175 175 175 175 175 175 175 175 175 175 175 175 175 175 175 175 175 175 175 175 175 175 175 175 175 175 175 175 175 175 175 175
175 175 175 175 175 175 175 175 175 175 175 175 175 175 175 175 175 175 175 175 175 175 175 175 175 175 175 175 175 175 175 175 175 175 175 175 175 175 175 175 175 175 175 175 175 175 175 175 175 175 175 175 175 175 175 175 175 175 175 175 175 175 175 175
175 175 175 175 175 175 175 175 175 175 175 175 175 175 175 175 175 175 175 175 175 175 175 175 175 175 175 175 175 175 175 175 175 175 175 175 175 175 175 175 175 175 175 175 175 175 175 175 175 175 175 175 175 175 175 175 175 175 175 175 175 175 175 175
175 175 175 175 175 175 175 175 175 175 175 175 175 175 175 175 175 175 175 175 175 175 175 175 175 175 175 175 175 175 175 175 175 175 175 175 175 175 175 175 175 175 175 175 175 175 175 175 175 175 175 175 175 175 175 175 175 175 175 175 175 175 175 175
175 175 175 175 175 175 175 175 175 175 175 175 175 175 175 175 175 175 175 175 175 175 175 175 175 175 175 175 175 175 175 175 175 175 175 175 175 175 175 175 175 175 175 175 175 175 175 175 175 175 175 175 175 175 175 175 175 175 175 175 175 175 175 175
