P2
64 64
255
148 148 148 148 148 148 148 148 148 148 148 148 148 148 148 148 148 148 148 148 148 148 148 148 148 148 148 148 148 148 148 148 148 148 148 148 148 148 148 148 148 148 148 148 148 148 148 148 148 148 148 148 148 148 148 148 148 148 148 148 148 148 148 148
148 148 148 148 148 148 148 148 148 148 148 148 148 148 148 148 148 148 148 148 148 148 148 148 148 148 148 148 148 148 148 148 148 148 148 148 148 148 148 148 148 148 148 148 148 148 148 148 148 148 148 148 148 148 148 148 148 148 148 148 148 148 148 148
148 148 148 148 148 148 148 148 148 148 148 148 148 148 148 148 148 148 148 148 148 148 148 148 148 148 148 148 148 148 148 148 148 148 148 148 148 148 148 148 148 148 148 148 148 148 148 148 148 148 148 148 148 148 148 148 148 148 148 148 148 148 148 148
148 148 148 148 148 148 148 148 148 148 148 148 148 148 148 148 148 148 148 148 148 148 148 148 148 148 148 148 148 148 148 148 148 148 148 148 148 148 148 148 148 148 148 148 148 148 148 148 148 148 148 148 148 148 148 148 148 148 148 148 148 148 148 148
148 148 148 148 148 148 148 148 148 148 148 148 148 148 148 148 148 148 148 148 148 148 148 148 148 148 148 148 148 148 148 148 148 148 148 148 148 148 148 148 148 148 148 148 148 148 148 148 148 148 148 148 148 148 148 148 148 148 148 148 148 148 148 148
148 148 148 148 148 148 148 148 148 148 148 148 148 148 148 148 148 148 148 148 148 148 148 148 148 148 148 147 147 147 148 148 148 148 148 148 148 148 148 148 148 148 148 148 148 148 148 148 148 148 148 148 148 148 148 148 148 148 148 148 148 148 148 148
148 148 148 148 148 148 148 148 148 148 148 148 148 148 148 148 148 148 148 148 148 148 148 148 147 146 143 135 129 131 138 145 147 148 148 148 148 148 148 148 148 148 148 148 148 148 148 148 148 148 148 148 148 148 148 148 148 148 148 148 148 148 148 148
148 148 148 148 148 148 148 148 148 148 148 148 148 148 148 148 148 148 148 148 148 148 147 146 140 123 100 82 73 78 96 121 140 146 148 148 148 148 148 148 148 148 148 148 148 148 148 148 148 148 148 148 148 148 148 148 148 148 148 148 148 148 148 148
148 148 148 148 148 148 148 148 148 148 148 148 148 148 148 148 148 148 148 148 148 147 142 124 93 61 36 22 18 22 36 69 105 126 140 147 148 148 148 148 148 148 148 148 148 148 148 148 148 148 148 148 148 148 148 148 148 148 148 148 148 148 148 148
148 148 148 148 148 148 148 148 148 148 148 148 148 148 148 148 148 148 148 147 146 136 107 65 31 12 5 1 0 1 5 20 47 72 106 135 147 148 148 148 148 148 148 148 148 148 148 148 148 148 148 148 148 148 148 148 148 148 148 148 148 148 148 148
148 148 148 148 148 148 148 148 148 148 148 148 148 148 148 148 148 147 148 146 133 97 51 18 4 1 3 11 16 13 6 3 7 18 48 102 141 148 148 148 148 148 148 148 148 148 148 148 148 148 148 148 148 148 148 148 148 148 148 148 148 148 148 148
148 148 148 148 148 148 148 148 148 148 148 148 148 148 148 148 148 147 145 130 90 41 11 3 5 18 39 61 70 61 39 16 1 0 13 62 124 146 147 148 148 148 148 148 148 148 148 148 148 148 148 148 148 148 148 148 148 148 148 148 148 148 148 148
148 148 148 148 148 148 148 148 148 148 148 148 148 148 148 147 147 145 129 87 39 9 3 12 38 72 102 121 126 118 94 55 16 2 5 34 94 136 147 148 148 148 148 148 148 148 148 148 148 148 148 148 148 148 148 148 148 148 148 148 148 148 148 148
148 148 148 148 148 148 148 148 148 148 148 148 148 148 148 147 145 128 85 36 7 4 19 54 95 125 139 146 147 145 135 107 60 20 7 16 54 109 140 147 148 148 148 148 148 148 148 148 148 148 148 148 148 148 148 148 148 148 148 148 148 148 148 148
148 148 148 148 148 148 148 148 148 148 148 148 148 148 147 145 126 83 36 10 4 21 62 107 135 145 147 148 148 148 147 139 111 63 21 4 19 68 122 145 147 148 148 148 148 148 148 148 148 148 148 148 148 148 148 148 148 148 148 148 148 148 148 148
148 148 148 148 148 148 148 148 148 148 148 148 148 148 146 132 88 35 7 8 29 69 113 139 146 147 148 148 148 148 148 147 138 102 44 7 5 33 86 132 146 148 148 148 148 148 148 148 148 148 148 148 148 148 148 148 148 148 148 148 148 148 148 148
148 148 148 148 148 148 148 148 148 148 148 148 148 147 140 104 47 10 2 23 71 117 140 147 148 148 148 148 148 148 148 148 146 127 79 27 4 11 45 100 138 147 148 148 148 148 148 148 148 148 148 148 148 148 148 148 148 148 148 148 148 148 148 148
148 148 148 148 148 148 148 148 148 148 148 148 148 146 124 67 18 1 13 57 110 140 147 148 148 148 148 148 148 148 148 148 147 142 115 64 19 2 15 61 118 145 148 148 148 148 148 148 148 148 148 148 148 148 148 148 148 148 148 148 148 148 148 148
148 148 148 148 148 148 148 148 148 148 148 148 147 139 95 33 4 3 36 95 135 147 148 148 148 148 148 148 148 148 148 148 148 147 139 103 45 8 2 30 89 133 147 148 148 148 148 148 148 148 148 148 148 148 148 148 148 148 148 148 148 148 148 148
148 148 148 148 148 148 148 148 148 148 148 148 146 121 60 13 1 17 70 124 145 147 148 148 148 148 148 148 148 148 148 148 148 148 147 128 77 23 2 12 53 110 142 148 148 148 148 148 148 148 148 148 148 148 148 148 148 148 148 148 148 148 148 148
148 148 148 148 148 148 148 148 148 148 148 147 139 92 29 2 3 41 104 140 147 148 148 148 148 148 148 148 148 148 148 148 148 148 148 142 110 53 12 2 22 77 129 147 148 148 148 148 148 148 148 148 148 148 148 148 148 148 148 148 148 148 148 148
148 148 148 148 148 148 148 148 148 148 148 146 120 60 12 0 17 73 128 146 148 148 148 148 148 148 148 148 148 148 148 148 148 148 148 147 136 90 30 2 5 45 107 142 147 148 148 148 148 148 148 148 148 148 148 148 148 148 148 148 148 148 148 148
148 148 148 148 148 148 148 148 148 148 147 139 92 31 4 3 41 104 140 147 148 148 148 148 148 148 148 148 148 148 148 148 148 148 148 148 146 121 60 12 1 21 76 127 146 148 148 148 148 148 148 148 148 148 148 148 148 148 148 148 148 148 148 148
148 148 148 148 148 148 148 148 148 148 147 127 66 13 1 15 71 126 146 148 148 148 148 148 148 148 148 148 148 148 148 148 148 148 148 148 148 138 93 33 4 5 41 100 138 147 148 148 148 148 148 148 148 148 148 148 148 148 148 148 148 148 148 148
148 148 148 148 148 148 148 148 148 148 146 110 44 6 1 32 96 138 147 148 148 148 148 148 148 148 148 148 148 148 148 148 148 148 148 148 148 146 122 66 16 2 18 69 123 145 148 148 148 148 148 148 148 148 148 148 148 148 148 148 148 148 148 148
148 148 148 148 148 148 148 148 148 147 138 85 23 2 4 51 116 144 147 148 148 148 148 148 148 148 148 148 148 148 148 148 148 148 148 148 148 147 140 102 43 8 8 48 108 141 147 148 148 148 148 148 148 148 148 148 148 148 148 148 148 148 148 148
148 148 148 148 148 148 148 148 148 147 125 59 8 0 17 78 132 146 148 148 148 148 148 148 148 148 148 148 148 148 148 148 148 148 148 148 148 148 147 131 80 28 10 39 99 139 147 148 148 148 148 148 148 148 148 148 148 148 148 148 148 148 148 148
148 148 148 148 148 148 148 148 148 147 111 39 2 0 34 103 142 147 148 148 148 148 148 148 148 148 148 148 148 148 148 148 148 148 148 148 148 148 147 144 112 57 25 48 104 140 147 148 148 148 148 148 148 148 148 148 148 148 148 148 148 148 148 148
148 148 148 148 148 148 148 148 148 147 100 24 0 1 50 121 146 147 148 148 148 148 148 148 148 148 148 148 148 148 148 148 148 148 148 148 148 148 148 147 133 99 72 86 122 144 147 148 148 148 148 148 148 148 148 148 148 148 148 148 148 148 148 148
148 148 148 148 148 148 148 148 147 146 90 15 0 3 64 133 147 148 148 148 148 148 148 148 148 148 148 148 148 148 148 148 148 148 148 148 148 148 148 148 144 131 118 125 139 147 148 148 148 148 148 148 148 148 148 148 148 148 148 148 148 148 148 148
148 148 148 148 148 148 148 148 147 142 80 8 0 6 75 140 148 148 148 148 148 148 148 148 148 148 148 148 148 148 148 148 148 148 148 148 148 148 148 148 147 145 142 143 146 147 148 148 148 148 148 148 148 148 148 148 148 148 148 148 148 148 148 148
148 148 148 148 148 148 148 148 147 136 70 4 0 12 86 145 148 148 148 148 148 148 148 148 148 148 148 148 148 148 147 147 148 148 148 148 148 148 148 148 148 148 147 147 148 148 148 148 148 148 148 148 148 148 148 148 148 148 148 148 148 148 148 148
148 148 148 148 148 148 148 148 146 129 61 2 1 20 94 147 148 148 148 148 148 148 148 148 148 148 147 147 147 146 145 147 147 147 147 147 147 147 148 148 148 148 148 148 148 148 148 148 148 148 148 148 148 148 148 148 148 148 148 148 148 148 148 148
148 148 148 148 148 148 148 148 145 122 55 2 2 27 101 147 148 148 148 148 148 148 148 148 147 146 143 139 133 118 101 92 88 89 93 100 111 128 142 147 148 148 148 148 148 148 148 148 148 148 148 148 148 148 148 148 148 148 148 148 148 148 148 148
148 148 148 148 148 148 148 148 145 119 51 2 2 31 103 147 148 148 148 148 148 148 147 147 145 133 112 89 69 46 25 16 12 14 18 27 39 64 101 133 145 148 148 148 148 148 148 148 148 148 148 148 148 148 148 148 148 148 148 148 148 148 148 148
148 148 148 148 148 148 148 148 144 117 50 2 3 33 104 147 148 148 148 148 148 148 147 143 125 86 43 18 8 1 0 0 0 0 1 2 5 13 40 86 118 137 146 148 148 148 148 148 148 148 148 148 148 148 148 148 148 148 148 148 148 148 148 148
148 148 148 148 148 148 148 148 145 118 52 2 3 32 101 145 148 148 148 148 148 147 143 121 73 23 1 0 0 0 1 2 4 4 1 0 0 0 8 33 60 95 130 146 148 148 148 148 148 148 148 148 148 148 148 148 148 148 148 148 148 148 148 148
148 148 148 148 148 148 148 148 146 122 59 6 1 27 93 141 148 148 148 148 147 146 128 76 19 0 0 0 4 19 44 60 66 64 48 26 12 7 6 6 14 39 88 135 147 148 148 148 148 148 148 148 148 148 148 148 148 148 148 148 148 148 148 148
148 148 148 148 148 148 148 148 147 128 70 13 1 19 78 133 147 148 148 148 147 136 95 32 1 0 1 13 47 88 116 128 133 131 118 93 71 55 34 7 0 7 41 107 143 148 148 148 148 148 148 148 148 148 148 148 148 148 148 148 148 148 148 148
148 148 148 148 148 148 148 148 147 136 87 26 1 10 54 116 145 148 148 147 141 111 51 6 0 1 19 68 117 139 145 146 147 147 145 138 129 117 86 34 6 1 16 75 132 147 148 148 148 148 148 148 148 148 148 148 148 148 148 148 148 148 148 148
148 148 148 148 148 148 148 148 148 142 106 41 3 2 29 91 138 148 147 143 120 68 16 0 1 19 69 125 145 147 147 148 148 148 148 147 147 144 125 78 23 1 8 50 117 147 148 148 148 148 148 148 148 148 148 148 148 148 148 148 148 148 148 148
148 148 148 148 148 148 148 148 148 146 120 55 8 0 13 66 127 147 146 131 82 25 1 1 18 66 122 145 147 148 148 148 148 148 148 148 148 147 142 111 46 3 3 33 100 144 148 148 148 148 148 148 148 148 148 148 148 148 148 148 148 148 148 148
148 148 148 148 148 148 148 148 148 147 130 72 16 0 6 51 116 146 142 106 43 4 0 11 55 115 145 147 148 148 148 148 148 148 148 148 148 148 146 125 64 9 1 22 85 138 147 148 148 148 148 148 148 148 148 148 148 148 148 148 148 148 148 148
148 148 148 148 148 148 148 148 148 148 139 95 32 2 3 39 103 140 132 79 20 0 2 33 96 140 147 148 148 148 148 148 148 148 148 148 148 148 147 131 77 18 0 18 73 130 147 148 148 148 148 148 148 148 148 148 148 148 148 148 148 148 148 148
148 148 148 148 148 148 148 148 148 148 145 117 57 12 1 24 78 124 113 54 9 0 17 69 125 146 148 148 148 148 148 148 148 148 148 148 148 148 147 132 80 20 0 16 68 127 147 148 148 148 148 148 148 148 148 148 148 148 148 148 148 148 148 148
148 148 148 148 148 148 148 148 148 148 147 133 87 32 5 9 43 88 80 30 3 5 41 104 141 147 148 148 148 148 148 148 148 148 148 148 148 148 147 130 74 17 0 14 66 126 147 148 148 148 148 148 148 148 148 148 148 148 148 148 148 148 148 148
148 148 148 148 148 148 148 148 148 148 148 143 117 66 21 4 13 41 36 11 1 20 74 126 146 148 148 148 148 148 148 148 148 148 148 148 148 148 147 125 62 11 0 12 64 125 147 148 148 148 148 148 148 148 148 148 148 148 148 148 148 148 148 148
148 148 148 148 148 148 148 148 148 148 148 147 139 106 49 10 1 6 5 0 5 45 107 141 147 148 148 148 148 148 148 148 148 148 148 148 148 148 147 118 51 6 0 15 69 128 147 148 148 148 148 148 148 148 148 148 148 148 148 148 148 148 148 148
148 148 148 148 148 148 148 148 148 148 148 148 147 135 83 23 1 0 0 0 16 73 129 147 147 148 148 148 148 148 148 148 148 148 148 148 148 148 146 110 41 4 0 26 89 137 148 148 148 148 148 148 148 148 148 148 148 148 148 148 148 148 148 148
148 148 148 148 148 148 148 148 148 148 148 148 148 146 113 45 6 0 0 0 24 88 136 147 148 148 148 148 148 148 148 148 148 148 148 148 148 148 141 96 30 1 4 46 112 145 148 148 148 148 148 148 148 148 148 148 148 148 148 148 148 148 148 148
148 148 148 148 148 148 148 148 148 148 148 148 148 148 135 79 19 1 0 0 24 92 138 147 148 148 148 148 148 148 148 148 148 148 148 148 148 147 131 75 19 0 13 69 127 147 148 148 148 148 148 148 148 148 148 148 148 148 148 148 148 148 148 148
148 148 148 148 148 148 148 148 148 148 148 148 148 148 145 118 53 9 0 0 20 85 135 147 148 148 148 148 148 148 148 148 148 148 148 148 148 145 113 48 8 1 29 92 136 147 148 148 148 148 148 148 148 148 148 148 148 148 148 148 148 148 148 148
148 148 148 148 148 148 148 148 148 148 148 148 148 148 148 143 101 39 6 1 15 59 113 141 146 147 147 147 148 148 148 148 148 148 148 147 147 135 86 24 1 5 51 115 144 148 148 148 148 148 148 148 148 148 148 148 148 148 148 148 148 148 148 148
148 148 148 148 148 148 148 148 148 148 148 148 148 148 148 147 135 95 44 16 6 22 59 90 100 110 122 133 142 146 147 147 147 147 143 138 130 103 51 11 1 20 79 132 147 148 148 148 148 148 148 148 148 148 148 148 148 148 148 148 148 148 148 148
148 148 148 148 148 148 148 148 148 148 148 148 148 148 148 148 146 138 107 56 15 5 11 22 27 39 58 79 98 113 118 119 121 118 109 96 78 49 20 5 11 52 111 142 148 148 148 148 148 148 148 148 148 148 148 148 148 148 148 148 148 148 148 148
148 148 148 148 148 148 148 148 148 148 148 148 148 148 148 148 148 148 141 101 38 4 0 1 2 5 11 20 32 48 54 55 57 54 44 33 21 9 4 15 49 100 136 146 148 148 148 148 148 148 148 148 148 148 148 148 148 148 148 148 148 148 148 148
148 148 148 148 148 148 148 148 148 148 148 148 148 148 148 148 148 148 147 132 87 35 5 0 0 0 0 0 2 7 9 9 8 7 2 1 0 2 12 50 103 137 146 147 148 148 148 148 148 148 148 148 148 148 148 148 148 148 148 148 148 148 148 148
148 148 148 148 148 148 148 148 148 148 148 148 148 148 148 148 148 148 147 145 131 97 58 32 20 20 19 10 2 1 1 1 1 1 2 8 12 21 52 103 138 147 148 148 148 148 148 148 148 148 148 148 148 148 148 148 148 148 148 148 148 148 148 148
148 148 148 148 148 148 148 148 148 148 148 148 148 148 148 148 148 148 147 147 146 139 122 100 87 84 79 61 42 32 29 29 29 29 33 48 62 81 111 138 147 147 148 148 148 148 148 148 148 148 148 148 148 148 148 148 148 148 148 148 148 148 148 148
148 148 148 148 148 148 148 148 148 148 148 148 148 148 148 148 148 148 148 148 147 147 145 140 136 135 132 122 107 94 91 92 92 94 101 114 124 134 143 147 147 148 148 148 148 148 148 148 148 148 148 148 148 148 148 148 148 148 148 148 148 148 148 148
148 148 148 148 148 148 148 148 148 148 148 148 148 148 148 148 148 148 148 148 148 148 147 147 147 147 147 146 142 138 138 139 139 141 144 147 147 148 148 148 148 148 148 148 148 148 148 148 148 148 148 148 148 148 148 148 148 148 148 148 148 148 148 148
148 148 148 148 148 148 148 148 148 148 148 148 148 148 148 148 148 148 148 148 148 148 148 148 148 148 148 148 147 147 148 148 148 148 148 148 148 148 148 148 148 148 148 148 148 148 148 148 148 148 148 148 148 148 148 148 148 148 148 148 148 148 148 148
148 148 148 148 148 148 148 148 148 148 148 148 148 148 148 148 148 148 148 148 148 148 148 148 148 148 148 148 148 148 148 148 148 148 148 148 148 148 148 148 148 148 148 148 148 148 148 148 148 148 148 148 148 148 148 148 148 148 148 148 148 148 148 148
148 148 148 148 148 148 148 148 148 148 148 148 148 148 148 148 148 148 148 148 148 148 148 148 148 148 148 148 148 148 148 148 148 148 148 148 148 148 148 148 148 148 148 148 148 148 148 148 148 148 148 148 148 148 148 148 148 148 148 148 148 148 148 148
