P2
64 64
255
211 211 211 211 211 211 211 211 211 211 211 211 211 211 211 211 211 211 211 211 211 211 211 211 211 211 211 211 211 211 211 211 211 211 211 211 211 211 211 211 211 211 211 211 211 211 211 211 211 211 211 211 211 211 211 211 211 211 211 211 211 211 211 211
211 211 211 211 211 211 211 211 211 211 211 211 211 211 211 211 211 211 211 211 211 211 211 211 211 211 211 211 211 211 211 211 211 211 211 211 211 211 211 211 211 211 211 211 211 211 211 211 211 211 211 211 211 211 211 211 211 211 211 211 211 211 211 211
211 211 211 211 211 211 211 211 211 211 211 211 211 211 211 211 211 211 211 211 211 211 211 211 211 211 211 211 211 211 211 211 211 211 211 211 211 211 211 211 211 211 211 211 211 211 211 211 211 211 211 211 211 211 211 211 211 211 211 211 211 211 211 211
211 211 211 211 211 211 211 211 211 211 211 211 211 211 211 211 211 211 211 211 211 211 211 211 211 211 211 211 211 211 211 211 211 211 211 211 211 211 211 211 211 211 211 211 211 211 211 211 211 211 211 211 211 211 211 211 211 211 211 211 211 211 211 211
211 211 211 211 211 211 211 211 211 211 211 211 211 211 211 211 211 211 211 211 211 211 211 211 211 210 211 210 210 211 210 210 210 210 208 209 210 210 210 211 210 210 210 211 211 211 211 211 211 211 211 211 211 211 211 211 211 211 211 211 211 211 211 211
211 211 211 211 211 211 211 211 211 211 211 211 211 211 211 211 211 211 210 211 211 210 211 210 209 209 206 199 198 196 189 193 202 193 183 185 183 183 192 199 193 195 207 206 205 208 211 211 211 211 211 211 211 211 211 211 211 211 211 211 211 211 211 211
211 211 211 211 211 211 211 211 211 211 211 211 211 211 211 211 211 210 208 204 199 198 195 183 178 177 157 140 127 111 107 112 111 106 100 89 89 96 105 108 116 127 137 142 159 183 194 200 206 211 211 211 211 211 211 211 211 211 211 211 211 211 211 211
211 211 211 211 211 211 211 211 211 211 211 211 211 211 211 211 210 205 193 175 150 133 113 96 85 68 58 43 25 24 24 17 16 23 16 5 15 16 11 19 29 29 25 44 65 87 114 144 175 198 206 209 210 211 211 211 211 211 211 211 211 211 211 211
211 211 211 211 211 211 211 211 211 211 211 211 211 211 211 210 210 196 160 119 73 43 28 18 7 5 6 3 0 1 1 0 0 2 4 0 1 1 0 0 0 0 0 2 3 4 28 54 88 129 167 197 210 211 211 211 211 211 211 211 211 211 211 211
211 211 211 211 211 211 211 211 211 211 211 211 211 211 211 211 207 193 153 93 47 17 7 5 4 6 14 19 24 37 35 22 31 42 43 45 48 38 24 30 29 17 9 10 5 0 0 3 8 43 96 153 197 208 210 211 211 211 211 211 211 211 211 211
211 211 211 211 211 211 211 211 211 211 211 211 211 211 211 211 208 198 173 125 89 68 62 53 54 72 89 103 125 132 130 131 133 136 144 152 145 137 136 126 115 107 98 77 48 22 14 5 0 7 30 75 136 183 205 211 211 211 211 211 211 211 211 211
211 211 211 211 211 211 211 211 211 211 211 211 211 211 211 210 210 207 198 181 166 161 153 152 164 173 178 190 198 198 202 207 198 202 207 204 202 205 206 195 194 200 188 169 148 120 83 45 7 1 2 14 61 130 183 208 211 211 211 211 211 211 211 211
211 211 211 211 211 211 211 211 211 211 211 211 211 211 211 211 211 211 209 207 206 204 202 207 209 207 209 210 210 210 211 210 210 211 211 211 211 211 210 210 211 211 210 210 209 197 167 125 72 29 6 0 19 67 138 189 207 210 210 211 211 211 211 211
211 211 211 211 211 211 211 211 211 211 211 211 211 211 211 211 211 211 211 211 211 210 210 211 210 211 211 211 211 211 211 211 211 211 211 211 211 211 211 211 211 211 211 211 211 210 207 193 156 93 35 4 4 26 79 156 196 209 211 211 211 211 211 211
211 211 211 211 211 211 211 211 211 211 211 211 211 211 211 211 211 211 211 211 211 211 211 211 211 211 211 211 211 211 211 211 211 211 211 211 211 211 211 211 211 211 211 211 211 211 211 210 201 159 96 32 4 5 37 106 178 206 211 211 211 211 211 211
211 211 211 211 211 211 211 211 211 211 211 211 211 211 211 211 211 211 211 211 211 211 211 211 211 211 211 211 211 211 211 211 211 211 211 211 211 211 211 211 211 211 211 211 211 211 211 211 209 198 159 94 38 11 14 66 139 193 210 210 211 211 211 211
211 211 211 211 211 211 211 211 211 211 211 211 211 211 211 211 211 211 211 211 211 211 211 211 211 211 211 211 211 211 211 211 211 211 211 211 211 211 211 211 211 211 211 211 211 211 211 211 210 208 197 155 75 24 4 26 96 168 202 210 210 211 211 211
211 211 211 211 211 211 211 211 211 211 211 211 211 211 211 211 211 211 211 211 211 211 211 211 211 211 211 211 211 211 210 211 211 211 211 211 211 211 211 211 211 211 211 211 211 211 211 210 210 210 204 169 89 22 4 14 62 149 194 208 211 211 211 211
211 211 211 211 211 211 211 211 211 211 211 211 211 211 211 211 211 211 211 211 211 211 211 211 211 211 211 210 209 206 210 209 209 210 211 211 211 211 211 211 211 211 211 210 210 210 207 208 202 194 180 125 61 12 0 7 65 140 198 209 211 211 211 211
211 211 211 211 211 211 211 211 211 211 211 211 211 211 211 211 211 211 211 211 211 211 211 211 211 211 210 204 188 169 155 149 166 196 204 205 207 210 209 208 210 210 207 205 198 184 176 169 144 121 91 45 16 3 4 23 94 163 201 211 211 211 211 211
211 211 211 211 211 211 211 211 211 211 211 211 211 211 211 211 211 211 211 211 211 211 211 211 211 210 207 181 120 71 33 41 59 73 101 134 166 176 172 177 186 174 166 157 130 103 83 62 48 33 14 6 1 3 29 82 142 196 207 211 211 211 211 211
211 211 211 211 211 211 211 211 211 211 211 211 211 211 211 211 211 211 211 211 211 211 211 211 211 210 194 146 51 11 1 0 0 0 18 31 37 50 69 79 77 77 71 54 38 22 8 6 6 4 1 5 23 49 99 156 188 207 211 211 211 211 211 211
211 211 211 211 211 211 211 211 211 211 211 211 211 211 211 211 211 211 211 211 211 211 211 211 211 210 198 140 59 4 0 0 0 0 0 0 0 4 4 1 5 11 5 3 5 7 7 6 20 32 43 68 101 143 177 200 210 210 211 211 211 211 211 211
211 211 211 211 211 211 211 211 211 211 211 211 211 211 211 211 211 211 211 211 211 211 211 211 211 210 204 171 103 35 6 3 2 0 0 0 0 0 0 0 0 0 0 7 21 40 60 82 101 121 148 164 185 205 207 210 211 211 211 211 211 211 211 211
211 211 211 211 211 211 211 211 211 211 211 211 211 211 211 211 211 211 211 211 211 211 211 211 211 211 210 199 173 137 101 69 40 28 29 19 0 0 0 0 0 0 1 15 40 82 143 167 181 196 204 207 209 210 211 211 211 211 211 211 211 211 211 211
211 211 211 211 211 211 211 211 211 211 211 211 211 211 211 211 211 211 211 211 211 211 211 211 211 211 211 210 209 209 188 171 169 159 135 111 90 68 41 9 2 1 0 2 19 50 91 135 174 202 210 211 211 211 211 211 211 211 211 211 211 211 211 211
211 211 211 211 211 211 211 211 211 211 211 211 211 211 211 211 211 211 211 211 211 211 211 211 211 211 211 211 211 210 210 209 210 206 206 208 199 169 140 106 70 38 11 0 0 2 9 51 100 152 187 202 209 211 211 211 211 211 211 211 211 211 211 211
211 211 211 211 211 211 211 211 211 211 211 211 211 211 211 211 211 211 211 211 211 211 211 211 211 211 211 211 211 211 211 211 211 211 211 211 210 209 205 195 158 117 73 39 17 4 0 8 28 61 111 158 193 209 210 211 211 211 211 211 211 211 211 211
211 211 211 211 211 211 211 211 211 211 211 211 211 211 211 211 211 211 211 211 211 211 211 211 211 211 211 211 211 211 211 211 211 211 211 211 211 211 211 209 202 187 166 125 78 32 4 1 0 2 32 74 124 169 195 207 211 211 211 211 211 211 211 211
211 211 211 211 211 211 211 211 211 211 211 211 211 211 211 211 211 211 211 211 211 211 211 211 211 211 211 211 211 211 211 211 211 211 211 211 211 211 211 211 210 210 210 191 161 120 74 36 10 0 2 13 37 88 146 191 209 211 211 211 211 211 211 211
211 211 211 211 211 211 211 211 211 211 211 211 211 211 211 211 211 211 211 211 211 211 211 211 211 211 211 211 211 211 211 211 211 211 211 211 211 211 211 211 211 211 210 210 207 196 160 109 56 15 4 0 0 24 74 140 191 205 210 211 211 211 211 211
211 211 211 211 211 211 211 211 211 211 211 211 211 211 211 211 211 211 211 211 211 211 211 211 211 211 211 211 211 211 211 211 211 211 211 211 211 211 211 211 211 211 211 211 211 211 201 179 145 100 55 19 0 2 20 60 120 172 202 211 211 211 211 211
211 211 211 211 211 211 211 211 211 210 210 210 211 210 210 211 211 211 211 211 211 211 211 211 211 211 211 211 211 211 211 211 211 211 211 211 211 211 211 211 211 211 211 211 211 211 210 209 206 182 136 77 23 4 0 4 44 106 169 205 210 211 211 211
211 211 211 211 211 211 211 211 211 208 202 198 191 195 207 211 211 211 211 211 211 211 211 211 211 211 211 211 211 211 211 211 211 211 211 211 211 211 211 211 211 211 211 211 211 211 211 211 211 207 190 154 93 39 9 0 9 40 102 166 201 209 211 211
211 211 211 211 211 211 211 211 208 203 170 131 115 130 180 202 209 211 211 211 211 211 211 211 211 211 211 211 211 211 211 211 211 211 211 211 211 211 211 211 211 211 211 211 211 211 211 211 211 211 209 201 169 108 46 5 0 5 33 103 169 203 211 211
211 211 211 211 211 211 211 211 206 178 119 43 31 49 105 174 204 210 211 211 211 211 211 211 211 211 211 211 211 211 211 211 211 211 211 211 211 211 211 211 211 211 211 211 211 211 211 211 211 211 211 211 202 173 120 48 11 0 5 44 128 188 209 211
211 211 211 211 211 211 211 210 208 169 90 22 0 4 51 132 195 210 211 211 211 211 211 211 211 211 211 211 211 211 211 211 211 211 211 211 211 211 211 211 211 211 211 211 211 211 211 211 211 211 211 211 210 206 180 116 40 7 0 25 87 169 202 210
211 211 211 211 211 211 211 210 206 181 103 32 3 2 22 105 175 208 211 211 211 211 211 211 211 211 211 211 211 211 211 211 211 211 211 211 211 211 211 211 211 211 211 211 211 211 211 211 211 211 211 211 211 210 205 152 73 16 0 10 68 144 198 209
211 211 211 211 211 211 211 211 209 195 151 66 17 2 19 76 160 202 210 211 211 211 211 211 211 211 211 211 211 211 211 211 211 211 211 211 211 211 211 211 211 211 211 211 211 211 211 211 211 211 211 211 211 210 197 153 67 19 0 10 65 143 193 210
211 211 211 211 211 211 211 211 210 209 187 117 41 4 9 55 129 196 207 210 211 211 211 211 211 211 211 211 211 211 211 211 211 211 211 211 211 211 211 211 211 211 211 211 211 211 211 211 211 211 211 211 210 210 178 117 44 4 0 28 86 165 202 210
211 211 211 211 211 211 211 211 211 210 204 150 72 14 3 26 85 156 198 209 210 211 211 211 211 211 211 211 211 211 211 211 211 211 211 211 211 211 211 211 211 211 211 211 211 211 211 211 211 211 211 211 210 197 154 72 23 0 5 48 122 181 210 210
211 211 211 211 211 211 211 211 211 211 206 179 105 31 4 5 28 91 159 200 211 211 211 211 211 211 211 211 211 211 211 211 211 211 211 211 211 211 211 211 211 211 211 211 211 211 211 211 211 211 211 210 210 169 102 31 4 0 28 84 164 198 210 211
211 211 211 211 211 211 211 211 211 211 209 194 149 66 16 2 3 33 112 179 207 211 211 211 211 211 211 211 211 211 211 211 211 211 211 211 211 211 211 211 211 211 211 211 211 211 211 211 211 211 211 210 197 137 56 13 0 5 61 131 185 210 210 211
211 211 211 211 211 211 211 211 211 211 210 207 183 122 45 6 0 15 67 152 200 209 211 211 211 211 211 211 211 211 211 211 211 211 211 211 211 211 211 211 211 211 211 211 211 211 211 211 211 211 211 207 162 93 18 2 2 38 104 179 202 210 211 211
211 211 211 211 211 211 211 211 211 211 211 210 206 170 96 29 1 4 33 93 164 198 208 211 211 211 211 211 211 211 211 211 211 211 211 211 211 211 211 211 211 211 211 211 211 211 211 211 211 210 204 185 115 43 5 0 4 76 148 198 211 211 211 211
211 211 211 211 211 211 211 211 211 211 211 211 210 200 149 77 18 1 4 33 94 158 198 210 211 211 211 211 211 211 211 211 211 211 211 211 211 211 211 211 211 211 211 211 211 211 211 211 210 209 183 127 61 4 0 5 45 120 191 207 211 211 211 211
211 211 211 211 211 211 211 211 211 211 211 211 211 207 187 136 62 19 2 3 36 101 165 202 209 210 211 211 211 211 211 211 211 211 211 211 211 211 211 211 211 211 211 211 211 211 211 211 207 186 140 63 21 0 5 24 98 164 207 211 211 211 211 211
211 211 211 211 211 211 211 211 211 211 211 211 211 210 204 183 134 66 20 1 9 42 106 166 197 208 211 211 211 211 211 211 211 211 211 211 211 211 211 211 211 211 211 211 211 211 210 207 194 137 72 17 0 1 32 83 157 200 210 211 211 211 211 211
211 211 211 211 211 211 211 211 211 211 211 211 211 211 211 208 187 133 65 12 3 10 39 99 155 193 209 211 211 211 211 211 211 211 211 211 211 211 211 211 211 211 211 211 210 210 205 178 135 70 19 2 4 17 78 146 189 210 210 211 211 211 211 211
211 211 211 211 211 211 211 211 211 211 211 211 211 211 211 210 206 181 128 58 15 3 4 33 86 140 178 194 204 210 211 211 211 211 211 211 211 211 211 211 211 211 211 210 205 191 168 101 53 17 0 0 23 74 140 198 207 210 211 211 211 211 211 211
211 211 211 211 211 211 211 211 211 211 211 211 211 211 211 211 210 205 181 126 62 17 0 6 24 54 92 130 164 190 197 202 208 211 210 210 211 211 211 210 209 206 202 196 170 127 77 28 1 0 1 24 71 144 187 208 211 211 211 211 211 211 211 211
211 211 211 211 211 211 211 211 211 211 211 211 211 211 211 211 211 210 206 183 126 65 15 2 0 1 19 45 72 98 128 156 184 190 193 202 208 205 202 204 191 171 145 112 80 38 14 4 0 3 17 78 140 193 209 210 211 211 211 211 211 211 211 211
211 211 211 211 211 211 211 211 211 211 211 211 211 211 211 211 211 211 211 204 181 135 82 40 15 1 0 1 3 14 39 64 85 106 125 140 143 144 147 135 111 82 43 25 14 4 3 8 19 40 88 154 193 207 211 211 211 211 211 211 211 211 211 211
211 211 211 211 211 211 211 211 211 211 211 211 211 211 211 211 211 211 211 210 206 194 163 117 72 31 18 9 2 0 1 2 6 24 34 33 38 45 42 33 30 16 2 1 3 14 41 72 100 142 172 197 211 210 211 211 211 211 211 211 211 211 211 211
211 211 211 211 211 211 211 211 211 211 211 211 211 211 211 211 211 211 211 211 211 210 203 185 160 134 99 66 33 19 12 4 0 0 0 0 2 1 0 3 9 14 14 33 56 86 135 164 188 204 208 209 211 211 211 211 211 211 211 211 211 211 211 211
211 211 211 211 211 211 211 211 211 211 211 211 211 211 211 211 211 211 211 211 211 211 210 210 210 204 182 159 137 106 76 48 33 29 20 5 12 15 10 17 47 74 102 128 153 181 198 208 210 210 211 211 211 211 211 211 211 211 211 211 211 211 211 211
211 211 211 211 211 211 211 211 211 211 211 211 211 211 211 211 211 211 211 211 211 211 211 211 211 210 210 210 210 188 167 149 133 115 102 96 94 92 96 111 135 164 186 196 207 209 210 211 211 211 211 211 211 211 211 211 211 211 211 211 211 211 211 211
211 211 211 211 211 211 211 211 211 211 211 211 211 211 211 211 211 211 211 211 211 211 211 211 211 211 211 211 210 210 210 210 198 190 192 192 183 187 195 192 198 207 209 210 211 211 211 211 211 211 211 211 211 211 211 211 211 211 211 211 211 211 211 211
211 211 211 211 211 211 211 211 211 211 211 211 211 211 211 211 211 211 211 211 211 211 211 211 211 211 211 211 211 211 211 211 210 210 211 209 210 211 210 210 210 211 211 211 211 211 211 211 211 211 211 211 211 211 211 211 211 211 211 211 211 211 211 211
211 211 211 211 211 211 211 211 211 211 211 211 211 211 211 211 211 211 211 211 211 211 211 211 211 211 211 211 211 211 211 211 211 211 211 211 211 211 211 211 211 211 211 211 211 211 211 211 211 211 211 211 211 211 211 211 211 211 211 211 211 211 211 211
211 211 211 211 211 211 211 211 211 211 211 211 211 211 211 211 211 211 211 211 211 211 211 211 211 211 211 211 211 211 211 211 211 211 211 211 211 211 211 211 211 211 211 211 211 211 211 211 211 211 211 211 211 211 211 211 211 211 211 211 211 211 211 211
211 211 211 211 211 211 211 211 211 211 211 211 211 211 211 211 211 211 211 211 211 211 211 211 211 211 211 211 211 211 211 211 211 211 211 211 211 211 211 211 211 211 211 211 211 211 211 211 211 211 211 211 211 211 211 211 211 211 211 211 211 211 211 211
211 211 211 211 211 211 211 211 211 211 211 211 211 211 211 211 211 211 211 211 211 211 211 211 211 211 211 211 211 211 211 211 211 211 211 211 211 211 211 211 211 211 211 211 211 211 211 211 211 211 211 211 211 211 211 211 211 211 211 211 211 211 211 211
211 211 211 211 211 211 211 211 211 211 211 211 211 211 211 211 211 211 211 211 211 211 211 211 211 211 211 211 211 211 211 211 211 211 211 211 211 211 211 211 211 211 211 211 211 211 211 211 211 211 211 211 211 211 211 211 211 211 211 211 211 211 211 211
