P2
64 64
255
170 170 170 170 170 170 170 170 170 170 170 170 170 170 170 170 170 170 170 170 170 170 170 170 170 170 170 170 170 170 170 170 170 170 170 170 170 170 170 170 170 170 170 170 170 170 170 170 170 170 170 170 170 170 170 170 170 170 170 170 170 170 170 170
170 170 170 170 170 170 170 170 170 170 170 170 170 170 170 170 170 170 170 170 170 170 170 170 170 170 170 170 170 170 170 170 170 170 170 170 170 170 170 170 170 170 170 170 170 170 170 170 170 170 170 170 170 170 170 170 170 170 170 170 170 170 170 170
170 170 170 170 170 170 170 170 170 170 170 170 170 170 170 170 170 170 170 170 170 170 170 170 170 170 170 170 170 170 170 170 170 170 170 170 170 170 170 170 170 170 170 170 170 170 170 170 170 170 170 170 170 170 170 170 170 170 170 170 170 170 170 170
170 170 170 170 170 170 170 170 170 170 170 170 170 170 170 170 170 170 170 170 170 170 170 170 170 170 170 170 170 170 170 170 170 170 170 170 170 170 170 170 170 170 170 170 170 170 170 170 170 170 170 170 170 170 170 170 170 170 170 170 170 170 170 170
170 170 170 170 170 170 170 170 170 170 170 170 170 170 170 170 170 170 170 170 170 170 170 170 170 170 170 170 170 170 170 170 170 170 170 170 170 170 170 170 170 170 170 170 170 170 170 170 170 170 170 170 170 170 170 170 170 170 170 170 170 170 170 170
170 170 170 170 170 170 170 170 170 170 170 170 170 170 170 170 170 170 170 170 170 170 170 169 169 169 170 169 169 170 170 170 170 170 170 170 170 170 170 170 170 170 170 170 170 170 170 170 170 170 170 170 170 170 170 170 170 170 170 170 170 170 170 170
170 170 170 170 170 170 170 170 170 170 170 170 170 170 170 170 170 170 170 169 169 169 169 168 159 154 158 164 164 167 169 170 170 170 170 170 170 170 170 170 170 170 170 170 170 170 170 170 170 170 170 170 170 170 170 170 170 170 170 170 170 170 170 170
170 170 170 170 170 170 170 170 170 170 170 170 170 170 170 170 170 170 170 168 160 149 139 129 109 97 98 113 124 135 150 166 168 169 170 170 170 170 170 170 170 170 170 170 170 170 170 170 170 170 170 170 170 170 170 170 170 170 170 170 170 170 170 170
170 170 170 170 170 170 170 170 170 170 170 170 170 170 170 170 170 168 164 149 116 88 64 44 34 28 24 23 40 55 81 119 146 162 168 170 170 170 170 170 170 170 170 170 170 170 170 170 170 170 170 170 170 170 170 170 170 170 170 170 170 170 170 170
170 170 170 170 170 170 170 170 170 170 170 170 170 170 170 169 167 156 127 80 44 24 11 1 1 1 2 0 1 6 20 46 89 128 156 168 169 170 170 170 170 170 170 170 170 170 170 170 170 170 170 170 170 170 170 170 170 170 170 170 170 170 170 170
170 170 170 170 170 170 170 170 170 170 170 170 170 170 170 168 158 119 61 14 3 0 0 1 12 21 24 16 10 3 2 7 24 61 104 142 161 168 170 170 170 170 170 170 170 170 170 170 170 170 170 170 170 170 170 170 170 170 170 170 170 170 170 170
170 170 170 170 170 170 170 170 170 170 170 170 170 170 169 167 132 68 18 0 2 14 31 44 65 85 97 88 62 37 18 5 4 13 38 76 120 150 166 169 169 170 170 170 170 170 170 170 170 170 170 170 170 170 170 170 170 170 170 170 170 170 170 170
170 170 170 170 170 170 170 170 170 170 170 170 170 170 168 152 97 34 3 0 16 60 101 129 139 148 156 160 142 114 82 45 17 3 4 10 41 84 124 154 166 169 170 170 170 170 170 170 170 170 170 170 170 170 170 170 170 170 170 170 170 170 170 170
170 170 170 170 170 170 170 170 170 170 170 170 170 170 164 133 71 13 0 10 57 116 154 168 169 169 169 169 168 161 144 114 66 22 4 0 2 22 56 104 146 166 168 170 170 170 170 170 170 170 170 170 170 170 170 170 170 170 170 170 170 170 170 170
170 170 170 170 170 170 170 170 170 170 170 170 170 169 161 126 51 7 1 28 90 148 168 169 170 170 170 170 170 169 167 163 136 84 38 8 0 2 10 36 90 134 159 168 170 170 170 170 170 170 170 170 170 170 170 170 170 170 170 170 170 170 170 170
170 170 170 170 170 170 170 170 170 170 170 170 170 169 165 119 46 8 4 33 101 161 169 170 170 170 170 170 170 170 170 169 165 141 101 52 18 7 2 4 31 78 130 164 170 170 170 170 170 170 170 170 170 170 170 170 170 170 170 170 170 170 170 170
170 170 170 170 170 170 170 170 170 170 170 170 170 170 162 116 48 4 2 26 102 155 169 170 170 170 170 170 170 170 170 170 169 166 155 132 90 51 19 2 5 25 78 138 162 169 170 170 170 170 170 170 170 170 170 170 170 170 170 170 170 170 170 170
170 170 170 170 170 170 170 170 170 170 170 170 170 170 161 124 54 2 0 25 88 145 169 170 170 170 170 170 170 170 170 170 170 170 168 166 152 116 63 14 0 2 30 86 141 168 170 170 170 170 170 170 170 170 170 170 170 170 170 170 170 170 170 170
170 170 170 170 170 170 170 170 170 170 170 170 170 169 165 138 66 16 0 16 60 126 167 169 170 170 170 170 170 170 170 170 170 170 170 169 168 158 119 52 13 0 8 42 116 168 169 170 170 170 170 170 170 170 170 170 170 170 170 170 170 170 170 170
170 170 170 170 170 170 170 170 170 170 170 170 170 170 169 146 92 34 1 4 24 89 144 165 169 170 170 170 170 170 170 170 170 170 170 170 170 169 153 104 46 10 6 36 117 161 169 170 170 170 170 170 170 170 170 170 170 170 170 170 170 170 170 170
170 170 170 170 170 170 170 170 170 170 170 170 170 170 169 160 126 63 6 0 6 48 105 151 168 170 170 170 170 170 170 170 170 170 170 170 170 170 166 150 107 60 55 92 139 164 170 170 170 170 170 170 170 170 170 170 170 170 170 170 170 170 170 170
170 170 170 170 170 170 170 170 170 170 170 170 170 170 170 168 157 104 42 10 1 17 59 123 162 168 170 170 170 170 170 170 170 170 170 170 170 170 169 169 157 136 131 147 162 168 170 170 170 170 170 170 170 170 170 170 170 170 170 170 170 170 170 170
170 170 170 170 170 170 170 170 170 170 170 170 170 170 170 170 166 139 88 33 2 2 18 72 125 156 168 170 170 170 170 170 170 170 170 170 170 170 170 170 168 166 164 167 170 170 170 170 170 170 170 170 170 170 170 170 170 170 170 170 170 170 170 170
170 170 170 170 170 170 170 170 170 170 170 170 170 170 170 170 169 160 131 71 18 4 4 25 69 121 160 169 169 170 170 170 170 170 170 170 170 170 170 170 170 170 169 169 170 170 170 170 170 170 170 170 170 170 170 170 170 170 170 170 170 170 170 170
170 170 170 170 170 170 170 170 170 170 170 170 170 170 170 170 170 169 160 122 68 26 3 4 18 62 120 154 167 169 170 170 170 170 170 170 170 170 170 170 170 170 170 170 170 170 170 170 170 170 170 170 170 170 170 170 170 170 170 170 170 170 170 170
170 170 170 170 170 170 170 170 170 170 170 170 170 170 170 170 170 170 168 156 124 74 22 2 1 17 58 110 151 166 170 170 170 170 170 170 170 170 170 170 170 170 170 170 170 170 170 170 170 170 170 170 170 170 170 170 170 170 170 170 170 170 170 170
170 170 170 170 170 170 170 170 170 170 170 170 170 170 170 170 170 170 169 168 161 132 77 28 6 2 15 47 103 145 163 169 170 170 170 170 170 170 170 170 170 170 170 170 170 170 170 170 170 170 170 170 170 170 170 170 170 170 170 170 170 170 170 170
170 170 170 170 170 170 170 170 170 170 170 170 170 170 170 170 170 170 170 170 169 162 133 86 35 6 0 6 40 90 136 164 169 170 170 170 170 170 170 170 170 170 170 170 170 170 170 170 170 170 170 170 170 170 170 170 170 170 170 170 170 170 170 170
170 170 170 170 170 170 170 170 170 170 170 170 170 170 170 170 170 170 170 170 170 169 162 144 95 44 13 1 8 33 78 135 162 167 169 170 170 170 170 170 170 170 170 170 170 170 170 170 170 170 170 170 170 170 170 170 170 170 170 170 170 170 170 170
170 170 170 170 170 170 170 170 170 170 170 170 170 170 170 170 170 170 170 170 170 170 170 166 147 105 55 14 1 2 21 68 120 152 166 170 170 170 170 170 170 170 170 170 170 170 170 170 170 170 170 170 170 170 170 170 170 170 170 170 170 170 170 170
170 170 170 170 170 170 170 170 170 170 170 170 170 170 170 170 170 170 170 170 170 170 170 169 166 152 118 59 17 4 2 20 58 110 154 168 169 170 170 170 170 170 170 170 170 170 170 170 170 170 170 170 170 170 170 170 170 170 170 170 170 170 170 170
170 170 170 170 170 170 170 170 170 170 170 170 170 170 170 170 170 170 170 170 170 170 170 170 169 169 159 125 74 31 6 2 10 52 110 148 166 169 170 170 170 170 170 170 170 170 170 170 170 170 170 170 170 170 170 170 170 170 170 170 170 170 170 170
170 170 170 170 170 170 170 170 170 170 170 170 170 170 170 170 170 170 170 170 170 170 170 170 170 170 168 160 134 85 31 4 1 15 52 104 148 166 170 170 170 170 170 170 170 170 170 170 170 170 170 170 170 170 170 170 170 170 170 170 170 170 170 170
170 170 170 170 170 170 170 170 170 170 170 170 170 170 170 170 170 170 170 170 170 170 170 170 170 170 170 168 166 140 86 36 9 2 13 43 98 142 162 169 170 170 170 170 170 170 170 170 170 170 170 170 170 170 170 170 170 170 170 170 170 170 170 170
170 170 170 170 170 170 170 170 170 170 170 170 170 170 170 170 170 170 170 170 170 170 170 170 170 170 170 170 170 163 136 92 39 7 1 6 33 84 134 164 169 170 170 170 170 170 170 170 170 170 170 170 170 170 170 170 170 170 170 170 170 170 170 170
170 170 170 170 170 170 170 170 170 170 170 170 170 170 170 170 170 170 170 170 170 170 170 170 170 170 170 170 170 169 163 146 99 47 15 1 4 29 80 139 162 167 169 170 170 170 170 170 170 170 170 170 170 170 170 170 170 170 170 170 170 170 170 170
170 170 170 170 170 170 170 170 170 170 170 170 170 170 170 170 170 170 170 170 170 170 170 170 170 170 170 170 170 170 170 166 151 110 58 14 0 2 28 74 121 151 166 170 170 170 170 170 170 170 170 170 170 170 170 170 170 170 170 170 170 170 170 170
170 170 170 170 170 170 170 170 170 170 170 170 170 170 170 170 170 170 170 170 170 170 170 170 170 170 170 170 170 170 170 169 168 154 118 56 15 4 5 22 56 105 147 165 168 169 170 170 170 170 170 170 170 170 170 170 170 170 170 170 170 170 170 170
170 170 170 170 170 170 170 170 170 170 170 170 170 170 170 170 170 170 170 170 170 170 170 170 170 170 170 170 170 170 170 170 170 170 156 118 70 31 8 2 6 41 90 133 159 168 170 170 170 170 170 170 170 170 170 170 170 170 170 170 170 170 170 170
170 170 170 170 170 170 170 170 170 170 170 170 170 170 170 170 170 170 170 170 170 170 170 170 170 170 170 170 170 170 170 170 170 170 167 158 134 89 38 9 2 8 32 70 118 150 165 168 169 169 170 170 170 170 170 170 170 170 170 170 170 170 170 170
170 170 170 170 170 170 170 170 170 170 170 170 170 170 170 170 170 170 170 170 170 170 170 170 170 170 170 170 170 170 170 170 170 169 169 168 164 134 86 43 13 1 3 11 34 79 113 142 162 164 168 170 170 170 170 170 170 170 170 170 170 170 170 170
170 170 170 170 170 170 170 170 170 170 170 170 170 170 170 170 170 170 170 170 170 170 170 170 170 170 170 170 170 170 170 170 168 162 150 138 124 100 69 38 15 0 0 0 0 12 33 57 95 126 152 165 169 170 170 170 170 170 170 170 170 170 170 170
170 170 170 170 170 170 170 170 170 170 170 170 170 170 170 170 170 170 170 170 170 170 170 170 170 170 170 170 170 169 169 167 156 126 93 64 42 30 19 8 0 0 0 0 0 0 0 4 8 43 96 144 169 170 170 170 170 170 170 170 170 170 170 170
170 170 170 170 170 170 170 170 170 170 170 170 170 170 170 170 170 170 170 170 170 170 170 170 170 170 170 170 169 164 148 123 88 54 28 10 1 1 1 1 2 11 13 7 1 0 0 0 0 5 41 118 168 169 170 170 170 170 170 170 170 170 170 170
170 170 170 170 170 170 170 170 170 170 170 170 170 170 170 170 170 170 170 170 170 170 170 170 170 169 169 169 161 132 91 48 14 4 1 0 3 14 24 35 46 65 78 78 52 29 10 0 0 4 32 120 162 170 170 170 170 170 170 170 170 170 170 170
170 170 170 170 170 170 170 170 170 170 170 170 170 170 170 170 170 170 170 170 170 170 170 170 169 164 149 128 98 62 29 8 0 2 10 24 43 68 90 112 131 140 148 152 148 110 64 23 3 27 81 140 166 170 170 170 170 170 170 170 170 170 170 170
170 170 170 170 170 170 170 170 170 170 170 170 170 170 170 170 170 170 170 170 170 169 169 169 161 132 92 52 20 8 1 0 5 28 60 96 126 140 151 160 169 169 169 169 169 164 141 112 100 110 140 162 169 170 170 170 170 170 170 170 170 170 170 170
170 170 170 170 170 170 170 170 170 170 170 170 170 170 170 170 170 170 170 170 168 161 147 127 98 62 30 8 0 1 5 22 55 98 132 156 169 169 169 169 170 170 170 170 170 170 167 162 168 168 168 170 170 170 170 170 170 170 170 170 170 170 170 170
170 170 170 170 170 170 170 170 170 170 170 170 170 170 170 170 169 169 168 164 150 121 86 50 20 8 1 0 4 24 52 89 131 156 166 169 170 170 170 170 170 170 170 170 170 170 170 170 169 170 170 170 170 170 170 170 170 170 170 170 170 170 170 170
170 170 170 170 170 170 170 170 170 170 170 170 170 170 170 170 167 153 132 106 76 48 24 7 0 1 5 20 52 91 124 150 168 169 170 170 170 170 170 170 170 170 170 170 170 170 170 170 170 170 170 170 170 170 170 170 170 170 170 170 170 170 170 170
170 170 170 170 170 170 170 170 170 170 170 170 170 170 169 167 148 106 63 28 5 2 0 0 5 24 52 88 129 153 163 168 170 170 170 170 170 170 170 170 170 170 170 170 170 170 170 170 170 170 170 170 170 170 170 170 170 170 170 170 170 170 170 170
170 170 170 170 170 170 170 170 170 170 170 170 170 170 170 159 119 60 15 2 0 4 12 28 56 92 124 150 168 169 170 170 170 170 170 170 170 170 170 170 170 170 170 170 170 170 170 170 170 170 170 170 170 170 170 170 170 170 170 170 170 170 170 170
170 170 170 170 170 170 170 170 170 170 170 170 170 170 169 158 116 52 13 6 12 39 69 102 134 153 163 168 170 170 170 170 170 170 170 170 170 170 170 170 170 170 170 170 170 170 170 170 170 170 170 170 170 170 170 170 170 170 170 170 170 170 170 170
170 170 170 170 170 170 170 170 170 170 170 170 170 170 169 168 147 104 77 76 92 116 140 158 169 169 170 170 170 170 170 170 170 170 170 170 170 170 170 170 170 170 170 170 170 170 170 170 170 170 170 170 170 170 170 170 170 170 170 170 170 170 170 170
170 170 170 170 170 170 170 170 170 170 170 170 170 170 170 170 165 153 143 146 160 165 168 169 170 170 170 170 170 170 170 170 170 170 170 170 170 170 170 170 170 170 170 170 170 170 170 170 170 170 170 170 170 170 170 170 170 170 170 170 170 170 170 170
170 170 170 170 170 170 170 170 170 170 170 170 170 170 170 170 169 168 167 167 170 170 170 170 170 170 170 170 170 170 170 170 170 170 170 170 170 170 170 170 170 170 170 170 170 170 170 170 170 170 170 170 170 170 170 170 170 170 170 170 170 170 170 170
170 170 170 170 170 170 170 170 170 170 170 170 170 170 170 170 170 170 170 170 170 170 170 170 170 170 170 170 170 170 170 170 170 170 170 170 170 170 170 170 170 170 170 170 170 170 170 170 170 170 170 170 170 170 170 170 170 170 170 170 170 170 170 170
170 170 170 170 170 170 170 170 170 170 170 170 170 170 170 170 170 170 170 170 170 170 170 170 170 170 170 170 170 170 170 170 170 170 170 170 170 170 170 170 170 170 170 170 170 170 170 170 170 170 170 170 170 170 170 170 170 170 170 170 170 170 170 170
170 170 170 170 170 170 170 170 170 170 170 170 170 170 170 170 170 170 170 170 170 170 170 170 170 170 170 170 170 170 170 170 170 170 170 170 170 170 170 170 170 170 170 170 170 170 170 170 170 170 170 170 170 170 170 170 170 170 170 170 170 170 170 170
170 170 170 170 170 170 170 170 170 170 170 170 170 170 170 170 170 170 170 170 170 170 170 170 170 170 170 170 170 170 170 170 170 170 170 170 170 170 170 170 170 170 170 170 170 170 170 170 170 170 170 170 170 170 170 170 170 170 170 170 170 170 170 170
170 170 170 170 170 170 170 170 170 170 170 170 170 170 170 170 170 170 170 170 170 170 170 170 170 170 170 170 170 170 170 170 170 170 170 170 170 170 170 170 170 170 170 170 170 170 170 170 170 170 170 170 170 170 170 170 170 170 170 170 170 170 170 170
170 170 170 170 170 170 170 170 170 170 170 170 170 170 170 170 170 170 170 170 170 170 170 170 170 170 170 170 170 170 170 170 170 170 170 170 170 170 170 170 170 170 170 170 170 170 170 170 170 170 170 170 170 170 170 170 170 170 170 170 170 170 170 170
170 170 170 170 170 170 170 170 170 170 170 170 170 170 170 170 170 170 170 170 170 170 170 170 170 170 170 170 170 170 170 170 170 170 170 170 170 170 170 170 170 170 170 170 170 170 170 170 170 170 170 170 170 170 170 170 170 170 170 170 170 170 170 170
170 170 170 170 170 170 170 170 170 170 170 170 170 170 170 170 170 170 170 170 170 170 170 170 170 170 170 170 170 170 170 170 170 170 170 170 170 170 170 170 170 170 170 170 170 170 170 170 170 170 170 170 170 170 170 170 170 170 170 170 170 170 170 170
