P2
64 64
255
190 190 190 190 190 190 190 190 190 190 190 190 190 190 190 190 190 190 190 190 190 190 190 190 190 190 190 190 190 190 190 190 190 190 190 190 190 190 190 190 190 190 190 190 190 190 190 190 190 190 190 190 190 190 190 190 190 190 190 190 190 190 190 190
190 190 190 190 190 190 190 190 190 190 190 190 190 190 190 190 190 190 190 190 190 190 190 190 190 190 190 190 190 190 190 190 190 190 190 190 190 190 190 190 190 190 190 190 190 190 190 190 190 190 190 190 190 190 190 190 190 190 190 190 190 190 190 190
190 190 190 190 190 190 190 190 190 190 190 190 190 190 190 190 190 190 190 190 190 190 190 190 190 190 190 190 190 190 190 190 190 190 190 190 190 190 190 190 190 190 190 190 190 190 190 190 190 190 190 190 190 190 190 190 190 190 190 190 190 190 190 190
190 190 190 190 190 190 190 190 190 190 190 190 190 190 190 190 190 190 190 190 190 190 190 190 190 190 190 190 190 190 190 190 190 190 190 190 190 190 190 190 190 190 190 190 190 190 190 190 190 190 190 190 190 190 190 190 190 190 190 190 190 190 190 190
190 190 190 190 190 190 190 190 190 190 190 190 190 190 190 190 190 190 190 190 190 190 190 190 190 190 190 190 190 190 190 190 190 190 190 190 190 190 190 190 190 190 190 190 190 190 190 190 190 190 190 190 190 190 190 190 190 190 190 190 190 190 190 190
190 190 190 190 190 190 190 190 190 190 190 190 190 190 190 190 190 190 190 190 190 190 190 190 190 190 190 190 190 190 190 190 190 190 190 190 190 190 190 190 190 190 190 190 190 190 190 190 190 190 190 190 190 190 190 190 190 190 190 190 190 190 190 190
190 190 190 190 190 190 190 190 190 190 190 190 190 190 190 190 190 190 190 190 190 190 190 190 190 190 190 190 190 190 190 190 190 190 190 190 190 190 190 190 190 190 190 190 190 190 190 190 190 190 190 190 190 190 190 190 190 190 190 190 190 190 190 190
190 190 190 190 190 190 190 190 190 190 190 190 190 190 190 190 190 190 190 190 190 190 190 190 190 190 190 190 190 190 190 190 190 190 190 190 190 190 190 190 190 190 190 190 190 190 190 190 190 190 190 190 190 190 190 190 190 190 190 190 190 190 190 190
190 190 190 190 190 190 190 190 190 190 190 190 190 190 190 190 190 190 190 190 190 190 190 190 190 190 190 190 190 190 190 190 190 190 190 190 190 190 190 190 190 190 190 190 190 190 190 190 190 190 190 190 190 190 190 190 190 190 190 190 190 190 190 190
190 190 190 190 190 190 190 190 190 190 190 190 190 190 190 190 190 190 190 190 190 190 190 190 190 190 190 190 190 190 190 190 190 190 190 190 190 190 190 190 190 190 190 190 190 190 190 190 190 190 190 190 190 190 190 190 190 190 190 190 190 190 190 190
190 190 190 190 190 190 190 190 190 190 190 190 190 190 190 190 190 190 190 190 190 190 190 190 190 190 190 190 190 190 189 190 189 189 190 188 189 188 187 189 188 189 190 189 190 190 190 190 190 190 190 190 190 190 190 190 190 190 190 190 190 190 190 190
190 190 190 190 190 190 190 190 190 190 190 190 190 190 190 190 190 190 190 190 190 190 190 190 190 190 190 189 188 188 182 184 177 174 170 160 164 152 153 152 151 167 170 177 189 189 189 190 190 190 190 190 190 190 190 190 190 190 190 190 190 190 190 190
190 190 190 190 190 190 190 190 190 190 190 190 190 190 190 190 190 190 190 190 190 190 189 189 189 188 187 172 158 139 124 116 106 100 78 68 57 55 53 47 57 70 88 118 149 166 183 189 190 190 190 190 190 190 190 190 190 190 190 190 190 190 190 190
190 190 190 190 190 190 190 190 190 190 190 190 190 190 190 190 190 190 190 190 189 190 184 175 159 144 125 95 66 42 32 17 22 15 8 5 0 2 1 2 3 2 17 34 56 95 141 174 186 190 190 190 190 190 190 190 190 190 190 190 190 190 190 190
190 190 190 190 190 190 190 190 190 190 190 190 190 190 190 190 190 190 190 190 189 181 156 114 69 47 25 19 8 4 3 0 2 5 4 12 8 14 16 7 11 4 0 1 3 26 59 111 160 188 189 190 190 190 190 190 190 190 190 190 190 190 190 190
190 190 190 190 190 190 190 190 190 190 190 190 190 190 190 190 190 190 190 190 190 173 118 47 11 3 1 6 13 26 38 38 51 58 73 86 91 100 97 94 79 53 35 17 0 0 3 34 92 156 182 189 190 190 190 190 190 190 190 190 190 190 190 190
190 190 190 190 190 190 190 190 190 190 190 190 190 190 190 190 190 190 190 190 187 171 121 41 14 22 37 66 91 117 129 144 144 155 167 170 180 175 180 180 164 149 121 82 38 13 0 4 25 83 156 186 190 190 190 190 190 190 190 190 190 190 190 190
190 190 190 190 190 190 190 190 190 190 190 190 190 190 190 190 190 190 190 190 188 183 153 115 96 103 134 159 174 180 184 188 186 188 189 190 190 189 190 189 189 189 178 160 129 63 12 0 2 29 118 181 189 190 190 190 190 190 190 190 190 190 190 190
190 190 190 190 190 190 190 190 190 190 190 190 190 190 190 190 190 190 190 190 190 189 183 176 171 174 185 188 189 189 190 190 190 190 190 190 190 190 190 190 190 190 189 189 183 129 47 0 0 11 90 165 189 190 190 190 190 190 190 190 190 190 190 190
190 190 190 190 190 190 190 190 190 190 190 190 190 190 190 190 190 190 190 190 190 190 190 190 188 188 190 190 190 190 190 190 190 190 190 190 190 190 190 190 190 190 190 190 189 168 99 26 2 7 63 153 185 189 190 190 190 190 190 190 190 190 190 190
190 190 190 190 190 190 190 190 190 190 190 190 190 190 190 190 190 190 190 190 190 190 190 190 190 190 190 190 190 190 190 190 190 190 190 190 190 190 190 190 190 190 190 190 190 184 149 60 9 2 47 127 180 190 190 190 190 190 190 190 190 190 190 190
190 190 190 190 190 190 190 190 190 190 190 190 190 190 190 190 190 190 190 190 190 190 190 190 190 190 190 190 190 190 190 190 190 190 190 190 190 190 190 190 190 190 190 190 190 187 154 76 10 2 31 121 178 189 190 190 190 190 190 190 190 190 190 190
190 190 190 190 190 190 190 190 190 190 190 190 190 190 190 190 190 190 190 190 190 190 190 190 188 186 188 188 188 190 190 190 190 190 190 190 190 190 190 190 190 190 190 189 189 188 157 68 12 1 38 119 183 190 190 190 190 190 190 190 190 190 190 190
190 190 190 190 190 190 190 190 190 190 190 190 190 190 190 190 190 190 190 190 190 190 189 186 174 148 139 138 160 183 186 188 190 190 190 190 189 189 188 189 187 186 186 180 180 163 121 50 1 0 39 129 180 190 190 190 190 190 190 190 190 190 190 190
190 190 190 190 190 190 190 190 190 190 190 190 190 190 190 190 190 190 190 190 190 190 189 165 104 56 21 35 63 86 122 165 176 174 178 170 174 174 165 165 147 137 123 112 102 80 50 15 0 12 62 144 189 189 190 190 190 190 190 190 190 190 190 190
190 190 190 190 190 190 190 190 190 190 190 190 190 190 190 190 190 190 190 190 190 190 183 141 38 5 0 0 0 5 28 43 70 88 80 79 84 82 80 67 56 38 26 23 12 12 6 2 5 37 112 169 189 190 190 190 190 190 190 190 190 190 190 190
190 190 190 190 190 190 190 190 190 190 190 190 190 190 190 190 190 190 190 190 190 190 183 138 57 8 0 0 0 0 0 0 6 5 2 8 3 10 9 4 7 2 0 2 2 5 20 35 69 112 162 189 190 190 190 190 190 190 190 190 190 190 190 190
190 190 190 190 190 190 190 190 190 190 190 190 190 190 190 190 190 190 190 190 190 190 187 171 119 59 15 9 8 0 0 0 0 0 0 0 0 2 8 5 20 26 34 48 55 76 101 135 157 176 186 190 190 190 190 190 190 190 190 190 190 190 190 190
190 190 190 190 190 190 190 190 190 190 190 190 190 190 190 190 190 190 190 190 190 190 190 189 181 148 124 105 76 45 32 10 0 0 0 0 2 19 41 78 101 118 138 144 159 165 177 186 187 189 190 190 190 190 190 190 190 190 190 190 190 190 190 190
190 190 190 190 190 190 190 190 190 190 190 190 190 190 190 190 190 190 190 190 190 190 190 190 189 189 188 178 176 174 132 92 60 28 0 0 0 8 41 102 138 173 186 186 189 188 190 189 190 190 190 190 190 190 190 190 190 190 190 190 190 190 190 190
190 190 190 190 190 190 190 190 188 186 183 189 189 190 190 190 190 190 190 190 190 190 190 190 190 190 190 189 190 189 187 181 152 106 59 30 8 0 7 24 76 141 185 189 190 190 190 190 190 190 190 190 190 190 190 190 190 190 190 190 190 190 190 190
190 190 190 190 190 190 190 189 171 143 132 154 175 188 190 190 190 190 190 190 190 190 190 190 190 190 190 190 190 190 190 190 186 171 150 103 47 4 0 0 18 78 152 183 189 190 190 190 190 190 190 190 190 190 190 190 190 190 190 190 190 190 190 190
190 190 190 190 190 190 189 176 124 58 41 76 144 182 189 190 190 190 190 190 190 190 190 190 190 190 190 190 190 190 190 190 189 189 189 166 118 53 14 0 2 25 90 154 185 190 190 190 190 190 190 190 190 190 190 190 190 190 190 190 190 190 190 190
190 190 190 190 190 190 189 158 76 17 4 35 126 181 189 190 190 190 190 190 190 190 190 190 190 190 190 190 190 190 190 190 190 190 190 187 174 132 67 14 0 2 26 97 164 188 189 190 190 190 190 190 190 190 190 190 190 190 190 190 190 190 190 190
190 190 190 190 190 190 187 159 70 8 2 39 121 179 190 190 190 190 190 190 190 190 190 190 190 190 190 190 190 190 190 190 190 190 190 190 189 181 141 80 25 2 2 42 118 174 188 190 190 190 190 190 190 190 190 190 190 190 190 190 190 190 190 190
190 190 190 190 190 190 189 164 90 19 3 26 115 177 189 190 190 190 190 190 190 190 190 190 190 190 190 190 190 190 190 190 190 190 190 190 190 189 183 151 82 23 0 13 67 150 184 189 190 190 190 190 190 190 190 190 190 190 190 190 190 190 190 190
190 190 190 190 190 190 189 177 101 21 2 23 99 171 190 190 190 190 190 190 190 190 190 190 190 190 190 190 190 190 190 190 190 190 190 190 190 190 189 185 146 72 14 5 32 106 171 189 190 190 190 190 190 190 190 190 190 190 190 190 190 190 190 190
190 190 190 190 190 190 189 174 110 26 0 8 93 168 188 190 190 190 190 190 190 190 190 190 190 190 190 190 190 190 190 190 190 190 190 190 190 190 190 190 177 127 46 4 5 62 144 185 189 190 190 190 190 190 190 190 190 190 190 190 190 190 190 190
190 190 190 190 190 190 189 182 118 33 2 18 85 167 190 190 190 190 190 190 190 190 190 190 190 190 190 190 190 190 190 190 190 190 190 190 190 190 190 190 188 164 88 22 2 31 111 180 189 190 190 190 190 190 190 190 190 190 190 190 190 190 190 190
190 190 190 190 190 190 190 182 138 50 4 9 74 154 188 190 190 190 190 190 190 190 190 190 190 190 190 190 190 190 190 190 190 190 190 190 190 190 190 190 189 180 136 46 6 14 79 159 188 190 190 190 190 190 190 190 190 190 190 190 190 190 190 190
190 190 190 190 190 190 190 188 159 82 19 8 48 130 186 189 190 190 190 190 190 190 190 190 190 190 190 190 190 190 190 190 190 190 190 190 190 190 190 190 190 188 160 80 15 5 45 137 182 189 190 190 190 190 190 190 190 190 190 190 190 190 190 190
190 190 190 190 190 190 190 188 176 117 33 4 19 79 152 183 189 190 190 190 190 190 190 190 190 190 190 190 190 190 190 190 190 190 190 190 190 190 190 190 190 188 180 103 25 2 29 103 172 189 190 190 190 190 190 190 190 190 190 190 190 190 190 190
190 190 190 190 190 190 190 189 183 144 66 7 3 30 99 158 185 190 190 190 190 190 190 190 190 190 190 190 190 190 190 190 190 190 190 190 190 190 190 190 190 189 180 122 38 2 11 83 161 187 190 190 190 190 190 190 190 190 190 190 190 190 190 190
190 190 190 190 190 190 190 189 188 174 109 33 5 8 41 109 165 187 189 190 190 190 190 190 190 190 190 190 190 190 190 190 190 190 190 190 190 190 190 190 190 189 187 130 44 3 11 67 154 188 190 190 190 190 190 190 190 190 190 190 190 190 190 190
190 190 190 190 190 190 190 190 190 186 154 85 23 2 5 50 114 165 186 189 190 190 190 190 190 190 190 190 190 190 190 190 190 190 190 190 190 190 190 190 190 190 183 140 50 0 4 62 147 186 190 190 190 190 190 190 190 190 190 190 190 190 190 190
190 190 190 190 190 190 190 190 190 189 179 138 70 19 1 13 47 105 157 188 189 190 190 190 190 190 190 190 190 190 190 190 190 190 190 190 190 190 190 190 190 190 187 147 64 9 7 50 140 185 189 190 190 190 190 190 190 190 190 190 190 190 190 190
190 190 190 190 190 190 190 190 190 189 188 175 127 62 9 1 3 33 93 150 176 187 190 190 190 190 190 190 190 190 190 190 190 190 190 190 190 190 190 190 190 190 187 159 73 8 2 41 124 179 190 190 190 190 190 190 190 190 190 190 190 190 190 190
190 190 190 190 190 190 190 190 190 190 190 188 170 123 59 19 2 5 27 64 115 161 188 189 189 190 190 190 190 190 190 190 190 190 190 190 190 190 190 190 190 190 188 159 81 14 2 29 121 180 189 190 190 190 190 190 190 190 190 190 190 190 190 190
190 190 190 190 190 190 190 190 190 190 190 190 186 171 137 74 21 1 0 2 34 76 115 147 177 181 182 189 188 188 190 189 190 190 189 190 190 189 190 189 190 189 188 167 75 11 0 34 115 178 190 190 190 190 190 190 190 190 190 190 190 190 190 190
190 190 190 190 190 190 190 190 190 190 190 190 189 189 186 144 88 40 13 0 1 4 17 55 85 106 128 147 153 167 171 174 187 182 180 182 176 181 177 174 177 168 168 128 57 4 2 26 124 179 190 190 190 190 190 190 190 190 190 190 190 190 190 190
190 190 190 190 190 190 190 190 190 190 190 190 190 190 190 181 160 121 67 17 5 1 0 2 3 21 37 45 63 76 86 103 114 112 112 103 101 98 95 96 88 87 79 52 16 2 5 54 135 187 190 190 190 190 190 190 190 190 190 190 190 190 190 190
190 190 190 190 190 190 190 190 190 190 190 190 190 190 190 189 189 180 150 115 75 36 6 4 2 0 0 1 6 3 12 20 13 23 18 15 17 6 16 14 10 14 8 7 1 4 23 98 166 188 190 190 190 190 190 190 190 190 190 190 190 190 190 190
190 190 190 190 190 190 190 190 190 190 190 190 190 190 190 190 190 189 188 188 163 131 100 67 39 30 20 3 8 5 0 2 0 1 1 0 2 2 2 5 2 5 6 10 20 44 96 149 186 190 190 190 190 190 190 190 190 190 190 190 190 190 190 190
190 190 190 190 190 190 190 190 190 190 190 190 190 190 190 190 190 190 190 190 189 188 183 157 141 122 100 86 76 60 49 41 33 44 44 47 51 47 54 56 59 67 74 90 104 138 168 183 189 190 190 190 190 190 190 190 190 190 190 190 190 190 190 190
190 190 190 190 190 190 190 190 190 190 190 190 190 190 190 190 190 190 190 190 190 190 189 189 189 180 175 178 162 155 147 135 142 143 144 152 147 153 150 150 159 157 168 171 177 185 187 190 190 190 190 190 190 190 190 190 190 190 190 190 190 190 190 190
190 190 190 190 190 190 190 190 190 190 190 190 190 190 190 190 190 190 190 190 190 190 190 190 190 189 190 190 189 189 186 186 188 186 188 188 188 189 187 188 188 188 189 189 190 189 189 190 190 190 190 190 190 190 190 190 190 190 190 190 190 190 190 190
190 190 190 190 190 190 190 190 190 190 190 190 190 190 190 190 190 190 190 190 190 190 190 190 190 190 190 190 190 190 190 190 190 190 190 190 190 190 190 190 190 190 190 190 190 190 190 190 190 190 190 190 190 190 190 190 190 190 190 190 190 190 190 190
190 190 190 190 190 190 190 190 190 190 190 190 190 190 190 190 190 190 190 190 190 190 190 190 190 190 190 190 190 190 190 190 190 190 190 190 190 190 190 190 190 190 190 190 190 190 190 190 190 190 190 190 190 190 190 190 190 190 190 190 190 190 190 190
190 190 190 190 190 190 190 190 190 190 190 190 190 190 190 190 190 190 190 190 190 190 190 190 190 190 190 190 190 190 190 190 190 190 190 190 190 190 190 190 190 190 190 190 190 190 190 190 190 190 190 190 190 190 190 190 190 190 190 190 190 190 190 190
190 190 190 190 190 190 190 190 190 190 190 190 190 190 190 190 190 190 190 190 190 190 190 190 190 190 190 190 190 190 190 190 190 190 190 190 190 190 190 190 190 190 190 190 190 190 190 190 190 190 190 190 190 190 190 190 190 190 190 190 190 190 190 190
190 190 190 190 190 190 190 190 190 190 190 190 190 190 190 190 190 190 190 190 190 190 190 190 190 190 190 190 190 190 190 190 190 190 190 190 190 190 190 190 190 190 190 190 190 190 190 190 190 190 190 190 190 190 190 190 190 190 190 190 190 190 190 190
190 190 190 190 190 190 190 190 190 190 190 190 190 190 190 190 190 190 190 190 190 190 190 190 190 190 190 190 190 190 190 190 190 190 190 190 190 190 190 190 190 190 190 190 190 190 190 190 190 190 190 190 190 190 190 190 190 190 190 190 190 190 190 190
190 190 190 190 190 190 190 190 190 190 190 190 190 190 190 190 190 190 190 190 190 190 190 190 190 190 190 190 190 190 190 190 190 190 190 190 190 190 190 190 190 190 190 190 190 190 190 190 190 190 190 190 190 190 190 190 190 190 190 190 190 190 190 190
190 190 190 190 190 190 190 190 190 190 190 190 190 190 190 190 190 190 190 190 190 190 190 190 190 190 190 190 190 190 190 190 190 190 190 190 190 190 190 190 190 190 190 190 190 190 190 190 190 190 190 190 190 190 190 190 190 190 190 190 190 190 190 190
