P2
# Created by GIMP version 2.10.32 PNM plug-in
64 64
255
255
255
255
255
255
255
255
255
255
255
255
255
255
255
255
255
255
255
255
255
255
255
255
255
255
255
255
255
255
255
255
255
255
255
255
255
255
255
255
255
255
255
255
255
255
255
255
255
255
255
255
255
255
255
255
255
255
255
255
255
255
255
255
255
255
255
255
255
255
255
255
255
255
255
255
255
255
255
255
255
255
255
255
255
255
255
255
255
255
255
255
255
255
255
255
255
255
255
255
255
255
255
255
255
255
255
255
255
255
255
255
255
255
255
255
255
255
255
255
255
255
255
255
255
255
255
255
255
255
255
255
255
255
255
255
255
255
255
255
255
255
255
255
255
255
255
255
255
255
255
255
255
255
255
255
255
255
255
255
255
255
255
255
255
255
255
255
255
255
255
255
255
255
255
255
255
255
255
255
255
255
255
255
255
255
255
255
255
255
255
255
255
255
255
255
255
255
255
255
255
255
255
255
255
255
255
255
255
255
255
255
255
255
255
254
254
253
253
253
253
253
253
253
254
255
255
255
255
255
255
255
255
255
255
255
255
255
255
255
255
255
255
255
255
255
255
255
255
255
255
255
255
255
255
255
255
255
255
255
255
255
255
255
255
255
255
255
255
255
255
255
255
255
255
255
255
250
235
208
181
155
144
142
142
142
145
161
191
223
245
254
255
255
255
255
255
255
255
255
255
255
255
255
255
255
255
255
255
255
255
255
255
255
255
255
255
255
255
255
255
255
255
255
255
255
255
255
255
255
255
255
255
255
255
255
255
255
254
243
213
165
118
81
47
19
11
10
10
9
10
24
53
105
172
227
251
255
255
255
255
255
255
255
255
255
255
255
255
255
255
255
255
255
255
255
255
255
255
255
255
255
255
255
255
255
255
255
255
255
255
255
255
255
255
255
255
255
255
255
255
250
217
153
87
36
9
3
1
0
0
0
0
0
0
0
0
7
51
114
182
231
252
255
255
255
255
255
255
255
255
255
255
255
255
255
255
255
255
255
255
255
255
255
255
255
255
255
255
255
255
255
255
255
255
255
255
255
255
255
255
255
255
255
248
197
104
35
5
1
0
1
2
6
8
10
9
6
1
0
0
1
2
9
38
96
188
245
255
255
255
255
255
255
255
255
255
255
255
255
255
255
255
255
255
255
255
255
255
255
255
255
255
255
255
255
255
255
255
255
255
255
255
255
255
255
255
250
195
85
13
1
1
3
14
46
80
112
134
142
142
124
80
46
35
18
2
0
0
2
61
182
250
255
255
255
255
255
255
255
255
255
255
255
255
255
255
255
255
255
255
255
255
255
255
255
255
255
255
255
255
255
255
255
255
255
255
255
255
255
249
194
81
9
0
3
30
81
133
178
208
235
250
253
253
247
220
187
166
120
44
1
0
0
2
68
187
247
255
255
255
255
255
255
255
255
255
255
255
255
255
255
255
255
255
255
255
255
255
255
255
255
255
255
255
255
255
255
255
255
255
255
255
254
213
93
7
0
2
52
139
209
242
253
254
255
255
255
255
255
255
253
251
232
160
53
2
0
0
6
73
188
250
255
255
255
255
255
255
255
255
255
255
255
255
255
255
255
255
255
255
255
255
255
255
255
255
255
255
255
255
255
255
255
255
255
255
242
148
27
0
0
25
138
234
253
255
255
255
255
255
255
255
255
255
255
255
255
245
182
80
15
0
0
8
88
202
250
255
255
255
255
255
255
255
255
255
255
255
255
255
255
255
255
255
255
255
255
255
255
255
255
255
255
255
255
255
255
255
255
255
213
85
3
0
6
91
213
254
255
255
255
255
255
255
255
255
255
255
255
255
255
255
250
212
114
24
1
1
21
111
218
254
255
255
255
255
255
255
255
255
255
255
255
255
255
255
255
255
255
255
255
255
255
255
255
255
255
255
255
255
255
255
255
250
165
36
0
2
63
186
248
255
255
255
255
255
255
255
255
255
255
255
255
255
255
255
255
252
219
134
44
4
1
37
153
243
255
255
255
255
255
255
255
255
255
255
255
255
255
255
255
255
255
255
255
255
255
255
255
255
255
255
255
255
255
255
255
232
109
6
0
12
131
242
255
255
255
255
255
255
255
255
255
255
255
255
255
255
255
255
255
255
252
230
136
31
1
5
85
208
252
255
255
255
255
255
255
255
255
255
255
255
255
255
255
255
255
255
255
255
255
255
255
255
255
255
255
255
255
255
254
198
61
1
0
29
164
253
255
255
255
255
255
255
255
255
255
255
255
255
255
255
255
255
255
255
255
253
209
84
4
1
27
104
166
218
249
255
255
255
255
255
255
255
255
255
255
255
255
255
255
255
255
255
255
255
255
255
255
255
255
255
255
255
253
177
39
0
0
34
172
253
255
255
255
255
255
255
255
255
255
255
255
255
255
255
255
255
255
255
255
255
243
143
27
0
1
7
30
124
222
255
255
255
255
255
255
255
255
255
255
255
255
255
255
255
255
255
255
255
255
255
255
255
255
255
255
255
254
183
46
0
0
46
183
254
255
255
255
255
255
255
255
255
255
255
255
255
255
255
255
255
255
255
255
255
253
195
67
1
0
0
0
57
189
253
255
255
255
255
255
255
255
255
255
255
255
255
255
255
255
255
255
255
255
255
255
255
255
255
255
255
254
193
61
1
1
61
193
254
255
255
255
255
255
255
255
255
255
255
255
255
255
255
255
255
255
255
255
255
255
233
119
9
0
0
0
49
187
254
255
255
255
255
255
255
255
255
255
255
255
255
255
255
255
255
255
255
255
255
255
255
255
255
255
255
254
197
69
2
2
64
194
254
255
255
255
255
255
255
255
255
255
255
255
255
255
255
255
255
255
255
255
255
255
251
177
41
0
0
1
68
203
254
255
255
255
255
255
255
255
255
255
255
255
255
255
255
255
255
255
255
255
255
255
255
255
255
255
255
254
206
81
3
1
51
181
253
255
255
255
255
255
255
255
255
255
255
255
255
255
255
255
255
255
255
255
255
255
255
222
86
3
0
3
100
226
255
255
255
255
255
255
255
255
255
255
255
255
255
255
255
255
255
255
255
255
255
255
255
255
255
255
255
255
226
108
7
0
26
147
245
255
255
255
255
255
255
255
255
255
255
255
255
255
255
255
255
255
255
255
255
255
255
215
73
1
0
8
130
244
255
255
255
255
255
255
255
255
255
255
255
255
255
255
255
255
255
255
255
255
255
255
255
255
255
255
255
255
245
149
29
1
6
101
223
255
255
255
255
255
255
255
255
255
255
255
255
255
255
255
255
255
255
255
255
255
250
169
35
0
0
28
165
252
255
255
255
255
255
255
255
255
255
255
255
255
255
255
255
255
255
255
255
255
255
255
255
255
255
255
255
255
253
195
68
2
1
49
172
249
255
255
255
255
255
255
255
255
255
255
255
255
255
255
255
255
255
255
255
255
233
119
13
0
2
76
209
255
255
255
255
255
255
255
255
255
255
255
255
255
255
255
255
255
255
255
255
255
255
255
255
255
255
255
255
255
255
233
125
16
0
12
102
212
250
254
255
255
255
255
255
255
255
255
255
255
255
255
255
255
255
255
255
248
181
64
3
1
38
155
242
255
255
255
255
255
255
255
255
255
255
255
255
255
255
255
255
255
255
255
255
255
255
255
255
255
255
255
255
255
255
251
196
79
9
6
47
104
157
195
224
245
252
253
253
254
255
255
255
255
255
255
255
255
254
250
232
177
88
20
2
14
109
219
253
255
255
255
255
255
255
255
255
255
255
255
255
255
255
255
255
255
255
255
255
255
255
255
255
255
255
255
255
255
255
255
243
181
81
26
9
10
30
64
107
145
153
146
143
162
207
241
252
253
253
252
244
223
191
152
107
55
16
4
12
74
184
246
255
255
255
255
255
255
255
255
255
255
255
255
255
255
255
255
255
255
255
255
255
255
255
255
255
255
255
255
255
255
255
255
254
243
177
68
5
0
0
1
3
10
11
8
6
16
64
117
139
142
142
139
126
95
52
22
5
2
0
15
78
176
238
254
255
255
255
255
255
255
255
255
255
255
255
255
255
255
255
255
255
255
255
255
255
255
255
255
255
255
255
255
255
255
255
255
255
255
234
154
58
8
1
0
0
0
0
0
0
0
1
5
9
10
10
9
7
3
0
0
0
0
6
52
144
219
245
253
255
255
255
255
255
255
255
255
255
255
255
255
255
255
255
255
255
255
255
255
255
255
255
255
255
255
255
255
255
255
255
255
255
250
215
144
74
23
2
0
0
0
0
0
0
0
0
0
0
0
0
0
0
0
0
0
0
0
4
14
56
109
161
208
243
254
255
255
255
255
255
255
255
255
255
255
255
255
255
255
255
255
255
255
255
255
255
255
255
255
255
255
255
255
255
255
249
194
90
27
5
1
0
1
1
2
4
7
9
13
19
12
10
10
10
10
14
28
27
4
0
0
0
0
1
6
32
76
146
219
251
255
255
255
255
255
255
255
255
255
255
255
255
255
255
255
255
255
255
255
255
255
255
255
255
255
255
255
255
255
217
91
4
0
0
2
12
50
89
113
133
147
151
156
156
147
143
142
142
143
149
163
152
89
29
10
1
0
0
0
0
1
20
105
211
252
255
255
255
255
255
255
255
255
255
255
255
255
255
255
255
255
255
255
255
255
255
255
255
255
255
255
255
248
157
28
0
0
5
52
119
179
223
243
252
253
254
254
254
253
253
253
253
253
253
254
248
216
163
117
72
44
31
16
1
0
0
14
121
232
255
255
255
255
255
255
255
255
255
255
255
255
255
255
255
255
255
255
255
255
255
255
255
255
255
255
252
210
87
4
0
2
62
170
233
251
255
255
255
255
255
255
255
255
255
255
255
255
255
255
255
255
250
235
209
187
167
126
47
2
0
0
45
176
249
255
255
255
255
255
255
255
255
255
255
255
255
255
255
255
255
255
255
255
255
255
255
255
255
255
233
137
29
1
3
56
176
246
255
255
255
255
255
255
255
255
255
255
255
255
255
255
255
255
255
255
255
255
254
254
252
239
168
55
2
0
6
99
222
255
255
255
255
255
255
255
255
255
255
255
255
255
255
255
255
255
255
255
255
255
255
255
255
254
199
72
3
2
44
157
242
255
255
255
255
255
255
255
255
255
255
255
255
255
255
255
255
255
255
255
255
255
255
255
255
255
246
174
53
2
1
41
175
252
255
255
255
255
255
255
255
255
255
255
255
255
255
255
255
255
255
255
255
255
255
255
255
252
164
33
0
4
94
218
253
255
255
255
255
255
255
255
255
255
255
255
255
255
255
255
255
255
255
255
255
255
255
255
255
255
255
241
122
9
0
14
139
246
255
255
255
255
255
255
255
255
255
255
255
255
255
255
255
255
255
255
255
255
255
255
255
246
137
12
0
10
131
244
255
255
255
255
255
255
255
255
255
255
255
255
255
255
255
255
255
255
255
255
255
255
255
255
255
255
255
252
153
23
0
7
121
237
255
255
255
255
255
255
255
255
255
255
255
255
255
255
255
255
255
255
255
255
255
255
255
235
117
6
0
24
155
252
255
255
255
255
255
255
255
255
255
255
255
255
255
255
255
255
255
255
255
255
255
255
255
255
255
255
255
254
162
29
0
6
113
231
255
255
255
255
255
255
255
255
255
255
255
255
255
255
255
255
255
255
255
255
255
255
255
221
97
4
0
37
170
254
255
255
255
255
255
255
255
255
255
255
255
255
255
255
255
255
255
255
255
255
255
255
255
255
255
255
255
254
162
30
0
5
110
230
255
255
255
255
255
255
255
255
255
255
255
255
255
255
255
255
255
255
255
255
255
255
254
207
82
3
1
51
184
254
255
255
255
255
255
255
255
255
255
255
255
255
255
255
255
255
255
255
255
255
255
255
255
255
255
255
255
254
162
30
0
5
110
230
255
255
255
255
255
255
255
255
255
255
255
255
255
255
255
255
255
255
255
255
255
255
254
208
85
3
1
47
173
251
255
255
255
255
255
255
255
255
255
255
255
255
255
255
255
255
255
255
255
255
255
255
255
255
255
255
255
254
162
30
0
5
110
230
255
255
255
255
255
255
255
255
255
255
255
255
255
255
255
255
255
255
255
255
255
255
255
226
114
11
1
20
122
232
255
255
255
255
255
255
255
255
255
255
255
255
255
255
255
255
255
255
255
255
255
255
255
255
255
255
255
254
162
29
0
6
113
231
255
255
255
255
255
255
255
255
255
255
255
255
255
255
255
255
255
255
255
255
255
255
255
245
172
51
2
2
57
182
251
255
255
255
255
255
255
255
255
255
255
255
255
255
255
255
255
255
255
255
255
255
255
255
255
255
255
254
157
24
0
6
120
237
255
255
255
255
255
255
255
255
255
255
255
255
255
255
255
255
255
255
255
255
255
255
255
254
227
114
13
0
12
98
205
249
255
255
255
255
255
255
255
255
255
255
255
255
255
255
255
255
255
255
255
255
255
255
255
255
255
250
139
12
0
9
132
246
255
255
255
255
255
255
255
255
255
255
255
255
255
255
255
255
255
255
255
255
255
255
255
255
251
183
61
3
2
23
98
202
252
255
255
255
255
255
255
255
255
255
255
255
255
255
255
255
255
255
255
255
255
255
255
255
255
232
105
5
0
20
154
252
255
255
255
255
255
255
255
255
255
255
255
255
255
255
255
255
255
255
255
255
255
255
255
255
255
232
144
36
1
0
15
99
205
249
255
255
255
255
255
255
255
255
255
255
255
255
255
255
255
255
255
255
255
255
255
255
251
183
54
1
1
59
193
254
255
255
255
255
255
255
255
255
255
255
255
255
255
255
255
255
255
255
255
255
255
255
255
255
255
252
220
111
16
0
1
19
98
203
252
255
255
255
255
255
255
255
255
255
255
255
255
255
255
255
255
255
255
255
255
255
233
120
12
0
11
116
232
255
255
255
255
255
255
255
255
255
255
255
255
255
255
255
255
255
255
255
255
255
255
255
255
255
255
255
252
203
98
19
1
0
20
122
221
252
255
255
255
255
255
255
255
255
255
255
255
255
255
255
255
255
255
255
255
251
189
65
2
1
51
179
251
255
255
255
255
255
255
255
255
255
255
255
255
255
255
255
255
255
255
255
255
255
255
255
255
255
255
255
255
249
205
99
16
1
5
59
128
203
248
255
255
255
255
255
255
255
255
255
255
255
255
255
255
255
255
255
255
233
127
23
1
9
106
223
255
255
255
255
255
255
255
255
255
255
255
255
255
255
255
255
255
255
255
255
255
255
255
255
255
255
255
255
255
255
252
203
110
42
23
13
24
91
190
243
254
255
255
255
255
255
255
255
255
255
255
255
255
255
255
255
248
177
61
3
2
48
168
245
255
255
255
255
255
255
255
255
255
255
255
255
255
255
255
255
255
255
255
255
255
255
255
255
255
255
255
255
255
255
255
249
220
154
66
7
0
17
81
165
228
252
255
255
255
255
255
255
255
255
255
255
255
255
255
251
196
77
9
1
12
109
219
253
255
255
255
255
255
255
255
255
255
255
255
255
255
255
255
255
255
255
255
255
255
255
255
255
255
255
255
255
255
255
255
255
255
234
161
64
11
2
9
55
141
219
250
255
255
255
255
255
255
255
255
255
255
255
254
221
101
8
0
2
57
184
246
255
255
255
255
255
255
255
255
255
255
255
255
255
255
255
255
255
255
255
255
255
255
255
255
255
255
255
255
255
255
255
255
255
255
252
233
168
73
11
2
5
42
105
169
222
248
254
253
254
255
255
255
255
254
251
223
130
26
0
0
12
125
236
254
255
255
255
255
255
255
255
255
255
255
255
255
255
255
255
255
255
255
255
255
255
255
255
255
255
255
255
255
255
255
255
255
255
255
255
255
243
184
92
29
5
4
10
39
90
134
155
166
192
223
243
243
226
203
173
112
32
1
0
4
76
202
254
255
255
255
255
255
255
255
255
255
255
255
255
255
255
255
255
255
255
255
255
255
255
255
255
255
255
255
255
255
255
255
255
255
255
255
255
255
254
244
202
122
43
3
0
1
4
10
20
29
54
95
124
124
103
75
48
19
3
0
11
74
187
247
255
255
255
255
255
255
255
255
255
255
255
255
255
255
255
255
255
255
255
255
255
255
255
255
255
255
255
255
255
255
255
255
255
255
255
255
255
255
255
255
251
220
144
63
15
2
0
0
0
0
0
3
7
7
4
2
1
0
10
30
94
190
250
255
255
255
255
255
255
255
255
255
255
255
255
255
255
255
255
255
255
255
255
255
255
255
255
255
255
255
255
255
255
255
255
255
255
255
255
255
255
255
255
255
255
252
232
189
132
71
23
6
1
0
0
0
0
0
0
1
3
20
82
150
210
247
255
255
255
255
255
255
255
255
255
255
255
255
255
255
255
255
255
255
255
255
255
255
255
255
255
255
255
255
255
255
255
255
255
255
255
255
255
255
255
255
255
255
255
255
255
253
241
207
161
119
73
43
37
28
15
15
31
56
85
133
204
246
255
255
255
255
255
255
255
255
255
255
255
255
255
255
255
255
255
255
255
255
255
255
255
255
255
255
255
255
255
255
255
255
255
255
255
255
255
255
255
255
255
255
255
255
255
255
255
255
255
255
252
241
212
183
174
163
149
149
165
187
210
235
252
255
255
255
255
255
255
255
255
255
255
255
255
255
255
255
255
255
255
255
255
255
255
255
255
255
255
255
255
255
255
255
255
255
255
255
255
255
255
255
255
255
255
255
255
255
255
255
255
255
255
255
255
255
255
253
254
254
253
253
254
254
254
255
255
255
255
255
255
255
255
255
255
255
255
255
255
255
255
255
255
255
255
255
255
255
255
255
255
255
255
255
255
255
255
255
255
255
255
255
255
255
255
255
255
255
255
255
255
255
255
255
255
255
255
255
255
255
255
255
255
255
255
255
255
255
255
255
255
255
255
255
255
255
255
255
255
255
255
255
255
255
255
255
255
255
255
255
255
255
255
255
255
255
255
255
255
255
255
255
255
255
255
255
255
255
255
255
255
255
255
255
255
255
255
255
255
255
255
255
255
255
255
255
255
255
255
255
255
255
255
255
255
255
255
255
255
255
255
255
255
255
255
255
255
255
255
255
255
255
255
255
255
255
255
255
255
255
255
255
255
255
255
255
255
255
255
255
255
255
255
255
255
255
255
255
255
255
255
255
255
255
255
255
255
255
255
255
255
255
255
255
255
255
255
255
255
255
255
255
255
255
255
255
255
255
255
255
255
255
255
255
255
255
255
255
255
255
255
255
