P2
64 64
255
135 135 135 135 135 135 135 135 135 135 135 135 135 135 135 135 135 135 135 135 135 135 135 135 135 135 135 135 135 135 135 135 135 135 135 135 135 135 135 135 135 135 135 135 135 135 135 135 135 135 135 135 135 135 135 135 135 135 135 135 135 135 135 135
135 135 135 135 135 135 135 135 135 135 135 135 135 135 135 135 135 135 135 135 135 135 135 135 135 135 135 135 135 135 135 135 135 135 135 135 135 135 135 135 135 135 135 135 135 135 135 135 135 135 135 135 135 135 135 135 135 135 135 135 135 135 135 135
135 135 135 135 135 135 135 135 135 135 135 135 135 135 135 135 135 135 135 135 135 135 135 135 135 135 135 135 135 135 135 135 135 135 135 135 135 135 135 135 135 135 135 135 135 135 135 135 135 135 135 135 135 135 135 135 135 135 135 135 135 135 135 135
135 135 135 135 135 135 135 135 135 135 135 135 135 135 135 135 135 135 135 135 135 135 135 135 135 135 135 135 135 135 135 135 135 135 135 135 135 135 135 135 135 135 135 135 135 135 135 135 135 135 135 135 135 135 135 135 135 135 135 135 135 135 135 135
135 135 135 135 135 135 135 135 135 135 135 135 135 135 135 135 135 135 135 135 135 135 135 135 135 135 135 135 135 135 135 135 135 135 135 135 135 135 135 135 135 135 135 135 135 135 135 135 135 135 135 135 135 135 135 135 135 135 135 135 135 135 135 135
135 135 135 135 135 135 135 135 135 135 135 135 135 135 135 135 135 135 135 135 135 135 135 135 135 135 135 135 135 135 135 135 135 135 135 135 135 135 135 135 135 135 135 135 135 135 135 135 135 135 135 135 135 135 135 135 135 135 135 135 135 135 135 135
135 135 135 135 135 135 135 135 135 135 135 135 135 135 135 135 135 135 135 135 135 135 135 135 135 135 135 135 135 135 135 135 135 135 135 135 135 135 135 135 135 135 135 135 135 135 135 135 135 135 135 135 135 135 135 135 135 135 135 135 135 135 135 135
135 135 135 135 135 135 135 135 135 135 135 135 135 135 135 135 135 135 135 135 135 135 135 135 135 135 135 135 135 135 135 135 135 135 135 135 135 135 135 135 135 135 135 135 135 135 135 135 135 135 135 135 135 135 135 135 135 135 135 135 135 135 135 135
135 135 135 135 135 135 135 135 135 135 135 135 135 135 135 135 135 135 135 135 135 135 135 135 134 133 133 129 132 132 134 134 135 135 135 135 135 135 135 135 135 135 135 135 135 135 135 135 135 135 135 135 135 135 135 135 135 135 135 135 135 135 135 135
135 135 135 135 135 135 135 135 135 135 135 135 135 135 135 135 135 135 135 135 135 134 132 118 117 101 95 90 94 101 110 120 123 129 134 135 135 135 135 135 135 135 135 135 135 135 135 135 135 135 135 135 135 135 135 135 135 135 135 135 135 135 135 135
135 135 135 135 135 135 135 135 135 135 135 135 135 135 135 135 135 135 134 132 130 105 84 63 45 38 26 26 26 34 47 57 70 92 109 127 135 135 135 135 135 135 135 135 135 135 135 135 135 135 135 135 135 135 135 135 135 135 135 135 135 135 135 135
135 135 135 135 135 135 135 135 135 135 135 135 135 135 135 135 135 134 131 103 76 46 18 7 5 1 2 1 2 5 7 4 15 26 53 89 115 135 135 135 135 135 135 135 135 135 135 135 135 135 135 135 135 135 135 135 135 135 135 135 135 135 135 135
135 135 135 135 135 135 135 135 135 135 135 135 135 135 135 135 134 115 88 52 18 3 1 0 1 5 12 12 22 20 15 3 0 1 13 32 77 113 134 135 135 135 135 135 135 135 135 135 135 135 135 135 135 135 135 135 135 135 135 135 135 135 135 135
135 135 135 135 135 135 135 135 135 135 135 135 135 135 135 121 101 70 35 10 2 1 3 10 36 50 66 77 82 83 64 40 19 1 0 6 29 83 121 135 135 135 135 135 135 135 135 135 135 135 135 135 135 135 135 135 135 135 135 135 135 135 135 135
135 135 135 135 135 135 135 135 135 135 135 135 135 129 115 84 46 19 7 0 2 10 41 73 98 119 121 127 131 128 118 102 62 25 1 0 6 51 107 132 135 135 135 135 135 135 135 135 135 135 135 135 135 135 135 135 135 135 135 135 135 135 135 135
135 135 135 135 135 135 135 135 135 135 135 134 132 109 71 34 12 0 1 2 27 59 95 125 134 134 135 135 135 135 135 129 107 49 11 0 3 33 92 129 135 135 135 135 135 135 135 135 135 135 134 134 132 132 132 133 133 134 135 134 135 135 135 135
135 135 135 135 135 135 135 135 135 135 135 124 98 65 27 2 0 0 19 42 73 109 128 134 135 135 135 135 135 135 135 135 118 63 10 0 1 30 91 127 135 135 135 135 134 135 129 130 123 121 113 105 102 98 100 98 107 106 115 119 127 130 134 135
135 135 135 135 135 135 135 135 135 129 108 78 44 11 4 0 9 27 62 97 118 130 135 135 135 135 135 135 135 135 135 131 110 53 12 0 5 42 98 132 135 135 130 130 115 102 90 76 70 59 50 39 31 33 27 32 30 39 50 63 76 101 119 130
135 135 135 135 135 135 135 135 131 111 62 18 7 1 1 6 35 76 109 126 135 135 135 135 135 135 135 135 135 135 135 123 83 33 5 1 19 66 112 131 119 111 95 75 57 35 24 18 7 10 2 3 1 1 2 2 1 3 7 8 20 43 79 117
135 135 135 135 135 135 135 133 107 63 22 2 0 0 15 47 83 115 134 135 135 135 135 135 135 135 135 135 135 135 130 106 52 9 1 2 29 79 91 83 68 47 33 18 3 3 0 0 0 2 1 7 7 13 13 14 13 7 8 3 2 4 42 87
135 135 135 135 135 135 129 113 70 20 2 0 3 19 53 96 126 132 135 135 135 135 135 135 135 135 135 135 135 132 113 73 28 1 0 10 28 41 37 20 8 7 0 0 0 3 3 20 24 34 43 51 63 68 74 71 70 64 47 20 4 1 11 65
135 135 135 135 135 133 111 71 29 6 0 2 18 61 106 125 135 135 135 135 135 135 135 135 135 135 135 135 132 122 76 29 7 0 0 3 11 8 1 0 0 1 1 15 20 40 61 78 94 101 108 116 119 129 124 127 123 127 96 52 5 0 10 50
135 135 135 135 133 119 80 31 3 1 5 34 71 107 132 135 135 135 135 135 135 135 135 135 135 135 135 134 102 60 28 5 0 0 0 0 0 0 2 12 14 33 47 65 87 102 119 130 130 134 133 135 135 135 135 135 135 134 122 66 20 1 7 58
135 135 135 135 124 89 38 10 0 8 30 77 120 133 135 135 135 135 135 135 135 135 135 135 135 135 120 91 48 13 0 0 0 0 0 3 4 25 37 59 81 95 112 121 126 135 135 135 135 135 135 135 135 135 135 135 135 134 114 65 17 5 20 67
135 135 135 131 113 60 11 1 1 28 74 113 131 135 135 135 135 135 135 135 135 135 135 135 132 121 83 33 3 0 0 0 0 6 11 39 62 82 103 115 126 134 133 135 135 135 135 135 135 135 135 135 135 135 135 135 135 131 109 52 9 2 22 74
135 135 135 130 104 57 13 10 22 62 108 131 135 135 135 135 135 135 135 135 135 135 135 134 117 73 26 6 0 0 0 2 10 46 79 100 120 130 131 135 135 135 135 135 135 135 135 135 135 135 135 135 135 135 135 135 135 129 99 45 9 6 29 81
135 135 135 134 117 86 59 49 75 106 127 135 135 135 135 135 135 135 135 135 135 135 135 125 93 32 1 0 0 0 0 29 74 106 125 134 135 135 135 135 135 135 135 135 135 135 135 135 135 135 135 135 135 135 135 135 134 121 81 35 9 12 50 98
135 135 135 135 132 125 113 114 120 134 135 135 135 135 135 135 135 135 135 135 135 135 134 125 75 25 0 0 0 18 46 84 118 135 135 135 135 135 135 135 135 135 135 135 135 135 135 135 135 135 135 135 135 135 135 135 131 104 54 14 8 26 75 120
135 135 135 135 135 134 133 135 135 135 135 135 135 135 135 135 135 135 135 135 135 135 135 126 99 50 27 25 42 70 106 132 134 135 135 135 135 135 135 135 135 135 135 135 135 135 135 135 135 135 135 135 135 135 135 134 125 87 33 3 6 41 95 131
135 135 135 135 135 135 135 135 135 135 135 135 135 135 135 135 135 135 135 135 135 135 135 134 125 110 99 97 110 131 133 135 135 135 135 135 135 135 135 135 135 135 135 135 135 135 135 135 135 135 135 135 135 135 135 131 105 59 17 1 16 58 113 132
135 135 135 135 135 135 135 135 135 135 135 135 135 135 135 135 135 135 135 135 135 135 135 135 135 133 131 135 134 135 135 135 135 135 135 135 135 135 135 135 135 135 135 135 135 135 135 135 135 135 135 135 135 135 131 116 70 23 5 2 22 76 120 134
135 135 135 135 135 135 135 135 135 135 135 135 135 135 135 135 135 135 135 135 135 135 135 135 135 135 135 135 135 135 135 135 135 135 135 135 135 135 135 135 135 135 135 135 135 135 135 135 135 135 135 135 135 134 117 79 35 5 0 6 42 96 129 134
135 135 135 135 135 135 135 135 135 135 135 135 135 135 135 135 135 135 135 135 135 135 135 135 135 135 135 135 135 135 135 135 135 135 135 135 135 135 135 135 135 135 135 135 135 135 135 135 135 135 135 135 134 127 90 41 10 1 7 36 80 117 135 135
135 135 135 135 135 135 135 135 135 135 135 135 135 135 135 135 135 135 135 135 135 135 135 135 135 135 135 135 135 135 135 135 135 135 135 135 135 135 135 135 135 135 135 135 135 135 135 135 135 135 135 135 120 90 48 14 1 3 26 74 119 132 135 135
135 135 135 135 135 135 135 135 135 135 135 135 135 135 135 135 135 135 135 135 135 135 135 135 135 135 135 135 135 135 135 135 135 135 135 135 135 135 135 135 135 135 135 135 135 135 135 135 135 135 130 115 86 43 10 1 1 23 62 106 130 135 135 135
135 135 135 135 135 135 135 135 135 135 135 135 135 135 135 135 135 135 135 135 135 135 135 135 135 135 135 135 135 135 135 135 135 135 135 135 135 135 135 135 135 135 135 135 135 135 135 135 134 129 111 72 34 12 0 2 11 55 103 127 134 135 135 135
135 135 135 135 135 135 135 135 135 135 135 135 135 135 135 135 135 135 135 135 135 135 135 135 135 135 135 135 135 135 135 135 135 135 135 135 135 135 135 135 135 135 135 135 135 135 135 134 124 94 60 27 1 0 1 21 57 97 126 135 135 135 135 135
135 135 135 135 135 135 135 135 135 135 135 135 135 135 135 135 135 135 135 135 135 135 135 135 135 135 135 135 135 135 135 135 135 135 135 135 135 135 135 135 135 135 135 135 135 135 130 106 79 45 9 2 0 8 27 62 103 129 134 135 135 135 135 135
135 135 135 135 135 135 135 135 135 135 135 135 135 135 135 135 135 135 135 135 135 135 135 135 135 135 135 135 135 135 135 135 135 135 135 135 135 135 135 135 135 135 135 135 131 108 86 53 20 7 1 2 7 32 75 110 127 135 135 135 135 135 135 135
135 135 135 135 135 135 135 135 135 135 135 135 135 135 135 135 135 135 135 135 135 135 135 135 135 135 135 133 131 133 135 135 135 135 135 135 135 135 135 135 134 134 132 107 85 55 23 10 2 0 2 18 52 87 116 135 135 135 135 135 135 135 135 135
135 135 135 135 135 135 135 135 135 135 135 135 135 135 135 135 135 135 135 135 135 135 135 135 135 133 117 107 100 112 122 133 134 134 132 133 132 129 128 118 119 98 77 50 21 9 3 0 1 11 38 69 102 131 134 135 135 135 135 135 135 135 135 135
135 135 135 135 135 135 135 135 135 135 135 135 135 135 135 135 135 135 135 135 135 135 135 135 131 117 78 44 42 52 78 97 105 102 103 93 95 86 75 62 46 36 15 3 1 0 2 10 35 61 92 122 130 134 135 135 135 135 135 135 135 135 135 135
135 135 135 135 135 135 135 135 135 135 135 135 135 135 135 135 135 135 135 135 135 135 135 134 129 102 56 15 2 13 25 29 31 34 23 25 20 22 12 9 6 1 0 1 2 10 36 62 90 118 127 133 135 135 135 135 135 135 135 135 135 135 135 135
135 135 135 135 135 135 135 135 135 135 135 135 135 135 135 135 135 135 135 135 135 135 135 135 130 110 71 35 18 12 5 4 0 1 1 0 0 0 1 2 2 5 11 13 42 70 94 119 127 133 135 135 135 135 135 135 135 135 135 135 135 135 135 135
135 135 135 135 135 135 135 135 135 135 135 135 135 135 135 135 135 135 135 135 135 135 135 135 135 127 110 93 73 54 33 18 11 7 0 4 5 10 21 25 41 49 65 85 102 126 132 134 135 135 135 135 135 135 135 135 135 135 135 135 135 135 135 135
135 135 135 135 135 135 135 135 135 135 135 135 135 135 135 135 135 135 135 135 135 135 135 135 135 134 134 128 123 115 98 83 74 55 51 46 57 69 82 98 103 117 120 129 134 135 135 135 135 135 135 135 135 135 135 135 135 135 135 135 135 135 135 135
135 135 135 135 135 135 135 135 135 135 135 135 135 135 135 135 135 135 135 135 135 135 135 135 135 135 135 135 135 133 131 131 125 123 117 119 117 129 129 132 133 134 135 135 135 135 135 135 135 135 135 135 135 135 135 135 135 135 135 135 135 135 135 135
135 135 135 135 135 135 135 135 135 135 135 135 135 135 135 135 135 135 135 135 135 135 135 135 135 135 135 135 135 135 135 135 135 135 134 135 135 135 135 135 135 135 135 135 135 135 135 135 135 135 135 135 135 135 135 135 135 135 135 135 135 135 135 135
135 135 135 135 135 135 135 135 135 135 135 135 135 135 135 135 135 135 135 135 135 135 135 135 135 135 135 135 135 135 135 135 135 135 135 135 135 135 135 135 135 135 135 135 135 135 135 135 135 135 135 135 135 135 135 135 135 135 135 135 135 135 135 135
135 135 135 135 135 135 135 135 135 135 135 135 135 135 135 135 135 135 135 135 135 135 135 135 135 135 135 135 135 135 135 135 135 135 135 135 135 135 135 135 135 135 135 135 135 135 135 135 135 135 135 135 135 135 135 135 135 135 135 135 135 135 135 135
135 135 135 135 135 135 135 135 135 135 135 135 135 135 135 135 135 135 135 135 135 135 135 135 135 135 135 135 135 135 135 135 135 135 135 135 135 135 135 135 135 135 135 135 135 135 135 135 135 135 135 135 135 135 135 135 135 135 135 135 135 135 135 135
135 135 135 135 135 135 135 135 135 135 135 135 135 135 135 135 135 135 135 135 135 135 135 135 135 135 135 135 135 135 135 135 135 135 135 135 135 135 135 135 135 135 135 135 135 135 135 135 135 135 135 135 135 135 135 135 135 135 135 135 135 135 135 135
135 135 135 135 135 135 135 135 135 135 135 135 135 135 135 135 135 135 135 135 135 135 135 135 135 135 135 135 135 135 135 135 135 135 135 135 135 135 135 135 135 135 135 135 135 135 135 135 135 135 135 135 135 135 135 135 135 135 135 135 135 135 135 135
135 135 135 135 135 135 135 135 135 135 135 135 135 135 135 135 135 135 135 135 135 135 135 135 135 135 135 135 135 135 135 135 135 135 135 135 135 135 135 135 135 135 135 135 135 135 135 135 135 135 135 135 135 135 135 135 135 135 135 135 135 135 135 135
135 135 135 135 135 135 135 135 135 135 135 135 135 135 135 135 135 135 135 135 135 135 135 135 135 135 135 135 135 135 135 135 135 135 135 135 135 135 135 135 135 135 135 135 135 135 135 135 135 135 135 135 135 135 135 135 135 135 135 135 135 135 135 135
135 135 135 135 135 135 135 135 135 135 135 135 135 135 135 135 135 135 135 135 135 135 135 135 135 135 135 135 135 135 135 135 135 135 135 135 135 135 135 135 135 135 135 135 135 135 135 135 135 135 135 135 135 135 135 135 135 135 135 135 135 135 135 135
135 135 135 135 135 135 135 135 135 135 135 135 135 135 135 135 135 135 135 135 135 135 135 135 135 135 135 135 135 135 135 135 135 135 135 135 135 135 135 135 135 135 135 135 135 135 135 135 135 135 135 135 135 135 135 135 135 135 135 135 135 135 135 135
135 135 135 135 135 135 135 135 135 135 135 135 135 135 135 135 135 135 135 135 135 135 135 135 135 135 135 135 135 135 135 135 135 135 135 135 135 135 135 135 135 135 135 135 135 135 135 135 135 135 135 135 135 135 135 135 135 135 135 135 135 135 135 135
135 135 135 135 135 135 135 135 135 135 135 135 135 135 135 135 135 135 135 135 135 135 135 135 135 135 135 135 135 135 135 135 135 135 135 135 135 135 135 135 135 135 135 135 135 135 135 135 135 135 135 135 135 135 135 135 135 135 135 135 135 135 135 135
135 135 135 135 135 135 135 135 135 135 135 135 135 135 135 135 135 135 135 135 135 135 135 135 135 135 135 135 135 135 135 135 135 135 135 135 135 135 135 135 135 135 135 135 135 135 135 135 135 135 135 135 135 135 135 135 135 135 135 135 135 135 135 135
135 135 135 135 135 135 135 135 135 135 135 135 135 135 135 135 135 135 135 135 135 135 135 135 135 135 135 135 135 135 135 135 135 135 135 135 135 135 135 135 135 135 135 135 135 135 135 135 135 135 135 135 135 135 135 135 135 135 135 135 135 135 135 135
135 135 135 135 135 135 135 135 135 135 135 135 135 135 135 135 135 135 135 135 135 135 135 135 135 135 135 135 135 135 135 135 135 135 135 135 135 135 135 135 135 135 135 135 135 135 135 135 135 135 135 135 135 135 135 135 135 135 135 135 135 135 135 135
135 135 135 135 135 135 135 135 135 135 135 135 135 135 135 135 135 135 135 135 135 135 135 135 135 135 135 135 135 135 135 135 135 135 135 135 135 135 135 135 135 135 135 135 135 135 135 135 135 135 135 135 135 135 135 135 135 135 135 135 135 135 135 135
135 135 135 135 135 135 135 135 135 135 135 135 135 135 135 135 135 135 135 135 135 135 135 135 135 135 135 135 135 135 135 135 135 135 135 135 135 135 135 135 135 135 135 135 135 135 135 135 135 135 135 135 135 135 135 135 135 135 135 135 135 135 135 135
