P2
64 64
255
150 150 150 150 150 150 150 150 150 150 150 150 150 150 150 150 150 150 150 150 150 150 150 150 150 150 150 150 150 150 150 150 150 150 150 150 150 150 150 150 150 150 150 150 150 150 150 150 150 150 150 150 150 150 150 150 150 150 150 150 150 150 150 150
150 150 150 150 150 150 150 150 150 150 150 150 150 150 150 150 150 150 150 150 150 150 150 150 150 150 150 150 150 150 150 150 150 150 150 150 150 150 150 150 150 150 150 150 150 150 150 150 150 150 150 150 150 150 150 150 150 150 150 150 150 150 150 150
150 150 150 150 150 150 150 150 150 150 150 150 150 150 150 150 150 150 150 150 150 150 150 150 150 150 150 150 150 150 150 150 150 150 150 150 150 150 150 150 150 150 150 150 150 150 150 150 150 150 150 150 150 150 150 150 150 150 150 150 150 150 150 150
150 150 150 150 150 150 150 150 150 150 150 150 150 150 150 150 150 150 150 150 150 150 150 150 150 150 150 150 150 150 150 150 150 150 150 150 150 150 150 150 150 150 150 150 150 150 150 150 150 150 150 150 150 150 150 150 150 150 150 150 150 150 150 150
150 150 150 150 150 150 150 150 150 150 150 150 150 150 150 150 150 150 150 150 150 150 150 150 150 150 150 150 150 150 150 150 150 150 150 150 150 150 150 150 150 150 150 150 150 150 150 150 150 150 150 150 150 150 150 150 150 150 150 150 150 150 150 150
150 150 150 150 150 150 150 150 150 150 150 150 150 150 150 150 150 150 150 150 150 150 150 150 150 150 150 150 150 150 150 150 150 150 150 150 150 150 150 150 150 150 150 150 150 150 150 150 150 150 150 150 150 150 150 150 150 150 150 150 150 150 150 150
150 150 150 150 150 150 150 150 150 150 150 150 150 150 150 150 150 150 150 150 150 150 150 150 150 150 150 150 150 150 150 150 150 150 149 149 149 150 150 150 150 150 150 150 150 150 150 150 150 150 150 150 150 150 150 150 150 150 150 150 150 150 150 150
150 150 150 150 150 150 150 150 150 150 150 150 149 149 147 144 144 147 149 150 150 150 150 150 150 150 150 150 150 150 150 150 150 149 148 143 140 144 149 149 150 150 150 150 150 150 150 150 150 150 150 150 150 150 150 150 150 150 150 150 150 150 150 150
150 150 150 150 150 150 150 150 150 150 150 150 149 145 136 124 126 137 147 150 150 150 150 150 150 150 150 150 150 150 150 150 150 148 136 111 103 120 139 148 150 150 150 150 150 150 150 150 150 150 150 150 150 150 150 150 150 150 150 150 150 150 150 150
150 150 150 150 150 150 150 150 150 150 150 150 148 137 112 85 87 116 141 150 150 150 150 150 150 150 150 150 150 150 150 150 150 139 100 48 36 69 116 144 149 150 150 150 150 150 150 150 150 150 150 150 150 150 150 150 150 150 150 150 150 150 150 150
150 150 150 150 150 150 150 150 150 150 150 150 147 127 81 38 42 88 133 150 150 150 150 150 150 150 150 150 150 150 150 150 149 125 60 10 0 24 85 135 149 150 150 150 150 150 150 150 150 150 150 150 150 150 150 150 150 150 150 150 150 150 150 150
150 150 150 150 150 150 150 150 150 150 150 150 147 121 63 14 15 63 124 149 149 150 150 150 150 150 150 150 150 150 150 150 149 116 44 5 0 7 60 124 149 150 150 150 150 150 150 150 150 150 150 150 150 150 150 150 150 150 150 150 150 150 150 150
150 150 150 150 150 150 150 150 150 150 150 149 148 119 50 4 2 44 112 146 149 150 150 150 150 150 150 150 150 150 150 150 149 116 45 4 0 1 42 113 149 150 150 150 150 150 150 150 150 150 150 150 150 150 150 150 150 150 150 150 150 150 150 150
150 150 150 150 150 150 150 150 150 150 150 150 149 118 48 5 1 34 103 143 149 150 150 150 150 150 150 150 150 150 150 150 149 123 56 6 0 0 28 97 146 150 150 150 150 150 150 150 150 150 150 150 150 150 150 150 150 150 150 150 150 150 150 150
150 150 150 150 150 150 150 150 150 150 150 150 149 120 52 8 1 30 96 140 149 150 150 150 150 150 150 150 150 150 150 150 149 131 70 10 0 0 17 78 140 149 150 150 150 150 150 150 150 150 150 150 150 150 150 150 150 150 150 150 150 150 150 150
150 150 150 150 150 150 150 150 150 150 150 150 149 123 58 11 1 27 89 137 149 150 150 150 150 150 150 150 150 150 150 150 149 136 82 15 0 0 10 58 129 149 150 150 150 150 150 150 150 150 150 150 150 150 150 150 150 150 150 150 150 150 150 150
150 150 150 150 150 150 150 150 150 150 150 150 149 125 63 13 0 21 80 133 149 150 150 150 150 150 150 150 150 150 150 150 149 139 91 20 0 0 5 44 120 149 150 150 150 150 150 150 150 150 150 150 150 150 150 150 150 150 150 150 150 150 150 150
150 150 150 150 150 150 150 150 150 150 150 150 149 126 64 12 0 14 67 127 149 150 150 150 150 150 150 150 150 150 150 150 149 142 99 24 0 0 2 34 116 149 150 150 150 150 150 150 150 150 150 150 150 150 150 150 150 150 150 150 150 150 150 150
150 150 150 150 150 150 150 150 150 150 150 150 149 126 64 12 0 10 56 121 149 150 150 150 150 150 150 150 150 150 150 150 149 145 109 29 0 0 0 27 111 147 149 150 150 150 150 150 150 150 150 150 150 150 150 150 150 150 150 150 150 150 150 150
150 150 150 150 150 150 150 150 150 150 150 150 149 129 68 12 0 10 55 123 149 150 150 150 150 150 150 150 150 150 150 150 149 148 122 38 1 0 0 21 103 144 149 150 150 150 150 150 150 150 150 150 150 150 150 150 150 150 150 150 150 150 150 150
150 150 150 150 150 150 150 150 150 150 150 150 149 133 75 14 0 11 63 129 149 150 150 150 150 150 150 150 150 150 150 150 150 150 134 56 5 0 0 16 93 141 149 150 150 150 150 150 150 150 150 150 150 150 150 150 150 150 150 150 150 150 150 150
150 150 150 150 150 150 150 150 150 150 150 150 149 136 79 15 0 11 69 134 150 150 150 150 150 150 150 150 150 150 150 150 150 150 144 74 12 0 0 11 81 136 149 150 150 150 150 150 150 150 150 150 150 150 150 150 150 150 150 150 150 150 150 150
150 150 150 150 150 150 150 150 150 150 150 150 149 140 84 15 0 8 69 136 150 150 150 150 150 150 150 150 150 150 150 150 150 150 147 90 20 0 0 8 69 130 149 150 150 150 150 150 150 150 150 150 150 150 150 150 150 150 150 150 150 150 150 150
150 150 150 150 150 150 150 150 150 150 150 150 149 144 89 15 0 4 67 135 149 150 150 150 150 150 150 150 150 150 150 150 150 150 149 101 29 0 0 5 57 123 149 150 150 150 150 150 150 150 150 150 150 150 150 150 150 150 150 150 150 150 150 150
150 150 150 150 150 150 150 150 150 150 150 150 149 149 93 15 0 3 66 133 149 150 150 150 150 150 150 150 150 150 150 150 150 150 149 111 40 1 0 3 45 116 149 150 150 150 150 150 150 150 150 150 150 150 150 150 150 150 150 150 150 150 150 150
150 150 150 150 150 150 150 150 150 150 150 150 150 149 93 16 0 4 65 132 149 150 150 150 150 150 150 150 150 150 150 150 150 150 149 119 49 2 0 1 35 108 149 150 150 150 150 150 150 150 150 150 150 150 150 150 150 150 150 150 150 150 150 150
150 150 150 150 150 150 150 150 150 150 150 150 150 148 94 21 1 4 62 129 149 150 150 150 150 150 150 150 150 150 150 150 150 150 149 126 60 4 0 1 26 99 149 150 150 150 150 150 150 150 150 150 150 150 150 150 150 150 150 150 150 150 150 150
150 150 150 150 150 150 150 150 150 150 150 150 150 146 96 25 1 4 59 126 149 150 150 150 150 150 150 150 150 150 150 150 150 150 149 133 72 7 0 0 17 88 148 150 150 150 150 150 150 150 150 150 150 150 150 150 150 150 150 150 150 150 150 150
150 150 150 150 150 150 150 150 150 150 150 150 150 144 96 28 1 7 58 123 149 150 150 150 150 150 150 150 150 150 150 150 150 150 149 139 84 11 0 0 9 75 146 150 150 150 150 150 150 150 150 150 150 150 150 150 150 150 150 150 150 150 150 150
150 150 150 150 150 150 150 150 150 150 150 150 150 142 98 32 1 8 54 120 149 150 150 150 150 150 150 150 150 150 150 150 150 150 149 143 97 15 0 0 2 58 141 149 150 150 150 150 150 150 150 150 150 150 150 150 150 150 150 150 150 150 150 150
150 150 150 150 150 150 150 150 150 150 150 150 150 142 101 36 1 7 48 115 149 150 150 150 150 150 150 150 150 150 150 150 150 150 149 147 109 20 0 0 0 42 124 147 149 150 150 150 150 150 150 150 150 150 150 150 150 150 150 150 150 150 150 150
150 150 150 150 150 150 150 150 150 150 150 150 150 143 107 41 1 5 41 110 149 150 150 150 150 150 150 150 150 150 150 150 149 149 149 149 115 31 1 0 0 30 106 143 149 149 149 149 149 149 149 150 150 150 150 150 150 150 150 150 150 150 150 150
150 150 150 150 150 150 150 150 150 150 150 150 150 144 113 46 1 4 35 106 149 149 149 149 149 149 149 149 149 149 149 149 149 146 143 143 114 38 4 0 0 21 90 137 143 139 134 129 124 124 132 143 149 150 150 150 150 150 150 150 150 150 150 150
150 150 150 150 150 150 150 150 150 150 150 150 150 146 119 51 2 2 28 101 148 149 148 143 138 133 128 123 119 113 109 107 110 112 111 110 85 30 3 0 0 8 50 85 93 86 79 72 66 67 86 118 143 150 150 150 150 150 150 150 150 150 150 150
150 150 150 150 150 150 150 150 150 150 150 150 150 147 125 57 2 1 18 75 108 103 98 92 85 78 71 64 57 50 44 40 41 41 42 40 25 7 0 0 0 1 12 22 21 17 15 13 12 17 38 86 133 149 150 150 150 150 150 150 150 150 150 150
150 150 150 150 150 150 150 150 150 150 150 150 150 149 131 62 2 0 7 33 41 35 28 21 16 14 13 11 10 8 7 6 6 5 2 0 0 0 0 0 0 0 0 2 1 0 0 0 0 2 22 75 131 149 150 150 150 150 150 150 150 150 150 150
150 150 150 150 150 150 150 150 150 150 150 150 150 150 135 68 6 0 1 5 6 5 3 1 0 0 0 0 0 1 1 1 1 0 0 0 0 0 0 0 0 0 0 1 1 2 2 5 12 22 48 97 138 150 150 150 150 150 150 150 150 150 150 150
150 150 150 150 150 150 150 150 150 150 150 150 150 150 137 77 14 0 0 0 1 1 1 1 2 2 7 12 18 23 28 31 31 30 26 15 2 0 0 0 3 15 30 40 46 51 57 63 70 81 101 129 146 150 150 150 150 150 150 150 150 150 150 150
150 150 150 150 150 150 150 150 150 150 150 150 150 150 141 95 31 8 9 17 27 35 41 47 52 58 64 70 76 83 88 91 90 90 89 78 48 12 0 1 17 59 91 101 109 115 122 127 134 137 141 147 149 150 150 150 150 150 150 150 150 150 150 150
150 150 150 150 150 150 150 150 150 150 150 150 150 150 146 123 78 46 48 67 85 96 103 109 116 122 129 135 136 137 139 138 136 135 136 129 93 31 0 4 35 104 140 142 143 144 146 147 148 150 150 150 150 150 150 150 150 150 150 150 150 150 150 150
150 150 150 150 150 150 150 150 150 150 150 150 150 150 149 143 129 118 117 127 136 140 142 143 144 146 147 149 150 150 150 150 149 149 149 142 99 27 0 2 30 106 149 150 150 150 150 150 150 150 150 150 150 150 150 150 150 150 150 150 150 150 150 150
150 150 150 150 150 150 150 150 150 150 150 150 150 150 149 149 147 147 149 149 150 150 150 150 150 150 150 150 150 150 150 150 150 150 149 143 97 22 0 0 22 102 148 149 150 150 150 150 150 150 150 150 150 150 150 150 150 150 150 150 150 150 150 150
150 150 150 150 150 150 150 150 150 150 150 150 150 150 150 150 150 149 149 150 150 150 150 150 150 150 150 150 150 150 150 150 150 150 149 147 104 25 0 0 24 101 145 149 150 150 150 150 150 150 150 150 150 150 150 150 150 150 150 150 150 150 150 150
150 150 150 150 150 150 150 150 150 150 150 150 150 150 150 150 150 150 150 150 150 150 150 150 150 150 150 150 150 150 150 150 150 150 150 149 113 38 3 0 29 100 142 149 150 150 150 150 150 150 150 150 150 150 150 150 150 150 150 150 150 150 150 150
150 150 150 150 150 150 150 150 150 150 150 150 150 150 150 150 150 150 150 150 150 150 150 150 150 150 150 150 150 150 150 150 150 150 150 149 119 50 7 0 30 96 140 149 150 150 150 150 150 150 150 150 150 150 150 150 150 150 150 150 150 150 150 150
150 150 150 150 150 150 150 150 150 150 150 150 150 150 150 150 150 150 150 150 150 150 150 150 150 150 150 150 150 150 150 150 150 150 150 149 123 58 11 1 27 90 137 149 150 150 150 150 150 150 150 150 150 150 150 150 150 150 150 150 150 150 150 150
150 150 150 150 150 150 150 150 150 150 150 150 150 150 150 150 150 150 150 150 150 150 150 150 150 150 150 150 150 150 150 150 150 150 150 149 126 64 14 1 24 83 134 149 150 150 150 150 150 150 150 150 150 150 150 150 150 150 150 150 150 150 150 150
150 150 150 150 150 150 150 150 150 150 150 150 150 150 150 150 150 150 150 150 150 150 150 150 150 150 150 150 150 150 150 150 150 150 150 149 129 71 17 1 20 77 131 149 150 150 150 150 150 150 150 150 150 150 150 150 150 150 150 150 150 150 150 150
150 150 150 150 150 150 150 150 150 150 150 150 150 150 150 150 150 150 150 150 150 150 150 150 150 150 150 150 150 150 150 150 150 150 150 149 132 77 21 0 17 70 128 149 150 150 150 150 150 150 150 150 150 150 150 150 150 150 150 150 150 150 150 150
150 150 150 150 150 150 150 150 150 150 150 150 150 150 150 150 150 150 150 150 150 150 150 150 150 150 150 150 150 150 150 150 150 150 150 149 134 83 23 0 12 60 123 149 150 150 150 150 150 150 150 150 150 150 150 150 150 150 150 150 150 150 150 150
150 150 150 150 150 150 150 150 150 150 150 150 150 150 150 150 150 150 150 150 150 150 150 150 150 150 150 150 150 150 150 150 150 150 150 149 137 89 25 0 7 44 113 149 150 150 150 150 150 150 150 150 150 150 150 150 150 150 150 150 150 150 150 150
150 150 150 150 150 150 150 150 150 150 150 150 150 150 150 150 150 150 150 150 150 150 150 150 150 150 150 150 150 150 150 150 150 150 150 149 140 94 25 0 2 27 102 149 150 150 150 150 150 150 150 150 150 150 150 150 150 150 150 150 150 150 150 150
150 150 150 150 150 150 150 150 150 150 150 150 150 150 150 150 150 150 150 150 150 150 150 150 150 150 150 150 150 150 150 150 150 150 150 149 143 100 25 0 1 20 97 149 150 150 150 150 150 150 150 150 150 150 150 150 150 150 150 150 150 150 150 150
150 150 150 150 150 150 150 150 150 150 150 150 150 150 150 150 150 150 150 150 150 150 150 150 150 150 150 150 150 150 150 150 150 150 150 149 146 109 32 0 0 24 102 147 149 150 150 150 150 150 150 150 150 150 150 150 150 150 150 150 150 150 150 150
150 150 150 150 150 150 150 150 150 150 150 150 150 150 150 150 150 150 150 150 150 150 150 150 150 150 150 150 150 150 150 150 150 150 150 149 149 115 40 2 0 31 104 144 149 150 150 150 150 150 150 150 150 150 150 150 150 150 150 150 150 150 150 150
150 150 150 150 150 150 150 150 150 150 150 150 150 150 150 150 150 150 150 150 150 150 150 150 150 150 150 150 150 150 150 150 150 150 150 150 149 119 50 7 1 35 103 142 149 150 150 150 150 150 150 150 150 150 150 150 150 150 150 150 150 150 150 150
150 150 150 150 150 150 150 150 150 150 150 150 150 150 150 150 150 150 150 150 150 150 150 150 150 150 150 150 150 150 150 150 150 150 150 150 149 126 68 17 7 45 106 142 149 150 150 150 150 150 150 150 150 150 150 150 150 150 150 150 150 150 150 150
150 150 150 150 150 150 150 150 150 150 150 150 150 150 150 150 150 150 150 150 150 150 150 150 150 150 150 150 150 150 150 150 150 150 150 150 149 136 98 54 44 78 123 145 150 150 150 150 150 150 150 150 150 150 150 150 150 150 150 150 150 150 150 150
150 150 150 150 150 150 150 150 150 150 150 150 150 150 150 150 150 150 150 150 150 150 150 150 150 150 150 150 150 150 150 150 150 150 150 150 150 145 129 107 102 121 141 149 150 150 150 150 150 150 150 150 150 150 150 150 150 150 150 150 150 150 150 150
150 150 150 150 150 150 150 150 150 150 150 150 150 150 150 150 150 150 150 150 150 150 150 150 150 150 150 150 150 150 150 150 150 150 150 150 150 149 146 140 139 144 148 149 150 150 150 150 150 150 150 150 150 150 150 150 150 150 150 150 150 150 150 150
150 150 150 150 150 150 150 150 150 150 150 150 150 150 150 150 150 150 150 150 150 150 150 150 150 150 150 150 150 150 150 150 150 150 150 150 150 150 150 149 149 149 150 150 150 150 150 150 150 150 150 150 150 150 150 150 150 150 150 150 150 150 150 150
150 150 150 150 150 150 150 150 150 150 150 150 150 150 150 150 150 150 150 150 150 150 150 150 150 150 150 150 150 150 150 150 150 150 150 150 150 150 150 150 150 150 150 150 150 150 150 150 150 150 150 150 150 150 150 150 150 150 150 150 150 150 150 150
150 150 150 150 150 150 150 150 150 150 150 150 150 150 150 150 150 150 150 150 150 150 150 150 150 150 150 150 150 150 150 150 150 150 150 150 150 150 150 150 150 150 150 150 150 150 150 150 150 150 150 150 150 150 150 150 150 150 150 150 150 150 150 150
150 150 150 150 150 150 150 150 150 150 150 150 150 150 150 150 150 150 150 150 150 150 150 150 150 150 150 150 150 150 150 150 150 150 150 150 150 150 150 150 150 150 150 150 150 150 150 150 150 150 150 150 150 150 150 150 150 150 150 150 150 150 150 150
