P2
64 64
255
216 216 216 216 216 216 216 216 216 216 216 216 216 216 216 216 216 216 216 216 216 216 216 216 216 216 216 216 216 216 216 216 216 216 216 216 216 216 216 216 216 216 216 216 216 216 216 216 216 216 216 216 216 216 216 216 216 216 216 216 216 216 216 216
216 216 216 216 216 216 216 216 216 216 216 216 216 216 216 216 216 216 216 216 216 216 216 216 216 216 216 216 216 216 216 216 216 216 216 216 216 216 216 216 216 216 216 216 216 216 216 216 216 216 216 216 216 216 216 216 216 216 216 216 216 216 216 216
216 216 216 216 216 216 216 216 216 216 216 216 216 216 216 216 216 216 216 216 216 216 216 216 216 216 216 216 216 216 216 216 216 216 216 216 216 216 216 216 216 216 216 216 216 216 216 216 216 216 216 216 216 216 216 216 216 216 216 216 216 216 216 216
216 216 216 216 216 216 216 216 216 216 216 216 216 216 216 216 216 216 216 216 216 216 216 216 216 216 216 216 216 216 216 216 216 216 216 216 216 216 216 216 216 216 216 216 216 216 216 216 216 216 216 216 216 216 216 216 216 216 216 216 216 216 216 216
216 216 216 216 216 216 216 216 216 216 216 216 216 216 216 216 216 216 216 216 216 216 216 216 216 216 216 216 216 216 216 216 216 216 216 216 216 216 216 216 216 216 216 216 216 216 216 216 216 216 216 216 216 216 216 216 216 216 216 216 216 216 216 216
216 216 216 216 216 216 216 216 216 216 216 216 216 216 216 216 216 216 216 216 216 216 216 216 216 216 216 216 216 216 216 216 216 216 216 216 216 216 216 216 216 216 216 216 216 216 216 216 216 216 216 216 216 216 216 216 216 216 216 216 216 216 216 216
216 216 216 216 216 216 216 216 216 216 216 216 216 216 216 216 216 216 216 216 216 216 216 216 216 216 216 216 215 215 215 215 215 215 214 214 215 216 216 216 216 216 216 216 216 216 216 216 216 216 216 216 216 216 216 216 216 216 216 216 216 216 216 216
216 216 216 216 216 216 216 216 216 216 216 216 216 216 216 216 216 216 216 216 216 216 216 216 216 216 215 213 207 197 188 182 180 186 192 195 203 210 214 215 216 216 216 216 216 216 216 216 216 216 216 216 216 216 216 216 216 216 216 216 216 216 216 216
216 216 216 216 216 216 216 216 216 216 216 216 216 216 216 216 216 216 216 216 216 216 216 216 216 216 212 195 165 132 106 91 83 84 96 116 140 165 189 205 214 216 215 216 216 216 216 216 216 216 216 216 216 216 216 216 216 216 216 216 216 216 216 216
216 216 216 216 216 216 216 216 216 216 216 216 216 216 216 216 216 216 216 216 216 216 216 216 216 211 188 138 83 44 27 18 11 5 8 22 44 76 113 155 192 211 213 215 216 216 216 216 216 216 216 216 216 216 216 216 216 216 216 216 216 216 216 216
216 216 216 216 216 216 216 216 216 216 216 216 216 216 216 216 216 216 216 216 216 216 215 212 197 159 101 49 16 4 1 1 0 0 2 1 3 13 34 66 108 156 187 205 214 216 216 216 216 216 216 216 216 216 216 216 216 216 216 216 216 216 216 216
216 216 216 216 216 216 216 216 216 216 216 216 216 216 216 216 216 216 216 216 216 216 216 201 153 78 16 1 1 9 23 38 44 42 35 27 18 9 5 11 22 55 110 161 199 213 215 216 216 216 216 216 216 216 216 216 216 216 216 216 216 216 216 216
216 216 216 216 216 216 216 216 216 216 216 216 216 216 216 216 216 216 216 216 215 215 211 176 105 28 0 0 13 50 95 131 149 154 139 116 89 56 24 7 1 6 33 80 146 188 207 214 216 216 216 216 216 216 216 216 216 216 216 216 216 216 216 216
216 216 216 216 216 216 216 216 216 216 216 216 216 216 216 216 216 216 216 216 216 211 189 133 58 8 3 14 57 121 176 200 208 214 210 199 178 145 102 58 23 5 5 19 73 122 163 196 213 215 216 216 216 216 216 216 216 216 216 216 216 216 216 216
216 216 216 216 216 216 216 216 216 216 216 216 216 216 216 216 216 216 216 216 214 197 148 74 14 3 21 66 131 186 211 215 215 216 216 215 213 202 181 144 94 41 12 13 25 44 79 137 197 211 215 216 216 216 216 216 216 216 216 216 216 216 216 216
216 216 216 216 216 216 216 216 216 216 216 216 216 216 216 216 216 216 216 215 205 166 94 23 2 8 58 132 191 213 215 216 216 216 216 216 216 215 211 200 176 130 76 39 14 5 18 61 141 190 211 215 216 216 216 216 216 216 216 216 216 216 216 216
216 216 216 216 216 216 216 216 216 216 216 216 216 216 216 216 216 216 216 211 185 123 44 6 3 36 107 180 212 215 216 216 216 216 216 216 216 216 216 214 211 197 153 92 35 2 0 18 75 140 190 212 215 216 216 216 216 216 216 216 216 216 216 216
216 216 216 216 216 216 216 216 216 216 216 216 216 216 216 216 216 216 215 202 157 75 15 3 22 79 158 207 215 216 216 216 216 216 216 216 216 216 216 215 215 216 198 154 89 25 5 3 23 73 144 200 212 216 216 216 216 216 216 216 216 216 216 216
216 216 216 216 216 216 216 216 216 216 216 216 216 216 216 216 216 216 212 186 119 35 5 5 43 121 196 213 215 216 216 216 216 216 216 216 216 216 216 216 216 216 212 198 161 91 36 8 3 21 82 160 200 214 216 216 216 216 216 216 216 216 216 216
216 216 216 216 216 216 216 216 216 216 216 216 216 216 216 216 216 213 193 143 64 15 1 17 72 161 208 215 216 216 216 216 216 216 216 216 216 216 216 216 216 216 215 214 204 156 89 30 1 1 35 105 169 207 216 216 216 216 216 216 216 216 216 216
216 216 216 216 216 216 216 216 216 216 216 216 216 216 216 214 206 182 124 57 17 3 5 35 112 190 211 216 216 216 216 216 216 216 216 216 216 216 216 216 216 216 216 216 214 194 144 71 7 1 10 55 125 190 215 215 216 216 216 216 216 216 216 216
216 216 216 216 216 216 216 216 216 216 216 216 216 216 214 200 162 97 34 6 0 0 12 61 159 203 214 216 216 216 216 216 216 216 216 216 216 216 216 216 216 216 216 216 216 210 186 126 45 11 1 26 86 170 207 215 216 216 216 216 216 216 216 216
216 216 216 216 216 216 216 216 216 216 216 216 216 215 202 162 89 18 3 0 0 4 27 106 184 211 216 216 216 216 216 216 216 216 216 216 216 216 216 216 216 216 216 216 216 214 209 165 84 26 0 11 54 144 197 215 216 216 216 216 216 216 216 216
216 216 216 216 216 216 216 216 216 216 216 216 215 209 178 112 31 4 1 5 11 22 67 148 198 214 216 216 216 216 216 216 216 216 216 216 216 216 216 216 216 216 216 216 216 215 214 183 115 43 1 1 33 115 183 215 216 216 216 216 216 216 216 216
216 216 216 216 216 216 216 216 216 216 216 216 213 196 146 60 12 1 14 41 69 87 134 181 208 216 216 216 216 216 216 216 216 216 216 216 216 216 216 216 216 216 216 216 216 216 215 198 144 63 3 0 20 89 167 215 216 216 216 216 216 216 216 216
216 216 216 216 216 216 216 216 216 216 216 216 210 183 107 28 3 6 38 103 156 167 187 204 213 216 216 216 216 216 216 216 216 216 216 216 216 216 216 216 216 216 216 216 216 216 216 205 168 84 12 0 14 68 154 215 215 216 216 216 216 216 216 216
216 216 216 216 216 216 216 216 216 216 216 215 208 173 78 19 0 9 45 137 193 206 211 214 215 216 216 216 216 216 216 216 216 216 216 216 216 216 216 216 216 216 216 216 216 216 216 210 186 101 27 1 10 51 143 206 215 216 216 216 216 216 216 216
216 216 216 216 216 216 216 216 216 216 216 215 212 163 73 16 0 5 32 129 193 215 215 216 216 216 216 216 216 216 216 216 216 216 216 216 216 216 216 216 216 216 216 216 216 216 216 213 194 113 38 1 6 39 133 196 215 216 216 216 216 216 216 216
216 216 216 216 216 216 216 216 216 216 216 215 214 171 91 23 0 0 34 120 187 215 216 216 216 216 216 216 216 216 216 216 216 216 216 216 216 216 216 216 216 216 216 216 216 216 216 216 189 115 39 0 4 44 134 194 215 216 216 216 216 216 216 216
216 216 216 216 216 216 216 216 216 216 216 216 215 184 118 39 0 0 36 111 182 215 216 216 216 216 216 216 216 216 216 216 216 216 216 216 216 216 216 216 216 216 216 216 216 216 216 215 182 109 31 0 2 59 143 200 216 216 216 216 216 216 216 216
216 216 216 216 216 216 216 216 216 216 216 216 215 195 140 51 8 0 32 99 178 215 215 216 216 216 216 216 216 216 216 216 216 216 216 216 216 216 216 216 216 216 216 216 216 216 216 214 177 100 17 0 5 66 150 209 216 216 216 216 216 216 216 216
216 216 216 216 216 216 216 216 216 216 216 216 215 203 154 61 14 0 24 85 174 209 215 216 216 216 216 216 216 216 216 216 216 216 216 216 216 216 216 216 216 216 216 216 216 216 216 210 171 83 10 0 15 77 162 213 215 216 216 216 216 216 216 216
216 216 216 216 216 216 216 216 216 216 216 216 215 211 161 75 19 0 12 60 150 200 215 216 216 216 216 216 216 216 216 216 216 216 216 216 216 216 216 216 216 216 216 216 216 216 216 203 156 55 10 0 27 94 183 213 216 216 216 216 216 216 216 216
216 216 216 216 216 216 216 216 216 216 216 216 215 215 179 107 38 1 1 27 104 173 211 216 216 216 216 216 216 216 216 216 216 216 216 216 216 216 216 216 216 216 216 216 216 216 215 203 139 44 6 2 31 110 195 212 216 216 216 216 216 216 216 216
216 216 216 216 216 216 216 216 216 216 216 216 216 215 200 150 71 4 0 4 52 126 195 216 215 216 216 216 216 216 216 216 216 216 216 216 216 216 216 216 216 216 216 216 216 216 214 205 128 45 5 5 33 122 192 213 216 216 216 216 216 216 216 216
216 216 216 216 216 216 216 216 216 216 216 216 216 216 212 186 109 19 2 0 20 73 163 206 214 216 216 216 216 216 216 216 216 216 216 216 216 216 216 216 216 216 216 216 216 216 216 192 113 38 1 5 45 137 194 215 216 216 216 216 216 216 216 216
216 216 216 216 216 216 216 216 216 216 216 216 216 216 215 207 144 54 11 0 5 33 118 183 210 215 216 216 216 216 216 216 216 216 216 216 216 216 216 216 216 216 216 216 216 216 212 169 90 22 0 5 72 155 205 216 216 216 216 216 216 216 216 216
216 216 216 216 216 216 216 216 216 216 216 216 216 216 215 214 178 105 41 5 0 8 61 133 188 212 216 216 216 216 216 216 216 216 216 216 216 216 216 216 216 216 216 216 216 216 204 146 64 5 0 23 100 175 213 216 216 216 216 216 216 216 216 216
216 216 216 216 216 216 216 216 216 216 216 216 216 216 216 215 204 165 103 36 5 1 19 66 136 196 211 215 216 216 216 216 216 216 216 216 216 216 216 216 216 216 216 216 216 214 189 125 41 0 2 45 125 193 215 216 216 216 216 216 216 216 216 216
216 216 216 216 216 216 216 216 216 216 216 216 216 216 216 216 214 203 172 102 38 9 3 17 62 139 184 205 214 216 216 216 216 216 216 216 216 216 216 216 216 216 216 216 216 211 178 104 19 3 9 63 144 206 215 216 216 216 216 216 216 216 216 216
216 216 216 216 216 216 216 216 216 216 216 216 216 216 216 216 216 214 209 166 100 40 4 0 13 66 117 159 191 211 215 215 215 216 216 216 216 216 216 216 216 216 216 216 214 201 161 73 14 2 22 82 165 213 215 216 216 216 216 216 216 216 216 216
216 216 216 216 216 216 216 216 216 216 216 216 216 216 216 216 216 216 215 203 165 106 42 7 10 22 43 72 117 165 194 209 212 215 216 216 216 216 216 216 216 216 216 216 211 187 124 44 10 7 41 112 190 211 216 216 216 216 216 216 216 216 216 216
216 216 216 216 216 216 216 216 216 216 216 216 216 216 216 216 216 216 216 214 203 177 128 73 42 20 7 13 35 70 112 155 183 197 205 211 214 216 216 216 216 216 216 215 205 166 83 22 3 17 67 150 200 214 216 216 216 216 216 216 216 216 216 216
216 216 216 216 216 216 216 216 216 216 216 216 216 216 216 216 216 216 216 216 214 209 195 166 117 66 25 8 5 11 26 54 91 122 145 170 193 208 214 212 212 213 213 206 179 113 47 12 7 34 104 177 207 215 216 216 216 216 216 216 216 216 216 216
216 216 216 216 216 216 216 216 216 216 216 216 216 216 216 216 216 216 216 216 216 215 214 209 188 150 101 58 25 6 2 3 13 30 51 77 109 136 159 171 174 172 162 139 89 38 9 5 22 74 149 195 212 216 216 216 216 216 216 216 216 216 216 216
216 216 216 216 216 216 216 216 216 216 216 216 216 216 216 216 216 216 216 216 216 216 216 215 212 205 183 146 102 56 21 6 3 1 4 12 25 35 46 62 71 70 60 38 16 3 0 11 54 133 187 210 215 216 216 216 216 216 216 216 216 216 216 216
216 216 216 216 216 216 216 216 216 216 216 216 216 216 216 216 216 216 216 216 216 216 216 216 216 216 213 203 183 153 109 66 38 24 15 5 2 2 0 1 2 3 2 0 0 0 2 26 107 178 208 215 216 216 216 216 216 216 216 216 216 216 216 216
216 216 216 216 216 216 216 216 216 216 216 216 216 216 216 216 216 216 216 216 216 216 216 216 216 216 216 215 212 207 194 165 133 107 84 57 33 14 4 6 6 5 3 3 2 5 24 89 163 203 215 216 216 216 216 216 216 216 216 216 216 216 216 216
216 216 216 216 216 216 216 216 216 216 216 216 216 216 216 216 216 216 216 216 216 216 216 216 216 216 216 216 216 215 214 211 203 192 177 154 128 103 80 66 60 61 68 76 83 94 128 173 202 214 216 216 216 216 216 216 216 216 216 216 216 216 216 216
216 216 216 216 216 216 216 216 216 216 216 216 216 216 216 216 216 216 216 216 216 216 216 216 216 216 216 216 216 216 215 216 216 216 213 207 200 194 187 173 165 166 172 180 189 199 208 212 215 216 216 216 216 216 216 216 216 216 216 216 216 216 216 216
216 216 216 216 216 216 216 216 216 216 216 216 216 216 216 216 216 216 216 216 216 216 216 216 216 216 216 216 216 216 216 216 216 216 216 215 215 214 216 215 215 215 214 214 214 215 216 216 216 216 216 216 216 216 216 216 216 216 216 216 216 216 216 216
216 216 216 216 216 216 216 216 216 216 216 216 216 216 216 216 216 216 216 216 216 216 216 216 216 216 216 216 216 216 216 216 216 216 216 216 216 216 216 216 216 216 216 216 216 216 216 216 216 216 216 216 216 216 216 216 216 216 216 216 216 216 216 216
216 216 216 216 216 216 216 216 216 216 216 216 216 216 216 216 216 216 216 216 216 216 216 216 216 216 216 216 216 216 216 216 216 216 216 216 216 216 216 216 216 216 216 216 216 216 216 216 216 216 216 216 216 216 216 216 216 216 216 216 216 216 216 216
216 216 216 216 216 216 216 216 216 216 216 216 216 216 216 216 216 216 216 216 216 216 216 216 216 216 216 216 216 216 216 216 216 216 216 216 216 216 216 216 216 216 216 216 216 216 216 216 216 216 216 216 216 216 216 216 216 216 216 216 216 216 216 216
216 216 216 216 216 216 216 216 216 216 216 216 216 216 216 216 216 216 216 216 216 216 216 216 216 216 216 216 216 216 216 216 216 216 216 216 216 216 216 216 216 216 216 216 216 216 216 216 216 216 216 216 216 216 216 216 216 216 216 216 216 216 216 216
216 216 216 216 216 216 216 216 216 216 216 216 216 216 216 216 216 216 216 216 216 216 216 216 216 216 216 216 216 216 216 216 216 216 216 216 216 216 216 216 216 216 216 216 216 216 216 216 216 216 216 216 216 216 216 216 216 216 216 216 216 216 216 216
216 216 216 216 216 216 216 216 216 216 216 216 216 216 216 216 216 216 216 216 216 216 216 216 216 216 216 216 216 216 216 216 216 216 216 216 216 216 216 216 216 216 216 216 216 216 216 216 216 216 216 216 216 216 216 216 216 216 216 216 216 216 216 216
216 216 216 216 216 216 216 216 216 216 216 216 216 216 216 216 216 216 216 216 216 216 216 216 216 216 216 216 216 216 216 216 216 216 216 216 216 216 216 216 216 216 216 216 216 216 216 216 216 216 216 216 216 216 216 216 216 216 216 216 216 216 216 216
216 216 216 216 216 216 216 216 216 216 216 216 216 216 216 216 216 216 216 216 216 216 216 216 216 216 216 216 216 216 216 216 216 216 216 216 216 216 216 216 216 216 216 216 216 216 216 216 216 216 216 216 216 216 216 216 216 216 216 216 216 216 216 216
216 216 216 216 216 216 216 216 216 216 216 216 216 216 216 216 216 216 216 216 216 216 216 216 216 216 216 216 216 216 216 216 216 216 216 216 216 216 216 216 216 216 216 216 216 216 216 216 216 216 216 216 216 216 216 216 216 216 216 216 216 216 216 216
216 216 216 216 216 216 216 216 216 216 216 216 216 216 216 216 216 216 216 216 216 216 216 216 216 216 216 216 216 216 216 216 216 216 216 216 216 216 216 216 216 216 216 216 216 216 216 216 216 216 216 216 216 216 216 216 216 216 216 216 216 216 216 216
216 216 216 216 216 216 216 216 216 216 216 216 216 216 216 216 216 216 216 216 216 216 216 216 216 216 216 216 216 216 216 216 216 216 216 216 216 216 216 216 216 216 216 216 216 216 216 216 216 216 216 216 216 216 216 216 216 216 216 216 216 216 216 216
216 216 216 216 216 216 216 216 216 216 216 216 216 216 216 216 216 216 216 216 216 216 216 216 216 216 216 216 216 216 216 216 216 216 216 216 216 216 216 216 216 216 216 216 216 216 216 216 216 216 216 216 216 216 216 216 216 216 216 216 216 216 216 216
216 216 216 216 216 216 216 216 216 216 216 216 216 216 216 216 216 216 216 216 216 216 216 216 216 216 216 216 216 216 216 216 216 216 216 216 216 216 216 216 216 216 216 216 216 216 216 216 216 216 216 216 216 216 216 216 216 216 216 216 216 216 216 216
