P2
64 64
255
162 162 162 162 162 162 162 162 162 162 162 162 162 162 162 162 162 162 162 162 162 162 162 162 162 162 162 162 162 162 162 162 162 162 162 162 162 162 162 162 162 162 162 162 162 162 162 162 162 162 162 162 162 162 162 162 162 162 162 162 162 162 162 162
162 162 162 162 162 162 162 162 162 162 162 162 162 162 162 162 162 162 162 162 162 162 162 162 162 162 162 162 162 162 162 162 162 162 162 162 162 162 162 162 162 162 162 162 162 162 162 162 162 162 162 162 162 162 162 162 162 162 162 162 162 162 162 162
162 162 162 162 162 162 162 162 162 162 162 162 162 162 162 162 162 162 162 162 162 162 162 162 162 162 162 162 162 162 162 162 162 162 162 162 162 162 162 162 162 162 162 162 162 162 162 162 162 162 162 162 162 162 162 162 162 162 162 162 162 162 162 162
162 162 162 162 162 162 162 162 162 162 162 162 162 162 162 162 162 162 162 162 162 162 162 162 162 162 162 162 162 162 162 162 162 162 162 162 162 162 162 162 162 162 162 162 162 162 162 162 162 162 162 162 162 162 162 162 162 162 162 162 162 162 162 162
162 162 162 162 162 162 162 162 162 162 162 162 162 162 162 162 162 162 162 162 162 162 162 162 162 162 162 162 162 162 162 162 162 162 162 162 162 162 162 162 162 162 162 162 162 162 162 162 162 162 162 162 162 162 162 162 162 162 162 162 162 162 162 162
162 162 162 162 162 162 162 162 162 162 162 162 162 162 162 162 162 162 162 162 162 162 162 162 162 162 162 162 162 162 162 162 162 162 162 162 162 162 162 162 162 162 162 162 162 162 162 162 162 162 162 162 162 162 162 162 162 162 162 162 162 162 162 162
162 162 162 162 162 162 162 162 162 162 162 162 162 162 162 162 162 162 162 162 162 162 162 162 162 162 162 162 162 162 162 162 162 162 162 162 162 162 162 162 162 162 162 162 162 162 162 162 162 162 162 162 162 162 162 162 162 162 162 162 162 162 162 162
162 162 162 162 162 162 162 162 162 162 162 162 162 162 162 162 162 162 162 162 162 162 162 162 162 162 162 162 162 162 162 162 162 162 162 162 162 162 162 162 162 162 162 162 162 162 162 162 162 162 162 162 162 162 162 162 162 162 162 162 162 162 162 162
162 162 162 162 162 162 162 162 162 162 162 162 162 162 162 162 162 162 162 162 162 162 162 162 162 162 162 162 162 162 162 162 162 162 162 162 162 162 162 162 162 162 162 162 162 162 162 162 162 162 162 162 162 162 162 162 162 162 162 162 162 162 162 162
162 162 162 162 162 162 162 162 162 162 162 162 162 162 162 162 162 162 162 162 162 162 162 162 162 162 162 162 162 162 162 162 162 162 162 162 162 162 162 162 162 162 162 162 162 162 162 162 162 162 162 162 162 162 162 162 162 162 162 162 162 162 162 162
162 162 162 162 162 162 162 162 162 162 162 162 162 162 162 162 162 162 162 162 162 162 162 162 162 162 162 162 162 162 162 161 161 162 161 161 160 161 161 161 162 161 162 162 162 162 162 162 162 162 162 162 162 162 162 162 162 162 162 162 162 162 162 162
162 162 162 162 162 162 162 162 162 162 162 162 162 162 162 162 162 162 162 162 162 162 162 162 162 162 162 161 162 161 161 158 158 152 151 141 136 139 138 151 150 156 161 161 162 162 162 162 162 162 162 162 162 162 162 162 162 162 162 162 162 162 162 162
162 162 162 162 162 162 162 162 162 162 162 162 162 162 162 162 162 162 162 162 162 162 162 162 162 162 161 161 155 148 136 124 114 95 78 63 56 52 67 78 94 120 136 152 161 161 162 162 162 162 162 162 162 162 162 162 162 162 162 162 162 162 162 162
162 162 162 162 162 162 162 162 162 162 162 162 162 162 162 162 162 162 162 162 162 162 162 162 162 159 152 142 115 87 61 45 30 21 3 6 2 6 7 10 28 42 75 115 145 158 162 162 162 162 162 162 162 162 162 162 162 162 162 162 162 162 162 162
162 162 162 162 162 162 162 162 162 162 162 162 162 162 162 162 162 162 162 162 162 162 162 161 161 142 104 68 42 18 6 1 1 1 0 0 0 1 3 0 1 1 21 51 101 143 161 162 162 162 162 162 162 162 162 162 162 162 162 162 162 162 162 162
162 162 162 162 162 162 162 162 162 162 162 162 162 162 162 162 162 162 162 162 162 162 162 156 131 86 34 5 3 1 5 8 15 21 22 28 29 43 38 27 14 1 1 8 51 110 152 161 162 162 162 162 162 162 162 162 162 162 162 162 162 162 162 162
162 162 162 162 162 162 162 162 162 162 162 162 162 162 162 162 162 162 162 162 162 159 149 125 73 25 5 0 3 15 40 61 84 99 111 109 124 125 118 97 63 29 9 0 17 68 128 156 162 162 162 162 162 162 162 162 162 162 162 162 162 162 162 162
162 162 162 162 162 162 162 162 162 162 162 162 162 162 162 162 162 162 162 161 161 145 100 55 19 1 0 0 24 70 111 140 147 159 157 158 159 159 161 148 129 89 33 2 4 31 101 151 161 162 162 162 162 162 162 162 162 162 162 162 162 162 162 162
162 162 162 162 162 162 162 162 162 162 162 162 162 162 162 162 162 162 162 162 150 111 50 3 0 1 17 46 86 135 157 161 161 162 162 162 162 162 162 161 159 128 61 6 0 13 79 142 161 162 162 162 162 162 162 162 162 162 162 162 162 162 162 162
162 162 162 162 162 162 162 162 162 162 162 162 162 162 162 162 162 162 162 161 149 97 35 5 7 26 73 121 145 158 162 162 162 162 162 162 162 162 162 162 162 141 73 15 0 8 73 142 160 162 162 162 162 162 162 162 162 162 162 162 162 162 162 162
162 162 162 162 162 162 162 162 162 162 162 162 162 162 162 162 162 162 162 161 151 120 65 34 49 90 131 156 162 162 162 162 162 162 162 162 162 162 162 162 161 140 72 11 0 17 78 142 161 161 162 162 162 162 162 162 162 162 162 162 162 162 162 162
162 162 162 162 162 162 162 162 162 162 162 162 162 162 162 162 162 162 162 161 159 151 124 112 121 143 160 161 162 162 162 162 162 162 162 162 162 162 162 162 161 121 54 7 0 12 86 144 160 162 162 162 162 162 162 162 162 162 162 162 162 162 162 162
162 162 162 162 162 162 162 162 162 162 162 162 162 162 162 162 162 162 162 162 162 161 156 156 155 159 162 162 162 162 162 162 162 162 162 162 162 162 162 161 148 99 20 2 0 26 91 151 162 162 162 162 162 162 162 162 162 162 162 162 162 162 162 162
162 162 162 162 162 162 162 162 162 162 162 162 162 162 162 162 162 162 162 162 162 162 162 162 161 162 162 162 162 162 162 162 162 162 162 162 162 162 161 161 131 67 15 0 3 30 111 152 162 162 162 162 162 162 162 162 162 162 162 162 162 162 162 162
162 162 162 162 162 162 162 162 162 162 162 162 162 162 162 162 162 162 162 162 162 162 162 162 162 162 162 162 162 162 162 162 162 162 162 162 162 162 161 146 105 36 3 0 19 69 129 161 162 162 162 162 162 162 162 162 162 162 162 162 162 162 162 162
162 162 162 162 162 162 162 162 162 162 162 162 162 162 162 162 162 162 162 162 162 162 162 162 162 162 162 162 162 162 162 162 162 162 162 162 162 161 158 118 60 17 0 9 45 114 151 161 162 162 162 162 162 162 162 162 162 162 162 162 162 162 162 162
162 162 162 162 162 162 162 162 162 162 162 162 162 162 162 162 162 162 162 162 162 162 162 162 162 162 162 162 162 162 162 162 162 162 161 162 161 149 115 66 17 0 1 33 87 138 161 162 162 162 162 162 162 162 162 162 162 162 162 162 162 162 162 162
162 162 162 162 162 162 162 162 162 162 162 162 162 162 162 162 162 162 162 162 162 162 162 162 162 162 162 162 162 162 162 162 162 162 161 154 138 105 53 16 3 3 22 70 131 156 161 162 162 162 162 162 162 162 162 162 162 162 162 162 162 162 162 162
162 162 162 162 162 162 162 162 162 162 162 162 162 162 162 162 162 162 162 162 162 162 162 162 162 162 162 162 162 162 162 161 161 157 149 114 72 35 11 0 3 21 71 121 151 161 162 162 162 162 162 162 162 162 162 162 162 162 162 162 162 162 162 162
162 162 162 162 162 162 162 162 162 162 162 162 162 162 162 162 162 162 162 162 162 162 162 162 162 162 162 162 162 161 161 156 145 118 84 45 14 1 1 6 36 79 126 157 161 162 162 162 162 162 162 162 162 162 162 162 162 162 162 162 162 162 162 162
162 162 162 162 162 162 162 162 162 162 162 162 162 162 162 162 162 162 162 162 162 162 162 162 162 162 162 162 161 156 138 114 84 49 15 5 1 8 25 54 102 139 155 161 162 162 162 162 162 162 162 162 162 162 162 162 162 162 162 162 162 162 162 162
162 162 162 162 162 162 162 162 162 162 162 162 162 162 162 162 162 162 162 162 162 162 162 162 162 162 161 158 143 119 74 38 18 8 1 5 14 46 90 126 148 160 162 162 162 162 162 162 162 162 162 162 162 162 162 162 162 162 162 162 162 162 162 162
162 162 162 162 162 162 162 162 162 162 162 162 162 162 162 162 162 162 162 162 162 162 162 161 159 154 144 124 84 44 17 1 0 2 19 47 80 116 147 159 161 161 162 162 162 162 162 162 162 162 162 162 162 162 162 162 162 162 162 162 162 162 162 162
162 162 162 162 162 162 162 162 162 162 162 162 162 162 162 162 162 162 162 162 161 159 158 150 133 102 73 43 21 1 0 0 8 36 77 115 147 156 161 161 162 162 162 162 162 162 162 162 162 162 162 162 162 162 162 162 162 162 162 162 162 162 162 162
162 162 162 162 162 162 162 162 162 162 162 162 162 162 162 162 162 162 161 161 156 139 115 89 60 32 7 3 1 2 12 21 51 100 137 153 160 162 162 162 162 162 162 162 162 162 162 162 162 162 162 162 162 162 162 162 162 162 162 162 162 162 162 162
162 162 162 162 162 162 162 162 162 162 162 162 162 162 162 161 161 160 153 140 112 79 42 22 10 5 3 12 24 45 75 103 125 148 160 162 161 162 162 162 162 162 162 162 162 162 162 162 162 162 162 162 162 162 162 162 162 162 162 162 162 162 162 162
162 162 162 162 162 162 162 162 162 162 162 161 162 162 161 158 146 131 108 76 42 17 6 4 8 19 35 68 100 126 143 158 160 161 161 162 162 162 162 162 162 162 162 162 162 162 162 162 162 162 162 162 162 162 162 162 162 162 162 162 162 162 162 162
162 162 162 162 162 162 162 162 162 162 162 159 156 145 138 114 84 52 35 16 7 1 3 24 54 83 112 135 156 159 161 161 162 162 162 162 162 162 162 162 162 162 162 162 162 162 162 162 162 162 162 162 162 162 162 162 162 162 162 162 162 162 162 162
162 162 162 162 162 162 162 162 162 161 154 136 104 73 45 30 12 4 0 0 1 13 37 77 123 147 156 159 161 162 162 162 162 162 162 162 162 162 162 162 162 162 162 162 162 162 162 162 162 162 162 162 162 162 162 162 162 162 162 162 162 162 162 162
162 162 162 162 162 162 162 162 161 161 128 70 29 7 0 0 0 0 0 0 2 10 36 79 113 142 161 161 161 162 162 162 162 162 162 162 162 162 162 162 162 162 162 162 162 162 162 162 162 162 162 162 162 162 162 162 162 162 162 162 162 162 162 162
162 162 162 162 162 162 162 162 162 149 103 25 1 0 0 0 0 1 1 0 0 0 8 16 45 80 112 136 161 161 161 162 162 162 162 162 162 162 162 162 162 162 162 162 162 162 162 162 162 162 162 162 162 162 162 162 162 162 162 162 162 162 162 162
162 162 162 162 162 162 162 162 162 153 106 38 8 8 10 29 36 46 36 32 19 2 1 0 7 14 36 72 107 133 157 161 161 162 162 162 162 162 162 162 162 162 162 162 162 162 162 162 162 162 162 162 162 162 162 162 162 162 162 162 162 162 162 162
162 162 162 162 162 162 162 162 161 158 136 96 70 69 93 114 137 128 124 108 84 57 30 2 1 0 5 13 31 72 115 138 155 161 162 162 162 162 162 162 162 162 162 162 162 162 162 162 162 162 162 162 162 162 162 162 162 162 162 162 162 162 162 162
162 162 162 162 162 162 162 162 162 161 158 156 140 145 154 159 160 161 161 153 148 129 96 64 36 8 1 0 3 19 40 82 124 150 159 162 162 162 162 162 162 162 162 162 162 162 162 162 162 162 162 162 162 162 162 162 162 162 162 162 162 162 162 162
162 162 162 162 162 162 162 162 162 162 162 161 161 161 161 162 162 162 161 162 162 158 151 136 104 71 42 14 1 0 4 26 59 106 145 161 161 162 162 162 162 162 162 162 162 162 162 162 162 162 162 162 162 162 162 162 162 162 162 162 162 162 162 162
162 162 162 162 162 162 162 162 162 162 162 162 162 162 162 162 162 162 162 162 162 162 162 159 152 143 109 70 36 13 0 1 6 48 100 136 155 162 162 162 162 162 162 162 162 162 162 162 162 162 162 162 162 162 162 162 162 162 162 162 162 162 162 162
162 162 162 162 162 162 162 162 162 162 162 162 162 162 162 162 162 162 162 162 162 162 162 162 162 160 151 136 100 59 26 7 0 12 36 84 131 159 161 161 162 162 162 162 162 162 162 162 162 162 162 162 162 162 162 162 162 162 162 162 162 162 162 162
162 162 162 162 162 162 162 162 162 162 162 162 162 162 162 162 162 162 162 162 162 162 162 162 162 162 161 161 147 126 85 36 3 0 1 32 77 117 142 161 161 161 162 162 162 162 162 162 162 162 162 162 162 162 162 162 162 162 162 162 162 162 162 162
162 162 162 162 162 162 162 162 162 162 162 162 162 162 162 162 162 162 162 162 162 162 162 162 162 162 162 161 161 160 137 93 47 15 0 5 17 44 86 125 145 160 162 162 162 162 162 162 162 162 162 162 162 162 162 162 162 162 162 162 162 162 162 162
162 162 162 162 162 162 162 162 162 162 162 162 162 162 162 162 162 162 162 162 162 162 162 162 162 162 162 162 162 162 158 144 107 55 7 0 0 7 22 56 103 145 158 161 162 162 162 162 162 162 162 162 162 162 162 162 162 162 162 162 162 162 162 162
162 162 162 162 162 162 162 162 162 162 162 162 162 162 162 162 162 162 162 162 162 162 162 162 162 162 162 162 162 162 162 161 145 107 52 16 0 0 0 15 60 119 155 161 162 162 162 162 162 162 162 162 162 162 162 162 162 162 162 162 162 162 162 162
162 162 162 162 162 162 162 162 162 162 162 162 162 162 162 162 162 162 162 162 162 162 162 162 162 162 162 162 162 162 162 162 159 148 114 64 25 18 7 8 48 110 152 161 162 162 162 162 162 162 162 162 162 162 162 162 162 162 162 162 162 162 162 162
162 162 162 162 162 162 162 162 162 162 162 162 162 162 162 162 162 162 162 162 162 162 162 162 162 162 162 162 162 162 162 162 162 161 152 129 109 80 61 65 88 136 160 161 162 162 162 162 162 162 162 162 162 162 162 162 162 162 162 162 162 162 162 162
162 162 162 162 162 162 162 162 162 162 162 162 162 162 162 162 162 162 162 162 162 162 162 162 162 162 162 162 162 162 162 162 162 162 161 161 156 142 135 130 142 155 161 162 162 162 162 162 162 162 162 162 162 162 162 162 162 162 162 162 162 162 162 162
162 162 162 162 162 162 162 162 162 162 162 162 162 162 162 162 162 162 162 162 162 162 162 162 162 162 162 162 162 162 162 162 162 162 162 162 161 161 161 158 160 162 162 162 162 162 162 162 162 162 162 162 162 162 162 162 162 162 162 162 162 162 162 162
162 162 162 162 162 162 162 162 162 162 162 162 162 162 162 162 162 162 162 162 162 162 162 162 162 162 162 162 162 162 162 162 162 162 162 162 162 162 161 162 162 162 162 162 162 162 162 162 162 162 162 162 162 162 162 162 162 162 162 162 162 162 162 162
162 162 162 162 162 162 162 162 162 162 162 162 162 162 162 162 162 162 162 162 162 162 162 162 162 162 162 162 162 162 162 162 162 162 162 162 162 162 162 162 162 162 162 162 162 162 162 162 162 162 162 162 162 162 162 162 162 162 162 162 162 162 162 162
162 162 162 162 162 162 162 162 162 162 162 162 162 162 162 162 162 162 162 162 162 162 162 162 162 162 162 162 162 162 162 162 162 162 162 162 162 162 162 162 162 162 162 162 162 162 162 162 162 162 162 162 162 162 162 162 162 162 162 162 162 162 162 162
162 162 162 162 162 162 162 162 162 162 162 162 162 162 162 162 162 162 162 162 162 162 162 162 162 162 162 162 162 162 162 162 162 162 162 162 162 162 162 162 162 162 162 162 162 162 162 162 162 162 162 162 162 162 162 162 162 162 162 162 162 162 162 162
162 162 162 162 162 162 162 162 162 162 162 162 162 162 162 162 162 162 162 162 162 162 162 162 162 162 162 162 162 162 162 162 162 162 162 162 162 162 162 162 162 162 162 162 162 162 162 162 162 162 162 162 162 162 162 162 162 162 162 162 162 162 162 162
162 162 162 162 162 162 162 162 162 162 162 162 162 162 162 162 162 162 162 162 162 162 162 162 162 162 162 162 162 162 162 162 162 162 162 162 162 162 162 162 162 162 162 162 162 162 162 162 162 162 162 162 162 162 162 162 162 162 162 162 162 162 162 162
162 162 162 162 162 162 162 162 162 162 162 162 162 162 162 162 162 162 162 162 162 162 162 162 162 162 162 162 162 162 162 162 162 162 162 162 162 162 162 162 162 162 162 162 162 162 162 162 162 162 162 162 162 162 162 162 162 162 162 162 162 162 162 162
162 162 162 162 162 162 162 162 162 162 162 162 162 162 162 162 162 162 162 162 162 162 162 162 162 162 162 162 162 162 162 162 162 162 162 162 162 162 162 162 162 162 162 162 162 162 162 162 162 162 162 162 162 162 162 162 162 162 162 162 162 162 162 162
162 162 162 162 162 162 162 162 162 162 162 162 162 162 162 162 162 162 162 162 162 162 162 162 162 162 162 162 162 162 162 162 162 162 162 162 162 162 162 162 162 162 162 162 162 162 162 162 162 162 162 162 162 162 162 162 162 162 162 162 162 162 162 162
