P2
64 64
255
255 255 255 255 255 255 255 255 255 255 255 255 255 255 255 255 255 255 255 255 255 255 255 255 255 255 255 255 255 255 255 255 255 255 255 255 255 255 255 255 255 255 255 255 255 255 255 255 255 255 255 255 255 255 255 255 255 255 255 255 255 255 255 255
255 255 255 255 255 255 255 255 255 255 255 255 255 255 255 255 255 255 255 255 255 255 255 255 255 255 255 255 255 255 255 255 255 255 255 255 255 255 255 255 255 255 255 255 255 255 255 255 255 255 255 255 255 255 255 255 255 255 255 255 255 255 255 255
255 255 255 255 255 255 255 255 255 255 255 255 255 255 255 255 255 255 255 255 255 255 255 255 255 255 255 255 255 255 255 255 255 255 255 255 255 255 255 255 255 255 255 255 255 255 255 255 255 255 255 255 255 255 255 255 255 255 255 255 255 255 255 255
255 255 255 255 255 255 255 255 255 255 255 255 255 255 255 255 255 255 255 255 255 255 255 255 255 255 255 255 255 255 255 255 255 255 255 255 255 255 255 255 255 255 255 255 255 255 255 255 255 255 255 255 255 255 255 255 255 255 255 255 255 255 255 255
255 255 255 255 255 255 255 255 255 255 255 255 255 255 255 255 255 255 255 255 255 255 255 255 255 255 255 255 255 255 255 255 255 255 255 255 255 255 255 255 255 255 255 255 255 255 255 255 255 255 255 255 255 255 255 255 255 255 255 255 255 255 255 255
255 255 255 255 255 255 255 255 255 255 255 255 255 255 255 255 255 255 255 255 255 255 255 255 255 255 255 255 255 255 255 255 255 255 255 255 255 255 255 255 255 255 255 255 255 255 255 255 255 255 255 255 255 255 255 255 255 255 255 255 255 255 255 255
255 255 255 255 255 255 255 255 255 255 255 255 255 255 255 255 255 255 255 255 255 255 255 255 255 255 255 255 255 255 255 255 255 255 255 255 255 255 255 255 255 255 255 255 255 255 255 255 255 255 255 255 255 255 255 255 255 255 255 255 255 255 255 255
255 255 255 255 255 255 255 255 255 255 255 255 255 255 255 255 255 255 255 255 255 255 255 255 255 255 255 255 255 255 255 255 255 255 255 255 255 255 255 255 255 255 255 255 255 255 255 255 255 255 255 255 255 255 255 255 255 255 255 255 255 255 255 255
255 255 255 255 255 255 255 255 255 255 255 255 255 255 255 255 255 255 255 255 255 255 255 255 255 255 255 255 255 255 255 255 255 255 249 224 224 230 255 255 255 255 255 255 255 255 255 255 255 255 255 255 255 255 255 255 255 255 255 255 255 255 255 255
255 255 255 255 255 255 255 255 255 255 255 255 255 255 255 255 255 255 255 255 255 255 255 255 255 255 255 255 255 255 255 255 223 176 124 93 71 106 162 216 241 255 255 255 255 255 255 255 255 255 255 255 255 255 255 255 255 255 255 255 255 255 255 255
255 255 255 255 255 255 255 255 255 255 255 255 255 255 255 255 255 255 255 255 255 255 255 255 255 255 255 255 255 255 243 177 101 37 20 2 3 21 48 81 131 187 246 255 255 255 255 255 255 255 255 255 255 255 255 255 255 255 255 255 255 255 255 255
255 255 255 255 255 255 255 255 255 255 255 255 255 255 255 255 255 255 255 255 255 255 255 255 255 255 255 255 255 219 141 66 18 2 0 1 0 0 1 10 36 71 121 182 237 255 255 255 255 255 255 255 255 255 255 255 255 255 255 255 255 255 255 255
255 255 255 255 255 255 255 255 255 255 255 255 255 255 255 255 255 255 255 255 255 255 255 255 255 255 255 255 179 93 33 7 3 10 29 31 31 29 11 2 1 2 22 67 129 202 255 255 255 255 255 255 255 255 255 255 255 255 255 255 255 255 255 255
255 255 255 255 255 255 255 255 255 255 255 255 255 255 255 255 255 255 255 255 255 255 255 255 255 255 252 164 63 5 1 5 28 88 136 164 163 128 86 55 27 4 1 4 23 89 175 250 255 255 255 255 255 255 255 255 255 255 255 255 255 255 255 255
255 255 255 255 255 255 255 255 255 255 255 255 255 255 255 255 255 255 255 255 255 255 255 255 255 254 176 71 11 0 9 53 135 212 255 255 255 241 221 170 110 46 22 7 0 21 70 146 229 255 255 255 255 255 255 255 255 255 255 255 255 255 255 255
255 255 255 255 255 255 255 255 255 255 255 255 255 255 255 255 255 255 255 255 255 255 255 255 255 177 70 11 0 1 50 149 238 255 255 255 255 255 255 255 225 181 118 54 4 1 5 29 129 231 255 255 255 255 255 255 255 255 255 255 255 255 255 255
255 255 255 255 255 255 255 255 255 255 255 255 255 255 255 255 255 255 255 255 255 255 255 255 178 68 9 1 13 62 155 250 255 255 255 255 255 255 255 255 255 255 229 159 77 25 3 3 53 160 255 255 255 255 255 255 255 255 255 255 255 255 255 255
255 255 255 255 255 255 255 255 255 255 255 255 255 255 255 255 255 255 255 255 255 255 255 203 81 12 0 5 70 172 248 255 255 255 255 255 255 255 255 255 255 255 255 255 197 101 24 1 13 83 193 255 255 255 255 255 255 255 255 255 255 255 255 255
255 255 255 255 255 255 255 255 255 255 255 255 255 255 255 255 255 255 255 255 255 255 255 147 13 0 0 9 131 248 255 255 255 255 255 255 255 255 255 255 255 255 255 255 255 203 106 32 11 27 110 224 255 255 255 255 255 255 255 255 255 255 255 255
255 255 255 255 255 255 255 255 255 255 255 255 255 255 255 255 255 255 255 255 255 255 245 119 6 0 4 44 186 255 255 255 255 255 255 255 255 255 255 255 255 255 255 255 255 255 217 116 37 9 63 181 255 255 255 255 255 255 255 255 255 255 255 255
255 255 255 255 255 255 255 255 255 255 255 255 255 255 255 255 255 255 255 255 255 255 228 97 12 0 23 116 236 255 255 255 255 255 255 255 255 255 255 255 255 255 255 255 255 255 255 202 79 16 36 143 255 255 255 255 255 255 255 255 255 255 255 255
255 255 255 255 255 255 255 255 255 255 255 255 255 255 255 255 255 255 255 255 255 255 196 54 4 0 56 188 255 255 255 255 255 255 255 255 255 255 255 255 255 255 255 255 255 255 255 240 109 14 12 81 229 255 255 255 255 255 255 255 255 255 255 255
255 255 255 255 255 255 255 255 255 255 255 255 255 255 255 255 255 255 255 255 255 255 149 27 0 11 93 232 255 255 255 255 255 255 255 255 255 255 255 255 255 255 255 255 255 255 255 238 106 10 1 44 176 255 255 255 255 255 255 255 255 255 255 255
255 255 255 255 255 255 255 255 255 255 255 255 255 255 255 255 255 255 255 255 255 246 119 20 0 24 129 249 255 255 255 255 255 255 255 255 255 255 255 255 255 255 255 255 255 255 255 250 106 13 0 31 167 255 255 255 255 255 255 255 255 255 255 255
255 255 255 255 255 255 255 255 255 255 255 255 255 255 255 255 255 255 255 255 255 255 112 11 0 30 163 255 255 255 255 255 255 255 255 255 255 255 255 255 255 255 255 255 255 255 255 255 133 12 0 24 172 255 255 255 255 255 255 255 255 255 255 255
255 255 255 255 255 255 255 255 255 255 255 255 255 255 255 255 255 255 255 255 255 251 123 9 2 41 188 255 255 255 255 255 255 255 255 255 255 255 255 255 255 255 255 255 255 255 255 251 142 27 1 45 172 255 255 255 255 255 255 255 255 255 255 255
255 255 255 255 255 255 255 255 255 255 255 255 255 255 255 255 255 255 255 255 255 242 118 19 3 65 198 255 255 255 255 255 255 255 255 255 255 255 255 255 255 255 255 255 255 255 255 248 120 22 1 58 187 255 255 255 255 255 255 255 255 255 255 255
255 255 255 255 255 255 255 255 255 255 255 255 255 255 255 255 255 255 255 255 255 248 110 14 2 73 211 255 255 255 255 255 255 255 255 255 255 255 255 255 255 255 255 255 255 255 255 245 105 3 1 62 211 255 255 255 255 255 255 255 255 255 255 255
255 255 255 255 255 255 255 255 255 255 255 255 255 255 255 255 255 255 255 255 255 246 118 6 5 66 215 255 255 255 255 255 255 255 255 255 255 255 255 255 255 255 255 255 255 255 255 223 91 5 9 81 219 255 255 255 255 255 255 255 255 255 255 255
255 255 255 255 255 255 255 255 255 255 255 255 255 255 255 255 255 255 255 255 255 249 135 24 7 63 189 255 255 255 255 255 255 255 255 255 255 255 255 255 255 255 255 255 255 255 255 202 64 5 7 105 234 255 255 255 255 255 255 255 255 255 255 255
255 255 255 255 255 255 255 255 255 255 255 255 255 255 255 255 255 255 255 255 255 255 176 54 11 35 145 250 255 255 255 255 255 255 255 255 255 255 255 255 255 255 255 255 255 255 255 173 29 0 6 132 255 255 255 255 255 255 255 255 255 255 255 255
255 255 255 255 255 255 255 255 255 255 255 255 255 255 255 255 255 255 255 255 255 255 232 102 13 5 85 224 255 255 255 255 255 255 255 255 255 255 255 255 255 255 255 255 255 255 238 123 20 1 40 163 255 255 255 255 255 255 255 255 255 255 255 255
255 255 255 255 255 255 255 255 255 255 255 255 255 255 255 255 255 255 255 255 255 255 255 152 35 3 50 173 255 255 255 255 255 255 255 255 255 255 255 255 255 255 255 255 255 255 182 65 9 4 77 202 255 255 255 255 255 255 255 255 255 255 255 255
255 255 255 255 255 255 255 255 255 255 255 255 255 255 255 255 255 255 255 255 255 255 255 201 70 4 23 112 229 255 255 255 255 255 255 255 255 255 255 255 255 255 255 255 255 224 105 9 0 13 128 248 255 255 255 255 255 255 255 255 255 255 255 255
255 255 255 255 255 255 255 255 255 255 255 255 255 255 255 255 255 255 255 255 255 255 255 231 99 10 5 40 127 224 255 255 255 255 255 255 255 255 255 255 255 255 255 255 237 141 42 2 14 73 190 255 255 255 255 255 255 255 255 255 255 255 255 255
255 255 255 255 255 255 255 255 255 255 255 255 255 255 255 255 255 255 255 255 255 255 221 151 74 11 0 2 33 129 221 255 255 255 255 255 255 255 255 255 255 255 255 255 162 59 10 3 54 155 246 255 255 255 255 255 255 255 255 255 255 255 255 255
255 255 255 255 255 255 255 255 255 255 255 255 255 255 255 255 255 255 255 255 255 195 106 44 10 1 0 0 5 44 111 180 228 255 255 255 255 255 255 255 255 255 245 170 70 4 1 21 123 237 255 255 255 255 255 255 255 255 255 255 255 255 255 255
255 255 255 255 255 255 255 255 255 255 255 255 255 255 255 255 255 255 255 233 163 81 20 1 0 1 14 7 0 2 15 57 110 160 198 224 249 255 254 254 240 199 138 62 16 4 24 95 204 255 255 255 255 255 255 255 255 255 255 255 255 255 255 255
255 255 255 255 255 255 255 255 255 255 255 255 255 255 255 255 255 255 206 121 53 11 6 14 24 68 98 79 41 11 0 7 19 30 67 103 124 140 149 138 111 79 32 9 5 30 98 189 255 255 255 255 255 255 255 255 255 255 255 255 255 255 255 255
255 255 255 255 255 255 255 255 255 255 255 255 255 255 255 255 255 221 102 31 5 2 33 89 154 203 229 219 143 66 9 3 1 0 9 12 6 30 36 20 19 9 0 2 30 114 208 255 255 255 255 255 255 255 255 255 255 255 255 255 255 255 255 255
255 255 255 255 255 255 255 255 255 255 255 255 255 255 255 255 251 143 27 0 1 24 114 215 255 255 255 255 238 179 123 77 38 5 4 4 0 1 2 1 2 1 0 15 95 221 255 255 255 255 255 255 255 255 255 255 255 255 255 255 255 255 255 255
255 255 255 255 255 255 255 255 255 255 255 255 255 255 255 255 184 70 5 0 20 92 205 255 255 255 255 255 255 255 242 196 152 112 82 54 36 40 35 40 46 14 0 13 121 246 255 255 255 255 255 255 255 255 255 255 255 255 255 255 255 255 255 255
255 255 255 255 255 255 255 255 255 255 255 255 255 255 255 237 117 23 1 11 73 185 255 255 255 255 255 255 255 255 255 255 255 238 206 187 171 155 154 171 145 47 0 4 110 255 255 255 255 255 255 255 255 255 255 255 255 255 255 255 255 255 255 255
255 255 255 255 255 255 255 255 255 255 255 255 255 255 255 198 68 1 4 51 177 255 255 255 255 255 255 255 255 255 255 255 255 255 255 255 255 255 255 255 198 75 3 16 107 241 255 255 255 255 255 255 255 255 255 255 255 255 255 255 255 255 255 255
255 255 255 255 255 255 255 255 255 255 255 255 255 255 254 152 42 1 28 123 238 255 255 255 255 255 255 255 255 255 255 255 255 255 255 255 255 255 255 255 213 77 9 13 108 236 255 255 255 255 255 255 255 255 255 255 255 255 255 255 255 255 255 255
255 255 255 255 255 255 255 255 255 255 255 255 255 255 240 114 20 2 51 172 255 255 255 255 255 255 255 255 255 255 255 255 255 255 255 255 255 255 255 255 229 76 3 4 101 240 255 255 255 255 255 255 255 255 255 255 255 255 255 255 255 255 255 255
255 255 255 255 255 255 255 255 255 255 255 255 255 255 230 91 2 3 67 215 255 255 255 255 255 255 255 255 255 255 255 255 255 255 255 255 255 255 255 255 230 102 12 11 86 224 255 255 255 255 255 255 255 255 255 255 255 255 255 255 255 255 255 255
255 255 255 255 255 255 255 255 255 255 255 255 255 255 212 80 3 14 97 230 255 255 255 255 255 255 255 255 255 255 255 255 255 255 255 255 255 255 255 255 242 115 20 4 76 208 255 255 255 255 255 255 255 255 255 255 255 255 255 255 255 255 255 255
255 255 255 255 255 255 255 255 255 255 255 255 255 255 213 70 4 11 111 241 255 255 255 255 255 255 255 255 255 255 255 255 255 255 255 255 255 255 255 255 255 117 10 1 63 208 255 255 255 255 255 255 255 255 255 255 255 255 255 255 255 255 255 255
255 255 255 255 255 255 255 255 255 255 255 255 255 255 229 80 1 4 102 254 255 255 255 255 255 255 255 255 255 255 255 255 255 255 255 255 255 255 255 255 243 109 5 3 58 208 255 255 255 255 255 255 255 255 255 255 255 255 255 255 255 255 255 255
255 255 255 255 255 255 255 255 255 255 255 255 255 255 238 110 11 10 76 203 255 255 255 255 255 255 255 255 255 255 255 255 255 255 255 255 255 255 255 255 217 82 7 4 84 219 255 255 255 255 255 255 255 255 255 255 255 255 255 255 255 255 255 255
255 255 255 255 255 255 255 255 255 255 255 255 255 255 255 151 35 5 33 112 198 255 255 255 255 255 255 255 255 255 255 255 255 255 255 255 255 255 255 255 188 42 3 5 116 247 255 255 255 255 255 255 255 255 255 255 255 255 255 255 255 255 255 255
255 255 255 255 255 255 255 255 255 255 255 255 255 255 255 213 72 9 2 29 86 163 229 255 255 255 255 255 255 255 255 255 255 255 255 255 255 255 255 250 140 23 1 27 149 255 255 255 255 255 255 255 255 255 255 255 255 255 255 255 255 255 255 255
255 255 255 255 255 255 255 255 255 255 255 255 255 255 255 255 150 47 2 1 10 39 120 204 255 255 255 255 255 255 255 255 255 255 255 255 255 255 255 198 81 11 3 65 187 255 255 255 255 255 255 255 255 255 255 255 255 255 255 255 255 255 255 255
255 255 255 255 255 255 255 255 255 255 255 255 255 255 255 255 223 134 49 13 2 2 35 95 170 222 255 255 255 255 255 255 255 255 255 255 255 255 239 123 22 1 10 112 233 255 255 255 255 255 255 255 255 255 255 255 255 255 255 255 255 255 255 255
255 255 255 255 255 255 255 255 255 255 255 255 255 255 255 255 255 236 170 92 30 2 2 13 45 101 154 207 241 255 255 255 255 255 255 255 255 249 160 53 2 7 54 176 255 255 255 255 255 255 255 255 255 255 255 255 255 255 255 255 255 255 255 255
255 255 255 255 255 255 255 255 255 255 255 255 255 255 255 255 255 255 255 205 128 55 14 1 4 19 31 71 135 189 228 249 255 255 255 255 255 182 76 14 3 42 135 236 255 255 255 255 255 255 255 255 255 255 255 255 255 255 255 255 255 255 255 255
255 255 255 255 255 255 255 255 255 255 255 255 255 255 255 255 255 255 255 255 240 163 82 20 1 0 0 11 37 64 101 149 189 210 228 255 210 92 13 1 16 106 219 255 255 255 255 255 255 255 255 255 255 255 255 255 255 255 255 255 255 255 255 255
255 255 255 255 255 255 255 255 255 255 255 255 255 255 255 255 255 255 255 255 255 250 191 118 54 19 2 0 1 2 20 41 50 68 103 132 97 28 1 14 75 189 255 255 255 255 255 255 255 255 255 255 255 255 255 255 255 255 255 255 255 255 255 255
255 255 255 255 255 255 255 255 255 255 255 255 255 255 255 255 255 255 255 255 255 255 255 242 163 93 50 44 25 2 2 1 0 7 13 23 25 6 10 66 166 251 255 255 255 255 255 255 255 255 255 255 255 255 255 255 255 255 255 255 255 255 255 255
255 255 255 255 255 255 255 255 255 255 255 255 255 255 255 255 255 255 255 255 255 255 255 255 255 222 198 159 115 71 47 20 0 0 0 1 19 27 64 161 247 255 255 255 255 255 255 255 255 255 255 255 255 255 255 255 255 255 255 255 255 255 255 255
255 255 255 255 255 255 255 255 255 255 255 255 255 255 255 255 255 255 255 255 255 255 255 255 255 255 255 255 234 203 154 101 55 39 30 38 89 128 189 247 255 255 255 255 255 255 255 255 255 255 255 255 255 255 255 255 255 255 255 255 255 255 255 255
255 255 255 255 255 255 255 255 255 255 255 255 255 255 255 255 255 255 255 255 255 255 255 255 255 255 255 255 255 255 252 228 193 158 149 173 206 243 255 255 255 255 255 255 255 255 255 255 255 255 255 255 255 255 255 255 255 255 255 255 255 255 255 255
255 255 255 255 255 255 255 255 255 255 255 255 255 255 255 255 255 255 255 255 255 255 255 255 255 255 255 255 255 255 255 255 255 255 255 255 255 255 255 255 255 255 255 255 255 255 255 255 255 255 255 255 255 255 255 255 255 255 255 255 255 255 255 255
