P2
64 64
255
167 167 167 167 167 167 167 167 167 167 167 167 167 167 167 167 167 167 167 167 167 167 167 167 167 167 167 167 167 167 167 167 167 167 167 167 167 167 167 167 167 167 167 167 167 167 167 167 167 167 167 167 167 167 167 167 167 167 167 167 167 167 167 167
167 167 167 167 167 167 167 167 167 167 167 167 167 167 167 167 167 167 167 167 167 167 167 167 167 167 167 167 167 167 167 167 167 167 167 167 167 167 167 167 167 167 167 167 167 167 167 167 167 167 167 167 167 167 167 167 167 167 167 167 167 167 167 167
167 167 167 167 167 167 167 167 167 167 167 167 167 167 167 167 167 167 167 167 167 167 167 167 167 167 167 167 167 167 167 167 167 167 167 167 167 167 167 167 167 167 167 167 167 167 167 167 167 167 167 167 167 167 167 167 167 167 167 167 167 167 167 167
167 167 167 167 167 167 167 167 167 167 167 167 167 167 167 167 167 167 167 167 167 167 167 167 167 167 167 166 167 167 167 167 167 167 167 167 167 167 167 167 167 167 167 167 167 167 167 167 167 167 167 167 167 167 167 167 167 167 167 167 167 167 167 167
167 167 167 167 167 167 167 167 167 167 167 167 167 167 167 167 167 167 167 167 167 167 167 166 166 165 165 165 166 167 167 167 167 167 167 167 167 167 167 167 167 167 167 167 167 167 167 167 167 167 167 167 167 167 167 167 167 167 167 167 167 167 167 167
167 167 167 167 167 167 167 167 167 167 167 167 167 167 167 167 167 167 167 167 167 166 166 161 158 150 153 156 164 166 166 167 167 167 167 167 167 167 167 167 167 167 167 167 167 167 167 167 167 167 167 167 167 167 167 167 167 167 167 167 167 167 167 167
167 167 167 167 167 167 167 167 167 167 167 167 167 167 167 167 167 167 167 167 166 166 154 139 114 101 97 115 136 156 165 166 167 167 167 167 167 167 167 167 167 167 167 167 167 167 167 167 167 167 167 167 167 167 167 167 167 167 167 167 167 167 167 167
167 167 167 167 167 167 167 167 167 167 167 167 167 167 167 167 167 167 167 167 166 150 127 83 53 34 33 48 83 126 156 165 167 166 167 167 167 167 167 167 167 167 167 167 167 167 167 167 167 167 167 167 167 167 167 167 167 167 167 167 167 167 167 167
167 167 167 167 167 167 167 167 167 167 167 167 167 167 167 167 167 167 167 166 152 120 68 32 9 2 0 9 28 70 116 144 159 165 167 167 167 167 167 167 167 167 167 167 167 167 167 167 167 167 167 167 167 167 167 167 167 167 167 167 167 167 167 167
167 167 167 167 167 167 167 167 167 167 167 167 167 167 167 167 167 167 165 158 123 66 27 1 0 1 0 1 5 22 55 97 136 158 166 167 167 167 167 167 167 167 167 167 167 167 167 167 167 167 167 167 167 167 167 167 167 167 167 167 167 167 167 167
167 167 167 167 167 167 167 167 167 167 167 167 167 167 167 167 167 166 163 126 72 27 0 0 8 13 18 5 1 1 13 41 83 125 153 163 167 167 167 167 167 167 167 167 167 167 167 167 167 167 167 167 167 167 167 167 167 167 167 167 167 167 167 167
167 167 167 167 167 167 167 167 167 167 167 167 167 167 167 167 166 165 132 80 26 1 0 15 36 65 70 52 23 6 2 9 31 70 116 152 165 167 167 167 167 167 167 167 167 167 167 167 167 167 167 167 167 167 167 167 167 167 167 167 167 167 167 167
167 167 167 167 167 167 167 167 167 167 167 167 167 167 167 167 165 147 94 28 3 0 14 44 95 125 135 114 71 31 4 0 1 20 62 112 148 163 166 167 167 167 167 167 167 167 167 167 167 167 167 167 167 167 167 167 167 167 167 167 167 167 167 167
167 167 167 167 167 167 167 167 167 167 167 167 167 167 167 166 162 116 43 9 0 9 42 102 140 162 163 156 125 87 47 17 2 4 19 55 106 150 166 167 167 167 167 167 167 167 167 167 167 167 167 167 167 167 167 167 167 167 167 167 167 167 167 167
167 167 167 167 167 167 167 167 167 167 167 167 167 167 167 166 138 77 19 0 3 41 99 140 166 166 167 164 157 140 104 56 17 1 1 9 61 130 162 166 167 167 167 167 167 167 167 167 167 167 167 167 167 167 167 167 167 167 167 167 167 167 167 167
167 167 167 167 167 167 167 167 167 167 167 167 167 167 165 152 106 36 3 0 35 92 141 166 166 167 167 167 166 163 148 110 63 24 5 2 35 97 152 167 167 167 167 167 167 167 167 167 167 167 167 167 167 167 167 167 167 167 167 167 167 167 167 167
167 167 167 167 167 167 167 167 167 167 167 167 167 166 164 127 59 15 0 19 74 138 164 166 167 167 167 167 167 166 162 149 122 74 28 9 23 90 151 167 167 167 167 167 167 167 167 167 167 167 167 167 167 167 167 167 167 167 167 167 167 167 167 167
167 167 167 167 167 167 167 167 167 167 167 167 167 167 154 99 27 0 3 45 120 158 167 167 167 167 167 167 167 166 167 166 159 127 79 43 45 104 154 165 167 167 167 167 167 167 167 167 167 167 167 167 167 167 167 167 167 167 167 167 167 167 167 167
167 167 167 167 167 167 167 167 167 167 167 167 167 165 141 57 5 0 20 83 144 166 167 167 167 167 167 167 167 167 167 166 165 156 129 101 99 133 159 166 167 167 167 167 167 167 167 167 167 167 167 167 167 167 167 167 167 167 167 167 167 167 167 167
167 167 167 167 167 167 167 167 167 167 167 167 167 163 122 33 0 1 39 120 162 166 167 167 167 167 167 167 167 167 167 167 167 165 160 146 142 154 164 166 167 167 167 167 167 167 167 167 167 167 167 167 167 167 167 167 167 167 167 167 167 167 167 167
167 167 167 167 167 167 167 167 167 167 167 167 166 160 98 14 0 5 59 142 166 167 167 167 167 167 167 167 167 167 167 167 167 167 165 162 163 164 167 167 167 167 167 167 167 167 167 167 167 167 167 167 167 167 167 167 167 167 167 167 167 167 167 167
167 167 167 167 167 167 167 167 167 167 167 167 166 159 85 5 0 3 87 157 166 167 167 167 167 167 167 167 167 167 167 167 167 167 166 166 166 167 167 167 167 167 167 167 167 167 167 167 167 167 167 167 167 167 167 167 167 167 167 167 167 167 167 167
167 167 167 167 167 167 167 167 167 167 167 167 167 151 73 9 1 34 112 162 167 167 167 167 167 167 167 167 167 167 167 167 167 167 167 167 167 167 167 167 167 167 167 167 167 167 167 167 167 167 167 167 167 167 167 167 167 167 167 167 167 167 167 167
167 167 167 167 167 167 167 167 167 167 167 167 166 147 68 6 6 62 146 165 167 167 167 167 167 167 167 167 167 167 167 167 167 167 167 167 167 167 167 167 167 167 167 167 167 167 167 167 167 167 167 167 167 167 167 167 167 167 167 167 167 167 167 167
167 167 167 167 167 167 167 167 167 167 167 167 165 139 54 4 20 93 153 166 167 167 167 167 167 167 167 167 167 167 167 167 167 167 167 167 167 167 167 167 167 167 167 167 167 167 167 167 167 167 167 167 167 167 167 167 167 167 167 167 167 167 167 167
167 167 167 167 167 167 167 167 167 167 167 167 164 123 38 3 28 110 162 166 167 167 167 167 167 167 167 167 167 167 167 167 167 167 167 167 167 167 167 167 167 167 167 167 167 167 167 167 167 167 167 167 167 167 167 167 167 167 167 167 167 167 167 167
167 167 167 167 167 167 167 167 167 167 167 166 164 119 23 1 30 119 163 167 167 167 167 167 167 167 167 167 167 167 167 167 167 167 167 167 167 167 167 167 167 167 167 167 167 167 167 167 167 167 167 167 167 167 167 167 167 167 167 167 167 167 167 167
167 167 167 167 167 167 167 167 167 167 167 167 161 109 28 1 34 116 163 167 167 167 167 167 167 167 167 167 167 167 167 167 167 167 167 167 167 167 167 167 167 167 167 167 167 167 167 167 167 167 167 167 167 167 167 167 167 167 167 167 167 167 167 167
167 167 167 167 167 167 167 167 167 167 167 166 161 110 24 1 24 113 164 166 167 167 167 167 167 167 167 167 167 167 167 167 167 167 167 167 167 167 167 167 167 167 167 167 167 167 167 167 167 167 167 167 167 167 167 167 167 167 167 167 167 167 167 167
167 167 167 167 167 167 167 167 167 167 167 167 162 111 27 1 22 96 155 166 167 167 167 167 167 167 167 167 167 167 167 167 167 167 167 167 167 167 167 167 167 167 167 167 167 167 167 167 167 167 167 167 167 167 167 167 167 167 167 167 167 167 167 167
167 167 167 167 167 167 167 167 167 167 167 167 162 120 40 0 13 77 154 167 167 167 167 167 167 167 167 167 167 167 167 167 167 167 167 167 167 167 166 167 167 167 167 167 167 167 167 167 167 167 167 167 167 167 167 167 167 167 167 167 167 167 167 167
167 167 167 167 167 167 167 167 167 167 167 167 166 137 50 4 2 61 142 165 167 167 167 167 167 167 167 167 167 167 167 167 167 167 167 166 167 165 165 165 166 164 165 166 166 166 167 167 167 167 167 167 167 167 167 167 167 167 167 167 167 167 167 167
167 167 167 167 167 167 167 167 167 167 167 167 166 143 71 9 3 45 126 165 167 167 167 167 167 167 167 167 167 167 167 167 167 167 166 165 154 154 147 152 146 148 151 156 162 164 167 167 167 167 167 167 167 167 167 167 167 167 167 167 167 167 167 167
167 167 167 167 167 167 167 167 167 167 167 167 166 157 89 7 0 24 115 162 166 167 167 167 167 167 167 167 167 167 167 167 167 166 165 135 118 100 101 95 95 94 104 121 133 151 161 165 167 167 167 167 167 167 167 167 167 167 167 167 167 167 167 167
167 167 167 167 167 167 167 167 167 167 167 167 167 162 104 26 0 20 89 150 166 167 167 167 167 167 167 167 167 167 167 167 167 162 129 83 46 38 32 35 26 34 40 51 74 106 137 158 166 167 167 167 167 167 167 167 167 167 167 167 167 167 167 167
167 167 167 167 167 167 167 167 167 167 167 167 167 162 123 43 0 7 63 144 167 167 167 167 167 167 167 167 167 167 167 167 163 142 85 23 10 1 5 2 3 3 5 9 15 49 93 139 163 166 167 167 167 167 167 167 167 167 167 167 167 167 167 167
167 167 167 167 167 167 167 167 167 167 167 167 167 166 140 59 8 1 44 120 161 167 167 167 167 167 167 167 167 167 167 165 158 104 36 6 0 0 3 2 5 3 7 3 3 13 43 97 147 166 167 167 167 167 167 167 167 167 167 167 167 167 167 167
167 167 167 167 167 167 167 167 167 167 167 167 167 166 148 85 18 0 22 93 157 167 167 167 167 167 167 167 167 167 167 163 122 60 13 0 0 12 19 37 34 41 36 22 6 1 11 54 127 166 166 167 167 167 167 167 167 167 167 167 167 167 167 167
167 167 167 167 167 167 167 167 167 167 167 167 167 166 163 113 26 1 2 66 143 165 167 167 167 167 167 167 167 167 165 146 85 16 1 0 22 43 83 97 104 104 97 68 32 7 0 26 89 146 166 167 167 167 167 167 167 167 167 167 167 167 167 167
167 167 167 167 167 167 167 167 167 167 167 167 167 167 166 131 57 7 1 39 117 165 167 167 167 167 167 167 167 166 164 117 38 5 1 23 64 112 135 154 149 156 144 124 79 26 0 9 47 121 166 167 167 167 167 167 167 167 167 167 167 167 167 167
167 167 167 167 167 167 167 167 167 167 167 167 167 167 166 154 90 11 0 7 91 161 166 167 167 167 167 167 167 166 148 85 17 0 8 61 125 150 165 165 166 165 165 160 125 53 5 0 17 89 152 166 167 167 167 167 167 167 167 167 167 167 167 167
167 167 167 167 167 167 167 167 167 167 167 167 167 167 167 166 116 34 1 4 61 137 166 167 167 167 167 167 166 165 132 45 3 0 32 108 152 166 166 167 167 167 167 165 147 94 32 1 7 51 126 165 167 167 167 167 167 167 167 167 167 167 167 167
167 167 167 167 167 167 167 167 167 167 167 167 167 167 167 166 142 66 3 1 30 118 166 167 167 167 167 167 167 160 110 28 0 4 57 139 165 166 167 167 167 167 167 166 162 133 62 3 0 14 101 161 166 167 167 167 167 167 167 167 167 167 167 167
167 167 167 167 167 167 167 167 167 167 167 167 167 167 167 167 163 92 15 0 17 85 148 166 167 167 167 167 166 152 83 12 0 16 85 153 167 167 167 167 167 167 167 167 167 154 96 25 0 9 69 140 165 167 167 167 167 167 167 167 167 167 167 167
167 167 167 167 167 167 167 167 167 167 167 167 167 167 167 167 162 116 40 1 7 49 123 166 167 167 167 167 165 145 62 3 2 30 114 162 166 167 167 167 167 167 167 167 167 162 126 47 0 3 37 127 166 167 167 167 167 167 167 167 167 167 167 167
167 167 167 167 167 167 167 167 167 167 167 167 167 167 167 167 165 142 64 3 0 18 94 155 166 167 167 167 165 130 49 5 12 69 138 165 167 167 167 167 167 167 167 167 167 167 148 59 5 0 26 110 160 167 167 167 167 167 167 167 167 167 167 167
167 167 167 167 167 167 167 167 167 167 167 167 167 167 167 167 166 152 96 30 1 9 57 129 166 167 167 166 162 122 43 7 26 103 161 166 167 167 167 167 167 167 167 167 167 166 149 78 10 0 19 105 161 167 167 167 167 167 167 167 167 167 167 167
167 167 167 167 167 167 167 167 167 167 167 167 167 167 167 167 166 162 131 60 3 1 19 99 162 166 167 167 158 104 30 10 50 127 163 167 167 167 167 167 167 167 167 167 167 166 160 91 7 0 20 113 162 166 167 167 167 167 167 167 167 167 167 167
167 167 167 167 167 167 167 167 167 167 167 167 167 167 167 167 167 167 153 93 24 1 6 59 132 164 167 166 153 84 13 7 57 142 167 167 167 167 167 167 167 167 167 167 167 167 158 83 13 0 29 118 163 167 167 167 167 167 167 167 167 167 167 167
167 167 167 167 167 167 167 167 167 167 167 167 167 167 167 167 167 167 161 127 57 3 1 21 97 159 167 166 152 70 6 5 62 143 165 167 167 167 167 167 167 167 167 167 167 166 152 70 1 0 22 124 166 166 167 167 167 167 167 167 167 167 167 167
167 167 167 167 167 167 167 167 167 167 167 167 167 167 167 167 167 167 167 158 93 17 0 3 59 125 158 166 141 62 7 9 72 147 166 167 167 167 167 167 167 167 167 167 167 166 139 47 3 0 33 124 164 167 167 167 167 167 167 167 167 167 167 167
167 167 167 167 167 167 167 167 167 167 167 167 167 167 167 167 167 167 167 163 127 54 4 1 23 82 142 164 139 51 1 7 78 159 166 167 167 167 167 167 167 167 167 167 166 163 123 36 0 0 53 139 165 167 167 167 167 167 167 167 167 167 167 167
167 167 167 167 167 167 167 167 167 167 167 167 167 167 167 167 167 167 167 166 160 93 15 0 1 43 114 154 131 43 0 10 78 151 167 167 167 167 167 167 167 167 167 167 166 154 105 24 0 15 81 152 166 167 167 167 167 167 167 167 167 167 167 167
167 167 167 167 167 167 167 167 167 167 167 167 167 167 167 167 167 167 167 167 165 127 59 13 0 20 72 131 122 36 0 7 67 154 167 167 167 167 167 167 167 167 167 167 163 139 67 12 3 41 122 160 167 167 167 167 167 167 167 167 167 167 167 167
167 167 167 167 167 167 167 167 167 167 167 167 167 167 167 167 167 167 167 167 166 154 104 33 1 2 26 94 116 28 0 1 66 148 166 167 167 167 167 167 167 167 166 166 150 100 36 2 13 71 144 167 167 167 167 167 167 167 167 167 167 167 167 167
167 167 167 167 167 167 167 167 167 167 167 167 167 167 167 167 167 167 167 167 167 166 135 68 17 1 7 47 76 36 0 6 61 143 167 167 167 167 167 167 167 167 166 150 121 57 5 1 27 104 158 166 167 167 167 167 167 167 167 167 167 167 167 167
167 167 167 167 167 167 167 167 167 167 167 167 167 167 167 167 167 167 167 167 167 166 153 110 47 3 0 11 51 39 0 0 49 137 164 167 167 167 167 167 167 167 151 122 67 20 2 9 53 127 165 167 167 167 167 167 167 167 167 167 167 167 167 167
167 167 167 167 167 167 167 167 167 167 167 167 167 167 167 167 167 167 167 167 167 167 166 148 89 28 4 1 24 24 6 0 36 110 158 167 167 167 167 167 165 154 122 67 27 2 1 20 92 152 165 167 167 167 167 167 167 167 167 167 167 167 167 167
167 167 167 167 167 167 167 167 167 167 167 167 167 167 167 167 167 167 167 167 167 167 166 162 132 74 21 0 5 11 6 0 11 78 151 167 167 166 167 163 153 120 68 28 0 1 13 66 127 162 167 167 167 167 167 167 167 167 167 167 167 167 167 167
167 167 167 167 167 167 167 167 167 167 167 167 167 167 167 167 167 167 167 167 167 167 167 166 162 122 50 6 0 1 2 0 1 51 125 162 166 166 160 152 110 66 26 1 0 15 49 107 160 166 167 167 167 167 167 167 167 167 167 167 167 167 167 167
167 167 167 167 167 167 167 167 167 167 167 167 167 167 167 167 167 167 167 167 167 167 167 167 166 146 97 38 7 0 0 0 0 25 102 157 165 148 141 101 59 18 1 0 15 43 98 147 163 167 167 167 167 167 167 167 167 167 167 167 167 167 167 167
167 167 167 167 167 167 167 167 167 167 167 167 167 167 167 167 167 167 167 167 167 167 167 167 166 162 142 87 26 1 0 0 0 7 80 136 124 104 75 46 9 1 0 13 43 100 140 162 167 167 167 167 167 167 167 167 167 167 167 167 167 167 167 167
167 167 167 167 167 167 167 167 167 167 167 167 167 167 167 167 167 167 167 167 167 167 167 167 167 167 162 131 79 29 3 0 0 7 46 79 68 37 26 2 1 3 14 46 99 140 165 166 167 167 167 167 167 167 167 167 167 167 167 167 167 167 167 167
167 167 167 167 167 167 167 167 167 167 167 167 167 167 167 167 167 167 167 167 167 167 167 167 167 167 166 158 131 76 24 3 0 1 11 30 13 9 0 0 5 15 57 106 141 166 166 167 167 167 167 167 167 167 167 167 167 167 167 167 167 167 167 167
