P2
64 64
255
167 167 167 167 167 167 167 167 167 167 167 167 167 167 167 167 167 167 167 167 167 167 167 167 167 167 167 167 167 167 167 167 167 167 167 167 167 167 167 167 167 167 167 167 167 167 167 167 167 167 167 167 167 167 167 167 167 167 167 167 167 167 167 167
167 167 167 167 167 167 167 167 167 167 167 167 167 167 167 167 167 167 167 167 167 167 167 167 167 167 167 167 167 167 167 167 167 167 167 167 167 167 167 167 167 167 167 167 167 167 167 167 167 167 167 167 167 167 167 167 167 167 167 167 167 167 167 167
167 167 167 167 167 167 167 167 167 167 167 167 167 167 167 167 167 167 167 167 167 167 167 167 167 167 167 167 167 167 167 167 167 167 167 167 167 167 167 167 167 167 167 167 167 167 167 167 167 167 167 167 167 167 167 167 167 167 167 167 167 167 167 167
167 167 167 167 167 167 167 167 167 167 167 167 167 167 167 167 167 167 167 167 167 167 167 167 167 167 167 167 167 167 167 167 167 167 167 167 167 167 167 167 167 167 167 167 167 167 167 167 167 167 167 167 167 167 167 167 167 167 167 167 167 167 167 167
167 167 167 167 167 167 167 167 167 167 167 167 167 167 167 167 167 167 167 167 167 167 167 167 167 167 167 167 167 167 167 167 167 167 167 167 167 167 167 167 167 167 167 167 167 167 167 167 167 167 167 167 167 167 167 167 167 167 167 167 167 167 167 167
167 167 167 167 167 167 167 167 167 167 167 167 167 167 167 167 167 167 167 167 167 167 167 167 167 167 167 167 167 167 167 167 167 167 167 167 167 167 167 167 167 167 167 167 167 167 167 167 167 167 167 167 167 167 167 167 167 167 167 167 167 167 167 167
167 167 167 167 167 167 167 167 167 167 167 167 167 167 167 167 167 167 167 167 167 167 167 167 167 167 167 167 167 167 167 167 167 167 167 167 167 167 167 167 167 167 167 167 167 167 167 167 167 167 167 167 167 167 167 167 167 167 167 167 167 167 167 167
167 167 167 167 167 167 167 167 167 167 167 167 167 167 167 167 167 167 167 167 167 167 167 167 167 167 167 167 167 167 167 167 167 167 167 167 167 167 167 167 167 167 167 167 167 167 167 167 167 167 167 167 167 167 167 167 167 167 167 167 167 167 167 167
167 167 167 167 167 167 167 167 167 167 167 167 167 167 167 167 167 167 167 167 167 167 167 167 167 167 167 167 167 167 167 167 167 167 167 167 167 167 167 167 167 167 167 167 167 167 167 167 167 167 167 167 167 167 167 167 167 167 167 167 167 167 167 167
167 167 167 167 167 167 167 167 167 167 167 167 167 167 167 167 167 167 167 167 167 167 167 167 167 167 167 167 167 167 167 167 167 167 167 167 167 167 167 167 167 167 167 167 167 167 167 167 167 167 167 167 167 167 167 167 167 167 167 167 167 167 167 167
167 167 167 167 167 167 167 167 167 167 167 167 167 167 167 167 167 167 167 167 167 167 167 167 167 167 167 167 167 167 167 167 167 167 167 167 167 167 167 167 167 167 167 167 167 167 167 167 167 167 167 167 167 167 167 167 167 167 167 167 167 167 167 167
167 167 167 167 167 167 167 167 167 167 167 167 167 167 167 167 167 167 167 167 167 167 167 167 167 167 167 167 167 167 167 167 167 167 167 167 167 167 167 167 167 167 167 167 167 167 167 167 167 167 167 167 167 167 167 167 167 167 167 167 167 167 167 167
167 167 167 167 167 167 167 167 167 167 167 167 167 167 167 167 167 167 167 167 167 167 167 167 167 167 167 167 167 167 167 167 167 167 167 167 167 166 166 166 166 167 167 167 167 167 167 167 167 167 167 167 167 167 167 167 167 167 167 167 167 167 167 167
167 167 167 167 167 167 167 167 167 167 167 167 167 167 167 167 167 167 167 167 167 167 167 167 167 167 167 167 167 167 167 167 167 167 166 166 161 153 145 148 152 160 166 166 167 167 167 167 167 167 167 167 167 167 167 167 167 167 167 167 167 167 167 167
167 167 167 167 167 167 167 167 167 167 167 167 167 167 167 167 167 167 167 167 167 167 167 167 167 167 167 167 167 167 167 167 166 164 160 149 122 88 66 57 78 108 141 163 166 167 167 167 167 167 167 167 167 167 167 167 167 167 167 167 167 167 167 167
167 167 167 167 167 167 167 167 167 167 167 167 167 167 167 167 167 167 167 167 167 167 167 167 167 167 167 167 167 167 166 164 157 139 111 73 38 15 7 5 3 35 74 130 157 166 167 167 167 167 167 167 167 167 167 167 167 167 167 167 167 167 167 167
167 167 167 167 167 167 167 167 167 167 167 167 167 167 167 167 167 167 167 167 167 167 167 167 167 167 167 167 166 166 157 131 93 58 29 13 2 1 3 1 0 0 21 61 126 159 167 167 167 167 167 167 167 167 167 167 167 167 167 167 167 167 167 167
167 167 167 167 167 167 167 167 167 167 167 167 167 167 167 167 167 167 167 167 167 167 167 167 167 167 167 166 157 128 91 53 23 6 1 3 9 29 49 47 24 5 0 15 63 126 163 166 167 167 167 167 167 167 167 167 167 167 167 167 167 167 167 167
167 167 167 167 167 167 167 167 167 167 167 167 167 167 167 167 167 167 167 167 167 167 167 167 167 167 166 151 111 57 18 3 0 3 20 47 80 113 138 128 97 40 11 0 6 65 128 166 166 167 167 167 167 167 167 167 167 167 167 167 167 167 167 167
167 167 167 167 167 167 167 167 167 167 167 167 167 167 167 167 167 167 167 167 167 167 167 167 167 167 163 130 56 7 1 4 23 56 93 128 149 161 166 166 149 113 44 9 0 12 76 144 165 167 167 167 167 167 167 167 167 167 167 167 167 167 167 167
167 167 167 167 167 167 167 167 167 167 167 167 167 167 167 167 167 167 167 167 167 167 167 167 167 167 162 117 47 12 26 56 96 131 155 165 166 166 167 167 166 155 113 47 3 0 31 101 162 166 167 167 167 167 167 167 167 167 167 167 167 167 167 167
167 167 167 167 167 167 167 167 167 167 167 167 167 167 167 167 167 167 167 167 167 167 167 167 167 166 163 139 92 72 96 134 161 165 166 166 167 167 167 167 167 166 164 107 41 0 3 55 130 162 167 167 167 167 167 167 167 167 167 167 167 167 167 167
167 167 167 167 167 167 167 167 167 167 167 167 167 167 167 167 167 167 167 167 167 167 167 167 167 167 166 161 145 145 155 163 166 167 167 167 167 167 167 167 167 167 166 153 88 16 0 20 79 149 166 167 167 167 167 167 167 167 167 167 167 167 167 167
167 167 167 167 167 167 167 167 167 167 167 167 167 167 167 167 167 167 167 167 167 167 167 167 167 167 167 166 165 164 166 167 167 167 167 167 167 167 167 167 167 167 167 166 129 54 2 1 34 126 163 167 167 167 167 167 167 167 167 167 167 167 167 167
167 167 167 167 167 167 167 167 167 167 167 167 167 167 167 167 167 167 167 167 167 167 167 167 167 167 167 167 167 167 167 167 167 167 167 167 167 167 167 167 167 167 167 166 158 93 10 0 13 86 157 167 167 167 167 167 167 167 167 167 167 167 167 167
167 167 167 167 167 167 167 167 167 167 167 167 167 167 167 167 167 167 167 167 167 167 167 167 167 167 167 167 167 167 167 167 167 167 167 167 167 167 167 167 167 167 167 167 164 114 24 0 3 59 153 166 167 167 167 167 167 167 167 167 167 167 167 167
167 167 167 167 167 167 167 167 167 167 167 167 167 167 167 167 167 167 167 167 167 167 167 167 167 167 167 167 167 167 167 167 167 167 167 167 167 167 167 167 167 167 167 167 166 136 47 0 0 54 147 166 167 167 167 167 167 167 167 167 167 167 167 167
167 167 167 167 167 167 167 167 167 167 167 167 167 167 167 167 167 167 167 167 167 167 167 167 167 167 167 167 167 167 167 167 167 167 167 167 167 167 167 167 167 167 167 167 166 155 86 11 5 57 143 166 167 167 167 167 167 167 167 167 167 167 167 167
167 167 167 167 167 167 167 167 167 167 167 167 167 167 167 167 167 167 167 167 167 167 167 167 167 167 167 167 167 167 167 167 167 167 167 167 167 167 167 167 167 167 167 167 166 163 109 27 4 49 139 166 167 167 167 167 167 167 167 167 167 167 167 167
167 167 167 167 167 167 167 167 167 167 167 167 167 167 167 167 167 167 167 167 167 167 167 167 167 167 167 167 167 167 167 167 167 167 167 167 167 167 167 167 167 167 167 167 167 164 119 27 0 38 128 165 167 167 167 167 167 167 167 167 167 167 167 167
167 167 167 167 167 167 167 167 167 167 167 167 167 167 167 167 167 166 166 166 167 166 166 167 166 166 167 167 167 167 167 167 167 167 167 167 167 167 167 167 167 167 167 167 167 164 105 26 1 39 125 166 167 167 167 167 167 167 167 167 167 167 167 167
167 167 167 167 167 167 167 167 167 167 167 167 167 167 167 166 166 164 157 146 141 137 134 143 151 153 160 164 166 167 167 167 167 167 167 167 167 167 167 167 167 167 167 167 166 150 85 15 3 42 134 166 166 167 167 167 167 167 167 167 167 167 167 167
167 167 167 167 167 167 167 167 167 167 167 167 167 167 167 166 153 126 99 73 55 51 53 57 72 87 97 126 147 166 167 167 167 167 167 167 167 167 167 167 167 167 167 167 164 136 51 0 2 62 141 165 167 167 167 167 167 167 167 167 167 167 167 167
167 167 167 167 167 167 167 167 167 167 167 167 167 167 166 150 108 57 23 6 4 1 3 5 5 13 21 32 83 136 166 167 167 167 167 167 167 167 167 167 167 167 167 166 164 104 23 1 21 92 153 167 167 167 167 167 167 167 167 167 167 167 167 167
167 167 167 167 167 167 167 167 167 167 167 167 167 166 158 115 43 7 1 5 15 17 13 9 3 2 0 2 15 86 148 166 167 167 167 167 167 167 167 167 167 167 167 166 141 70 9 2 39 126 166 166 167 167 167 167 167 167 167 167 167 167 167 167
167 167 167 167 167 167 167 167 167 167 167 167 167 166 119 49 11 0 17 48 77 93 86 72 59 28 11 0 0 36 104 162 166 167 167 167 167 167 167 167 167 167 167 158 114 34 0 2 74 149 166 167 167 167 167 167 167 167 167 167 167 167 167 167
167 167 167 167 167 167 167 167 167 167 167 167 166 130 63 12 0 13 59 123 152 157 160 149 137 114 59 22 0 3 51 130 164 167 167 167 167 167 167 167 167 167 166 148 69 10 0 33 109 159 167 167 167 167 167 167 167 167 167 167 167 167 167 167
167 167 167 167 167 167 167 167 167 167 167 166 147 82 13 0 2 57 123 157 166 166 166 167 166 159 137 76 15 0 17 84 156 166 167 167 167 167 167 167 167 167 159 102 32 1 11 65 139 166 167 167 167 167 167 167 167 167 167 167 167 167 167 167
167 167 167 167 167 167 167 167 167 167 166 163 116 29 2 1 47 115 156 166 167 167 167 167 167 166 166 129 53 1 1 45 134 164 167 167 167 167 167 167 167 166 131 57 2 2 27 112 161 166 167 167 167 167 167 167 167 167 167 167 167 167 167 167
167 167 167 167 167 167 167 167 167 167 167 148 72 11 0 20 90 156 167 167 167 167 167 167 167 167 166 157 88 7 0 19 104 161 166 167 167 167 167 167 166 155 87 7 0 12 80 145 166 167 167 167 167 167 167 167 167 167 167 167 167 167 167 167
167 167 167 167 167 167 167 167 167 167 165 140 55 0 1 34 131 164 167 167 167 167 167 167 167 167 166 164 113 28 0 9 78 155 166 167 167 167 167 167 166 118 35 2 3 49 126 166 167 167 167 167 167 167 167 167 167 167 167 167 167 167 167 167
167 167 167 167 167 167 167 167 167 167 166 147 47 1 3 64 144 166 167 167 167 167 167 167 167 167 167 167 139 64 3 5 61 147 166 167 167 167 167 166 134 69 12 0 21 99 165 166 167 167 167 167 167 167 167 167 167 167 167 167 167 167 167 167
167 167 167 167 167 167 167 167 167 167 166 139 44 1 5 65 149 167 167 167 167 167 167 167 167 167 167 166 159 101 23 5 59 140 165 167 167 167 166 147 88 19 0 1 63 141 166 167 167 167 167 167 167 167 167 167 167 167 167 167 167 167 167 167
167 167 167 167 167 167 167 167 167 167 166 137 42 0 1 43 145 166 167 167 167 167 167 167 167 167 167 167 167 120 37 7 46 126 165 167 167 166 162 105 28 3 1 42 109 157 167 167 167 167 167 167 167 167 167 167 167 167 167 167 167 167 167 167
167 167 167 167 167 167 167 167 167 167 166 149 65 7 0 40 131 164 167 167 167 167 167 167 167 167 167 167 164 121 37 1 28 114 165 166 167 165 115 44 7 1 28 92 150 166 167 167 167 167 167 167 167 167 167 167 167 167 167 167 167 167 167 167
167 167 167 167 167 167 167 167 167 167 167 160 109 23 3 26 109 158 167 167 167 167 167 167 167 167 167 167 164 126 34 0 23 113 162 166 160 125 58 5 0 13 78 147 164 167 167 167 167 167 167 167 167 167 167 167 167 167 167 167 167 167 167 167
167 167 167 167 167 167 167 167 167 167 167 166 138 55 6 11 64 138 165 167 167 167 167 167 167 167 167 167 166 122 31 1 22 107 161 157 126 63 3 0 5 67 134 162 167 167 167 167 167 167 167 167 167 167 167 167 167 167 167 167 167 167 167 167
167 167 167 167 167 167 167 167 167 167 167 166 154 89 17 1 21 92 144 166 166 167 167 167 167 167 167 167 161 103 21 0 17 107 159 129 60 13 0 6 53 123 163 167 167 167 167 167 167 167 167 167 167 167 167 167 167 167 167 167 167 167 167 167
167 167 167 167 167 167 167 167 167 167 167 167 162 124 43 5 5 32 95 143 166 167 167 167 167 167 167 167 157 90 6 0 17 108 115 63 19 0 11 46 113 165 167 167 167 167 167 167 167 167 167 167 167 167 167 167 167 167 167 167 167 167 167 167
167 167 167 167 167 167 167 167 167 167 167 167 166 151 95 25 1 2 36 91 148 162 167 167 167 167 167 167 147 65 8 0 32 74 53 10 0 6 43 115 159 166 167 167 167 167 167 167 167 167 167 167 167 167 167 167 167 167 167 167 167 167 167 167
167 167 167 167 167 167 167 167 167 167 167 167 167 164 143 76 25 0 1 34 85 140 160 167 167 167 167 157 106 36 0 5 32 38 2 0 4 47 108 151 166 167 167 167 167 167 167 167 167 167 167 167 167 167 167 167 167 167 167 167 167 167 167 167
167 167 167 167 167 167 167 167 167 167 167 167 167 167 161 136 77 24 1 1 23 72 126 155 166 166 162 128 57 2 0 7 12 5 0 16 58 113 153 166 167 167 167 167 167 167 167 167 167 167 167 167 167 167 167 167 167 167 167 167 167 167 167 167
167 167 167 167 167 167 167 167 167 167 167 167 167 167 166 166 136 82 21 5 1 9 55 96 131 153 152 88 13 0 0 0 0 1 21 65 125 164 167 166 167 167 167 167 167 167 167 167 167 167 167 167 167 167 167 167 167 167 167 167 167 167 167 167
167 167 167 167 167 167 167 167 167 167 167 167 167 167 167 166 166 139 93 33 8 0 1 25 48 90 95 46 3 0 0 0 6 24 77 136 161 166 167 167 167 167 167 167 167 167 167 167 167 167 167 167 167 167 167 167 167 167 167 167 167 167 167 167
167 167 167 167 167 167 167 167 167 167 167 167 167 167 167 167 167 166 150 109 49 11 0 0 7 14 29 9 0 0 0 8 52 104 143 162 166 167 167 167 167 167 167 167 167 167 167 167 167 167 167 167 167 167 167 167 167 167 167 167 167 167 167 167
167 167 167 167 167 167 167 167 167 167 167 167 167 167 167 167 167 167 166 162 121 76 40 17 5 3 5 1 4 17 44 82 126 155 166 167 167 167 167 167 167 167 167 167 167 167 167 167 167 167 167 167 167 167 167 167 167 167 167 167 167 167 167 167
167 167 167 167 167 167 167 167 167 167 167 167 167 167 167 167 167 167 167 166 166 145 126 87 58 48 36 44 65 95 122 149 166 167 167 167 167 167 167 167 167 167 167 167 167 167 167 167 167 167 167 167 167 167 167 167 167 167 167 167 167 167 167 167
167 167 167 167 167 167 167 167 167 167 167 167 167 167 167 167 167 167 167 167 167 166 161 158 138 130 126 124 140 161 165 166 166 167 167 167 167 167 167 167 167 167 167 167 167 167 167 167 167 167 167 167 167 167 167 167 167 167 167 167 167 167 167 167
167 167 167 167 167 167 167 167 167 167 167 167 167 167 167 167 167 167 167 167 167 167 167 166 166 165 164 164 165 166 167 167 167 167 167 167 167 167 167 167 167 167 167 167 167 167 167 167 167 167 167 167 167 167 167 167 167 167 167 167 167 167 167 167
167 167 167 167 167 167 167 167 167 167 167 167 167 167 167 167 167 167 167 167 167 167 167 167 167 167 167 167 167 167 167 167 167 167 167 167 167 167 167 167 167 167 167 167 167 167 167 167 167 167 167 167 167 167 167 167 167 167 167 167 167 167 167 167
167 167 167 167 167 167 167 167 167 167 167 167 167 167 167 167 167 167 167 167 167 167 167 167 167 167 167 167 167 167 167 167 167 167 167 167 167 167 167 167 167 167 167 167 167 167 167 167 167 167 167 167 167 167 167 167 167 167 167 167 167 167 167 167
167 167 167 167 167 167 167 167 167 167 167 167 167 167 167 167 167 167 167 167 167 167 167 167 167 167 167 167 167 167 167 167 167 167 167 167 167 167 167 167 167 167 167 167 167 167 167 167 167 167 167 167 167 167 167 167 167 167 167 167 167 167 167 167
167 167 167 167 167 167 167 167 167 167 167 167 167 167 167 167 167 167 167 167 167 167 167 167 167 167 167 167 167 167 167 167 167 167 167 167 167 167 167 167 167 167 167 167 167 167 167 167 167 167 167 167 167 167 167 167 167 167 167 167 167 167 167 167
167 167 167 167 167 167 167 167 167 167 167 167 167 167 167 167 167 167 167 167 167 167 167 167 167 167 167 167 167 167 167 167 167 167 167 167 167 167 167 167 167 167 167 167 167 167 167 167 167 167 167 167 167 167 167 167 167 167 167 167 167 167 167 167
