P2
64 64
255
138 138 138 138 138 138 138 138 138 138 138 138 138 138 138 138 138 138 138 138 138 138 138 138 138 138 138 138 138 138 138 138 138 138 138 138 138 138 138 138 138 138 138 138 138 138 138 138 138 138 138 138 138 138 138 138 138 138 138 138 138 138 138 138
138 138 138 138 138 138 138 138 138 138 138 138 138 138 138 138 138 138 138 138 138 138 138 138 138 138 138 138 138 138 138 138 138 138 138 138 138 138 138 138 138 138 138 138 138 138 138 138 138 138 138 138 138 138 138 138 138 138 138 138 138 138 138 138
138 138 138 138 138 138 138 138 138 138 138 138 138 138 138 138 138 138 138 138 138 138 138 138 138 138 138 138 138 138 138 138 138 138 138 138 138 138 138 138 138 138 138 138 138 138 138 138 138 138 138 138 138 138 138 138 138 138 138 138 138 138 138 138
138 138 138 138 138 138 138 138 138 138 138 138 138 138 138 138 138 138 138 138 138 138 138 138 138 138 138 138 138 138 138 138 138 138 138 138 138 138 138 138 138 138 138 138 138 138 138 138 138 138 138 138 138 138 138 138 138 138 138 138 138 138 138 138
138 138 138 138 138 138 138 138 138 138 138 138 138 138 138 138 138 138 138 138 138 138 138 138 138 138 138 138 138 138 138 138 138 138 138 138 138 138 138 138 138 138 138 138 138 138 138 138 138 138 138 138 138 138 138 138 138 138 138 138 138 138 138 138
138 138 138 138 138 138 138 138 138 138 138 138 138 138 138 138 138 138 138 138 138 138 138 138 138 138 138 138 138 138 138 138 138 138 138 138 138 138 138 138 138 138 138 138 138 138 138 138 138 138 138 138 138 138 138 138 138 138 138 138 138 138 138 138
138 138 138 138 138 138 138 138 138 138 138 138 138 138 138 138 138 138 138 138 138 138 138 138 138 138 138 138 138 138 138 138 138 138 138 138 138 138 138 138 138 138 138 138 138 138 138 138 138 138 138 138 138 138 138 138 138 138 138 138 138 138 138 138
138 138 138 138 138 138 138 138 138 138 138 138 138 138 138 138 138 138 138 138 138 138 138 138 138 138 138 138 138 138 138 138 138 138 138 138 138 138 138 138 138 138 138 138 138 138 138 138 138 138 138 138 138 138 138 138 138 138 138 138 138 138 138 138
138 138 138 138 138 138 138 138 138 138 138 138 138 138 138 138 138 138 138 138 138 138 138 138 138 138 138 138 138 138 138 138 138 138 138 138 138 138 138 138 138 138 138 138 138 138 138 137 137 137 138 138 138 138 138 138 138 138 138 138 138 138 138 138
138 138 138 138 138 138 138 138 138 138 138 138 138 138 138 138 138 138 138 138 138 138 138 138 138 138 138 138 138 138 138 138 138 138 138 138 138 138 137 135 133 131 130 127 126 126 124 125 130 135 137 137 138 138 138 138 138 138 138 138 138 138 138 138
138 138 138 138 138 138 138 138 138 138 138 138 138 138 138 138 138 138 138 138 138 138 138 138 138 138 138 138 138 137 137 137 137 137 137 137 136 127 117 105 94 85 77 69 63 60 63 77 98 122 135 137 138 138 138 138 138 138 138 138 138 138 138 138
138 138 138 138 138 138 138 138 138 138 138 138 138 138 138 138 138 138 138 138 138 138 138 138 138 138 138 137 136 132 127 122 116 108 98 89 77 62 48 35 27 18 11 4 2 4 9 27 59 105 128 136 138 138 138 138 138 138 138 138 138 138 138 138
138 138 138 138 138 138 138 138 138 138 138 138 138 138 138 138 138 138 137 137 137 137 137 134 131 127 123 115 106 93 79 65 52 38 23 15 10 6 2 1 0 0 0 1 3 6 13 31 65 107 129 136 138 138 138 138 138 138 138 138 138 138 138 138
138 138 138 138 138 138 138 138 138 138 137 137 137 137 137 137 137 136 132 128 124 119 110 95 79 63 53 45 36 27 18 11 5 1 0 0 0 1 3 7 11 14 21 29 39 49 64 83 108 127 135 137 138 138 138 138 138 138 138 138 138 138 138 138
138 138 138 138 138 138 138 138 137 135 131 125 120 116 112 108 103 94 86 78 68 58 44 26 9 3 2 1 1 0 0 0 0 4 11 19 29 39 52 66 80 91 97 103 109 116 123 130 136 138 138 138 138 138 138 138 138 138 138 138 138 138 138 138
138 138 138 138 138 137 137 131 119 105 90 74 61 50 42 34 30 26 22 17 13 8 3 0 0 2 5 7 10 13 18 27 41 54 68 82 97 108 120 131 136 137 137 137 137 137 137 137 138 138 138 138 138 138 138 138 138 138 138 138 138 138 138 138
138 138 138 138 137 135 117 85 55 37 24 15 9 3 1 1 1 1 1 1 1 1 1 7 17 33 47 59 68 78 90 102 111 117 123 129 133 136 137 138 138 138 138 138 138 138 138 138 138 138 138 138 138 138 138 138 138 138 138 138 138 138 138 138
138 138 138 138 138 120 74 29 5 1 0 0 0 1 5 10 14 18 23 27 31 36 48 62 81 100 113 123 130 136 137 137 137 137 137 137 138 138 138 138 138 138 138 138 138 138 138 138 138 138 138 138 138 138 138 138 138 138 138 138 138 138 138 138
138 138 138 138 136 105 54 7 0 0 5 16 31 45 54 63 72 80 88 97 105 110 114 120 129 134 137 137 137 138 138 138 138 138 138 138 138 138 138 138 138 138 138 138 138 138 138 138 138 138 138 138 138 138 138 138 138 138 138 138 138 138 138 138
138 138 138 138 134 105 54 3 0 3 26 67 105 112 118 122 125 129 133 137 137 137 137 137 137 138 138 138 138 138 138 138 138 138 138 138 138 138 138 138 138 138 138 138 138 138 138 138 138 138 138 138 138 138 138 138 138 138 138 138 138 138 138 138
138 138 138 138 133 110 59 11 1 6 34 90 130 137 137 137 137 137 137 138 138 138 138 138 138 138 138 138 138 138 138 138 138 138 138 138 138 138 138 138 138 138 138 138 138 138 138 138 138 138 138 138 138 138 138 138 138 138 138 138 138 138 138 138
138 138 138 138 134 119 67 20 1 4 22 79 122 137 138 138 138 138 137 138 138 138 138 138 138 138 137 136 137 137 138 138 138 138 137 138 138 138 138 138 138 138 138 138 138 138 138 138 138 138 138 138 138 138 138 138 138 138 138 138 138 138 138 138
138 138 138 138 136 125 78 30 1 1 14 67 113 137 138 138 138 135 132 131 130 129 128 126 125 119 114 112 114 118 123 127 131 132 133 136 137 137 138 138 138 138 138 138 138 138 138 138 138 138 138 138 138 138 138 138 138 138 138 138 138 138 138 138
138 138 138 138 138 127 89 40 2 0 11 54 104 137 137 133 120 106 94 87 83 77 69 62 54 48 45 45 47 53 59 65 74 86 98 106 113 121 130 136 137 137 138 138 138 138 138 138 138 138 138 138 138 138 138 138 138 138 138 138 138 138 138 138
138 138 138 138 138 130 100 49 4 0 9 41 92 121 105 78 54 37 27 22 17 11 4 2 2 1 2 2 4 5 4 3 9 18 29 37 47 61 84 110 123 131 135 137 137 138 138 138 138 138 138 138 138 138 138 138 138 138 138 138 138 138 138 138
138 138 138 138 138 132 111 59 14 1 5 24 62 59 36 16 4 1 0 0 0 0 1 2 4 6 7 7 3 1 1 3 2 1 1 3 5 6 18 41 65 88 109 124 132 137 138 138 138 138 138 138 138 138 138 138 138 138 138 138 138 138 138 138
138 138 138 138 138 134 120 66 21 1 1 8 16 9 2 0 1 7 13 17 18 22 29 38 47 55 62 63 58 49 42 37 33 26 17 9 3 2 2 3 10 23 45 69 95 119 132 136 137 138 138 138 138 138 138 138 138 138 138 138 138 138 138 138
138 138 138 138 137 136 118 68 23 0 0 0 0 2 6 17 34 56 76 90 94 98 103 108 114 120 126 129 127 120 113 108 101 93 82 71 55 37 22 9 2 1 5 14 27 53 86 110 126 135 137 137 138 138 138 138 138 138 138 138 138 138 138 138
138 138 138 138 137 137 117 72 22 0 0 0 3 16 41 70 98 120 133 137 137 137 137 137 137 137 137 138 138 137 137 137 135 133 132 132 121 103 82 59 36 19 7 1 1 5 23 49 79 110 130 136 137 138 138 138 138 138 138 138 138 138 138 138
138 138 138 138 138 137 121 82 26 2 0 2 17 54 97 120 132 137 138 138 138 138 138 138 138 138 138 138 138 138 138 138 138 137 138 138 137 134 129 120 104 81 54 29 12 4 2 8 21 48 87 116 131 137 137 138 138 138 138 138 138 138 138 138
138 138 138 138 138 137 129 104 52 17 9 21 53 99 126 136 137 138 138 138 138 138 138 138 138 138 138 138 138 138 138 138 138 138 138 138 138 138 138 137 135 130 118 97 68 41 18 4 2 8 27 58 93 123 133 137 138 138 138 138 138 138 138 138
138 138 138 138 138 137 136 127 102 76 65 77 105 127 136 137 138 138 138 138 138 138 138 138 138 138 138 138 138 138 138 138 138 138 138 138 138 138 138 138 137 137 137 133 123 103 77 43 17 5 2 10 30 74 110 131 138 138 138 138 138 138 138 138
138 138 138 138 138 138 138 136 132 127 124 126 133 137 137 138 138 138 138 138 138 138 138 138 138 138 138 138 138 138 138 138 138 138 138 138 138 138 138 138 138 138 138 138 137 134 129 108 69 33 8 0 3 28 68 112 136 137 138 138 138 138 138 138
138 138 138 138 138 138 138 138 138 137 137 137 137 138 138 138 138 138 138 138 138 138 138 138 138 138 138 138 138 138 138 138 138 138 138 138 138 138 138 138 138 138 138 138 138 137 137 135 118 85 38 8 1 6 29 81 124 135 138 138 138 138 138 138
138 138 138 138 138 138 138 138 138 138 138 138 138 138 138 138 138 138 138 138 138 138 138 138 138 138 138 138 138 138 138 138 138 138 138 138 138 138 138 138 138 138 138 138 138 138 138 138 135 124 77 29 5 1 8 55 104 130 138 138 138 138 138 138
138 138 138 138 138 138 138 138 138 138 138 138 138 138 138 138 138 138 138 138 138 138 138 138 138 138 138 138 138 138 138 138 138 138 138 138 138 138 138 138 138 138 138 138 138 138 138 138 137 136 101 51 11 0 1 31 78 119 137 137 138 138 138 138
138 138 138 138 138 138 138 138 138 138 138 138 138 138 138 138 138 138 138 138 138 138 138 138 138 138 138 138 138 138 138 138 138 138 138 138 138 138 138 138 138 138 138 138 138 138 138 138 138 137 112 67 15 0 0 15 54 107 135 137 138 138 138 138
138 138 138 138 138 138 138 138 138 138 138 138 138 138 138 138 138 138 138 138 138 138 138 138 138 138 138 138 138 138 138 138 138 138 138 138 138 138 138 138 138 138 138 138 138 138 138 138 138 137 119 75 15 2 0 11 47 109 132 137 138 138 138 138
138 138 138 138 138 138 138 138 138 138 138 138 138 138 138 138 138 138 138 138 138 138 138 138 138 138 138 138 138 138 138 138 138 138 138 138 138 138 138 138 138 138 138 138 138 138 138 138 138 137 126 81 22 2 0 12 56 114 135 138 138 138 138 138
138 138 138 138 138 138 138 138 138 138 138 138 138 138 138 138 138 138 138 138 138 138 138 138 138 138 138 138 138 138 138 138 138 138 138 138 138 138 138 138 138 138 138 138 138 138 138 138 138 137 129 73 23 1 1 7 63 114 137 138 138 138 138 138
138 138 138 138 138 138 138 138 138 138 138 138 138 138 138 138 138 138 138 138 138 138 138 138 138 138 138 138 138 138 138 138 138 138 138 138 138 138 138 138 138 138 138 138 138 138 138 138 137 136 113 56 15 0 0 13 67 114 137 138 138 138 138 138
138 138 138 138 138 138 138 138 138 138 138 138 138 138 138 138 137 137 137 137 138 138 138 138 138 138 138 138 138 138 138 138 138 138 138 138 138 138 138 138 138 138 138 138 138 138 138 137 137 128 86 36 4 0 1 32 85 125 138 138 138 138 138 138
138 138 138 138 138 138 138 138 138 138 138 138 138 138 137 136 132 125 123 126 132 136 138 138 138 138 138 138 138 138 138 138 138 138 138 138 138 138 138 138 138 138 138 138 138 138 138 137 131 100 54 15 0 1 22 70 114 135 137 138 138 138 138 138
138 138 138 138 138 138 138 138 138 138 138 138 138 138 136 127 107 78 67 79 104 127 136 137 138 138 138 138 138 138 138 138 138 138 138 138 138 138 138 138 138 138 138 138 138 137 137 135 112 69 27 2 1 17 62 107 133 137 138 138 138 138 138 138
138 138 138 138 138 138 138 138 138 138 138 138 138 137 132 116 75 33 14 23 58 105 129 137 138 138 138 138 138 138 138 138 138 138 138 138 138 138 138 138 138 138 138 138 137 137 131 112 77 40 14 3 14 52 97 129 137 137 138 138 138 138 138 138
138 138 138 138 138 138 138 138 138 138 138 138 138 137 133 116 68 24 1 4 21 72 113 135 138 138 138 138 138 138 138 138 138 138 138 138 138 138 138 138 138 138 138 137 136 129 101 65 31 10 9 28 61 98 126 137 137 138 138 138 138 138 138 138
138 138 138 138 138 138 138 138 138 138 138 138 138 137 137 126 87 40 4 0 4 40 85 125 137 137 138 138 138 138 138 138 138 138 138 138 138 138 138 138 138 138 138 135 124 93 53 21 4 1 15 56 99 127 137 137 138 138 138 138 138 138 138 138
138 138 138 138 138 138 138 138 138 138 138 138 138 138 138 135 113 72 20 4 1 14 43 88 122 133 137 138 138 138 138 138 138 138 138 138 138 138 137 137 137 136 126 108 75 40 14 2 1 9 46 91 124 137 137 138 138 138 138 138 138 138 138 138
138 138 138 138 138 138 138 138 138 138 138 138 138 138 138 137 130 108 58 21 3 1 6 30 73 106 126 133 135 137 137 137 137 135 134 132 131 128 123 116 105 87 66 42 21 7 1 3 21 58 97 125 136 137 138 138 138 138 138 138 138 138 138 138
138 138 138 138 138 138 138 138 138 138 138 138 138 138 138 138 137 130 98 56 18 0 0 3 20 46 73 86 93 98 104 108 107 104 98 91 83 74 61 46 33 21 10 3 1 2 9 35 77 111 130 137 137 138 138 138 138 138 138 138 138 138 138 138
138 138 138 138 138 138 138 138 138 138 138 138 138 138 138 138 138 137 126 101 61 20 7 3 3 7 14 19 20 21 26 33 35 34 30 23 16 9 2 1 0 0 1 3 11 30 61 98 123 134 137 137 138 138 138 138 138 138 138 138 138 138 138 138
138 138 138 138 138 138 138 138 138 138 138 138 138 138 138 138 138 138 136 131 119 91 62 36 16 4 1 0 0 0 0 0 1 1 0 0 0 0 1 4 10 18 30 46 68 98 121 132 137 138 138 138 138 138 138 138 138 138 138 138 138 138 138 138
138 138 138 138 138 138 138 138 138 138 138 138 138 138 138 138 138 138 137 137 137 133 120 99 72 50 33 20 9 10 13 14 13 12 12 14 15 23 34 45 61 78 95 113 129 136 137 138 138 138 138 138 138 138 138 138 138 138 138 138 138 138 138 138
138 138 138 138 138 138 138 138 138 138 138 138 138 138 138 138 138 138 138 138 138 137 136 133 124 114 106 98 87 81 77 73 72 73 79 86 92 98 105 113 120 127 133 137 138 138 138 138 138 138 138 138 138 138 138 138 138 138 138 138 138 138 138 138
138 138 138 138 138 138 138 138 138 138 138 138 138 138 138 138 138 138 138 138 138 138 137 137 137 136 137 137 136 132 129 127 127 131 136 137 137 137 137 137 137 137 137 138 138 138 138 138 138 138 138 138 138 138 138 138 138 138 138 138 138 138 138 138
138 138 138 138 138 138 138 138 138 138 138 138 138 138 138 138 138 138 138 138 138 138 138 138 138 138 138 138 138 138 137 137 137 137 138 138 138 138 138 138 138 138 138 138 138 138 138 138 138 138 138 138 138 138 138 138 138 138 138 138 138 138 138 138
138 138 138 138 138 138 138 138 138 138 138 138 138 138 138 138 138 138 138 138 138 138 138 138 138 138 138 138 138 138 138 138 138 138 138 138 138 138 138 138 138 138 138 138 138 138 138 138 138 138 138 138 138 138 138 138 138 138 138 138 138 138 138 138
138 138 138 138 138 138 138 138 138 138 138 138 138 138 138 138 138 138 138 138 138 138 138 138 138 138 138 138 138 138 138 138 138 138 138 138 138 138 138 138 138 138 138 138 138 138 138 138 138 138 138 138 138 138 138 138 138 138 138 138 138 138 138 138
138 138 138 138 138 138 138 138 138 138 138 138 138 138 138 138 138 138 138 138 138 138 138 138 138 138 138 138 138 138 138 138 138 138 138 138 138 138 138 138 138 138 138 138 138 138 138 138 138 138 138 138 138 138 138 138 138 138 138 138 138 138 138 138
138 138 138 138 138 138 138 138 138 138 138 138 138 138 138 138 138 138 138 138 138 138 138 138 138 138 138 138 138 138 138 138 138 138 138 138 138 138 138 138 138 138 138 138 138 138 138 138 138 138 138 138 138 138 138 138 138 138 138 138 138 138 138 138
138 138 138 138 138 138 138 138 138 138 138 138 138 138 138 138 138 138 138 138 138 138 138 138 138 138 138 138 138 138 138 138 138 138 138 138 138 138 138 138 138 138 138 138 138 138 138 138 138 138 138 138 138 138 138 138 138 138 138 138 138 138 138 138
138 138 138 138 138 138 138 138 138 138 138 138 138 138 138 138 138 138 138 138 138 138 138 138 138 138 138 138 138 138 138 138 138 138 138 138 138 138 138 138 138 138 138 138 138 138 138 138 138 138 138 138 138 138 138 138 138 138 138 138 138 138 138 138
138 138 138 138 138 138 138 138 138 138 138 138 138 138 138 138 138 138 138 138 138 138 138 138 138 138 138 138 138 138 138 138 138 138 138 138 138 138 138 138 138 138 138 138 138 138 138 138 138 138 138 138 138 138 138 138 138 138 138 138 138 138 138 138
138 138 138 138 138 138 138 138 138 138 138 138 138 138 138 138 138 138 138 138 138 138 138 138 138 138 138 138 138 138 138 138 138 138 138 138 138 138 138 138 138 138 138 138 138 138 138 138 138 138 138 138 138 138 138 138 138 138 138 138 138 138 138 138
