P2
64 64
255
131 131 131 131 131 131 131 131 131 131 131 131 131 131 131 131 131 131 131 131 131 131 131 131 131 131 131 131 131 131 131 131 131 131 131 131 131 131 131 131 131 131 131 131 131 131 131 131 131 131 131 131 131 131 131 131 131 131 131 131 131 131 131 131
131 131 131 131 131 131 131 131 131 131 131 131 131 131 131 131 131 131 131 131 131 131 131 131 131 131 131 131 131 131 131 131 131 131 131 131 131 131 131 131 131 131 131 131 131 131 131 131 131 131 131 131 131 131 131 131 131 131 131 131 131 131 131 131
131 131 131 131 131 131 131 131 131 131 131 131 131 131 131 131 131 131 131 131 131 131 131 131 131 131 131 131 131 131 131 131 131 131 131 131 131 131 131 131 131 131 131 131 131 131 131 131 131 131 131 131 131 131 131 131 131 131 131 131 131 131 131 131
131 131 131 131 131 131 131 131 131 131 131 131 131 131 131 131 131 131 131 131 131 131 131 131 131 131 131 131 131 131 131 131 131 131 131 131 131 131 131 131 131 131 131 131 131 131 131 131 131 131 131 131 131 131 131 131 131 131 131 131 131 131 131 131
131 131 131 131 131 131 131 131 131 131 131 131 131 131 131 131 131 131 131 131 131 131 131 131 131 131 131 131 131 131 131 131 131 131 131 131 131 131 131 131 131 131 131 131 131 131 131 131 131 131 131 131 131 131 131 131 131 131 131 131 131 131 131 131
131 131 131 131 131 131 131 131 131 131 131 131 131 131 131 131 131 131 131 131 131 131 131 131 131 131 131 131 131 131 131 131 131 131 131 131 131 131 131 131 131 131 131 131 131 131 131 131 131 131 131 131 131 131 131 131 131 131 131 131 131 131 131 131
131 131 131 131 131 131 131 131 131 131 131 131 131 131 131 131 131 131 131 131 131 131 131 131 131 131 131 131 131 131 131 131 131 131 131 131 131 131 131 131 131 131 131 131 131 131 131 131 131 131 131 131 131 131 131 131 131 131 131 131 131 131 131 131
131 131 131 131 131 131 131 131 131 131 131 131 131 131 131 131 131 131 131 131 131 131 131 131 131 131 131 131 131 131 131 131 131 131 131 131 131 131 131 131 131 131 131 131 131 131 131 131 131 131 131 131 131 131 131 131 131 131 131 131 131 131 131 131
131 131 131 131 131 131 131 131 131 131 131 131 131 131 131 131 131 131 131 131 131 131 131 131 131 131 131 131 131 131 131 131 131 131 131 131 131 131 131 131 131 131 131 131 131 131 131 131 131 131 131 131 131 131 131 131 131 131 131 131 131 131 131 131
131 131 131 131 131 131 131 131 131 131 131 131 131 131 131 131 131 131 131 131 131 131 131 131 131 131 131 131 131 131 131 131 131 131 131 131 131 131 131 131 131 131 131 131 131 131 131 131 131 131 131 131 131 131 131 131 131 131 131 131 131 131 131 131
131 131 131 131 131 131 131 131 131 131 131 131 131 131 131 131 131 131 131 131 131 131 131 131 131 131 131 131 131 131 131 131 131 131 131 131 131 131 131 131 131 131 131 131 131 131 131 131 131 131 131 131 131 131 131 131 131 131 131 131 131 131 131 131
131 131 131 131 131 131 131 131 131 131 131 131 131 131 131 131 131 131 131 131 131 131 131 130 129 128 128 130 130 131 131 131 131 131 131 131 131 131 131 131 131 131 131 131 131 131 131 131 131 131 131 131 131 131 131 131 131 131 131 131 131 131 131 131
131 131 131 131 131 131 131 131 131 131 131 131 131 131 131 131 131 131 131 131 131 131 131 127 115 105 113 125 130 131 131 131 131 131 131 131 131 131 131 131 131 131 131 131 131 131 131 131 131 131 131 131 131 131 131 131 131 131 131 131 131 131 131 131
131 131 131 131 131 131 131 131 131 131 131 131 131 131 131 131 131 131 131 131 131 131 130 113 73 46 72 112 129 131 131 131 131 131 131 131 131 130 129 128 128 130 130 131 131 131 131 131 131 131 131 131 131 131 131 131 131 131 131 131 131 131 131 131
131 131 131 131 131 131 131 131 131 131 131 131 131 131 131 131 131 131 131 131 131 131 128 95 36 9 38 98 129 131 131 131 131 131 131 131 130 128 117 105 111 124 130 131 131 131 131 131 131 131 131 131 131 131 131 131 131 131 131 131 131 131 131 131
131 131 131 131 131 131 131 131 131 131 131 131 131 131 131 131 131 131 131 131 131 130 125 81 21 1 28 94 130 131 131 131 131 131 131 131 130 119 81 45 63 108 130 131 131 131 131 131 131 131 131 131 131 131 131 131 131 131 131 131 131 131 131 131
131 131 131 131 131 131 131 131 131 131 131 131 131 131 131 131 131 131 131 131 131 130 122 74 15 1 28 97 130 131 131 131 131 131 131 131 130 110 49 8 22 86 130 131 131 131 131 131 131 131 131 131 131 131 131 131 131 131 131 131 131 131 131 131
131 131 131 131 131 131 131 131 131 131 131 131 131 131 131 131 131 131 131 131 131 130 119 67 12 1 31 101 130 131 131 131 131 131 131 131 130 106 40 3 6 68 126 131 131 131 131 131 131 131 131 131 131 131 131 131 131 131 131 131 131 131 131 131
131 131 131 131 131 131 131 131 131 131 131 131 131 131 131 131 131 131 131 131 131 130 117 61 9 1 34 104 130 131 131 131 131 131 131 131 130 110 46 4 1 52 117 130 131 131 131 131 131 131 131 131 131 131 131 131 131 131 131 131 131 131 131 131
131 131 131 131 131 131 131 131 131 131 131 131 131 131 131 131 131 131 131 131 131 130 114 55 6 1 40 107 130 131 131 131 131 131 131 131 130 118 60 6 1 37 103 130 131 131 131 131 131 131 131 131 131 131 131 131 131 131 131 131 131 131 131 131
131 131 131 131 131 131 131 131 131 131 131 131 131 131 131 131 131 131 131 131 131 130 111 49 4 2 46 110 130 131 131 131 131 131 131 131 131 126 78 10 1 24 89 127 131 131 131 131 131 131 131 131 131 131 131 131 131 131 131 131 131 131 131 131
131 131 131 131 131 131 131 131 131 131 131 131 131 131 131 131 131 131 131 131 131 130 110 45 1 5 50 112 130 131 131 131 131 131 131 131 131 130 93 22 0 17 78 123 130 131 131 131 131 131 131 131 131 131 131 131 131 131 131 131 131 131 131 131
131 131 131 131 131 131 131 131 131 131 131 131 131 131 131 131 131 131 131 131 131 130 113 46 1 6 51 113 130 131 131 131 131 131 131 131 131 130 103 32 0 13 70 121 130 131 131 131 131 131 131 131 131 131 131 131 131 131 131 131 131 131 131 131
131 131 131 131 131 131 131 131 131 131 131 131 131 131 131 131 131 131 131 131 131 131 116 49 1 5 49 113 130 131 131 131 131 131 131 131 131 131 110 40 1 8 63 121 130 131 131 131 131 131 131 131 131 131 131 131 131 131 131 131 131 131 131 131
131 131 131 131 131 131 131 131 131 131 131 131 131 131 131 131 131 131 131 131 131 131 117 48 1 6 52 115 130 131 131 131 131 131 131 131 131 130 115 48 3 3 54 120 131 131 131 131 131 131 131 131 131 131 131 131 131 131 131 131 131 131 131 131
131 131 131 131 131 131 131 131 131 131 131 131 131 131 131 131 131 131 131 131 131 131 112 44 1 7 58 119 130 131 131 131 131 131 131 131 131 130 118 60 9 1 41 114 131 131 131 131 131 131 131 131 131 131 131 131 131 131 131 131 131 131 131 131
131 131 131 131 131 131 131 131 131 131 131 131 131 131 131 131 131 131 131 131 131 130 106 39 1 8 64 124 131 131 131 131 131 131 131 131 131 130 123 76 15 0 21 94 129 131 131 131 131 131 131 131 131 131 131 131 131 131 131 131 131 131 131 131
131 131 131 131 131 131 131 131 131 131 131 131 131 131 131 131 131 131 131 131 131 129 102 35 1 9 70 128 131 131 131 131 131 131 131 131 131 131 128 92 24 0 8 75 125 131 131 131 131 131 131 131 131 131 131 131 131 131 131 131 131 131 131 131
131 131 131 131 131 131 131 131 131 131 131 131 131 131 131 131 131 131 131 131 131 129 102 33 1 8 73 129 131 131 131 131 131 131 131 131 131 131 130 105 37 0 6 60 118 130 131 131 131 131 131 131 131 131 131 131 131 131 131 131 131 131 131 131
131 131 131 131 131 131 131 131 131 131 131 131 131 131 131 131 131 131 131 131 131 130 103 34 2 4 68 126 131 131 131 131 131 131 131 131 131 131 131 117 51 1 4 47 111 130 131 131 131 131 131 131 131 131 131 131 131 131 131 131 131 131 131 131
131 131 131 131 131 131 131 131 131 131 131 131 131 131 131 131 131 131 131 131 131 130 105 37 2 2 63 121 131 131 131 131 131 131 131 131 131 131 131 126 65 4 2 37 105 130 131 131 131 131 131 131 131 131 131 131 131 131 131 131 131 131 131 131
131 131 131 131 131 131 131 131 131 131 131 131 131 131 131 131 131 131 131 131 131 130 106 40 2 3 58 117 130 131 131 131 131 131 131 131 131 131 131 129 77 12 0 30 97 128 131 131 131 131 131 131 131 131 131 131 131 131 131 131 131 131 131 131
131 131 131 131 131 131 131 131 131 131 131 131 131 131 131 131 131 131 131 131 131 130 108 42 0 5 55 114 130 131 131 131 131 131 131 131 131 131 131 128 87 22 0 21 86 128 131 131 131 131 131 131 131 131 131 131 131 131 131 131 131 131 131 131
131 131 131 131 131 131 131 131 131 131 131 131 131 131 131 131 131 131 131 131 131 130 110 43 0 7 54 114 130 131 131 131 131 131 131 131 131 131 131 128 96 29 0 13 78 130 131 131 131 131 131 131 131 131 131 131 131 131 131 131 131 131 131 131
131 131 131 131 131 131 131 131 131 131 131 131 131 131 131 131 131 131 131 131 131 131 116 48 1 6 51 114 130 131 131 131 131 131 131 131 131 131 131 129 100 33 1 7 70 127 131 131 131 131 131 131 131 131 131 131 131 131 131 131 131 131 131 131
131 131 131 131 131 131 131 131 131 131 131 131 131 131 131 130 131 131 131 131 130 130 122 53 2 4 50 115 130 130 130 130 130 130 130 130 130 131 131 130 107 41 3 2 56 119 130 131 131 131 131 131 131 131 131 131 131 131 131 131 131 131 131 131
131 131 131 131 131 131 131 131 131 131 131 131 131 131 131 130 129 125 120 113 106 105 99 43 2 1 33 81 87 88 93 97 101 104 111 118 123 127 130 130 113 52 5 1 45 110 130 131 131 131 131 131 131 131 131 131 131 131 131 131 131 131 131 131
131 131 131 131 131 131 131 131 131 131 131 131 131 131 131 129 112 82 59 43 34 36 33 13 0 0 7 16 12 12 19 26 31 34 45 62 76 90 108 122 119 62 4 1 36 104 130 131 131 131 131 131 131 131 131 131 131 131 131 131 131 131 131 131
131 131 131 131 131 131 131 131 131 131 131 131 131 131 130 123 82 27 4 0 0 2 2 0 0 0 0 0 0 0 0 0 1 2 4 10 17 26 41 62 84 62 5 1 28 97 129 131 131 131 131 131 131 131 131 131 131 131 131 131 131 131 131 131
131 131 131 131 131 131 131 131 131 131 131 131 131 131 130 122 80 26 6 2 1 1 1 1 0 0 2 8 9 12 12 9 4 2 1 0 0 0 2 8 22 27 5 0 24 91 127 131 131 131 131 131 131 131 131 131 131 131 131 131 131 131 131 131
131 131 131 131 131 131 131 131 131 131 131 131 131 131 131 128 108 72 48 37 36 46 54 31 4 0 16 52 63 71 76 73 70 64 49 34 25 14 5 1 0 0 0 0 24 88 126 130 131 131 131 131 131 131 131 131 131 131 131 131 131 131 131 131
131 131 131 131 131 131 131 131 131 131 131 131 131 131 131 130 128 119 111 106 105 113 111 61 8 0 29 94 119 122 123 123 123 123 115 104 94 77 56 34 9 0 0 0 28 96 129 131 131 131 131 131 131 131 131 131 131 131 131 131 131 131 131 131
131 131 131 131 131 131 131 131 131 131 131 131 131 131 131 131 131 130 130 130 130 130 119 62 5 1 34 103 130 131 131 131 131 131 130 130 130 129 120 102 56 10 0 1 40 108 130 131 131 131 131 131 131 131 131 131 131 131 131 131 131 131 131 131
131 131 131 131 131 131 131 131 131 131 131 131 131 131 131 131 131 131 131 131 131 131 123 66 2 1 33 103 130 131 131 131 131 131 131 131 131 131 131 129 111 62 25 26 72 120 131 131 131 131 131 131 131 131 131 131 131 131 131 131 131 131 131 131
131 131 131 131 131 131 131 131 131 131 131 131 131 131 131 131 131 131 131 131 131 131 128 72 4 1 30 101 130 131 131 131 131 131 131 131 131 131 131 131 130 118 95 92 113 129 131 131 131 131 131 131 131 131 131 131 131 131 131 131 131 131 131 131
131 131 131 131 131 131 131 131 131 131 131 131 131 131 131 131 131 131 131 131 131 131 130 75 7 1 32 101 129 131 131 131 131 131 131 131 131 131 131 131 131 131 130 128 129 130 131 131 131 131 131 131 131 131 131 131 131 131 131 131 131 131 131 131
131 131 131 131 131 131 131 131 131 131 131 131 131 131 131 131 131 131 131 131 131 131 130 73 10 1 33 101 129 131 131 131 131 131 131 131 131 131 131 131 131 131 131 131 131 131 131 131 131 131 131 131 131 131 131 131 131 131 131 131 131 131 131 131
131 131 131 131 131 131 131 131 131 131 131 131 131 131 131 131 131 131 131 131 131 131 126 70 10 0 31 100 129 131 131 131 131 131 131 131 131 131 131 131 131 131 131 131 131 131 131 131 131 131 131 131 131 131 131 131 131 131 131 131 131 131 131 131
131 131 131 131 131 131 131 131 131 131 131 131 131 131 131 131 131 131 131 131 131 130 122 66 10 0 22 93 130 131 131 131 131 131 131 131 131 131 131 131 131 131 131 131 131 131 131 131 131 131 131 131 131 131 131 131 131 131 131 131 131 131 131 131
131 131 131 131 131 131 131 131 131 131 131 131 131 131 131 131 131 131 131 131 131 130 121 66 10 0 12 84 130 131 131 131 131 131 131 131 131 131 131 131 131 131 131 131 131 131 131 131 131 131 131 131 131 131 131 131 131 131 131 131 131 131 131 131
131 131 131 131 131 131 131 131 131 131 131 131 131 131 131 131 131 131 131 131 131 131 123 75 14 0 11 84 130 131 131 131 131 131 131 131 131 131 131 131 131 131 131 131 131 131 131 131 131 131 131 131 131 131 131 131 131 131 131 131 131 131 131 131
131 131 131 131 131 131 131 131 131 131 131 131 131 131 131 131 131 131 131 131 131 131 126 82 16 0 13 86 129 131 131 131 131 131 131 131 131 131 131 131 131 131 131 131 131 131 131 131 131 131 131 131 131 131 131 131 131 131 131 131 131 131 131 131
131 131 131 131 131 131 131 131 131 131 131 131 131 131 131 131 131 131 131 131 131 131 128 88 19 0 15 84 127 131 131 131 131 131 131 131 131 131 131 131 131 131 131 131 131 131 131 131 131 131 131 131 131 131 131 131 131 131 131 131 131 131 131 131
131 131 131 131 131 131 131 131 131 131 131 131 131 131 131 131 131 131 131 131 131 131 129 98 30 1 23 88 126 131 131 131 131 131 131 131 131 131 131 131 131 131 131 131 131 131 131 131 131 131 131 131 131 131 131 131 131 131 131 131 131 131 131 131
131 131 131 131 131 131 131 131 131 131 131 131 131 131 131 131 131 131 131 131 131 131 131 116 67 33 59 106 128 131 131 131 131 131 131 131 131 131 131 131 131 131 131 131 131 131 131 131 131 131 131 131 131 131 131 131 131 131 131 131 131 131 131 131
131 131 131 131 131 131 131 131 131 131 131 131 131 131 131 131 131 131 131 131 131 131 131 128 115 102 110 124 130 131 131 131 131 131 131 131 131 131 131 131 131 131 131 131 131 131 131 131 131 131 131 131 131 131 131 131 131 131 131 131 131 131 131 131
131 131 131 131 131 131 131 131 131 131 131 131 131 131 131 131 131 131 131 131 131 131 131 131 130 130 131 130 130 131 131 131 131 131 131 131 131 131 131 131 131 131 131 131 131 131 131 131 131 131 131 131 131 131 131 131 131 131 131 131 131 131 131 131
131 131 131 131 131 131 131 131 131 131 131 131 131 131 131 131 131 131 131 131 131 131 131 131 131 131 131 131 131 131 131 131 131 131 131 131 131 131 131 131 131 131 131 131 131 131 131 131 131 131 131 131 131 131 131 131 131 131 131 131 131 131 131 131
131 131 131 131 131 131 131 131 131 131 131 131 131 131 131 131 131 131 131 131 131 131 131 131 131 131 131 131 131 131 131 131 131 131 131 131 131 131 131 131 131 131 131 131 131 131 131 131 131 131 131 131 131 131 131 131 131 131 131 131 131 131 131 131
131 131 131 131 131 131 131 131 131 131 131 131 131 131 131 131 131 131 131 131 131 131 131 131 131 131 131 131 131 131 131 131 131 131 131 131 131 131 131 131 131 131 131 131 131 131 131 131 131 131 131 131 131 131 131 131 131 131 131 131 131 131 131 131
131 131 131 131 131 131 131 131 131 131 131 131 131 131 131 131 131 131 131 131 131 131 131 131 131 131 131 131 131 131 131 131 131 131 131 131 131 131 131 131 131 131 131 131 131 131 131 131 131 131 131 131 131 131 131 131 131 131 131 131 131 131 131 131
131 131 131 131 131 131 131 131 131 131 131 131 131 131 131 131 131 131 131 131 131 131 131 131 131 131 131 131 131 131 131 131 131 131 131 131 131 131 131 131 131 131 131 131 131 131 131 131 131 131 131 131 131 131 131 131 131 131 131 131 131 131 131 131
131 131 131 131 131 131 131 131 131 131 131 131 131 131 131 131 131 131 131 131 131 131 131 131 131 131 131 131 131 131 131 131 131 131 131 131 131 131 131 131 131 131 131 131 131 131 131 131 131 131 131 131 131 131 131 131 131 131 131 131 131 131 131 131
131 131 131 131 131 131 131 131 131 131 131 131 131 131 131 131 131 131 131 131 131 131 131 131 131 131 131 131 131 131 131 131 131 131 131 131 131 131 131 131 131 131 131 131 131 131 131 131 131 131 131 131 131 131 131 131 131 131 131 131 131 131 131 131
