P2
64 64
255
255 255 255 255 255 255 255 255 255 255 255 255 255 255 255 255 255 255 255 255 255 255 255 255 255 255 255 255 255 255 255 255 255 255 255 255 255 255 255 255 255 255 255 255 255 255 255 255 255 255 255 255 255 255 255 255 255 255 255 255 255 255 255 255
255 255 255 255 255 255 255 255 255 255 255 255 255 255 255 255 255 255 255 255 255 255 255 255 255 255 255 255 255 255 255 255 255 255 255 255 255 255 255 255 255 255 255 255 255 255 255 255 255 255 255 255 255 255 255 255 255 255 255 255 255 255 255 255
255 255 255 255 255 255 255 255 255 255 255 255 255 255 255 255 255 255 255 255 255 255 255 255 255 255 255 255 255 255 255 255 255 255 255 255 255 255 255 255 255 255 255 255 255 255 255 255 255 255 255 255 255 255 255 255 255 255 255 255 255 255 255 255
255 255 255 255 255 255 255 255 255 255 255 255 255 255 255 255 255 255 255 255 255 255 255 255 255 255 255 255 255 255 255 255 255 255 255 255 255 255 255 255 255 255 255 255 255 255 255 255 255 255 255 255 255 255 255 255 255 255 255 255 255 255 255 255
255 255 255 255 255 255 255 255 255 255 255 255 255 255 255 255 255 255 255 255 255 255 255 255 255 255 255 255 255 255 255 255 255 255 255 255 255 255 255 255 255 255 255 255 255 255 255 255 255 255 255 255 255 255 255 255 255 255 255 255 255 255 255 255
255 255 255 255 255 255 255 255 255 255 255 255 255 255 255 255 255 255 255 255 255 255 255 255 255 255 255 255 255 255 255 255 255 255 255 255 255 255 255 255 255 255 255 255 255 255 255 255 255 255 255 255 255 255 255 255 255 255 255 255 255 255 255 255
255 255 255 255 255 255 255 255 255 255 255 255 255 255 255 255 255 255 255 255 255 255 255 255 255 255 255 255 255 255 255 255 255 255 255 255 255 255 255 255 255 255 255 255 255 255 255 255 255 255 255 255 255 255 255 255 255 255 255 255 255 255 255 255
255 255 255 255 255 255 255 255 255 255 255 255 255 255 255 255 255 255 255 255 255 255 255 255 255 255 255 255 255 255 255 255 255 255 255 255 255 255 255 255 255 255 255 255 255 255 255 255 255 255 255 255 255 255 255 255 255 255 255 255 255 255 255 255
255 255 255 255 255 255 255 255 255 255 255 255 255 255 255 255 255 255 255 255 255 255 255 255 255 255 255 255 255 255 255 255 255 255 255 255 255 255 255 255 255 255 255 255 255 255 255 255 255 255 255 255 255 255 255 255 255 255 255 255 255 255 255 255
255 255 255 255 255 255 255 255 255 255 255 255 255 255 255 255 255 255 255 255 255 255 255 255 255 255 255 255 255 255 255 255 255 255 255 255 255 255 255 255 255 255 255 255 255 255 255 255 255 255 255 255 255 255 255 255 255 255 255 255 255 255 255 255
255 255 255 255 255 255 255 255 255 255 255 255 255 255 255 255 255 255 255 255 255 255 255 255 255 255 255 255 255 255 255 255 255 255 255 255 255 255 255 255 255 255 255 255 255 255 255 255 255 255 255 255 255 255 255 255 255 255 255 255 255 255 255 255
255 255 255 255 255 255 255 255 255 255 255 255 255 255 255 255 255 252 235 208 200 217 237 236 245 255 255 255 255 255 255 255 255 255 255 255 255 255 255 255 255 255 255 255 255 255 255 255 255 255 255 255 255 255 255 255 255 255 255 255 255 255 255 255
255 255 255 255 255 255 255 255 255 255 255 255 255 255 255 255 211 149 96 74 62 70 97 104 100 122 177 240 255 255 255 255 255 255 255 255 255 255 255 255 255 255 255 255 255 255 255 255 255 255 255 255 255 255 255 255 255 255 255 255 255 255 255 255
255 255 255 255 255 255 255 255 255 255 255 255 255 255 254 189 104 40 3 2 4 6 9 13 9 7 56 129 209 255 255 255 255 255 255 255 255 255 255 255 255 255 255 255 255 255 255 255 255 255 255 255 255 255 255 255 255 255 255 255 255 255 255 255
255 255 255 255 255 255 255 255 255 255 255 255 255 243 167 77 22 4 1 15 26 21 20 12 2 0 10 36 87 155 208 255 255 255 255 255 255 255 255 255 255 255 255 255 255 255 255 255 255 255 255 255 255 255 255 255 255 255 255 255 255 255 255 255
255 255 255 255 255 255 255 255 255 255 255 255 251 169 67 10 2 10 35 96 135 143 127 100 58 21 20 14 11 40 90 156 221 253 255 255 255 255 255 255 255 255 255 255 255 255 255 255 255 255 255 255 255 255 255 255 255 255 255 255 255 255 255 255
255 255 255 255 255 255 255 255 255 255 255 255 197 89 21 2 21 72 155 218 249 255 255 234 204 158 108 55 9 3 15 46 96 156 223 255 255 255 255 255 255 255 255 255 255 255 255 255 255 255 255 255 255 255 255 255 255 255 255 255 255 255 255 255
255 255 255 255 255 255 255 255 255 255 255 226 120 37 5 15 81 175 255 255 255 255 255 255 255 255 225 157 78 39 16 7 12 40 114 190 242 255 255 255 255 255 255 255 255 255 255 255 255 255 255 255 255 255 255 255 255 255 255 255 255 255 255 255
255 255 255 255 255 255 255 255 255 255 250 160 55 7 9 66 167 249 255 255 255 255 255 255 255 255 255 250 206 147 83 26 7 5 30 72 140 218 255 255 255 255 255 255 255 255 255 255 255 255 255 255 255 255 255 255 255 255 255 255 255 255 255 255
255 255 255 255 255 255 255 255 255 255 207 91 16 10 50 143 238 255 255 255 255 255 255 255 255 255 255 255 255 255 197 122 57 18 4 3 37 104 183 250 255 255 255 255 255 255 255 255 255 255 255 255 255 255 255 255 255 255 255 255 255 255 255 255
255 255 255 255 255 255 255 255 255 249 144 40 6 27 103 220 255 255 255 255 255 255 255 255 255 255 255 255 255 255 255 231 169 92 37 7 3 22 64 150 216 255 255 255 255 255 255 255 255 255 255 255 255 255 255 255 255 255 255 255 255 255 255 255
255 255 255 255 255 255 255 255 255 195 89 19 14 64 178 255 255 255 255 255 255 255 255 255 255 255 255 255 255 255 255 255 255 208 137 55 10 3 7 45 106 185 255 255 255 255 255 255 255 255 255 255 255 255 255 255 255 255 255 255 255 255 255 255
255 255 255 255 255 255 255 255 241 139 37 4 39 129 231 255 255 255 255 255 255 255 255 255 255 255 255 255 255 255 255 255 255 255 246 167 92 39 5 6 23 99 187 255 255 255 255 255 255 255 255 255 255 255 255 255 255 255 255 255 255 255 255 255
255 255 255 255 255 255 255 255 209 84 16 6 62 171 255 255 255 255 255 255 255 255 255 255 255 255 255 255 255 255 255 255 255 255 255 255 209 140 63 28 19 50 127 233 255 255 255 255 255 255 255 255 255 255 255 255 255 255 255 255 255 255 255 255
255 255 255 255 255 255 255 255 169 60 7 14 81 210 255 255 255 255 255 255 255 255 255 255 255 255 255 255 255 255 255 255 255 255 255 255 255 243 186 117 64 49 123 223 255 255 255 255 255 255 255 255 255 255 255 255 255 255 255 255 255 255 255 255
255 255 255 255 255 255 255 248 146 37 1 11 110 224 255 255 255 255 255 255 255 255 255 255 255 255 255 255 255 255 255 255 255 255 255 255 255 255 255 224 169 163 201 249 255 255 255 255 255 255 255 255 255 255 255 255 255 255 255 255 255 255 255 255
255 255 255 255 255 255 255 242 124 21 2 31 127 244 255 255 255 255 255 255 255 255 255 255 255 255 255 255 255 255 255 255 255 255 255 255 255 255 255 255 255 253 255 255 255 255 255 255 255 255 255 255 255 255 255 255 255 255 255 255 255 255 255 255
255 255 255 255 255 255 255 229 105 22 3 30 146 254 255 255 255 255 255 255 255 255 255 255 255 255 255 255 255 255 255 255 255 255 255 255 255 255 255 255 255 255 255 255 255 255 255 255 255 255 255 255 255 255 255 255 255 255 255 255 255 255 255 255
255 255 255 255 255 255 255 211 93 7 0 43 160 254 255 255 255 255 255 255 255 255 255 255 255 255 255 255 255 255 255 255 255 255 255 255 255 255 255 255 255 255 255 255 255 255 255 255 255 255 255 255 255 255 255 255 255 255 255 255 255 255 255 255
255 255 255 255 255 255 255 208 77 13 4 55 166 255 255 255 255 255 255 255 255 255 255 255 255 255 255 255 255 255 255 255 255 255 255 255 255 255 255 255 255 255 255 255 255 255 255 255 255 255 255 255 255 255 255 255 255 255 255 255 255 255 255 255
255 255 255 255 255 255 255 190 74 11 9 53 178 255 255 255 255 255 255 255 255 255 255 255 255 255 255 255 255 255 255 255 255 255 255 255 255 255 255 255 255 255 255 255 255 255 255 255 255 255 255 255 255 255 255 255 255 255 255 255 255 255 255 255
255 255 255 255 255 255 255 189 73 2 2 58 168 255 255 255 255 255 255 255 255 255 255 255 255 255 255 255 255 255 255 255 255 255 255 255 252 235 242 241 250 255 255 255 255 255 255 255 255 255 255 255 255 255 255 255 255 255 255 255 255 255 255 255
255 255 255 255 255 255 255 202 74 14 4 50 161 255 255 255 255 255 255 255 255 255 255 255 255 255 255 255 255 255 255 255 255 231 194 161 125 93 78 97 120 150 173 183 208 246 255 255 255 255 255 255 255 255 255 255 255 255 255 255 255 255 255 255
255 255 255 255 255 255 255 194 82 11 5 41 166 254 255 255 255 255 255 255 255 255 255 255 255 255 255 255 255 255 246 204 151 97 50 12 13 11 3 3 12 35 37 49 66 108 198 251 255 255 255 255 255 255 255 255 255 255 255 255 255 255 255 255
255 255 255 255 255 255 255 200 82 4 1 50 152 251 255 255 255 255 255 255 255 255 255 255 255 255 255 255 255 223 147 70 24 9 3 0 1 0 0 5 11 12 5 1 2 11 78 160 243 255 255 255 255 255 255 255 255 255 255 255 255 255 255 255
255 255 255 255 255 255 255 220 93 21 1 31 127 248 255 255 255 255 255 255 255 255 255 255 255 255 255 243 185 109 46 10 0 2 6 14 47 56 47 63 89 93 47 27 9 1 15 60 166 246 255 255 255 255 255 255 255 255 255 255 255 255 255 255
255 255 255 255 255 255 255 232 125 27 0 5 101 215 255 255 255 255 255 255 255 255 255 255 255 255 235 144 50 16 3 1 16 60 110 157 185 202 214 211 227 232 189 129 61 3 0 13 77 172 255 255 255 255 255 255 255 255 255 255 255 255 255 255
255 255 255 255 255 255 255 255 166 38 4 4 63 181 255 255 255 255 255 255 255 255 255 255 255 255 160 54 3 0 4 28 100 177 237 255 255 255 255 255 255 255 255 249 157 61 12 2 19 91 204 255 255 255 255 255 255 255 255 255 255 255 255 255
255 255 255 255 255 255 255 255 197 79 6 2 19 147 250 255 255 255 255 255 255 255 255 255 255 201 82 13 0 3 36 118 211 255 255 255 255 255 255 255 255 255 255 255 235 150 46 2 1 48 140 237 255 255 255 255 255 255 255 255 255 255 255 255
255 255 255 255 255 255 255 255 232 120 6 1 18 103 215 255 255 255 255 255 255 255 255 255 246 139 29 0 0 22 107 217 255 255 255 255 255 255 255 255 255 255 255 255 255 220 101 27 1 16 74 198 255 255 255 255 255 255 255 255 255 255 255 255
255 255 255 255 255 255 255 255 255 157 50 3 9 50 175 255 255 255 255 255 255 255 255 255 225 90 11 0 3 63 183 255 255 255 255 255 255 255 255 255 255 255 255 255 255 245 150 43 0 0 37 138 238 255 255 255 255 255 255 255 255 255 255 255
255 255 255 255 255 255 255 255 255 199 91 4 0 24 118 221 255 255 255 255 255 255 255 255 192 62 6 0 15 115 238 255 255 255 255 255 255 255 255 255 255 255 255 255 255 255 190 55 9 0 24 106 243 255 255 255 255 255 255 255 255 255 255 255
255 255 255 255 255 255 255 255 255 248 137 37 2 10 56 165 255 255 255 255 255 255 255 254 152 38 0 1 56 181 255 255 255 255 255 255 255 255 255 255 255 255 255 255 255 255 212 97 13 0 4 106 228 255 255 255 255 255 255 255 255 255 255 255
255 255 255 255 255 255 255 255 255 255 193 89 10 0 10 89 183 255 255 255 255 255 255 226 106 7 0 18 103 225 255 255 255 255 255 255 255 255 255 255 255 255 255 255 255 255 242 133 12 1 13 98 217 255 255 255 255 255 255 255 255 255 255 255
255 255 255 255 255 255 255 255 255 255 251 160 52 12 2 27 83 178 251 255 255 255 255 201 65 5 0 27 127 255 255 255 255 255 255 255 255 255 255 255 255 255 255 255 255 255 255 151 45 2 15 83 218 255 255 255 255 255 255 255 255 255 255 255
255 255 255 255 255 255 255 255 255 255 255 226 135 52 3 0 13 70 152 241 255 255 255 177 61 0 1 36 161 255 255 255 255 255 255 255 255 255 255 255 255 255 255 255 255 255 255 161 47 1 5 89 209 255 255 255 255 255 255 255 255 255 255 255
255 255 255 255 255 255 255 255 255 255 255 255 231 131 43 7 0 13 52 168 251 255 255 183 49 4 3 60 174 255 255 255 255 255 255 255 255 255 255 255 255 255 255 255 255 255 255 163 33 3 13 88 210 255 255 255 255 255 255 255 255 255 255 255
255 255 255 255 255 255 255 255 255 255 255 255 255 216 121 31 0 0 13 84 175 250 255 175 61 7 11 66 198 255 255 255 255 255 255 255 255 255 255 255 255 255 255 255 255 255 255 149 46 3 19 98 225 255 255 255 255 255 255 255 255 255 255 255
255 255 255 255 255 255 255 255 255 255 255 255 255 255 219 107 39 7 2 21 71 147 189 140 52 1 5 86 207 255 255 255 255 255 255 255 255 255 255 255 255 255 255 255 255 255 218 118 33 6 44 149 244 255 255 255 255 255 255 255 255 255 255 255
255 255 255 255 255 255 255 255 255 255 255 255 255 255 255 215 134 54 3 5 14 38 67 73 19 1 14 95 214 255 255 255 255 255 255 255 255 255 255 255 255 255 255 255 255 219 139 56 12 24 99 206 255 255 255 255 255 255 255 255 255 255 255 255
255 255 255 255 255 255 255 255 255 255 255 255 255 255 255 255 238 161 91 47 16 2 2 11 2 0 14 73 203 255 255 255 255 255 255 255 255 255 255 255 255 255 255 226 164 93 44 13 6 50 155 255 255 255 255 255 255 255 255 255 255 255 255 255
255 255 255 255 255 255 255 255 255 255 255 255 255 255 255 255 255 253 218 156 80 24 3 0 0 0 0 47 150 241 255 255 255 255 255 255 255 255 255 255 235 202 163 108 48 4 2 3 19 103 211 255 255 255 255 255 255 255 255 255 255 255 255 255
255 255 255 255 255 255 255 255 255 255 255 255 255 255 255 255 255 255 255 255 194 112 33 0 0 0 0 20 81 183 242 255 255 241 225 221 202 186 177 154 110 62 29 15 4 0 16 50 110 194 255 255 255 255 255 255 255 255 255 255 255 255 255 255
255 255 255 255 255 255 255 255 255 255 255 255 255 255 255 255 255 255 255 255 255 232 134 63 20 2 0 1 31 82 125 150 149 109 80 63 64 50 27 28 18 5 0 2 5 18 86 158 225 255 255 255 255 255 255 255 255 255 255 255 255 255 255 255
255 255 255 255 255 255 255 255 255 255 255 255 255 255 255 255 255 255 255 255 255 255 249 194 124 49 35 26 18 20 28 24 18 13 7 0 1 1 0 1 2 3 19 56 98 151 207 253 255 255 255 255 255 255 255 255 255 255 255 255 255 255 255 255
255 255 255 255 255 255 255 255 255 255 255 255 255 255 255 255 255 255 255 255 255 255 255 255 245 203 161 131 87 39 14 2 0 0 0 2 19 27 22 37 62 93 134 180 225 255 255 255 255 255 255 255 255 255 255 255 255 255 255 255 255 255 255 255
255 255 255 255 255 255 255 255 255 255 255 255 255 255 255 255 255 255 255 255 255 255 255 255 255 255 255 251 210 144 92 49 28 39 45 62 108 147 165 172 192 226 255 255 255 255 255 255 255 255 255 255 255 255 255 255 255 255 255 255 255 255 255 255
255 255 255 255 255 255 255 255 255 255 255 255 255 255 255 255 255 255 255 255 255 255 255 255 255 255 255 255 255 251 220 195 174 169 186 216 238 255 255 255 255 255 255 255 255 255 255 255 255 255 255 255 255 255 255 255 255 255 255 255 255 255 255 255
255 255 255 255 255 255 255 255 255 255 255 255 255 255 255 255 255 255 255 255 255 255 255 255 255 255 255 255 255 255 255 255 255 255 255 255 255 255 255 255 255 255 255 255 255 255 255 255 255 255 255 255 255 255 255 255 255 255 255 255 255 255 255 255
255 255 255 255 255 255 255 255 255 255 255 255 255 255 255 255 255 255 255 255 255 255 255 255 255 255 255 255 255 255 255 255 255 255 255 255 255 255 255 255 255 255 255 255 255 255 255 255 255 255 255 255 255 255 255 255 255 255 255 255 255 255 255 255
255 255 255 255 255 255 255 255 255 255 255 255 255 255 255 255 255 255 255 255 255 255 255 255 255 255 255 255 255 255 255 255 255 255 255 255 255 255 255 255 255 255 255 255 255 255 255 255 255 255 255 255 255 255 255 255 255 255 255 255 255 255 255 255
255 255 255 255 255 255 255 255 255 255 255 255 255 255 255 255 255 255 255 255 255 255 255 255 255 255 255 255 255 255 255 255 255 255 255 255 255 255 255 255 255 255 255 255 255 255 255 255 255 255 255 255 255 255 255 255 255 255 255 255 255 255 255 255
255 255 255 255 255 255 255 255 255 255 255 255 255 255 255 255 255 255 255 255 255 255 255 255 255 255 255 255 255 255 255 255 255 255 255 255 255 255 255 255 255 255 255 255 255 255 255 255 255 255 255 255 255 255 255 255 255 255 255 255 255 255 255 255
255 255 255 255 255 255 255 255 255 255 255 255 255 255 255 255 255 255 255 255 255 255 255 255 255 255 255 255 255 255 255 255 255 255 255 255 255 255 255 255 255 255 255 255 255 255 255 255 255 255 255 255 255 255 255 255 255 255 255 255 255 255 255 255
