P2
64 64
255
230 230 230 230 230 230 230 230 230 230 230 230 230 230 230 230 230 230 230 230 230 230 230 230 230 230 230 230 230 230 230 230 230 230 230 230 230 230 230 230 230 230 230 230 230 230 230 230 230 230 230 230 230 230 230 230 230 230 230 230 230 230 230 230
230 230 230 230 230 230 230 230 230 230 230 230 230 230 230 230 230 230 230 230 230 230 230 230 230 230 230 230 230 230 230 230 230 230 230 230 230 230 230 230 230 230 230 230 230 230 230 230 230 230 230 230 230 230 230 230 230 230 230 230 230 230 230 230
230 230 230 230 230 230 230 230 230 230 230 230 230 230 230 230 230 230 230 230 230 230 230 230 230 230 230 230 230 230 230 230 230 230 230 230 230 230 230 230 230 230 230 230 230 230 230 230 230 230 230 230 230 230 230 230 230 230 230 230 230 230 230 230
230 230 230 230 230 230 230 230 230 230 230 230 230 230 230 230 230 230 230 230 230 230 230 230 230 230 230 230 230 230 230 230 230 230 230 230 230 230 230 230 230 230 230 230 230 230 230 230 230 230 230 230 230 230 230 230 230 230 230 230 230 230 230 230
230 230 230 230 230 230 230 230 230 230 230 230 230 230 230 230 230 230 230 230 230 230 230 230 230 230 230 230 230 230 230 230 230 230 230 230 230 230 230 230 230 230 230 230 230 230 230 230 230 230 230 230 230 230 230 230 230 230 230 230 230 230 230 230
230 230 230 230 230 230 230 230 230 230 230 230 230 230 230 230 230 230 230 230 230 230 230 230 230 230 230 230 230 230 230 230 230 230 230 230 230 230 230 230 230 230 230 230 230 230 230 230 230 230 230 230 230 230 230 230 230 230 230 230 230 230 230 230
230 230 230 230 230 230 230 230 230 230 230 230 230 230 230 230 230 230 230 230 230 230 230 230 230 230 230 230 230 230 230 230 230 230 230 230 230 230 230 230 230 230 230 230 230 230 230 230 230 230 230 230 230 230 230 230 230 230 230 230 230 230 230 230
230 230 230 230 230 230 230 230 230 230 230 230 230 230 230 230 230 230 230 230 230 230 230 230 230 230 230 230 230 230 230 230 230 230 230 230 230 230 230 230 230 230 230 230 230 230 230 230 230 230 230 230 230 230 230 230 230 230 230 230 230 230 230 230
230 230 230 230 230 230 230 230 230 230 230 230 230 230 230 230 230 230 230 230 230 230 230 230 230 230 230 230 230 230 230 230 230 230 230 230 230 230 230 230 230 230 230 230 230 230 230 230 230 230 230 230 230 230 230 230 230 230 230 230 230 230 230 230
230 230 230 230 230 230 230 230 230 230 230 230 230 230 230 230 230 230 230 230 230 230 230 230 230 227 225 221 219 218 219 223 229 230 230 230 230 230 230 230 229 230 230 230 230 230 230 230 230 230 230 230 230 230 230 230 230 230 230 230 230 230 230 230
230 230 230 230 230 230 230 230 230 230 230 230 230 230 230 230 230 230 230 230 229 225 216 201 181 163 154 151 149 149 151 158 171 180 185 193 203 215 221 218 211 209 215 221 226 230 230 230 230 230 230 230 230 230 230 230 230 230 230 230 230 230 230 230
230 230 230 230 230 230 230 230 230 230 230 230 230 230 230 230 230 230 230 226 212 184 139 87 53 41 41 42 44 45 46 48 54 61 76 93 115 143 159 152 133 115 115 137 170 199 220 228 230 230 230 230 230 230 230 230 230 230 230 230 230 230 230 230
230 230 230 230 230 230 230 230 230 230 230 230 230 230 230 230 229 226 218 192 151 96 37 3 0 1 2 1 0 0 0 1 1 1 6 14 25 40 52 41 23 7 4 19 57 105 155 197 220 228 230 230 230 230 230 230 230 230 230 230 230 230 230 230
230 230 230 230 230 230 230 230 230 230 230 230 230 230 230 229 217 191 152 105 66 28 3 0 0 0 5 13 20 24 22 18 11 5 1 0 0 0 1 0 0 0 0 0 5 20 56 107 165 208 225 230 230 230 230 230 230 230 230 230 230 230 230 230
230 230 230 230 230 230 230 230 230 230 230 230 230 230 228 216 170 110 58 26 19 20 23 28 37 57 86 106 115 115 107 97 86 72 57 43 27 13 5 1 0 0 0 0 0 0 6 27 72 144 201 225 230 230 230 230 230 230 230 230 230 230 230 230
230 230 230 230 230 230 230 230 230 230 230 230 230 226 209 165 86 33 9 8 23 66 102 131 159 189 203 207 207 204 201 196 191 184 176 159 131 104 78 57 36 19 8 0 0 0 0 0 15 59 139 200 226 230 230 230 230 230 230 230 230 230 230 230
230 230 230 230 230 230 230 230 230 230 230 230 230 211 161 86 16 3 3 28 78 146 190 214 227 230 230 230 230 230 230 230 230 230 230 228 219 205 188 165 137 105 74 43 18 9 2 0 0 12 54 141 202 227 230 230 230 230 230 230 230 230 230 230
230 230 230 230 230 230 230 230 230 230 230 230 229 180 102 32 0 0 28 88 156 211 226 230 230 230 230 230 230 230 230 230 230 230 230 230 230 230 228 222 213 200 183 166 144 108 56 14 1 0 14 67 161 213 230 230 230 230 230 230 230 230 230 230
230 230 230 230 230 230 230 230 230 230 230 230 223 150 57 8 0 7 76 158 209 229 230 230 230 230 230 230 230 230 230 230 230 230 230 230 230 230 230 230 230 230 230 229 227 203 145 54 11 0 3 27 110 191 224 230 230 230 230 230 230 230 230 230
230 230 230 230 230 230 230 230 230 230 230 230 209 130 35 3 2 27 116 199 226 230 230 230 230 230 230 230 230 230 230 230 230 230 230 230 230 230 230 230 230 230 230 230 230 226 189 105 21 2 0 16 71 173 217 230 230 230 230 230 230 230 230 230
230 230 230 230 230 230 230 230 230 230 230 229 195 113 17 1 4 46 139 219 230 230 230 230 230 230 230 230 230 230 230 230 230 230 230 230 230 230 230 230 230 230 230 230 230 230 200 129 31 4 0 17 68 167 217 230 230 230 230 230 230 230 230 230
230 230 230 230 230 230 230 230 230 230 230 229 182 99 9 0 4 60 151 228 230 230 230 230 230 230 230 230 230 230 230 230 230 230 230 230 230 230 230 230 230 230 230 230 230 230 197 126 40 1 0 27 91 178 226 230 230 230 230 230 230 230 230 230
230 230 230 230 230 230 230 230 230 230 230 230 177 94 16 0 3 67 153 222 230 230 230 230 230 230 230 230 230 230 230 230 230 230 230 230 230 230 230 230 230 230 230 230 230 230 185 106 34 0 0 44 120 193 230 230 230 230 230 230 230 230 230 230
230 230 230 230 230 230 230 230 230 230 230 230 180 96 25 0 2 65 150 212 230 230 230 230 230 230 230 230 230 230 230 230 230 230 230 230 230 230 230 230 230 230 230 230 230 224 164 76 19 0 6 66 149 206 230 230 230 230 230 230 230 230 230 230
230 230 230 230 230 230 230 230 230 230 230 225 187 99 31 0 6 56 144 205 230 230 230 230 230 230 230 230 230 230 230 230 230 230 230 230 230 230 230 230 230 230 230 230 228 209 142 50 10 0 20 90 178 218 230 230 230 230 230 230 230 230 230 230
230 230 230 230 230 230 230 230 230 230 230 223 197 105 33 1 9 44 142 204 230 230 230 230 230 230 230 230 230 230 230 230 230 230 230 230 230 230 230 230 230 230 230 230 221 182 105 23 4 3 40 120 202 224 230 230 230 230 230 230 230 230 230 230
230 230 230 230 230 230 230 230 230 230 230 226 201 115 30 2 6 39 135 206 229 230 230 230 230 230 230 230 230 230 230 230 230 230 230 230 230 230 230 230 230 230 230 229 199 134 59 4 0 16 74 153 219 229 230 230 230 230 230 230 230 230 230 230
230 230 230 230 230 230 230 230 230 230 230 229 199 124 29 4 3 40 127 210 227 230 230 230 230 230 230 230 230 230 230 230 230 230 230 230 230 230 230 230 230 229 223 208 147 74 21 0 2 46 123 189 226 230 230 230 230 230 230 230 230 230 230 230
230 230 230 230 230 230 230 230 230 230 230 230 198 128 35 5 1 40 117 206 226 230 230 230 230 230 230 230 230 230 230 230 230 230 230 230 230 230 230 230 230 218 187 139 72 24 4 6 28 100 178 216 230 230 230 230 230 230 230 230 230 230 230 230
230 230 230 230 230 230 230 230 230 230 230 230 209 144 57 1 0 28 96 182 228 230 230 230 230 230 230 230 230 230 230 230 230 230 230 230 230 230 230 226 213 163 106 56 18 5 9 38 93 169 217 228 230 230 230 230 230 230 230 230 230 230 230 230
230 230 230 230 230 230 230 230 230 230 230 230 222 168 84 9 0 9 57 133 203 225 230 230 230 230 230 230 230 230 230 230 230 230 230 230 230 229 220 194 140 65 28 9 5 18 56 114 171 214 230 230 230 230 230 230 230 230 230 230 230 230 230 230
230 230 230 230 230 230 230 230 230 230 230 230 229 197 118 36 0 0 16 57 115 173 211 225 230 230 230 230 230 230 230 230 230 230 230 230 227 212 176 118 48 3 1 1 23 70 140 191 218 229 230 230 230 230 230 230 230 230 230 230 230 230 230 230
230 230 230 230 230 230 230 230 230 230 230 230 230 221 163 79 14 0 0 6 26 63 115 164 195 211 221 224 227 229 229 230 230 229 224 211 189 149 96 45 9 0 0 17 74 144 207 226 230 230 230 230 230 230 230 230 230 230 230 230 230 230 230 230
230 230 230 230 230 230 230 230 230 230 230 230 230 230 209 148 74 19 1 0 0 4 19 47 75 98 122 146 173 192 202 206 205 188 161 130 96 57 28 13 9 15 38 90 153 202 228 230 230 230 230 230 230 230 230 230 230 230 230 230 230 230 230 230
230 230 230 230 230 230 230 230 230 230 230 230 230 230 228 210 160 94 36 9 1 0 0 0 3 11 22 38 60 86 99 97 82 58 43 31 20 10 8 29 63 104 149 188 212 225 230 230 230 230 230 230 230 230 230 230 230 230 230 230 230 230 230 230
230 230 230 230 230 230 230 230 230 230 230 230 230 230 230 226 192 130 63 16 3 0 0 0 0 0 0 0 3 9 11 6 0 0 1 0 1 12 39 92 155 198 221 226 229 230 230 230 230 230 230 230 230 230 230 230 230 230 230 230 230 230 230 230
230 230 230 230 230 230 230 230 230 230 230 230 230 225 212 182 120 67 28 7 0 0 0 1 0 0 0 0 0 0 0 0 0 0 0 0 1 21 68 140 203 224 230 230 230 230 230 230 230 230 230 230 230 230 230 230 230 230 230 230 230 230 230 230
230 230 230 230 230 230 230 230 230 230 230 229 219 192 148 88 36 14 6 8 18 29 36 41 44 50 57 59 57 51 40 21 6 0 0 0 0 9 43 101 170 211 227 230 230 230 230 230 230 230 230 230 230 230 230 230 230 230 230 230 230 230 230 230
230 230 230 230 230 230 230 230 230 230 227 214 170 108 56 19 4 9 31 64 99 130 152 171 189 201 192 179 169 158 142 108 59 26 5 5 4 2 11 38 88 153 202 225 230 230 230 230 230 230 230 230 230 230 230 230 230 230 230 230 230 230 230 230
230 230 230 230 230 230 230 230 230 230 212 169 87 29 7 1 14 51 115 161 192 214 226 229 230 230 229 226 223 221 216 203 175 147 124 96 65 28 9 7 21 57 131 196 224 230 230 230 230 230 230 230 230 230 230 230 230 230 230 230 230 230 230 230
230 230 230 230 230 230 230 230 230 224 184 115 35 2 0 10 49 125 196 217 227 230 230 230 230 230 230 230 230 230 230 230 228 224 220 202 161 102 38 8 0 9 48 142 206 229 230 230 230 230 230 230 230 230 230 230 230 230 230 230 230 230 230 230
230 230 230 230 230 230 230 230 227 208 140 67 13 1 10 55 124 192 227 230 230 230 230 230 230 230 230 230 230 230 230 230 230 230 230 229 214 172 89 21 1 0 18 86 185 222 230 230 230 230 230 230 230 230 230 230 230 230 230 230 230 230 230 230
230 230 230 230 230 230 230 230 219 182 96 32 3 9 40 123 190 224 230 230 230 230 230 230 230 230 230 230 230 230 230 230 230 230 230 230 230 207 146 50 10 0 13 59 160 212 229 230 230 230 230 230 230 230 230 230 230 230 230 230 230 230 230 230
230 230 230 230 230 230 230 230 209 156 66 15 0 20 73 167 215 230 230 230 230 230 230 230 230 230 230 230 230 230 230 230 230 230 230 230 230 221 182 101 25 4 6 43 124 202 225 230 230 230 230 230 230 230 230 230 230 230 230 230 230 230 230 230
230 230 230 230 230 230 230 230 202 138 53 6 1 30 95 182 224 230 230 230 230 230 230 230 230 230 230 230 230 230 230 230 230 230 230 230 230 229 198 132 42 7 1 34 104 191 222 230 230 230 230 230 230 230 230 230 230 230 230 230 230 230 230 230
230 230 230 230 230 230 230 230 195 124 46 1 1 38 112 190 230 230 230 230 230 230 230 230 230 230 230 230 230 230 230 230 230 230 230 230 230 230 198 130 48 2 1 36 105 187 228 230 230 230 230 230 230 230 230 230 230 230 230 230 230 230 230 230
230 230 230 230 230 230 230 229 195 116 42 0 0 41 123 194 230 230 230 230 230 230 230 230 230 230 230 230 230 230 230 230 230 230 230 230 230 230 190 114 39 1 1 43 120 192 230 230 230 230 230 230 230 230 230 230 230 230 230 230 230 230 230 230
230 230 230 230 230 230 230 226 203 117 41 1 4 35 127 197 230 230 230 230 230 230 230 230 230 230 230 230 230 230 230 230 230 230 230 230 230 225 177 91 28 0 5 55 139 202 230 230 230 230 230 230 230 230 230 230 230 230 230 230 230 230 230 230
230 230 230 230 230 230 230 226 205 119 37 2 6 34 130 202 230 230 230 230 230 230 230 230 230 230 230 230 230 230 230 230 230 230 230 230 230 214 160 66 18 0 15 71 162 211 230 230 230 230 230 230 230 230 230 230 230 230 230 230 230 230 230 230
230 230 230 230 230 230 230 228 202 125 31 3 4 36 127 206 228 230 230 230 230 230 230 230 230 230 230 230 230 230 230 230 230 230 230 230 229 203 140 45 9 1 28 94 184 220 230 230 230 230 230 230 230 230 230 230 230 230 230 230 230 230 230 230
230 230 230 230 230 230 230 229 202 133 36 6 1 37 115 205 225 230 230 230 230 230 230 230 230 230 230 230 230 230 230 230 230 230 230 229 221 177 104 23 2 2 46 120 201 225 230 230 230 230 230 230 230 230 230 230 230 230 230 230 230 230 230 230
230 230 230 230 230 230 230 230 207 147 57 7 0 28 93 181 222 230 230 230 230 230 230 230 230 230 230 230 230 230 230 230 230 230 226 216 182 119 53 6 0 9 76 155 216 230 230 230 230 230 230 230 230 230 230 230 230 230 230 230 230 230 230 230
230 230 230 230 230 230 230 230 217 163 81 7 0 9 51 117 181 209 223 229 230 230 230 230 230 230 230 230 230 230 230 230 230 225 203 163 101 47 16 2 10 47 130 192 226 230 230 230 230 230 230 230 230 230 230 230 230 230 230 230 230 230 230 230
230 230 230 230 230 230 230 230 226 187 114 33 1 0 10 38 85 134 174 201 217 227 230 230 230 230 230 230 230 230 229 226 217 188 140 84 28 6 6 24 64 127 191 219 230 230 230 230 230 230 230 230 230 230 230 230 230 230 230 230 230 230 230 230
230 230 230 230 230 230 230 230 230 214 163 89 21 1 0 4 17 40 75 106 136 163 186 201 210 214 215 215 213 212 204 183 141 93 57 25 5 6 33 87 149 199 223 229 230 230 230 230 230 230 230 230 230 230 230 230 230 230 230 230 230 230 230 230
230 230 230 230 230 230 230 230 230 228 211 169 109 49 16 4 1 2 9 19 33 50 70 95 116 130 137 137 132 123 104 72 39 14 9 11 23 49 104 169 209 227 230 230 230 230 230 230 230 230 230 230 230 230 230 230 230 230 230 230 230 230 230 230
230 230 230 230 230 230 230 230 230 230 229 220 199 163 115 69 34 13 3 0 0 0 1 7 19 28 35 36 31 23 15 7 2 3 12 50 95 140 188 219 228 230 230 230 230 230 230 230 230 230 230 230 230 230 230 230 230 230 230 230 230 230 230 230
230 230 230 230 230 230 230 230 230 230 230 230 230 225 212 175 129 88 58 38 23 12 4 0 0 0 0 0 0 1 2 5 13 40 84 142 182 211 225 230 230 230 230 230 230 230 230 230 230 230 230 230 230 230 230 230 230 230 230 230 230 230 230 230
230 230 230 230 230 230 230 230 230 230 230 230 230 230 230 224 209 186 162 135 109 82 57 36 26 23 24 29 34 38 41 60 96 142 182 213 224 229 230 230 230 230 230 230 230 230 230 230 230 230 230 230 230 230 230 230 230 230 230 230 230 230 230 230
230 230 230 230 230 230 230 230 230 230 230 230 230 230 230 230 229 226 221 211 201 186 170 156 144 132 125 128 134 141 152 172 198 216 225 229 230 230 230 230 230 230 230 230 230 230 230 230 230 230 230 230 230 230 230 230 230 230 230 230 230 230 230 230
230 230 230 230 230 230 230 230 230 230 230 230 230 230 230 230 230 230 230 230 230 230 230 230 230 221 214 211 213 216 221 225 229 230 230 230 230 230 230 230 230 230 230 230 230 230 230 230 230 230 230 230 230 230 230 230 230 230 230 230 230 230 230 230
230 230 230 230 230 230 230 230 230 230 230 230 230 230 230 230 230 230 230 230 230 230 230 230 230 230 230 230 230 230 230 230 230 230 230 230 230 230 230 230 230 230 230 230 230 230 230 230 230 230 230 230 230 230 230 230 230 230 230 230 230 230 230 230
230 230 230 230 230 230 230 230 230 230 230 230 230 230 230 230 230 230 230 230 230 230 230 230 230 230 230 230 230 230 230 230 230 230 230 230 230 230 230 230 230 230 230 230 230 230 230 230 230 230 230 230 230 230 230 230 230 230 230 230 230 230 230 230
230 230 230 230 230 230 230 230 230 230 230 230 230 230 230 230 230 230 230 230 230 230 230 230 230 230 230 230 230 230 230 230 230 230 230 230 230 230 230 230 230 230 230 230 230 230 230 230 230 230 230 230 230 230 230 230 230 230 230 230 230 230 230 230
