P2
64 64
255
249 249 249 249 249 249 249 249 249 249 249 249 249 249 249 249 249 249 249 249 249 249 249 249 249 249 249 249 249 249 249 249 249 249 249 249 249 249 249 249 249 249 249 249 249 249 249 249 249 249 249 249 249 249 249 249 249 249 249 249 249 249 249 249
249 249 249 249 249 249 249 249 249 249 249 249 249 249 249 249 249 249 249 249 249 249 249 249 249 249 249 249 249 249 249 249 249 249 249 249 249 249 249 249 249 249 249 249 249 249 249 249 249 249 249 249 249 249 249 249 249 249 249 249 249 249 249 249
249 249 249 249 249 249 249 249 249 249 249 249 249 249 249 249 249 249 249 249 249 249 249 249 249 249 249 249 249 249 249 249 249 249 249 249 249 249 249 249 249 249 249 249 249 249 249 249 249 249 249 249 249 249 249 249 249 249 249 249 249 249 249 249
249 249 249 249 249 249 249 249 249 249 249 249 249 249 249 249 249 249 249 249 249 249 249 249 249 249 249 249 249 249 249 249 249 249 249 249 249 249 249 249 249 249 249 249 249 249 249 249 249 249 249 249 249 249 249 249 249 249 249 249 249 249 249 249
249 249 249 249 249 249 249 249 249 249 249 249 249 249 249 249 249 249 249 249 249 249 249 249 249 249 249 249 249 249 249 249 249 249 249 249 249 249 249 249 249 249 249 249 249 249 249 249 249 249 249 249 249 249 249 249 249 249 249 249 249 249 249 249
249 249 249 249 249 249 249 249 249 249 249 249 249 249 249 249 249 249 249 249 249 249 249 249 249 249 249 249 249 249 249 249 249 249 249 249 249 249 249 249 249 249 249 249 249 249 249 249 249 249 249 249 249 249 249 249 249 249 249 249 249 249 249 249
249 249 249 249 249 249 249 249 249 249 249 249 249 249 249 249 249 249 249 249 249 249 249 249 249 249 249 249 249 249 249 249 249 249 249 249 249 249 249 249 249 249 249 249 249 249 249 249 249 249 249 249 249 249 249 249 249 249 249 249 249 249 249 249
249 249 249 249 249 249 249 249 249 249 249 249 249 249 249 249 249 249 249 249 249 249 249 249 249 249 249 249 249 249 249 249 249 249 249 249 249 249 249 249 249 249 249 249 249 249 249 249 249 249 249 249 249 249 249 249 249 249 249 249 249 249 249 249
249 249 249 249 249 249 249 249 249 249 249 249 249 249 249 249 249 249 249 249 249 249 249 249 249 249 249 249 249 249 249 249 249 249 249 249 248 248 249 249 249 249 249 249 249 249 249 249 249 249 249 249 249 249 249 249 249 249 249 249 249 249 249 249
249 249 249 249 249 249 249 249 249 249 249 249 249 249 249 249 249 249 249 249 249 249 249 249 249 249 249 249 249 249 249 249 248 247 245 239 231 238 248 248 248 248 249 249 249 249 249 249 249 249 249 249 249 249 249 249 249 249 249 249 249 249 249 249
249 249 249 249 249 249 249 249 249 249 249 249 249 249 249 249 249 249 249 249 249 249 249 249 249 249 249 249 249 249 248 245 228 202 181 150 134 153 187 206 225 243 249 249 249 249 249 249 249 249 249 249 249 249 249 249 249 249 249 249 249 249 249 249
249 249 249 249 249 249 249 249 249 249 249 249 249 249 249 249 249 249 249 249 249 249 249 249 249 249 249 249 248 247 236 198 126 69 44 18 23 37 53 82 130 192 243 249 249 249 249 249 249 249 249 249 249 249 249 249 249 249 249 249 249 249 249 249
249 249 249 249 249 249 249 249 249 249 249 249 249 249 249 249 249 249 249 249 249 249 249 249 249 249 249 249 246 228 170 89 21 4 2 5 1 1 1 0 24 79 172 235 248 249 249 249 249 249 249 249 249 249 249 249 249 249 249 249 249 249 249 249
249 249 249 249 249 249 249 249 249 249 249 249 249 249 249 249 249 249 249 249 249 249 249 249 249 249 249 245 216 137 56 16 5 8 42 73 65 48 30 9 0 11 70 182 240 248 249 249 249 249 249 249 249 249 249 249 249 249 249 249 249 249 249 249
249 249 249 249 249 249 249 249 249 249 249 249 249 249 249 249 249 249 249 249 249 249 249 249 249 247 233 179 100 34 4 14 52 104 169 200 200 178 139 85 17 0 12 105 221 247 249 249 249 249 249 249 249 249 249 249 249 249 249 249 249 249 249 249
249 249 249 249 249 249 249 249 249 249 249 249 249 249 249 249 249 249 249 249 249 249 249 248 244 212 138 51 13 1 12 77 165 223 243 247 248 248 232 197 98 14 3 56 179 241 249 249 249 249 249 249 249 249 249 249 249 249 249 249 249 249 249 249
249 249 249 249 249 249 249 249 249 249 249 249 249 249 249 249 249 249 249 249 249 249 248 241 202 117 38 3 0 17 95 192 235 247 249 249 249 249 248 241 168 45 1 39 156 237 248 249 249 249 249 249 249 249 249 249 249 249 249 249 249 249 249 249
249 249 249 249 249 249 249 249 249 249 249 249 249 249 249 249 249 249 249 249 249 249 244 203 106 23 1 7 30 110 197 243 248 249 249 249 249 249 249 245 182 56 2 21 148 241 249 249 249 249 249 249 249 249 249 249 249 249 249 249 249 249 249 249
249 249 249 249 249 249 249 249 249 249 249 249 249 249 249 249 249 249 249 249 249 248 223 122 23 1 20 80 156 214 242 248 249 249 249 249 249 249 249 247 181 44 0 22 142 235 249 249 249 249 249 249 249 249 249 249 249 249 249 249 249 249 249 249
249 249 249 249 249 249 249 249 249 249 249 249 249 249 249 249 249 249 249 249 249 242 153 43 1 14 86 186 238 248 249 249 249 249 249 249 249 249 249 245 160 37 0 40 157 237 249 249 249 249 249 249 249 249 249 249 249 249 249 249 249 249 249 249
249 249 249 249 249 249 249 249 249 249 249 249 249 249 249 249 249 249 249 249 248 214 89 8 1 56 176 243 249 249 249 249 249 249 249 249 249 249 246 210 103 17 1 62 187 247 249 249 249 249 249 249 249 249 249 249 249 249 249 249 249 249 249 249
249 249 249 249 249 249 249 249 249 249 249 249 249 249 249 249 249 249 249 249 248 217 102 10 32 137 232 248 249 249 249 249 249 249 249 249 249 248 229 149 42 2 6 109 220 248 249 249 249 249 249 249 249 249 249 249 249 249 249 249 249 249 249 249
249 249 249 249 249 249 249 249 249 249 249 249 249 249 249 249 249 249 249 249 249 239 184 134 159 217 247 249 249 249 249 249 249 249 249 249 249 245 191 75 2 6 60 172 238 249 249 249 249 249 249 249 249 249 249 249 249 249 249 249 249 249 249 249
249 249 249 249 249 249 249 249 249 249 249 249 249 249 249 249 249 249 249 249 249 247 239 232 238 246 249 249 249 249 249 249 249 249 249 249 247 216 113 24 1 36 134 222 247 249 249 249 249 249 249 249 249 249 249 249 249 249 249 249 249 249 249 249
249 249 249 249 249 249 249 249 249 249 249 249 249 249 249 249 249 249 249 249 249 249 248 248 249 249 249 249 249 249 249 249 249 249 248 246 214 126 36 3 17 95 203 247 249 249 249 249 249 249 249 249 249 249 249 249 249 249 249 249 249 249 249 249
249 249 249 249 249 249 249 249 249 249 249 249 249 249 249 249 249 249 249 249 249 249 249 249 249 249 249 249 249 249 249 249 249 248 245 215 127 40 4 6 77 183 240 249 249 249 249 249 249 249 249 249 249 249 249 249 249 249 249 249 249 249 249 249
249 249 249 249 249 249 249 249 249 249 249 249 249 249 249 249 249 249 249 249 249 249 249 249 249 249 249 249 249 249 249 249 248 244 212 130 34 1 7 70 173 233 248 249 249 249 249 249 249 249 249 249 249 249 249 249 249 249 249 249 249 249 249 249
249 249 249 249 249 249 249 249 249 249 249 249 249 249 249 249 249 249 249 249 249 249 249 249 249 249 249 249 249 249 249 249 245 214 123 33 1 11 71 170 233 247 249 249 249 249 249 249 249 249 249 249 249 249 249 249 249 249 249 249 249 249 249 249
249 249 249 249 249 249 249 249 249 249 249 249 249 249 249 249 249 249 249 249 249 249 249 249 249 249 249 249 249 249 249 246 220 125 34 2 15 75 170 233 248 248 249 249 249 249 249 249 249 249 249 249 249 249 249 249 249 249 249 249 249 249 249 249
249 249 249 249 249 249 249 249 249 249 249 249 249 249 249 249 249 249 249 249 249 249 249 249 249 249 249 249 249 249 244 208 120 35 2 14 79 180 237 249 249 249 249 249 249 249 249 249 249 249 249 249 249 249 249 249 249 249 249 249 249 249 249 249
249 249 249 249 249 249 249 249 249 249 249 249 249 249 249 249 249 249 249 249 249 249 249 249 249 249 249 249 248 241 202 114 33 2 8 75 181 240 248 249 249 249 249 249 249 249 249 249 249 249 249 249 249 249 249 249 249 249 249 249 249 249 249 249
249 249 249 249 249 249 249 249 249 249 249 249 249 249 249 249 249 249 249 249 249 249 249 249 249 249 249 248 244 207 117 27 1 11 81 181 236 248 249 249 249 249 249 249 249 249 249 249 249 249 249 249 249 249 249 249 249 249 249 249 249 249 249 249
249 249 249 249 249 249 249 249 249 249 249 249 249 249 249 249 249 249 249 249 249 249 249 249 249 249 249 244 216 127 29 1 14 84 180 238 248 249 249 249 249 249 249 249 249 249 249 249 249 249 249 249 249 249 249 249 249 249 249 249 249 249 249 249
249 249 249 249 249 249 249 249 249 249 249 249 249 249 249 249 249 249 249 249 249 249 249 249 249 249 247 217 128 38 3 15 77 177 235 248 249 249 249 249 249 249 249 249 249 249 249 249 249 249 249 249 249 249 249 249 249 249 249 249 249 249 249 249
249 249 249 249 249 249 249 249 249 249 249 249 249 249 249 249 249 249 249 249 249 249 249 249 249 247 222 125 34 2 13 74 172 238 249 249 249 249 249 249 249 249 249 249 249 249 249 249 249 249 249 249 249 249 249 249 249 249 249 249 249 249 249 249
249 249 249 249 249 249 249 249 249 249 249 249 249 249 249 249 249 249 249 249 249 249 249 248 243 212 135 42 2 8 74 179 235 249 249 249 249 249 249 249 249 249 249 249 249 249 249 249 249 249 249 249 249 249 249 249 249 249 249 249 249 249 249 249
249 249 249 249 249 249 249 249 249 249 249 249 249 249 249 249 249 249 249 249 249 249 248 241 203 121 41 3 3 64 176 238 248 249 249 249 249 249 249 249 249 249 249 249 249 249 249 249 249 249 249 249 249 249 249 249 249 249 249 249 249 249 249 249
249 249 249 249 249 249 249 249 249 249 249 249 249 249 249 249 249 249 249 249 249 248 238 194 103 25 1 13 71 164 231 248 249 249 249 249 249 249 249 249 249 249 249 249 249 249 249 249 249 249 249 249 249 249 249 249 249 249 249 249 249 249 249 249
249 249 249 249 249 249 249 249 249 249 249 249 249 249 249 249 249 249 249 249 247 239 183 89 19 2 23 88 178 230 247 249 249 249 249 249 249 249 249 249 249 249 249 249 249 249 249 249 249 249 249 249 249 249 249 249 249 249 249 249 249 249 249 249
249 249 249 249 249 249 249 249 249 249 249 249 249 249 249 249 249 248 248 238 203 140 58 14 1 19 82 170 234 247 248 249 249 249 249 249 249 249 249 249 249 249 249 249 249 249 249 249 249 249 249 249 249 249 249 249 249 249 249 249 249 249 249 249
249 249 249 249 249 249 249 249 249 249 249 249 249 249 249 249 249 233 190 126 65 19 0 0 0 22 67 120 161 197 223 241 248 249 249 249 249 249 249 249 249 249 249 249 249 249 249 249 249 249 249 249 249 249 249 249 249 249 249 249 249 249 249 249
249 249 249 249 249 249 249 249 249 249 249 249 249 249 249 248 234 151 53 7 2 0 0 0 0 0 3 22 41 67 118 178 225 248 249 249 249 249 249 249 249 249 249 249 249 249 249 249 249 249 249 249 249 249 249 249 249 249 249 249 249 249 249 249
249 249 249 249 249 249 249 249 249 249 249 249 249 249 249 248 202 72 4 0 0 1 20 24 36 25 7 1 1 0 9 54 121 196 237 247 248 249 249 249 249 249 249 249 249 249 249 249 249 249 249 249 249 249 249 249 249 249 249 249 249 249 249 249
249 249 249 249 249 249 249 249 249 249 249 249 249 249 249 249 215 80 4 1 13 80 143 172 164 132 95 62 41 17 1 3 25 74 143 195 229 247 249 249 249 249 249 249 249 249 249 249 249 249 249 249 249 249 249 249 249 249 249 249 249 249 249 249
249 249 249 249 249 249 249 249 249 249 249 249 249 249 249 249 239 183 97 79 129 208 239 247 246 229 213 196 161 106 44 4 0 3 21 72 142 211 246 248 248 249 249 249 249 249 249 249 249 249 249 249 249 249 249 249 249 249 249 249 249 249 249 249
249 249 249 249 249 249 249 249 249 249 249 249 249 249 249 249 249 247 229 215 234 248 249 249 249 248 248 248 244 218 171 103 37 6 0 4 36 93 156 202 232 245 249 249 249 249 249 249 249 249 249 249 249 249 249 249 249 249 249 249 249 249 249 249
249 249 249 249 249 249 249 249 249 249 249 249 249 249 249 249 249 249 248 249 249 249 249 249 249 249 249 249 249 248 241 215 154 85 37 4 0 10 32 80 144 197 239 247 248 249 249 249 249 249 249 249 249 249 249 249 249 249 249 249 249 249 249 249
249 249 249 249 249 249 249 249 249 249 249 249 249 249 249 249 249 249 249 249 249 249 249 249 249 249 249 249 249 249 249 248 242 207 150 75 12 2 0 1 28 71 127 185 231 247 249 249 249 249 249 249 249 249 249 249 249 249 249 249 249 249 249 249
249 249 249 249 249 249 249 249 249 249 249 249 249 249 249 249 249 249 249 249 249 249 249 249 249 249 249 249 249 249 249 249 249 247 232 192 134 78 35 7 0 3 20 76 183 240 249 249 249 249 249 249 249 249 249 249 249 249 249 249 249 249 249 249
249 249 249 249 249 249 249 249 249 249 249 249 249 249 249 249 249 249 249 249 249 249 249 249 249 249 249 249 249 249 249 249 249 249 248 245 234 205 141 79 26 7 8 46 159 238 248 249 249 249 249 249 249 249 249 249 249 249 249 249 249 249 249 249
249 249 249 249 249 249 249 249 249 249 249 249 249 249 249 249 249 249 249 249 249 249 249 249 249 249 249 249 249 249 249 249 249 249 249 249 249 248 232 202 160 115 92 125 209 248 249 249 249 249 249 249 249 249 249 249 249 249 249 249 249 249 249 249
249 249 249 249 249 249 249 249 249 249 249 249 249 249 249 249 249 249 249 249 249 249 249 249 249 249 249 249 249 249 249 249 249 249 249 249 249 249 248 248 243 233 211 221 242 249 249 249 249 249 249 249 249 249 249 249 249 249 249 249 249 249 249 249
249 249 249 249 249 249 249 249 249 249 249 249 249 249 249 249 249 249 249 249 249 249 249 249 249 249 249 249 249 249 249 249 249 249 249 249 249 249 249 249 249 249 247 247 248 249 249 249 249 249 249 249 249 249 249 249 249 249 249 249 249 249 249 249
249 249 249 249 249 249 249 249 249 249 249 249 249 249 249 249 249 249 249 249 249 249 249 249 249 249 249 249 249 249 249 249 249 249 249 249 249 249 249 249 249 249 249 249 249 249 249 249 249 249 249 249 249 249 249 249 249 249 249 249 249 249 249 249
249 249 249 249 249 249 249 249 249 249 249 249 249 249 249 249 249 249 249 249 249 249 249 249 249 249 249 249 249 249 249 249 249 249 249 249 249 249 249 249 249 249 249 249 249 249 249 249 249 249 249 249 249 249 249 249 249 249 249 249 249 249 249 249
249 249 249 249 249 249 249 249 249 249 249 249 249 249 249 249 249 249 249 249 249 249 249 249 249 249 249 249 249 249 249 249 249 249 249 249 249 249 249 249 249 249 249 249 249 249 249 249 249 249 249 249 249 249 249 249 249 249 249 249 249 249 249 249
249 249 249 249 249 249 249 249 249 249 249 249 249 249 249 249 249 249 249 249 249 249 249 249 249 249 249 249 249 249 249 249 249 249 249 249 249 249 249 249 249 249 249 249 249 249 249 249 249 249 249 249 249 249 249 249 249 249 249 249 249 249 249 249
249 249 249 249 249 249 249 249 249 249 249 249 249 249 249 249 249 249 249 249 249 249 249 249 249 249 249 249 249 249 249 249 249 249 249 249 249 249 249 249 249 249 249 249 249 249 249 249 249 249 249 249 249 249 249 249 249 249 249 249 249 249 249 249
249 249 249 249 249 249 249 249 249 249 249 249 249 249 249 249 249 249 249 249 249 249 249 249 249 249 249 249 249 249 249 249 249 249 249 249 249 249 249 249 249 249 249 249 249 249 249 249 249 249 249 249 249 249 249 249 249 249 249 249 249 249 249 249
249 249 249 249 249 249 249 249 249 249 249 249 249 249 249 249 249 249 249 249 249 249 249 249 249 249 249 249 249 249 249 249 249 249 249 249 249 249 249 249 249 249 249 249 249 249 249 249 249 249 249 249 249 249 249 249 249 249 249 249 249 249 249 249
249 249 249 249 249 249 249 249 249 249 249 249 249 249 249 249 249 249 249 249 249 249 249 249 249 249 249 249 249 249 249 249 249 249 249 249 249 249 249 249 249 249 249 249 249 249 249 249 249 249 249 249 249 249 249 249 249 249 249 249 249 249 249 249
249 249 249 249 249 249 249 249 249 249 249 249 249 249 249 249 249 249 249 249 249 249 249 249 249 249 249 249 249 249 249 249 249 249 249 249 249 249 249 249 249 249 249 249 249 249 249 249 249 249 249 249 249 249 249 249 249 249 249 249 249 249 249 249
249 249 249 249 249 249 249 249 249 249 249 249 249 249 249 249 249 249 249 249 249 249 249 249 249 249 249 249 249 249 249 249 249 249 249 249 249 249 249 249 249 249 249 249 249 249 249 249 249 249 249 249 249 249 249 249 249 249 249 249 249 249 249 249
249 249 249 249 249 249 249 249 249 249 249 249 249 249 249 249 249 249 249 249 249 249 249 249 249 249 249 249 249 249 249 249 249 249 249 249 249 249 249 249 249 249 249 249 249 249 249 249 249 249 249 249 249 249 249 249 249 249 249 249 249 249 249 249
