P2
64 64
255
162 162 162 162 162 162 162 162 162 162 162 162 162 162 162 162 162 162 162 162 162 162 162 162 162 162 162 162 162 162 162 162 162 162 162 162 162 162 162 162 162 162 162 162 162 162 162 162 162 162 162 162 162 162 162 162 162 162 162 162 162 162 162 162
162 162 162 162 162 162 162 162 162 162 162 162 162 162 162 162 162 162 162 162 162 162 162 162 162 162 162 162 162 162 162 162 162 162 162 162 162 162 162 162 162 162 162 162 162 162 162 162 162 162 162 162 162 162 162 162 162 162 162 162 162 162 162 162
162 162 162 162 162 162 162 162 162 162 162 162 162 162 162 162 162 162 162 162 162 162 162 162 162 162 162 162 162 162 162 162 162 162 162 162 162 162 162 162 162 162 162 162 162 162 162 162 162 162 162 162 162 162 162 162 162 162 162 162 162 162 162 162
162 162 162 162 162 162 162 162 162 162 162 162 162 162 162 162 162 162 162 162 162 162 162 162 162 162 162 162 162 162 162 162 162 162 162 162 162 162 162 162 162 162 162 162 162 162 162 162 162 162 162 162 162 162 162 162 162 162 162 162 162 162 162 162
162 162 162 162 162 162 162 162 162 162 162 162 162 162 162 162 162 162 162 162 162 162 162 162 162 162 162 162 162 162 162 162 162 162 162 162 162 162 162 162 162 162 162 162 162 162 162 162 162 162 162 162 162 162 162 162 162 162 162 162 162 162 162 162
162 162 162 162 162 162 162 162 162 162 162 162 162 162 162 162 162 162 162 162 162 162 162 162 162 162 162 162 162 162 162 162 162 162 162 162 162 162 162 162 162 162 162 162 162 162 162 162 162 162 162 162 162 162 162 162 162 162 162 162 162 162 162 162
162 162 162 162 162 162 162 162 162 162 162 162 162 162 162 162 162 162 162 162 162 162 162 162 162 162 162 162 162 162 162 162 162 162 162 162 162 162 162 162 162 162 162 162 162 162 162 162 162 162 162 162 162 162 162 162 162 162 162 162 162 162 162 162
162 162 162 162 162 162 162 162 162 162 162 162 162 162 162 162 162 162 162 162 162 162 162 162 162 162 162 162 162 162 162 162 162 162 162 162 162 162 162 162 162 162 162 162 162 162 162 162 162 162 162 162 162 162 162 162 162 162 162 162 162 162 162 162
162 162 162 162 162 162 162 162 162 162 162 162 162 162 162 162 162 162 162 162 162 162 162 162 162 162 162 162 162 162 162 162 162 162 162 162 161 162 161 162 162 162 162 162 162 162 162 162 162 162 162 162 162 162 162 162 162 162 162 162 162 162 162 162
162 162 162 162 162 162 162 162 162 162 162 162 162 162 162 162 162 162 162 162 162 162 162 162 162 162 162 162 162 162 162 162 162 162 161 160 156 154 159 161 162 162 162 162 162 162 162 162 162 162 162 162 162 162 162 162 162 162 162 162 162 162 162 162
162 162 162 162 162 162 162 162 162 162 162 162 162 162 162 162 162 162 162 162 162 162 162 162 162 162 162 162 162 162 162 162 162 162 161 141 118 110 135 152 162 162 162 162 162 162 162 162 162 162 162 162 162 162 162 162 162 162 162 162 162 162 162 162
162 162 162 162 162 162 162 162 162 162 162 162 162 162 162 162 162 162 162 162 162 162 162 162 162 162 162 162 162 162 162 162 162 161 137 92 43 33 68 133 157 161 162 162 162 162 162 162 162 162 162 162 162 162 162 162 162 162 162 162 162 162 162 162
162 162 162 162 162 162 162 162 162 162 162 162 162 162 162 162 162 162 162 162 162 162 162 162 162 162 162 162 162 162 162 162 161 152 93 27 7 0 38 112 155 161 162 162 162 162 162 162 162 162 162 162 162 162 162 162 162 162 162 162 162 162 162 162
162 162 162 162 162 162 162 162 162 162 162 162 162 162 162 162 162 162 162 162 162 162 162 162 162 162 162 162 162 162 161 161 152 98 38 1 0 0 29 112 154 162 162 162 162 162 162 162 162 162 162 162 162 162 162 162 162 162 162 162 162 162 162 162
162 162 162 162 162 162 162 162 162 162 162 162 162 162 162 162 162 162 162 162 162 162 162 162 162 162 162 162 162 162 161 147 108 42 0 0 0 7 58 128 161 162 162 162 162 162 162 162 162 162 162 162 162 162 162 162 162 162 162 162 162 162 162 162
162 162 162 162 162 162 162 162 162 162 162 162 162 162 162 162 162 162 162 162 162 162 162 162 162 162 162 162 162 161 156 124 48 10 0 0 5 30 107 154 161 162 162 162 162 162 162 162 162 162 162 162 162 162 162 162 162 162 162 162 162 162 162 162
162 162 162 162 162 162 162 162 162 162 162 162 162 162 162 162 162 162 162 162 162 162 162 162 162 162 162 162 162 161 135 71 18 0 0 0 18 90 141 161 162 162 162 162 162 162 162 162 162 162 162 162 162 162 162 162 162 162 162 162 162 162 162 162
162 162 162 162 162 162 162 162 162 162 162 162 162 162 162 162 162 162 162 162 162 162 162 162 162 162 162 162 161 146 100 26 0 0 0 15 66 133 161 161 162 162 162 162 162 162 162 162 162 162 162 162 162 161 162 162 162 162 162 162 162 162 162 162
162 162 162 162 162 162 162 162 162 162 162 162 162 162 162 162 162 162 162 162 162 162 162 162 162 162 162 161 157 123 43 8 0 0 7 40 119 154 161 162 162 162 162 162 162 162 162 162 162 162 162 162 162 161 160 162 162 162 162 162 162 162 162 162
162 162 162 162 162 162 162 162 162 162 162 162 162 162 162 162 162 162 162 162 162 162 162 162 162 162 162 161 131 68 12 0 0 0 28 92 143 161 162 162 162 162 162 162 162 162 162 162 162 162 162 162 159 154 151 154 161 162 162 162 162 162 162 162
162 162 162 162 162 162 162 162 162 162 162 162 162 162 162 162 162 162 162 162 162 162 162 162 162 162 161 142 91 13 1 0 0 23 75 136 161 161 162 162 162 162 162 162 162 162 162 162 162 162 161 162 147 124 117 129 151 160 162 162 162 162 162 162
162 162 162 162 162 162 162 162 162 162 162 162 162 162 162 162 162 162 162 162 162 162 162 162 162 161 160 106 35 4 0 0 12 63 136 156 161 162 162 162 162 162 162 162 162 162 162 162 162 162 161 146 112 75 54 89 136 157 161 162 162 162 162 162
162 162 162 162 162 162 162 162 162 162 162 162 162 162 161 161 162 162 162 162 162 162 162 162 162 161 122 57 5 0 0 1 55 121 158 162 162 162 162 162 162 162 162 162 162 162 162 162 162 161 154 122 61 25 26 69 128 157 162 162 162 162 162 162
162 162 162 162 162 162 162 162 162 162 162 162 161 161 154 149 151 161 161 162 162 162 162 162 161 141 77 7 0 0 2 37 103 160 161 162 162 162 162 162 162 162 162 162 162 162 162 162 161 161 133 75 25 3 19 77 138 159 162 162 162 162 162 162
162 162 162 162 162 162 162 162 162 162 162 162 161 147 119 96 104 129 160 161 162 162 162 161 157 92 28 0 0 1 14 87 147 161 162 162 162 162 162 162 162 162 162 162 162 162 162 162 161 145 100 35 1 1 37 101 147 162 162 162 162 162 162 162
162 162 162 162 162 162 162 162 162 162 162 162 159 134 59 31 29 69 112 145 161 161 161 150 105 42 0 0 0 8 66 128 161 162 162 162 162 162 162 162 162 162 162 162 162 162 162 161 156 122 52 12 1 19 67 131 161 161 162 162 162 162 162 162
162 162 162 162 162 162 162 162 162 162 162 162 157 121 46 5 3 14 46 94 130 161 150 117 44 5 0 0 7 45 116 161 161 162 162 162 162 162 162 162 162 162 162 162 162 162 162 161 129 70 21 0 5 41 111 150 161 162 162 162 162 162 162 162
162 162 162 162 162 162 162 162 162 162 162 161 159 135 76 22 1 0 8 24 72 113 114 58 15 0 0 3 20 103 148 161 162 162 162 162 162 162 162 162 162 162 162 162 162 162 161 146 94 22 1 0 25 84 138 161 162 162 162 162 162 162 162 162
162 162 162 162 162 162 162 162 162 162 162 162 161 154 123 75 35 2 0 4 14 38 42 14 0 0 0 17 78 137 161 162 162 162 162 162 162 162 162 162 162 162 162 162 162 162 161 135 57 10 0 8 49 124 159 161 162 162 162 162 162 162 162 162
162 162 162 162 162 162 162 162 162 162 162 162 162 162 153 137 93 52 14 1 0 3 1 0 0 0 10 53 127 160 161 162 162 162 162 162 162 162 162 162 162 162 162 162 162 162 151 104 36 0 0 20 91 143 161 162 162 162 162 162 162 162 162 162
162 162 162 162 162 162 162 162 162 162 162 162 162 162 162 157 148 113 69 31 1 0 0 0 0 0 15 95 143 161 161 162 162 162 162 162 162 162 162 162 162 162 162 162 162 157 135 68 10 0 13 62 126 161 162 162 162 162 162 162 162 162 162 162
162 162 162 162 162 162 162 162 162 162 162 162 162 162 162 162 161 152 132 88 44 5 0 0 0 0 12 64 129 145 161 161 162 162 162 162 162 162 162 162 162 162 162 162 162 154 97 33 1 5 33 107 154 161 162 162 162 162 162 162 162 162 162 162
162 162 162 162 162 162 162 162 162 162 162 162 162 162 162 162 162 162 156 147 103 35 4 0 0 0 0 24 55 98 130 152 161 161 162 162 162 162 162 162 162 162 162 162 160 128 61 3 0 15 77 136 161 162 162 162 162 162 162 162 162 162 162 162
162 162 162 162 162 162 162 162 162 162 162 162 162 162 162 162 162 162 162 160 131 65 5 0 0 0 0 0 12 33 66 107 135 161 161 162 162 162 162 162 162 162 162 161 155 93 21 1 6 48 116 161 161 162 162 162 162 162 162 162 162 162 162 162
162 162 162 162 162 162 162 162 162 162 162 162 162 162 162 162 162 162 161 154 112 36 7 0 7 12 7 4 0 0 15 34 79 119 152 161 162 162 162 162 162 162 162 161 120 50 4 1 13 90 148 161 162 162 162 162 162 162 162 162 162 162 162 162
162 162 162 162 162 162 162 162 162 162 162 162 162 162 162 162 162 162 161 129 63 14 0 5 38 75 67 35 19 1 0 5 16 57 104 138 161 161 162 162 162 162 161 142 85 12 0 3 57 124 161 162 162 162 162 162 162 162 162 162 162 162 162 162
162 162 162 162 162 162 162 162 162 162 162 162 162 162 162 162 162 161 147 100 25 1 0 21 84 141 134 110 69 39 8 1 0 11 35 83 122 156 161 162 162 161 161 110 41 6 1 28 96 159 161 162 162 162 162 162 162 162 162 162 162 162 162 162
162 162 162 162 162 162 162 162 162 162 162 162 162 162 162 162 161 159 127 59 13 0 8 42 121 158 161 149 136 101 63 26 1 0 7 17 61 108 141 161 161 161 129 68 13 0 3 64 131 159 162 162 162 162 162 162 162 162 162 162 162 162 162 162
162 162 162 162 162 162 162 162 162 162 162 162 162 162 162 162 161 139 87 29 0 1 28 93 142 161 162 161 159 150 127 83 43 5 1 1 12 40 88 126 159 146 94 21 3 1 40 101 152 162 162 162 162 162 162 162 162 162 162 162 162 162 162 162
162 162 162 162 162 162 162 162 162 162 162 162 162 162 162 161 150 112 42 6 1 24 76 132 161 162 162 162 162 162 155 146 103 60 22 1 0 7 19 66 112 103 47 8 0 18 77 142 159 162 162 162 162 162 162 162 162 162 162 162 162 162 162 162
162 162 162 162 162 162 162 162 162 162 162 162 162 162 161 161 130 67 19 1 12 53 124 156 161 162 162 162 162 162 162 159 150 122 78 39 2 1 3 14 38 45 12 0 2 55 119 154 162 162 162 162 162 162 162 162 162 162 162 162 162 162 162 162
162 162 162 162 162 162 162 162 162 162 162 162 162 162 161 139 90 31 0 1 35 98 144 161 162 162 162 162 162 162 162 162 162 154 142 98 56 18 1 0 6 4 1 1 34 94 149 162 162 162 162 162 162 162 162 162 162 162 162 162 162 162 162 162
162 162 162 162 162 162 162 162 162 162 162 162 162 161 149 103 38 8 0 21 72 133 161 161 162 162 162 162 162 162 162 162 162 162 158 149 118 74 35 1 0 0 0 13 71 136 157 162 162 162 162 162 162 162 162 162 162 162 162 162 162 162 162 162
162 162 162 162 162 162 162 162 162 162 162 162 161 161 114 48 10 0 8 46 117 153 161 162 162 162 162 162 162 162 162 162 162 162 162 162 153 137 88 39 7 0 2 50 113 152 162 162 162 162 162 162 162 162 162 162 162 162 162 162 162 162 162 162
162 162 162 162 162 162 162 162 162 162 162 162 161 141 82 13 0 0 28 91 142 161 162 162 162 162 162 162 162 162 162 162 162 162 162 162 162 157 142 92 34 24 41 96 148 161 162 162 162 162 162 162 162 162 162 162 162 162 162 162 162 162 162 162
162 162 162 162 162 162 162 162 162 162 162 161 156 123 45 7 0 14 60 129 161 161 162 162 162 162 162 162 162 162 162 162 162 162 162 162 162 162 161 138 109 87 112 140 157 162 162 162 162 162 162 162 162 162 162 162 162 162 162 162 162 162 162 162
162 162 162 162 162 162 162 162 162 162 162 161 141 84 25 0 5 36 109 150 161 162 162 162 162 162 162 162 162 162 162 162 162 162 162 162 162 162 161 161 152 149 150 159 162 162 162 162 162 162 162 162 162 162 162 162 162 162 162 162 162 162 162 162
162 162 162 162 162 162 162 162 162 162 162 157 130 59 6 1 28 85 138 161 162 162 162 162 162 162 162 162 162 162 162 162 162 162 162 162 162 162 162 162 162 161 161 161 162 162 162 162 162 162 162 162 162 162 162 162 162 162 162 162 162 162 162 162
162 162 162 162 162 162 162 162 162 162 161 159 130 67 20 25 65 128 159 161 162 162 162 162 162 162 162 162 162 162 162 162 162 162 162 162 162 162 162 162 162 162 162 162 162 162 162 162 162 162 162 162 162 162 162 162 162 162 162 162 162 162 162 162
162 162 162 162 162 162 162 162 162 162 162 160 147 105 65 82 117 149 161 162 162 162 162 162 162 162 162 162 162 162 162 162 162 162 162 162 162 162 162 162 162 162 162 162 162 162 162 162 162 162 162 162 162 162 162 162 162 162 162 162 162 162 162 162
162 162 162 162 162 162 162 162 162 162 162 161 161 146 137 136 150 161 162 162 162 162 162 162 162 162 162 162 162 162 162 162 162 162 162 162 162 162 162 162 162 162 162 162 162 162 162 162 162 162 162 162 162 162 162 162 162 162 162 162 162 162 162 162
162 162 162 162 162 162 162 162 162 162 162 162 161 161 159 160 161 161 162 162 162 162 162 162 162 162 162 162 162 162 162 162 162 162 162 162 162 162 162 162 162 162 162 162 162 162 162 162 162 162 162 162 162 162 162 162 162 162 162 162 162 162 162 162
162 162 162 162 162 162 162 162 162 162 162 162 162 162 162 161 162 162 162 162 162 162 162 162 162 162 162 162 162 162 162 162 162 162 162 162 162 162 162 162 162 162 162 162 162 162 162 162 162 162 162 162 162 162 162 162 162 162 162 162 162 162 162 162
162 162 162 162 162 162 162 162 162 162 162 162 162 162 162 162 162 162 162 162 162 162 162 162 162 162 162 162 162 162 162 162 162 162 162 162 162 162 162 162 162 162 162 162 162 162 162 162 162 162 162 162 162 162 162 162 162 162 162 162 162 162 162 162
162 162 162 162 162 162 162 162 162 162 162 162 162 162 162 162 162 162 162 162 162 162 162 162 162 162 162 162 162 162 162 162 162 162 162 162 162 162 162 162 162 162 162 162 162 162 162 162 162 162 162 162 162 162 162 162 162 162 162 162 162 162 162 162
162 162 162 162 162 162 162 162 162 162 162 162 162 162 162 162 162 162 162 162 162 162 162 162 162 162 162 162 162 162 162 162 162 162 162 162 162 162 162 162 162 162 162 162 162 162 162 162 162 162 162 162 162 162 162 162 162 162 162 162 162 162 162 162
162 162 162 162 162 162 162 162 162 162 162 162 162 162 162 162 162 162 162 162 162 162 162 162 162 162 162 162 162 162 162 162 162 162 162 162 162 162 162 162 162 162 162 162 162 162 162 162 162 162 162 162 162 162 162 162 162 162 162 162 162 162 162 162
162 162 162 162 162 162 162 162 162 162 162 162 162 162 162 162 162 162 162 162 162 162 162 162 162 162 162 162 162 162 162 162 162 162 162 162 162 162 162 162 162 162 162 162 162 162 162 162 162 162 162 162 162 162 162 162 162 162 162 162 162 162 162 162
162 162 162 162 162 162 162 162 162 162 162 162 162 162 162 162 162 162 162 162 162 162 162 162 162 162 162 162 162 162 162 162 162 162 162 162 162 162 162 162 162 162 162 162 162 162 162 162 162 162 162 162 162 162 162 162 162 162 162 162 162 162 162 162
162 162 162 162 162 162 162 162 162 162 162 162 162 162 162 162 162 162 162 162 162 162 162 162 162 162 162 162 162 162 162 162 162 162 162 162 162 162 162 162 162 162 162 162 162 162 162 162 162 162 162 162 162 162 162 162 162 162 162 162 162 162 162 162
162 162 162 162 162 162 162 162 162 162 162 162 162 162 162 162 162 162 162 162 162 162 162 162 162 162 162 162 162 162 162 162 162 162 162 162 162 162 162 162 162 162 162 162 162 162 162 162 162 162 162 162 162 162 162 162 162 162 162 162 162 162 162 162
162 162 162 162 162 162 162 162 162 162 162 162 162 162 162 162 162 162 162 162 162 162 162 162 162 162 162 162 162 162 162 162 162 162 162 162 162 162 162 162 162 162 162 162 162 162 162 162 162 162 162 162 162 162 162 162 162 162 162 162 162 162 162 162
162 162 162 162 162 162 162 162 162 162 162 162 162 162 162 162 162 162 162 162 162 162 162 162 162 162 162 162 162 162 162 162 162 162 162 162 162 162 162 162 162 162 162 162 162 162 162 162 162 162 162 162 162 162 162 162 162 162 162 162 162 162 162 162
162 162 162 162 162 162 162 162 162 162 162 162 162 162 162 162 162 162 162 162 162 162 162 162 162 162 162 162 162 162 162 162 162 162 162 162 162 162 162 162 162 162 162 162 162 162 162 162 162 162 162 162 162 162 162 162 162 162 162 162 162 162 162 162
