P2
64 64
255
169 169 169 169 169 169 169 169 169 169 169 169 169 169 169 169 169 169 169 169 169 169 169 169 169 169 169 169 169 169 169 169 169 169 169 169 169 169 169 169 169 169 169 169 169 169 169 169 169 169 169 169 169 169 169 169 169 169 169 169 169 169 169 169
169 169 169 169 169 169 169 169 169 169 169 169 169 169 169 169 169 169 169 169 169 169 169 169 169 169 169 169 169 169 169 169 169 169 169 169 169 169 169 169 169 169 169 169 169 169 169 169 169 169 169 169 169 169 169 169 169 169 169 169 169 169 169 169
169 169 169 169 169 169 169 169 169 169 169 169 169 169 169 169 169 169 169 169 169 169 169 169 169 169 169 169 169 169 169 169 169 169 169 169 169 169 169 169 169 169 169 169 169 169 169 169 169 169 169 169 169 169 169 169 169 169 169 169 169 169 169 169
169 169 169 169 169 169 169 169 169 169 169 169 169 169 169 169 169 169 169 169 169 169 169 169 169 169 169 169 169 169 169 169 169 169 169 169 169 169 169 169 169 169 169 169 169 169 169 169 169 169 169 169 169 169 169 169 169 169 169 169 169 169 169 169
169 169 169 169 169 169 169 169 169 169 169 169 169 169 169 169 169 169 169 169 169 169 169 169 169 169 169 169 169 169 169 169 169 169 169 169 169 169 169 169 169 169 169 169 169 169 169 169 169 169 169 169 169 169 169 169 169 169 169 169 169 169 169 169
169 169 169 169 169 169 169 169 169 169 169 169 169 169 169 169 169 169 169 169 169 169 169 169 169 169 169 169 169 169 169 169 169 169 169 169 169 169 169 169 169 169 169 169 169 169 169 169 169 169 169 169 169 169 169 169 169 169 169 169 169 169 169 169
169 169 169 169 169 169 169 169 169 169 169 169 169 169 169 169 169 169 169 169 169 169 169 169 169 169 169 169 169 169 169 169 169 169 169 169 169 169 169 169 169 169 169 169 169 169 169 169 169 169 169 169 169 169 169 169 169 169 169 169 169 169 169 169
169 169 169 169 169 169 169 169 169 169 169 169 169 169 169 169 169 169 169 169 169 169 169 169 169 169 169 169 169 169 169 169 169 169 169 169 169 169 169 169 169 169 169 169 169 169 169 169 169 169 169 169 169 169 169 169 169 169 169 169 169 169 169 169
169 169 169 169 169 169 169 169 169 169 169 169 169 169 169 169 169 169 169 169 169 169 169 169 169 168 168 168 168 168 168 168 169 168 169 169 169 169 169 169 169 169 169 169 169 169 169 169 169 169 169 169 169 169 169 169 169 169 169 169 169 169 169 169
169 169 169 169 169 169 169 169 169 169 169 169 169 169 169 169 169 169 169 169 169 168 168 167 167 161 144 134 139 147 147 152 161 165 167 169 169 169 169 169 169 169 169 169 169 169 169 169 169 169 169 169 169 169 169 169 169 169 169 169 169 169 169 169
169 169 169 169 169 169 169 169 169 169 169 169 169 169 169 169 169 168 168 168 168 157 139 120 102 81 62 49 47 60 73 82 100 126 148 163 168 168 169 169 169 169 169 169 169 169 169 169 169 169 169 169 169 169 169 169 169 169 169 169 169 169 169 169
169 169 169 169 169 169 169 169 169 169 169 169 169 169 169 169 169 166 153 133 110 82 56 33 10 5 3 3 1 2 9 13 15 37 74 120 154 165 168 169 169 169 169 169 169 169 169 169 169 169 169 169 169 169 169 169 169 169 169 169 169 169 169 169
169 169 169 169 169 169 169 169 169 169 169 169 169 169 169 169 167 141 101 58 22 9 3 1 0 1 2 3 2 7 4 1 0 0 15 51 101 135 156 167 168 168 169 169 169 169 169 169 169 169 169 169 169 169 169 169 169 169 169 169 169 169 169 169
169 169 169 169 169 169 169 169 169 169 169 169 169 168 166 155 125 75 32 8 0 0 2 4 11 33 55 69 70 63 51 29 7 5 3 10 27 59 96 131 155 165 169 169 169 169 169 169 169 169 169 169 169 169 169 169 169 169 169 169 169 169 169 169
169 169 169 169 169 169 169 169 169 169 169 169 169 167 159 125 60 16 2 0 7 28 53 78 102 121 139 154 155 143 133 115 76 53 31 11 3 7 25 56 103 145 166 169 169 169 169 169 169 169 169 169 169 169 169 169 169 169 169 169 169 169 169 169
169 169 169 169 169 169 169 169 169 169 169 169 169 168 157 102 31 5 2 17 60 102 133 158 167 167 168 168 169 167 166 163 153 133 100 53 18 5 2 9 39 96 147 165 167 168 169 169 169 169 169 169 169 169 169 169 169 169 169 169 169 169 169 169
169 169 169 169 169 169 169 169 169 169 169 169 169 169 159 118 66 39 47 84 131 157 165 168 169 169 169 169 169 169 169 168 169 165 152 122 78 41 12 3 8 36 81 128 156 167 169 169 169 169 169 169 169 169 169 169 169 169 169 169 169 169 169 169
169 169 169 169 169 169 169 169 169 169 169 169 169 169 165 153 129 112 122 152 165 168 169 169 169 169 169 169 169 169 169 169 169 168 168 165 147 117 75 33 9 5 23 62 116 153 167 169 169 169 169 169 169 169 169 169 169 169 169 169 169 169 169 169
169 169 169 169 169 169 169 169 169 169 169 169 169 169 168 167 163 159 163 168 169 169 169 169 169 169 169 169 169 169 169 169 169 169 169 169 167 159 136 90 39 7 1 11 53 111 151 165 168 169 169 169 169 169 169 169 169 169 169 169 169 169 169 169
169 169 169 169 169 169 169 169 169 169 169 169 169 169 169 169 169 169 168 169 169 169 169 169 169 169 169 169 169 169 169 169 169 169 169 169 169 168 164 147 98 40 7 2 13 51 106 149 167 169 169 169 169 169 169 169 169 169 169 169 169 169 169 169
169 169 169 169 169 169 169 169 169 169 169 169 169 169 169 169 169 169 169 169 169 169 169 169 169 169 169 169 169 169 169 169 169 169 169 169 169 169 168 167 147 102 50 14 1 13 52 113 157 169 169 169 169 169 169 169 169 169 169 169 169 169 169 169
169 169 169 169 169 169 169 169 169 169 169 169 169 169 169 169 169 169 169 169 169 169 169 169 169 169 169 169 169 169 169 169 169 169 169 169 169 169 169 169 165 148 108 49 7 1 6 57 122 159 167 169 169 169 169 169 169 169 169 169 169 169 169 169
169 169 169 169 169 169 169 169 169 169 169 169 169 169 169 169 169 169 169 169 169 169 169 169 169 169 169 169 169 169 169 169 169 169 169 169 169 169 169 169 168 167 155 103 41 8 0 16 65 124 160 168 169 169 169 169 169 169 169 169 169 169 169 169
169 169 169 169 169 169 169 169 169 169 169 169 169 169 169 169 169 169 169 169 169 169 169 169 169 169 169 169 169 169 169 169 169 169 169 169 169 169 169 169 169 169 167 147 98 39 5 1 22 74 137 166 169 169 169 169 169 169 169 169 169 169 169 169
169 169 169 169 169 169 169 169 169 169 169 169 169 169 169 169 169 169 169 169 169 169 169 169 169 169 169 169 169 169 169 169 169 169 169 169 169 169 169 169 169 169 169 165 145 92 28 1 1 27 95 148 165 169 169 169 169 169 169 169 169 169 169 169
169 169 169 169 169 169 169 169 169 169 169 169 169 169 169 169 169 169 169 169 169 169 169 169 169 169 169 169 169 169 169 169 169 169 169 169 169 169 169 169 169 169 169 168 167 139 72 19 1 5 49 114 157 168 169 169 169 169 169 169 169 169 169 169
169 169 169 169 169 169 169 169 169 169 169 169 169 169 169 169 169 169 169 169 169 169 169 169 169 169 169 169 169 169 169 169 169 169 169 169 169 169 169 169 169 169 169 169 168 160 118 55 11 0 19 77 142 168 169 169 169 169 169 169 169 169 169 169
169 169 169 169 169 169 169 169 169 169 169 169 169 169 169 169 169 169 169 169 169 169 169 169 169 169 169 169 169 169 169 169 169 169 169 169 169 169 169 169 169 169 169 169 169 167 150 96 28 0 1 45 121 161 168 169 169 169 169 169 169 169 169 169
169 169 169 169 169 169 169 169 169 169 169 169 169 169 169 169 169 169 169 169 169 168 168 168 168 167 167 169 169 168 169 169 169 169 169 169 169 169 169 169 169 169 169 169 169 168 167 128 52 9 1 29 95 149 168 169 169 169 169 169 169 169 169 169
169 169 169 169 169 169 169 169 169 169 169 169 169 169 169 169 169 169 169 169 169 163 153 143 143 141 144 153 162 164 167 168 169 169 169 169 169 169 169 169 169 169 169 169 169 169 168 142 79 21 1 17 71 140 168 169 169 169 169 169 169 169 169 169
169 169 169 169 169 169 169 169 169 169 169 169 169 169 169 169 169 169 169 168 162 133 96 68 55 58 67 79 104 127 150 165 168 167 169 169 169 169 169 169 169 169 169 169 169 169 168 153 102 30 0 5 57 136 165 168 169 169 169 169 169 169 169 169
169 169 169 169 169 169 169 169 169 169 169 169 169 169 169 169 169 168 167 161 127 70 30 9 1 3 8 11 21 53 90 120 141 153 166 168 168 169 169 169 169 169 169 169 169 169 168 162 112 30 3 3 58 130 164 169 169 169 169 169 169 169 169 169
169 169 169 169 169 169 169 169 169 169 169 169 169 169 169 169 169 168 162 131 68 20 3 0 5 8 3 1 3 7 25 34 57 88 123 152 163 167 169 169 169 169 169 169 169 169 169 159 104 34 3 9 58 128 166 169 169 169 169 169 169 169 169 169
169 169 169 169 169 169 169 169 169 169 169 169 169 169 169 169 169 166 145 86 21 1 5 27 56 64 59 43 32 22 11 2 5 20 45 84 127 153 166 169 168 169 169 169 169 169 168 157 108 39 1 7 49 128 167 168 169 169 169 169 169 169 169 169
169 169 169 169 169 169 169 169 169 169 169 169 169 169 169 169 168 162 127 48 1 0 11 72 128 141 141 134 110 84 49 15 6 2 3 15 51 93 134 159 167 169 169 169 169 169 168 161 119 38 0 1 50 129 163 169 169 169 169 169 169 169 169 169
169 169 169 169 169 169 169 169 169 169 169 169 169 169 169 169 168 160 106 27 2 1 31 106 157 168 167 167 161 149 126 88 57 33 13 4 8 25 61 114 153 167 169 169 169 169 169 165 112 33 3 6 60 132 166 169 169 169 169 169 169 169 169 169
169 169 169 169 169 169 169 169 169 169 169 169 169 169 169 169 168 151 90 24 0 11 60 133 165 169 169 169 169 168 165 156 137 111 74 33 8 1 12 48 110 156 167 168 169 169 169 156 97 29 1 15 72 144 168 169 169 169 169 169 169 169 169 169
169 169 169 169 169 169 169 169 169 169 169 169 169 169 169 169 168 149 88 19 0 11 78 157 168 169 169 169 169 169 168 168 166 160 143 98 41 3 0 5 48 106 148 165 169 169 167 147 84 18 1 15 89 154 167 169 169 169 169 169 169 169 169 169
169 169 169 169 169 169 169 169 169 169 169 169 169 169 169 169 167 155 89 9 0 9 79 147 167 169 169 169 169 169 169 169 169 168 168 153 104 47 11 1 11 46 103 151 168 169 166 142 64 8 1 31 106 155 168 169 169 169 169 169 169 169 169 169
169 169 169 169 169 169 169 169 169 169 169 169 169 169 169 169 169 159 97 26 1 9 62 133 168 169 169 169 169 169 169 169 169 169 169 167 151 112 56 14 1 10 50 120 163 168 167 129 53 8 2 42 114 162 169 169 169 169 169 169 169 169 169 169
169 169 169 169 169 169 169 169 169 169 169 169 169 169 169 169 169 160 114 45 1 5 37 114 168 169 169 169 169 169 169 169 169 169 169 169 167 155 115 47 3 0 13 69 131 161 163 121 49 3 6 46 124 167 169 169 169 169 169 169 169 169 169 169
169 169 169 169 169 169 169 169 169 169 169 169 169 169 169 169 169 164 137 66 3 0 13 87 152 168 169 169 169 169 169 169 169 169 169 169 169 168 153 98 36 6 1 28 84 141 157 113 36 1 3 58 135 165 169 169 169 169 169 169 169 169 169 169
169 169 169 169 169 169 169 169 169 169 169 169 169 169 169 169 169 169 159 94 22 1 4 53 124 164 169 169 169 169 169 169 169 169 169 169 169 169 165 139 84 27 1 6 34 101 147 93 23 1 16 78 142 167 169 169 169 169 169 169 169 169 169 169
169 169 169 169 169 169 169 169 169 169 169 169 169 169 169 169 169 169 165 123 52 5 1 23 88 151 168 169 169 169 169 169 169 169 169 169 169 169 168 162 134 66 8 0 4 49 90 61 15 2 32 98 154 169 169 169 169 169 169 169 169 169 169 169
169 169 169 169 169 169 169 169 169 169 169 169 169 169 169 169 169 169 168 150 89 18 0 1 48 120 159 168 169 169 169 169 169 169 169 169 169 169 169 169 161 113 44 7 0 13 33 29 4 9 55 129 165 168 169 169 169 169 169 169 169 169 169 169
169 169 169 169 169 169 169 169 169 169 169 169 169 169 169 169 169 169 168 168 125 53 10 0 20 75 135 165 169 169 169 169 169 169 169 169 169 169 169 169 167 143 80 18 0 0 4 6 0 15 89 149 167 169 169 169 169 169 169 169 169 169 169 169
169 169 169 169 169 169 169 169 169 169 169 169 169 169 169 169 169 169 169 168 149 96 35 2 3 29 94 152 167 169 169 169 169 169 169 169 169 169 169 169 168 160 122 43 1 0 0 0 0 39 115 161 168 169 169 169 169 169 169 169 169 169 169 169
169 169 169 169 169 169 169 169 169 169 169 169 169 169 169 169 169 169 169 168 164 138 75 14 0 2 43 110 153 165 168 169 169 169 169 169 169 169 169 169 168 159 135 70 16 0 0 0 8 63 137 167 169 169 169 169 169 169 169 169 169 169 169 169
169 169 169 169 169 169 169 169 169 169 169 169 169 169 169 169 169 169 169 169 168 166 123 54 11 1 11 53 111 149 165 169 168 169 169 169 168 167 164 160 145 114 81 39 7 0 0 5 40 110 158 168 169 169 169 169 169 169 169 169 169 169 169 169
169 169 169 169 169 169 169 169 169 169 169 169 169 169 169 169 169 169 169 169 169 168 154 109 50 11 1 13 49 98 131 152 159 162 165 167 159 140 118 92 64 39 19 5 0 5 20 58 114 152 166 168 169 169 169 169 169 169 169 169 169 169 169 169
169 169 169 169 169 169 169 169 169 169 169 169 169 169 169 169 169 169 169 169 169 169 166 150 104 44 9 1 5 30 52 74 98 110 113 108 90 64 38 11 3 1 0 0 12 41 86 137 162 167 169 169 169 169 169 169 169 169 169 169 169 169 169 169
169 169 169 169 169 169 169 169 169 169 169 169 169 169 169 169 169 169 169 169 169 169 168 168 153 109 62 22 9 7 7 9 23 32 31 18 14 9 3 0 2 9 22 41 72 110 145 167 169 169 169 169 169 169 169 169 169 169 169 169 169 169 169 169
169 169 169 169 169 169 169 169 169 169 169 169 169 169 169 169 169 169 169 169 169 169 169 169 167 155 131 96 60 34 10 2 1 1 1 0 0 1 3 12 37 64 97 127 143 156 166 169 169 169 169 169 169 169 169 169 169 169 169 169 169 169 169 169
169 169 169 169 169 169 169 169 169 169 169 169 169 169 169 169 169 169 169 169 169 169 169 169 169 167 164 158 137 110 74 43 29 22 13 13 28 45 66 92 119 141 159 168 168 168 168 169 169 169 169 169 169 169 169 169 169 169 169 169 169 169 169 169
169 169 169 169 169 169 169 169 169 169 169 169 169 169 169 169 169 169 169 169 169 169 169 169 169 169 168 169 167 159 148 126 106 97 94 95 106 125 146 159 165 167 168 169 169 169 169 169 169 169 169 169 169 169 169 169 169 169 169 169 169 169 169 169
169 169 169 169 169 169 169 169 169 169 169 169 169 169 169 169 169 169 169 169 169 169 169 169 169 169 169 169 169 168 167 164 159 157 161 159 160 164 168 169 169 169 169 169 169 169 169 169 169 169 169 169 169 169 169 169 169 169 169 169 169 169 169 169
169 169 169 169 169 169 169 169 169 169 169 169 169 169 169 169 169 169 169 169 169 169 169 169 169 169 169 169 169 169 169 169 169 168 169 169 169 169 169 169 169 169 169 169 169 169 169 169 169 169 169 169 169 169 169 169 169 169 169 169 169 169 169 169
169 169 169 169 169 169 169 169 169 169 169 169 169 169 169 169 169 169 169 169 169 169 169 169 169 169 169 169 169 169 169 169 169 169 169 169 169 169 169 169 169 169 169 169 169 169 169 169 169 169 169 169 169 169 169 169 169 169 169 169 169 169 169 169
169 169 169 169 169 169 169 169 169 169 169 169 169 169 169 169 169 169 169 169 169 169 169 169 169 169 169 169 169 169 169 169 169 169 169 169 169 169 169 169 169 169 169 169 169 169 169 169 169 169 169 169 169 169 169 169 169 169 169 169 169 169 169 169
169 169 169 169 169 169 169 169 169 169 169 169 169 169 169 169 169 169 169 169 169 169 169 169 169 169 169 169 169 169 169 169 169 169 169 169 169 169 169 169 169 169 169 169 169 169 169 169 169 169 169 169 169 169 169 169 169 169 169 169 169 169 169 169
169 169 169 169 169 169 169 169 169 169 169 169 169 169 169 169 169 169 169 169 169 169 169 169 169 169 169 169 169 169 169 169 169 169 169 169 169 169 169 169 169 169 169 169 169 169 169 169 169 169 169 169 169 169 169 169 169 169 169 169 169 169 169 169
169 169 169 169 169 169 169 169 169 169 169 169 169 169 169 169 169 169 169 169 169 169 169 169 169 169 169 169 169 169 169 169 169 169 169 169 169 169 169 169 169 169 169 169 169 169 169 169 169 169 169 169 169 169 169 169 169 169 169 169 169 169 169 169
169 169 169 169 169 169 169 169 169 169 169 169 169 169 169 169 169 169 169 169 169 169 169 169 169 169 169 169 169 169 169 169 169 169 169 169 169 169 169 169 169 169 169 169 169 169 169 169 169 169 169 169 169 169 169 169 169 169 169 169 169 169 169 169
169 169 169 169 169 169 169 169 169 169 169 169 169 169 169 169 169 169 169 169 169 169 169 169 169 169 169 169 169 169 169 169 169 169 169 169 169 169 169 169 169 169 169 169 169 169 169 169 169 169 169 169 169 169 169 169 169 169 169 169 169 169 169 169
