P2
64 64
255
160 160 160 160 160 160 160 160 160 160 160 160 160 160 160 160 160 160 160 160 160 160 160 160 160 160 160 160 160 160 160 160 160 160 160 160 160 160 160 160 160 160 160 160 160 160 160 160 160 160 160 160 160 160 160 160 160 160 160 160 160 160 160 160
160 160 160 160 160 160 160 160 160 160 160 160 160 160 160 160 160 160 160 160 160 160 160 160 160 160 159 158 160 160 160 160 160 160 160 160 160 160 160 160 160 160 160 160 160 160 160 160 160 160 160 160 160 160 160 160 160 160 160 160 160 160 160 160
160 160 160 160 160 160 160 160 160 160 160 160 160 160 160 160 160 160 160 160 160 160 158 158 156 150 144 144 143 142 148 157 160 160 160 160 160 160 160 160 160 160 160 160 160 160 160 160 160 160 160 160 160 160 160 160 160 160 160 160 160 160 160 160
160 160 160 160 160 160 160 160 160 160 160 160 160 160 160 160 160 160 160 159 155 149 142 134 115 102 92 82 81 90 106 124 133 143 152 160 160 160 160 160 160 160 160 160 160 160 160 160 160 160 160 160 160 160 160 160 160 160 160 160 160 160 160 160
160 160 160 160 160 160 160 160 160 160 160 160 160 160 160 160 160 159 158 151 129 107 85 59 46 35 22 14 22 29 37 52 73 94 117 136 149 157 160 160 160 160 160 160 160 160 160 160 160 160 160 160 160 160 160 160 160 160 160 160 160 160 160 160
160 160 160 160 160 160 160 160 160 160 160 160 160 160 160 160 156 148 136 111 75 45 20 10 4 2 0 1 0 1 1 10 20 32 48 78 110 139 158 159 160 160 160 160 160 160 160 160 160 160 160 160 160 160 160 160 160 160 160 160 160 160 160 160
160 160 160 160 160 160 160 160 160 160 160 160 160 160 158 148 132 107 76 51 27 6 2 3 6 8 9 15 14 7 1 1 1 1 6 24 53 88 121 141 153 159 160 160 160 160 160 160 160 160 160 160 160 160 160 160 160 160 160 160 160 160 160 160
160 160 160 160 160 160 160 160 160 160 160 160 158 155 137 103 71 37 17 13 14 14 18 32 44 54 69 73 63 46 34 23 13 2 0 2 10 26 57 92 126 153 159 160 160 160 160 160 160 160 160 160 160 160 160 160 160 160 160 160 160 160 160 160
160 160 160 160 160 160 160 160 160 160 160 160 149 124 84 40 17 3 3 6 32 56 78 97 115 131 134 134 129 120 100 79 56 31 15 5 0 1 15 37 73 116 143 155 159 160 160 160 160 160 160 160 160 160 160 160 160 160 160 160 160 160 160 160
160 160 160 160 160 160 160 160 160 160 158 152 123 76 35 5 0 2 18 43 79 116 134 148 157 158 158 159 160 155 145 136 123 99 64 32 8 0 0 4 19 54 97 131 153 160 160 160 160 160 160 160 160 160 160 160 160 160 160 160 160 160 160 160
160 160 160 160 160 160 160 160 160 160 148 119 74 25 8 0 8 25 66 103 135 153 158 160 160 160 160 160 160 160 160 160 159 144 120 87 52 27 10 1 0 15 42 80 121 145 156 160 160 160 160 160 160 160 160 160 160 160 160 160 160 160 160 160
160 160 160 160 160 160 160 160 160 155 124 69 27 3 0 3 33 75 123 150 158 160 160 160 160 160 160 160 160 160 160 160 160 158 153 141 119 83 44 13 0 1 8 27 65 111 143 157 160 160 160 160 160 160 160 160 160 160 160 160 160 160 160 160
160 160 160 160 160 160 160 160 159 134 86 22 6 0 3 15 69 119 150 160 160 160 160 160 160 160 160 160 160 160 160 160 160 160 160 160 151 132 98 56 25 8 1 1 26 68 117 150 158 160 160 160 160 160 160 160 160 160 160 160 160 160 160 160
160 160 160 160 160 160 160 159 156 109 51 5 0 0 15 51 110 149 158 160 160 160 160 160 160 160 160 160 160 160 160 160 160 160 160 160 160 156 145 119 78 40 12 1 7 31 76 127 153 159 160 160 160 160 160 160 160 160 160 160 160 160 160 160
160 160 160 160 160 160 160 155 136 81 23 1 0 6 45 100 140 159 160 160 160 160 160 160 160 160 160 160 160 160 160 160 160 160 160 160 160 160 160 151 129 90 46 14 2 6 35 89 136 158 160 160 160 160 160 160 160 160 160 160 160 160 160 160
160 160 160 160 160 160 160 149 110 55 3 0 5 35 91 144 156 160 160 160 160 160 160 160 160 160 160 160 160 160 160 160 160 160 160 160 160 160 160 159 153 136 95 47 17 6 11 55 109 147 160 160 160 160 160 160 160 160 160 160 160 160 160 160
160 160 160 160 160 160 156 144 86 33 2 1 14 69 124 158 160 160 160 160 160 160 160 160 160 160 160 160 160 160 160 160 160 160 160 160 160 160 160 160 159 155 136 92 46 14 6 24 74 126 154 160 160 160 160 160 160 160 160 160 160 160 160 160
160 160 160 160 160 160 152 122 64 13 0 6 32 97 143 160 160 160 160 160 160 160 160 160 160 160 160 160 160 160 160 160 160 160 160 160 160 160 160 160 160 160 153 127 79 27 6 10 39 100 142 158 160 160 160 160 160 160 160 160 160 160 160 160
160 160 160 160 160 160 148 101 46 2 0 12 56 115 160 160 160 160 160 160 160 160 160 160 160 160 160 160 160 160 160 160 160 160 160 160 160 160 160 160 160 160 159 146 108 46 8 3 22 71 131 154 160 160 160 160 160 160 160 160 160 160 160 160
160 160 160 160 160 156 141 83 28 1 3 17 80 132 160 160 160 160 160 160 160 160 160 160 160 160 160 160 160 160 160 160 160 160 160 160 160 160 160 160 160 160 160 156 122 66 13 1 11 55 114 154 159 160 160 160 160 160 160 160 160 160 160 160
160 160 160 160 160 156 127 72 11 1 6 36 100 147 160 160 160 160 160 160 160 160 160 160 160 160 160 160 160 160 160 160 160 160 160 160 160 160 160 160 160 160 160 156 132 71 22 1 2 47 105 148 160 160 160 160 160 160 160 160 160 160 160 160
160 160 160 160 160 158 121 64 13 0 6 50 109 155 160 160 160 160 160 160 160 160 160 160 160 160 160 160 160 160 160 160 160 160 160 160 160 160 160 160 160 160 160 156 135 76 23 2 7 37 103 144 159 160 160 160 160 160 160 160 160 160 160 160
160 160 160 160 160 151 118 54 14 0 6 55 115 151 160 160 160 160 160 160 160 160 160 160 160 160 160 160 160 160 160 160 160 160 160 160 160 160 160 160 160 160 160 158 136 86 22 3 5 36 96 146 158 160 160 160 160 160 160 160 160 160 160 160
160 160 160 160 160 143 104 40 8 1 18 61 125 152 160 160 160 160 160 160 160 160 160 160 160 160 160 160 160 160 160 160 160 160 160 160 160 160 160 160 160 160 160 160 143 93 35 1 1 31 86 142 158 160 160 160 160 160 160 160 160 160 160 160
160 160 160 160 160 140 88 34 0 0 26 76 132 158 160 160 160 160 160 160 160 160 160 160 160 160 160 160 160 160 160 160 160 160 160 160 160 160 160 160 160 160 160 159 151 103 44 7 2 19 78 131 156 160 160 160 160 160 160 160 160 160 160 160
160 160 160 160 156 141 78 25 1 4 29 93 138 160 160 160 160 160 160 160 160 160 160 160 160 160 160 160 160 160 160 160 160 160 160 160 160 160 160 160 160 160 160 160 149 114 47 11 1 15 66 127 154 160 160 160 160 160 160 160 160 160 160 160
160 160 160 160 157 131 73 13 1 6 37 105 148 160 160 160 160 160 160 160 160 160 160 160 160 160 160 160 160 160 160 160 160 160 160 160 160 160 160 160 160 160 160 160 151 114 52 6 0 18 63 128 155 160 160 160 160 160 160 160 160 160 160 160
160 160 160 160 159 124 66 11 0 4 47 109 156 160 160 160 160 160 160 160 160 160 160 160 160 160 160 160 160 160 160 160 160 160 160 160 160 160 160 160 160 160 160 160 155 110 51 6 0 13 65 123 158 160 160 160 160 160 160 160 160 160 160 160
160 160 160 160 155 126 59 15 0 3 54 115 153 160 160 160 160 160 160 160 160 160 160 160 160 160 160 160 160 160 160 160 160 160 160 160 160 160 160 160 160 160 160 160 149 106 41 8 1 10 70 127 156 160 160 160 160 160 160 160 160 160 160 160
160 160 160 160 152 122 56 12 0 13 54 122 152 160 160 160 160 160 160 160 160 160 160 160 160 160 160 160 160 160 160 160 160 160 160 160 160 160 160 160 160 160 160 160 143 99 32 5 1 23 75 137 156 160 160 160 160 160 160 160 160 160 160 160
160 160 160 160 155 116 57 5 0 13 59 122 156 160 160 160 160 160 160 160 160 160 160 160 160 160 160 160 160 160 160 160 160 160 160 160 160 160 160 160 160 160 160 160 145 93 35 1 0 28 82 139 160 160 160 160 160 160 160 160 160 160 160 160
160 160 160 160 158 118 55 10 0 7 61 121 158 160 160 160 160 160 160 160 160 160 160 160 160 160 160 160 160 160 160 160 160 160 160 160 160 160 160 160 160 160 160 158 148 86 28 1 3 25 90 139 160 160 160 160 160 160 160 160 160 160 160 160
160 160 160 160 153 124 57 14 0 11 57 123 154 160 160 160 160 160 160 160 160 160 160 160 160 160 160 160 160 160 160 160 160 160 160 160 160 160 160 160 160 160 160 158 132 74 13 1 4 32 99 146 160 160 160 160 160 160 160 160 160 160 160 160
160 160 160 160 155 124 66 10 1 13 52 119 151 160 160 160 160 160 160 160 160 160 160 160 160 160 160 160 160 160 160 160 160 160 160 160 160 160 160 160 160 160 158 149 105 51 5 0 3 44 105 157 160 160 160 160 160 160 160 160 160 160 160 160
160 160 160 160 157 127 73 18 0 7 48 106 151 159 160 160 160 160 160 160 160 160 160 160 160 160 160 160 160 160 160 160 160 160 160 160 160 160 160 160 160 160 149 123 65 22 2 0 3 51 113 153 160 160 160 160 160 160 160 160 160 160 160 160
160 160 160 160 156 135 73 23 1 3 42 103 146 160 160 160 160 160 160 160 160 160 160 160 160 160 160 160 160 160 160 160 160 160 160 160 160 160 160 160 160 160 140 92 35 0 0 0 13 54 121 151 160 160 160 160 160 160 160 160 160 160 160 160
160 160 160 160 156 134 76 19 1 8 37 106 146 160 160 160 160 160 160 160 160 160 160 160 160 160 160 160 160 160 160 160 160 160 160 160 160 160 160 160 160 157 141 71 22 0 0 0 19 68 130 157 160 160 160 160 160 160 160 160 160 160 160 160
160 160 160 160 159 137 85 22 2 3 37 98 151 159 160 160 160 160 160 160 160 160 160 160 160 160 160 160 160 160 160 160 160 160 160 160 160 160 160 160 160 157 130 60 11 0 0 2 23 90 139 160 160 160 160 160 160 160 160 160 160 160 160 160
160 160 160 160 160 148 94 35 1 0 30 89 143 160 160 160 160 160 160 160 160 160 160 160 160 160 160 160 160 160 160 160 160 160 160 160 160 160 160 160 160 158 116 54 1 0 0 6 37 114 149 160 160 160 160 160 160 160 160 160 160 160 160 160
160 160 160 160 159 151 105 41 6 1 16 80 134 158 160 160 160 160 160 160 160 160 160 160 160 160 160 160 160 160 160 160 160 160 160 160 160 160 160 160 160 156 102 37 1 0 0 8 58 122 160 160 160 160 160 160 160 160 160 160 160 160 160 160
160 160 160 160 160 149 114 46 10 1 18 68 132 155 160 160 160 160 160 160 160 160 160 160 160 160 160 160 160 160 160 160 160 160 160 160 160 160 160 160 159 137 83 15 1 0 1 7 77 132 159 160 160 160 160 160 160 160 160 160 160 160 160 160
160 160 160 160 160 153 117 59 5 1 16 61 124 155 160 160 160 160 160 160 160 160 160 160 160 160 160 160 160 160 160 160 160 160 160 160 160 160 160 160 159 121 61 6 0 0 3 30 97 148 160 160 160 160 160 160 160 160 160 160 160 160 160 160
160 160 160 160 160 157 126 69 18 1 8 52 110 152 160 160 160 160 160 160 160 160 160 160 160 160 160 160 160 160 160 160 160 160 160 160 160 160 160 160 152 110 42 6 0 0 6 56 116 159 160 160 160 160 160 160 160 160 160 160 160 160 160 160
160 160 160 160 160 156 139 83 28 3 6 38 100 143 159 160 160 160 160 160 160 160 160 160 160 160 160 160 160 160 160 160 160 160 160 160 160 160 160 160 136 88 22 5 0 6 26 90 138 159 160 160 160 160 160 160 160 160 160 160 160 160 160 160
160 160 160 160 160 158 145 109 42 10 5 22 67 125 154 160 160 160 160 160 160 160 160 160 160 160 160 160 160 160 160 160 160 160 160 160 160 160 159 157 112 56 11 0 0 26 69 124 156 160 160 160 160 160 160 160 160 160 160 160 160 160 160 160
160 160 160 160 160 160 155 125 68 12 1 5 32 88 143 158 160 160 160 160 160 160 160 160 160 160 160 160 160 160 160 160 160 160 160 160 160 159 153 131 77 23 3 1 10 58 114 146 160 160 160 160 160 160 160 160 160 160 160 160 160 160 160 160
160 160 160 160 160 160 160 139 82 21 0 0 10 50 119 155 159 160 160 160 160 160 160 160 160 160 160 160 160 160 160 160 160 160 160 160 157 153 127 85 39 2 0 5 39 95 148 157 160 160 160 160 160 160 160 160 160 160 160 160 160 160 160 160
160 160 160 160 160 160 159 151 97 34 0 0 0 25 71 114 136 153 160 160 159 160 160 160 160 160 160 160 160 160 160 160 158 158 156 148 134 113 71 34 12 0 4 22 76 126 158 160 160 160 160 160 160 160 160 160 160 160 160 160 160 160 160 160
160 160 160 160 160 160 160 153 126 66 23 6 2 5 22 49 75 100 115 129 141 152 147 146 148 155 149 144 146 153 148 143 141 135 115 98 77 49 23 5 1 4 28 67 121 149 160 160 160 160 160 160 160 160 160 160 160 160 160 160 160 160 160 160
160 160 160 160 160 160 160 158 150 124 76 38 11 0 2 6 13 25 46 66 79 85 89 95 100 96 91 90 92 88 86 85 79 59 45 32 17 9 4 5 12 34 78 115 146 160 160 160 160 160 160 160 160 160 160 160 160 160 160 160 160 160 160 160
160 160 160 160 160 160 160 160 160 151 127 90 39 10 2 0 0 3 7 11 11 18 27 29 24 24 27 24 16 20 24 21 11 9 5 1 0 3 10 27 56 93 133 149 158 160 160 160 160 160 160 160 160 160 160 160 160 160 160 160 160 160 160 160
160 160 160 160 160 160 160 160 160 159 153 137 103 65 38 18 2 1 1 0 0 0 0 0 1 1 1 0 0 1 0 1 0 1 3 5 10 30 54 83 117 139 155 160 160 160 160 160 160 160 160 160 160 160 160 160 160 160 160 160 160 160 160 160
160 160 160 160 160 160 160 160 160 160 160 159 149 126 102 80 60 43 27 13 10 13 12 6 4 10 13 8 6 12 15 10 16 27 36 46 68 94 117 141 153 158 160 160 160 160 160 160 160 160 160 160 160 160 160 160 160 160 160 160 160 160 160 160
160 160 160 160 160 160 160 160 160 160 160 160 159 156 151 145 126 108 92 80 73 67 61 56 58 63 64 66 67 68 69 75 83 93 107 124 134 146 155 159 160 160 160 160 160 160 160 160 160 160 160 160 160 160 160 160 160 160 160 160 160 160 160 160
160 160 160 160 160 160 160 160 160 160 160 160 160 160 160 158 155 151 149 144 135 131 131 131 127 129 137 139 134 134 139 141 141 147 156 156 157 159 160 160 160 160 160 160 160 160 160 160 160 160 160 160 160 160 160 160 160 160 160 160 160 160 160 160
160 160 160 160 160 160 160 160 160 160 160 160 160 160 160 160 160 160 160 158 158 159 159 156 156 158 160 158 158 160 160 158 159 160 160 160 160 160 160 160 160 160 160 160 160 160 160 160 160 160 160 160 160 160 160 160 160 160 160 160 160 160 160 160
160 160 160 160 160 160 160 160 160 160 160 160 160 160 160 160 160 160 160 160 160 160 160 160 160 160 160 160 160 160 160 160 160 160 160 160 160 160 160 160 160 160 160 160 160 160 160 160 160 160 160 160 160 160 160 160 160 160 160 160 160 160 160 160
160 160 160 160 160 160 160 160 160 160 160 160 160 160 160 160 160 160 160 160 160 160 160 160 160 160 160 160 160 160 160 160 160 160 160 160 160 160 160 160 160 160 160 160 160 160 160 160 160 160 160 160 160 160 160 160 160 160 160 160 160 160 160 160
160 160 160 160 160 160 160 160 160 160 160 160 160 160 160 160 160 160 160 160 160 160 160 160 160 160 160 160 160 160 160 160 160 160 160 160 160 160 160 160 160 160 160 160 160 160 160 160 160 160 160 160 160 160 160 160 160 160 160 160 160 160 160 160
160 160 160 160 160 160 160 160 160 160 160 160 160 160 160 160 160 160 160 160 160 160 160 160 160 160 160 160 160 160 160 160 160 160 160 160 160 160 160 160 160 160 160 160 160 160 160 160 160 160 160 160 160 160 160 160 160 160 160 160 160 160 160 160
160 160 160 160 160 160 160 160 160 160 160 160 160 160 160 160 160 160 160 160 160 160 160 160 160 160 160 160 160 160 160 160 160 160 160 160 160 160 160 160 160 160 160 160 160 160 160 160 160 160 160 160 160 160 160 160 160 160 160 160 160 160 160 160
160 160 160 160 160 160 160 160 160 160 160 160 160 160 160 160 160 160 160 160 160 160 160 160 160 160 160 160 160 160 160 160 160 160 160 160 160 160 160 160 160 160 160 160 160 160 160 160 160 160 160 160 160 160 160 160 160 160 160 160 160 160 160 160
160 160 160 160 160 160 160 160 160 160 160 160 160 160 160 160 160 160 160 160 160 160 160 160 160 160 160 160 160 160 160 160 160 160 160 160 160 160 160 160 160 160 160 160 160 160 160 160 160 160 160 160 160 160 160 160 160 160 160 160 160 160 160 160
160 160 160 160 160 160 160 160 160 160 160 160 160 160 160 160 160 160 160 160 160 160 160 160 160 160 160 160 160 160 160 160 160 160 160 160 160 160 160 160 160 160 160 160 160 160 160 160 160 160 160 160 160 160 160 160 160 160 160 160 160 160 160 160
