P2
64 64
255
135 135 135 135 135 135 135 135 135 135 135 135 135 135 135 135 135 135 135 135 135 135 135 135 135 135 135 135 135 135 135 135 135 135 135 135 135 135 135 135 135 135 135 135 135 135 135 135 135 135 135 135 135 135 135 135 135 135 135 135 135 135 135 135
135 135 135 135 135 135 135 135 135 135 135 135 135 135 135 135 135 135 135 135 135 135 135 135 135 135 135 135 135 135 135 135 135 135 135 135 135 135 135 135 135 135 135 135 135 135 135 135 135 135 135 135 135 135 135 135 135 135 135 135 135 135 135 135
135 135 135 135 135 135 135 135 135 135 135 135 135 135 135 135 135 135 135 135 135 135 135 135 135 135 131 131 127 126 130 131 135 135 135 135 135 135 135 135 135 135 135 135 135 135 135 135 135 135 135 135 135 135 135 135 135 135 135 135 135 135 135 135
135 135 135 135 135 135 135 135 135 135 135 135 135 135 135 135 135 135 135 135 135 135 135 135 130 124 111 94 89 83 91 110 127 134 135 135 135 135 135 135 135 135 135 135 135 135 135 135 135 135 135 135 135 135 135 135 135 135 135 135 135 135 135 135
135 135 135 135 135 135 135 135 135 135 135 135 135 135 135 135 135 135 135 135 135 135 134 129 108 80 57 39 23 22 27 52 92 121 131 134 135 135 135 135 135 135 135 135 135 135 135 135 135 135 135 135 135 135 135 135 135 135 135 135 135 135 135 135
135 135 135 135 135 135 135 135 135 135 135 135 135 135 135 135 135 135 135 135 135 134 118 89 57 30 7 2 3 0 2 9 38 77 110 126 134 135 135 135 135 135 135 135 135 135 135 135 135 135 135 135 135 135 135 135 135 135 135 135 135 135 135 135
135 135 135 135 135 135 135 135 135 135 135 135 135 135 135 135 135 135 135 135 130 113 80 39 7 2 0 1 2 0 0 0 5 27 59 95 121 132 135 135 135 135 135 135 135 135 135 135 135 135 135 135 135 135 135 135 135 135 135 135 135 135 135 135
135 135 135 135 135 135 135 135 135 135 135 135 135 135 135 135 135 135 135 132 113 72 27 7 1 2 9 13 28 17 7 3 0 5 16 43 80 114 131 135 135 135 135 135 135 135 135 135 135 135 135 135 135 135 135 135 135 135 135 135 135 135 135 135
135 135 135 135 135 135 135 135 135 135 135 135 135 135 135 135 135 135 130 110 72 30 5 0 3 13 45 73 84 77 54 34 16 5 2 7 31 76 119 134 135 135 135 135 135 135 135 135 135 135 135 135 135 135 135 135 135 135 135 135 135 135 135 135
135 135 135 135 135 135 135 135 135 135 135 135 135 135 135 135 135 131 114 71 26 4 1 5 31 67 97 119 131 124 114 92 63 28 5 0 4 34 79 114 131 135 135 135 135 135 135 135 135 135 135 135 135 135 135 135 135 135 135 135 135 135 135 135
135 135 135 135 135 135 135 135 135 135 135 135 135 135 135 135 132 111 71 30 6 1 10 35 77 114 134 135 135 135 133 128 111 78 36 10 0 9 35 79 119 135 135 135 135 135 135 135 135 135 135 135 135 135 135 135 135 135 135 135 135 135 135 135
135 135 135 135 135 135 135 135 135 135 135 135 135 135 135 133 123 78 28 2 1 2 37 83 119 131 135 135 135 135 135 135 131 118 83 36 3 0 4 38 94 128 135 135 135 135 135 135 135 135 135 135 135 135 135 135 135 135 135 135 135 135 135 135
135 135 135 135 135 135 135 135 135 135 135 135 135 135 135 121 82 35 8 0 10 38 81 116 134 135 135 135 135 135 135 135 135 134 120 78 33 7 1 14 55 106 134 135 135 135 135 135 135 135 135 135 135 135 135 135 135 135 135 135 135 135 135 135
135 135 135 135 135 135 135 135 135 135 135 135 135 135 130 98 42 3 0 2 23 74 121 132 135 135 135 135 135 135 135 135 135 135 131 113 74 28 1 2 19 78 129 135 135 135 135 135 135 135 135 135 135 135 135 135 135 135 135 135 135 135 135 135
135 135 135 135 135 135 135 135 135 135 135 135 135 134 123 79 18 0 0 1 28 91 129 135 135 135 135 135 135 135 135 135 135 135 135 131 114 59 9 0 2 44 98 127 135 135 135 135 135 135 135 135 135 135 135 135 135 135 135 135 135 135 135 135
135 135 135 135 135 135 135 135 135 135 135 135 135 135 126 71 12 0 0 1 27 90 128 135 135 135 135 135 135 135 135 135 135 135 135 135 130 93 38 5 0 17 57 110 134 135 135 135 135 135 135 135 135 135 135 135 135 135 135 135 135 135 135 135
135 135 135 135 135 135 135 135 135 135 135 135 135 135 121 72 19 0 0 6 40 99 130 135 135 135 135 135 135 135 135 135 135 135 135 135 134 120 71 13 0 0 22 86 128 135 135 135 135 135 135 135 135 135 135 135 135 135 135 135 135 135 135 135
135 135 135 135 135 135 135 135 135 135 135 135 135 134 117 60 7 0 0 19 71 119 132 135 135 135 135 135 135 135 135 135 135 135 135 135 135 135 97 34 4 0 12 62 114 135 135 135 135 135 135 135 135 135 135 135 135 135 135 135 135 135 135 135
135 135 135 135 135 135 135 135 135 135 135 135 135 133 104 38 4 3 20 59 104 131 135 135 135 135 135 135 135 135 135 135 135 135 135 135 135 135 113 61 12 0 5 36 101 134 135 135 135 135 135 135 135 135 135 135 135 135 135 135 135 135 135 135
135 135 135 135 135 135 135 135 135 135 135 135 135 123 76 19 1 8 49 105 128 135 135 135 135 135 135 135 135 135 135 135 135 135 135 135 135 135 129 90 21 1 0 17 76 122 135 135 135 135 135 135 135 135 135 135 135 135 135 135 135 135 135 135
135 135 135 135 135 135 135 135 135 135 135 135 134 117 55 2 0 10 74 123 135 135 135 135 135 135 135 135 135 135 135 135 135 135 135 135 135 135 135 107 47 8 0 10 53 111 135 135 135 135 135 135 135 135 135 135 135 135 135 135 135 135 135 135
135 135 135 135 135 135 135 135 135 135 135 135 135 114 46 5 0 19 82 127 135 135 135 135 135 135 135 135 135 135 135 135 135 135 135 135 135 135 135 120 71 16 0 2 34 103 132 135 135 135 135 135 135 135 135 135 135 135 135 135 135 135 135 135
135 135 135 135 135 135 135 135 135 135 135 135 135 113 55 6 0 18 81 131 135 135 135 135 135 135 135 135 135 135 135 135 135 135 135 135 135 135 135 134 99 35 5 0 28 87 126 135 135 135 135 135 135 135 135 135 135 135 135 135 135 135 135 135
135 135 135 135 135 135 135 135 135 135 135 135 135 125 67 5 0 14 84 128 135 135 135 135 135 135 135 135 135 135 135 135 135 135 135 135 135 135 135 135 114 62 13 1 20 76 127 135 135 135 135 135 135 135 135 135 135 135 135 135 135 135 135 135
135 135 135 135 135 135 135 135 135 135 135 135 135 128 73 17 0 18 75 124 135 135 135 135 135 135 135 135 135 135 135 135 135 135 135 135 135 135 135 135 124 78 13 0 8 68 124 135 135 135 135 135 135 135 135 135 135 135 135 135 135 135 135 135
135 135 135 135 135 135 135 135 135 135 135 135 135 126 81 21 0 10 61 122 135 135 135 135 135 135 135 135 135 135 135 135 135 135 135 135 135 135 135 135 129 79 17 0 7 54 112 135 135 135 135 135 135 135 135 135 135 135 135 135 135 135 135 135
135 135 135 135 135 135 135 135 135 135 135 135 135 132 94 24 1 2 47 107 132 135 135 135 135 135 135 135 135 135 135 135 135 135 135 135 135 135 135 135 127 82 20 0 4 39 109 135 135 135 135 135 135 135 135 135 135 135 135 135 135 135 135 135
135 135 135 135 135 135 135 135 135 135 135 135 135 134 103 44 6 1 31 92 132 135 135 135 135 135 135 135 135 135 135 135 135 135 135 135 135 135 135 135 129 86 15 0 0 42 108 132 135 135 135 135 135 135 135 135 135 135 135 135 135 135 135 135
135 135 135 135 135 135 135 135 135 135 135 135 135 134 117 62 7 0 14 80 130 135 135 135 135 135 135 135 135 135 135 135 135 135 135 135 135 135 135 135 129 78 19 1 10 59 116 134 135 135 135 135 135 135 135 135 135 135 135 135 135 135 135 135
135 135 135 135 135 135 135 135 135 135 135 135 135 135 129 76 15 0 10 61 115 135 135 135 135 135 135 135 135 135 135 135 135 135 135 135 135 135 135 132 117 66 15 1 24 84 130 135 135 135 135 135 135 135 135 135 135 135 135 135 135 135 135 135
135 135 135 135 135 135 135 135 135 135 135 135 135 135 129 92 32 1 5 40 103 135 135 135 135 135 135 135 135 135 135 135 135 135 135 135 135 135 135 121 87 39 8 5 43 101 131 135 135 135 135 135 135 135 135 135 135 135 135 135 135 135 135 135
135 135 135 135 135 135 135 135 135 135 135 135 135 135 132 110 46 1 0 26 89 127 135 135 135 135 135 135 135 135 135 135 135 135 135 135 135 132 120 89 45 12 5 20 65 114 133 135 135 135 135 135 135 135 135 135 135 135 135 135 135 135 135 135
135 135 135 135 135 135 135 135 135 135 135 135 135 135 135 118 62 14 0 18 64 114 135 135 135 135 135 135 135 135 135 135 135 135 135 135 132 119 83 39 12 3 9 48 99 128 135 135 135 135 135 135 135 135 135 135 135 135 135 135 135 135 135 135
135 135 135 135 135 135 135 135 135 135 135 135 135 135 135 123 82 26 0 5 35 95 135 135 135 135 135 135 135 135 135 135 135 135 135 127 106 74 37 10 0 3 26 80 121 134 135 135 135 135 135 135 135 135 135 135 135 135 135 135 135 135 135 135
135 135 135 135 135 135 135 135 135 135 135 135 135 135 135 132 106 45 5 0 13 66 117 134 135 135 135 135 135 135 135 135 135 128 113 94 60 21 2 0 1 24 68 111 131 135 135 135 135 135 135 135 135 135 135 135 135 135 135 135 135 135 135 135
135 135 135 135 135 135 135 135 135 135 135 135 135 135 135 135 120 76 25 1 5 37 95 129 129 133 132 134 134 131 133 126 114 99 69 36 14 4 0 1 14 55 105 131 135 135 135 135 135 135 135 135 135 135 135 135 135 135 135 135 135 135 135 135
135 135 135 135 135 135 135 135 135 135 135 135 135 135 135 135 130 104 46 2 0 11 49 81 96 102 110 107 112 105 97 89 68 41 22 8 0 0 0 0 16 72 115 132 135 135 135 135 135 135 135 135 135 135 135 135 135 135 135 135 135 135 135 135
135 135 135 135 135 135 135 135 135 135 135 135 135 135 135 135 135 122 69 18 2 1 11 22 33 45 49 55 52 48 39 26 21 9 1 0 0 4 1 0 9 43 89 123 135 135 135 135 135 135 135 135 135 135 135 135 135 135 135 135 135 135 135 135
135 135 135 135 135 135 135 135 135 135 135 135 135 135 135 135 135 128 98 49 15 1 0 1 1 6 7 7 11 2 3 3 0 0 1 15 28 32 18 1 1 9 43 97 129 134 135 135 135 135 135 135 135 135 135 135 135 135 135 135 135 135 135 135
135 135 135 135 135 135 135 135 135 135 135 135 135 135 135 135 135 134 126 101 55 21 4 2 0 1 0 0 0 0 2 2 2 16 29 52 82 94 59 20 4 1 12 53 100 128 135 135 135 135 135 135 135 135 135 135 135 135 135 135 135 135 135 135
135 135 135 135 135 135 135 135 135 135 135 135 135 135 135 135 135 135 134 127 108 73 42 21 15 5 0 0 5 17 20 32 41 57 82 106 120 126 105 67 26 2 2 18 63 113 135 135 135 135 135 135 135 135 135 135 135 135 135 135 135 135 135 135
135 135 135 135 135 135 135 135 135 135 135 135 135 135 135 135 135 135 135 134 131 118 94 60 20 2 0 1 21 59 82 89 99 111 120 132 135 134 130 111 63 12 0 1 28 82 123 135 135 135 135 135 135 135 135 135 135 135 135 135 135 135 135 135
135 135 135 135 135 135 135 135 135 135 135 135 135 135 135 135 135 135 135 135 135 124 86 42 12 1 2 18 55 99 123 131 129 134 135 135 135 135 135 131 101 50 13 0 9 44 101 134 135 135 135 135 135 135 135 135 135 135 135 135 135 135 135 135
135 135 135 135 135 135 135 135 135 135 135 135 135 135 135 135 135 135 135 135 128 101 47 10 0 2 13 52 96 126 134 135 135 135 135 135 135 135 135 135 123 89 37 2 1 12 77 131 135 135 135 135 135 135 135 135 135 135 135 135 135 135 135 135
135 135 135 135 135 135 135 135 135 135 135 135 135 135 135 135 135 135 135 134 112 56 10 0 1 23 61 98 123 135 135 135 135 135 135 135 135 135 135 135 135 123 69 14 0 3 51 110 135 135 135 135 135 135 135 135 135 135 135 135 135 135 135 135
135 135 135 135 135 135 135 135 135 135 135 135 135 135 135 135 135 135 135 131 90 27 1 1 14 59 105 131 134 135 135 135 135 135 135 135 135 135 135 135 135 132 100 40 2 1 26 89 134 135 135 135 135 135 135 135 135 135 135 135 135 135 135 135
135 135 135 135 135 135 135 135 135 135 135 135 135 135 135 135 135 135 135 121 68 12 0 6 46 103 128 135 135 135 135 135 135 135 135 135 135 135 135 135 135 135 124 67 4 0 4 66 123 135 135 135 135 135 135 135 135 135 135 135 135 135 135 135
135 135 135 135 135 135 135 135 135 135 135 135 135 135 135 135 135 135 134 119 53 2 0 12 77 129 135 135 135 135 135 135 135 135 135 135 135 135 135 135 135 135 134 89 26 1 2 41 103 134 135 135 135 135 135 135 135 135 135 135 135 135 135 135
135 135 135 135 135 135 135 135 135 135 135 135 135 135 135 135 135 135 135 116 48 6 0 25 89 131 135 135 135 135 135 135 135 135 135 135 135 135 135 135 135 135 135 111 51 3 1 18 85 134 135 135 135 135 135 135 135 135 135 135 135 135 135 135
135 135 135 135 135 135 135 135 135 135 135 135 135 135 135 135 135 135 134 112 52 3 2 29 95 134 135 135 135 135 135 135 135 135 135 135 135 135 135 135 135 135 135 131 72 9 0 10 71 122 135 135 135 135 135 135 135 135 135 135 135 135 135 135
135 135 135 135 135 135 135 135 135 135 135 135 135 135 135 135 135 135 134 119 54 3 0 24 87 126 135 135 135 135 135 135 135 135 135 135 135 135 135 135 135 135 135 131 86 25 0 12 62 119 135 135 135 135 135 135 135 135 135 135 135 135 135 135
135 135 135 135 135 135 135 135 135 135 135 135 135 135 135 135 135 135 135 119 65 16 0 16 63 114 135 135 135 135 135 135 135 135 135 135 135 135 135 135 135 135 135 130 96 29 0 5 56 121 134 135 135 135 135 135 135 135 135 135 135 135 135 135
135 135 135 135 135 135 135 135 135 135 135 135 135 135 135 135 135 135 135 124 85 28 1 4 37 101 132 135 135 135 135 135 135 135 135 135 135 135 135 135 135 135 135 134 97 29 3 5 56 113 134 135 135 135 135 135 135 135 135 135 135 135 135 135
135 135 135 135 135 135 135 135 135 135 135 135 135 135 135 135 135 135 135 135 106 44 7 0 20 71 117 134 135 135 135 135 135 135 135 135 135 135 135 135 135 135 135 129 89 29 3 11 60 117 135 135 135 135 135 135 135 135 135 135 135 135 135 135
135 135 135 135 135 135 135 135 135 135 135 135 135 135 135 135 135 135 135 135 117 71 22 0 7 36 91 130 135 135 135 135 135 135 135 135 135 135 135 135 135 135 134 123 73 13 1 12 73 123 134 135 135 135 135 135 135 135 135 135 135 135 135 135
135 135 135 135 135 135 135 135 135 135 135 135 135 135 135 135 135 135 135 135 129 100 44 2 0 6 53 99 123 131 135 135 135 135 135 135 135 135 135 135 135 135 135 117 49 7 0 21 82 126 135 135 135 135 135 135 135 135 135 135 135 135 135 135
135 135 135 135 135 135 135 135 135 135 135 135 135 135 135 135 135 135 135 135 135 122 77 25 3 1 17 46 78 111 129 135 135 135 135 135 135 135 135 135 135 134 120 85 29 2 0 28 93 131 135 135 135 135 135 135 135 135 135 135 135 135 135 135
135 135 135 135 135 135 135 135 135 135 135 135 135 135 135 135 135 135 135 135 135 132 110 61 15 0 1 5 25 64 102 124 130 134 135 135 135 135 135 133 121 108 84 46 7 0 3 45 110 133 135 135 135 135 135 135 135 135 135 135 135 135 135 135
135 135 135 135 135 135 135 135 135 135 135 135 135 135 135 135 135 135 135 135 135 135 133 103 48 13 2 0 4 20 50 79 105 120 132 132 134 131 119 107 84 56 30 13 1 3 25 80 122 135 135 135 135 135 135 135 135 135 135 135 135 135 135 135
135 135 135 135 135 135 135 135 135 135 135 135 135 135 135 135 135 135 135 135 135 135 135 124 94 53 22 4 2 3 10 26 47 78 99 111 102 95 77 52 30 17 2 0 1 13 59 113 133 135 135 135 135 135 135 135 135 135 135 135 135 135 135 135
135 135 135 135 135 135 135 135 135 135 135 135 135 135 135 135 135 135 135 135 135 135 135 134 126 105 71 40 17 9 2 3 9 22 39 46 46 31 22 14 1 1 0 7 24 53 97 128 135 135 135 135 135 135 135 135 135 135 135 135 135 135 135 135
135 135 135 135 135 135 135 135 135 135 135 135 135 135 135 135 135 135 135 135 135 135 135 135 135 130 119 99 74 48 26 10 2 1 5 7 5 4 0 0 0 8 22 37 68 104 127 134 135 135 135 135 135 135 135 135 135 135 135 135 135 135 135 135
135 135 135 135 135 135 135 135 135 135 135 135 135 135 135 135 135 135 135 135 135 135 135 135 135 135 135 130 121 104 79 46 23 6 4 1 1 2 1 11 24 39 67 95 113 127 135 135 135 135 135 135 135 135 135 135 135 135 135 135 135 135 135 135
135 135 135 135 135 135 135 135 135 135 135 135 135 135 135 135 135 135 135 135 135 135 135 135 135 135 135 135 134 133 121 106 79 55 33 27 19 25 38 50 71 97 113 126 135 135 135 135 135 135 135 135 135 135 135 135 135 135 135 135 135 135 135 135
