P2
64 64
255
203 203 203 203 203 203 203 203 203 203 203 203 203 203 203 203 203 203 203 203 203 203 203 203 203 203 203 203 203 203 203 203 203 203 203 203 203 203 203 203 203 203 203 203 203 203 203 203 203 203 203 203 203 203 203 203 203 203 203 203 203 203 203 203
203 203 203 203 203 203 203 203 203 203 203 203 203 203 203 203 203 203 203 203 203 203 203 203 203 203 203 203 203 203 203 203 203 203 203 203 203 203 203 203 203 203 203 203 203 203 203 203 203 203 203 203 203 203 203 203 203 203 203 203 203 203 203 203
203 203 203 203 203 203 203 203 203 203 203 203 203 203 203 203 203 203 203 203 203 203 203 203 203 203 203 203 203 203 203 203 203 203 203 203 203 203 203 203 203 203 203 203 203 203 203 203 203 203 203 203 203 203 203 203 203 203 203 203 203 203 203 203
203 203 203 203 203 203 203 203 203 203 203 203 203 203 203 203 203 203 203 203 203 203 203 203 203 203 203 203 203 203 203 203 203 203 203 203 203 203 203 203 203 203 203 203 203 203 203 203 203 203 203 203 203 203 203 203 203 203 203 203 203 203 203 203
203 203 203 203 203 203 203 203 203 203 203 203 203 203 203 203 203 203 203 203 203 203 203 203 203 203 203 203 203 203 203 203 203 203 203 203 203 203 203 203 203 203 203 203 203 203 203 203 203 203 203 203 203 203 203 203 203 203 203 203 203 203 203 203
203 203 203 203 203 203 203 203 203 203 203 203 203 203 203 203 203 203 203 203 203 203 203 203 203 203 203 203 203 203 203 203 203 203 203 203 203 203 203 203 203 203 203 203 203 203 203 203 203 203 203 203 203 203 203 203 203 203 203 203 203 203 203 203
203 203 203 203 203 203 203 203 203 203 203 203 203 203 203 203 203 203 203 203 203 203 203 203 203 203 203 203 203 203 203 203 203 203 203 203 203 203 203 203 203 203 203 203 203 203 203 203 203 203 203 203 203 203 203 203 203 203 203 203 203 203 203 203
203 203 203 203 203 203 203 203 203 203 203 203 203 203 203 203 203 203 203 203 203 203 203 203 203 203 203 203 203 203 203 203 203 203 203 203 203 203 203 203 203 203 203 203 203 203 203 203 203 203 203 203 203 203 203 203 203 203 203 203 203 203 203 203
203 203 203 203 203 203 203 203 203 203 203 203 203 203 203 203 203 203 203 203 203 203 203 203 203 203 203 203 203 203 203 203 203 203 203 203 203 203 203 203 203 203 203 203 203 203 203 203 203 203 203 203 203 203 203 203 203 203 203 203 203 203 203 203
203 203 203 203 203 203 203 203 203 203 203 203 203 203 203 203 203 203 203 203 203 203 202 202 203 203 203 203 203 203 203 203 203 203 203 203 203 203 203 203 203 203 203 203 203 203 203 203 203 203 203 203 203 203 203 203 203 203 203 203 203 203 203 203
203 203 203 203 203 203 203 203 203 203 203 203 203 203 203 203 203 203 203 203 202 200 196 195 199 201 203 203 203 203 203 203 203 203 203 203 202 202 200 200 202 203 203 203 203 203 203 203 203 203 203 203 203 203 203 203 203 203 203 203 203 203 203 203
203 203 203 203 203 203 203 203 203 203 203 203 203 203 203 203 203 203 203 202 200 189 168 160 177 196 203 203 203 203 203 203 203 203 203 203 201 194 181 180 192 201 203 203 203 203 203 203 203 203 203 203 203 203 203 203 203 203 203 203 203 203 203 203
203 203 203 203 203 203 203 203 203 203 203 203 203 203 203 203 203 203 203 203 197 165 107 85 127 180 202 203 203 203 203 203 203 203 203 203 196 166 121 114 153 190 201 203 203 203 203 203 203 203 203 203 203 203 203 203 203 203 203 203 203 203 203 203
203 203 203 203 203 203 203 203 203 203 203 203 203 203 203 203 203 203 203 203 194 141 51 23 73 159 202 203 203 203 203 203 203 203 203 202 186 128 56 39 89 161 197 202 203 203 203 203 203 203 203 203 203 203 203 203 203 203 203 203 203 203 203 203
203 203 203 203 203 203 203 203 203 203 203 203 203 203 203 203 203 203 203 203 193 130 35 4 31 128 200 203 203 203 203 203 203 203 203 202 184 115 34 6 43 124 187 202 203 203 203 203 203 203 203 203 203 203 203 203 203 203 203 203 203 203 203 203
203 203 203 203 203 203 203 203 203 203 203 203 203 203 203 203 203 203 203 203 196 135 37 2 8 93 184 202 203 203 203 203 203 203 203 202 190 128 40 1 19 89 171 201 203 203 203 203 203 203 203 203 203 203 203 203 203 203 203 203 203 203 203 203
203 203 203 203 203 203 203 203 203 203 203 203 203 203 203 203 203 203 203 203 200 153 57 6 3 66 161 198 203 203 203 203 203 203 203 202 197 155 62 3 6 51 141 195 203 203 203 203 203 203 203 203 203 203 203 203 203 203 203 203 203 203 203 203
203 203 203 203 203 203 203 203 203 203 203 203 203 203 203 203 203 203 203 203 202 170 82 13 1 44 134 192 202 203 203 203 203 203 203 203 202 184 101 17 0 19 98 179 202 203 203 203 203 203 203 203 203 203 203 203 203 203 203 203 203 203 203 203
203 203 203 203 203 203 203 203 203 203 203 203 203 203 203 203 203 203 203 203 202 184 110 27 0 26 106 180 202 203 203 203 203 203 203 203 203 199 148 47 1 3 54 151 200 203 203 203 203 203 203 203 203 203 203 203 203 203 203 203 203 203 203 203
203 203 203 203 203 203 203 203 203 203 203 203 203 203 203 203 203 203 203 203 202 194 139 47 0 12 74 165 202 203 203 203 203 203 203 203 203 202 180 92 11 0 16 111 192 203 203 203 203 203 203 203 203 203 203 203 203 203 203 203 203 203 203 203
203 203 203 203 203 203 203 203 203 203 203 203 203 203 203 203 203 203 203 203 202 201 170 73 3 3 43 144 201 203 203 203 203 203 203 203 203 203 196 133 37 3 3 70 167 201 203 203 203 203 203 203 203 203 203 203 203 203 203 203 203 203 203 203
203 203 203 203 203 203 203 203 203 203 203 203 203 203 203 203 203 203 203 203 203 203 195 103 7 0 19 119 196 203 203 203 203 203 203 203 203 203 201 164 74 12 1 45 138 195 202 203 203 203 203 203 203 203 203 203 203 203 203 203 203 203 203 203
203 203 203 203 203 203 203 203 203 203 203 203 203 203 203 203 203 203 203 203 203 203 200 129 24 0 3 89 182 202 203 203 203 203 203 203 203 203 202 180 105 26 0 25 108 184 202 203 203 203 203 203 203 203 203 203 203 203 203 203 203 203 203 203
203 203 203 203 203 203 203 203 203 203 203 203 203 203 203 203 203 203 203 203 203 203 202 153 55 6 1 56 157 201 203 203 203 203 203 203 203 203 202 192 136 47 2 8 68 159 198 203 203 203 203 203 203 203 203 203 203 203 203 203 203 203 203 203
203 203 203 203 203 203 203 203 203 203 203 203 203 203 203 203 203 203 203 203 203 203 202 173 90 18 0 29 122 192 202 203 203 203 203 203 203 203 203 200 169 82 11 1 36 122 188 202 203 203 203 203 203 203 203 203 203 203 203 203 203 203 203 203
203 203 203 203 203 203 203 203 203 203 203 203 203 203 203 203 203 203 203 203 203 203 202 189 126 37 1 8 86 176 201 203 203 203 203 203 203 203 203 202 192 125 34 0 15 81 167 201 203 203 203 203 203 203 203 203 203 203 203 203 203 203 203 203
203 203 203 203 203 203 203 203 203 203 203 203 203 203 203 203 203 203 203 203 203 203 203 199 157 62 3 3 60 156 199 203 203 203 203 203 203 203 203 203 201 166 68 3 3 40 133 196 203 203 203 203 203 203 203 203 203 203 203 203 203 203 203 203
203 203 203 203 203 203 203 203 203 203 203 203 203 203 203 203 203 203 203 203 203 203 203 202 178 90 12 1 40 132 192 203 203 203 203 203 203 203 203 203 203 192 110 12 0 11 92 179 202 203 203 203 203 203 203 203 203 203 203 203 203 203 203 203
203 203 203 203 203 203 203 203 203 203 203 203 203 203 203 203 203 203 203 203 203 203 203 202 191 114 23 0 23 105 181 202 203 203 203 203 203 203 203 203 203 200 151 52 3 1 50 152 201 203 203 203 203 203 203 203 203 203 203 203 203 203 203 203
203 203 203 203 203 203 203 203 203 203 203 203 203 203 203 203 203 203 203 203 203 203 203 203 200 141 39 0 11 79 169 202 203 203 203 203 203 203 203 203 203 202 176 94 18 0 19 110 191 202 203 203 203 203 203 203 203 203 203 203 203 203 203 203
203 203 203 203 203 203 203 203 203 203 203 203 203 203 203 203 203 203 203 203 203 203 203 203 202 159 58 1 3 51 151 201 203 202 202 202 202 202 202 202 202 199 184 124 39 3 4 70 164 199 202 203 203 203 203 203 203 203 203 203 203 203 203 203
203 203 203 203 203 203 203 203 203 203 203 203 203 203 203 203 203 203 203 203 203 203 203 203 202 176 90 11 0 18 116 194 200 191 182 173 165 156 147 138 129 117 112 93 43 7 0 42 132 191 202 203 203 203 203 203 203 203 203 203 203 203 203 203
203 203 203 203 203 203 203 203 203 203 203 203 203 203 203 203 203 203 203 202 202 202 202 201 197 184 116 30 2 3 54 111 117 106 93 80 67 55 42 29 19 16 19 23 14 2 0 19 99 180 202 203 203 203 203 203 203 203 203 203 203 203 203 203
203 203 203 203 203 203 203 203 203 203 203 203 203 203 203 203 202 201 196 185 172 163 157 150 143 129 87 28 2 0 5 15 19 16 13 11 7 4 2 0 0 0 0 0 0 0 0 8 73 169 202 203 203 203 203 203 203 203 203 203 203 203 203 203
203 203 203 203 203 203 203 203 203 203 203 203 203 203 203 202 200 184 148 111 82 62 51 47 45 38 24 7 0 0 0 0 0 0 1 1 2 3 3 10 17 16 15 18 11 0 0 10 77 172 202 203 203 203 203 203 203 203 203 203 203 203 203 203
203 203 203 203 203 203 203 203 203 203 203 203 203 203 203 203 190 130 57 24 9 2 1 0 0 0 0 0 0 0 0 6 23 39 49 59 70 79 90 102 106 98 92 104 93 49 22 49 127 189 203 203 203 203 203 203 203 203 203 203 203 203 203 203
203 203 203 203 203 203 203 203 203 203 203 203 203 203 203 202 173 80 11 1 0 3 10 15 18 21 28 27 9 0 2 32 96 134 146 157 169 180 184 187 188 183 179 184 184 165 142 153 185 200 203 203 203 203 203 203 203 203 203 203 203 203 203 203
203 203 203 203 203 203 203 203 203 203 203 203 203 203 203 202 177 102 39 27 39 62 78 88 94 102 119 118 57 2 3 39 133 190 196 199 201 203 203 203 203 203 202 202 202 203 201 202 202 203 203 203 203 203 203 203 203 203 203 203 203 203 203 203
203 203 203 203 203 203 203 203 203 203 203 203 203 203 203 203 195 166 135 131 148 162 170 175 178 183 191 190 104 10 0 19 110 188 203 203 203 203 203 203 203 203 203 203 203 203 203 203 203 203 203 203 203 203 203 203 203 203 203 203 203 203 203 203
203 203 203 203 203 203 203 203 203 203 203 203 203 203 203 203 202 199 197 201 202 202 202 202 202 202 202 200 137 32 0 4 75 171 202 203 203 203 203 203 203 203 203 203 203 203 203 203 203 203 203 203 203 203 203 203 203 203 203 203 203 203 203 203
203 203 203 203 203 203 203 203 203 203 203 203 203 203 203 203 203 203 202 203 203 203 203 203 203 203 203 202 161 66 7 0 46 149 202 203 203 203 203 203 203 203 203 203 203 203 203 203 203 203 203 203 203 203 203 203 203 203 203 203 203 203 203 203
203 203 203 203 203 203 203 203 203 203 203 203 203 203 203 203 203 203 203 203 203 203 203 203 203 203 203 202 179 98 20 0 23 115 192 202 203 203 203 203 203 203 203 203 203 203 203 203 203 203 203 203 203 203 203 203 203 203 203 203 203 203 203 203
203 203 203 203 203 203 203 203 203 203 203 203 203 203 203 203 203 203 203 203 203 203 203 203 203 203 203 203 192 132 40 2 7 82 174 200 203 203 203 203 203 203 203 203 203 203 203 203 203 203 203 203 203 203 203 203 203 203 203 203 203 203 203 203
203 203 203 203 203 203 203 203 203 203 203 203 203 203 203 203 203 203 203 203 203 203 203 203 203 203 203 203 200 160 66 7 1 51 145 195 203 203 203 203 203 203 203 203 203 203 203 203 203 203 203 203 203 203 203 203 203 203 203 203 203 203 203 203
203 203 203 203 203 203 203 203 203 203 203 203 203 203 203 203 203 203 203 203 203 203 203 203 203 203 203 203 202 176 87 11 0 24 106 182 202 203 203 203 203 203 203 203 203 203 203 203 203 203 203 203 203 203 203 203 203 203 203 203 203 203 203 203
203 203 203 203 203 203 203 203 203 203 203 203 203 203 203 203 203 203 203 203 203 203 203 203 203 203 203 203 202 188 106 15 0 11 77 169 202 203 203 203 203 203 203 203 203 203 203 203 203 203 203 203 203 203 203 203 203 203 203 203 203 203 203 203
203 203 203 203 203 203 203 203 203 203 203 203 203 203 203 203 203 203 203 203 203 203 203 203 203 203 203 203 202 197 131 29 0 8 68 165 202 203 203 203 203 203 203 203 203 203 203 203 203 203 203 203 203 203 203 203 203 203 203 203 203 203 203 203
203 203 203 203 203 203 203 203 203 203 203 203 203 203 203 203 203 203 203 203 203 203 203 203 203 203 203 203 203 202 153 47 0 4 63 162 202 203 203 203 203 203 203 203 203 203 203 203 203 203 203 203 203 203 203 203 203 203 203 203 203 203 203 203
203 203 203 203 203 203 203 203 203 203 203 203 203 203 203 203 203 203 203 203 203 203 203 203 203 203 203 203 203 202 162 64 4 1 53 157 202 203 203 203 203 203 203 203 203 203 203 203 203 203 203 203 203 203 203 203 203 203 203 203 203 203 203 203
203 203 203 203 203 203 203 203 203 203 203 203 203 203 203 203 203 203 203 203 203 203 203 203 203 203 203 203 203 202 169 78 11 1 46 146 200 202 203 203 203 203 203 203 203 203 203 203 203 203 203 203 203 203 203 203 203 203 203 203 203 203 203 203
203 203 203 203 203 203 203 203 203 203 203 203 203 203 203 203 203 203 203 203 203 203 203 203 203 203 203 203 203 202 174 90 18 1 39 132 193 202 203 203 203 203 203 203 203 203 203 203 203 203 203 203 203 203 203 203 203 203 203 203 203 203 203 203
203 203 203 203 203 203 203 203 203 203 203 203 203 203 203 203 203 203 203 203 203 203 203 203 203 203 203 203 203 202 181 107 27 0 27 112 185 202 203 203 203 203 203 203 203 203 203 203 203 203 203 203 203 203 203 203 203 203 203 203 203 203 203 203
203 203 203 203 203 203 203 203 203 203 203 203 203 203 203 203 203 203 203 203 203 203 203 203 203 203 203 203 203 202 190 133 44 1 15 86 173 202 203 203 203 203 203 203 203 203 203 203 203 203 203 203 203 203 203 203 203 203 203 203 203 203 203 203
203 203 203 203 203 203 203 203 203 203 203 203 203 203 203 203 203 203 203 203 203 203 203 203 203 203 203 203 203 203 199 165 78 11 11 76 168 202 203 203 203 203 203 203 203 203 203 203 203 203 203 203 203 203 203 203 203 203 203 203 203 203 203 203
203 203 203 203 203 203 203 203 203 203 203 203 203 203 203 203 203 203 203 203 203 203 203 203 203 203 203 203 203 203 202 192 138 70 55 120 184 203 203 203 203 203 203 203 203 203 203 203 203 203 203 203 203 203 203 203 203 203 203 203 203 203 203 203
203 203 203 203 203 203 203 203 203 203 203 203 203 203 203 203 203 203 203 203 203 203 203 203 203 203 203 203 203 203 203 202 188 162 156 181 200 203 203 203 203 203 203 203 203 203 203 203 203 203 203 203 203 203 203 203 203 203 203 203 203 203 203 203
203 203 203 203 203 203 203 203 203 203 203 203 203 203 203 203 203 203 203 203 203 203 203 203 203 203 203 203 203 203 203 203 201 200 201 203 203 203 203 203 203 203 203 203 203 203 203 203 203 203 203 203 203 203 203 203 203 203 203 203 203 203 203 203
203 203 203 203 203 203 203 203 203 203 203 203 203 203 203 203 203 203 203 203 203 203 203 203 203 203 203 203 203 203 203 203 203 203 203 203 203 203 203 203 203 203 203 203 203 203 203 203 203 203 203 203 203 203 203 203 203 203 203 203 203 203 203 203
203 203 203 203 203 203 203 203 203 203 203 203 203 203 203 203 203 203 203 203 203 203 203 203 203 203 203 203 203 203 203 203 203 203 203 203 203 203 203 203 203 203 203 203 203 203 203 203 203 203 203 203 203 203 203 203 203 203 203 203 203 203 203 203
203 203 203 203 203 203 203 203 203 203 203 203 203 203 203 203 203 203 203 203 203 203 203 203 203 203 203 203 203 203 203 203 203 203 203 203 203 203 203 203 203 203 203 203 203 203 203 203 203 203 203 203 203 203 203 203 203 203 203 203 203 203 203 203
203 203 203 203 203 203 203 203 203 203 203 203 203 203 203 203 203 203 203 203 203 203 203 203 203 203 203 203 203 203 203 203 203 203 203 203 203 203 203 203 203 203 203 203 203 203 203 203 203 203 203 203 203 203 203 203 203 203 203 203 203 203 203 203
203 203 203 203 203 203 203 203 203 203 203 203 203 203 203 203 203 203 203 203 203 203 203 203 203 203 203 203 203 203 203 203 203 203 203 203 203 203 203 203 203 203 203 203 203 203 203 203 203 203 203 203 203 203 203 203 203 203 203 203 203 203 203 203
203 203 203 203 203 203 203 203 203 203 203 203 203 203 203 203 203 203 203 203 203 203 203 203 203 203 203 203 203 203 203 203 203 203 203 203 203 203 203 203 203 203 203 203 203 203 203 203 203 203 203 203 203 203 203 203 203 203 203 203 203 203 203 203
203 203 203 203 203 203 203 203 203 203 203 203 203 203 203 203 203 203 203 203 203 203 203 203 203 203 203 203 203 203 203 203 203 203 203 203 203 203 203 203 203 203 203 203 203 203 203 203 203 203 203 203 203 203 203 203 203 203 203 203 203 203 203 203
