P2
64 64
255
203 203 203 203 203 203 203 203 203 203 203 203 203 203 203 203 203 203 203 203 203 203 203 203 203 203 203 203 203 203 203 203 203 203 203 203 203 203 203 203 203 203 203 203 203 203 203 203 203 203 203 203 203 203 203 203 203 203 203 203 203 203 203 203
203 203 203 203 203 203 203 203 203 203 203 203 203 203 203 203 203 203 203 203 203 203 203 203 203 203 203 203 203 203 203 203 203 203 203 203 203 203 203 203 203 203 203 203 203 203 203 203 203 203 203 203 203 203 203 203 203 203 203 203 203 203 203 203
203 203 203 203 203 203 203 203 203 203 203 203 203 203 203 203 203 203 203 203 203 203 203 203 203 203 203 203 203 203 203 203 203 203 203 203 203 203 203 203 203 203 203 203 203 203 203 203 203 203 203 203 203 203 203 203 203 203 203 203 203 203 203 203
203 203 203 203 203 203 203 203 203 203 203 203 203 203 203 203 203 203 203 203 203 203 203 203 203 203 203 203 203 203 203 203 203 203 203 203 203 203 203 203 203 203 203 203 203 203 203 203 203 203 203 203 203 203 203 203 203 203 203 203 203 203 203 203
203 203 203 203 203 203 203 203 203 203 203 203 203 203 203 203 203 203 203 203 203 203 203 203 203 203 203 203 203 203 203 203 203 203 203 203 203 203 203 203 203 203 203 203 203 203 203 203 203 203 203 203 203 203 203 203 203 203 203 203 203 203 203 203
203 203 203 203 203 203 203 203 203 203 203 203 203 203 203 203 203 203 203 203 203 203 203 203 203 203 203 203 203 203 203 203 203 203 203 203 203 203 203 203 203 203 203 203 203 203 203 203 203 203 203 203 203 203 203 203 203 203 203 203 203 203 203 203
203 203 203 203 203 203 203 203 203 203 203 203 203 203 203 203 203 203 203 203 203 203 203 203 203 203 203 203 203 203 203 203 203 203 203 203 203 203 203 203 203 203 203 203 203 203 203 203 203 203 203 203 203 203 203 203 203 203 203 203 203 203 203 203
203 203 203 203 203 203 203 203 203 203 203 203 203 203 203 203 203 203 203 203 203 203 203 203 203 203 203 203 203 203 203 203 203 203 203 203 203 203 203 203 203 203 203 203 203 203 203 203 203 203 203 203 203 203 203 203 203 203 203 203 203 203 203 203
203 203 203 203 203 203 203 203 203 203 203 203 203 203 203 203 203 203 203 203 203 203 203 203 203 203 203 203 203 203 203 202 202 202 203 203 202 202 202 203 203 203 203 203 203 203 203 203 203 203 203 203 203 203 203 203 203 203 203 203 203 203 203 203
203 203 203 203 203 203 203 203 203 203 203 203 203 203 203 203 203 203 203 203 203 203 203 203 203 202 202 202 201 201 201 189 177 173 178 188 195 197 200 203 203 203 203 203 203 203 203 203 203 203 203 203 203 203 203 203 203 203 203 203 203 203 203 203
203 203 203 203 203 203 203 203 203 203 203 203 203 203 203 203 203 203 203 203 202 202 201 201 201 194 179 163 147 132 119 105 92 85 92 110 141 162 178 191 200 202 202 203 203 203 203 203 203 203 203 203 203 203 203 203 203 203 203 203 203 203 203 203
203 203 203 203 203 203 203 203 203 203 203 203 203 203 203 203 203 203 203 202 199 186 165 143 123 106 87 68 50 31 14 10 12 11 17 23 41 76 104 130 164 190 200 202 203 203 203 203 203 203 203 203 203 203 203 203 203 203 203 203 203 203 203 203
203 203 203 203 203 203 203 203 203 203 203 203 203 203 203 203 203 203 202 200 176 132 84 46 21 7 5 3 3 1 0 0 0 0 0 2 4 14 23 44 80 131 176 196 201 202 203 203 203 203 203 203 203 203 203 203 203 203 203 203 203 203 203 203
203 203 203 203 203 203 203 203 203 203 203 203 203 203 203 203 203 202 200 176 117 57 19 4 0 0 1 2 3 5 6 16 31 38 35 28 19 7 2 4 19 51 108 161 185 196 202 203 203 203 203 203 203 203 203 203 203 203 203 203 203 203 203 203
203 203 203 203 203 203 203 203 203 203 203 203 203 203 203 203 203 200 177 115 43 7 0 0 3 10 29 47 66 85 102 115 125 129 126 117 91 49 23 7 2 10 33 82 127 165 192 202 202 202 203 203 203 203 203 203 203 203 203 203 203 203 203 203
203 203 203 203 203 203 203 203 203 203 203 203 203 203 203 203 203 193 145 62 3 0 1 27 70 110 130 145 161 177 192 199 196 193 191 188 177 135 89 49 19 6 5 20 52 94 141 183 196 201 203 203 203 203 203 203 203 203 203 203 203 203 203 203
203 203 203 203 203 203 203 203 203 203 203 203 203 203 203 203 202 186 129 35 1 0 11 66 145 199 201 201 202 202 202 203 203 203 203 202 200 191 167 129 86 47 18 6 8 26 61 121 169 195 202 203 203 203 203 203 203 203 203 203 203 203 203 203
203 203 203 203 203 203 203 203 203 203 203 203 203 203 203 203 202 189 132 35 5 0 22 87 173 202 203 203 203 203 203 203 203 203 203 203 202 202 200 187 162 123 72 27 5 2 15 65 133 185 202 202 203 203 203 203 203 203 203 203 203 203 203 203
203 203 203 203 203 203 203 203 203 203 203 203 203 203 203 203 202 201 141 56 11 0 17 78 165 196 202 203 203 203 203 203 203 203 203 203 203 203 203 201 196 182 151 89 41 19 19 60 129 185 201 203 203 203 203 203 203 203 203 203 203 203 203 203
203 203 203 203 203 203 203 203 203 203 203 203 203 203 203 203 203 202 159 85 23 0 3 43 118 174 199 203 203 203 203 203 203 203 203 203 203 203 203 203 202 200 197 163 118 86 83 114 165 192 201 203 203 203 203 203 203 203 203 203 203 203 203 203
203 203 203 203 203 203 203 203 203 203 203 203 203 203 203 203 203 202 180 127 51 4 0 13 59 126 184 201 202 203 203 203 203 203 203 203 203 203 203 203 203 203 202 196 181 165 161 175 194 200 202 203 203 203 203 203 203 203 203 203 203 203 203 203
203 203 203 203 203 203 203 203 203 203 203 203 203 203 203 203 203 202 196 175 105 38 9 2 19 62 138 183 197 202 203 203 203 203 203 203 203 203 203 203 203 203 203 202 200 198 197 200 203 203 203 203 203 203 203 203 203 203 203 203 203 203 203 203
203 203 203 203 203 203 203 203 203 203 203 203 203 203 203 203 203 203 202 198 162 98 39 4 2 14 74 129 165 188 200 202 200 200 202 203 203 202 202 203 203 203 203 203 203 203 203 203 203 203 203 203 203 203 203 203 203 203 203 203 203 203 203 203
203 203 203 203 203 203 203 203 203 203 203 203 203 203 203 203 203 203 203 202 193 157 96 32 7 7 30 58 88 123 152 169 164 158 162 177 193 198 200 202 203 203 203 203 203 203 203 203 203 203 203 203 203 203 203 203 203 203 203 203 203 203 203 203
203 203 203 203 203 203 203 203 203 203 203 203 203 203 203 203 203 203 203 203 201 192 161 106 60 32 15 8 18 34 40 36 44 52 61 73 103 144 175 196 203 203 203 203 203 203 203 203 203 203 203 203 203 203 203 203 203 203 203 203 203 203 203 203
203 203 203 203 203 203 203 203 203 203 203 203 203 203 203 203 203 203 203 203 202 200 184 151 106 60 18 0 0 1 3 0 0 0 1 8 16 50 114 177 202 202 203 203 203 203 203 203 203 203 203 203 203 203 203 203 203 203 203 203 203 203 203 203
203 203 203 203 203 203 203 203 203 203 203 203 203 203 203 203 203 203 203 202 200 180 149 109 66 28 7 1 0 0 0 0 0 0 0 0 0 12 66 162 196 202 203 203 203 203 203 203 203 203 203 203 203 203 203 203 203 203 203 203 203 203 203 203
203 203 203 203 203 203 203 203 203 203 203 203 203 203 203 203 203 202 200 189 159 110 66 35 14 2 0 0 0 0 0 0 4 5 3 1 2 17 90 165 196 203 203 203 203 203 203 203 203 203 203 203 203 203 203 203 203 203 203 203 203 203 203 203
203 203 203 203 203 203 203 203 203 203 203 203 203 203 203 202 200 191 165 124 70 29 7 1 0 1 7 23 38 51 61 60 59 62 67 70 76 108 154 186 200 203 203 203 203 203 203 203 203 203 203 203 203 203 203 203 203 203 203 203 203 203 203 203
203 203 203 203 203 203 203 203 203 203 203 203 203 203 203 201 184 139 85 39 9 0 1 10 28 53 82 107 125 142 158 174 177 172 167 168 178 194 197 200 202 203 203 203 203 203 203 203 203 203 203 203 203 203 203 203 203 203 203 203 203 203 203 203
203 203 203 203 203 203 203 203 203 203 203 203 203 203 203 192 137 67 20 4 0 6 27 63 106 145 176 185 190 194 197 201 203 202 202 202 201 202 203 203 203 203 203 203 203 203 203 203 203 203 203 203 203 203 203 203 203 203 203 203 203 203 203 203
203 203 203 203 203 203 203 203 203 203 203 203 203 203 198 155 77 17 0 0 2 39 94 145 177 195 202 203 203 203 203 203 203 203 203 203 203 203 203 203 203 203 203 203 203 203 203 203 203 203 203 203 203 203 203 203 203 203 203 203 203 203 203 203
203 203 203 203 203 203 203 203 203 203 203 203 203 200 173 102 27 0 0 8 47 112 164 192 201 202 203 203 203 203 203 203 203 203 203 203 203 203 203 203 203 203 203 203 203 203 203 203 203 203 203 203 203 203 203 203 203 203 203 203 203 203 203 203
203 203 203 203 203 203 203 203 203 203 203 203 201 185 131 47 1 0 7 52 125 180 197 202 202 203 203 203 203 203 203 203 203 203 203 203 203 203 203 203 203 203 203 203 203 203 203 203 203 203 203 203 203 203 203 203 203 203 203 203 203 203 203 203
203 203 203 203 203 203 203 203 203 203 203 203 197 166 91 9 0 1 31 102 178 203 203 203 203 203 203 203 203 203 203 203 203 203 203 203 203 203 203 203 203 203 203 203 203 203 203 203 203 203 203 203 203 203 203 203 203 203 203 203 203 203 203 203
203 203 203 203 203 203 203 203 203 203 203 202 192 149 59 9 0 15 68 147 196 202 203 203 203 203 203 203 203 203 203 203 203 203 203 203 203 203 203 203 203 203 203 203 203 203 203 203 203 203 203 203 203 203 203 203 203 203 203 203 203 203 203 203
203 203 203 203 203 203 203 203 203 203 203 200 188 125 43 7 3 34 106 183 200 203 203 203 203 203 203 203 203 203 203 203 203 203 203 203 203 203 203 203 203 203 203 203 203 203 203 203 203 203 203 203 203 203 203 203 203 203 203 203 203 203 203 203
203 203 203 203 203 203 203 203 203 203 202 202 180 106 34 1 7 38 125 185 201 203 203 203 203 203 203 203 203 203 203 203 203 203 203 203 203 203 203 203 203 203 203 203 203 203 203 203 203 203 203 203 203 203 203 203 203 203 203 203 203 203 203 203
203 203 203 203 203 203 203 203 203 203 203 202 173 101 28 0 0 27 110 175 201 203 203 203 203 203 203 203 203 203 203 203 203 203 203 203 203 203 203 203 203 203 203 203 203 203 203 203 203 203 203 203 203 203 203 203 203 203 203 203 203 203 203 203
203 203 203 203 203 203 203 203 203 203 203 202 175 110 26 0 0 21 91 165 202 203 203 203 203 203 203 203 203 203 203 203 203 203 203 203 203 203 203 203 203 203 203 203 203 203 202 202 202 202 202 202 203 203 203 203 203 203 203 203 203 203 203 203
203 203 203 203 203 203 203 203 203 203 203 202 187 132 40 7 0 21 82 165 202 202 203 203 203 203 203 203 203 203 203 203 203 203 203 203 203 203 203 203 203 203 203 203 202 200 192 177 175 184 193 200 203 203 203 203 203 203 203 203 203 203 203 203
203 203 203 203 203 203 203 203 203 203 203 202 200 151 66 16 0 18 78 167 196 203 203 203 203 203 203 203 203 203 203 203 203 203 203 203 203 203 203 203 203 203 203 203 201 190 152 108 94 120 166 196 202 203 203 203 203 203 203 203 203 203 203 203
203 203 203 203 203 203 203 203 203 203 203 203 201 157 80 17 0 8 78 161 196 203 203 203 203 203 203 203 203 203 203 203 203 203 203 203 203 203 203 203 203 203 203 202 199 161 96 42 26 54 137 186 200 203 203 203 203 203 203 203 203 203 203 203
203 203 203 203 203 203 203 203 203 203 203 203 200 163 88 15 0 7 74 153 197 203 203 203 203 203 203 203 203 203 203 203 203 203 203 203 203 203 203 203 203 203 203 203 185 122 50 8 7 47 133 184 200 203 203 203 203 203 203 203 203 203 203 203
203 203 203 203 203 203 203 203 203 203 203 203 200 173 98 12 1 7 61 141 200 203 203 203 203 203 203 203 203 203 203 203 203 203 203 203 203 203 203 203 203 203 203 198 157 80 15 0 4 66 147 193 202 203 203 203 203 203 203 203 203 203 203 203
203 203 203 203 203 203 203 203 203 203 203 203 200 189 115 31 2 3 36 118 193 201 203 203 203 203 203 203 203 203 203 203 203 203 203 203 203 203 203 203 203 203 203 187 129 39 0 0 16 86 165 200 203 203 203 203 203 203 203 203 203 203 203 203
203 203 203 203 203 203 203 203 203 203 203 203 202 199 138 57 7 0 11 82 161 194 202 203 203 203 203 203 203 203 203 203 203 203 203 203 203 203 203 203 203 203 201 180 105 16 1 0 31 106 185 203 203 203 203 203 203 203 203 203 203 203 203 203
203 203 203 203 203 203 203 203 203 203 203 203 203 201 164 93 20 0 1 50 123 179 202 203 203 203 203 203 203 203 203 203 203 203 203 203 203 203 203 203 203 201 193 158 66 12 0 8 53 142 197 202 203 203 203 203 203 203 203 203 203 203 203 203
203 203 203 203 203 203 203 203 203 203 203 203 203 202 184 131 45 8 0 27 86 160 201 202 203 203 203 203 203 203 203 203 203 203 203 203 203 203 203 202 200 193 161 86 22 1 0 15 81 172 198 203 203 203 203 203 203 203 203 203 203 203 203 203
203 203 203 203 203 203 203 203 203 203 203 203 203 202 198 163 84 25 1 11 46 124 179 193 200 202 203 202 202 202 203 203 203 203 202 202 202 202 202 193 177 149 90 29 1 0 3 31 122 184 201 203 203 203 203 203 203 203 203 203 203 203 203 203
203 203 203 203 203 203 203 203 203 203 203 203 203 202 202 181 121 51 5 1 10 50 102 137 157 169 181 192 188 189 193 198 200 200 194 186 177 165 155 133 102 66 28 5 0 7 30 94 162 196 203 203 203 203 203 203 203 203 203 203 203 203 203 203
203 203 203 203 203 203 203 203 203 203 203 203 203 203 203 193 158 96 27 4 1 3 18 43 63 78 90 105 118 125 132 137 144 151 144 125 101 77 55 38 23 11 3 1 7 50 106 161 192 202 203 203 203 203 203 203 203 203 203 203 203 203 203 203
203 203 203 203 203 203 203 203 203 203 203 203 203 203 203 200 189 159 90 37 8 0 0 0 4 12 14 13 25 36 41 43 42 45 48 41 26 14 4 0 0 1 7 25 70 133 177 196 202 203 203 203 203 203 203 203 203 203 203 203 203 203 203 203
203 203 203 203 203 203 203 203 203 203 203 203 203 203 203 202 202 193 157 106 54 15 8 9 5 2 0 0 0 1 1 3 3 0 0 1 0 0 1 7 19 38 63 106 157 188 200 203 203 203 203 203 203 203 203 203 203 203 203 203 203 203 203 203
203 203 203 203 203 203 203 203 203 203 203 203 203 203 203 203 203 202 193 173 145 115 88 70 59 49 36 19 17 19 16 10 3 3 7 13 22 35 47 65 90 119 149 177 197 202 203 203 203 203 203 203 203 203 203 203 203 203 203 203 203 203 203 203
203 203 203 203 203 203 203 203 203 203 203 203 203 203 203 203 203 203 202 200 196 192 184 167 152 142 132 119 105 95 88 82 77 66 63 74 95 121 145 160 172 185 194 200 202 203 203 203 203 203 203 203 203 203 203 203 203 203 203 203 203 203 203 203
203 203 203 203 203 203 203 203 203 203 203 203 203 203 203 203 203 203 203 203 203 202 203 201 200 196 192 193 188 179 172 169 171 171 162 163 173 187 196 202 202 202 203 203 203 203 203 203 203 203 203 203 203 203 203 203 203 203 203 203 203 203 203 203
203 203 203 203 203 203 203 203 203 203 203 203 203 203 203 203 203 203 203 203 203 203 203 203 203 203 202 202 203 202 201 200 200 202 202 202 202 202 202 203 203 203 203 203 203 203 203 203 203 203 203 203 203 203 203 203 203 203 203 203 203 203 203 203
203 203 203 203 203 203 203 203 203 203 203 203 203 203 203 203 203 203 203 203 203 203 203 203 203 203 203 203 203 203 203 203 203 203 203 203 203 203 203 203 203 203 203 203 203 203 203 203 203 203 203 203 203 203 203 203 203 203 203 203 203 203 203 203
203 203 203 203 203 203 203 203 203 203 203 203 203 203 203 203 203 203 203 203 203 203 203 203 203 203 203 203 203 203 203 203 203 203 203 203 203 203 203 203 203 203 203 203 203 203 203 203 203 203 203 203 203 203 203 203 203 203 203 203 203 203 203 203
203 203 203 203 203 203 203 203 203 203 203 203 203 203 203 203 203 203 203 203 203 203 203 203 203 203 203 203 203 203 203 203 203 203 203 203 203 203 203 203 203 203 203 203 203 203 203 203 203 203 203 203 203 203 203 203 203 203 203 203 203 203 203 203
203 203 203 203 203 203 203 203 203 203 203 203 203 203 203 203 203 203 203 203 203 203 203 203 203 203 203 203 203 203 203 203 203 203 203 203 203 203 203 203 203 203 203 203 203 203 203 203 203 203 203 203 203 203 203 203 203 203 203 203 203 203 203 203
203 203 203 203 203 203 203 203 203 203 203 203 203 203 203 203 203 203 203 203 203 203 203 203 203 203 203 203 203 203 203 203 203 203 203 203 203 203 203 203 203 203 203 203 203 203 203 203 203 203 203 203 203 203 203 203 203 203 203 203 203 203 203 203
203 203 203 203 203 203 203 203 203 203 203 203 203 203 203 203 203 203 203 203 203 203 203 203 203 203 203 203 203 203 203 203 203 203 203 203 203 203 203 203 203 203 203 203 203 203 203 203 203 203 203 203 203 203 203 203 203 203 203 203 203 203 203 203
