P2
64 64
255
252 252 252 252 252 252 252 252 252 252 252 252 252 252 252 252 252 252 252 252 252 252 252 252 252 252 252 252 252 252 252 252 252 252 252 252 252 252 252 252 252 252 252 252 252 252 252 252 252 252 252 252 252 252 252 252 252 252 252 252 252 252 252 252
252 252 252 252 252 252 252 252 252 252 252 252 252 252 252 252 252 252 252 252 252 252 252 252 252 252 252 252 252 252 252 252 252 252 252 252 252 252 252 252 252 252 252 252 252 252 252 252 252 252 252 252 252 252 252 252 252 252 252 252 252 252 252 252
252 252 252 252 252 252 252 252 252 252 252 252 252 252 252 252 252 252 252 252 252 252 252 252 252 252 251 251 251 251 252 251 252 252 252 252 252 252 252 252 252 252 252 252 252 252 252 252 252 252 252 252 252 252 252 252 252 252 252 252 252 252 252 252
252 252 252 252 252 252 252 252 252 252 252 252 252 252 252 252 252 252 252 252 252 252 252 250 251 247 243 246 245 247 251 250 250 251 251 252 252 252 252 252 252 252 252 252 252 252 252 252 252 252 252 252 252 252 252 252 252 252 252 252 252 252 252 252
252 252 252 252 252 252 252 252 252 252 252 252 252 252 252 252 252 252 252 252 252 251 245 243 223 209 205 194 198 210 217 225 238 244 246 251 251 252 252 252 252 252 252 252 252 252 252 252 252 252 252 252 252 252 252 252 252 252 252 252 252 252 252 252
252 252 252 252 252 252 252 252 252 252 252 252 252 252 252 252 252 252 252 252 251 237 220 172 143 114 96 96 98 108 131 153 171 186 204 225 243 251 252 252 252 252 252 252 252 252 252 252 252 252 252 252 252 252 252 252 252 252 252 252 252 252 252 252
252 252 252 252 252 252 252 252 252 252 252 252 252 252 252 252 252 252 252 252 240 205 130 80 35 26 19 15 22 29 36 49 70 82 109 155 200 231 246 251 252 252 252 252 252 252 252 252 252 252 252 252 252 252 252 252 252 252 252 252 252 252 252 252
252 252 252 252 252 252 252 252 252 252 252 252 252 252 252 252 252 252 252 248 223 127 55 5 6 1 1 4 5 4 2 6 13 15 32 59 102 163 220 248 250 251 252 252 252 252 252 252 252 252 252 252 252 252 252 252 252 252 252 252 252 252 252 252
252 252 252 252 252 252 252 252 252 252 252 252 252 252 252 252 252 252 251 246 173 69 1 0 9 10 29 42 39 40 32 22 21 5 1 3 24 71 131 187 229 249 252 252 252 252 252 252 252 252 252 252 252 252 252 252 252 252 252 252 252 252 252 252
252 252 252 252 252 252 252 252 252 252 252 252 252 252 252 252 252 252 251 232 133 16 1 18 43 91 117 134 143 132 112 102 86 51 23 4 1 10 34 97 169 215 241 251 252 252 252 252 252 252 252 252 252 252 252 252 252 252 252 252 252 252 252 252
252 252 252 252 252 252 252 252 252 252 252 252 252 252 252 252 252 252 249 203 91 13 11 54 144 186 217 222 221 220 213 200 185 147 89 38 13 2 4 29 74 139 211 248 251 251 252 252 252 252 252 252 252 252 252 252 252 252 252 252 252 252 252 252
252 252 252 252 252 252 252 252 252 252 252 252 252 252 252 252 252 252 237 167 51 5 24 124 205 246 247 249 250 250 249 248 240 219 186 134 72 18 0 0 13 60 134 198 238 251 252 252 252 252 252 252 252 252 252 252 252 252 252 252 252 252 252 252
252 252 252 252 252 252 252 252 252 252 252 252 252 252 252 252 252 250 226 105 18 3 61 176 247 251 252 252 251 252 252 251 251 250 246 217 162 99 46 11 0 11 48 123 197 238 251 252 252 252 252 252 252 252 252 252 252 252 252 252 252 252 252 252
252 252 252 252 252 252 252 252 252 252 252 252 252 252 252 252 252 250 200 66 0 4 89 212 249 252 252 252 252 252 252 252 252 251 251 247 234 195 125 55 15 1 11 48 116 199 251 252 252 252 252 252 252 252 252 252 252 252 252 252 252 252 252 252
252 252 252 252 252 252 252 252 252 252 252 252 252 252 252 252 252 249 191 56 0 13 106 231 251 252 252 252 252 252 252 252 252 252 252 252 251 238 204 142 67 9 0 1 45 134 216 251 252 252 252 252 252 252 252 252 252 252 252 252 252 252 252 252
252 252 252 252 252 252 252 252 252 252 252 252 252 252 252 252 252 249 209 62 5 19 140 235 252 252 252 252 252 252 252 252 252 252 252 252 252 251 247 213 144 75 25 0 11 56 163 248 251 252 252 252 252 252 252 252 252 252 252 252 252 252 252 252
252 252 252 252 252 252 252 252 252 252 252 252 252 252 252 252 252 251 207 85 12 41 157 247 251 252 252 252 252 252 252 252 252 252 252 252 252 252 251 243 218 162 74 12 0 14 89 187 245 252 252 252 252 252 252 252 252 252 252 252 252 252 252 252
252 252 252 252 252 252 252 252 252 252 252 252 252 252 252 252 251 250 215 83 10 44 161 241 252 252 252 252 252 252 252 252 252 252 252 252 252 252 252 252 247 219 155 67 3 1 15 120 216 246 252 252 252 252 252 252 252 252 252 252 252 252 252 252
252 252 252 252 252 252 252 252 252 252 252 252 252 252 252 252 252 249 207 80 6 28 154 242 251 252 252 252 252 252 252 252 252 252 252 252 252 252 252 252 251 249 225 134 38 2 3 54 151 232 252 252 252 252 252 252 252 252 252 252 252 252 252 252
252 252 252 252 252 252 252 252 252 252 252 252 252 252 252 252 252 251 210 79 7 30 147 238 251 252 252 252 252 252 252 252 252 252 252 252 252 252 252 252 252 252 244 204 108 12 0 4 89 191 241 252 252 252 252 252 252 252 252 252 252 252 252 252
252 252 252 252 252 252 252 252 252 252 252 252 252 252 252 252 252 250 203 83 7 31 153 241 251 252 252 252 252 252 252 252 252 252 252 252 252 252 252 252 252 252 252 247 176 76 12 1 33 130 231 251 252 252 252 252 252 252 252 252 252 252 252 252
252 252 252 252 252 252 252 252 252 252 252 252 252 252 252 252 252 250 209 77 10 36 154 240 252 252 252 252 252 252 252 252 252 252 252 252 252 252 252 252 252 252 252 251 233 148 33 3 3 76 183 245 252 252 252 252 252 252 252 252 252 252 252 252
252 252 252 252 252 252 252 252 252 252 252 252 252 252 252 252 252 248 200 77 3 25 149 240 251 252 252 252 252 252 252 252 252 252 252 252 252 252 252 252 252 252 252 252 251 200 101 18 0 22 139 237 251 252 252 252 252 252 252 252 252 252 252 252
252 252 252 252 252 252 252 252 252 252 252 252 252 252 252 252 251 251 203 75 6 27 134 235 252 252 252 252 252 252 252 252 252 252 252 252 252 252 252 252 252 252 252 252 251 248 165 48 5 9 92 203 251 252 252 252 252 252 252 252 252 252 252 252
252 252 252 252 252 252 252 252 252 252 252 252 252 252 252 252 252 249 209 88 5 13 130 231 251 252 252 252 252 252 252 252 252 252 252 252 252 252 252 252 252 252 252 252 252 250 209 106 9 1 43 183 245 252 252 252 252 252 252 252 252 252 252 252
252 252 252 252 252 252 252 252 252 252 252 252 252 252 252 252 252 251 219 96 13 20 122 232 251 252 252 252 252 252 252 252 252 252 252 252 252 252 252 252 252 252 252 252 252 252 244 149 37 0 34 144 243 252 252 252 252 252 252 252 252 252 252 252
252 252 252 252 252 252 252 252 252 252 252 252 252 252 252 252 252 250 218 103 4 8 114 229 251 252 252 252 252 252 252 252 252 252 252 252 252 252 252 252 252 252 252 252 252 252 245 191 63 0 6 113 222 251 252 252 252 252 252 252 252 252 252 252
252 252 252 252 252 252 252 252 252 252 252 252 252 252 252 252 252 252 225 106 14 11 96 220 252 252 252 252 252 252 252 252 252 252 252 252 252 252 252 252 252 252 252 252 252 252 251 214 85 6 5 68 196 252 252 252 252 252 252 252 252 252 252 252
252 252 252 252 252 252 252 252 252 252 252 252 252 252 252 252 252 251 233 125 8 0 87 210 250 252 252 252 252 252 252 252 252 252 252 252 252 252 252 251 251 252 252 252 252 252 251 224 105 0 0 38 168 243 252 252 252 252 252 252 252 252 252 252
252 252 252 252 252 252 252 252 252 252 252 252 252 252 252 252 252 252 238 138 25 6 76 208 250 252 252 252 252 252 252 252 252 252 252 251 251 243 242 246 246 251 252 252 252 252 252 234 127 22 0 22 138 243 251 252 252 252 252 252 252 252 252 252
252 252 252 252 252 252 252 252 252 252 252 252 252 252 252 252 252 251 239 155 23 2 67 197 248 252 252 252 252 252 252 252 252 251 247 244 215 197 194 197 212 233 243 249 252 252 252 244 171 32 1 11 118 225 251 252 252 252 252 252 252 252 252 252
252 252 252 252 252 252 252 252 252 252 252 252 252 252 252 252 252 252 244 156 38 3 64 194 251 251 252 252 252 252 252 252 251 238 216 177 134 88 81 88 103 150 200 238 245 248 251 250 196 82 4 10 96 223 250 252 252 252 252 252 252 252 252 252
252 252 252 252 252 252 252 252 252 252 252 252 252 252 252 252 252 252 244 174 37 5 63 191 247 252 252 252 252 252 252 251 232 180 123 82 33 19 4 2 17 50 96 145 183 219 244 251 236 112 16 6 93 209 250 252 252 252 252 252 252 252 252 252
252 252 252 252 252 252 252 252 252 252 252 252 252 252 252 252 252 252 246 183 72 14 57 181 249 252 252 252 252 252 251 230 161 87 34 9 4 0 0 0 0 3 15 38 74 132 193 233 231 133 24 9 90 219 250 252 252 252 252 252 252 252 252 252
252 252 252 252 252 252 252 252 252 252 252 252 252 252 252 252 252 252 249 215 101 30 64 176 242 252 252 252 252 251 231 157 72 14 2 0 4 0 3 3 0 0 0 1 13 38 96 183 224 133 24 11 94 216 251 252 252 252 252 252 252 252 252 252
252 252 252 252 252 252 252 252 252 252 252 252 252 252 252 252 252 252 251 228 152 81 95 191 244 251 252 252 251 234 164 72 7 0 2 22 36 62 65 52 36 19 2 0 0 0 30 93 146 108 21 6 82 219 251 252 252 252 252 252 252 252 252 252
252 252 252 252 252 252 252 252 252 252 252 252 252 252 252 252 252 252 251 251 209 157 169 216 246 252 252 252 243 185 84 10 0 3 36 94 143 165 189 168 135 106 74 35 5 0 3 16 60 62 6 1 71 199 251 252 252 252 252 252 252 252 252 252
252 252 252 252 252 252 252 252 252 252 252 252 252 252 252 252 252 252 252 251 239 224 222 236 251 252 252 250 226 118 22 0 2 41 123 189 223 242 238 236 232 212 184 117 60 25 5 2 11 8 2 0 38 193 247 252 252 252 252 252 252 252 252 252
252 252 252 252 252 252 252 252 252 252 252 252 252 252 252 252 252 252 252 252 252 247 246 251 251 252 251 250 185 62 3 0 26 116 203 243 251 251 252 252 250 248 240 209 163 100 39 6 0 0 0 0 37 172 248 252 252 252 252 252 252 252 252 252
252 252 252 252 252 252 252 252 252 252 252 252 252 252 252 252 252 252 252 252 252 251 252 252 252 252 252 238 154 24 0 8 65 189 248 251 252 252 252 252 252 252 252 250 234 188 131 71 22 0 0 0 25 174 247 252 252 252 252 252 252 252 252 252
252 252 252 252 252 252 252 252 252 252 252 252 252 252 252 252 252 252 252 252 252 252 252 252 252 252 251 225 116 17 4 24 136 229 251 252 252 252 252 252 252 252 252 252 249 239 222 162 70 15 0 0 35 170 247 252 252 252 252 252 252 252 252 252
252 252 252 252 252 252 252 252 252 252 252 252 252 252 252 252 252 252 252 252 252 252 252 252 252 252 246 195 78 13 16 99 193 251 252 252 252 252 252 252 252 252 252 252 252 251 247 219 148 44 0 0 28 175 245 251 252 252 252 252 252 252 252 252
252 252 252 252 252 252 252 252 252 252 252 252 252 252 252 252 252 252 252 252 252 252 252 252 252 251 244 150 37 3 54 159 247 251 252 252 252 252 252 252 252 252 252 252 252 251 251 251 203 90 17 0 59 186 249 252 252 252 252 252 252 252 252 252
252 252 252 252 252 252 252 252 252 252 252 252 252 252 252 252 252 252 252 252 252 252 252 252 252 252 227 120 9 4 66 213 249 252 252 252 252 252 252 252 252 252 252 252 252 252 252 251 229 138 31 13 83 215 248 252 252 252 252 252 252 252 252 252
252 252 252 252 252 252 252 252 252 252 252 252 252 252 252 252 252 252 252 252 252 252 252 252 252 251 229 92 8 5 81 207 250 252 252 252 252 252 252 252 252 252 252 252 252 252 252 252 239 151 41 24 113 223 252 252 252 252 252 252 252 252 252 252
252 252 252 252 252 252 252 252 252 252 252 252 252 252 252 252 252 252 252 252 252 252 252 252 252 251 224 104 6 5 78 218 250 252 252 252 252 252 252 252 252 252 252 252 252 252 252 251 239 132 29 17 122 227 251 252 252 252 252 252 252 252 252 252
252 252 252 252 252 252 252 252 252 252 252 252 252 252 252 252 252 252 252 252 252 252 252 252 252 251 236 118 14 1 64 188 249 252 252 252 252 252 252 252 252 252 252 252 252 252 251 250 189 89 8 20 119 231 251 252 252 252 252 252 252 252 252 252
252 252 252 252 252 252 252 252 252 252 252 252 252 252 252 252 252 252 252 252 252 252 252 252 252 252 235 147 30 0 23 158 240 251 252 252 252 252 252 252 252 252 252 252 252 251 251 200 115 23 2 20 133 230 251 252 252 252 252 252 252 252 252 252
252 252 252 252 252 252 252 252 252 252 252 252 252 252 252 252 252 252 252 252 252 252 252 252 252 251 251 180 51 2 18 107 210 251 252 252 252 252 252 252 252 252 252 252 252 252 220 140 31 6 0 30 160 240 252 252 252 252 252 252 252 252 252 252
252 252 252 252 252 252 252 252 252 252 252 252 252 252 252 252 252 252 252 252 252 252 252 252 252 252 250 207 89 3 1 56 167 232 251 252 252 252 252 252 252 252 252 252 252 240 178 65 11 0 1 79 193 250 252 252 252 252 252 252 252 252 252 252
252 252 252 252 252 252 252 252 252 252 252 252 252 252 252 252 252 252 252 252 252 252 252 252 252 252 252 234 127 31 0 24 92 192 250 251 252 252 252 252 252 252 252 252 250 210 110 27 0 0 39 132 235 251 252 252 252 252 252 252 252 252 252 252
252 252 252 252 252 252 252 252 252 252 252 252 252 252 252 252 252 252 252 252 252 252 252 252 252 252 251 240 179 63 1 0 31 121 208 249 252 252 252 252 252 252 252 251 225 154 49 1 0 34 99 202 244 252 252 252 252 252 252 252 252 252 252 252
252 252 252 252 252 252 252 252 252 252 252 252 252 252 252 252 252 252 252 252 252 252 252 252 252 252 252 251 213 117 28 0 6 42 150 235 248 251 252 252 252 252 251 224 169 78 11 0 27 99 190 235 251 252 252 252 252 252 252 252 252 252 252 252
252 252 252 252 252 252 252 252 252 252 252 252 252 252 252 252 252 252 252 252 252 252 252 252 252 252 252 251 241 181 54 6 0 9 73 161 224 250 252 251 251 247 221 163 78 22 0 7 77 185 234 251 252 252 252 252 252 252 252 252 252 252 252 252
252 252 252 252 252 252 252 252 252 252 252 252 252 252 252 252 252 252 252 252 252 252 252 252 252 252 252 252 251 214 123 39 0 0 5 78 160 215 240 248 229 202 151 74 20 0 1 46 144 227 251 252 252 252 252 252 252 252 252 252 252 252 252 252
252 252 252 252 252 252 252 252 252 252 252 252 252 252 252 252 252 252 252 252 252 252 252 252 252 252 252 252 251 249 200 107 38 7 0 21 64 136 198 195 164 108 57 16 0 2 39 108 203 248 252 252 252 252 252 252 252 252 252 252 252 252 252 252
252 252 252 252 252 252 252 252 252 252 252 252 252 252 252 252 252 252 252 252 252 252 252 252 252 252 252 252 252 251 237 200 121 35 3 0 8 53 95 98 63 33 5 0 3 43 107 188 236 252 252 252 252 252 252 252 252 252 252 252 252 252 252 252
252 252 252 252 252 252 252 252 252 252 252 252 252 252 252 252 252 252 252 252 252 252 252 252 252 252 252 252 252 252 252 245 196 121 54 9 0 8 24 18 14 1 0 7 47 116 193 232 251 251 252 252 252 252 252 252 252 252 252 252 252 252 252 252
252 252 252 252 252 252 252 252 252 252 252 252 252 252 252 252 252 252 252 252 252 252 252 252 252 252 252 252 252 252 252 251 243 212 133 57 25 16 11 7 3 2 29 63 129 198 236 252 251 252 252 252 252 252 252 252 252 252 252 252 252 252 252 252
252 252 252 252 252 252 252 252 252 252 252 252 252 252 252 252 252 252 252 252 252 252 252 252 252 252 252 252 252 252 252 252 251 243 211 157 103 72 60 41 28 64 106 164 212 240 252 252 252 252 252 252 252 252 252 252 252 252 252 252 252 252 252 252
252 252 252 252 252 252 252 252 252 252 252 252 252 252 252 252 252 252 252 252 252 252 252 252 252 252 252 252 252 252 252 252 252 252 250 226 199 178 160 140 133 152 202 230 247 252 252 252 252 252 252 252 252 252 252 252 252 252 252 252 252 252 252 252
252 252 252 252 252 252 252 252 252 252 252 252 252 252 252 252 252 252 252 252 252 252 252 252 252 252 252 252 252 252 252 252 252 252 252 249 243 242 240 221 214 231 240 251 252 252 252 252 252 252 252 252 252 252 252 252 252 252 252 252 252 252 252 252
252 252 252 252 252 252 252 252 252 252 252 252 252 252 252 252 252 252 252 252 252 252 252 252 252 252 252 252 252 252 252 252 252 252 252 252 251 252 250 248 249 249 252 252 252 252 252 252 252 252 252 252 252 252 252 252 252 252 252 252 252 252 252 252
252 252 252 252 252 252 252 252 252 252 252 252 252 252 252 252 252 252 252 252 252 252 252 252 252 252 252 252 252 252 252 252 252 252 252 252 252 252 252 252 251 252 252 252 252 252 252 252 252 252 252 252 252 252 252 252 252 252 252 252 252 252 252 252
