P2
64 64
255
205 205 205 205 205 205 205 205 205 205 205 205 205 205 205 205 205 205 205 205 205 205 205 205 205 205 205 205 205 205 205 205 205 205 205 205 205 205 205 205 205 205 205 205 205 205 205 205 205 205 205 205 205 205 205 205 205 205 205 205 205 205 205 205
205 205 205 205 205 205 205 205 205 205 205 205 205 205 205 205 205 205 205 205 205 205 205 205 205 205 205 205 205 205 205 205 205 205 205 205 205 205 205 205 205 205 205 205 205 205 205 205 205 205 205 205 205 205 205 205 205 205 205 205 205 205 205 205
205 205 205 205 205 205 205 205 205 205 205 205 205 205 205 205 205 205 205 205 205 205 205 205 205 205 205 205 205 205 205 205 205 205 205 205 205 205 205 205 205 205 205 205 205 205 205 205 205 205 205 205 205 205 205 205 205 205 205 205 205 205 205 205
205 205 205 205 205 205 205 205 205 205 205 205 205 205 205 205 205 205 205 205 205 205 205 205 205 205 205 205 205 205 205 205 205 205 205 205 205 205 205 205 205 205 205 205 205 205 205 205 205 205 205 205 205 205 205 205 205 205 205 205 205 205 205 205
205 205 205 205 205 205 205 205 205 205 205 205 205 205 205 205 205 205 205 205 205 205 205 205 205 205 205 205 205 205 205 205 205 205 205 205 205 205 205 205 205 205 205 205 205 205 205 205 205 205 205 205 205 205 205 205 205 205 205 205 205 205 205 205
205 205 205 205 205 205 205 205 205 205 205 205 205 205 205 205 205 205 205 205 205 205 205 205 205 205 205 205 205 205 205 205 205 205 205 205 205 205 205 205 205 205 205 205 205 205 205 205 205 205 205 205 205 205 205 205 205 205 205 205 205 205 205 205
205 205 205 205 205 205 205 205 205 205 205 205 205 205 205 205 205 205 205 205 205 205 205 205 205 205 205 205 205 205 205 205 205 205 205 205 205 205 205 205 205 205 205 205 205 205 205 205 205 205 205 205 205 205 205 205 205 205 205 205 205 205 205 205
205 205 205 205 205 205 205 205 205 205 205 205 205 205 205 205 205 205 205 205 205 205 205 205 205 205 205 205 205 205 205 205 205 205 205 205 205 205 205 205 205 205 205 205 205 205 205 205 205 205 205 205 205 205 205 205 205 205 205 205 205 205 205 205
205 205 205 205 205 205 205 205 205 205 205 205 205 205 205 205 205 205 205 205 205 205 205 205 205 205 205 205 205 205 205 205 205 205 205 205 205 205 205 205 205 205 205 205 205 205 205 205 205 205 205 205 205 205 205 205 205 205 205 205 205 205 205 205
205 205 205 205 205 205 205 205 205 205 205 205 205 205 205 205 205 205 205 205 205 205 205 205 205 205 205 205 205 205 205 205 205 205 205 205 205 205 205 205 205 205 205 205 205 205 205 205 205 205 205 205 205 205 205 205 205 205 205 205 205 205 205 205
205 205 205 205 205 205 205 205 205 205 205 205 205 205 205 205 205 205 205 205 205 205 204 204 204 203 200 202 204 201 203 205 204 205 205 205 205 205 205 205 205 205 205 205 205 205 205 205 205 205 205 205 205 205 205 205 205 205 205 205 205 205 205 205
205 205 205 205 205 205 205 205 205 205 205 205 205 205 205 205 204 205 205 203 203 204 193 179 169 158 140 136 145 156 172 187 197 205 205 205 205 205 205 205 205 205 205 205 205 205 205 205 205 205 205 205 205 205 205 205 205 205 205 205 205 205 205 205
205 205 205 205 205 205 205 205 205 205 205 205 204 204 204 200 182 176 181 166 152 136 113 89 63 48 36 21 24 46 66 100 143 176 199 205 205 205 205 205 205 205 205 205 205 205 205 205 205 205 205 205 205 205 205 205 205 205 205 205 205 205 205 205
205 205 205 205 205 205 205 205 205 204 204 204 189 167 147 123 92 66 55 54 39 20 18 12 0 0 0 0 0 2 2 15 45 89 155 184 202 205 205 205 205 205 205 205 205 205 205 205 205 205 205 205 205 205 205 205 205 205 205 205 205 205 205 205
205 205 205 205 205 205 205 204 202 182 158 132 99 67 35 21 13 4 0 0 0 0 1 1 6 20 26 24 25 14 2 0 0 17 61 122 179 196 204 205 205 205 205 205 205 205 205 205 205 205 205 205 205 205 205 205 205 205 205 205 205 205 205 205
205 205 205 205 205 204 198 184 151 102 57 24 15 7 0 0 0 0 5 8 9 27 51 69 86 108 131 143 126 90 27 10 0 0 3 48 102 162 198 204 205 205 205 205 205 205 205 205 205 205 205 205 205 205 205 205 205 205 205 205 205 205 205 205
205 205 205 205 204 197 168 119 63 25 6 0 1 2 11 33 46 49 69 93 118 136 156 178 183 188 198 203 200 174 123 73 24 8 0 8 29 99 157 198 204 205 205 205 205 205 205 205 205 205 205 205 205 205 205 205 205 205 205 205 205 205 205 205
205 205 205 204 201 169 112 42 10 2 1 18 47 75 105 134 157 169 173 186 202 201 201 205 205 204 204 205 205 201 195 164 111 54 4 0 8 36 100 163 193 205 204 205 205 205 205 205 205 205 205 205 205 205 205 205 205 205 205 205 205 205 205 205
205 205 205 202 182 124 50 8 3 12 41 94 141 178 189 196 202 204 204 204 205 205 205 205 205 205 205 205 205 205 205 197 178 115 53 11 0 3 44 102 170 194 202 203 204 205 205 205 205 205 205 205 205 205 205 205 205 205 205 205 205 205 205 205
205 205 204 196 157 76 17 0 10 51 115 171 195 205 205 205 205 205 205 205 205 205 205 205 205 205 205 205 205 205 205 205 200 170 116 43 13 0 5 42 94 141 172 184 197 204 204 205 205 205 205 205 205 205 205 205 205 205 205 205 205 205 205 205
205 205 205 191 131 53 4 1 24 86 168 197 204 205 205 205 205 205 205 205 205 205 205 205 205 205 205 205 205 205 205 205 204 203 165 110 45 8 0 6 14 23 61 98 160 192 204 205 205 205 205 205 205 205 205 205 205 205 205 205 205 205 205 205
205 205 203 184 126 42 4 4 25 106 172 203 204 205 205 205 205 205 205 205 205 205 205 205 205 205 205 205 205 205 205 205 205 204 196 169 103 45 0 0 0 0 2 17 86 160 203 204 205 205 205 205 205 205 205 205 205 205 205 205 205 205 205 205
205 205 203 187 120 46 0 0 32 97 176 197 205 205 205 205 205 205 205 205 205 205 205 205 205 205 205 205 205 205 205 205 205 205 204 195 166 90 25 0 0 0 0 8 41 133 183 204 205 205 205 205 205 205 205 205 205 205 205 205 205 205 205 205
205 205 204 186 138 53 12 0 7 68 138 189 205 205 205 205 205 205 205 205 205 205 205 205 205 205 205 205 205 205 205 205 205 205 204 204 189 123 41 0 0 0 0 0 24 85 162 197 204 205 205 205 205 205 205 205 205 205 205 205 205 205 205 205
205 205 204 204 160 92 21 3 1 31 94 165 195 205 205 205 205 205 205 205 205 205 205 205 205 205 205 205 205 205 205 205 205 205 205 202 184 129 40 5 0 0 0 0 7 36 119 176 204 204 205 205 205 205 205 205 205 205 205 205 205 205 205 205
205 205 205 204 191 136 61 14 0 3 54 121 185 201 205 205 205 205 205 205 205 205 205 205 205 205 205 205 205 205 205 205 205 205 204 200 172 102 36 2 1 2 0 0 0 20 69 151 189 204 205 205 205 205 205 205 205 205 205 205 205 205 205 205
205 205 205 205 204 170 110 31 8 1 15 75 143 187 205 204 205 205 205 205 205 205 205 205 205 205 205 205 205 205 205 205 205 205 202 180 127 53 13 4 15 38 20 8 0 0 38 103 168 202 204 205 205 205 205 205 205 205 205 205 205 205 205 205
205 205 205 205 204 204 151 82 20 1 1 32 85 156 188 204 205 205 205 205 205 205 205 205 205 205 205 205 205 205 205 205 205 204 192 149 65 17 1 4 49 94 95 40 9 0 16 57 133 180 204 204 205 205 205 205 205 205 205 205 205 205 205 205
205 205 205 205 205 204 185 136 61 20 0 0 36 92 156 197 203 205 205 205 205 205 205 205 205 205 205 205 205 205 205 205 205 197 166 97 31 1 0 20 89 155 156 91 34 1 1 31 86 160 193 204 205 205 205 205 205 205 205 205 205 205 205 205
205 205 205 205 205 204 204 175 125 54 15 0 7 24 88 145 191 202 204 205 205 205 205 205 205 205 205 205 205 205 205 203 198 159 97 36 8 8 29 82 150 191 184 141 64 20 1 7 45 115 172 204 204 205 205 205 205 205 205 205 205 205 205 205
205 205 205 205 205 205 204 201 177 121 61 6 1 3 23 66 132 176 203 204 205 205 205 205 205 205 205 205 205 204 202 193 156 89 28 2 4 27 86 153 190 203 204 171 112 44 5 1 21 66 143 185 204 205 205 205 205 205 205 205 205 205 205 205
205 205 205 205 205 205 205 205 199 184 130 69 24 0 0 17 53 123 176 200 204 204 205 205 205 205 204 205 205 200 180 143 83 29 5 0 18 69 143 188 203 204 204 193 158 83 29 1 1 36 95 164 198 204 205 205 205 205 205 205 205 205 205 205
205 205 205 205 205 205 205 205 205 203 185 153 88 36 4 0 6 53 110 168 178 189 197 195 195 199 188 184 180 153 112 60 21 5 1 19 73 138 188 201 204 205 204 204 180 131 54 15 1 12 50 124 176 204 204 205 205 205 205 205 205 205 205 205
205 205 205 205 205 205 205 205 205 205 205 195 160 99 32 9 0 6 30 60 79 92 109 113 109 103 97 86 70 54 27 3 1 4 27 83 146 191 203 205 205 205 205 204 201 167 102 39 1 1 26 76 153 189 204 205 205 205 205 205 205 205 205 205
205 205 205 205 205 205 205 205 205 205 205 204 202 162 108 49 16 7 2 4 8 7 11 18 12 7 10 8 1 1 0 1 18 49 98 154 189 203 205 205 205 205 205 205 204 188 150 73 24 1 2 41 105 168 202 204 205 205 205 205 205 205 205 205
205 205 205 205 205 205 205 205 205 205 205 205 204 197 181 138 98 59 26 19 8 0 4 3 0 5 4 3 10 16 23 45 86 134 176 194 202 205 205 205 205 205 205 205 204 204 175 121 49 10 1 16 57 134 181 204 204 205 205 205 205 205 205 205
205 205 205 205 205 205 205 205 205 205 205 205 205 205 202 196 184 162 135 113 97 82 75 69 63 71 81 85 91 106 128 149 174 197 204 205 205 205 205 205 205 205 205 205 205 204 197 162 92 34 1 1 31 86 159 193 204 205 205 205 205 205 205 205
205 205 205 205 205 205 205 205 205 205 205 205 205 205 204 205 203 202 201 193 191 188 180 176 178 175 183 193 187 189 204 204 204 204 205 205 205 205 205 205 205 205 205 205 205 205 204 184 140 64 20 1 7 41 109 168 204 204 205 205 205 205 205 205
205 205 205 205 205 205 205 205 205 205 205 205 205 205 205 205 205 205 205 204 204 205 204 204 205 204 204 205 205 204 205 205 205 205 205 205 205 205 205 205 205 205 205 205 205 205 204 204 172 113 48 6 0 15 49 123 176 204 205 205 205 205 205 205
205 205 205 205 205 205 205 205 205 205 205 205 205 205 205 205 205 205 205 205 205 205 205 205 205 205 205 205 205 205 205 205 205 205 205 205 205 205 205 205 205 205 205 205 205 205 205 204 194 167 98 41 2 0 17 69 141 195 204 205 205 205 205 205
205 205 205 205 205 205 205 205 205 205 205 205 205 205 205 205 205 205 205 205 205 205 205 205 205 205 205 205 205 205 205 205 205 205 205 205 205 205 205 205 205 205 205 205 205 205 205 204 204 190 155 85 25 1 4 22 97 161 204 204 205 205 205 205
205 205 205 205 205 205 205 205 205 205 205 205 205 205 205 205 205 205 205 205 205 205 205 205 205 205 205 205 205 205 205 205 205 205 205 205 205 205 205 205 205 205 205 205 205 205 205 205 205 203 188 133 65 3 0 11 48 126 181 204 205 205 205 205
205 205 205 205 205 205 205 205 205 205 205 205 205 205 205 205 205 205 205 205 205 205 205 205 205 205 205 205 205 205 205 205 205 205 205 205 205 205 205 205 205 205 205 205 205 205 205 205 205 205 197 177 106 41 2 0 17 77 147 202 204 205 205 205
205 205 205 205 205 205 205 205 205 205 205 205 205 205 205 205 205 205 205 205 205 205 205 205 205 205 205 205 205 205 205 205 205 205 205 205 205 205 205 205 205 205 205 205 205 205 205 205 205 205 205 192 151 82 19 1 5 23 100 164 203 205 205 205
205 205 205 205 205 205 205 205 205 205 205 205 205 205 205 205 205 205 205 205 205 205 205 205 205 205 205 205 205 205 205 205 205 205 205 205 205 205 205 205 205 205 205 205 205 205 205 205 205 205 205 201 189 131 64 5 0 8 54 136 190 204 205 205
205 205 205 205 205 205 205 205 205 205 205 205 205 205 205 205 205 205 205 205 205 205 205 205 205 205 205 205 205 205 205 205 205 205 205 205 205 205 205 205 205 205 205 205 205 205 205 205 205 205 205 205 200 182 123 56 14 16 61 137 187 205 205 205
205 205 205 205 205 205 205 205 205 205 205 205 205 205 205 205 205 205 205 205 205 205 205 205 205 205 205 205 205 205 205 205 205 205 205 205 205 205 205 205 205 205 205 205 205 205 205 205 205 205 205 205 205 203 179 146 104 98 132 179 199 204 205 205
205 205 205 205 205 205 205 205 205 205 205 205 205 205 205 205 205 205 205 205 205 205 205 205 205 205 205 205 205 205 205 205 205 205 205 205 205 205 205 205 205 205 205 205 205 205 205 205 205 205 205 205 205 205 205 197 191 187 192 204 205 205 205 205
205 205 205 205 205 205 205 205 205 205 205 205 205 205 205 205 205 205 205 205 205 205 205 205 205 205 205 205 205 205 205 205 205 205 205 205 205 205 205 205 205 205 205 205 205 205 205 205 205 205 205 205 205 205 205 204 205 205 204 205 205 205 205 205
205 205 205 205 205 205 205 205 205 205 205 205 205 205 205 205 205 205 205 205 205 205 205 205 205 205 205 205 205 205 205 205 205 205 205 205 205 205 205 205 205 205 205 205 205 205 205 205 205 205 205 205 205 205 205 205 205 205 205 205 205 205 205 205
205 205 205 205 205 205 205 205 205 205 205 205 205 205 205 205 205 205 205 205 205 205 205 205 205 205 205 205 205 205 205 205 205 205 205 205 205 205 205 205 205 205 205 205 205 205 205 205 205 205 205 205 205 205 205 205 205 205 205 205 205 205 205 205
205 205 205 205 205 205 205 205 205 205 205 205 205 205 205 205 205 205 205 205 205 205 205 205 205 205 205 205 205 205 205 205 205 205 205 205 205 205 205 205 205 205 205 205 205 205 205 205 205 205 205 205 205 205 205 205 205 205 205 205 205 205 205 205
205 205 205 205 205 205 205 205 205 205 205 205 205 205 205 205 205 205 205 205 205 205 205 205 205 205 205 205 205 205 205 205 205 205 205 205 205 205 205 205 205 205 205 205 205 205 205 205 205 205 205 205 205 205 205 205 205 205 205 205 205 205 205 205
205 205 205 205 205 205 205 205 205 205 205 205 205 205 205 205 205 205 205 205 205 205 205 205 205 205 205 205 205 205 205 205 205 205 205 205 205 205 205 205 205 205 205 205 205 205 205 205 205 205 205 205 205 205 205 205 205 205 205 205 205 205 205 205
205 205 205 205 205 205 205 205 205 205 205 205 205 205 205 205 205 205 205 205 205 205 205 205 205 205 205 205 205 205 205 205 205 205 205 205 205 205 205 205 205 205 205 205 205 205 205 205 205 205 205 205 205 205 205 205 205 205 205 205 205 205 205 205
205 205 205 205 205 205 205 205 205 205 205 205 205 205 205 205 205 205 205 205 205 205 205 205 205 205 205 205 205 205 205 205 205 205 205 205 205 205 205 205 205 205 205 205 205 205 205 205 205 205 205 205 205 205 205 205 205 205 205 205 205 205 205 205
205 205 205 205 205 205 205 205 205 205 205 205 205 205 205 205 205 205 205 205 205 205 205 205 205 205 205 205 205 205 205 205 205 205 205 205 205 205 205 205 205 205 205 205 205 205 205 205 205 205 205 205 205 205 205 205 205 205 205 205 205 205 205 205
205 205 205 205 205 205 205 205 205 205 205 205 205 205 205 205 205 205 205 205 205 205 205 205 205 205 205 205 205 205 205 205 205 205 205 205 205 205 205 205 205 205 205 205 205 205 205 205 205 205 205 205 205 205 205 205 205 205 205 205 205 205 205 205
205 205 205 205 205 205 205 205 205 205 205 205 205 205 205 205 205 205 205 205 205 205 205 205 205 205 205 205 205 205 205 205 205 205 205 205 205 205 205 205 205 205 205 205 205 205 205 205 205 205 205 205 205 205 205 205 205 205 205 205 205 205 205 205
205 205 205 205 205 205 205 205 205 205 205 205 205 205 205 205 205 205 205 205 205 205 205 205 205 205 205 205 205 205 205 205 205 205 205 205 205 205 205 205 205 205 205 205 205 205 205 205 205 205 205 205 205 205 205 205 205 205 205 205 205 205 205 205
205 205 205 205 205 205 205 205 205 205 205 205 205 205 205 205 205 205 205 205 205 205 205 205 205 205 205 205 205 205 205 205 205 205 205 205 205 205 205 205 205 205 205 205 205 205 205 205 205 205 205 205 205 205 205 205 205 205 205 205 205 205 205 205
205 205 205 205 205 205 205 205 205 205 205 205 205 205 205 205 205 205 205 205 205 205 205 205 205 205 205 205 205 205 205 205 205 205 205 205 205 205 205 205 205 205 205 205 205 205 205 205 205 205 205 205 205 205 205 205 205 205 205 205 205 205 205 205
205 205 205 205 205 205 205 205 205 205 205 205 205 205 205 205 205 205 205 205 205 205 205 205 205 205 205 205 205 205 205 205 205 205 205 205 205 205 205 205 205 205 205 205 205 205 205 205 205 205 205 205 205 205 205 205 205 205 205 205 205 205 205 205
205 205 205 205 205 205 205 205 205 205 205 205 205 205 205 205 205 205 205 205 205 205 205 205 205 205 205 205 205 205 205 205 205 205 205 205 205 205 205 205 205 205 205 205 205 205 205 205 205 205 205 205 205 205 205 205 205 205 205 205 205 205 205 205
