P2
64 64
255
137 137 137 137 137 137 137 137 137 137 137 137 137 137 137 137 137 137 137 137 137 137 137 137 137 137 137 137 137 137 137 137 137 137 137 137 137 137 137 137 137 137 137 137 137 137 137 137 137 137 137 137 137 137 137 137 137 137 137 137 137 137 137 137
137 137 137 137 137 137 137 137 137 137 137 137 137 137 137 137 137 137 137 137 137 137 137 137 137 137 137 137 137 137 137 137 137 137 137 136 137 137 137 137 137 137 137 137 137 137 137 137 137 137 137 137 137 137 137 137 137 137 137 137 137 137 137 137
137 137 137 137 137 137 137 137 137 137 137 137 137 137 137 137 137 137 137 137 137 137 137 137 137 137 137 137 137 137 137 137 136 132 127 126 125 134 135 137 137 137 137 137 137 137 137 137 137 137 137 137 137 137 137 137 137 137 137 137 137 137 137 137
137 137 137 137 137 137 137 137 137 137 137 137 137 137 137 137 137 137 137 137 137 137 137 137 137 137 137 137 137 137 136 130 117 103 86 79 84 98 124 131 137 137 137 137 137 137 137 137 137 137 137 137 137 137 137 137 137 137 137 137 137 137 137 137
137 137 137 137 137 137 137 137 137 137 137 137 137 137 137 137 137 137 137 137 137 137 137 137 137 137 137 137 137 137 131 104 67 38 27 24 22 44 73 109 129 136 137 137 137 137 137 137 137 137 137 137 137 137 137 137 137 137 137 137 137 137 137 137
137 137 137 137 137 137 137 137 137 137 137 137 137 137 137 137 137 137 137 137 137 137 137 137 137 137 137 137 137 132 108 59 17 4 1 1 2 3 24 57 96 126 135 137 137 137 137 137 137 137 137 137 137 137 137 137 137 137 137 137 137 137 137 137
137 137 137 137 137 137 137 137 137 137 137 137 137 137 137 137 137 137 137 137 137 137 137 137 137 137 137 137 137 118 68 19 1 1 6 8 4 0 1 12 47 88 129 136 137 137 137 137 137 137 137 137 137 137 137 137 137 137 137 137 137 137 137 137
137 137 137 137 137 137 137 137 137 137 137 137 137 137 137 137 137 137 137 137 137 137 137 137 137 137 137 137 130 93 33 1 2 14 39 49 37 11 3 0 3 42 92 129 137 137 137 137 137 137 137 137 137 137 137 137 137 137 137 137 137 137 137 137
137 137 137 137 137 137 137 137 137 137 137 137 137 137 137 137 137 137 137 137 137 137 137 137 137 137 137 137 119 61 12 0 15 58 96 110 91 57 16 5 0 8 52 115 134 137 137 137 137 137 137 137 137 137 137 137 137 137 137 137 137 137 137 137
137 137 137 137 137 137 137 137 137 137 137 137 137 137 137 137 137 137 137 137 137 137 137 137 137 137 137 135 110 41 1 5 40 101 134 135 135 106 72 28 5 0 22 76 127 137 137 137 137 137 137 137 137 137 137 137 137 137 137 137 137 137 137 137
137 137 137 137 137 137 137 137 137 137 137 137 137 137 137 137 137 137 137 137 137 137 137 137 137 137 137 136 99 25 1 15 75 123 137 137 137 137 115 78 28 1 3 43 111 134 137 137 137 137 137 137 137 137 137 137 137 137 137 137 137 137 137 137
137 137 137 137 137 137 137 137 137 137 137 137 137 137 137 137 137 137 137 137 137 137 137 137 137 137 137 135 96 20 0 21 96 136 137 137 137 137 136 119 65 16 0 18 79 129 137 137 137 137 137 137 137 137 137 137 137 137 137 137 137 137 137 137
137 137 137 137 137 137 137 137 137 137 137 137 137 137 137 137 137 137 137 137 137 137 137 137 137 137 137 134 91 21 1 32 104 136 137 137 137 137 137 132 106 40 2 5 52 118 136 137 137 137 137 137 137 137 137 137 137 137 137 137 137 137 137 137
137 137 137 137 137 137 137 137 137 137 137 137 137 137 137 137 137 137 137 137 137 137 137 137 137 137 137 134 98 18 1 32 111 137 137 137 137 137 137 137 126 72 16 0 30 99 133 137 137 137 137 137 137 137 137 137 137 137 137 137 137 137 137 137
137 137 137 137 137 137 137 137 137 137 137 137 137 137 137 137 137 137 137 137 137 137 137 137 137 137 137 135 96 24 3 34 106 136 137 137 137 137 137 137 133 105 36 2 14 77 131 137 137 137 137 137 137 137 137 137 137 137 137 137 137 137 137 137
137 137 137 137 137 137 137 137 137 137 137 137 137 137 137 137 137 137 137 137 137 137 137 137 137 137 137 136 102 24 1 25 106 136 137 137 137 137 137 137 137 121 57 8 4 58 121 136 137 137 137 137 137 137 137 137 137 137 137 137 137 137 137 137
137 137 137 137 137 137 137 137 137 137 137 137 137 137 137 137 137 137 137 137 137 137 137 137 137 137 137 135 103 34 2 26 95 133 137 137 137 137 137 137 137 129 82 19 3 35 100 136 137 137 137 137 137 137 137 137 137 137 137 137 137 137 137 137
137 137 137 137 137 137 137 137 137 137 137 137 137 137 137 137 137 137 137 137 137 137 137 137 137 137 137 136 113 38 1 16 89 134 137 137 137 137 137 137 137 135 102 29 2 11 82 131 137 137 137 137 137 137 137 137 137 137 137 137 137 137 137 137
137 137 137 137 137 137 137 137 137 137 137 137 137 137 137 137 137 137 137 137 137 137 137 137 137 137 137 136 115 43 3 15 81 131 137 137 137 137 137 137 137 137 116 54 8 10 65 125 137 137 137 137 137 137 137 137 137 137 137 137 137 137 137 137
137 137 137 137 137 137 137 137 137 137 137 137 137 137 137 137 137 137 137 137 137 137 137 137 137 137 137 137 121 45 1 7 79 133 137 137 137 137 137 137 137 137 130 78 16 9 56 120 137 137 137 137 137 137 137 137 137 137 137 137 137 137 137 137
137 137 137 137 137 137 137 137 137 137 137 137 137 137 137 137 137 137 137 137 137 137 137 137 137 137 137 137 121 59 7 12 71 127 137 137 137 137 137 137 137 137 134 93 23 7 41 111 136 137 137 137 137 137 137 137 137 137 137 137 137 137 137 137
137 137 137 137 137 137 137 137 137 137 137 137 137 137 137 137 137 137 137 137 137 137 137 137 137 137 137 137 130 70 8 7 61 125 137 137 137 137 137 137 137 137 135 103 34 3 25 90 131 137 137 137 137 137 137 137 137 137 137 137 137 137 137 137
137 137 137 137 137 137 137 137 137 137 137 137 137 137 137 137 137 137 137 137 137 137 137 137 137 137 137 137 130 81 17 8 55 119 137 137 137 137 137 137 137 137 135 116 52 4 10 62 124 136 137 137 137 137 137 137 137 137 137 137 137 137 137 137
137 137 137 137 137 137 137 137 137 137 137 137 137 137 137 137 137 137 137 137 137 137 137 137 137 137 137 137 133 97 29 9 51 116 136 137 137 137 137 137 137 137 137 129 72 14 2 42 110 135 137 137 137 137 137 137 137 137 137 137 137 137 137 137
137 137 137 137 137 137 137 137 137 137 137 137 137 137 137 137 137 137 137 137 137 137 137 137 137 137 137 137 135 109 42 11 39 101 135 137 137 137 137 137 137 137 137 132 96 26 1 25 92 134 137 137 137 137 137 137 137 137 137 137 137 137 137 137
137 137 137 137 137 137 137 137 137 137 137 137 137 137 137 137 137 137 137 137 137 137 137 137 137 137 137 137 137 115 42 4 15 86 133 137 137 137 137 137 137 137 137 136 113 41 4 12 77 130 137 137 137 137 137 137 137 137 137 137 137 137 137 137
137 137 137 137 137 137 137 137 137 137 137 137 137 137 137 137 137 137 137 137 137 137 137 137 137 137 137 137 136 115 48 5 12 72 128 137 137 137 137 137 137 137 137 137 122 56 6 5 58 124 137 137 137 137 137 137 137 137 137 137 137 137 137 137
137 137 137 137 137 137 137 137 137 137 137 137 137 137 137 137 137 137 137 137 137 137 137 137 137 137 137 137 137 123 60 8 8 63 123 137 137 137 137 137 137 137 137 137 126 67 10 3 45 115 136 137 137 137 137 137 137 137 137 137 137 137 137 137
137 137 137 137 137 137 137 137 137 137 137 137 137 137 137 137 137 137 137 137 137 137 137 137 137 137 137 137 137 129 75 11 7 52 119 137 137 137 137 137 137 137 137 137 131 81 11 2 36 113 137 137 137 137 137 137 137 137 137 137 137 137 137 137
137 137 137 137 137 137 137 137 137 137 137 137 137 137 137 137 137 137 137 137 137 137 137 137 137 137 137 137 137 135 86 18 3 44 116 136 137 137 137 137 137 137 137 137 135 91 23 2 34 106 135 137 137 137 137 137 137 137 137 137 137 137 137 137
137 137 137 137 137 137 137 137 137 137 137 137 137 137 137 137 137 137 137 137 137 137 137 137 137 137 137 137 137 134 98 27 1 34 107 136 137 137 137 137 137 137 137 137 135 105 29 1 24 101 135 137 137 137 137 137 137 137 137 137 137 137 137 137
137 137 137 137 137 137 137 137 137 137 137 137 137 137 137 137 137 137 137 137 137 137 137 137 137 137 137 137 137 136 108 31 1 25 98 135 137 137 137 137 137 137 137 137 135 105 34 2 23 92 133 137 137 137 137 137 137 137 137 137 137 137 137 137
137 137 137 137 137 137 137 137 137 137 137 137 137 137 137 137 137 137 137 137 137 137 137 137 137 137 137 137 137 136 111 37 2 16 91 135 137 137 137 137 137 137 137 137 136 109 30 1 15 92 135 137 137 137 137 137 137 137 137 137 137 137 137 137
137 137 137 137 137 137 137 137 137 137 137 137 137 137 137 137 137 137 137 137 137 137 137 137 137 137 137 137 137 137 114 43 4 17 85 131 137 137 137 137 137 137 137 137 135 100 30 2 24 91 132 137 137 137 137 137 137 137 137 137 137 137 137 137
137 137 137 137 137 137 137 137 137 137 137 137 137 137 137 137 137 137 137 137 137 137 137 137 137 137 137 137 137 137 119 55 5 15 76 130 137 137 137 137 137 137 137 137 136 104 29 2 27 100 136 137 137 137 137 137 137 137 137 137 137 137 137 137
137 137 137 137 137 137 137 137 137 137 137 137 137 137 137 137 137 137 137 137 137 137 137 137 137 137 137 137 137 137 125 64 9 11 67 125 137 137 137 137 137 137 137 137 134 107 47 14 48 106 135 137 137 137 137 137 137 137 137 137 137 137 137 137
137 137 137 137 137 137 137 137 133 126 129 131 136 137 137 137 137 137 137 137 137 137 137 137 137 137 137 137 137 137 130 74 11 5 56 124 137 137 137 137 137 137 137 137 135 122 69 44 77 123 136 137 137 137 137 137 137 137 137 137 137 137 137 137
137 137 137 137 137 137 137 137 119 92 86 109 123 133 134 137 137 137 137 137 137 137 137 137 137 137 137 137 137 137 131 79 15 2 50 117 136 137 137 137 137 137 137 137 136 130 111 96 109 130 137 137 137 137 137 137 137 137 137 137 137 137 137 137
137 137 137 137 137 137 137 126 83 36 34 53 83 97 117 126 137 137 137 137 137 137 137 137 137 137 137 137 137 137 133 91 16 2 39 116 137 137 137 137 137 137 137 137 137 135 132 126 131 136 137 137 137 137 137 137 137 137 137 137 137 137 137 137
137 137 137 137 137 137 137 124 63 7 2 14 24 41 62 91 112 131 135 137 137 137 137 137 137 137 137 137 137 137 134 98 25 4 38 109 136 137 137 137 137 137 137 137 137 137 136 136 136 137 137 137 137 137 137 137 137 137 137 137 137 137 137 137
137 137 137 137 137 137 136 125 77 23 2 1 2 3 16 34 61 89 113 130 136 137 137 137 137 137 137 137 137 137 136 109 36 5 36 109 136 137 137 137 137 137 137 137 137 137 137 137 137 137 137 137 137 137 137 137 137 137 137 137 137 137 137 137
137 137 137 137 137 137 137 132 108 61 23 11 4 1 0 4 13 29 61 93 125 133 137 137 137 137 137 137 137 137 137 111 43 7 28 95 133 137 137 137 137 137 137 137 137 137 137 137 137 137 137 137 137 137 137 137 137 137 137 137 137 137 137 137
137 137 137 137 137 137 137 137 131 107 77 52 39 18 9 1 0 2 10 44 79 118 130 137 137 137 137 137 137 137 136 116 40 0 12 83 133 137 137 137 137 137 137 137 137 137 137 137 137 137 137 137 137 137 137 137 137 137 137 137 137 137 137 137
137 137 137 137 137 137 137 137 137 137 120 113 95 73 43 25 4 2 1 2 31 66 105 127 136 137 137 137 137 137 136 116 46 3 11 75 130 137 137 137 137 137 137 137 137 137 137 137 137 137 137 137 137 137 137 137 137 137 137 137 137 137 137 137
137 137 137 137 137 137 137 137 137 137 137 133 135 118 103 75 50 17 7 0 1 21 55 92 125 133 137 137 137 137 137 124 51 3 4 70 130 137 137 137 137 137 137 137 137 137 137 137 137 137 137 137 137 137 137 137 137 137 137 137 137 137 137 137
137 137 137 137 137 137 137 137 137 137 137 137 137 137 130 129 104 75 34 10 0 1 9 43 80 118 131 137 137 137 137 125 65 8 7 62 124 137 137 137 137 137 137 137 137 137 137 137 137 137 137 137 137 137 137 137 137 137 137 137 137 137 137 137
137 137 137 137 137 137 137 137 137 137 137 137 137 137 137 136 136 119 89 48 13 3 0 2 32 67 107 131 137 137 137 132 71 5 3 54 124 137 137 137 137 137 137 137 137 137 137 137 137 137 137 137 137 137 137 137 137 137 137 137 137 137 137 137
137 137 137 137 137 137 137 137 137 137 137 137 137 137 137 137 137 137 129 99 62 19 7 0 1 22 59 102 134 137 137 127 72 12 5 51 119 137 137 137 137 137 137 137 137 137 137 137 137 137 137 137 137 137 137 137 137 137 137 137 137 137 137 137
137 137 137 137 137 137 137 137 137 137 137 137 137 137 137 137 137 137 137 137 109 76 33 10 0 1 13 58 99 133 137 130 69 6 1 50 121 136 137 137 137 137 137 137 137 137 137 137 137 137 137 137 137 137 137 137 137 137 137 137 137 137 137 137
137 137 137 137 137 137 137 137 137 137 137 137 137 137 137 137 137 137 137 137 137 118 89 47 12 3 2 8 52 102 130 124 67 9 5 51 119 137 137 137 137 137 137 137 137 137 137 137 137 137 137 137 137 137 137 137 137 137 137 137 137 137 137 137
137 137 137 137 137 137 137 137 137 137 137 137 137 137 137 137 137 137 137 137 137 137 128 98 59 14 2 1 13 57 116 125 67 7 3 43 116 137 137 137 137 137 137 137 137 137 137 137 137 137 137 137 137 137 137 137 137 137 137 137 137 137 137 137
137 137 137 137 137 137 137 137 137 137 137 137 137 137 137 137 137 137 137 137 137 137 137 136 104 64 19 1 0 24 70 110 71 8 1 30 106 136 137 137 137 137 137 137 137 137 137 137 137 137 137 137 137 137 137 137 137 137 137 137 137 137 137 137
137 137 137 137 137 137 137 137 137 137 137 137 137 137 137 137 137 137 137 137 137 137 137 137 134 108 65 23 0 1 28 76 61 8 0 24 102 135 137 137 137 137 137 137 137 137 137 137 137 137 137 137 137 137 137 137 137 137 137 137 137 137 137 137
137 137 137 137 137 137 137 137 137 137 137 137 137 137 137 137 137 137 137 137 137 137 137 137 137 132 112 59 16 0 4 25 44 11 0 24 98 136 137 137 137 137 137 137 137 137 137 137 137 137 137 137 137 137 137 137 137 137 137 137 137 137 137 137
137 137 137 137 137 137 137 137 137 137 137 137 137 137 137 137 137 137 137 137 137 137 137 137 137 137 130 106 48 5 0 7 18 5 0 22 97 135 137 137 137 137 137 137 137 137 137 137 137 137 137 137 137 137 137 137 137 137 137 137 137 137 137 137
137 137 137 137 137 137 137 137 137 137 137 137 137 137 137 137 137 137 137 137 137 137 137 137 137 137 137 129 93 44 3 0 2 1 0 15 89 135 137 137 137 137 137 137 137 137 137 137 137 137 137 137 137 137 137 137 137 137 137 137 137 137 137 137
137 137 137 137 137 137 137 137 137 137 137 137 137 137 137 137 137 137 137 137 137 137 137 137 137 137 137 136 132 90 41 7 0 0 0 11 84 131 137 137 137 137 137 137 137 137 137 137 137 137 137 137 137 137 137 137 137 137 137 137 137 137 137 137
137 137 137 137 137 137 137 137 137 137 137 137 137 137 137 137 137 137 137 137 137 137 137 137 137 137 137 137 136 126 84 22 2 0 0 9 75 131 137 137 137 137 137 137 137 137 137 137 137 137 137 137 137 137 137 137 137 137 137 137 137 137 137 137
137 137 137 137 137 137 137 137 137 137 137 137 137 137 137 137 137 137 137 137 137 137 137 137 137 137 137 137 137 137 117 69 15 0 0 4 61 126 137 137 137 137 137 137 137 137 137 137 137 137 137 137 137 137 137 137 137 137 137 137 137 137 137 137
137 137 137 137 137 137 137 137 137 137 137 137 137 137 137 137 137 137 137 137 137 137 137 137 137 137 137 137 137 137 136 108 50 8 0 1 42 122 136 137 137 137 137 137 137 137 137 137 137 137 137 137 137 137 137 137 137 137 137 137 137 137 137 137
137 137 137 137 137 137 137 137 137 137 137 137 137 137 137 137 137 137 137 137 137 137 137 137 137 137 137 137 137 137 137 131 91 20 0 0 34 108 135 137 137 137 137 137 137 137 137 137 137 137 137 137 137 137 137 137 137 137 137 137 137 137 137 137
137 137 137 137 137 137 137 137 137 137 137 137 137 137 137 137 137 137 137 137 137 137 137 137 137 137 137 137 137 137 137 137 114 47 7 3 35 113 137 137 137 137 137 137 137 137 137 137 137 137 137 137 137 137 137 137 137 137 137 137 137 137 137 137
137 137 137 137 137 137 137 137 137 137 137 137 137 137 137 137 137 137 137 137 137 137 137 137 137 137 137 137 137 137 137 137 130 90 35 35 71 123 137 137 137 137 137 137 137 137 137 137 137 137 137 137 137 137 137 137 137 137 137 137 137 137 137 137
137 137 137 137 137 137 137 137 137 137 137 137 137 137 137 137 137 137 137 137 137 137 137 137 137 137 137 137 137 137 137 137 137 120 98 90 116 136 137 137 137 137 137 137 137 137 137 137 137 137 137 137 137 137 137 137 137 137 137 137 137 137 137 137
