P2
64 64
255
161 161 161 161 161 161 161 161 161 161 161 161 161 161 161 161 161 161 161 161 161 161 161 161 161 161 161 161 161 161 161 161 161 161 161 161 161 161 161 161 161 161 161 161 161 161 161 161 161 161 161 161 161 161 161 161 161 161 161 161 161 161 161 161
161 161 161 161 161 161 161 161 161 161 161 161 161 161 161 161 161 161 161 161 161 161 161 161 161 161 161 161 161 161 161 161 161 161 161 161 161 161 161 161 161 161 161 161 161 161 161 161 161 161 161 161 161 161 161 161 161 161 161 161 161 161 161 161
161 161 161 161 161 161 161 161 161 161 161 161 161 161 161 161 161 161 161 161 161 161 161 161 161 161 161 161 161 161 161 161 161 161 161 161 161 161 161 161 161 161 161 161 161 161 161 161 161 161 161 161 161 161 161 161 161 161 161 161 161 161 161 161
161 161 161 161 161 161 161 161 161 161 161 161 161 161 161 161 161 161 161 161 161 161 161 161 161 161 161 161 161 161 161 161 161 161 161 161 161 161 161 161 161 161 161 161 161 161 161 161 161 161 161 161 161 161 161 161 161 161 161 161 161 161 161 161
161 161 161 161 161 161 161 161 161 161 161 161 161 161 161 161 161 161 161 161 161 161 161 161 161 161 161 161 161 161 161 161 161 161 161 161 161 161 161 161 161 161 161 161 161 161 161 161 161 161 161 161 161 161 161 161 161 161 161 161 161 161 161 161
161 161 161 161 161 161 161 161 161 161 161 161 161 161 161 161 161 161 161 161 161 161 161 161 161 161 161 161 161 161 161 161 161 161 161 161 161 161 161 161 161 161 161 161 161 161 161 161 161 161 161 161 161 161 161 161 161 161 161 161 161 161 161 161
161 161 161 161 161 161 161 161 161 161 161 161 161 161 161 161 161 161 161 161 161 161 161 161 161 161 161 161 161 161 161 161 161 161 160 161 161 160 161 161 161 161 161 161 161 161 161 161 161 161 161 161 161 161 161 161 161 161 161 161 161 161 161 161
161 161 161 161 161 161 161 161 161 161 161 161 161 161 161 161 161 161 161 161 161 161 161 161 161 161 161 161 161 161 161 160 161 160 159 157 152 155 159 158 159 161 161 161 161 161 161 161 161 161 161 161 161 161 161 161 161 161 161 161 161 161 161 161
161 161 161 161 161 161 161 161 161 161 161 161 161 161 161 161 161 161 161 161 161 161 161 161 161 161 161 161 161 161 159 158 154 145 142 121 109 113 119 134 149 152 158 161 161 161 161 161 161 161 161 161 161 161 161 161 161 161 161 161 161 161 161 161
161 161 161 161 161 161 161 161 161 161 161 161 161 161 161 161 161 161 161 161 161 161 161 161 161 161 161 161 161 160 149 130 103 90 68 50 36 32 50 68 87 113 144 158 160 161 161 161 161 161 161 161 161 161 161 161 161 161 161 161 161 161 161 161
161 161 161 161 161 161 161 161 161 161 161 161 161 161 161 161 161 161 161 161 161 161 161 161 161 161 161 161 161 153 111 53 31 15 12 6 0 4 5 4 24 53 93 128 153 161 161 161 161 161 161 161 161 161 161 161 161 161 161 161 161 161 161 161
161 161 161 161 161 161 161 161 161 161 161 161 161 161 161 161 161 161 161 161 161 161 161 161 161 161 161 161 159 128 50 9 0 0 0 1 0 0 0 0 1 5 27 72 128 158 161 161 161 161 161 161 161 161 161 161 161 161 161 161 161 161 161 161
161 161 161 161 161 161 161 161 161 161 161 161 161 161 161 161 161 161 161 161 161 161 161 161 161 161 160 159 140 79 17 0 0 0 12 18 16 22 15 11 6 0 4 24 85 146 160 161 161 161 161 161 161 161 161 161 161 161 161 161 161 161 161 161
161 161 161 161 161 161 161 161 161 161 161 161 161 161 161 161 161 161 161 161 161 161 161 161 161 161 158 141 96 34 3 0 4 27 61 82 87 84 84 70 36 3 0 0 41 130 159 161 161 161 161 161 161 161 161 161 161 161 161 161 161 161 161 161
161 161 161 161 161 161 161 161 161 161 161 161 161 161 161 161 161 161 161 161 161 161 161 161 161 159 144 91 37 3 0 9 48 99 129 148 143 147 149 130 92 34 5 0 20 108 156 161 161 161 161 161 161 161 161 161 161 161 161 161 161 161 161 161
161 161 161 161 161 161 161 161 161 161 161 161 161 161 161 161 161 161 161 161 161 161 161 161 161 154 111 31 0 0 6 48 113 147 158 159 160 161 160 159 146 89 30 3 18 80 144 159 161 161 161 161 161 161 161 161 161 161 161 161 161 161 161 161
161 161 161 161 161 161 161 161 161 161 161 161 161 161 161 161 161 161 161 161 161 161 161 160 158 128 60 6 0 0 24 94 146 159 161 160 161 161 161 161 159 133 76 22 12 46 118 156 160 161 161 161 161 161 161 161 161 161 161 161 161 161 161 161
161 161 161 161 161 161 161 161 161 161 161 161 161 161 161 161 161 161 161 161 161 161 161 160 140 78 21 0 0 2 53 136 160 161 161 161 161 161 161 161 160 156 122 45 4 10 84 150 160 161 161 161 161 161 161 161 161 161 161 161 161 161 161 161
161 161 161 161 161 161 161 161 161 161 161 161 161 161 161 161 161 161 161 161 161 161 161 158 113 33 3 0 0 26 99 156 161 161 161 161 161 161 161 161 161 161 147 66 6 5 61 138 160 161 161 161 161 161 161 161 161 161 161 161 161 161 161 161
161 161 161 161 161 161 161 161 161 161 161 161 161 161 161 161 161 161 161 161 161 161 161 152 84 4 0 3 32 87 140 160 161 161 161 161 161 161 161 161 161 160 149 84 14 2 46 128 159 161 161 161 161 161 161 161 161 161 161 161 161 161 161 161
161 161 161 161 161 161 161 161 161 161 161 161 161 161 161 161 161 161 161 161 161 161 159 134 57 1 1 25 85 137 157 161 161 161 161 161 161 161 161 161 161 161 154 96 17 0 29 124 159 161 161 161 161 161 161 161 161 161 161 161 161 161 161 161
161 161 161 161 161 161 161 161 161 161 161 161 161 161 161 161 161 161 161 161 161 160 149 101 31 0 8 63 134 158 160 161 161 161 161 161 161 161 161 161 161 161 159 107 17 0 23 109 158 161 161 161 161 161 161 161 161 161 161 161 161 161 161 161
161 161 161 161 161 161 161 161 161 161 161 161 161 161 161 161 161 161 161 161 161 160 132 62 10 0 23 103 158 161 161 161 161 161 161 161 161 161 161 161 161 160 156 110 26 0 27 108 156 161 161 161 161 161 161 161 161 161 161 161 161 161 161 161
161 161 161 161 161 161 161 161 161 161 161 161 161 161 161 161 161 161 161 161 161 159 107 23 0 6 56 129 160 161 161 161 161 161 161 161 161 161 161 161 161 161 156 108 27 0 24 110 158 161 161 161 161 161 161 161 161 161 161 161 161 161 161 161
161 161 161 161 161 161 161 161 161 161 161 161 161 161 161 161 161 161 161 161 160 152 78 7 0 27 96 147 160 161 161 161 161 161 161 161 161 161 161 161 161 161 159 105 18 0 14 109 159 161 161 161 161 161 161 161 161 161 161 161 161 161 161 161
161 161 161 161 161 161 161 161 161 161 161 161 161 161 161 161 161 161 161 161 160 133 51 3 2 55 132 158 161 161 161 161 161 161 161 161 161 161 161 161 161 161 160 108 18 0 25 108 158 161 161 161 161 161 161 161 161 161 161 161 161 161 161 161
161 161 161 161 161 161 161 161 161 161 161 161 161 161 161 161 161 161 161 161 159 113 28 0 5 84 156 161 161 161 161 161 161 161 161 161 161 161 161 161 161 161 155 105 25 0 30 112 157 161 161 161 161 161 161 161 161 161 161 161 161 161 161 161
161 161 161 161 161 161 161 161 161 161 161 161 161 161 161 161 161 161 161 161 159 94 5 0 19 106 159 161 161 161 161 161 161 161 161 161 161 161 161 161 161 161 156 101 21 0 26 115 160 161 161 161 161 161 161 161 161 161 161 161 161 161 161 161
161 161 161 161 161 161 161 161 161 161 161 161 161 161 161 161 161 161 161 160 150 72 4 1 42 125 160 161 161 161 161 161 161 161 161 161 161 161 161 161 161 161 158 97 8 0 25 114 159 161 161 161 161 161 161 161 161 161 161 161 161 161 161 161
161 161 161 161 161 161 161 161 161 161 161 161 161 161 161 161 161 161 161 160 133 51 3 3 65 145 160 161 161 161 161 161 161 161 161 161 161 161 161 161 161 160 154 91 13 1 35 118 158 161 161 161 161 161 161 161 161 161 161 161 161 161 161 161
161 161 161 161 161 161 161 161 161 161 161 161 161 161 161 161 161 161 161 160 122 36 1 3 81 157 161 161 161 161 161 161 161 161 161 161 161 161 161 161 161 160 144 79 13 1 44 127 159 161 161 161 161 161 161 161 161 161 161 161 161 161 161 161
161 161 161 161 161 161 161 161 161 161 161 161 161 161 161 161 161 161 161 160 118 27 0 15 91 154 161 161 161 161 161 161 161 161 161 161 161 161 161 161 161 160 137 63 7 0 48 135 160 161 161 161 161 161 161 161 161 161 161 161 161 161 161 161
161 161 161 161 161 161 161 161 161 161 161 161 161 161 161 161 161 161 160 155 107 28 0 25 100 153 161 161 161 161 161 161 161 161 161 161 161 161 161 161 161 160 135 48 0 7 63 137 160 161 161 161 161 161 161 161 161 161 161 161 161 161 161 161
161 161 161 161 161 161 161 161 161 161 161 161 161 161 161 161 161 161 161 152 97 22 0 28 111 157 160 161 161 161 161 161 161 161 161 161 161 161 161 161 161 159 127 44 1 13 79 144 160 161 161 161 161 161 161 161 161 161 161 161 161 161 161 161
161 161 161 161 161 161 161 161 161 161 161 161 161 161 161 161 161 161 161 155 90 11 0 27 118 160 161 161 161 161 161 161 161 161 161 161 161 161 161 161 161 158 116 33 0 13 92 154 160 161 161 161 161 161 161 161 161 161 161 161 161 161 161 161
161 161 161 161 161 161 161 161 161 161 161 161 161 161 161 161 161 161 161 157 86 7 1 38 122 159 161 161 161 161 161 161 161 161 161 161 161 161 161 161 161 159 102 15 0 10 104 159 161 161 161 161 161 161 161 161 161 161 161 161 161 161 161 161
161 161 161 161 161 161 161 161 161 161 161 161 161 161 161 161 161 161 160 148 82 12 1 46 130 159 161 161 161 161 161 161 161 161 161 161 161 161 161 161 161 159 83 5 1 31 117 159 161 161 161 161 161 161 161 161 161 161 161 161 161 161 161 161
161 161 161 161 161 161 161 161 161 161 161 161 161 161 161 161 161 161 160 148 80 12 0 47 138 161 161 161 161 161 161 161 161 161 161 161 161 161 161 161 160 140 60 3 2 54 135 160 161 161 161 161 161 161 161 161 161 161 161 161 161 161 161 161
161 161 161 161 161 161 161 161 161 161 161 161 161 161 161 161 161 161 161 154 85 6 1 41 128 159 161 161 161 161 161 161 161 161 161 161 161 161 161 161 159 121 37 1 4 77 154 161 161 161 161 161 161 161 161 161 161 161 161 161 161 161 161 161
161 161 161 161 161 161 161 161 161 161 161 161 161 161 161 161 161 161 160 154 97 17 1 36 120 158 161 161 161 161 161 161 161 161 161 161 161 161 161 161 159 100 13 0 10 98 159 161 161 161 161 161 161 161 161 161 161 161 161 161 161 161 161 161
161 161 161 161 161 161 161 161 161 161 161 161 161 161 161 161 161 161 161 154 102 24 1 32 116 158 161 161 161 161 161 161 161 161 161 161 161 161 161 161 152 75 4 1 34 118 159 161 161 161 161 161 161 161 161 161 161 161 161 161 161 161 161 161
161 161 161 161 161 161 161 161 161 161 161 161 161 161 161 161 161 161 161 157 112 28 1 19 105 158 161 161 161 161 161 161 161 161 161 161 161 161 161 158 127 49 2 3 58 138 160 161 161 161 161 161 161 161 161 161 161 161 161 161 161 161 161 161
161 161 161 161 161 161 161 161 161 161 161 161 161 161 161 161 161 161 161 160 128 41 1 17 90 152 161 161 161 161 161 161 161 161 161 161 161 161 161 152 101 26 0 10 85 158 161 161 161 161 161 161 161 161 161 161 161 161 161 161 161 161 161 161
161 161 161 161 161 161 161 161 161 161 161 161 161 161 161 161 161 161 161 159 135 58 4 11 75 146 160 161 161 161 161 161 161 161 161 161 161 161 160 142 72 6 0 25 110 160 161 161 161 161 161 161 161 161 161 161 161 161 161 161 161 161 161 161
161 161 161 161 161 161 161 161 161 161 161 161 161 161 161 161 161 161 161 160 145 77 12 4 51 132 158 160 161 161 161 161 161 161 161 161 161 161 160 124 45 1 6 53 128 160 161 161 161 161 161 161 161 161 161 161 161 161 161 161 161 161 161 161
161 161 161 161 161 161 161 161 161 161 161 161 161 161 161 161 161 161 161 161 156 113 31 6 29 94 146 160 161 161 161 161 161 161 161 161 161 160 147 91 24 0 18 82 146 160 161 161 161 161 161 161 161 161 161 161 161 161 161 161 161 161 161 161
161 161 161 161 161 161 161 161 161 161 161 161 161 161 161 161 161 161 161 160 159 137 65 12 9 52 120 154 160 161 161 161 161 161 161 161 161 158 127 55 8 0 36 115 160 161 161 161 161 161 161 161 161 161 161 161 161 161 161 161 161 161 161 161
161 161 161 161 161 161 161 161 161 161 161 161 161 161 161 161 161 161 161 161 161 150 97 22 3 17 64 121 154 161 161 161 161 161 161 161 161 151 92 18 0 6 67 137 160 161 161 161 161 161 161 161 161 161 161 161 161 161 161 161 161 161 161 161
161 161 161 161 161 161 161 161 161 161 161 161 161 161 161 161 161 161 161 161 161 158 129 55 9 1 15 67 128 158 160 161 161 161 161 161 159 129 49 1 1 29 102 151 160 161 161 161 161 161 161 161 161 161 161 161 161 161 161 161 161 161 161 161
161 161 161 161 161 161 161 161 161 161 161 161 161 161 161 161 161 161 161 161 160 160 151 101 34 1 2 20 67 118 147 160 161 160 161 159 145 86 20 0 5 58 134 158 161 161 161 161 161 161 161 161 161 161 161 161 161 161 161 161 161 161 161 161
161 161 161 161 161 161 161 161 161 161 161 161 161 161 161 161 161 161 161 161 161 161 159 135 73 10 0 0 12 56 108 144 150 154 159 149 114 46 6 0 13 91 157 161 161 161 161 161 161 161 161 161 161 161 161 161 161 161 161 161 161 161 161 161
161 161 161 161 161 161 161 161 161 161 161 161 161 161 161 161 161 161 161 161 161 161 160 155 120 47 9 0 1 13 41 82 105 117 115 104 56 10 0 1 39 119 159 161 161 161 161 161 161 161 161 161 161 161 161 161 161 161 161 161 161 161 161 161
161 161 161 161 161 161 161 161 161 161 161 161 161 161 161 161 161 161 161 161 161 161 161 160 154 106 45 4 0 0 1 24 39 36 44 37 5 0 1 22 85 142 160 161 161 161 161 161 161 161 161 161 161 161 161 161 161 161 161 161 161 161 161 161
161 161 161 161 161 161 161 161 161 161 161 161 161 161 161 161 161 161 161 161 161 161 161 161 159 144 105 49 15 3 0 1 0 4 5 1 0 0 8 58 127 157 160 161 161 161 161 161 161 161 161 161 161 161 161 161 161 161 161 161 161 161 161 161
161 161 161 161 161 161 161 161 161 161 161 161 161 161 161 161 161 161 161 161 161 161 161 161 161 159 154 115 61 24 13 8 1 0 0 0 0 8 36 107 155 161 161 161 161 161 161 161 161 161 161 161 161 161 161 161 161 161 161 161 161 161 161 161
161 161 161 161 161 161 161 161 161 161 161 161 161 161 161 161 161 161 161 161 161 161 161 161 161 161 161 149 124 99 71 44 23 16 10 3 23 50 104 146 161 161 161 161 161 161 161 161 161 161 161 161 161 161 161 161 161 161 161 161 161 161 161 161
161 161 161 161 161 161 161 161 161 161 161 161 161 161 161 161 161 161 161 161 161 161 161 161 161 161 161 160 159 151 131 115 96 70 56 68 90 127 149 159 161 161 161 161 161 161 161 161 161 161 161 161 161 161 161 161 161 161 161 161 161 161 161 161
161 161 161 161 161 161 161 161 161 161 161 161 161 161 161 161 161 161 161 161 161 161 161 161 161 161 161 161 161 160 160 160 146 134 135 133 147 158 159 161 161 161 161 161 161 161 161 161 161 161 161 161 161 161 161 161 161 161 161 161 161 161 161 161
161 161 161 161 161 161 161 161 161 161 161 161 161 161 161 161 161 161 161 161 161 161 161 161 161 161 161 161 161 161 161 160 160 160 158 158 160 160 161 161 161 161 161 161 161 161 161 161 161 161 161 161 161 161 161 161 161 161 161 161 161 161 161 161
161 161 161 161 161 161 161 161 161 161 161 161 161 161 161 161 161 161 161 161 161 161 161 161 161 161 161 161 161 161 161 161 161 161 160 161 161 161 161 161 161 161 161 161 161 161 161 161 161 161 161 161 161 161 161 161 161 161 161 161 161 161 161 161
161 161 161 161 161 161 161 161 161 161 161 161 161 161 161 161 161 161 161 161 161 161 161 161 161 161 161 161 161 161 161 161 161 161 161 161 161 161 161 161 161 161 161 161 161 161 161 161 161 161 161 161 161 161 161 161 161 161 161 161 161 161 161 161
161 161 161 161 161 161 161 161 161 161 161 161 161 161 161 161 161 161 161 161 161 161 161 161 161 161 161 161 161 161 161 161 161 161 161 161 161 161 161 161 161 161 161 161 161 161 161 161 161 161 161 161 161 161 161 161 161 161 161 161 161 161 161 161
161 161 161 161 161 161 161 161 161 161 161 161 161 161 161 161 161 161 161 161 161 161 161 161 161 161 161 161 161 161 161 161 161 161 161 161 161 161 161 161 161 161 161 161 161 161 161 161 161 161 161 161 161 161 161 161 161 161 161 161 161 161 161 161
161 161 161 161 161 161 161 161 161 161 161 161 161 161 161 161 161 161 161 161 161 161 161 161 161 161 161 161 161 161 161 161 161 161 161 161 161 161 161 161 161 161 161 161 161 161 161 161 161 161 161 161 161 161 161 161 161 161 161 161 161 161 161 161
