P2
64 64
255
139 139 139 139 139 139 139 139 139 139 139 139 139 139 139 139 139 139 139 139 139 139 139 139 139 139 139 139 139 139 139 139 139 139 139 139 139 139 139 139 139 139 139 139 139 139 139 139 139 139 139 139 139 139 139 139 139 139 139 139 139 139 139 139
139 139 139 139 139 139 139 139 139 139 139 139 139 139 139 139 139 139 139 139 139 139 139 139 139 139 139 139 139 139 139 139 139 139 139 139 139 139 139 139 139 139 139 139 139 139 139 139 139 139 139 139 139 139 139 139 139 139 139 139 139 139 139 139
139 139 139 139 139 139 139 139 139 139 139 139 139 139 139 139 139 139 139 139 139 139 139 139 139 139 139 139 139 139 139 139 139 139 139 139 139 139 139 139 139 139 139 139 139 139 139 139 139 139 139 139 139 139 139 139 139 139 139 139 139 139 139 139
139 139 139 139 139 139 139 139 139 139 139 139 139 139 139 139 139 139 139 139 139 139 139 139 139 139 139 139 139 139 139 139 138 139 139 139 139 139 139 139 139 139 139 139 139 139 139 139 139 139 139 139 139 139 139 139 139 139 139 139 139 139 139 139
139 139 139 139 139 139 139 139 139 139 139 139 139 139 139 139 139 139 139 139 139 139 139 139 139 139 139 139 139 139 139 138 138 137 138 139 139 139 139 139 139 139 139 139 139 139 139 139 139 139 139 139 139 139 139 139 139 139 139 139 139 139 139 139
139 139 139 139 139 139 139 139 139 139 139 139 139 139 139 139 139 139 139 139 139 139 139 139 139 139 139 139 139 139 139 136 133 131 134 136 138 139 139 139 139 139 139 139 139 139 139 139 139 139 139 139 139 139 139 139 139 139 139 139 139 139 139 139
139 139 139 139 139 139 139 139 139 139 139 139 139 139 139 139 139 139 139 139 139 139 139 139 139 139 139 139 139 138 134 125 110 107 114 125 136 137 138 139 139 139 139 139 139 139 139 139 139 139 139 139 139 139 139 139 139 139 139 139 139 139 139 139
139 139 139 139 139 139 139 139 139 139 139 139 139 139 139 139 139 139 139 139 139 139 139 139 139 139 139 139 138 138 121 93 68 50 74 109 129 137 138 139 139 139 139 139 139 139 139 139 139 139 139 139 139 139 139 139 139 139 139 139 139 139 139 139
139 139 139 139 139 139 139 139 139 139 139 139 139 139 139 139 139 139 139 139 139 139 139 139 139 139 139 139 138 125 98 54 24 19 43 91 123 136 139 139 139 139 139 139 139 139 139 139 139 139 139 139 139 139 139 139 139 139 139 139 139 139 139 139
139 139 139 139 139 139 139 139 139 139 139 139 139 139 139 139 139 139 139 139 139 139 139 139 139 139 139 138 135 111 65 26 2 5 38 86 125 137 139 139 139 139 139 139 139 139 139 139 139 139 139 139 139 139 139 139 139 139 139 139 139 139 139 139
139 139 139 139 139 139 139 139 139 139 139 139 139 139 139 139 139 139 139 139 139 139 139 139 139 139 139 138 122 87 35 8 1 13 46 100 128 138 139 139 139 139 139 139 139 139 139 139 139 139 139 139 139 139 139 139 139 139 139 139 139 139 139 139
139 139 139 139 139 139 139 139 139 139 139 139 139 139 139 139 139 139 139 139 139 139 139 139 139 139 138 132 108 57 20 1 1 27 72 115 138 138 139 139 139 139 139 139 139 139 139 139 139 139 139 139 139 139 139 139 139 139 139 139 139 139 139 139
139 139 139 139 139 139 139 139 139 139 139 139 139 139 139 139 139 139 139 139 139 139 139 139 139 138 138 118 80 31 4 1 15 48 101 128 138 139 139 139 139 139 139 139 139 139 139 139 139 139 139 139 139 139 139 139 139 139 139 139 139 139 139 139
139 139 139 139 139 139 139 139 139 139 139 139 139 139 139 139 139 139 139 139 139 139 139 139 139 138 129 103 49 16 1 3 31 79 118 138 138 139 139 139 139 139 139 139 139 139 139 138 138 138 139 139 139 139 139 139 139 139 139 139 139 139 139 139
139 139 139 139 139 139 139 139 139 139 139 139 139 139 139 139 139 139 139 139 139 139 139 139 138 138 115 72 27 1 1 19 56 107 131 138 139 139 139 139 139 139 139 139 139 139 139 137 136 135 136 137 139 139 139 139 139 139 139 139 139 139 139 139
139 139 139 139 139 139 139 139 139 139 139 139 139 139 139 139 139 139 139 139 139 139 139 139 138 127 97 43 12 1 7 34 86 121 138 138 139 139 139 139 139 139 139 139 139 139 137 133 124 119 120 130 136 138 139 139 139 139 139 139 139 139 139 139
139 139 139 139 139 139 139 139 139 139 139 139 139 139 139 139 139 139 139 139 139 139 139 139 137 119 71 27 0 1 22 63 111 135 138 139 139 139 139 139 139 139 139 139 139 138 134 113 88 70 82 112 129 137 138 139 139 139 139 139 139 139 139 139
139 139 139 139 139 139 139 139 139 139 139 139 139 139 139 139 139 139 139 139 139 139 139 139 130 103 49 11 0 9 37 93 124 138 139 139 139 139 139 139 139 139 139 139 139 137 123 85 39 27 40 84 123 136 139 139 139 139 139 139 139 139 139 139
139 139 139 139 139 139 139 139 139 139 139 139 139 139 139 139 139 139 139 139 139 139 139 136 125 77 31 1 0 18 63 111 138 138 139 139 139 139 139 139 139 139 139 139 138 137 103 53 10 2 23 75 121 138 139 139 139 139 139 139 139 139 139 139
139 139 139 139 139 139 139 139 139 139 139 139 139 139 139 139 139 139 139 139 139 139 139 130 100 51 8 0 7 32 88 125 138 139 139 139 139 139 139 139 139 139 139 139 138 126 89 28 5 2 21 81 123 138 139 139 139 139 139 139 139 139 139 139
139 139 139 139 139 139 139 139 139 139 139 139 139 139 139 139 139 139 139 139 139 139 134 122 71 27 1 1 14 60 107 138 138 139 139 139 139 139 139 139 139 139 139 139 138 121 73 22 0 2 37 89 134 138 139 139 139 139 139 139 139 139 139 139
139 139 139 139 139 139 139 139 139 139 139 139 139 139 139 139 139 139 139 139 139 139 129 93 45 2 0 8 36 89 128 138 139 139 139 139 139 139 139 139 139 139 139 139 135 115 59 15 1 9 45 105 133 139 139 139 139 139 139 139 139 139 139 139
139 139 139 139 139 139 139 139 139 139 139 139 139 139 139 139 139 139 139 139 139 135 117 67 21 1 2 15 67 111 138 138 139 139 139 139 139 139 139 139 139 139 139 138 136 103 51 6 0 14 59 113 136 139 139 139 139 139 139 139 139 139 139 139
139 139 139 139 139 139 139 139 139 139 139 139 139 139 139 139 139 139 139 139 138 134 94 44 2 0 9 44 95 133 138 139 139 139 139 139 139 139 139 139 139 139 139 138 128 95 35 7 1 16 70 117 137 139 139 139 139 139 139 139 139 139 139 139
139 139 139 139 139 139 139 139 139 139 139 139 139 139 139 139 139 139 139 139 137 121 74 19 2 3 17 74 117 138 139 139 139 139 139 139 139 139 139 139 139 139 139 138 121 75 26 0 1 30 80 129 137 139 139 139 139 139 139 139 139 139 139 139
139 139 139 139 139 139 139 139 139 139 139 139 139 139 139 139 139 139 139 138 137 103 51 8 0 4 44 97 137 138 139 139 139 139 139 139 139 139 139 139 139 139 139 134 112 56 14 0 8 40 97 129 139 139 139 139 139 139 139 139 139 139 139 139
139 139 139 139 139 139 139 139 139 139 139 139 139 139 139 139 139 139 139 138 123 85 26 5 1 14 66 116 136 139 139 139 139 139 139 139 139 139 139 139 139 139 138 134 94 41 2 0 16 59 111 136 138 139 139 139 139 139 139 139 139 139 139 139
139 139 139 139 139 139 139 139 139 139 139 139 139 139 139 139 139 139 138 136 110 61 17 0 1 36 86 130 137 139 139 139 139 139 139 139 139 139 139 139 139 139 138 124 81 22 2 3 20 80 121 138 139 139 139 139 139 139 139 139 139 139 139 139
139 139 139 139 139 139 139 139 139 139 138 138 139 139 139 139 139 139 138 124 91 35 8 0 13 52 107 132 139 139 139 139 139 139 139 139 139 139 139 139 139 138 138 116 65 15 0 3 40 94 136 138 139 139 139 139 139 139 139 139 139 139 139 139
139 139 139 139 139 139 139 139 139 137 136 135 135 138 139 139 139 139 135 118 66 23 0 0 28 74 119 138 139 139 139 139 139 139 139 139 139 139 139 139 139 139 134 112 51 12 0 10 55 110 135 139 139 139 139 139 139 139 139 139 139 139 139 139
139 139 139 139 139 139 139 138 139 129 118 111 116 127 129 137 137 138 131 99 46 7 0 12 44 100 128 138 139 139 139 139 139 139 139 139 139 139 139 139 139 138 136 99 45 2 0 18 66 121 137 139 139 139 139 139 139 139 139 139 139 139 139 139
139 139 139 139 139 139 139 138 127 104 68 58 63 75 93 107 120 136 129 77 28 1 1 19 69 115 138 138 139 139 139 139 139 139 139 139 139 139 139 139 139 138 128 92 31 4 2 16 79 122 138 139 139 139 139 139 139 139 139 139 139 139 139 139
139 139 139 139 139 139 139 136 119 68 30 9 10 23 28 49 76 97 88 55 4 0 7 35 93 129 138 139 139 139 139 139 139 139 139 139 139 139 139 139 139 139 122 77 23 0 1 33 86 134 137 139 139 139 139 139 139 139 139 139 139 139 139 139
139 139 139 139 139 139 139 135 116 71 25 2 0 0 3 10 16 37 37 17 1 0 7 59 110 137 138 139 139 139 139 139 139 139 139 139 139 139 139 139 139 135 118 62 17 0 7 43 100 131 139 139 139 139 139 139 139 139 139 139 139 139 139 139
139 139 139 139 139 139 138 137 127 95 51 15 7 1 0 0 1 4 1 0 0 0 16 63 109 129 137 138 139 139 139 139 139 139 139 139 139 139 139 139 138 136 101 48 3 0 14 56 112 135 139 139 139 139 139 139 139 139 139 139 139 139 139 139
139 139 139 139 139 139 139 139 137 121 99 68 37 14 12 3 1 0 0 0 0 0 9 30 64 89 107 128 138 138 139 139 139 139 139 139 139 139 139 139 138 128 89 29 3 1 14 73 118 138 139 139 139 139 139 139 139 139 139 139 139 139 139 139
139 139 139 139 139 139 139 139 138 138 135 114 95 75 56 45 27 4 0 0 0 0 0 8 13 27 57 87 108 129 138 138 139 139 139 139 139 139 139 139 138 118 72 20 0 2 34 87 134 138 139 139 139 139 139 139 139 139 139 139 139 139 139 139
139 139 139 139 139 139 139 139 139 139 138 138 135 121 117 98 65 21 3 0 0 1 0 0 0 4 11 28 58 88 107 128 137 138 139 139 139 139 139 139 133 112 54 14 0 7 47 103 133 139 139 139 139 139 139 139 139 139 139 139 139 139 139 139
139 139 139 139 139 139 139 139 139 139 139 139 138 138 136 117 74 26 0 0 7 12 13 5 0 0 0 5 11 28 55 83 109 130 138 138 139 139 139 138 131 92 40 2 0 17 61 117 136 139 139 139 139 139 139 139 139 139 139 139 139 139 139 139
139 139 139 139 139 139 139 139 139 139 139 139 139 139 130 104 50 13 0 6 23 57 53 33 25 14 1 1 0 4 8 26 62 99 118 133 138 138 139 137 122 75 21 1 3 21 81 121 138 139 139 139 139 139 139 139 139 139 139 139 139 139 139 139
139 139 139 139 139 139 139 139 139 139 139 139 139 137 129 82 33 1 0 16 57 97 109 100 79 59 40 17 2 1 0 5 18 44 79 111 127 136 138 137 110 58 8 0 6 43 97 136 138 139 139 139 139 139 139 139 139 139 139 139 139 139 139 139
139 139 139 139 139 139 139 139 139 139 139 139 139 137 113 62 12 1 6 29 87 123 137 131 127 117 91 66 43 18 2 0 0 13 31 60 97 130 136 129 101 41 9 1 10 60 112 137 139 139 139 139 139 139 139 139 139 139 139 139 139 139 139 139
139 139 139 139 139 139 139 139 139 139 139 139 138 137 93 39 3 0 8 55 106 138 138 139 139 134 129 119 94 65 37 12 0 0 0 21 51 87 118 125 82 31 0 1 26 74 127 137 139 139 139 139 139 139 139 139 139 139 139 139 139 139 139 139
139 139 139 139 139 139 139 139 139 139 139 139 138 115 70 13 2 2 22 79 124 138 139 139 139 139 139 135 131 117 82 46 24 8 0 1 5 40 81 99 62 17 1 6 33 92 127 138 139 139 139 139 139 139 139 139 139 139 139 139 139 139 139 139
139 139 139 139 139 139 139 139 139 139 139 138 132 95 41 8 0 3 48 99 136 138 139 139 139 139 139 139 139 133 121 100 67 31 11 2 1 10 33 53 38 4 0 10 52 106 136 138 139 139 139 139 139 139 139 139 139 139 139 139 139 139 139 139
139 139 139 139 139 139 139 139 139 139 138 138 113 69 16 2 1 23 71 122 136 139 139 139 139 139 139 139 139 138 138 128 112 85 46 9 1 0 6 20 12 2 1 14 71 118 137 139 139 139 139 139 139 139 139 139 139 139 139 139 139 139 139 139
139 139 139 139 139 139 139 139 139 139 138 128 97 39 9 0 2 44 95 130 139 139 139 139 139 139 139 139 139 139 138 138 137 122 92 55 21 1 0 0 1 0 1 35 87 134 137 139 139 139 139 139 139 139 139 139 139 139 139 139 139 139 139 139
139 139 139 139 139 139 139 139 139 139 138 116 68 17 1 0 17 61 118 134 139 139 139 139 139 139 139 139 139 139 139 139 138 137 131 101 49 9 0 0 0 0 11 52 105 133 139 139 139 139 139 139 139 139 139 139 139 139 139 139 139 139 139 139
139 139 139 139 139 139 139 139 139 139 132 108 45 11 0 2 22 79 122 138 139 139 139 139 139 139 139 139 139 139 139 139 139 139 137 123 83 24 2 0 0 0 32 77 121 137 138 139 139 139 139 139 139 139 139 139 139 139 139 139 139 139 139 139
139 139 139 139 139 139 139 139 139 138 129 88 35 0 0 8 40 98 132 138 139 139 139 139 139 139 139 139 139 139 139 139 139 139 139 135 109 51 4 0 1 16 56 108 130 138 139 139 139 139 139 139 139 139 139 139 139 139 139 139 139 139 139 139
139 139 139 139 139 139 139 139 139 136 118 69 19 1 3 13 69 114 137 139 139 139 139 139 139 139 139 139 139 139 139 139 139 139 139 138 125 83 35 17 10 50 92 128 139 139 139 139 139 139 139 139 139 139 139 139 139 139 139 139 139 139 139 139
139 139 139 139 139 139 139 139 138 136 101 50 6 0 8 44 95 135 138 139 139 139 139 139 139 139 139 139 139 139 139 139 139 139 139 138 135 122 88 66 71 97 126 135 139 139 139 139 139 139 139 139 139 139 139 139 139 139 139 139 139 139 139 139
139 139 139 139 139 139 139 139 138 128 92 34 6 2 16 69 115 137 139 139 139 139 139 139 139 139 139 139 139 139 139 139 139 139 139 139 139 136 126 122 121 128 135 139 139 139 139 139 139 139 139 139 139 139 139 139 139 139 139 139 139 139 139 139
139 139 139 139 139 139 139 139 139 128 92 40 2 9 43 90 133 137 139 139 139 139 139 139 139 139 139 139 139 139 139 139 139 139 139 139 139 138 138 137 136 138 138 139 139 139 139 139 139 139 139 139 139 139 139 139 139 139 139 139 139 139 139 139
139 139 139 139 139 139 139 139 137 133 106 63 40 44 77 115 134 139 139 139 139 139 139 139 139 139 139 139 139 139 139 139 139 139 139 139 139 139 139 139 139 138 139 139 139 139 139 139 139 139 139 139 139 139 139 139 139 139 139 139 139 139 139 139
139 139 139 139 139 139 139 139 139 136 126 111 93 98 115 132 137 139 139 139 139 139 139 139 139 139 139 139 139 139 139 139 139 139 139 139 139 139 139 139 139 139 139 139 139 139 139 139 139 139 139 139 139 139 139 139 139 139 139 139 139 139 139 139
139 139 139 139 139 139 139 139 139 138 138 134 129 133 134 137 139 139 139 139 139 139 139 139 139 139 139 139 139 139 139 139 139 139 139 139 139 139 139 139 139 139 139 139 139 139 139 139 139 139 139 139 139 139 139 139 139 139 139 139 139 139 139 139
139 139 139 139 139 139 139 139 139 139 139 139 139 137 138 139 139 139 139 139 139 139 139 139 139 139 139 139 139 139 139 139 139 139 139 139 139 139 139 139 139 139 139 139 139 139 139 139 139 139 139 139 139 139 139 139 139 139 139 139 139 139 139 139
139 139 139 139 139 139 139 139 139 139 139 139 139 139 139 139 139 139 139 139 139 139 139 139 139 139 139 139 139 139 139 139 139 139 139 139 139 139 139 139 139 139 139 139 139 139 139 139 139 139 139 139 139 139 139 139 139 139 139 139 139 139 139 139
139 139 139 139 139 139 139 139 139 139 139 139 139 139 139 139 139 139 139 139 139 139 139 139 139 139 139 139 139 139 139 139 139 139 139 139 139 139 139 139 139 139 139 139 139 139 139 139 139 139 139 139 139 139 139 139 139 139 139 139 139 139 139 139
139 139 139 139 139 139 139 139 139 139 139 139 139 139 139 139 139 139 139 139 139 139 139 139 139 139 139 139 139 139 139 139 139 139 139 139 139 139 139 139 139 139 139 139 139 139 139 139 139 139 139 139 139 139 139 139 139 139 139 139 139 139 139 139
139 139 139 139 139 139 139 139 139 139 139 139 139 139 139 139 139 139 139 139 139 139 139 139 139 139 139 139 139 139 139 139 139 139 139 139 139 139 139 139 139 139 139 139 139 139 139 139 139 139 139 139 139 139 139 139 139 139 139 139 139 139 139 139
139 139 139 139 139 139 139 139 139 139 139 139 139 139 139 139 139 139 139 139 139 139 139 139 139 139 139 139 139 139 139 139 139 139 139 139 139 139 139 139 139 139 139 139 139 139 139 139 139 139 139 139 139 139 139 139 139 139 139 139 139 139 139 139
139 139 139 139 139 139 139 139 139 139 139 139 139 139 139 139 139 139 139 139 139 139 139 139 139 139 139 139 139 139 139 139 139 139 139 139 139 139 139 139 139 139 139 139 139 139 139 139 139 139 139 139 139 139 139 139 139 139 139 139 139 139 139 139
