P2
64 64
255
145 145 145 145 145 145 145 145 145 145 145 145 145 145 145 145 145 145 145 145 145 145 145 145 145 145 145 145 145 145 145 145 145 145 145 145 145 145 145 145 145 145 145 145 145 145 145 145 145 145 145 145 145 145 145 145 145 145 145 145 145 145 145 145
145 145 145 145 145 145 145 145 145 145 145 145 145 145 145 145 145 145 145 145 145 145 145 145 145 145 145 145 145 145 145 145 145 145 145 145 145 145 145 145 145 145 145 145 145 145 145 145 145 145 145 145 145 145 145 145 145 145 145 145 145 145 145 145
145 145 145 145 145 145 145 145 145 145 145 145 145 145 145 145 145 145 145 145 145 145 145 145 145 145 145 145 145 145 145 145 145 145 145 145 145 145 145 145 145 145 145 145 145 145 145 145 145 145 145 145 145 145 145 145 145 145 145 145 145 145 145 145
145 145 145 145 145 145 145 145 145 145 145 145 145 145 145 145 145 145 145 145 145 145 145 145 145 145 145 145 145 145 145 145 145 145 145 145 145 145 145 145 145 145 145 145 145 145 145 145 145 145 145 145 145 145 145 145 145 145 145 145 145 145 145 145
145 145 145 145 145 145 145 145 145 145 145 145 145 145 145 145 145 145 145 145 145 145 145 145 145 145 145 145 145 145 145 145 145 145 145 145 145 145 145 145 145 145 145 145 145 145 145 145 145 145 145 145 145 145 145 145 145 145 145 145 145 145 145 145
145 145 145 145 145 145 145 145 145 145 145 145 145 145 145 145 145 145 145 145 145 145 145 145 145 145 145 145 145 145 145 145 145 145 145 145 145 145 145 145 145 145 145 145 145 145 145 145 145 145 145 145 145 145 145 145 145 145 145 145 145 145 145 145
145 145 145 145 145 145 145 145 145 145 145 145 145 145 145 145 145 145 145 145 145 145 145 145 145 145 145 145 145 145 145 145 145 145 145 145 145 145 145 145 145 145 145 145 145 145 145 145 145 145 145 145 145 145 145 145 145 145 145 145 145 145 145 145
145 145 145 145 145 145 145 145 145 145 145 145 145 145 145 145 145 145 145 145 145 145 145 145 145 145 145 145 145 145 145 145 145 145 145 145 145 145 145 145 145 145 145 145 145 145 145 145 145 145 145 145 145 145 145 145 145 145 145 145 145 145 145 145
145 145 145 145 145 145 145 145 145 145 145 145 145 145 145 145 145 145 145 145 145 145 145 145 145 145 145 145 145 145 145 145 145 145 145 145 145 145 145 145 145 145 145 145 145 145 145 145 145 145 145 145 145 145 145 145 145 145 145 145 145 145 145 145
145 145 145 145 145 145 145 145 145 145 145 145 145 145 145 145 145 145 145 145 145 145 145 145 145 145 145 145 145 145 145 145 145 145 145 145 145 145 145 145 145 145 145 145 145 145 145 145 145 145 145 145 145 145 145 145 145 145 145 145 145 145 145 145
145 145 145 145 145 145 145 145 145 145 145 145 145 145 145 145 145 145 145 145 145 145 145 145 145 145 145 145 145 145 145 145 145 145 145 145 145 145 145 145 145 144 145 145 145 145 145 145 145 145 145 145 145 145 145 145 145 145 145 145 145 145 145 145
145 145 145 145 145 145 145 145 145 145 145 145 145 145 145 145 145 145 145 145 145 145 145 145 145 145 145 145 145 145 145 145 145 145 145 145 144 145 143 143 143 142 142 143 143 143 145 145 145 145 145 145 145 145 145 145 145 145 145 145 145 145 145 145
145 145 145 145 145 145 145 145 145 145 145 145 145 145 145 145 145 145 145 145 145 145 145 145 145 145 145 145 144 145 145 143 142 141 136 137 134 131 121 117 104 105 102 109 113 121 129 132 142 142 145 145 145 145 145 145 145 145 145 145 145 145 145 145
145 145 145 145 145 145 145 145 145 145 145 145 145 145 145 145 145 145 145 145 145 145 145 145 145 145 145 143 143 141 134 124 103 85 76 66 67 60 47 32 26 13 23 23 30 44 53 71 90 112 135 139 144 145 145 145 145 145 145 145 145 145 145 145
145 145 145 145 145 145 145 145 145 145 145 145 145 145 145 145 145 145 145 145 145 145 144 143 143 139 134 126 114 98 77 46 25 10 6 6 5 6 6 0 0 0 0 0 1 0 4 7 16 44 75 110 139 143 144 145 145 145 145 145 145 145 145 145
145 145 145 145 145 145 145 145 145 145 145 145 145 145 145 145 145 145 145 145 145 141 135 127 112 97 75 54 34 21 13 4 0 0 1 2 7 14 19 14 18 11 18 17 17 10 2 2 0 2 15 60 115 137 144 145 145 145 145 145 145 145 145 145
145 145 145 145 145 145 145 145 145 145 145 145 145 145 145 145 145 145 145 145 139 127 103 76 52 29 16 5 0 2 6 9 9 21 29 54 69 84 91 96 92 101 97 99 92 74 56 30 7 1 2 26 81 128 143 145 145 145 145 145 145 145 145 145
145 145 145 145 145 145 145 145 145 145 145 145 145 145 145 145 145 145 145 142 133 105 69 35 20 13 9 10 19 35 51 69 81 97 116 126 135 137 139 142 141 142 142 144 139 139 125 88 43 9 0 17 62 121 142 145 145 145 145 145 145 145 145 145
145 145 145 145 145 145 145 145 145 145 145 145 145 145 145 145 145 145 144 143 133 112 78 52 51 54 64 75 90 110 125 133 141 140 143 145 145 144 145 144 145 145 145 145 145 145 140 120 71 20 4 15 64 115 143 144 145 145 145 145 145 145 145 145
145 145 145 145 145 145 145 145 145 145 145 145 145 145 145 145 145 145 145 144 141 133 118 112 112 120 126 133 139 141 144 144 145 145 145 145 145 145 145 145 145 145 145 145 145 145 141 128 71 25 6 18 60 112 140 144 145 145 145 145 145 145 145 145
145 145 145 145 145 145 145 145 145 145 145 145 145 145 145 145 145 145 145 145 145 145 141 140 140 142 144 144 144 145 145 145 145 145 145 145 145 145 145 145 145 145 145 145 145 144 142 100 48 3 1 9 44 107 137 145 145 145 145 145 145 145 145 145
145 145 145 145 145 145 145 145 145 145 145 145 145 145 145 145 145 145 145 145 145 145 145 145 144 145 145 145 145 145 145 145 145 145 145 145 145 145 145 145 145 145 145 145 144 144 116 68 11 2 0 7 58 112 143 144 145 145 145 145 145 145 145 145
145 145 145 145 145 145 145 145 145 145 145 145 145 145 145 145 145 145 145 145 145 145 145 145 145 145 145 145 145 145 145 145 145 145 145 145 145 145 145 145 145 145 145 145 145 132 95 34 7 0 1 26 77 132 143 145 145 145 145 145 145 145 145 145
145 145 145 145 145 145 145 145 145 145 145 145 145 145 145 145 145 145 145 145 145 145 145 145 145 145 145 145 145 145 145 145 145 145 145 145 145 145 145 145 145 145 144 145 135 112 59 19 0 0 15 54 109 137 145 145 145 145 145 145 145 145 145 145
145 145 145 145 145 145 145 145 145 145 145 145 145 145 145 145 145 145 145 145 145 145 145 145 145 145 145 145 145 145 145 145 145 145 145 145 145 145 144 145 144 143 141 129 106 64 25 1 0 12 47 100 132 144 145 145 145 145 145 145 145 145 145 145
145 145 145 145 145 145 145 145 145 145 145 145 145 145 145 145 145 145 145 145 145 145 145 145 145 145 145 145 145 145 145 145 145 145 145 145 144 144 143 139 134 121 98 73 39 18 1 0 11 42 94 129 144 145 145 145 145 145 145 145 145 145 145 145
145 145 145 145 145 145 145 145 145 145 145 145 145 145 145 145 145 145 145 145 145 145 145 145 145 145 145 145 145 145 145 145 145 145 145 143 143 134 119 101 72 48 25 10 5 0 1 16 44 92 126 144 145 145 145 145 145 145 145 145 145 145 145 145
145 145 145 145 145 145 145 145 145 145 145 145 145 145 145 145 145 145 145 145 145 145 145 145 145 145 145 145 145 145 145 143 144 139 134 126 105 81 52 29 14 2 1 2 7 15 42 68 108 129 144 145 145 145 145 145 145 145 145 145 145 145 145 145
145 145 145 145 145 145 145 145 145 145 145 145 145 145 145 145 145 145 145 145 145 145 145 145 145 145 144 144 143 140 137 130 115 99 77 55 33 13 7 1 1 7 21 35 62 87 110 132 138 145 144 145 145 145 145 145 145 145 145 145 145 145 145 145
145 145 145 145 145 145 145 145 145 145 145 145 145 145 145 145 145 145 145 145 145 145 144 144 143 141 138 129 113 101 78 60 40 24 14 6 0 2 6 11 33 58 85 112 126 140 142 144 145 145 145 145 145 145 145 145 145 145 145 145 145 145 145 145
145 145 145 145 145 145 145 145 145 145 145 145 145 145 145 145 145 145 144 144 141 138 136 128 115 107 83 63 41 24 15 4 2 2 4 7 18 34 51 79 101 125 135 142 145 144 145 145 145 145 145 145 145 145 145 145 145 145 145 145 145 145 145 145
145 145 145 145 145 145 145 145 145 145 145 144 145 144 144 143 142 138 133 118 106 91 75 59 40 27 18 3 4 2 4 7 18 29 46 67 87 109 123 133 142 143 145 145 145 145 145 145 145 145 145 145 145 145 145 145 145 145 145 145 145 145 145 145
145 145 145 145 145 145 145 145 145 144 144 142 141 137 132 117 106 84 65 46 29 21 13 5 5 2 3 5 17 26 47 67 87 107 120 131 140 141 144 144 145 145 145 145 145 145 145 145 145 145 145 145 145 145 145 145 145 145 145 145 145 145 145 145
145 145 145 145 145 144 144 142 139 138 125 111 100 81 66 46 27 18 4 2 2 4 7 14 23 29 48 62 82 102 116 133 138 142 144 144 144 145 144 145 145 145 145 145 145 145 145 145 145 145 145 145 145 145 145 145 145 145 145 145 145 145 145 145
145 145 145 143 138 134 117 110 96 77 57 33 22 15 6 5 2 3 5 15 23 41 61 77 94 108 118 134 135 141 143 144 144 145 145 145 145 145 145 145 145 145 145 145 145 145 145 145 145 145 145 145 145 145 145 145 145 145 145 145 145 145 145 145
144 144 138 124 88 56 38 23 21 13 4 2 1 2 9 19 23 44 62 81 102 115 129 137 138 142 144 144 144 145 145 145 145 145 145 145 145 145 145 145 145 145 145 145 145 145 145 145 145 145 145 145 145 145 145 145 145 145 145 145 145 145 145 145
145 140 123 64 26 0 1 0 0 0 0 1 5 19 44 64 97 107 130 136 141 143 144 144 145 144 145 145 145 145 145 145 145 145 145 145 145 145 145 145 145 145 145 145 145 145 145 145 145 145 145 145 145 145 145 145 145 145 145 145 145 145 145 145
144 139 106 48 6 0 0 0 0 0 0 0 1 7 17 40 64 88 117 128 140 144 144 145 145 145 145 145 145 145 145 145 145 145 145 145 145 145 145 145 145 145 145 145 145 145 145 145 145 145 145 145 145 145 145 145 145 145 145 145 145 145 145 145
144 141 122 80 36 10 15 12 19 9 2 2 0 0 0 2 5 26 44 73 104 122 137 144 144 145 145 145 145 145 145 145 145 145 145 145 145 145 145 145 145 145 145 145 145 145 145 145 145 145 145 145 145 145 145 145 145 145 145 145 145 145 145 145
145 144 141 129 108 101 96 102 97 80 61 38 28 19 8 7 0 0 0 18 35 64 98 120 135 144 144 145 145 145 145 145 145 145 145 145 145 145 145 145 145 145 145 145 145 145 145 145 145 145 145 145 145 145 145 145 145 145 145 145 145 145 145 145
145 145 145 143 142 142 141 145 142 142 128 121 109 94 80 50 25 14 0 1 1 15 31 59 93 118 133 144 144 145 145 145 145 145 145 145 145 145 145 145 145 145 145 145 145 145 145 145 145 145 145 145 145 145 145 145 145 145 145 145 145 145 145 145
145 145 145 145 145 144 145 145 145 145 144 145 142 143 134 116 96 66 35 19 2 1 1 12 29 55 89 120 135 144 145 145 145 145 145 145 145 145 145 145 145 145 145 145 145 145 145 145 145 145 145 145 145 145 145 145 145 145 145 145 145 145 145 145
145 145 145 145 145 145 145 145 145 145 145 145 145 145 144 144 138 124 106 73 39 22 5 1 0 10 32 64 106 139 143 144 145 145 145 145 145 145 145 145 145 145 145 145 145 145 145 145 145 145 145 145 145 145 145 145 145 145 145 145 145 145 145 145
145 145 145 145 145 145 145 145 145 145 145 145 145 145 145 145 144 144 141 126 111 77 44 23 6 0 1 14 51 94 125 144 144 145 145 145 145 145 145 145 145 145 145 145 145 145 145 145 145 145 145 145 145 145 145 145 145 145 145 145 145 145 145 145
145 145 145 145 145 145 145 145 145 145 145 145 145 145 145 145 145 145 144 144 143 128 113 81 42 15 2 1 9 34 79 120 136 144 145 145 145 145 145 145 145 145 145 145 145 145 145 145 145 145 145 145 145 145 145 145 145 145 145 145 145 145 145 145
145 145 145 145 145 145 145 145 145 145 145 145 145 145 145 145 145 145 145 145 144 144 144 128 105 62 21 2 0 5 29 64 106 139 143 144 145 145 145 145 145 145 145 145 145 145 145 145 145 145 145 145 145 145 145 145 145 145 145 145 145 145 145 145
145 145 145 145 145 145 145 145 145 145 145 145 145 145 145 145 145 145 145 145 145 145 145 144 142 116 75 36 11 0 2 17 60 110 134 143 145 145 145 145 145 145 145 145 145 145 145 145 145 145 145 145 145 145 145 145 145 145 145 145 145 145 145 145
145 145 145 145 145 145 145 145 145 145 145 145 145 145 145 145 145 145 145 145 145 145 145 145 145 139 125 91 46 13 2 2 21 55 101 137 143 144 145 145 145 145 145 145 145 145 145 145 145 145 145 145 145 145 145 145 145 145 145 145 145 145 145 145
145 145 145 145 145 145 145 145 145 145 145 145 145 145 145 145 145 145 145 145 145 145 145 145 145 144 143 130 99 55 17 0 1 9 46 95 127 142 145 145 145 145 145 145 145 145 145 145 145 145 145 145 145 145 145 145 145 145 145 145 145 145 145 145
145 145 145 145 145 145 145 145 145 145 145 145 145 145 145 145 145 145 145 145 145 145 145 145 145 145 145 143 134 101 46 7 0 0 11 42 97 135 143 145 145 145 145 145 145 145 145 145 145 145 145 145 145 145 145 145 145 145 145 145 145 145 145 145
145 145 145 145 145 145 145 145 145 145 145 145 145 145 145 145 145 145 145 145 145 145 145 145 145 145 145 144 143 128 87 38 11 0 2 15 77 125 143 144 145 145 145 145 145 145 145 145 145 145 145 145 145 145 145 145 145 145 145 145 145 145 145 145
145 145 145 145 145 145 145 145 145 145 145 145 145 145 145 145 145 145 145 145 145 145 145 145 145 145 145 145 145 141 127 95 52 20 11 29 79 128 141 145 145 145 145 145 145 145 145 145 145 145 145 145 145 145 145 145 145 145 145 145 145 145 145 145
145 145 145 145 145 145 145 145 145 145 145 145 145 145 145 145 145 145 145 145 145 145 145 145 145 145 145 145 145 144 143 133 110 86 75 84 118 135 144 145 145 145 145 145 145 145 145 145 145 145 145 145 145 145 145 145 145 145 145 145 145 145 145 145
145 145 145 145 145 145 145 145 145 145 145 145 145 145 145 145 145 145 145 145 145 145 145 145 145 145 145 145 145 145 145 143 140 135 130 136 139 145 145 145 145 145 145 145 145 145 145 145 145 145 145 145 145 145 145 145 145 145 145 145 145 145 145 145
145 145 145 145 145 145 145 145 145 145 145 145 145 145 145 145 145 145 145 145 145 145 145 145 145 145 145 145 145 145 145 145 145 144 144 144 145 145 145 145 145 145 145 145 145 145 145 145 145 145 145 145 145 145 145 145 145 145 145 145 145 145 145 145
145 145 145 145 145 145 145 145 145 145 145 145 145 145 145 145 145 145 145 145 145 145 145 145 145 145 145 145 145 145 145 145 145 145 145 145 145 145 145 145 145 145 145 145 145 145 145 145 145 145 145 145 145 145 145 145 145 145 145 145 145 145 145 145
145 145 145 145 145 145 145 145 145 145 145 145 145 145 145 145 145 145 145 145 145 145 145 145 145 145 145 145 145 145 145 145 145 145 145 145 145 145 145 145 145 145 145 145 145 145 145 145 145 145 145 145 145 145 145 145 145 145 145 145 145 145 145 145
145 145 145 145 145 145 145 145 145 145 145 145 145 145 145 145 145 145 145 145 145 145 145 145 145 145 145 145 145 145 145 145 145 145 145 145 145 145 145 145 145 145 145 145 145 145 145 145 145 145 145 145 145 145 145 145 145 145 145 145 145 145 145 145
145 145 145 145 145 145 145 145 145 145 145 145 145 145 145 145 145 145 145 145 145 145 145 145 145 145 145 145 145 145 145 145 145 145 145 145 145 145 145 145 145 145 145 145 145 145 145 145 145 145 145 145 145 145 145 145 145 145 145 145 145 145 145 145
145 145 145 145 145 145 145 145 145 145 145 145 145 145 145 145 145 145 145 145 145 145 145 145 145 145 145 145 145 145 145 145 145 145 145 145 145 145 145 145 145 145 145 145 145 145 145 145 145 145 145 145 145 145 145 145 145 145 145 145 145 145 145 145
145 145 145 145 145 145 145 145 145 145 145 145 145 145 145 145 145 145 145 145 145 145 145 145 145 145 145 145 145 145 145 145 145 145 145 145 145 145 145 145 145 145 145 145 145 145 145 145 145 145 145 145 145 145 145 145 145 145 145 145 145 145 145 145
145 145 145 145 145 145 145 145 145 145 145 145 145 145 145 145 145 145 145 145 145 145 145 145 145 145 145 145 145 145 145 145 145 145 145 145 145 145 145 145 145 145 145 145 145 145 145 145 145 145 145 145 145 145 145 145 145 145 145 145 145 145 145 145
145 145 145 145 145 145 145 145 145 145 145 145 145 145 145 145 145 145 145 145 145 145 145 145 145 145 145 145 145 145 145 145 145 145 145 145 145 145 145 145 145 145 145 145 145 145 145 145 145 145 145 145 145 145 145 145 145 145 145 145 145 145 145 145
145 145 145 145 145 145 145 145 145 145 145 145 145 145 145 145 145 145 145 145 145 145 145 145 145 145 145 145 145 145 145 145 145 145 145 145 145 145 145 145 145 145 145 145 145 145 145 145 145 145 145 145 145 145 145 145 145 145 145 145 145 145 145 145
