P2
64 64
255
137 137 137 137 137 137 137 137 137 137 137 137 137 137 137 137 137 137 137 137 137 137 137 137 137 137 137 137 137 137 137 137 137 137 137 137 137 137 137 137 137 137 137 137 137 137 137 137 137 137 137 137 137 137 137 137 137 137 137 137 137 137 137 137
137 137 137 137 137 137 137 137 137 137 137 137 137 137 137 137 137 137 137 137 137 137 137 137 137 137 137 137 137 137 137 137 137 137 137 137 137 137 137 137 137 137 137 137 137 137 137 137 137 137 137 137 137 137 137 137 137 137 137 137 137 137 137 137
137 137 137 137 137 137 137 137 137 137 137 137 137 137 137 137 137 137 137 137 137 137 137 137 137 137 137 137 137 137 137 137 137 137 137 137 137 137 137 137 137 137 137 137 137 137 137 137 137 137 137 137 137 137 137 137 137 137 137 137 137 137 137 137
137 137 137 137 137 137 137 137 137 137 137 137 137 137 137 137 137 137 137 137 137 137 137 137 137 137 137 137 137 137 137 137 137 137 137 137 137 137 137 137 137 137 137 137 137 137 137 137 137 137 137 137 137 137 137 137 137 137 137 137 137 137 137 137
137 137 137 137 137 137 137 137 137 137 137 137 137 137 137 137 137 137 137 137 137 137 137 137 137 137 137 137 137 137 137 137 137 137 137 137 137 137 137 137 137 137 137 137 137 137 137 137 137 137 137 137 137 137 137 137 137 137 137 137 137 137 137 137
137 137 137 137 137 137 137 137 137 137 137 137 137 137 137 137 137 137 137 137 137 137 137 137 137 137 137 137 137 137 137 137 137 137 137 137 137 137 137 137 137 137 137 137 137 137 137 137 137 137 137 137 137 137 137 137 137 137 137 137 137 137 137 137
137 137 137 137 137 137 137 137 137 137 137 137 137 137 137 137 137 137 137 137 137 137 137 137 137 137 137 137 137 137 137 137 137 137 137 137 137 137 137 137 137 137 137 137 137 137 137 137 137 137 137 137 137 137 137 137 137 137 137 137 137 137 137 137
137 137 137 137 137 137 137 137 137 137 137 137 137 137 137 137 137 137 137 137 137 137 137 137 137 137 137 137 137 137 137 137 137 137 137 137 137 137 137 137 137 137 137 137 137 137 137 137 137 137 137 137 137 137 137 137 137 137 137 137 137 137 137 137
137 137 137 137 137 137 137 137 137 137 137 137 137 137 137 137 137 137 137 137 137 137 137 137 137 137 137 137 137 137 137 137 137 137 137 137 137 137 137 137 137 137 137 137 137 137 137 137 137 137 137 137 137 137 137 137 137 137 137 137 137 137 137 137
137 137 137 137 137 137 137 137 137 137 137 137 137 137 137 137 137 137 137 137 137 137 137 137 137 137 137 137 137 137 137 137 137 137 137 137 137 137 137 137 137 137 137 137 137 137 137 137 137 137 137 137 137 137 137 137 137 137 137 137 137 137 137 137
137 137 137 137 137 137 137 137 137 137 137 137 137 137 137 137 137 137 137 137 137 137 137 137 137 137 137 137 137 137 137 136 136 136 137 137 137 137 137 137 137 137 137 137 137 137 137 137 137 137 137 137 137 137 137 137 137 137 137 137 137 137 137 137
137 137 137 137 137 137 137 137 137 137 137 137 137 137 137 137 137 137 137 137 137 137 137 137 137 137 137 137 137 137 136 133 127 126 131 135 137 137 137 137 137 137 137 137 137 137 137 137 137 137 137 137 137 137 137 137 137 137 137 137 137 137 137 137
137 137 137 137 137 137 137 137 137 137 137 137 137 137 137 137 137 137 137 137 137 137 137 137 137 137 137 137 136 135 128 103 78 72 93 120 133 136 137 137 137 137 137 137 137 137 137 137 137 137 137 137 137 137 137 137 137 137 137 137 137 137 137 137
137 137 137 137 137 137 137 137 137 137 137 137 136 137 137 137 137 137 137 137 137 137 137 137 137 137 137 137 137 130 103 56 18 9 30 78 117 136 137 137 137 137 137 137 137 137 137 137 137 137 137 137 137 137 137 137 137 137 137 137 137 137 137 137
137 137 137 137 137 137 137 136 133 130 129 132 135 136 137 137 137 137 137 137 137 137 137 137 137 137 137 137 136 126 89 25 3 0 5 37 92 136 136 137 137 137 137 137 137 137 137 137 137 137 137 137 137 137 137 137 137 137 137 137 137 137 137 137
137 137 137 137 137 137 136 131 119 103 97 109 123 133 137 137 137 137 137 137 137 137 137 137 137 137 137 137 136 133 93 31 4 0 0 9 62 119 135 137 137 137 137 137 137 137 137 137 137 137 137 137 137 137 137 137 137 137 137 137 137 137 137 137
137 137 137 137 137 137 134 123 95 55 41 63 97 125 137 136 137 137 137 137 137 137 137 137 137 137 137 137 137 136 108 55 8 0 0 0 32 87 128 136 137 137 137 137 137 137 137 137 137 137 137 137 137 137 137 137 137 137 137 137 137 137 137 137
137 137 137 137 137 137 135 121 79 34 14 27 64 112 133 136 137 137 137 137 137 137 137 137 137 137 137 137 137 136 124 86 17 2 0 0 14 51 113 134 136 137 137 137 137 137 137 137 137 137 137 137 137 137 137 137 137 137 137 137 137 137 137 137
137 137 137 137 137 136 136 120 78 30 2 4 37 89 124 136 137 137 137 137 137 137 137 137 137 137 137 137 137 136 134 107 44 10 0 0 2 25 88 125 136 137 137 137 137 137 137 137 137 137 137 137 137 137 137 137 137 137 137 137 137 137 137 137
137 137 137 137 137 137 136 124 88 33 2 1 23 68 114 136 136 137 137 137 137 137 137 137 137 137 137 137 137 137 136 117 69 18 0 0 0 16 65 115 136 137 137 137 137 137 137 137 137 137 137 137 137 137 137 137 137 137 137 137 137 137 137 137
137 137 137 137 137 137 136 132 106 48 12 1 12 48 105 132 136 137 137 137 137 137 137 137 137 137 137 137 137 137 136 126 92 28 4 0 0 8 40 106 133 136 137 137 137 137 137 137 137 137 137 137 137 137 137 137 137 137 137 137 137 137 137 137
137 137 137 137 137 137 136 136 114 67 21 0 2 29 84 121 136 137 137 137 137 137 137 137 137 137 137 137 137 137 136 135 115 57 16 0 0 1 17 83 123 136 137 137 137 137 137 137 137 137 137 137 137 137 137 137 137 137 137 137 137 137 137 137
137 137 137 137 137 137 137 136 122 84 25 1 0 14 57 108 136 136 137 137 137 137 137 137 137 137 137 137 137 137 137 137 129 91 35 0 0 0 9 55 110 136 137 137 137 137 137 137 137 137 137 137 137 137 137 137 137 137 137 137 137 137 137 137
137 137 137 137 137 137 137 136 131 97 35 6 0 7 37 100 131 136 137 137 137 137 137 137 137 137 137 137 137 137 137 137 135 121 60 10 0 0 3 27 92 131 136 137 137 137 137 137 137 137 137 137 137 137 137 137 137 137 137 137 137 137 137 137
137 137 137 137 137 137 137 136 136 106 53 12 0 2 34 94 128 137 137 137 137 137 137 137 137 137 137 137 137 137 137 137 136 135 87 31 1 0 0 6 65 115 136 137 137 137 137 137 137 137 137 137 137 137 137 137 137 137 137 137 137 137 137 137
137 137 137 137 137 137 137 137 136 118 73 16 1 1 33 85 127 137 137 137 137 137 137 137 137 137 137 137 137 137 137 137 137 136 109 56 3 0 0 3 40 97 136 137 137 137 137 137 137 137 137 137 137 137 137 137 137 137 137 137 137 137 137 137
137 137 137 137 137 137 137 137 136 131 90 30 5 1 21 71 125 135 137 137 137 137 137 137 137 137 137 137 137 137 137 137 137 136 127 81 18 2 0 1 17 74 128 136 137 137 137 137 137 137 137 137 137 137 137 137 137 137 137 137 137 137 137 137
137 137 137 137 137 137 137 137 136 136 103 49 9 0 5 57 111 133 137 137 137 137 137 137 137 137 137 137 137 137 137 137 137 136 136 100 44 5 0 0 1 49 106 135 137 137 137 137 137 137 137 137 137 137 137 137 137 137 137 137 137 137 137 137
137 137 137 137 137 137 137 137 137 136 115 65 9 0 2 44 99 134 137 137 137 137 137 137 137 137 137 137 137 137 137 137 137 137 136 118 72 11 0 0 0 26 78 129 137 137 137 137 137 137 137 137 136 137 137 137 137 137 137 137 137 137 137 137
137 137 137 137 137 137 137 137 137 136 129 80 19 1 2 28 86 135 136 137 137 137 137 137 137 137 137 137 137 137 137 137 137 137 136 131 100 30 5 0 0 8 43 108 131 136 137 136 136 136 136 133 128 130 135 136 137 137 137 137 137 137 137 137
137 137 137 137 137 137 137 137 137 137 135 93 37 2 1 11 73 121 136 137 137 137 137 137 137 137 137 137 137 137 137 137 137 137 136 136 113 58 12 0 0 0 23 75 118 135 133 122 111 100 90 80 78 94 118 132 136 137 137 137 137 137 137 137
137 137 137 137 137 137 137 137 137 137 133 105 51 2 0 10 57 108 136 137 137 137 137 137 137 137 137 137 137 137 137 137 136 136 136 136 122 81 21 1 0 0 9 36 74 88 76 60 45 29 16 14 17 40 81 120 136 137 137 137 137 137 137 137
137 137 137 137 137 137 137 137 137 137 134 118 64 15 1 7 38 94 136 136 137 137 137 137 137 137 137 136 136 136 136 136 131 124 119 117 111 76 21 2 0 0 0 3 14 12 11 8 4 1 0 1 5 30 75 121 136 137 137 137 137 137 137 137
137 137 137 137 137 137 137 137 137 137 137 126 80 30 1 2 18 78 122 136 137 137 136 136 136 136 136 129 119 108 98 89 79 69 59 48 36 19 5 0 0 0 0 0 0 0 0 1 1 2 13 26 45 73 109 129 136 137 137 137 137 137 137 137
137 137 137 137 137 137 137 137 137 137 137 129 98 45 2 0 11 58 108 136 136 136 131 119 108 98 87 71 55 39 24 16 15 13 9 1 0 0 0 0 0 0 0 0 0 12 25 37 50 63 77 91 107 124 132 135 136 137 137 137 137 137 137 137
137 137 137 137 137 137 137 137 137 137 137 133 117 62 14 0 7 36 84 109 98 87 72 57 41 25 14 10 7 3 0 0 0 0 0 2 5 2 0 0 0 0 5 24 53 74 90 104 119 125 128 131 134 137 137 137 137 137 137 137 137 137 137 137
137 137 137 137 137 137 137 137 137 137 137 137 126 80 30 1 2 10 35 38 26 14 11 7 4 0 0 0 1 2 5 17 26 33 37 44 50 45 26 8 0 2 17 74 115 128 131 134 137 137 137 137 137 137 137 137 137 137 137 137 137 137 137 137
137 137 137 137 137 137 137 137 137 137 137 137 129 99 46 1 0 1 3 3 1 0 0 1 2 4 16 29 41 53 67 80 92 102 110 113 115 108 78 29 0 0 15 66 113 136 137 137 137 137 137 137 137 137 137 137 137 137 137 137 137 137 137 137
137 137 137 137 137 137 137 137 137 137 137 137 133 117 64 15 1 0 0 1 3 15 28 40 53 66 80 94 109 123 126 129 132 134 136 136 136 127 93 28 4 0 9 44 101 136 136 137 137 137 137 137 137 137 137 137 137 137 137 137 137 137 137 137
137 137 137 137 137 137 137 137 137 137 137 137 137 128 91 43 15 11 22 40 60 79 93 108 122 126 129 132 135 137 137 137 137 137 137 137 136 135 100 44 10 0 4 30 93 127 136 137 137 137 137 137 137 137 137 137 137 137 137 137 137 137 137 137
137 137 137 137 137 137 137 137 137 137 137 137 137 134 121 98 71 67 86 110 122 128 132 135 137 137 137 137 137 137 137 137 137 137 137 137 137 136 115 70 22 0 0 25 77 119 136 137 137 137 137 137 137 137 137 137 137 137 137 137 137 137 137 137
137 137 137 137 137 137 137 137 137 137 137 137 137 136 135 132 126 125 131 136 137 137 137 137 137 137 137 137 137 137 137 137 137 137 137 137 137 136 127 95 37 7 1 17 58 111 136 136 137 137 137 137 137 137 137 137 137 137 137 137 137 137 137 137
137 137 137 137 137 137 137 137 137 137 137 137 137 137 137 137 137 136 136 137 137 137 137 137 137 137 137 137 137 137 137 137 137 137 137 137 137 136 136 110 57 17 1 8 39 98 128 136 137 137 137 137 137 137 137 137 137 137 137 137 137 137 137 137
137 137 137 137 137 137 137 137 137 137 137 137 137 137 137 137 137 137 137 137 137 137 137 137 137 137 137 137 137 137 137 137 137 137 137 137 137 137 136 119 77 27 1 1 27 78 119 136 137 137 137 137 137 137 137 137 137 137 137 137 137 137 137 137
137 137 137 137 137 137 137 137 137 137 137 137 137 137 137 137 137 137 137 137 137 137 137 137 137 137 137 137 137 137 137 137 137 137 137 137 137 137 136 127 97 38 7 0 17 57 109 136 136 137 137 137 137 137 137 137 137 137 137 137 137 137 137 137
137 137 137 137 137 137 137 137 137 137 137 137 137 137 137 137 137 137 137 137 137 137 137 137 137 137 137 137 137 137 137 137 137 137 137 137 137 137 136 136 110 57 16 0 5 30 88 125 136 137 137 137 137 137 137 137 137 137 137 137 137 137 137 137
137 137 137 137 137 137 137 137 137 137 137 137 137 137 137 137 137 137 137 137 137 137 137 137 137 137 137 137 137 137 137 137 137 137 137 137 137 137 137 136 119 76 24 0 0 10 57 107 136 137 137 137 137 137 137 137 137 137 137 137 137 137 137 137
137 137 137 137 137 137 137 137 137 137 137 137 137 137 137 137 137 137 137 137 137 137 137 137 137 137 137 137 137 137 137 137 137 137 137 137 137 137 137 136 127 96 31 5 0 5 38 98 136 136 137 137 137 137 137 137 137 137 137 137 137 137 137 137
137 137 137 137 137 137 137 137 137 137 137 137 137 137 137 137 137 137 137 137 137 137 137 137 137 137 137 137 137 137 137 137 137 137 137 137 137 137 137 136 136 110 54 15 0 4 29 92 127 136 137 137 137 137 137 137 137 137 137 137 137 137 137 137
137 137 137 137 137 137 137 137 137 137 137 137 137 137 137 137 137 137 137 137 137 137 137 137 137 137 137 137 137 137 137 137 137 137 137 137 137 137 137 137 136 119 77 26 0 0 28 78 120 136 137 137 137 137 137 137 137 137 137 137 137 137 137 137
137 137 137 137 137 137 137 137 137 137 137 137 137 137 137 137 137 137 137 137 137 137 137 137 137 137 137 137 137 137 137 137 137 137 137 137 137 137 137 137 136 128 99 43 11 4 27 73 119 136 136 137 137 137 137 137 137 137 137 137 137 137 137 137
137 137 137 137 137 137 137 137 137 137 137 137 137 137 137 137 137 137 137 137 137 137 137 137 137 137 137 137 137 137 137 137 137 137 137 137 137 137 137 137 136 136 117 79 46 33 50 95 125 135 137 137 137 137 137 137 137 137 137 137 137 137 137 137
137 137 137 137 137 137 137 137 137 137 137 137 137 137 137 137 137 137 137 137 137 137 137 137 137 137 137 137 137 137 137 137 137 137 137 137 137 137 137 137 137 136 131 118 102 93 107 125 133 136 137 137 137 137 137 137 137 137 137 137 137 137 137 137
137 137 137 137 137 137 137 137 137 137 137 137 137 137 137 137 137 137 137 137 137 137 137 137 137 137 137 137 137 137 137 137 137 137 137 137 137 137 137 137 137 137 136 135 133 132 136 136 137 137 137 137 137 137 137 137 137 137 137 137 137 137 137 137
137 137 137 137 137 137 137 137 137 137 137 137 137 137 137 137 137 137 137 137 137 137 137 137 137 137 137 137 137 137 137 137 137 137 137 137 137 137 137 137 137 137 137 137 137 136 137 137 137 137 137 137 137 137 137 137 137 137 137 137 137 137 137 137
137 137 137 137 137 137 137 137 137 137 137 137 137 137 137 137 137 137 137 137 137 137 137 137 137 137 137 137 137 137 137 137 137 137 137 137 137 137 137 137 137 137 137 137 137 137 137 137 137 137 137 137 137 137 137 137 137 137 137 137 137 137 137 137
137 137 137 137 137 137 137 137 137 137 137 137 137 137 137 137 137 137 137 137 137 137 137 137 137 137 137 137 137 137 137 137 137 137 137 137 137 137 137 137 137 137 137 137 137 137 137 137 137 137 137 137 137 137 137 137 137 137 137 137 137 137 137 137
137 137 137 137 137 137 137 137 137 137 137 137 137 137 137 137 137 137 137 137 137 137 137 137 137 137 137 137 137 137 137 137 137 137 137 137 137 137 137 137 137 137 137 137 137 137 137 137 137 137 137 137 137 137 137 137 137 137 137 137 137 137 137 137
137 137 137 137 137 137 137 137 137 137 137 137 137 137 137 137 137 137 137 137 137 137 137 137 137 137 137 137 137 137 137 137 137 137 137 137 137 137 137 137 137 137 137 137 137 137 137 137 137 137 137 137 137 137 137 137 137 137 137 137 137 137 137 137
137 137 137 137 137 137 137 137 137 137 137 137 137 137 137 137 137 137 137 137 137 137 137 137 137 137 137 137 137 137 137 137 137 137 137 137 137 137 137 137 137 137 137 137 137 137 137 137 137 137 137 137 137 137 137 137 137 137 137 137 137 137 137 137
137 137 137 137 137 137 137 137 137 137 137 137 137 137 137 137 137 137 137 137 137 137 137 137 137 137 137 137 137 137 137 137 137 137 137 137 137 137 137 137 137 137 137 137 137 137 137 137 137 137 137 137 137 137 137 137 137 137 137 137 137 137 137 137
137 137 137 137 137 137 137 137 137 137 137 137 137 137 137 137 137 137 137 137 137 137 137 137 137 137 137 137 137 137 137 137 137 137 137 137 137 137 137 137 137 137 137 137 137 137 137 137 137 137 137 137 137 137 137 137 137 137 137 137 137 137 137 137
137 137 137 137 137 137 137 137 137 137 137 137 137 137 137 137 137 137 137 137 137 137 137 137 137 137 137 137 137 137 137 137 137 137 137 137 137 137 137 137 137 137 137 137 137 137 137 137 137 137 137 137 137 137 137 137 137 137 137 137 137 137 137 137
137 137 137 137 137 137 137 137 137 137 137 137 137 137 137 137 137 137 137 137 137 137 137 137 137 137 137 137 137 137 137 137 137 137 137 137 137 137 137 137 137 137 137 137 137 137 137 137 137 137 137 137 137 137 137 137 137 137 137 137 137 137 137 137
