P2
64 64
255
204 204 204 204 204 204 204 204 204 204 204 204 204 204 204 204 204 204 204 204 204 204 204 204 204 204 204 204 204 204 204 204 204 204 204 204 204 204 204 204 204 204 204 204 204 204 204 204 204 204 204 204 204 204 204 204 204 204 204 204 204 204 204 204
204 204 204 204 204 204 204 204 204 204 204 204 204 204 204 204 204 204 204 204 204 204 204 204 204 204 204 204 204 204 204 204 204 204 204 204 204 204 204 204 204 204 204 204 204 204 204 204 204 204 204 204 204 204 204 204 204 204 204 204 204 204 204 204
204 204 204 204 204 204 204 204 204 204 204 204 204 204 204 204 204 204 204 204 204 204 204 204 204 204 204 204 204 204 204 204 204 204 204 204 204 204 204 204 204 204 204 204 204 204 204 204 204 204 204 204 204 204 204 204 204 204 204 204 204 204 204 204
204 204 204 204 204 204 204 204 204 204 204 204 204 204 204 204 204 204 204 204 204 204 204 204 204 204 204 204 204 204 204 204 204 204 204 204 204 204 204 204 204 204 204 204 204 204 204 204 204 204 204 204 204 204 204 204 204 204 204 204 204 204 204 204
204 204 204 204 204 204 204 204 204 204 204 204 204 204 204 204 204 204 204 204 204 204 204 204 204 204 204 204 204 204 204 204 204 204 203 203 202 201 203 204 203 204 204 204 204 204 204 204 204 204 204 204 204 204 204 204 204 204 204 204 204 204 204 204
204 204 204 204 204 204 204 204 204 204 204 204 204 204 204 204 204 204 204 204 204 204 204 204 204 204 204 204 204 204 204 204 203 204 198 188 176 174 178 191 198 200 203 204 204 204 204 204 204 204 204 204 204 204 204 204 204 204 204 204 204 204 204 204
204 204 204 204 204 204 204 204 204 204 204 204 204 204 204 204 204 204 204 204 204 204 204 204 204 204 204 204 204 204 204 203 198 180 156 127 96 80 103 134 148 171 190 197 203 204 203 204 204 204 204 204 204 204 204 204 204 204 204 204 204 204 204 204
204 204 204 204 204 204 204 204 204 204 204 204 204 204 204 204 204 204 204 204 204 204 204 204 204 204 204 204 204 203 200 188 168 122 72 36 17 15 24 40 68 93 129 171 184 193 203 203 204 204 204 204 204 204 204 204 204 204 204 204 204 204 204 204
204 204 204 204 204 204 204 204 204 204 204 204 204 204 204 204 204 204 204 204 204 204 204 204 204 204 204 204 203 202 181 133 83 40 16 4 0 0 0 6 5 23 52 89 125 144 171 202 203 204 204 204 204 204 204 204 204 204 204 204 204 204 204 204
204 204 204 204 204 204 204 204 204 204 204 204 204 204 204 204 204 204 204 204 204 204 204 204 204 204 204 203 196 164 111 56 20 2 0 2 8 2 5 8 2 0 3 27 40 52 104 157 198 201 203 204 204 204 204 204 204 204 204 204 204 204 204 204
204 204 204 204 204 204 204 204 204 204 204 204 204 204 204 204 204 204 204 204 204 204 204 204 204 204 201 188 159 99 33 5 0 3 21 46 61 61 56 47 31 12 0 0 4 10 20 88 142 184 200 203 204 204 204 204 204 204 204 204 204 204 204 204
204 204 204 204 204 204 204 204 204 204 204 204 204 204 204 204 204 204 204 204 204 204 204 204 204 201 192 144 80 29 7 1 14 39 83 131 164 154 148 138 105 64 32 6 2 0 4 12 68 120 170 200 203 204 204 204 204 204 204 204 204 204 204 204
204 204 204 204 204 204 204 204 204 204 204 204 204 204 204 204 204 204 204 204 204 204 204 204 203 187 136 71 24 1 1 11 59 120 165 187 196 199 197 190 177 148 98 64 22 5 0 1 8 50 112 174 203 204 204 204 204 204 204 204 204 204 204 204
204 204 204 204 204 204 204 204 204 204 204 204 204 204 204 204 204 204 204 204 204 204 204 203 185 143 71 8 1 1 24 74 136 179 199 204 204 204 203 203 201 190 176 138 96 52 14 8 0 7 51 130 192 204 204 204 204 204 204 204 204 204 204 204
204 204 204 204 204 204 204 204 204 204 204 204 204 204 204 204 204 204 204 204 204 204 203 200 146 69 20 1 7 37 88 148 195 203 203 204 204 204 204 204 204 203 199 196 173 137 95 38 14 0 11 76 161 202 204 204 204 204 204 204 204 204 204 204
204 204 204 204 204 204 204 204 204 204 204 204 204 204 204 204 204 204 204 204 204 204 196 152 80 22 0 5 30 103 166 192 202 204 204 204 204 204 204 204 204 204 204 203 201 196 165 120 50 12 1 25 122 188 204 204 204 204 204 204 204 204 204 204
204 204 204 204 204 204 204 204 204 204 204 204 204 204 204 204 204 204 204 204 203 185 149 86 16 1 1 36 100 163 196 204 204 204 204 204 204 204 204 204 204 204 204 204 204 203 202 173 119 32 4 9 69 172 200 204 204 204 204 204 204 204 204 204
204 204 204 204 204 204 204 204 204 204 204 204 204 204 204 204 204 204 204 203 200 134 61 22 2 2 34 96 164 201 203 204 204 204 204 204 204 204 204 204 204 204 204 204 204 204 203 203 168 90 6 0 36 120 196 203 204 204 204 204 204 204 204 204
204 204 204 204 204 204 204 204 204 204 204 204 204 204 204 204 204 204 204 202 143 61 9 0 1 12 91 165 194 203 204 204 204 204 204 204 204 204 204 204 204 204 204 204 204 204 204 203 200 136 48 0 4 74 167 203 204 204 204 204 204 204 204 204
204 204 204 204 204 204 204 204 204 204 204 204 204 204 204 204 204 204 202 173 80 1 0 0 10 75 152 194 204 204 204 204 204 204 204 204 204 204 204 204 204 204 204 204 204 204 204 204 202 183 87 15 0 37 143 196 204 204 204 204 204 204 204 204
204 204 204 204 204 204 204 204 204 204 204 204 204 204 204 204 204 203 201 104 26 0 0 5 47 136 199 203 204 204 204 204 204 204 204 204 204 204 204 204 204 204 204 204 204 204 204 204 204 194 140 41 4 28 132 196 204 204 204 204 204 204 204 204
204 204 204 204 204 204 204 204 204 204 204 204 204 204 204 204 204 202 142 48 0 0 0 17 116 183 203 204 204 204 204 204 204 204 204 204 204 204 204 204 204 204 204 204 204 204 204 204 204 202 170 72 12 31 132 196 204 204 204 204 204 204 204 204
204 204 204 204 204 204 204 204 204 204 204 204 204 204 204 204 203 188 79 4 0 0 16 87 165 203 204 204 204 204 204 204 204 204 204 204 204 204 204 204 204 204 204 204 204 204 204 204 204 204 175 76 14 32 128 197 203 204 204 204 204 204 204 204
204 204 204 204 204 204 204 204 204 204 204 204 204 204 204 204 203 139 40 0 0 10 56 160 201 203 204 204 204 204 204 204 204 204 204 204 204 204 204 204 204 204 204 204 204 204 204 204 204 201 160 57 2 16 132 194 203 204 204 204 204 204 204 204
204 204 204 204 204 204 204 204 204 204 204 204 204 204 204 203 175 96 6 0 0 36 137 188 203 204 204 204 204 204 204 204 204 204 204 204 204 204 204 204 204 204 204 204 204 204 204 204 204 202 141 31 1 36 136 196 204 204 204 204 204 204 204 204
204 204 204 204 204 204 204 204 204 204 204 204 204 204 203 200 135 40 4 0 31 104 184 203 204 204 204 204 204 204 204 204 204 204 204 204 204 204 204 204 204 204 204 204 204 204 204 204 204 192 117 22 1 44 158 201 204 204 204 204 204 204 204 204
204 204 204 204 204 204 204 204 204 204 204 204 204 204 203 162 79 14 0 16 82 180 200 203 204 204 204 204 204 204 204 204 204 204 204 204 204 204 204 204 204 204 204 204 204 204 204 204 203 187 92 8 2 68 168 202 204 204 204 204 204 204 204 204
204 204 204 204 204 204 204 204 204 204 204 204 204 203 189 124 27 0 3 64 147 194 204 204 204 204 204 204 204 204 204 204 204 204 204 204 204 204 204 204 204 204 204 204 204 204 204 204 203 164 70 6 13 88 188 204 204 204 204 204 204 204 204 204
204 204 204 204 204 204 204 204 204 204 204 204 204 203 171 76 13 1 37 116 188 204 204 204 204 204 204 204 204 204 204 204 204 204 204 204 204 204 204 204 204 204 204 204 204 204 204 204 196 143 41 0 15 116 190 204 204 204 204 204 204 204 204 204
204 204 204 204 204 204 204 204 204 204 204 204 204 197 140 44 0 7 76 169 199 204 204 204 204 204 204 204 204 204 204 204 204 204 204 204 204 204 204 204 204 204 204 204 204 204 204 203 192 105 21 1 40 134 197 204 204 204 204 204 204 204 204 204
204 204 204 204 204 204 204 204 204 204 204 204 203 196 112 17 0 37 124 188 204 204 204 204 204 204 204 204 204 204 204 204 204 204 204 204 204 204 204 204 204 204 204 204 204 204 204 202 166 75 4 5 60 167 200 204 204 204 204 204 204 204 204 204
204 204 204 204 204 204 204 204 204 204 204 204 204 179 86 8 7 61 165 203 204 204 204 204 204 204 204 204 204 204 204 204 204 204 204 204 204 204 204 204 204 204 204 204 204 204 203 197 146 36 2 15 100 180 203 204 204 204 204 204 204 204 204 204
204 204 204 204 204 204 204 204 204 204 204 204 201 167 59 1 6 96 182 203 204 204 204 204 204 204 204 204 204 204 204 204 204 204 204 204 204 204 204 204 204 204 204 204 204 204 204 186 104 23 1 35 133 200 203 204 204 204 204 204 204 204 204 204
204 204 204 204 204 204 204 204 204 204 204 204 200 139 39 1 27 120 196 204 204 204 204 204 204 204 204 204 204 204 204 204 204 204 204 204 204 204 204 204 204 204 204 204 204 204 202 168 68 1 0 65 163 200 204 204 204 204 204 204 204 204 204 204
204 204 204 204 204 204 204 204 204 204 204 204 188 114 17 2 36 151 199 204 204 204 204 204 204 204 204 204 204 204 204 204 204 204 204 204 204 204 204 204 204 204 204 204 204 203 201 136 36 1 21 100 183 204 204 204 204 204 204 204 204 204 204 204
204 204 204 204 204 204 204 204 204 204 204 203 188 88 12 4 69 165 203 204 204 204 204 204 204 204 204 204 204 204 204 204 204 204 204 204 204 204 204 204 204 204 204 204 204 203 177 99 15 1 32 144 197 203 204 204 204 204 204 204 204 204 204 204
204 204 204 204 204 204 204 204 204 204 204 203 176 76 7 13 93 192 203 204 204 204 204 204 204 204 204 204 204 204 204 204 204 204 204 204 204 204 204 204 204 204 204 204 203 196 152 51 5 3 71 165 203 204 204 204 204 204 204 204 204 204 204 204
204 204 204 204 204 204 204 204 204 204 204 202 175 59 3 19 116 191 203 204 204 204 204 204 204 204 204 204 204 204 204 204 204 204 204 204 204 204 204 204 204 204 204 204 204 180 100 27 0 23 106 194 203 204 204 204 204 204 204 204 204 204 204 204
204 204 204 204 204 204 204 204 204 204 204 203 152 47 1 23 126 197 204 204 204 204 204 204 204 204 204 204 204 204 204 204 204 204 204 204 204 204 204 204 204 204 204 204 200 156 60 0 0 52 148 196 204 204 204 204 204 204 204 204 204 204 204 204
204 204 204 204 204 204 204 204 204 204 204 196 139 23 0 27 146 198 204 204 204 204 204 204 204 204 204 204 204 204 204 204 204 204 204 204 204 204 204 204 204 204 204 203 199 113 24 0 24 97 176 203 204 204 204 204 204 204 204 204 204 204 204 204
204 204 204 204 204 204 204 204 204 204 204 197 128 23 2 52 157 204 204 204 204 204 204 204 204 204 204 204 204 204 204 204 204 204 204 204 204 204 204 204 204 204 204 202 157 66 3 4 44 149 197 203 204 204 204 204 204 204 204 204 204 204 204 204
204 204 204 204 204 204 204 204 204 204 203 199 137 36 6 61 168 203 204 204 204 204 204 204 204 204 204 204 204 204 204 204 204 204 204 204 204 204 204 204 204 204 203 190 115 12 0 9 93 176 203 204 204 204 204 204 204 204 204 204 204 204 204 204
204 204 204 204 204 204 204 204 204 204 204 200 164 56 12 43 146 196 204 204 204 204 204 204 204 204 204 204 204 204 204 204 204 204 204 204 204 204 204 204 204 204 203 152 63 6 2 42 139 203 204 204 204 204 204 204 204 204 204 204 204 204 204 204
204 204 204 204 204 204 204 204 204 204 204 202 169 67 6 20 96 192 203 204 204 204 204 204 204 204 204 204 204 204 204 204 204 204 204 204 204 204 204 204 204 203 174 102 22 0 4 93 182 203 204 204 204 204 204 204 204 204 204 204 204 204 204 204
204 204 204 204 204 204 204 204 204 204 204 203 182 82 4 1 55 140 200 203 204 204 204 204 204 204 204 204 204 204 204 204 204 204 204 204 204 204 204 204 203 197 132 40 6 1 48 136 200 204 204 204 204 204 204 204 204 204 204 204 204 204 204 204
204 204 204 204 204 204 204 204 204 204 204 203 192 108 20 0 13 81 150 203 203 204 204 204 204 204 204 204 204 204 204 204 204 204 204 204 204 204 204 204 202 156 73 13 0 20 92 181 202 204 204 204 204 204 204 204 204 204 204 204 204 204 204 204
204 204 204 204 204 204 204 204 204 204 204 204 198 151 47 3 2 20 86 153 200 201 204 204 204 204 204 204 204 204 204 204 204 204 204 204 204 204 204 200 176 106 21 0 3 66 146 192 203 204 204 204 204 204 204 204 204 204 204 204 204 204 204 204
204 204 204 204 204 204 204 204 204 204 204 204 203 180 108 31 2 3 22 92 150 190 198 203 204 204 204 204 204 204 204 204 204 204 204 204 204 203 202 189 124 44 7 1 41 120 186 203 204 204 204 204 204 204 204 204 204 204 204 204 204 204 204 204
204 204 204 204 204 204 204 204 204 204 204 204 204 199 162 88 25 1 4 24 80 125 172 192 200 204 204 204 204 204 204 204 204 204 204 204 204 202 181 130 60 10 0 14 88 175 200 204 204 204 204 204 204 204 204 204 204 204 204 204 204 204 204 204
204 204 204 204 204 204 204 204 204 204 204 204 204 204 193 153 82 21 1 5 8 53 95 136 173 187 200 204 203 203 203 203 204 204 204 202 195 176 132 62 5 0 5 64 144 192 204 204 204 204 204 204 204 204 204 204 204 204 204 204 204 204 204 204
204 204 204 204 204 204 204 204 204 204 204 204 204 204 204 191 148 74 19 4 1 1 27 57 93 139 167 188 201 198 196 200 201 198 196 189 164 108 54 17 0 10 48 121 188 204 204 204 204 204 204 204 204 204 204 204 204 204 204 204 204 204 204 204
204 204 204 204 204 204 204 204 204 204 204 204 204 204 204 204 188 140 80 32 14 0 0 5 28 52 92 128 149 164 164 165 166 164 147 116 77 37 10 0 6 34 114 178 199 204 204 204 204 204 204 204 204 204 204 204 204 204 204 204 204 204 204 204
204 204 204 204 204 204 204 204 204 204 204 204 204 204 204 204 203 185 152 111 58 30 9 0 1 9 20 38 68 77 77 83 81 73 59 36 12 1 0 8 48 108 167 200 204 204 204 204 204 204 204 204 204 204 204 204 204 204 204 204 204 204 204 204
204 204 204 204 204 204 204 204 204 204 204 204 204 204 204 204 203 203 196 173 144 98 60 32 4 4 1 6 6 17 18 17 9 11 9 3 2 8 26 59 116 173 202 203 204 204 204 204 204 204 204 204 204 204 204 204 204 204 204 204 204 204 204 204
204 204 204 204 204 204 204 204 204 204 204 204 204 204 204 204 204 204 203 203 190 174 144 100 64 28 12 6 3 4 7 8 4 7 12 15 22 45 91 144 180 197 203 204 204 204 204 204 204 204 204 204 204 204 204 204 204 204 204 204 204 204 204 204
204 204 204 204 204 204 204 204 204 204 204 204 204 204 204 204 204 204 204 203 204 200 192 181 142 108 75 48 47 49 45 44 46 55 60 77 102 135 166 188 200 204 204 204 204 204 204 204 204 204 204 204 204 204 204 204 204 204 204 204 204 204 204 204
204 204 204 204 204 204 204 204 204 204 204 204 204 204 204 204 204 204 204 204 204 204 203 200 199 178 156 140 130 130 133 134 134 142 152 165 175 191 201 204 203 204 204 204 204 204 204 204 204 204 204 204 204 204 204 204 204 204 204 204 204 204 204 204
204 204 204 204 204 204 204 204 204 204 204 204 204 204 204 204 204 204 204 204 204 204 204 204 203 203 200 191 188 192 189 188 192 196 198 200 202 203 203 204 204 204 204 204 204 204 204 204 204 204 204 204 204 204 204 204 204 204 204 204 204 204 204 204
204 204 204 204 204 204 204 204 204 204 204 204 204 204 204 204 204 204 204 204 204 204 204 204 204 204 203 204 202 203 204 203 203 203 204 203 204 204 204 204 204 204 204 204 204 204 204 204 204 204 204 204 204 204 204 204 204 204 204 204 204 204 204 204
204 204 204 204 204 204 204 204 204 204 204 204 204 204 204 204 204 204 204 204 204 204 204 204 204 204 204 204 204 204 204 204 204 204 204 204 204 204 204 204 204 204 204 204 204 204 204 204 204 204 204 204 204 204 204 204 204 204 204 204 204 204 204 204
204 204 204 204 204 204 204 204 204 204 204 204 204 204 204 204 204 204 204 204 204 204 204 204 204 204 204 204 204 204 204 204 204 204 204 204 204 204 204 204 204 204 204 204 204 204 204 204 204 204 204 204 204 204 204 204 204 204 204 204 204 204 204 204
204 204 204 204 204 204 204 204 204 204 204 204 204 204 204 204 204 204 204 204 204 204 204 204 204 204 204 204 204 204 204 204 204 204 204 204 204 204 204 204 204 204 204 204 204 204 204 204 204 204 204 204 204 204 204 204 204 204 204 204 204 204 204 204
204 204 204 204 204 204 204 204 204 204 204 204 204 204 204 204 204 204 204 204 204 204 204 204 204 204 204 204 204 204 204 204 204 204 204 204 204 204 204 204 204 204 204 204 204 204 204 204 204 204 204 204 204 204 204 204 204 204 204 204 204 204 204 204
204 204 204 204 204 204 204 204 204 204 204 204 204 204 204 204 204 204 204 204 204 204 204 204 204 204 204 204 204 204 204 204 204 204 204 204 204 204 204 204 204 204 204 204 204 204 204 204 204 204 204 204 204 204 204 204 204 204 204 204 204 204 204 204
