P2
64 64
255
228 228 228 228 228 228 228 228 228 228 228 228 228 228 228 228 228 228 228 228 228 228 228 228 228 228 228 228 228 228 228 228 228 228 228 228 228 228 228 228 228 228 228 228 228 228 228 228 228 228 228 228 228 228 228 228 228 228 228 228 228 228 228 228
228 228 228 228 228 228 228 228 228 228 228 228 228 228 228 228 228 228 228 228 228 228 228 228 228 228 228 228 228 228 228 228 228 228 228 228 228 228 228 228 228 228 228 228 228 228 228 228 228 228 228 228 228 228 228 228 228 228 228 228 228 228 228 228
228 228 228 228 228 228 228 228 228 228 228 228 228 228 228 228 228 228 228 228 228 228 228 228 228 228 228 228 228 228 228 228 228 228 228 228 228 228 228 228 228 228 228 228 228 228 228 228 228 228 228 228 228 228 228 228 228 228 228 228 228 228 228 228
228 228 228 228 228 228 228 228 228 228 228 228 228 228 228 228 228 228 228 228 228 228 228 228 228 228 228 228 228 228 228 228 228 228 228 228 228 228 228 228 228 228 228 228 228 228 228 228 228 228 228 228 228 228 228 228 228 228 228 228 228 228 228 228
228 228 228 228 228 228 228 228 228 228 228 228 228 228 228 228 228 228 228 228 228 228 228 228 228 228 228 228 228 228 228 228 228 228 228 228 228 228 228 228 228 228 228 228 228 228 228 228 228 228 228 228 228 228 228 228 228 228 228 228 228 228 228 228
228 228 228 228 228 228 228 228 228 228 228 228 228 228 228 228 228 228 228 228 228 228 228 228 228 228 228 228 228 228 228 228 228 228 228 228 228 228 228 228 228 228 228 228 228 228 228 228 228 228 228 228 228 228 228 228 228 228 228 228 228 228 228 228
228 228 228 228 228 228 228 228 228 228 228 228 228 228 228 228 228 228 228 228 228 228 228 228 228 228 228 228 228 228 228 228 228 228 228 228 228 228 228 228 228 228 228 228 228 228 228 228 228 228 228 228 228 228 228 228 228 228 228 228 228 228 228 228
228 228 228 228 228 228 228 228 228 228 228 228 228 228 228 228 228 228 228 228 228 228 228 228 228 228 228 228 228 228 228 228 228 228 228 228 228 227 228 228 228 228 228 228 228 228 228 228 228 228 228 228 228 228 228 228 228 228 228 228 228 228 228 228
228 228 228 228 228 228 228 228 228 228 228 228 228 228 228 228 228 228 228 228 228 228 228 228 228 228 228 228 228 228 228 228 228 227 225 222 221 221 225 227 228 228 228 228 228 228 228 228 228 228 228 228 228 228 228 228 228 228 228 228 228 228 228 228
228 228 228 228 228 228 228 228 228 228 228 228 228 228 228 228 228 228 227 227 228 227 228 228 228 228 228 228 228 228 228 228 228 226 215 192 180 188 208 224 228 228 228 228 228 228 228 228 228 228 228 228 228 228 228 228 228 228 228 228 228 228 228 228
228 228 228 228 228 228 228 228 228 228 228 228 228 228 228 228 228 227 222 214 217 223 227 228 228 228 228 228 228 228 228 228 228 223 194 133 84 102 163 212 228 228 228 228 228 228 228 228 228 228 228 228 228 228 228 228 228 228 228 228 228 228 228 228
228 228 228 228 228 228 228 228 228 228 228 228 228 228 228 228 227 222 200 174 176 200 220 227 228 228 228 228 228 228 228 228 228 222 179 88 19 24 97 185 223 227 228 228 228 228 228 228 228 228 228 228 228 228 228 228 228 228 228 228 228 228 228 228
228 228 228 228 228 228 228 228 228 228 228 228 228 228 228 228 225 211 164 106 96 145 202 227 228 228 228 228 228 228 228 228 228 227 181 84 15 2 48 136 205 227 228 228 228 228 228 228 228 228 228 228 228 228 228 228 228 228 228 228 228 228 228 228
228 228 228 228 228 228 228 228 228 228 228 228 228 228 228 228 224 202 135 52 33 83 172 226 228 228 228 228 228 228 228 228 228 227 195 112 32 1 18 82 170 222 228 228 228 228 228 228 228 228 228 228 228 228 228 228 228 228 228 228 228 228 228 228
228 228 228 228 228 228 228 228 228 228 228 228 228 228 228 228 226 210 133 29 4 30 126 207 226 228 228 228 228 228 228 228 228 227 212 155 64 4 3 31 116 203 227 228 228 228 228 228 228 228 228 228 228 228 228 228 228 228 228 228 228 228 228 228
228 228 228 228 228 228 228 228 228 228 228 228 228 228 228 228 228 216 144 42 3 8 77 171 221 228 228 228 228 228 228 228 228 227 224 201 117 23 1 2 59 155 214 227 228 228 228 228 228 228 228 228 228 228 228 228 228 228 228 228 228 228 228 228
228 228 228 228 228 228 228 228 228 228 228 228 228 228 228 228 228 223 171 75 9 1 39 130 208 228 228 228 228 228 228 228 228 228 228 223 171 82 19 0 22 95 180 223 228 228 228 228 228 228 228 228 228 228 228 228 228 228 228 228 228 228 228 228
228 228 228 228 228 228 228 228 228 228 228 228 228 228 228 228 228 226 203 117 23 0 10 85 188 226 227 228 228 228 228 228 228 228 228 227 206 142 53 4 5 42 130 207 227 228 228 228 228 228 228 228 228 228 228 228 228 228 228 228 228 228 228 228
228 228 228 228 228 228 228 228 228 228 228 228 228 228 228 228 228 227 226 159 51 5 0 49 145 210 227 228 228 228 228 228 228 228 228 228 223 192 105 18 0 8 77 181 224 227 228 228 228 228 228 228 228 228 228 228 228 228 228 228 228 228 228 228
228 228 228 228 228 228 228 228 228 228 228 228 228 228 228 228 228 228 227 188 98 25 0 23 96 186 227 228 228 228 228 228 228 228 228 228 227 224 162 57 8 1 44 137 206 227 228 228 228 228 228 228 228 228 228 228 228 228 228 228 228 228 228 228
228 228 228 228 228 228 228 228 228 228 228 228 228 228 228 228 228 228 227 209 145 54 1 6 49 153 225 228 228 228 228 228 228 228 228 228 228 227 191 104 28 0 19 85 174 223 228 228 228 228 228 228 228 228 228 228 228 228 228 228 228 228 228 228
228 228 228 228 228 228 228 228 228 228 228 228 228 228 228 228 228 228 227 223 192 95 6 0 9 112 208 226 228 228 228 228 228 228 228 228 228 227 210 151 60 4 2 33 124 207 227 228 228 228 228 228 228 228 228 228 228 228 228 228 228 228 228 228
228 228 228 228 228 228 228 228 228 228 228 228 228 228 228 228 228 228 228 228 222 137 33 2 3 69 164 216 227 228 228 228 228 228 228 228 228 227 224 199 112 20 0 2 68 167 218 227 228 228 228 228 228 228 228 228 228 228 228 228 228 228 228 228
228 228 228 228 228 228 228 228 228 228 228 228 228 228 228 228 228 228 228 228 226 174 77 14 0 34 114 196 227 228 228 228 228 228 228 228 228 228 228 224 167 71 14 0 28 108 189 224 228 228 228 228 228 228 228 228 228 228 228 228 228 228 228 228
228 228 228 228 228 228 228 228 228 228 228 228 228 228 228 228 228 228 228 228 227 203 128 38 0 9 60 164 226 228 228 228 228 228 228 228 228 228 228 227 202 130 45 2 7 51 141 212 227 228 228 228 228 228 228 228 228 228 228 228 228 228 228 228
228 228 228 228 228 228 228 228 228 228 228 228 228 228 228 228 228 228 228 228 227 223 178 75 5 0 17 115 205 226 228 228 228 228 228 228 228 228 228 228 221 183 93 13 0 13 84 183 226 227 228 228 228 228 228 228 228 228 228 228 228 228 228 228
228 228 228 228 228 228 228 228 228 228 228 228 228 228 228 228 228 228 228 228 228 227 210 128 35 2 5 72 170 221 228 228 228 228 228 228 228 228 228 228 227 221 154 50 6 0 37 129 203 225 228 228 228 228 228 228 228 228 228 228 228 228 228 228
228 228 228 228 228 228 228 228 228 228 228 228 228 228 228 228 228 228 228 228 228 228 223 173 76 8 1 37 130 209 228 228 228 228 228 228 228 228 228 228 228 226 193 109 31 1 9 68 161 217 228 228 228 228 228 228 228 228 228 228 228 228 228 228
228 228 228 228 228 228 228 228 228 228 228 228 228 228 228 228 228 228 228 228 228 228 227 205 120 22 0 9 86 189 225 227 228 228 228 228 228 228 228 227 227 226 215 163 69 9 1 27 110 198 227 228 228 228 228 228 228 228 228 228 228 228 228 228
228 228 228 228 228 228 228 228 228 228 228 228 228 228 228 228 228 228 228 228 228 228 227 227 158 51 6 0 53 149 212 227 228 228 228 228 227 227 227 227 207 187 170 154 87 17 0 1 58 166 220 227 228 228 228 228 228 228 228 228 228 228 228 228
228 228 228 228 228 228 228 228 228 228 228 228 228 228 228 228 228 228 228 228 228 228 228 227 186 94 22 0 29 105 190 226 227 227 227 227 211 190 170 149 121 88 61 46 38 12 0 0 25 119 201 227 228 228 228 228 228 228 228 228 228 228 228 228
228 228 228 228 228 228 228 228 228 228 228 228 228 228 228 228 228 228 228 228 228 228 228 227 205 135 46 1 9 54 151 219 214 194 173 153 127 96 67 37 20 13 8 2 0 0 0 0 11 83 186 227 228 228 228 228 228 228 228 228 228 228 228 228
228 228 228 228 228 228 228 228 228 228 228 228 228 228 228 228 228 228 228 228 228 228 228 227 220 180 85 6 0 8 79 134 129 102 72 42 23 16 9 2 0 0 0 0 3 5 0 0 12 82 192 227 228 228 228 228 228 228 228 228 228 228 228 228
228 228 228 228 228 228 228 228 228 228 228 228 228 228 228 228 228 228 228 228 227 227 227 227 225 201 120 34 3 0 18 30 22 17 10 4 0 0 1 3 11 28 33 33 49 59 39 21 42 134 207 226 228 228 228 228 228 228 228 228 228 228 228 228
228 228 228 228 228 228 228 228 228 228 228 228 228 228 228 228 228 228 228 227 226 213 200 190 182 150 92 29 1 0 0 1 0 0 1 2 8 32 55 79 103 122 130 142 166 165 146 140 162 198 222 227 228 228 228 228 228 228 228 228 228 228 228 228
228 228 228 228 228 228 228 228 228 228 228 228 228 228 228 228 228 226 218 200 180 148 119 94 70 53 30 8 0 0 0 0 1 27 51 75 99 126 154 180 205 209 209 214 226 224 217 215 226 227 228 228 228 228 228 228 228 228 228 228 228 228 228 228
228 228 228 228 228 228 228 228 228 228 228 228 228 228 228 228 227 212 170 119 74 49 33 19 4 1 0 0 0 0 0 3 50 111 148 176 203 210 216 222 227 228 228 227 227 228 228 227 228 228 228 228 228 228 228 228 228 228 228 228 228 228 228 228
228 228 228 228 228 228 228 228 228 228 228 228 228 228 228 226 216 165 85 34 7 1 1 1 0 8 20 33 23 8 0 8 75 166 212 221 226 228 228 228 228 228 228 228 228 228 228 228 228 228 228 228 228 228 228 228 228 228 228 228 228 228 228 228
228 228 228 228 228 228 228 228 228 228 228 228 228 228 228 227 202 106 23 3 0 8 23 37 46 62 93 122 111 49 3 3 43 141 214 228 228 228 228 228 228 228 228 228 228 228 228 228 228 228 228 228 228 228 228 228 228 228 228 228 228 228 228 228
228 228 228 228 228 228 228 228 228 228 228 228 228 228 228 227 193 99 35 21 34 62 98 128 154 171 186 201 189 103 13 0 9 91 192 224 227 228 228 228 228 228 228 228 228 228 228 228 228 228 228 228 228 228 228 228 228 228 228 228 228 228 228 228
228 228 228 228 228 228 228 228 228 228 228 228 228 228 228 227 212 164 112 102 132 171 190 204 216 227 227 227 223 152 47 6 1 51 145 209 227 228 228 228 228 228 228 228 228 228 228 228 228 228 228 228 228 228 228 228 228 228 228 228 228 228 228 228
228 228 228 228 228 228 228 228 228 228 228 228 228 228 228 228 225 218 199 193 210 227 227 227 227 228 228 228 226 187 97 25 0 24 96 184 226 228 228 228 228 228 228 228 228 228 228 228 228 228 228 228 228 228 228 228 228 228 228 228 228 228 228 228
228 228 228 228 228 228 228 228 228 228 228 228 228 228 228 228 228 227 228 227 227 227 228 228 228 228 228 228 227 208 145 54 2 6 46 147 222 228 228 228 228 228 228 228 228 228 228 228 228 228 228 228 228 228 228 228 228 228 228 228 228 228 228 228
228 228 228 228 228 228 228 228 228 228 228 228 228 228 228 228 228 228 228 228 228 228 228 228 228 228 228 228 227 223 192 96 8 0 8 100 197 224 228 228 228 228 228 228 228 228 228 228 228 228 228 228 228 228 228 228 228 228 228 228 228 228 228 228
228 228 228 228 228 228 228 228 228 228 228 228 228 228 228 228 228 228 228 228 228 228 228 228 228 228 228 228 228 228 220 142 41 4 1 52 145 210 227 228 228 228 228 228 228 228 228 228 228 228 228 228 228 228 228 228 228 228 228 228 228 228 228 228
228 228 228 228 228 228 228 228 228 228 228 228 228 228 228 228 228 228 228 228 228 228 228 228 228 228 228 228 228 228 226 177 77 10 0 20 91 184 226 228 228 228 228 228 228 228 228 228 228 228 228 228 228 228 228 228 228 228 228 228 228 228 228 228
228 228 228 228 228 228 228 228 228 228 228 228 228 228 228 228 228 228 228 228 228 228 228 228 228 228 228 228 228 228 227 201 113 18 0 5 54 169 227 227 228 228 228 228 228 228 228 228 228 228 228 228 228 228 228 228 228 228 228 228 228 228 228 228
228 228 228 228 228 228 228 228 228 228 228 228 228 228 228 228 228 228 228 228 228 228 228 228 228 228 228 228 228 228 227 223 154 40 2 0 42 148 214 227 228 228 228 228 228 228 228 228 228 228 228 228 228 228 228 228 228 228 228 228 228 228 228 228
228 228 228 228 228 228 228 228 228 228 228 228 228 228 228 228 228 228 228 228 228 228 228 228 228 228 228 228 228 228 228 227 182 85 17 0 34 122 201 227 228 228 228 228 228 228 228 228 228 228 228 228 228 228 228 228 228 228 228 228 228 228 228 228
228 228 228 228 228 228 228 228 228 228 228 228 228 228 228 228 228 228 228 228 228 228 228 228 228 228 228 228 228 228 228 227 200 120 34 1 20 94 188 227 228 228 228 228 228 228 228 228 228 228 228 228 228 228 228 228 228 228 228 228 228 228 228 228
228 228 228 228 228 228 228 228 228 228 228 228 228 228 228 228 228 228 228 228 228 228 228 228 228 228 228 228 228 228 228 227 214 151 50 1 6 64 174 224 227 228 228 228 228 228 228 228 228 228 228 228 228 228 228 228 228 228 228 228 228 228 228 228
228 228 228 228 228 228 228 228 228 228 228 228 228 228 228 228 228 228 228 228 228 228 228 228 228 228 228 228 228 228 228 227 227 178 70 8 1 45 143 210 227 228 228 228 228 228 228 228 228 228 228 228 228 228 228 228 228 228 228 228 228 228 228 228
228 228 228 228 228 228 228 228 228 228 228 228 228 228 228 228 228 228 228 228 228 228 228 228 228 228 228 228 228 228 228 228 227 191 101 25 0 26 104 191 227 228 228 228 228 228 228 228 228 228 228 228 228 228 228 228 228 228 228 228 228 228 228 228
228 228 228 228 228 228 228 228 228 228 228 228 228 228 228 228 228 228 228 228 228 228 228 228 228 228 228 228 228 228 228 228 227 206 138 49 1 10 61 166 226 228 228 228 228 228 228 228 228 228 228 228 228 228 228 228 228 228 228 228 228 228 228 228
228 228 228 228 228 228 228 228 228 228 228 228 228 228 228 228 228 228 228 228 228 228 228 228 228 228 228 228 228 228 228 228 227 222 184 89 11 0 36 154 221 227 228 228 228 228 228 228 228 228 228 228 228 228 228 228 228 228 228 228 228 228 228 228
228 228 228 228 228 228 228 228 228 228 228 228 228 228 228 228 228 228 228 228 228 228 228 228 228 228 228 228 228 228 228 228 228 228 216 150 70 41 83 171 219 228 228 228 228 228 228 228 228 228 228 228 228 228 228 228 228 228 228 228 228 228 228 228
228 228 228 228 228 228 228 228 228 228 228 228 228 228 228 228 228 228 228 228 228 228 228 228 228 228 228 228 228 228 228 228 228 228 226 205 163 138 165 209 225 228 228 228 228 228 228 228 228 228 228 228 228 228 228 228 228 228 228 228 228 228 228 228
228 228 228 228 228 228 228 228 228 228 228 228 228 228 228 228 228 228 228 228 228 228 228 228 228 228 228 228 228 228 228 228 228 228 227 226 218 210 215 228 228 228 228 228 228 228 228 228 228 228 228 228 228 228 228 228 228 228 228 228 228 228 228 228
228 228 228 228 228 228 228 228 228 228 228 228 228 228 228 228 228 228 228 228 228 228 228 228 228 228 228 228 228 228 228 228 228 228 228 227 228 228 227 227 228 228 228 228 228 228 228 228 228 228 228 228 228 228 228 228 228 228 228 228 228 228 228 228
228 228 228 228 228 228 228 228 228 228 228 228 228 228 228 228 228 228 228 228 228 228 228 228 228 228 228 228 228 228 228 228 228 228 228 228 228 228 228 228 228 228 228 228 228 228 228 228 228 228 228 228 228 228 228 228 228 228 228 228 228 228 228 228
228 228 228 228 228 228 228 228 228 228 228 228 228 228 228 228 228 228 228 228 228 228 228 228 228 228 228 228 228 228 228 228 228 228 228 228 228 228 228 228 228 228 228 228 228 228 228 228 228 228 228 228 228 228 228 228 228 228 228 228 228 228 228 228
228 228 228 228 228 228 228 228 228 228 228 228 228 228 228 228 228 228 228 228 228 228 228 228 228 228 228 228 228 228 228 228 228 228 228 228 228 228 228 228 228 228 228 228 228 228 228 228 228 228 228 228 228 228 228 228 228 228 228 228 228 228 228 228
228 228 228 228 228 228 228 228 228 228 228 228 228 228 228 228 228 228 228 228 228 228 228 228 228 228 228 228 228 228 228 228 228 228 228 228 228 228 228 228 228 228 228 228 228 228 228 228 228 228 228 228 228 228 228 228 228 228 228 228 228 228 228 228
228 228 228 228 228 228 228 228 228 228 228 228 228 228 228 228 228 228 228 228 228 228 228 228 228 228 228 228 228 228 228 228 228 228 228 228 228 228 228 228 228 228 228 228 228 228 228 228 228 228 228 228 228 228 228 228 228 228 228 228 228 228 228 228
