P2
64 64
255
250 250 250 250 250 250 250 250 250 250 250 250 250 250 250 250 250 250 250 250 250 250 250 250 250 250 250 250 250 250 250 250 250 250 250 250 250 250 250 250 250 250 250 250 250 250 250 250 250 250 250 250 250 250 250 250 250 250 250 250 250 250 250 250
250 250 250 250 250 250 250 250 250 250 250 250 250 250 250 250 250 250 250 250 250 250 250 250 250 250 250 250 250 250 250 250 250 250 250 250 250 250 250 250 250 250 250 250 250 250 250 250 250 250 250 250 250 250 250 250 250 250 250 250 250 250 250 250
250 250 250 250 250 250 250 250 250 250 250 250 250 250 250 250 250 250 250 250 250 250 250 250 250 250 250 250 250 250 250 250 250 250 250 250 250 250 250 250 250 250 250 250 250 250 250 250 250 250 250 250 250 250 250 250 250 250 250 250 250 250 250 250
250 250 250 250 250 250 250 250 250 250 250 250 250 250 250 250 250 250 250 250 250 250 250 250 250 250 250 250 250 250 250 250 250 250 250 250 250 250 250 250 250 250 250 250 250 250 250 250 250 250 250 250 250 250 250 250 250 250 250 250 250 250 250 250
250 250 250 250 250 250 250 250 250 250 250 250 250 250 250 250 250 250 250 250 250 250 250 250 250 250 250 250 250 250 250 250 250 250 250 250 250 250 250 250 250 250 250 250 250 250 250 250 250 250 250 250 250 250 250 250 250 250 250 250 250 250 250 250
250 250 250 250 250 250 250 250 250 250 250 250 250 250 250 250 250 250 250 250 250 250 250 250 250 250 250 250 250 250 250 250 250 250 250 250 250 250 250 250 250 250 250 250 250 250 250 250 250 250 250 250 250 250 250 250 250 250 250 250 250 250 250 250
250 250 250 250 250 250 250 250 250 250 250 250 250 250 250 250 250 250 250 250 250 250 250 250 250 250 250 250 250 250 250 250 250 250 250 250 250 250 250 250 250 250 250 250 250 250 250 250 250 250 250 250 250 250 250 250 250 250 250 250 250 250 250 250
250 250 250 250 250 250 250 250 250 250 250 250 250 250 250 250 250 250 250 250 250 250 250 250 250 250 250 250 250 250 250 250 249 249 249 249 249 250 250 250 250 250 250 250 250 250 250 250 250 250 250 250 250 250 250 250 250 250 250 250 250 250 250 250
250 250 250 250 250 250 250 250 250 250 250 250 250 250 250 250 250 250 250 250 250 250 250 250 250 250 250 250 250 250 249 249 245 240 238 238 242 247 249 250 250 250 250 250 250 250 250 250 250 250 250 250 250 250 250 250 250 250 250 250 250 250 250 250
250 250 250 250 250 250 250 250 250 250 250 250 250 250 250 250 250 250 250 250 250 250 250 250 250 250 250 250 250 250 247 232 199 170 160 164 181 209 232 246 249 250 250 250 250 250 250 250 250 250 250 250 250 250 250 250 250 250 250 250 250 250 250 250
250 250 250 250 250 250 250 250 250 250 250 250 250 250 250 250 250 250 250 250 250 250 250 250 250 250 250 250 248 239 211 156 92 55 45 48 63 99 154 209 239 249 250 250 250 250 250 250 250 250 250 250 250 250 250 250 250 250 250 250 250 250 250 250
250 250 250 250 250 250 250 250 250 250 250 250 250 250 250 250 250 250 250 250 250 250 250 250 250 250 250 250 237 183 99 45 13 1 1 1 2 14 46 112 188 234 249 250 250 250 250 250 250 250 250 250 250 250 250 250 250 250 250 250 250 250 250 250
250 250 250 250 250 250 250 250 250 250 250 250 250 250 250 250 250 250 250 250 250 250 250 250 250 250 249 245 200 92 13 0 4 20 31 28 17 4 2 26 92 171 227 247 250 250 250 250 250 250 250 250 250 250 250 250 250 250 250 250 250 250 250 250
250 250 250 250 250 250 250 250 250 250 250 250 250 250 250 250 250 250 250 250 250 250 250 250 250 250 246 217 128 31 0 4 46 106 133 130 104 59 21 4 20 68 154 225 248 250 250 250 250 250 250 250 250 250 250 250 250 250 250 250 250 250 250 250
250 250 250 250 250 250 250 250 250 250 250 250 250 250 250 250 250 250 250 250 250 250 250 250 250 248 224 144 50 7 15 59 146 209 227 226 212 171 101 32 3 10 62 161 231 249 250 250 250 250 250 250 250 250 250 250 250 250 250 250 250 250 250 250
250 250 250 250 250 250 250 250 250 250 250 250 250 250 250 250 250 250 250 250 250 250 250 250 249 234 166 62 8 8 73 169 228 246 249 249 247 237 199 121 40 4 14 81 182 237 249 250 250 250 250 250 250 250 250 250 250 250 250 250 250 250 250 250
250 250 250 250 250 250 250 250 250 250 250 250 250 250 250 250 250 250 250 250 250 250 250 250 244 196 92 17 3 50 162 235 249 250 250 250 250 249 243 215 129 38 6 34 105 186 237 249 250 250 250 250 250 250 250 250 250 250 250 250 250 250 250 250
250 250 250 250 250 250 250 250 250 250 250 250 250 250 250 250 250 250 250 250 250 250 250 249 227 136 35 3 30 129 226 249 250 250 250 250 250 250 249 248 215 128 46 16 22 94 200 245 250 250 250 250 250 250 250 250 250 250 250 250 250 250 250 250
250 250 250 250 250 250 250 250 250 250 250 250 250 250 250 250 250 250 250 250 250 250 249 238 178 67 6 6 81 201 246 250 250 250 250 250 250 250 250 250 245 213 116 26 0 34 141 230 249 249 250 250 250 250 250 250 250 250 250 250 250 250 250 250
250 250 250 250 250 250 250 250 250 250 250 250 250 250 250 250 250 250 250 250 250 247 223 155 65 11 0 35 146 235 249 250 250 250 250 250 250 250 250 250 250 244 181 64 5 10 80 191 243 249 250 250 250 250 250 250 250 250 250 250 250 250 250 250
250 250 250 250 250 250 250 250 250 250 250 250 250 250 250 250 250 250 250 249 244 201 112 34 0 0 11 89 202 246 250 250 250 250 250 250 250 250 250 250 250 248 224 132 35 3 29 129 225 249 250 250 250 250 250 250 250 250 250 250 250 250 250 250
250 250 250 250 250 250 250 250 250 250 250 250 250 250 250 250 250 250 249 245 204 98 15 0 0 1 41 155 234 249 250 250 250 250 250 250 250 250 250 250 250 249 244 197 89 14 4 72 192 247 250 250 250 250 250 250 250 250 250 250 250 250 250 250
250 250 250 250 250 250 250 250 250 250 250 250 250 250 250 250 250 250 248 221 127 26 0 3 6 22 101 207 247 250 250 250 250 250 250 250 250 250 250 250 250 250 249 229 143 37 1 34 144 237 250 250 250 250 250 250 250 250 250 250 250 250 250 250
250 250 250 250 250 250 250 250 250 250 250 250 250 250 250 250 250 250 240 173 57 3 6 44 65 93 171 233 249 250 250 250 250 250 250 250 250 250 250 250 250 250 250 243 185 70 7 10 96 215 249 250 250 250 250 250 250 250 250 250 250 250 250 250
250 250 250 250 250 250 250 250 250 250 250 250 250 250 250 250 250 249 225 120 18 0 25 123 177 191 224 245 250 250 250 250 250 250 250 250 250 250 250 250 250 250 250 248 214 108 19 1 64 192 249 250 250 250 250 250 250 250 250 250 250 250 250 250
250 250 250 250 250 250 250 250 250 250 250 250 250 250 250 250 250 249 208 86 8 0 37 172 236 238 245 249 250 250 250 250 250 250 250 250 250 250 250 250 250 250 250 249 226 131 28 0 49 177 249 250 250 250 250 250 250 250 250 250 250 250 250 250
250 250 250 250 250 250 250 250 250 250 250 250 250 250 250 250 250 249 205 81 7 0 43 184 248 249 250 250 250 250 250 250 250 250 250 250 250 250 250 250 250 250 250 249 233 148 36 0 35 163 249 250 250 250 250 250 250 250 250 250 250 250 250 250
250 250 250 250 250 250 250 250 250 250 250 250 250 250 250 250 250 249 211 93 10 0 56 193 249 250 250 250 250 250 250 250 250 250 250 250 250 250 250 250 250 250 250 250 238 162 43 0 26 152 249 250 250 250 250 250 250 250 250 250 250 250 250 250
250 250 250 250 250 250 250 250 250 250 250 250 250 250 250 250 250 249 215 102 13 0 65 198 249 250 250 250 250 250 250 250 250 250 250 250 250 250 250 250 250 250 250 250 240 168 46 0 23 147 249 250 250 250 250 250 250 250 250 250 250 250 250 250
250 250 250 250 250 250 250 250 250 250 250 250 250 250 250 250 250 249 212 98 12 0 72 203 249 250 250 250 250 250 250 250 250 250 250 250 250 250 250 250 250 250 250 250 240 168 46 0 24 148 249 250 250 250 250 250 250 250 250 250 250 250 250 250
250 250 250 250 250 250 250 250 250 250 250 250 250 250 250 250 250 249 210 94 11 0 72 206 249 250 250 250 250 250 250 250 250 250 250 250 250 250 250 250 250 250 250 250 236 156 39 0 30 155 249 250 250 250 250 250 250 250 250 250 250 250 250 250
250 250 250 250 250 250 250 250 250 250 250 250 250 250 250 250 250 249 220 112 16 0 51 189 249 250 250 250 250 250 250 250 250 250 250 250 250 250 250 250 250 250 250 249 227 129 25 0 51 178 248 250 250 250 250 250 250 250 250 250 250 250 250 250
250 250 250 250 250 250 250 250 250 250 250 250 250 250 250 250 250 249 237 147 28 0 12 143 243 250 250 250 250 250 250 250 250 250 250 250 250 250 250 250 250 250 250 249 215 98 12 2 79 207 249 250 250 250 250 250 250 250 250 250 250 250 250 250
250 250 250 250 250 250 250 250 250 250 250 250 250 250 250 250 250 250 247 174 41 0 0 86 220 249 250 250 250 250 250 250 250 250 250 250 250 250 250 250 250 250 250 245 190 65 2 11 111 227 249 250 250 250 250 250 250 250 250 250 250 250 250 250
250 250 250 250 250 250 250 250 250 250 250 250 250 250 250 250 250 250 249 193 62 3 0 49 186 246 250 250 250 250 250 250 250 250 250 250 250 250 250 250 250 250 249 236 149 34 0 33 150 238 249 250 250 250 250 250 250 250 250 250 250 250 250 250
250 250 250 250 250 250 250 250 250 250 250 250 250 250 250 250 250 250 249 217 105 15 0 26 146 235 249 250 250 250 250 250 250 250 250 250 250 250 250 250 250 250 249 225 112 13 1 62 188 245 250 250 250 250 250 250 250 250 250 250 250 250 250 250
250 250 250 250 250 250 250 250 250 250 250 250 250 250 250 250 250 250 250 239 169 55 3 5 85 200 246 250 250 250 250 250 250 250 250 250 250 250 250 250 250 250 248 208 85 6 8 92 211 248 250 250 250 250 250 250 250 250 250 250 250 250 250 250
250 250 250 250 250 250 250 250 250 250 250 250 250 250 250 250 250 250 250 248 222 124 21 0 33 140 228 249 250 250 250 250 250 250 250 250 250 250 250 250 250 250 243 173 52 1 24 125 225 249 250 250 250 250 250 250 250 250 250 250 250 250 250 250
250 250 250 250 250 250 250 250 250 250 250 250 250 250 250 250 250 250 250 250 244 189 69 3 7 71 179 236 248 250 250 250 250 250 250 250 250 250 250 250 250 250 228 120 19 2 52 168 239 249 250 250 250 250 250 250 250 250 250 250 250 250 250 250
250 250 250 250 250 250 250 250 250 250 250 250 250 250 250 250 250 250 250 250 249 232 143 35 3 28 103 182 233 248 250 250 250 250 250 250 250 250 250 250 250 248 196 69 3 14 96 207 247 250 250 250 250 250 250 250 250 250 250 250 250 250 250 250
250 250 250 250 250 250 250 250 250 250 250 250 250 250 250 250 250 250 250 250 250 248 210 117 38 18 32 88 172 229 247 249 250 250 250 250 250 250 250 250 250 241 151 32 1 35 145 232 249 250 250 250 250 250 250 250 250 250 250 250 250 250 250 250
250 250 250 250 250 250 250 250 250 250 250 250 250 250 250 250 250 250 250 250 250 250 241 207 126 46 7 21 74 153 217 244 249 250 250 250 250 250 250 250 247 215 99 8 6 65 184 244 250 250 250 250 250 250 250 250 250 250 250 250 250 250 250 250
250 250 250 250 250 250 250 250 250 250 250 250 250 250 250 250 250 250 250 250 250 250 249 245 209 125 40 6 11 52 121 188 230 246 250 250 250 250 250 250 235 160 44 2 19 110 215 248 250 250 250 250 250 250 250 250 250 250 250 250 250 250 250 250
250 250 250 250 250 250 250 250 250 250 250 250 250 250 250 250 250 250 250 250 250 250 250 250 243 210 133 47 6 5 26 69 133 204 240 248 250 250 250 247 203 93 7 5 56 168 238 249 250 250 250 250 250 250 250 250 250 250 250 250 250 250 250 250
250 250 250 250 250 250 250 250 250 250 250 250 250 250 250 250 250 250 250 250 250 250 250 250 249 246 223 147 58 11 1 2 21 85 149 196 226 242 243 211 126 37 2 17 111 213 247 250 250 250 250 250 250 250 250 250 250 250 250 250 250 250 250 250
250 250 250 250 250 250 250 250 250 250 250 250 250 250 250 250 250 250 250 250 250 250 250 250 250 250 248 229 168 82 22 3 0 6 30 65 99 118 113 73 26 4 9 69 174 238 250 250 250 250 250 250 250 250 250 250 250 250 250 250 250 250 250 250
250 250 250 250 250 250 250 250 250 250 250 250 250 250 250 250 250 250 250 250 250 250 250 250 250 250 250 248 236 193 128 68 24 4 0 1 3 5 3 0 0 1 52 157 227 248 250 250 250 250 250 250 250 250 250 250 250 250 250 250 250 250 250 250
250 250 250 250 250 250 250 250 250 250 250 250 250 250 250 250 250 250 250 250 250 250 250 250 250 250 250 250 249 244 226 188 124 60 25 12 4 1 0 0 2 28 132 225 248 250 250 250 250 250 250 250 250 250 250 250 250 250 250 250 250 250 250 250
250 250 250 250 250 250 250 250 250 250 250 250 250 250 250 250 250 250 250 250 250 250 250 250 250 250 250 250 250 250 250 246 225 178 132 94 65 51 44 40 55 120 213 248 250 250 250 250 250 250 250 250 250 250 250 250 250 250 250 250 250 250 250 250
250 250 250 250 250 250 250 250 250 250 250 250 250 250 250 250 250 250 250 250 250 250 250 250 250 250 250 250 250 250 250 250 249 243 228 209 191 181 173 167 180 219 246 250 250 250 250 250 250 250 250 250 250 250 250 250 250 250 250 250 250 250 250 250
250 250 250 250 250 250 250 250 250 250 250 250 250 250 250 250 250 250 250 250 250 250 250 250 250 250 250 250 250 250 250 250 250 250 249 249 249 248 246 244 245 249 249 250 250 250 250 250 250 250 250 250 250 250 250 250 250 250 250 250 250 250 250 250
250 250 250 250 250 250 250 250 250 250 250 250 250 250 250 250 250 250 250 250 250 250 250 250 250 250 250 250 250 250 250 250 250 250 250 250 250 250 250 250 250 250 250 250 250 250 250 250 250 250 250 250 250 250 250 250 250 250 250 250 250 250 250 250
250 250 250 250 250 250 250 250 250 250 250 250 250 250 250 250 250 250 250 250 250 250 250 250 250 250 250 250 250 250 250 250 250 250 250 250 250 250 250 250 250 250 250 250 250 250 250 250 250 250 250 250 250 250 250 250 250 250 250 250 250 250 250 250
250 250 250 250 250 250 250 250 250 250 250 250 250 250 250 250 250 250 250 250 250 250 250 250 250 250 250 250 250 250 250 250 250 250 250 250 250 250 250 250 250 250 250 250 250 250 250 250 250 250 250 250 250 250 250 250 250 250 250 250 250 250 250 250
250 250 250 250 250 250 250 250 250 250 250 250 250 250 250 250 250 250 250 250 250 250 250 250 250 250 250 250 250 250 250 250 250 250 250 250 250 250 250 250 250 250 250 250 250 250 250 250 250 250 250 250 250 250 250 250 250 250 250 250 250 250 250 250
250 250 250 250 250 250 250 250 250 250 250 250 250 250 250 250 250 250 250 250 250 250 250 250 250 250 250 250 250 250 250 250 250 250 250 250 250 250 250 250 250 250 250 250 250 250 250 250 250 250 250 250 250 250 250 250 250 250 250 250 250 250 250 250
250 250 250 250 250 250 250 250 250 250 250 250 250 250 250 250 250 250 250 250 250 250 250 250 250 250 250 250 250 250 250 250 250 250 250 250 250 250 250 250 250 250 250 250 250 250 250 250 250 250 250 250 250 250 250 250 250 250 250 250 250 250 250 250
250 250 250 250 250 250 250 250 250 250 250 250 250 250 250 250 250 250 250 250 250 250 250 250 250 250 250 250 250 250 250 250 250 250 250 250 250 250 250 250 250 250 250 250 250 250 250 250 250 250 250 250 250 250 250 250 250 250 250 250 250 250 250 250
250 250 250 250 250 250 250 250 250 250 250 250 250 250 250 250 250 250 250 250 250 250 250 250 250 250 250 250 250 250 250 250 250 250 250 250 250 250 250 250 250 250 250 250 250 250 250 250 250 250 250 250 250 250 250 250 250 250 250 250 250 250 250 250
250 250 250 250 250 250 250 250 250 250 250 250 250 250 250 250 250 250 250 250 250 250 250 250 250 250 250 250 250 250 250 250 250 250 250 250 250 250 250 250 250 250 250 250 250 250 250 250 250 250 250 250 250 250 250 250 250 250 250 250 250 250 250 250
250 250 250 250 250 250 250 250 250 250 250 250 250 250 250 250 250 250 250 250 250 250 250 250 250 250 250 250 250 250 250 250 250 250 250 250 250 250 250 250 250 250 250 250 250 250 250 250 250 250 250 250 250 250 250 250 250 250 250 250 250 250 250 250
250 250 250 250 250 250 250 250 250 250 250 250 250 250 250 250 250 250 250 250 250 250 250 250 250 250 250 250 250 250 250 250 250 250 250 250 250 250 250 250 250 250 250 250 250 250 250 250 250 250 250 250 250 250 250 250 250 250 250 250 250 250 250 250
250 250 250 250 250 250 250 250 250 250 250 250 250 250 250 250 250 250 250 250 250 250 250 250 250 250 250 250 250 250 250 250 250 250 250 250 250 250 250 250 250 250 250 250 250 250 250 250 250 250 250 250 250 250 250 250 250 250 250 250 250 250 250 250
250 250 250 250 250 250 250 250 250 250 250 250 250 250 250 250 250 250 250 250 250 250 250 250 250 250 250 250 250 250 250 250 250 250 250 250 250 250 250 250 250 250 250 250 250 250 250 250 250 250 250 250 250 250 250 250 250 250 250 250 250 250 250 250
