P2
64 64
255
237 237 237 237 237 237 237 237 237 237 237 237 237 237 237 237 237 237 237 237 237 237 237 237 237 237 237 237 237 237 237 237 237 237 237 237 237 237 237 237 237 237 237 237 237 237 237 237 237 237 237 237 237 237 237 237 237 237 237 237 237 237 237 237
237 237 237 237 237 237 237 237 237 237 237 237 237 237 237 237 237 237 237 237 237 237 237 237 237 237 237 237 237 237 237 237 237 237 237 237 237 237 237 237 237 237 237 237 237 237 237 237 237 237 237 237 237 237 237 237 237 237 237 237 237 237 237 237
237 237 237 237 237 237 237 237 237 237 237 237 237 237 237 237 237 237 237 237 237 237 237 237 237 237 237 237 237 237 237 237 237 237 237 237 237 237 237 237 237 237 237 237 237 237 237 237 237 237 237 237 237 237 237 237 237 237 237 237 237 237 237 237
237 237 237 237 237 237 237 237 237 237 237 237 237 237 237 237 237 237 237 237 237 237 237 237 237 237 237 237 237 237 237 237 237 237 237 237 237 237 237 237 237 237 237 237 237 237 237 237 237 237 237 237 237 237 237 237 237 237 237 237 237 237 237 237
237 237 237 237 237 237 237 237 237 237 237 237 237 237 237 237 237 237 237 237 237 237 237 237 237 237 237 237 237 237 237 237 237 237 237 237 237 237 237 237 237 237 237 237 237 237 237 237 237 237 237 237 237 237 237 237 237 237 237 237 237 237 237 237
237 237 237 237 237 237 237 237 237 237 237 237 237 237 237 237 237 237 237 237 237 237 237 237 237 237 237 236 237 236 237 237 237 237 237 237 237 237 237 237 237 237 237 237 237 237 237 237 237 237 237 237 237 237 237 237 237 237 237 237 237 237 237 237
237 237 237 237 237 237 237 237 237 237 237 237 237 237 237 237 237 237 237 237 237 237 237 236 237 235 228 224 218 225 221 229 235 235 237 237 237 237 237 237 237 237 237 237 237 237 237 237 237 237 237 237 237 237 237 237 237 237 237 237 237 237 237 237
237 237 237 237 237 237 237 237 237 237 237 237 237 237 237 237 237 237 237 237 236 237 233 230 224 200 171 140 144 142 154 191 204 223 235 236 237 237 237 237 237 237 237 237 237 237 237 237 237 237 237 237 237 237 237 237 237 237 237 237 237 237 237 237
237 237 237 237 237 237 237 237 237 237 237 237 237 237 237 237 237 237 237 236 234 217 195 173 145 106 56 40 29 42 51 75 102 145 201 232 237 237 237 237 237 237 237 237 237 237 237 237 237 237 237 237 237 237 237 237 237 237 237 237 237 237 237 237
237 237 237 237 237 237 237 237 237 237 237 237 237 237 237 237 237 237 236 224 194 145 100 64 46 14 6 0 1 1 1 10 7 41 134 209 233 236 237 237 237 237 237 237 237 237 237 237 237 237 237 237 237 237 237 237 237 237 237 237 237 237 237 237
237 237 237 237 237 237 237 237 237 237 237 237 237 237 237 237 236 236 216 181 109 55 17 6 0 0 0 0 6 11 14 3 0 9 53 126 196 234 237 237 237 237 237 237 237 237 237 237 237 237 237 237 237 237 237 237 237 237 237 237 237 237 237 237
237 237 237 237 237 237 237 237 237 237 237 237 237 237 237 237 237 220 170 89 38 0 0 4 3 20 17 42 60 86 75 19 0 0 1 41 131 210 233 236 237 237 237 237 237 237 237 237 237 237 237 237 237 237 237 237 237 237 237 237 237 237 237 237
237 237 237 237 237 237 237 237 237 237 237 237 237 237 237 236 234 188 90 29 1 1 20 33 74 96 124 146 174 190 169 105 53 18 1 9 53 137 207 236 237 237 237 237 237 237 237 237 237 237 237 237 237 237 237 237 237 237 237 237 237 237 237 237
237 237 237 237 237 237 237 237 237 237 237 237 237 237 237 237 223 150 41 2 1 36 79 139 172 207 210 227 231 233 231 201 149 81 9 0 3 62 162 226 236 237 237 237 237 237 237 237 237 237 237 237 237 237 237 237 237 237 237 237 237 237 237 237
237 237 237 237 237 237 237 237 237 237 237 237 237 237 237 236 206 100 16 6 41 105 178 210 234 234 236 237 237 237 237 232 218 163 79 20 0 21 87 184 236 237 237 237 237 237 237 237 237 237 237 237 237 237 237 237 237 237 237 237 237 237 237 237
237 237 237 237 237 237 237 237 237 237 237 237 237 237 237 227 169 59 9 24 107 186 222 236 236 237 237 237 237 237 237 236 235 226 164 60 3 0 25 130 221 236 237 237 237 237 237 237 237 237 237 237 237 237 237 237 237 237 237 237 237 237 237 237
237 237 237 237 237 237 237 237 237 237 237 237 237 237 236 220 130 25 5 69 171 230 236 237 237 237 237 237 237 237 237 237 237 236 208 137 49 2 7 60 171 235 237 237 237 237 237 237 237 237 237 237 237 237 237 237 237 237 237 237 237 237 237 237
237 237 237 237 237 237 237 237 237 237 237 237 237 237 237 217 114 19 15 103 211 235 237 237 237 237 237 237 237 237 237 237 237 236 234 207 107 10 0 8 116 219 236 237 237 237 237 237 237 237 237 237 237 237 237 237 237 237 237 237 237 237 237 237
237 237 237 237 237 237 237 237 237 237 237 237 237 237 236 220 109 16 28 132 227 236 237 237 237 237 237 237 237 237 237 237 237 237 237 227 171 69 3 3 55 168 235 237 237 237 237 237 237 237 237 237 237 237 237 237 237 237 237 237 237 237 237 237
237 237 237 237 237 237 237 237 237 237 237 237 237 237 236 207 97 13 34 141 224 237 237 237 237 237 237 237 237 237 237 237 237 237 237 236 231 131 14 0 7 115 219 236 237 237 237 237 237 237 237 237 237 237 237 237 237 237 237 237 237 237 237 237
237 237 237 237 237 237 237 237 237 237 237 237 237 237 235 202 78 5 20 144 230 236 237 237 237 237 237 237 237 237 237 237 237 237 237 237 235 184 75 4 3 58 176 236 237 237 237 237 237 237 237 237 237 237 237 237 237 237 237 237 237 237 237 237
237 237 237 237 237 237 237 237 237 237 237 237 237 237 235 195 75 7 26 138 226 236 237 237 237 237 237 237 237 237 237 237 237 237 237 237 236 235 133 14 0 19 148 227 236 237 237 237 237 237 237 237 237 237 237 237 237 237 237 237 237 237 237 237
237 237 237 237 237 237 237 237 237 237 237 237 237 237 234 198 66 0 14 128 233 236 237 237 237 237 237 237 237 237 237 237 237 237 237 237 237 235 179 62 1 18 117 219 237 237 237 237 237 237 237 237 237 237 237 237 237 237 237 237 237 237 237 237
237 237 237 237 237 237 237 237 237 237 237 237 237 237 235 186 61 0 13 109 215 237 237 237 237 237 237 237 237 237 237 237 237 237 237 237 237 236 220 86 5 5 104 214 235 237 237 237 237 237 237 237 237 237 237 237 237 237 237 237 237 237 237 237
237 237 237 237 237 237 237 237 237 237 237 237 237 237 234 193 55 0 4 87 219 236 237 237 237 237 237 237 237 237 237 237 237 237 237 237 237 236 213 109 16 13 100 209 236 237 237 237 237 237 237 237 237 237 237 237 237 237 237 237 237 237 237 237
237 237 237 237 237 237 237 237 237 237 237 237 237 237 237 197 70 4 4 98 211 236 237 237 237 237 237 237 237 237 237 237 237 237 237 237 237 236 217 107 16 16 123 217 236 237 237 237 237 237 237 237 237 237 237 237 237 237 237 237 237 237 237 237
237 237 237 237 237 237 237 237 237 237 237 237 237 237 236 211 87 1 5 99 226 237 237 237 237 237 237 237 237 237 237 237 237 237 237 237 237 234 192 74 14 27 138 227 236 237 237 237 237 237 237 237 237 237 237 237 237 237 237 237 237 237 237 237
237 237 237 237 237 237 237 237 237 237 237 237 237 237 236 215 98 11 10 98 208 236 237 237 237 237 237 237 237 237 237 237 237 237 237 237 237 221 142 32 0 19 151 233 237 237 237 237 237 237 237 237 237 237 237 237 237 237 237 237 237 237 237 237
237 237 237 237 237 237 237 237 237 237 237 237 237 237 236 218 115 8 4 72 206 236 236 236 237 237 237 237 237 237 237 237 237 237 237 237 233 194 79 8 0 43 161 230 237 237 237 237 237 237 237 237 237 237 237 237 237 237 237 237 237 237 237 237
237 237 237 237 237 237 237 237 237 237 237 237 237 237 237 224 127 18 0 49 151 219 231 234 237 237 237 237 237 237 237 237 237 237 236 234 206 129 37 0 5 79 198 234 237 237 237 237 237 237 237 237 237 237 237 237 237 237 237 237 237 237 237 237
237 237 237 237 237 237 237 237 237 237 237 237 237 237 237 225 127 12 0 7 63 156 195 221 231 234 236 236 236 237 236 236 234 230 227 189 136 55 6 1 54 150 221 237 237 237 237 237 237 237 237 237 237 237 237 237 237 237 237 237 237 237 237 237
237 237 237 237 237 237 237 237 237 237 237 237 237 237 237 229 114 10 0 0 13 55 100 141 172 202 217 222 233 228 222 214 200 198 152 106 41 13 0 24 112 217 235 237 237 237 237 237 237 237 237 237 237 237 237 237 237 237 237 237 237 237 237 237
237 237 237 237 237 237 237 237 237 237 237 237 237 237 237 226 133 2 0 0 0 3 12 43 73 104 134 159 164 165 150 120 110 90 61 13 7 0 6 77 179 228 237 237 237 237 237 237 237 237 237 237 237 237 237 237 237 237 237 237 237 237 237 237
237 237 237 237 237 237 237 237 237 237 237 237 237 237 237 235 160 42 3 0 0 1 1 7 10 23 34 41 55 54 40 27 11 18 2 0 2 10 71 147 220 235 237 237 237 237 237 237 237 237 237 237 237 237 237 237 237 237 237 237 237 237 237 237
237 237 237 237 237 237 237 237 237 237 237 237 237 237 237 236 211 120 23 0 0 9 15 6 0 0 0 2 0 2 1 0 0 1 0 14 36 92 153 219 233 237 237 237 237 237 237 237 237 237 237 237 237 237 237 237 237 237 237 237 237 237 237 237
237 237 237 237 237 237 237 237 237 237 237 237 237 237 237 237 236 185 90 19 0 15 45 55 43 20 2 0 0 2 8 0 10 21 46 79 132 179 220 234 237 237 237 237 237 237 237 237 237 237 236 235 236 237 237 237 237 237 237 237 237 237 237 237
237 237 237 237 237 237 237 237 237 237 237 237 237 237 237 237 236 223 157 52 0 4 56 138 138 92 53 31 30 56 59 62 72 110 142 178 211 229 237 237 237 237 237 237 237 237 237 237 236 236 223 222 228 236 237 237 237 237 237 237 237 237 237 237
237 237 237 237 237 237 237 237 237 237 237 237 237 237 237 237 237 236 198 102 23 1 35 120 189 193 164 143 141 158 179 171 186 202 219 233 235 237 237 237 237 237 237 237 237 237 237 237 237 217 179 160 194 226 236 237 237 237 237 237 237 237 237 237
237 237 237 237 237 237 237 237 237 237 237 237 237 237 237 237 237 236 225 161 53 1 6 69 183 234 234 223 219 233 231 232 233 235 237 236 237 237 237 237 237 237 237 237 237 237 237 236 232 186 91 69 132 216 237 237 237 237 237 237 237 237 237 237
237 237 237 237 237 237 237 237 237 237 237 237 237 237 237 237 237 237 236 199 103 24 1 35 126 209 236 235 237 236 237 237 237 237 237 237 237 237 237 237 237 237 237 237 237 237 237 237 228 156 40 11 79 191 234 237 237 237 237 237 237 237 237 237
237 237 237 237 237 237 237 237 237 237 237 237 237 237 237 237 237 237 236 225 163 54 1 5 67 182 235 236 237 237 237 237 237 237 237 237 237 237 237 237 237 237 237 237 237 237 237 237 223 137 22 1 43 171 235 237 237 237 237 237 237 237 237 237
237 237 237 237 237 237 237 237 237 237 237 237 237 237 237 237 237 237 237 236 200 105 25 1 34 124 208 236 237 237 237 237 237 237 237 237 237 237 237 237 237 237 237 237 237 237 237 237 230 128 16 0 34 160 230 237 237 237 237 237 237 237 237 237
237 237 237 237 237 237 237 237 237 237 237 237 237 237 237 237 237 237 237 236 226 164 55 1 5 66 182 234 236 237 237 237 237 237 237 237 237 237 237 237 237 237 237 237 237 237 237 237 226 142 22 0 31 157 232 237 237 237 237 237 237 237 237 237
237 237 237 237 237 237 237 237 237 237 237 237 237 237 237 237 237 237 237 237 236 200 106 25 1 34 124 208 236 237 237 237 237 237 237 237 237 237 237 237 237 237 237 237 237 237 237 237 234 157 32 1 33 163 231 236 237 237 237 237 237 237 237 237
237 237 237 237 237 237 237 237 237 237 237 237 237 237 237 237 237 237 237 237 236 227 165 55 1 4 64 181 234 236 237 237 237 237 237 237 237 237 237 237 237 237 237 237 237 237 237 237 232 170 41 1 35 165 234 237 237 237 237 237 237 237 237 237
237 237 237 237 237 237 237 237 237 237 237 237 237 237 237 237 237 237 237 237 237 236 201 108 26 1 33 122 207 236 237 237 237 237 237 237 237 237 237 237 237 237 237 237 237 237 237 237 229 140 27 0 40 173 234 237 237 237 237 237 237 237 237 237
237 237 237 237 237 237 237 237 237 237 237 237 237 237 237 237 237 237 237 237 237 236 227 166 55 1 3 63 179 234 236 237 237 237 237 237 237 237 237 237 237 237 237 237 237 237 237 235 217 102 7 0 53 187 235 237 237 237 237 237 237 237 237 237
237 237 237 237 237 237 237 237 237 237 237 237 237 237 237 237 237 237 237 237 237 237 236 202 109 27 1 32 119 205 236 237 237 237 237 237 237 237 237 237 237 237 237 237 237 237 237 235 193 67 1 2 75 205 235 237 237 237 237 237 237 237 237 237
237 237 237 237 237 237 237 237 237 237 237 237 237 237 237 237 237 237 237 237 237 237 236 228 168 56 0 2 52 161 226 235 237 237 237 237 237 237 237 237 237 237 237 237 237 237 236 232 157 40 1 23 121 219 237 237 237 237 237 237 237 237 237 237
237 237 237 237 237 237 237 237 237 237 237 237 237 237 237 237 237 237 237 237 237 237 237 236 202 110 28 0 19 78 165 222 235 237 237 237 237 237 237 237 237 237 237 237 237 237 236 213 119 13 2 49 174 232 237 237 237 237 237 237 237 237 237 237
237 237 237 237 237 237 237 237 237 237 237 237 237 237 237 237 237 237 237 237 237 237 237 236 229 171 69 3 0 9 90 178 220 234 236 236 237 237 237 237 237 237 237 237 237 236 231 162 60 8 15 99 203 236 237 237 237 237 237 237 237 237 237 237
237 237 237 237 237 237 237 237 237 237 237 237 237 237 237 237 237 237 237 237 237 237 237 237 236 209 138 53 9 1 32 90 151 201 230 236 237 236 237 237 237 237 237 237 236 232 172 91 13 1 32 149 224 236 237 237 237 237 237 237 237 237 237 237
237 237 237 237 237 237 237 237 237 237 237 237 237 237 237 237 237 237 237 237 237 237 237 237 236 233 210 129 35 0 1 18 56 127 192 218 229 234 235 236 237 236 237 236 222 174 91 12 1 13 80 185 234 237 237 237 237 237 237 237 237 237 237 237
237 237 237 237 237 237 237 237 237 237 237 237 237 237 237 237 237 237 237 237 237 237 237 237 237 237 234 193 112 40 10 1 13 44 92 140 179 199 218 233 228 229 230 208 177 90 18 2 2 36 143 220 236 237 237 237 237 237 237 237 237 237 237 237
237 237 237 237 237 237 237 237 237 237 237 237 237 237 237 237 237 237 237 237 237 237 237 237 237 237 236 232 188 116 52 16 4 2 17 45 78 109 147 166 174 179 161 132 74 27 0 0 23 112 197 236 237 237 237 237 237 237 237 237 237 237 237 237
237 237 237 237 237 237 237 237 237 237 237 237 237 237 237 237 237 237 237 237 237 237 237 237 237 237 237 236 223 193 152 96 45 14 4 5 16 26 47 67 71 73 64 26 17 0 0 16 69 180 234 236 237 237 237 237 237 237 237 237 237 237 237 237
237 237 237 237 237 237 237 237 237 237 237 237 237 237 237 237 237 237 237 237 237 237 237 237 237 237 237 236 236 234 225 190 129 74 36 17 12 6 10 9 10 14 2 2 0 0 27 66 157 220 237 237 237 237 237 237 237 237 237 237 237 237 237 237
237 237 237 237 237 237 237 237 237 237 237 237 237 237 237 237 237 237 237 237 237 237 237 237 237 237 237 237 237 236 236 228 207 173 139 103 70 53 30 7 12 12 1 1 5 34 95 167 207 236 237 237 237 237 237 237 237 237 237 237 237 237 237 237
237 237 237 237 237 237 237 237 237 237 237 237 237 237 237 237 237 237 237 237 237 237 237 237 237 237 237 237 237 237 237 237 235 234 220 198 179 145 105 78 75 67 58 48 56 112 183 220 236 236 237 237 237 237 237 237 237 237 237 237 237 237 237 237
237 237 237 237 237 237 237 237 237 237 237 237 237 237 237 237 237 237 237 237 237 237 237 237 237 237 237 237 237 237 237 237 237 236 235 234 226 216 202 180 177 175 161 156 164 193 231 236 237 237 237 237 237 237 237 237 237 237 237 237 237 237 237 237
237 237 237 237 237 237 237 237 237 237 237 237 237 237 237 237 237 237 237 237 237 237 237 237 237 237 237 237 237 237 237 237 237 237 237 237 236 237 233 229 234 226 226 225 224 235 236 237 237 237 237 237 237 237 237 237 237 237 237 237 237 237 237 237
237 237 237 237 237 237 237 237 237 237 237 237 237 237 237 237 237 237 237 237 237 237 237 237 237 237 237 237 237 237 237 237 237 237 237 237 237 237 236 237 236 236 237 236 237 236 237 237 237 237 237 237 237 237 237 237 237 237 237 237 237 237 237 237
237 237 237 237 237 237 237 237 237 237 237 237 237 237 237 237 237 237 237 237 237 237 237 237 237 237 237 237 237 237 237 237 237 237 237 237 237 237 237 237 237 237 237 237 237 237 237 237 237 237 237 237 237 237 237 237 237 237 237 237 237 237 237 237
237 237 237 237 237 237 237 237 237 237 237 237 237 237 237 237 237 237 237 237 237 237 237 237 237 237 237 237 237 237 237 237 237 237 237 237 237 237 237 237 237 237 237 237 237 237 237 237 237 237 237 237 237 237 237 237 237 237 237 237 237 237 237 237
