P2
64 64
255
169 169 169 169 169 169 169 169 169 169 169 169 169 169 169 169 169 169 169 169 169 169 169 169 169 169 169 169 169 169 169 169 169 169 169 169 169 169 169 169 169 169 169 169 169 169 169 169 169 169 169 169 169 169 169 169 169 169 169 169 169 169 169 169
169 169 169 169 169 169 169 169 169 169 169 169 169 169 169 169 169 169 169 169 169 169 169 169 169 169 169 169 169 169 169 169 169 169 169 169 169 169 169 169 169 169 169 169 169 169 169 169 169 169 169 169 169 169 169 169 169 169 169 169 169 169 169 169
169 169 169 169 169 169 169 169 169 169 169 169 169 169 169 169 169 169 169 169 169 169 169 169 169 169 169 169 169 169 169 169 169 169 169 169 169 169 169 169 169 169 169 169 169 169 169 169 169 169 169 169 169 169 169 169 169 169 169 169 169 169 169 169
169 169 169 169 169 169 169 169 169 169 169 169 169 169 169 169 169 169 169 169 169 169 169 169 169 169 169 169 169 169 169 169 169 169 169 169 169 169 169 169 169 169 169 169 169 169 169 169 169 169 169 169 169 169 169 169 169 169 169 169 169 169 169 169
169 169 169 169 169 169 169 169 169 169 169 169 169 169 169 169 169 169 169 169 169 169 169 169 169 169 169 169 169 169 169 169 169 169 169 169 169 169 169 169 169 169 169 169 169 169 169 169 169 169 169 169 169 169 169 169 169 169 169 169 169 169 169 169
169 169 169 169 169 169 169 169 169 169 169 169 169 169 169 169 169 169 169 169 169 169 169 169 169 169 169 169 169 169 169 169 169 169 169 169 169 169 169 169 169 169 169 169 169 169 169 169 169 169 169 169 169 169 169 169 169 169 169 169 169 169 169 169
169 169 169 169 169 169 169 169 169 169 169 169 169 169 169 169 169 169 169 169 169 169 169 169 169 169 169 169 169 169 169 169 168 169 169 169 168 169 168 169 169 169 169 169 169 169 169 169 169 169 169 169 169 169 169 169 169 169 169 169 169 169 169 169
169 169 169 169 169 169 169 169 169 169 169 169 169 169 169 169 169 169 169 169 169 169 169 169 169 169 169 169 169 168 169 169 168 166 167 164 167 166 168 167 169 168 169 169 169 169 169 169 169 169 169 169 169 169 169 169 169 169 169 169 169 169 169 169
169 169 169 169 169 169 169 169 169 169 169 169 169 169 169 169 169 169 169 169 169 169 169 169 169 169 168 168 168 166 163 155 150 140 135 126 125 128 135 142 154 160 168 168 169 169 169 169 169 169 169 169 169 169 169 169 169 169 169 169 169 169 169 169
169 169 169 169 169 169 169 169 169 169 169 169 169 169 169 169 169 169 169 169 169 169 169 169 168 166 163 154 144 131 115 100 77 65 54 45 43 47 54 71 91 125 149 166 169 169 169 169 169 169 169 169 169 169 169 169 169 169 169 169 169 169 169 169
169 169 169 169 169 169 169 169 169 169 169 169 169 169 169 169 169 169 169 169 169 169 168 168 160 140 114 94 72 50 36 23 16 5 6 1 3 1 7 3 27 55 106 155 166 169 169 169 169 169 169 169 169 169 169 169 169 169 169 169 169 169 169 169
169 169 169 169 169 169 169 169 169 169 169 169 169 169 169 169 169 169 169 169 168 168 162 140 108 72 38 16 15 8 4 1 6 5 13 9 12 2 5 0 1 10 55 120 159 168 169 169 169 169 169 169 169 169 169 169 169 169 169 169 169 169 169 169
169 169 169 169 169 169 169 169 169 169 169 169 169 169 169 169 169 169 169 169 164 148 120 76 33 14 5 3 8 17 25 35 51 63 71 77 71 63 45 23 7 1 21 79 141 167 169 169 169 169 169 169 169 169 169 169 169 169 169 169 169 169 169 169
169 169 169 169 169 169 169 169 169 169 169 169 169 169 169 169 169 169 166 155 134 90 45 19 3 1 5 22 53 81 100 116 133 140 147 146 148 139 124 84 31 7 4 41 102 149 168 169 169 169 169 169 169 169 169 169 169 169 169 169 169 169 169 169
169 169 169 169 169 169 169 169 169 169 169 169 169 169 169 169 168 163 150 108 64 29 4 0 1 19 53 91 125 149 162 162 167 166 168 168 168 167 167 134 81 25 1 10 45 118 165 168 169 169 169 169 169 169 169 169 169 169 169 169 169 169 169 169
169 169 169 169 169 169 169 169 169 169 169 169 169 169 168 168 166 137 90 46 11 0 0 13 41 82 126 156 164 167 168 169 169 169 168 169 169 169 168 161 122 48 3 0 15 93 153 168 169 169 169 169 169 169 169 169 169 169 169 169 169 169 169 169
169 169 169 169 169 169 169 169 169 169 169 169 169 169 168 156 125 82 32 4 1 7 29 65 114 149 162 168 168 169 169 169 169 169 169 169 169 169 169 167 144 71 11 0 18 82 154 168 169 169 169 169 169 169 169 169 169 169 169 169 169 169 169 169
169 169 169 169 169 169 169 169 169 169 169 169 169 168 154 120 64 23 7 1 13 40 91 133 156 168 169 169 169 169 169 169 169 169 169 169 169 169 169 169 157 103 34 4 18 90 150 168 169 169 169 169 169 169 169 169 169 169 169 169 169 169 169 169
169 169 169 169 169 169 169 169 169 169 169 169 168 164 122 61 21 1 3 8 53 104 142 164 169 169 169 169 169 169 169 169 169 169 169 169 169 169 169 168 162 125 46 8 21 82 148 168 168 169 169 169 169 169 169 169 169 169 169 169 169 169 169 169
169 169 169 169 169 169 169 169 169 169 169 169 168 130 71 17 0 0 26 69 113 152 168 168 169 169 169 169 169 169 169 169 169 169 169 169 169 169 169 169 164 122 49 4 9 69 141 166 169 169 169 169 169 169 169 169 169 169 169 169 169 169 169 169
169 169 169 169 169 169 169 169 169 169 169 166 142 84 17 3 1 27 73 130 158 166 169 169 169 169 169 169 169 169 169 169 169 169 169 169 169 169 169 168 163 128 47 6 10 63 136 167 168 169 169 169 169 169 169 169 169 169 169 169 169 169 169 169
169 169 169 169 169 169 169 169 169 169 166 156 96 33 3 1 13 70 130 158 168 169 169 169 169 169 169 169 169 169 169 169 169 169 169 169 169 169 169 168 167 134 62 12 7 52 132 163 168 169 169 169 169 169 169 169 169 169 169 169 169 169 169 169
169 169 169 169 169 169 169 169 169 169 157 110 50 3 0 5 60 120 160 169 169 169 169 169 169 169 169 169 169 169 169 169 169 169 169 169 169 169 169 169 167 141 70 13 4 45 117 162 168 169 169 169 169 169 169 169 169 169 169 169 169 169 169 169
169 169 169 169 169 169 169 169 169 162 130 67 9 0 8 45 109 165 168 169 169 169 169 169 169 169 169 169 169 169 169 169 169 169 169 169 169 169 169 169 168 141 70 14 3 33 114 159 168 169 169 169 169 169 169 169 169 169 169 169 169 169 169 169
169 169 169 169 169 169 169 169 167 154 89 29 1 4 26 97 150 168 169 169 169 169 169 169 169 169 169 169 169 169 169 169 169 169 169 169 169 169 169 169 166 141 73 9 3 39 110 162 169 169 169 169 169 169 169 169 169 169 169 169 169 169 169 169
169 169 169 169 169 169 169 169 164 121 55 3 0 15 74 134 168 169 169 169 169 169 169 169 169 169 169 169 169 169 169 169 169 169 169 169 169 169 169 169 168 150 75 15 5 33 112 160 168 169 169 169 169 169 169 169 169 169 169 169 169 169 169 169
169 169 169 169 169 169 169 168 152 96 21 1 7 47 115 167 168 169 169 169 169 169 169 169 169 169 169 169 169 169 169 169 169 169 169 169 169 169 169 169 168 146 77 7 1 32 106 159 169 169 169 169 169 169 169 169 169 169 169 169 169 169 169 169
169 169 169 169 169 169 169 169 138 66 13 0 13 85 145 168 169 169 169 169 169 169 169 169 169 169 169 169 169 169 169 169 169 169 169 169 169 169 169 169 168 148 71 13 2 30 111 161 168 169 169 169 169 169 169 169 169 169 169 169 169 169 169 169
169 169 169 169 169 169 169 164 125 47 3 1 40 110 162 169 169 169 169 169 169 169 169 169 169 169 169 169 169 169 169 169 169 169 169 169 169 169 169 169 167 141 73 9 1 37 112 161 168 169 169 169 169 169 169 169 169 169 169 169 169 169 169 169
169 169 169 169 169 169 168 165 106 33 1 7 51 136 164 169 169 169 169 169 169 169 168 169 169 169 169 169 169 169 169 169 169 169 169 169 169 169 169 169 168 148 72 15 2 36 115 162 168 169 169 169 169 169 169 169 169 169 169 169 169 169 169 169
169 169 169 169 169 169 169 147 83 14 0 5 63 136 167 169 169 169 169 169 168 168 168 166 166 163 168 168 169 169 169 169 169 169 169 169 169 169 169 169 168 144 79 13 1 36 110 159 169 169 169 169 169 169 169 169 169 169 169 169 169 169 169 169
169 169 169 169 169 169 166 143 57 9 0 13 67 150 167 169 169 169 168 168 166 153 142 130 124 118 130 142 156 158 168 168 169 169 169 169 169 169 169 169 167 152 81 19 7 41 113 163 168 169 169 169 169 169 169 169 169 169 169 169 169 169 169 169
169 169 169 169 169 169 167 127 53 3 0 16 92 151 169 168 168 168 164 148 126 93 57 43 35 36 45 69 85 108 128 156 168 168 169 169 169 169 169 169 168 146 85 23 12 57 125 162 169 169 169 169 169 169 169 169 169 169 169 169 169 169 169 169
169 169 169 169 169 169 162 124 41 4 3 42 114 166 168 167 156 142 118 84 43 19 7 0 0 0 5 5 19 25 55 92 128 164 168 168 169 169 169 169 166 152 93 36 43 85 143 168 168 169 169 169 169 169 169 169 169 169 169 169 169 169 169 169
169 169 169 169 169 168 163 120 47 3 7 57 134 165 160 140 106 62 37 15 3 0 0 0 1 0 1 0 0 1 6 14 58 104 142 168 168 169 169 168 168 157 127 97 94 132 160 168 169 169 169 169 169 169 169 169 169 169 169 169 169 169 169 169
169 169 169 169 169 168 163 130 52 6 11 61 129 156 130 71 31 8 1 0 0 0 11 19 31 35 37 31 20 2 1 1 5 31 83 132 162 169 169 169 169 165 154 146 148 159 168 169 169 169 169 169 169 169 169 169 169 169 169 169 169 169 169 169
169 169 169 169 169 168 168 138 61 10 6 46 112 102 61 20 0 0 0 11 29 50 72 104 118 122 120 112 88 58 19 2 0 5 18 75 142 165 168 169 169 168 168 166 167 169 169 169 169 169 169 169 169 169 169 169 169 169 169 169 169 169 169 169
169 169 169 169 169 169 167 138 60 5 1 25 51 39 8 1 0 11 30 65 111 134 151 158 166 165 167 160 160 129 90 41 1 0 0 33 100 155 168 169 169 169 169 169 168 169 169 169 169 169 169 169 169 169 169 169 169 169 169 169 169 169 169 169
169 169 169 169 169 169 169 134 51 5 0 5 3 4 1 9 22 59 108 139 160 166 168 168 168 169 168 169 168 167 153 93 31 7 0 8 61 131 166 169 169 169 169 169 169 169 169 169 169 169 169 169 169 169 169 169 169 169 169 169 169 169 169 169
169 169 169 169 169 169 166 128 45 0 0 0 0 3 13 47 92 129 156 168 169 169 169 169 169 169 169 169 169 169 165 144 92 36 9 6 34 94 148 166 169 169 169 169 169 169 169 169 169 169 169 169 169 169 169 169 169 169 169 169 169 169 169 169
169 169 169 169 169 169 167 136 48 4 0 0 0 25 74 116 149 165 168 169 169 169 169 169 169 169 169 169 169 169 169 168 143 96 43 4 11 47 117 163 169 169 169 169 169 169 169 169 169 169 169 169 169 169 169 169 169 169 169 169 169 169 169 169
169 169 169 169 169 169 167 138 61 3 0 0 20 71 130 166 167 168 169 169 169 169 169 169 169 169 169 169 169 169 169 168 167 146 67 9 1 13 90 156 168 169 169 169 169 169 169 169 169 169 169 169 169 169 169 169 169 169 169 169 169 169 169 169
169 169 169 169 169 169 167 151 76 11 0 7 40 119 157 168 169 169 169 169 169 169 169 169 169 169 169 169 169 169 169 169 168 150 86 15 1 11 76 148 168 169 169 169 169 169 169 169 169 169 169 169 169 169 169 169 169 169 169 169 169 169 169 169
169 169 169 169 169 169 168 158 104 30 6 18 72 138 167 169 169 169 169 169 169 169 169 169 169 169 169 169 169 169 169 169 168 156 87 22 0 12 77 148 167 169 169 169 169 169 169 169 169 169 169 169 169 169 169 169 169 169 169 169 169 169 169 169
169 169 169 169 169 169 169 166 133 64 16 19 73 144 166 169 169 169 169 169 169 169 169 169 169 169 169 169 169 169 169 169 168 140 73 5 0 22 90 151 168 169 169 169 169 169 169 169 169 169 169 169 169 169 169 169 169 169 169 169 169 169 169 169
169 169 169 169 169 169 169 167 145 79 15 11 49 110 160 168 168 169 169 169 169 169 169 169 169 169 169 169 169 169 169 168 163 123 47 7 2 33 110 162 168 169 169 169 169 169 169 169 169 169 169 169 169 169 169 169 169 169 169 169 169 169 169 169
169 169 169 169 169 169 169 168 154 87 18 3 9 59 106 142 168 168 169 169 169 169 169 169 169 169 169 169 169 169 168 168 141 85 26 0 2 56 128 165 169 169 169 169 169 169 169 169 169 169 169 169 169 169 169 169 169 169 169 169 169 169 169 169
169 169 169 169 169 169 169 168 157 107 33 3 1 9 33 90 140 162 169 169 169 169 169 169 169 169 169 169 169 169 168 149 104 37 6 0 25 81 148 168 169 169 169 169 169 169 169 169 169 169 169 169 169 169 169 169 169 169 169 169 169 169 169 169
169 169 169 169 169 169 169 169 165 136 74 17 0 0 7 33 85 140 164 168 169 169 169 169 169 169 169 169 169 168 162 113 47 12 0 7 45 118 157 168 169 169 169 169 169 169 169 169 169 169 169 169 169 169 169 169 169 169 169 169 169 169 169 169
169 169 169 169 169 169 169 169 168 163 120 55 19 1 0 1 33 85 132 166 168 168 169 169 169 169 169 169 169 163 120 61 11 0 0 23 86 143 168 169 169 169 169 169 169 169 169 169 169 169 169 169 169 169 169 169 169 169 169 169 169 169 169 169
169 169 169 169 169 169 169 169 169 168 154 126 74 31 14 0 3 21 74 116 144 168 168 169 168 169 169 168 153 122 67 8 1 0 15 55 126 164 168 169 169 169 169 169 169 169 169 169 169 169 169 169 169 169 169 169 169 169 169 169 169 169 169 169
169 169 169 169 169 169 169 169 169 168 168 161 139 106 51 11 1 4 16 41 85 120 147 159 162 167 162 148 111 55 19 1 1 13 53 116 151 168 169 169 169 169 169 169 169 169 169 169 169 169 169 169 169 169 169 169 169 169 169 169 169 169 169 169
169 169 169 169 169 169 169 169 169 169 169 168 168 152 112 57 13 1 0 7 16 47 75 98 122 128 126 85 41 12 0 1 19 70 122 156 169 168 169 169 169 169 169 169 169 169 169 169 169 169 169 169 169 169 169 169 169 169 169 169 169 169 169 169
169 169 169 169 169 169 169 169 169 169 169 169 169 168 160 116 69 35 3 1 0 5 5 29 39 52 45 27 2 0 3 34 77 129 166 168 169 169 169 169 169 169 169 169 169 169 169 169 169 169 169 169 169 169 169 169 169 169 169 169 169 169 169 169
169 169 169 169 169 169 169 169 169 169 169 169 169 169 168 156 138 100 64 31 3 3 0 0 4 7 5 6 4 18 44 93 144 161 168 169 169 169 169 169 169 169 169 169 169 169 169 169 169 169 169 169 169 169 169 169 169 169 169 169 169 169 169 169
169 169 169 169 169 169 169 169 169 169 169 169 169 169 168 168 164 156 133 98 67 37 25 12 5 11 24 36 49 74 116 148 165 169 169 169 169 169 169 169 169 169 169 169 169 169 169 169 169 169 169 169 169 169 169 169 169 169 169 169 169 169 169 169
169 169 169 169 169 169 169 169 169 169 169 169 169 169 169 169 169 169 163 160 137 121 95 73 67 70 92 116 128 144 158 169 169 169 169 169 169 169 169 169 169 169 169 169 169 169 169 169 169 169 169 169 169 169 169 169 169 169 169 169 169 169 169 169
169 169 169 169 169 169 169 169 169 169 169 169 169 169 169 169 169 169 169 168 167 166 152 148 139 146 152 162 165 168 168 169 169 169 169 169 169 169 169 169 169 169 169 169 169 169 169 169 169 169 169 169 169 169 169 169 169 169 169 169 169 169 169 169
169 169 169 169 169 169 169 169 169 169 169 169 169 169 169 169 169 169 169 169 169 168 168 167 166 167 168 168 169 168 169 169 169 169 169 169 169 169 169 169 169 169 169 169 169 169 169 169 169 169 169 169 169 169 169 169 169 169 169 169 169 169 169 169
169 169 169 169 169 169 169 169 169 169 169 169 169 169 169 169 169 169 169 169 169 169 169 169 169 168 169 169 169 169 169 169 169 169 169 169 169 169 169 169 169 169 169 169 169 169 169 169 169 169 169 169 169 169 169 169 169 169 169 169 169 169 169 169
169 169 169 169 169 169 169 169 169 169 169 169 169 169 169 169 169 169 169 169 169 169 169 169 169 169 169 169 169 169 169 169 169 169 169 169 169 169 169 169 169 169 169 169 169 169 169 169 169 169 169 169 169 169 169 169 169 169 169 169 169 169 169 169
169 169 169 169 169 169 169 169 169 169 169 169 169 169 169 169 169 169 169 169 169 169 169 169 169 169 169 169 169 169 169 169 169 169 169 169 169 169 169 169 169 169 169 169 169 169 169 169 169 169 169 169 169 169 169 169 169 169 169 169 169 169 169 169
169 169 169 169 169 169 169 169 169 169 169 169 169 169 169 169 169 169 169 169 169 169 169 169 169 169 169 169 169 169 169 169 169 169 169 169 169 169 169 169 169 169 169 169 169 169 169 169 169 169 169 169 169 169 169 169 169 169 169 169 169 169 169 169
169 169 169 169 169 169 169 169 169 169 169 169 169 169 169 169 169 169 169 169 169 169 169 169 169 169 169 169 169 169 169 169 169 169 169 169 169 169 169 169 169 169 169 169 169 169 169 169 169 169 169 169 169 169 169 169 169 169 169 169 169 169 169 169
