P2
64 64
255
255 255 255 255 255 255 255 255 255 255 255 255 255 255 255 255 255 255 255 255 255 255 255 255 255 255 255 255 255 255 255 255 255 255 255 255 255 255 255 255 255 255 255 255 255 255 255 255 255 255 255 255 255 255 255 255 255 255 255 255 255 255 255 255
255 255 255 255 255 255 255 255 255 255 255 255 255 255 255 255 255 255 255 255 255 255 255 255 255 255 255 255 255 255 255 255 255 255 255 255 255 255 255 255 255 255 255 255 255 255 255 255 255 255 255 255 255 255 255 255 255 255 255 255 255 255 255 255
255 255 255 255 255 255 255 255 255 255 255 255 255 255 255 255 255 255 255 255 255 255 255 255 255 255 255 255 255 255 255 255 255 255 255 255 255 255 255 255 255 255 255 255 255 255 255 255 255 255 255 255 255 255 255 255 255 255 255 255 255 255 255 255
255 255 255 255 255 255 255 255 255 255 255 255 255 255 255 255 255 255 255 251 226 229 212 194 188 205 241 255 255 255 255 255 255 255 255 255 255 255 255 255 255 255 255 255 255 255 255 255 255 255 255 255 255 255 255 255 255 255 255 255 255 255 255 255
255 255 255 255 255 255 255 255 255 255 255 255 255 255 255 255 255 245 199 146 125 109 98 60 61 83 122 167 212 249 255 255 255 255 255 255 255 255 255 255 255 255 255 255 255 255 255 255 255 255 255 255 255 255 255 255 255 255 255 255 255 255 255 255
255 255 255 255 255 255 255 255 255 255 255 255 255 255 255 255 230 156 80 42 19 27 7 10 1 3 28 54 95 152 206 251 255 255 255 255 255 255 255 255 255 255 255 255 255 255 255 255 255 255 255 255 255 255 255 255 255 255 255 255 255 255 255 255
255 255 255 255 255 255 255 255 255 255 255 255 255 255 255 220 140 49 12 1 1 3 1 0 0 0 1 5 21 47 96 172 245 233 232 255 255 255 255 255 255 255 255 255 255 255 255 255 255 255 255 255 255 255 255 255 255 255 255 255 255 255 255 255
255 255 255 255 255 255 255 255 255 255 255 255 255 255 211 128 37 5 0 0 10 16 25 9 2 6 1 1 2 4 21 74 131 127 121 191 255 255 255 255 255 255 255 255 255 255 255 255 255 255 255 255 255 255 255 255 255 255 255 255 255 255 255 255
255 255 255 255 255 255 255 255 255 255 255 255 255 214 120 24 4 0 1 23 42 103 112 96 80 60 56 40 27 12 2 18 38 16 36 101 228 255 255 255 255 255 255 255 255 255 255 255 255 255 255 255 255 255 255 255 255 255 255 255 255 255 255 255
255 255 255 255 255 255 255 255 255 255 255 255 237 136 19 4 2 6 60 92 156 208 238 219 206 196 167 147 112 51 7 1 0 1 0 45 189 255 255 255 255 255 255 255 255 255 255 255 255 255 255 255 255 255 255 255 255 255 255 255 255 255 255 255
255 255 255 255 255 255 255 255 255 255 255 255 170 51 6 2 9 90 164 218 244 255 255 255 255 255 255 245 217 155 73 19 0 0 0 25 138 255 255 255 255 255 255 255 255 255 255 255 255 255 255 255 255 255 255 255 255 255 255 255 255 255 255 255
255 255 255 255 255 255 255 255 255 255 255 209 94 18 1 7 99 189 255 255 255 255 255 255 255 255 255 255 255 247 165 65 4 0 0 1 101 251 255 255 255 255 255 255 255 255 255 255 255 255 255 255 255 255 255 255 255 255 255 255 255 255 255 255
255 255 255 255 255 255 255 255 255 255 253 146 25 2 9 90 191 255 255 255 255 255 255 255 255 255 255 255 255 255 241 161 70 16 0 1 67 210 255 255 255 255 255 255 255 255 255 255 255 255 255 255 255 255 255 255 255 255 255 255 255 255 255 255
255 255 255 255 255 255 255 255 255 255 208 68 9 6 58 166 255 255 255 255 255 255 255 255 255 255 255 255 255 255 255 249 170 63 2 0 21 184 255 255 255 255 255 255 255 255 255 255 255 255 255 255 255 255 255 255 255 255 255 255 255 255 255 255
255 255 255 255 255 255 255 255 255 255 150 33 1 18 128 242 255 255 255 255 255 255 255 255 255 255 255 255 255 255 255 255 245 144 30 0 19 153 255 255 255 255 255 255 255 255 255 255 255 255 255 255 255 255 255 255 255 255 255 255 255 255 255 255
255 255 255 255 255 255 255 255 255 237 91 9 2 81 202 255 255 255 255 255 255 255 255 255 255 255 255 255 255 255 255 255 255 206 47 0 12 132 255 255 255 255 255 255 255 255 255 255 255 255 255 255 255 255 255 255 255 255 255 255 255 255 255 255
255 255 255 255 255 255 255 255 255 198 55 1 33 144 255 255 255 255 255 255 255 255 255 255 255 255 255 255 255 255 255 255 255 226 67 4 13 137 255 255 255 255 255 255 255 255 255 255 255 255 255 255 255 255 255 255 255 255 255 255 255 255 255 255
255 255 255 255 255 255 255 255 255 163 18 2 69 217 255 255 255 255 255 255 255 255 255 255 255 255 255 255 255 255 255 255 255 240 99 5 15 134 255 255 255 255 255 255 255 255 255 255 255 255 255 255 255 255 255 255 255 255 255 255 255 255 255 255
255 255 255 255 255 255 255 255 255 135 13 12 104 243 255 255 255 255 255 255 255 255 255 255 255 255 255 255 255 255 255 255 255 255 111 11 11 138 255 255 255 255 255 255 255 255 255 255 255 255 255 255 255 255 255 255 255 255 255 255 255 255 255 255
255 255 255 255 255 255 255 255 255 98 4 5 129 255 255 255 255 255 255 255 255 255 255 255 255 255 255 255 255 255 255 255 255 253 120 15 24 141 255 255 255 255 255 255 255 255 255 255 255 255 255 255 255 255 255 255 255 255 255 255 255 255 255 255
255 255 255 255 255 255 255 255 241 82 2 13 132 255 255 255 255 255 255 255 255 255 255 255 255 255 255 255 255 255 255 255 255 245 99 11 29 172 255 255 255 255 255 255 255 255 255 255 255 255 255 255 255 255 255 255 255 255 255 255 255 255 255 255
255 255 255 255 255 255 255 255 229 67 0 11 131 255 255 255 255 255 255 255 255 255 255 255 255 255 255 255 255 255 255 255 255 212 68 10 49 174 242 220 198 194 198 235 255 255 255 255 255 255 255 255 255 255 255 255 255 255 255 255 255 255 255 255
255 255 255 255 255 255 255 255 227 65 3 14 148 255 255 255 255 255 255 255 255 255 255 255 255 255 255 255 255 255 255 255 255 141 34 1 49 140 140 111 76 61 80 129 208 255 255 255 255 255 255 255 255 255 255 255 255 255 255 255 255 255 255 255
255 255 255 255 255 255 255 255 234 85 1 18 141 255 255 255 255 255 255 255 255 255 255 255 255 255 255 255 255 255 255 255 196 75 2 3 30 48 45 18 13 6 6 40 99 175 247 255 255 255 255 255 255 255 255 255 255 255 255 255 255 255 255 255
255 255 255 255 255 255 255 255 251 93 5 6 126 255 255 255 255 255 255 255 255 255 255 255 255 255 255 255 255 255 255 242 114 15 0 1 5 7 1 1 0 0 0 0 7 72 181 255 255 255 255 255 255 255 255 255 255 255 255 255 255 255 255 255
255 255 255 255 255 255 255 255 252 119 9 6 83 219 255 255 255 255 255 255 255 255 255 255 255 255 255 255 255 255 255 161 48 3 0 0 0 0 0 12 21 16 11 1 2 20 90 206 255 255 255 255 255 255 255 255 255 255 255 255 255 255 255 255
255 255 255 255 255 255 255 255 255 138 9 0 32 176 255 255 255 255 255 255 255 255 255 255 255 255 255 255 255 255 184 84 4 0 0 0 3 3 29 69 110 104 66 38 4 1 19 139 255 255 255 255 255 255 255 255 255 255 255 255 255 255 255 255
255 255 255 255 255 255 255 255 255 163 32 0 19 118 242 255 255 255 255 255 255 255 255 255 255 255 255 255 255 182 92 6 1 7 5 20 29 66 111 188 221 223 196 134 51 6 4 78 202 255 255 255 255 255 255 255 255 255 255 255 255 255 255 255
255 255 255 255 255 255 255 255 255 202 45 0 1 61 212 255 255 255 255 255 255 255 255 255 255 255 255 242 171 83 9 2 7 29 87 99 136 172 228 255 255 255 255 238 129 21 1 24 141 255 255 255 255 255 255 255 255 255 255 255 255 255 255 255
255 255 255 255 255 255 255 255 255 229 104 20 0 39 149 247 255 255 255 255 255 255 255 255 255 217 184 138 68 7 1 4 25 132 199 228 234 255 255 255 255 255 255 255 198 66 7 3 86 214 255 255 255 255 255 255 255 255 255 255 255 255 255 255
255 255 255 255 255 255 255 255 255 255 179 54 1 10 75 198 255 255 255 255 255 255 255 255 181 104 56 40 5 0 5 31 128 217 255 255 255 255 255 255 255 255 255 255 249 132 22 1 34 155 255 255 255 255 255 255 255 255 255 255 255 255 255 255
255 255 255 255 255 255 255 255 255 255 233 113 24 1 30 114 209 255 255 255 255 255 245 178 80 9 9 1 0 6 43 136 218 255 255 255 255 255 255 255 255 255 255 255 255 193 54 4 4 101 232 255 255 255 255 255 255 255 255 255 255 255 255 255
255 255 255 255 255 255 255 255 255 255 255 182 66 3 5 34 117 209 255 255 236 202 163 73 6 0 0 1 9 57 148 227 255 255 255 255 255 255 255 255 255 255 255 255 255 238 119 19 2 49 180 255 255 255 255 255 255 255 255 255 255 255 255 255
255 255 255 255 255 255 255 255 255 255 255 238 131 34 6 3 39 109 173 171 135 92 48 7 0 0 1 13 77 164 237 255 255 255 255 255 255 255 255 255 255 255 255 255 255 255 183 38 1 6 131 255 255 255 255 255 255 255 255 255 255 255 255 255
255 255 255 255 255 255 255 255 255 255 255 255 210 113 36 2 6 32 72 66 33 18 2 0 0 1 7 91 185 250 255 255 255 255 255 255 255 255 255 255 255 255 255 255 255 255 228 100 10 4 82 226 255 255 255 255 255 255 255 255 255 255 255 255
255 255 255 255 255 255 255 255 255 255 255 255 255 203 102 29 10 7 24 7 3 0 0 0 1 5 98 192 255 255 255 255 255 255 255 255 255 255 255 255 255 255 255 255 255 255 255 155 11 0 37 211 255 255 255 255 255 255 255 255 255 255 255 255
255 255 255 255 255 255 255 255 255 255 255 255 255 255 200 125 67 50 31 3 3 0 0 0 5 99 197 255 255 255 255 255 255 255 255 255 255 255 255 255 255 255 255 255 255 255 255 194 52 1 39 182 255 255 255 255 255 255 255 255 255 255 255 255
255 255 255 255 255 255 255 255 255 255 255 255 255 255 255 230 183 141 90 55 20 5 0 10 87 190 255 255 255 255 255 255 255 255 255 255 255 255 255 255 255 255 255 255 255 255 255 235 74 1 21 166 255 255 255 255 255 255 255 255 255 255 255 255
255 255 255 255 255 255 255 255 255 255 255 255 255 255 255 255 255 241 199 125 58 6 5 57 172 255 255 255 255 255 255 255 255 255 255 255 255 255 255 255 255 255 255 255 255 255 255 242 87 5 21 154 255 255 255 255 255 255 255 255 255 255 255 255
255 255 255 255 255 255 255 255 255 255 255 255 255 255 255 255 255 255 251 155 31 1 11 125 250 255 255 255 255 255 255 255 255 255 255 255 255 255 255 255 255 255 255 255 255 255 255 247 104 5 16 132 255 255 255 255 255 255 255 255 255 255 255 255
255 255 255 255 255 255 255 255 255 255 255 255 255 255 255 255 255 255 243 94 10 1 59 187 255 255 255 255 255 255 255 255 255 255 255 255 255 255 255 255 255 255 255 255 255 255 255 255 117 12 6 123 255 255 255 255 255 255 255 255 255 255 255 255
255 255 255 255 255 255 255 255 255 255 255 255 255 255 255 255 255 255 212 52 0 5 100 251 255 255 255 255 255 255 255 255 255 255 255 255 255 255 255 255 255 255 255 255 255 255 255 255 136 18 12 109 247 255 255 255 255 255 255 255 255 255 255 255
255 255 255 255 255 255 255 255 255 255 255 255 255 255 255 255 255 255 187 31 0 19 143 255 255 255 255 255 255 255 255 255 255 255 255 255 255 255 255 255 255 255 255 255 255 255 255 255 146 15 4 101 247 255 255 255 255 255 255 255 255 255 255 255
255 255 255 255 255 255 255 255 255 255 255 255 255 255 255 255 255 255 190 31 0 20 173 255 255 255 255 255 255 255 255 255 255 255 255 255 255 255 255 255 255 255 255 255 255 255 255 255 149 25 6 99 243 255 255 255 255 255 255 255 255 255 255 255
255 255 255 255 255 255 255 255 255 255 255 255 255 255 255 255 255 255 198 39 1 37 193 255 255 255 255 255 255 255 255 255 255 255 255 255 255 255 255 255 255 255 255 255 255 255 255 255 144 9 3 84 255 255 255 255 255 255 255 255 255 255 255 255
255 255 255 255 255 255 255 255 255 255 255 255 255 255 255 255 255 255 203 52 1 52 208 255 255 255 255 255 255 255 255 255 255 255 255 255 255 255 255 255 255 255 255 255 255 255 255 255 123 12 3 83 237 255 255 255 255 255 255 255 255 255 255 255
255 255 255 255 255 255 255 255 255 255 255 255 255 255 255 255 255 255 212 45 2 51 209 255 255 255 255 255 255 255 255 255 255 255 255 255 255 255 255 255 255 255 255 255 255 255 255 255 111 3 2 77 245 255 255 255 255 255 255 255 255 255 255 255
255 255 255 255 255 255 255 255 255 255 255 255 255 255 255 255 255 255 206 61 2 45 180 255 255 255 255 255 255 255 255 255 255 255 255 255 255 255 255 255 255 255 255 255 255 255 255 255 100 5 2 99 252 255 255 255 255 255 255 255 255 255 255 255
255 255 255 255 255 255 255 255 255 255 255 255 255 255 255 255 255 255 225 63 0 7 147 255 255 255 255 255 255 255 255 255 255 255 255 255 255 255 255 255 255 255 255 255 255 255 255 238 91 3 13 120 255 255 255 255 255 255 255 255 255 255 255 255
255 255 255 255 255 255 255 255 255 255 255 255 255 255 255 255 255 255 236 94 9 7 101 233 255 255 255 255 255 255 255 255 255 255 255 255 255 255 255 255 255 255 255 255 255 255 255 219 57 2 20 162 255 255 255 255 255 255 255 255 255 255 255 255
255 255 255 255 255 255 255 255 255 255 255 255 255 255 255 255 255 255 255 138 9 2 48 199 255 255 255 255 255 255 255 255 255 255 255 255 255 255 255 255 255 255 255 255 255 255 255 164 41 5 51 192 255 255 255 255 255 255 255 255 255 255 255 255
255 255 255 255 255 255 255 255 255 255 255 255 255 255 255 255 255 255 255 179 43 1 29 148 250 255 255 255 255 255 255 255 255 255 255 255 255 255 255 255 255 255 255 255 255 255 217 96 14 10 102 238 255 255 255 255 255 255 255 255 255 255 255 255
255 255 255 255 255 255 255 255 255 255 255 255 255 255 255 255 255 255 255 224 86 2 12 80 197 255 255 255 255 255 255 255 255 255 255 255 255 255 255 255 255 255 255 255 255 241 129 41 0 38 158 255 255 255 255 255 255 255 255 255 255 255 255 255
255 255 255 255 255 255 255 255 255 255 255 255 255 255 255 255 255 255 255 255 127 21 1 32 108 189 246 255 255 255 255 255 255 255 255 255 255 255 255 255 255 255 255 255 242 155 60 1 3 68 223 255 255 255 255 255 255 255 255 255 255 255 255 255
255 255 255 255 255 255 255 255 255 255 255 255 255 255 255 255 255 255 255 255 180 61 4 6 32 84 149 190 228 252 255 255 255 255 255 255 255 255 255 255 255 255 233 198 141 67 4 1 34 131 247 255 255 255 255 255 255 255 255 255 255 255 255 255
255 255 255 255 255 255 255 255 255 255 255 255 255 255 255 255 255 255 255 255 236 122 29 6 2 13 51 76 110 152 190 230 253 255 255 255 255 255 255 255 255 202 136 76 46 5 0 20 84 202 255 255 255 255 255 255 255 255 255 255 255 255 255 255
255 255 255 255 255 255 255 255 255 255 255 255 255 255 255 255 255 255 255 255 255 201 120 51 9 3 7 11 25 41 76 136 165 172 201 211 221 246 225 212 167 100 28 15 1 0 9 57 174 252 255 255 255 255 255 255 255 255 255 255 255 255 255 255
255 255 255 255 255 255 255 255 255 255 255 255 255 255 255 255 255 255 255 255 255 255 223 138 58 21 4 1 1 3 12 51 59 64 84 101 116 126 118 84 59 13 4 0 0 15 55 155 238 255 255 255 255 255 255 255 255 255 255 255 255 255 255 255
255 255 255 255 255 255 255 255 255 255 255 255 255 255 255 255 255 255 255 255 255 255 255 229 165 104 56 25 11 5 5 22 13 6 18 18 28 37 15 19 3 1 0 4 29 83 161 234 255 255 255 255 255 255 255 255 255 255 255 255 255 255 255 255
255 255 255 255 255 255 255 255 255 255 255 255 255 255 255 255 255 255 255 255 255 255 255 255 255 217 157 105 75 42 42 50 18 13 9 4 7 5 2 2 0 6 21 49 110 192 247 255 255 255 255 255 255 255 255 255 255 255 255 255 255 255 255 255
255 255 255 255 255 255 255 255 255 255 255 255 255 255 255 255 255 255 255 255 255 255 255 255 255 255 252 221 190 162 149 139 110 81 52 48 39 28 24 18 43 63 111 156 214 255 255 255 255 255 255 255 255 255 255 255 255 255 255 255 255 255 255 255
255 255 255 255 255 255 255 255 255 255 255 255 255 255 255 255 255 255 255 255 255 255 255 255 255 255 255 255 255 254 252 245 216 194 169 145 135 117 102 126 146 189 221 255 255 255 255 255 255 255 255 255 255 255 255 255 255 255 255 255 255 255 255 255
255 255 255 255 255 255 255 255 255 255 255 255 255 255 255 255 255 255 255 255 255 255 255 255 255 255 255 255 255 255 255 255 255 255 254 250 234 224 220 228 255 255 255 255 255 255 255 255 255 255 255 255 255 255 255 255 255 255 255 255 255 255 255 255
255 255 255 255 255 255 255 255 255 255 255 255 255 255 255 255 255 255 255 255 255 255 255 255 255 255 255 255 255 255 255 255 255 255 255 255 255 255 255 255 255 255 255 255 255 255 255 255 255 255 255 255 255 255 255 255 255 255 255 255 255 255 255 255
