P2
64 64
255
238 238 238 238 238 238 238 238 238 238 238 238 238 238 238 238 238 238 238 238 238 238 238 238 238 238 238 238 238 238 238 238 238 238 238 238 238 238 238 238 238 238 238 238 238 238 238 238 238 238 238 238 238 238 238 238 238 238 238 238 238 238 238 238
238 238 238 238 238 238 238 238 238 238 238 238 238 238 238 238 238 238 238 238 238 238 238 238 238 238 238 238 238 238 238 238 238 238 238 238 238 238 238 238 238 238 238 238 238 238 238 238 238 238 238 238 238 238 238 238 238 238 238 238 238 238 238 238
238 238 238 238 238 238 238 238 238 238 238 238 238 238 238 238 238 238 238 238 238 238 238 238 238 238 238 238 238 238 238 238 238 238 238 238 238 238 238 238 238 238 238 238 238 238 238 238 238 238 238 238 238 238 238 238 238 238 238 238 238 238 238 238
238 238 238 238 238 238 238 238 238 238 238 238 238 238 238 238 238 238 238 238 238 238 238 238 238 238 238 238 238 238 238 238 238 238 238 238 238 238 238 238 238 238 238 238 238 238 238 238 238 238 238 238 238 238 238 238 238 238 238 238 238 238 238 238
238 238 238 238 238 238 238 238 238 238 238 238 238 238 238 238 238 238 238 238 238 238 238 238 238 238 238 238 238 238 238 238 238 238 238 238 238 238 238 238 238 238 238 238 238 238 238 238 238 238 238 238 238 238 238 238 238 238 238 238 238 238 238 238
238 238 238 238 238 238 238 238 238 238 238 238 238 238 238 238 238 238 238 238 238 238 238 238 238 238 238 238 238 238 238 238 238 238 238 238 238 238 238 238 238 238 238 238 238 238 238 238 238 238 238 238 238 238 238 238 238 238 238 238 238 238 238 238
238 238 238 238 238 238 238 238 238 238 238 238 238 238 238 238 238 238 238 238 238 238 238 238 238 238 238 238 238 238 238 238 238 238 238 238 238 238 238 238 238 238 238 238 238 238 238 238 238 238 238 238 238 238 238 238 238 238 238 238 238 238 238 238
238 238 238 238 238 238 238 238 238 238 238 238 238 238 238 238 238 238 238 238 238 238 238 238 238 238 238 238 238 238 237 238 238 238 238 238 238 238 238 238 238 238 238 238 238 238 238 238 238 238 238 238 238 238 238 238 238 238 238 238 238 238 238 238
238 238 238 238 238 238 238 238 238 238 238 238 238 238 238 238 238 238 238 238 238 238 238 238 238 238 237 237 237 237 230 229 235 237 235 236 237 238 238 238 238 238 238 238 238 238 238 238 238 238 238 238 238 238 238 238 238 238 238 238 238 238 238 238
238 238 238 238 238 238 238 238 238 238 238 238 238 238 238 238 238 238 238 238 238 238 237 237 237 237 224 203 187 173 163 166 176 190 199 206 222 234 234 236 238 238 238 238 238 238 238 238 238 238 238 238 238 238 238 238 238 238 238 238 238 238 238 238
238 238 238 238 238 238 238 238 238 238 238 238 238 238 238 238 238 238 238 238 238 237 225 203 179 157 129 100 76 53 46 54 60 67 84 108 135 166 190 205 224 235 236 237 238 238 238 238 238 238 238 238 238 238 238 238 238 238 238 238 238 238 238 238
238 238 238 238 238 238 238 238 238 238 238 238 238 238 238 238 238 238 238 237 228 203 153 103 67 34 22 15 10 2 0 1 5 3 4 17 32 45 76 109 142 189 215 229 236 238 238 238 238 238 238 238 238 238 238 238 238 238 238 238 238 238 238 238
238 238 238 238 238 238 238 238 238 238 238 238 238 238 238 238 238 238 234 211 159 95 47 20 8 0 0 1 2 2 15 19 7 2 8 3 0 1 5 21 40 65 122 190 229 238 238 238 238 238 238 238 238 238 238 238 238 238 238 238 238 238 238 238
238 238 238 238 238 238 238 238 238 238 238 238 238 238 238 238 238 237 214 136 53 5 0 0 2 3 27 51 70 84 102 107 95 82 70 54 31 8 10 3 3 3 28 122 216 237 238 238 238 238 238 238 238 238 238 238 238 238 238 238 238 238 238 238
238 238 238 238 238 238 238 238 238 238 238 238 238 238 238 238 238 232 165 53 6 0 11 40 72 101 130 158 182 203 206 206 204 207 184 164 139 108 78 52 24 2 15 97 202 237 238 238 238 238 238 238 238 238 238 238 238 238 238 238 238 238 238 238
238 238 238 238 238 238 238 238 238 238 238 238 238 238 238 238 237 214 106 14 0 3 66 135 182 213 220 226 231 237 237 237 236 238 236 229 221 217 189 160 119 65 67 139 213 236 238 238 238 238 238 238 238 238 238 238 238 238 238 238 238 238 238 238
238 238 238 238 238 238 238 238 238 238 238 238 238 238 238 238 237 189 54 1 11 66 163 214 231 238 238 238 238 238 238 238 238 238 238 238 237 237 234 225 210 187 169 202 230 237 238 238 238 238 238 238 238 238 238 238 238 238 238 238 238 238 238 238
238 238 238 238 238 238 238 238 238 238 238 238 238 238 238 238 232 157 20 0 36 150 224 237 237 238 238 238 238 238 238 238 238 238 238 238 238 238 238 237 235 235 231 233 237 238 238 238 238 238 238 238 238 238 238 238 238 238 238 238 238 238 238 238
238 238 238 238 238 238 238 238 238 238 238 238 238 238 238 238 230 158 34 0 26 149 227 238 238 238 238 238 238 238 238 238 238 238 238 238 238 238 238 238 237 238 238 238 238 238 238 238 238 238 238 238 238 238 238 238 238 238 238 238 238 238 238 238
238 238 238 238 238 238 238 238 238 238 238 238 238 238 238 238 234 183 66 5 5 94 202 236 238 238 238 238 238 238 238 238 238 238 238 238 238 238 238 238 238 238 238 238 238 238 238 238 238 238 238 238 238 238 238 238 238 238 238 238 238 238 238 238
238 238 238 238 238 238 238 238 238 238 238 238 238 238 238 238 237 215 117 24 1 41 145 224 238 238 238 238 238 238 238 238 238 238 238 238 238 238 238 238 238 238 238 238 238 238 238 238 238 238 238 238 238 238 238 238 238 238 238 238 238 238 238 238
238 238 238 238 238 238 238 238 238 238 238 238 238 238 238 238 238 236 177 65 4 10 68 168 232 237 238 238 238 238 238 238 238 238 238 238 238 238 238 238 238 238 238 238 238 238 238 238 238 238 238 238 238 238 238 238 238 238 238 238 238 238 238 238
238 238 238 238 238 238 238 238 238 238 238 238 238 238 238 238 238 238 219 135 35 1 15 82 185 229 234 237 238 237 237 238 238 238 238 238 238 237 238 238 238 238 238 238 238 238 238 238 238 238 238 238 238 238 238 238 238 238 238 238 238 238 238 238
238 238 238 238 238 238 238 238 238 238 238 238 238 238 238 238 238 238 233 202 103 14 0 24 94 166 186 200 222 223 221 227 235 232 233 235 236 222 222 232 237 238 238 238 238 238 238 238 238 238 238 238 238 238 238 238 238 238 238 238 238 238 238 238
238 238 238 238 238 238 238 238 238 238 238 238 238 238 238 238 238 238 237 231 182 71 11 4 22 56 76 92 116 140 142 148 168 172 156 133 122 124 135 178 226 238 238 238 238 238 238 238 238 238 238 238 238 238 238 238 238 238 238 238 238 238 238 238
238 238 238 238 238 238 238 238 238 238 238 238 238 238 238 238 238 238 238 237 224 163 78 23 1 2 8 14 9 30 38 34 28 40 36 23 2 7 28 76 175 234 238 238 238 238 238 238 238 238 238 238 238 238 238 238 238 238 238 238 238 238 238 238
238 238 238 238 238 238 238 238 238 238 238 238 238 238 238 238 238 238 238 238 236 223 176 104 32 16 10 2 0 0 0 0 0 0 0 0 0 0 0 24 127 224 237 238 238 238 238 238 238 238 238 238 238 238 238 238 238 238 238 238 238 238 238 238
238 238 238 238 238 238 238 238 238 238 238 238 238 238 238 238 238 238 238 238 238 237 226 196 144 101 79 55 20 0 0 0 0 0 0 0 0 0 0 34 151 226 238 238 238 238 238 238 238 238 238 238 238 238 238 238 238 238 238 238 238 238 238 238
238 238 238 238 238 238 238 238 238 238 238 238 238 238 238 238 238 238 238 238 238 238 237 233 223 184 132 79 29 1 0 0 1 15 28 36 28 40 61 125 209 235 238 238 238 238 238 238 238 238 238 238 238 238 238 238 238 238 238 238 238 238 238 238
238 238 238 238 238 238 238 238 238 238 238 238 238 238 238 238 238 238 238 238 238 238 237 232 202 140 70 20 0 0 5 22 55 96 138 178 183 166 182 218 237 238 238 238 238 238 238 238 238 238 238 238 238 238 238 238 238 238 238 238 238 238 238 238
238 238 238 238 238 238 238 238 238 238 238 238 238 238 238 238 238 238 238 238 238 237 226 185 108 44 12 0 5 32 75 130 179 203 222 232 237 237 236 237 238 238 238 238 238 238 238 238 238 238 238 238 238 238 238 238 238 238 238 238 238 238 238 238
238 238 238 238 238 238 238 238 238 238 238 238 238 238 238 238 238 238 238 238 236 221 168 87 22 1 2 13 58 126 182 223 237 237 237 238 238 238 238 238 238 238 238 238 238 238 238 238 238 238 238 238 238 238 238 238 238 238 238 238 238 238 238 238
238 238 238 238 238 238 238 238 238 238 238 238 238 238 238 238 238 238 238 238 223 162 75 14 1 13 48 103 168 210 231 237 238 238 238 238 238 238 238 238 238 238 238 238 238 238 238 238 238 238 238 238 238 238 238 238 238 238 238 238 238 238 238 238
238 238 238 238 238 238 238 238 238 238 238 238 238 238 238 238 238 238 236 223 156 67 15 0 14 70 142 208 234 237 238 238 238 238 238 238 238 238 238 238 238 238 238 238 238 238 238 238 238 238 238 238 238 238 238 238 238 238 238 238 238 238 238 238
238 238 238 238 238 238 238 238 238 238 238 238 238 238 238 238 238 237 224 157 56 9 0 13 82 162 213 235 238 238 238 238 238 238 238 238 238 238 238 238 238 238 238 238 238 238 238 238 238 238 238 238 238 238 238 238 238 238 238 238 238 238 238 238
238 238 238 238 238 238 238 238 238 238 238 238 238 238 238 238 238 236 194 69 4 0 23 97 182 224 235 237 238 238 238 238 238 238 238 238 238 238 238 238 238 238 238 238 238 238 238 238 238 238 238 238 238 238 238 238 238 238 238 238 238 238 238 238
238 238 238 238 238 238 238 238 238 238 238 238 238 238 238 238 237 227 140 11 0 12 88 195 232 237 238 238 238 238 238 238 238 238 238 238 238 238 238 238 238 238 238 238 238 238 238 238 238 238 238 238 238 238 238 238 238 238 238 238 238 238 238 238
238 238 238 238 238 238 238 238 238 238 238 238 238 238 238 238 236 205 90 5 0 44 167 234 238 238 238 238 238 238 238 238 238 238 238 238 238 238 238 238 238 238 238 238 238 238 238 238 238 238 238 238 238 238 238 238 238 238 238 238 238 238 238 238
238 238 238 238 238 238 238 238 238 238 238 238 238 238 238 238 235 182 56 0 5 93 219 238 238 238 238 238 238 238 238 238 238 238 238 238 238 238 238 238 238 238 238 238 238 238 238 238 237 238 238 238 238 238 238 238 238 238 238 238 238 238 238 238
238 238 238 238 238 238 238 238 238 238 238 238 238 238 238 238 237 175 37 0 14 121 225 238 238 238 238 238 238 238 238 238 238 238 238 238 238 238 238 238 238 238 238 238 237 235 229 229 233 238 238 238 238 238 238 238 238 238 238 238 238 238 238 238
238 238 238 238 238 238 238 238 238 238 238 238 238 238 238 238 236 177 36 0 18 126 223 238 238 238 238 238 238 238 238 238 238 238 238 238 238 238 238 238 238 238 238 238 235 212 167 161 201 236 238 238 238 238 238 238 238 238 238 238 238 238 238 238
238 238 238 238 238 238 238 238 238 238 238 238 238 238 238 238 237 188 59 1 10 120 221 238 238 238 238 238 238 238 238 238 238 238 238 238 238 238 238 238 238 238 238 237 228 154 56 46 137 221 237 238 238 238 238 238 238 238 238 238 238 238 238 238
238 238 238 238 238 238 238 238 238 238 238 238 238 238 238 238 237 203 84 8 2 94 210 237 238 238 238 238 238 238 238 238 238 238 238 238 238 238 238 238 238 238 238 236 203 88 6 11 102 212 237 238 238 238 238 238 238 238 238 238 238 238 238 238
238 238 238 238 238 238 238 238 238 238 238 238 238 238 238 238 237 222 116 19 0 56 182 236 238 238 238 238 238 238 238 238 238 238 238 238 238 238 238 238 238 238 238 227 161 50 2 18 132 223 238 238 238 238 238 238 238 238 238 238 238 238 238 238
238 238 238 238 238 238 238 238 238 238 238 238 238 238 238 238 238 237 164 46 1 23 122 223 237 238 238 238 238 238 238 238 238 238 238 238 238 238 238 238 238 238 231 182 90 23 10 75 191 235 238 238 238 238 238 238 238 238 238 238 238 238 238 238
238 238 238 238 238 238 238 238 238 238 238 238 238 238 238 238 238 237 209 92 6 4 61 170 227 238 238 238 238 238 238 238 238 238 238 238 238 238 238 238 237 233 192 88 21 9 42 147 224 237 238 238 238 238 238 238 238 238 238 238 238 238 238 238
238 238 238 238 238 238 238 238 238 238 238 238 238 238 238 238 238 238 229 152 32 0 17 93 188 231 237 238 238 238 238 238 238 238 238 238 238 238 238 237 233 199 103 17 0 14 105 202 234 238 238 238 238 238 238 238 238 238 238 238 238 238 238 238
238 238 238 238 238 238 238 238 238 238 238 238 238 238 238 238 238 238 236 203 105 17 1 28 117 198 233 237 238 238 238 238 238 238 238 238 238 238 238 228 200 120 27 0 6 63 180 231 237 238 238 238 238 238 238 238 238 238 238 238 238 238 238 238
238 238 238 238 238 238 238 238 238 238 238 238 238 238 238 238 238 238 237 230 178 79 8 3 42 118 196 224 234 238 238 238 238 238 238 238 237 236 226 179 111 35 0 2 37 137 222 237 238 238 238 238 238 238 238 238 238 238 238 238 238 238 238 238
238 238 238 238 238 238 238 238 238 238 238 238 238 238 238 238 238 238 238 237 221 156 59 13 4 30 92 153 188 221 236 236 238 238 238 236 228 203 154 82 29 3 0 30 111 201 236 238 238 238 238 238 238 238 238 238 238 238 238 238 238 238 238 238
238 238 238 238 238 238 238 238 238 238 238 238 238 238 238 238 238 238 238 238 236 215 152 71 18 1 11 44 82 129 183 209 223 231 233 210 168 108 46 12 1 5 38 122 197 232 238 238 238 238 238 238 238 238 238 238 238 238 238 238 238 238 238 238
238 238 238 238 238 238 238 238 238 238 238 238 238 238 238 238 238 238 238 238 238 236 222 167 89 28 4 1 10 29 59 107 138 150 142 111 64 21 0 2 23 69 143 209 234 237 238 238 238 238 238 238 238 238 238 238 238 238 238 238 238 238 238 238
238 238 238 238 238 238 238 238 238 238 238 238 238 238 238 238 238 238 238 238 238 238 237 226 184 120 50 22 3 1 2 17 34 35 23 17 6 0 4 34 97 169 223 236 238 238 238 238 238 238 238 238 238 238 238 238 238 238 238 238 238 238 238 238
238 238 238 238 238 238 238 238 238 238 238 238 238 238 238 238 238 238 238 238 238 238 238 238 231 210 166 112 69 28 7 3 0 1 0 0 3 16 62 126 186 225 238 238 238 238 238 238 238 238 238 238 238 238 238 238 238 238 238 238 238 238 238 238
238 238 238 238 238 238 238 238 238 238 238 238 238 238 238 238 238 238 238 238 238 238 238 238 238 236 230 209 179 140 85 49 34 17 17 40 70 115 175 210 230 237 238 238 238 238 238 238 238 238 238 238 238 238 238 238 238 238 238 238 238 238 238 238
238 238 238 238 238 238 238 238 238 238 238 238 238 238 238 238 238 238 238 238 238 238 238 238 238 238 238 237 231 223 201 162 138 125 126 146 178 214 235 237 238 238 238 238 238 238 238 238 238 238 238 238 238 238 238 238 238 238 238 238 238 238 238 238
238 238 238 238 238 238 238 238 238 238 238 238 238 238 238 238 238 238 238 238 238 238 238 238 238 238 238 238 237 237 236 229 220 221 223 224 230 236 238 238 238 238 238 238 238 238 238 238 238 238 238 238 238 238 238 238 238 238 238 238 238 238 238 238
238 238 238 238 238 238 238 238 238 238 238 238 238 238 238 238 238 238 238 238 238 238 238 238 238 238 238 238 238 238 238 238 237 237 238 238 238 238 238 238 238 238 238 238 238 238 238 238 238 238 238 238 238 238 238 238 238 238 238 238 238 238 238 238
238 238 238 238 238 238 238 238 238 238 238 238 238 238 238 238 238 238 238 238 238 238 238 238 238 238 238 238 238 238 238 238 238 238 238 238 238 238 238 238 238 238 238 238 238 238 238 238 238 238 238 238 238 238 238 238 238 238 238 238 238 238 238 238
238 238 238 238 238 238 238 238 238 238 238 238 238 238 238 238 238 238 238 238 238 238 238 238 238 238 238 238 238 238 238 238 238 238 238 238 238 238 238 238 238 238 238 238 238 238 238 238 238 238 238 238 238 238 238 238 238 238 238 238 238 238 238 238
238 238 238 238 238 238 238 238 238 238 238 238 238 238 238 238 238 238 238 238 238 238 238 238 238 238 238 238 238 238 238 238 238 238 238 238 238 238 238 238 238 238 238 238 238 238 238 238 238 238 238 238 238 238 238 238 238 238 238 238 238 238 238 238
238 238 238 238 238 238 238 238 238 238 238 238 238 238 238 238 238 238 238 238 238 238 238 238 238 238 238 238 238 238 238 238 238 238 238 238 238 238 238 238 238 238 238 238 238 238 238 238 238 238 238 238 238 238 238 238 238 238 238 238 238 238 238 238
238 238 238 238 238 238 238 238 238 238 238 238 238 238 238 238 238 238 238 238 238 238 238 238 238 238 238 238 238 238 238 238 238 238 238 238 238 238 238 238 238 238 238 238 238 238 238 238 238 238 238 238 238 238 238 238 238 238 238 238 238 238 238 238
238 238 238 238 238 238 238 238 238 238 238 238 238 238 238 238 238 238 238 238 238 238 238 238 238 238 238 238 238 238 238 238 238 238 238 238 238 238 238 238 238 238 238 238 238 238 238 238 238 238 238 238 238 238 238 238 238 238 238 238 238 238 238 238
