P2
64 64
255
213 213 213 213 213 213 213 213 213 213 213 213 213 213 213 213 213 213 213 213 213 213 213 213 213 213 213 213 213 213 213 213 213 213 213 213 213 213 213 213 213 213 213 213 213 213 213 213 213 213 213 213 213 213 213 213 213 213 213 213 213 213 213 213
213 213 213 213 213 213 213 213 213 213 213 213 213 213 213 213 213 213 213 213 213 213 213 213 213 213 213 213 213 213 213 213 213 213 213 213 213 213 213 213 213 213 213 213 213 213 213 213 213 213 213 213 213 213 213 213 213 213 213 213 213 213 213 213
213 213 213 213 213 213 213 213 213 213 213 213 213 213 213 213 213 213 213 213 213 213 213 213 213 213 213 213 213 213 213 213 213 213 213 213 213 213 213 213 213 213 213 213 213 213 213 213 213 213 213 213 213 213 213 213 213 213 213 213 213 213 213 213
213 213 213 213 213 213 213 213 213 213 213 213 213 213 213 213 213 213 213 213 213 213 213 213 213 213 213 213 213 213 213 213 213 213 213 213 213 213 213 213 213 213 213 213 213 213 213 213 213 213 213 213 213 213 213 213 213 213 213 213 213 213 213 213
213 213 213 213 213 213 213 213 213 213 213 213 213 213 213 213 213 213 213 213 213 213 213 213 213 213 213 213 213 213 213 213 213 213 213 213 213 213 213 213 213 213 213 213 213 213 213 213 213 213 213 213 213 213 213 213 213 213 213 213 213 213 213 213
213 213 213 213 213 213 213 213 213 213 213 213 213 213 213 213 213 213 213 213 213 213 213 213 213 213 213 213 213 213 213 213 213 213 213 213 213 213 213 213 213 213 213 213 213 213 213 213 213 213 213 213 213 213 213 213 213 213 213 213 213 213 213 213
213 213 213 213 213 213 213 213 213 213 213 213 213 213 213 213 213 213 213 213 213 213 213 213 213 213 213 213 213 213 213 213 213 213 213 213 213 213 213 213 213 213 213 213 213 213 213 213 213 213 213 213 213 213 213 213 213 213 213 213 213 213 213 213
213 213 213 213 213 213 213 213 213 213 213 213 213 213 213 213 213 213 213 213 213 213 213 213 213 212 213 212 213 213 213 213 213 213 213 213 213 213 213 213 213 213 213 213 213 213 213 213 213 213 213 213 213 213 213 213 213 213 213 213 213 213 213 213
213 213 213 213 213 213 213 213 213 213 213 213 213 213 213 213 213 213 213 213 213 213 213 213 212 212 201 205 210 212 213 213 213 213 213 213 213 213 213 213 213 213 213 213 213 213 213 213 213 213 213 213 213 213 213 213 213 213 213 213 213 213 213 213
213 213 213 213 213 213 213 213 213 213 213 213 213 213 213 213 213 213 213 213 213 213 213 213 205 178 142 148 183 212 213 213 213 213 213 213 213 213 213 213 213 213 213 213 213 213 213 213 213 213 213 213 213 213 213 213 213 213 213 213 213 213 213 213
213 213 213 213 213 213 213 213 213 213 213 213 213 213 213 213 213 213 213 213 213 213 213 210 190 110 45 56 127 188 212 213 213 213 213 213 213 213 213 213 213 213 213 213 213 213 213 213 213 213 213 213 213 213 213 213 213 213 213 213 213 213 213 213
213 213 213 213 213 213 213 213 213 213 213 213 213 213 213 213 213 213 213 213 213 213 213 209 177 86 10 12 66 166 206 213 213 213 213 213 213 213 213 213 213 213 213 213 213 213 213 213 213 213 213 213 213 213 213 213 213 213 213 213 213 213 213 213
213 213 213 213 213 213 213 213 213 213 213 213 213 213 213 213 213 213 213 213 213 213 213 210 189 96 18 1 35 124 204 213 213 213 213 213 213 213 213 213 213 213 213 213 213 213 213 213 213 213 213 213 213 213 213 213 213 213 213 213 213 213 213 213
213 213 213 213 213 213 213 213 213 213 213 213 213 213 213 213 213 213 213 213 213 213 213 212 197 134 33 0 8 90 178 212 213 213 213 213 213 213 213 213 213 213 213 213 213 213 213 213 213 213 213 213 213 213 213 213 213 213 213 213 213 213 213 213
213 213 213 213 213 213 213 213 213 213 213 213 213 213 213 213 213 213 213 213 213 213 213 213 211 164 67 5 5 45 152 203 212 213 213 213 213 213 213 213 213 213 213 213 213 213 213 213 213 213 213 213 213 213 213 213 213 213 213 213 213 213 213 213
213 213 213 213 213 213 213 213 213 213 213 213 213 213 213 213 213 213 213 213 213 213 213 213 211 199 105 22 0 25 101 188 213 213 213 213 213 213 213 213 213 213 213 213 213 213 213 213 213 213 213 213 213 213 213 213 213 213 213 213 213 213 213 213
213 213 213 213 213 213 213 213 213 213 213 213 212 213 210 211 213 213 213 213 213 213 213 213 213 202 149 52 0 1 62 157 208 213 213 213 213 213 213 213 213 213 213 213 213 213 213 213 213 213 213 213 213 213 213 213 213 213 213 213 213 213 213 213
213 213 213 213 213 213 213 213 213 213 213 213 208 191 179 193 212 212 213 213 213 213 213 213 213 212 179 96 19 0 20 125 199 212 213 213 213 213 213 213 213 213 213 213 213 213 213 213 213 213 213 213 213 213 213 213 213 213 213 213 213 213 213 213
213 213 213 213 213 213 213 213 213 213 213 209 190 118 91 117 175 211 213 213 213 213 213 213 213 212 207 137 37 2 15 82 176 212 213 213 213 213 213 213 213 213 213 213 213 213 213 213 213 213 213 213 213 213 213 213 213 213 213 213 213 213 213 213
213 213 213 213 213 213 213 213 213 213 213 206 159 64 7 32 123 193 212 213 213 213 213 213 213 213 209 169 72 1 0 47 138 199 213 213 213 213 213 213 213 213 213 213 213 213 213 213 213 213 213 213 213 213 213 213 213 213 213 213 213 213 213 213
213 213 213 213 213 213 213 213 213 213 212 210 154 52 2 12 67 164 209 212 213 213 213 213 213 213 212 191 111 30 0 12 90 183 209 213 213 213 213 213 213 213 213 213 213 213 213 213 213 213 213 213 213 213 213 213 213 213 213 213 213 213 213 213
213 213 213 213 213 213 213 213 213 213 213 209 178 78 9 0 34 115 190 212 213 213 213 213 213 213 212 209 158 57 9 2 43 137 209 212 213 213 213 213 213 213 213 213 213 213 213 213 213 213 213 213 213 213 213 213 213 213 213 213 213 213 213 213
213 213 213 213 213 213 213 213 213 213 213 213 193 126 40 0 1 73 169 209 213 213 213 213 213 213 213 212 189 114 15 0 12 93 178 212 213 213 213 213 213 213 213 213 213 213 213 213 213 213 213 213 213 213 213 213 213 213 213 213 213 213 213 213
213 213 213 213 213 213 213 213 213 213 213 212 212 171 79 15 2 36 137 208 212 213 213 213 213 213 213 213 210 157 64 3 4 43 148 200 212 213 213 213 213 213 213 213 213 213 213 213 213 213 213 213 213 213 213 213 213 213 213 213 213 213 213 213
213 213 213 213 213 213 213 213 213 213 213 213 212 199 125 20 0 18 96 181 212 213 213 213 213 213 213 213 212 198 105 25 0 23 96 187 212 213 213 213 213 213 213 213 212 212 208 209 213 213 213 213 213 213 213 213 213 213 213 213 213 213 213 213
213 213 213 213 213 213 213 213 213 213 213 213 213 208 157 62 1 1 55 154 205 213 213 213 213 213 213 213 213 202 152 52 4 1 55 144 204 213 213 213 213 213 212 211 198 181 170 184 202 212 213 213 213 213 213 213 213 213 213 213 213 213 213 213
213 213 213 213 213 213 213 213 213 213 213 213 213 213 188 100 24 0 25 111 204 212 213 213 213 213 213 213 213 212 181 102 21 0 7 96 183 211 213 213 213 212 212 171 132 86 77 100 177 209 212 213 213 213 213 213 213 213 213 213 213 213 213 213
213 213 213 213 213 213 213 213 213 213 213 213 213 212 202 148 38 3 5 66 160 212 213 213 213 213 213 213 213 212 212 151 55 6 3 44 142 210 212 211 206 192 148 86 22 15 5 48 138 201 213 213 213 213 213 213 213 213 213 213 213 213 213 213
213 213 213 213 213 213 213 213 213 213 213 213 213 213 212 176 87 6 0 22 120 190 212 213 213 213 213 213 213 213 212 191 109 14 0 16 89 173 197 181 144 107 54 15 1 0 4 55 148 203 212 213 213 213 213 213 213 213 213 213 213 213 213 213
213 213 213 213 213 213 213 213 213 213 213 213 213 213 213 208 133 42 1 11 64 163 206 212 213 213 213 213 213 213 213 208 155 65 2 1 40 112 130 87 51 10 7 0 0 15 38 115 183 209 213 213 213 213 213 213 213 213 213 213 213 213 213 213
213 213 213 213 213 213 213 213 213 213 213 213 213 213 213 209 179 80 13 0 32 107 188 213 213 213 213 213 213 213 213 213 193 109 30 0 11 33 38 20 1 0 4 9 51 83 136 179 212 212 213 213 213 213 213 213 213 213 213 213 213 213 213 213
213 213 213 213 213 213 213 213 213 213 213 213 213 213 213 212 193 132 44 0 2 67 161 208 213 213 213 213 213 213 213 213 204 160 54 6 0 2 0 0 7 26 51 99 144 185 199 211 212 213 213 213 213 213 213 213 213 213 213 213 213 213 213 213
213 213 213 213 213 213 213 213 213 213 213 213 213 213 213 212 212 173 88 17 1 31 132 203 212 213 213 213 213 213 212 212 193 134 55 3 0 0 0 15 51 112 154 188 204 212 213 213 213 213 213 213 213 213 213 213 213 213 213 213 213 213 213 213
213 213 213 213 213 213 213 213 213 213 213 213 213 213 213 213 212 202 131 30 1 18 89 173 212 212 213 213 213 212 211 170 122 57 15 0 0 0 1 36 132 183 211 211 213 213 213 213 213 213 213 213 213 213 213 213 213 213 213 213 213 213 213 213
213 213 213 213 213 213 213 213 213 213 213 213 213 213 213 213 213 208 160 66 2 0 45 132 194 212 213 212 211 192 139 82 21 10 0 0 3 0 0 35 126 207 212 213 213 213 213 213 213 213 213 213 213 213 213 213 213 213 213 213 213 213 213 213
213 213 213 213 213 213 213 213 213 213 213 213 213 213 213 213 213 213 188 107 31 0 14 83 181 209 212 211 168 110 44 7 1 1 10 49 51 10 0 5 76 165 211 213 213 213 213 213 213 213 213 213 213 213 213 213 213 213 213 213 213 213 213 213
213 213 213 213 213 213 213 213 213 213 213 213 213 213 213 213 213 212 205 163 63 10 2 51 146 208 199 150 84 13 3 0 4 37 89 143 143 68 6 0 13 110 191 212 213 213 213 213 213 213 213 213 213 213 213 213 213 213 213 213 213 213 213 213
213 213 213 213 213 213 213 213 213 213 213 213 213 213 213 213 213 213 212 188 112 18 0 21 112 161 135 62 14 1 2 10 72 127 178 200 211 133 39 2 5 48 148 212 212 213 213 213 213 213 213 213 213 213 213 213 213 213 213 213 213 213 213 213
213 213 213 213 213 213 213 213 213 213 213 213 213 213 213 213 213 213 213 207 143 50 2 9 52 95 44 13 0 3 39 106 163 206 209 213 212 187 99 9 0 18 90 168 212 213 213 213 213 213 213 213 213 213 213 213 213 213 213 213 213 213 213 213
213 213 213 213 213 213 213 213 213 213 213 213 213 213 213 213 213 213 213 209 183 84 17 0 15 24 8 0 3 59 123 187 211 212 213 213 213 207 148 59 2 1 26 113 184 212 213 213 213 213 213 213 213 213 213 213 213 213 213 213 213 213 213 213
213 213 213 213 213 213 213 213 213 213 213 213 213 213 213 213 213 213 213 212 195 138 50 2 0 0 0 16 68 139 199 209 213 213 213 213 213 212 189 110 35 1 7 44 137 204 212 213 213 213 213 213 213 213 213 213 213 213 213 213 213 213 213 213
213 213 213 213 213 213 213 213 213 213 213 213 213 213 213 213 213 213 213 213 212 180 108 37 2 0 15 61 146 195 211 213 213 213 213 213 213 212 205 173 90 17 0 13 71 156 212 213 213 213 213 213 213 213 213 213 213 213 213 213 213 213 213 213
213 213 213 213 213 213 213 213 213 213 213 213 213 213 213 213 213 213 213 213 212 209 170 99 51 44 82 148 192 212 213 213 213 213 213 213 213 213 213 201 154 71 3 0 20 98 175 212 213 213 213 213 213 213 213 213 213 213 213 213 213 213 213 213
213 213 213 213 213 213 213 213 213 213 213 213 213 213 213 213 213 213 213 213 213 212 201 176 149 147 173 205 212 213 213 213 213 213 213 213 213 213 213 213 197 129 49 2 4 30 125 194 212 213 213 213 213 213 213 213 213 213 213 213 213 213 213 213
213 213 213 213 213 213 213 213 213 213 213 213 213 213 213 213 213 213 213 213 213 213 212 207 204 203 212 212 213 213 213 213 213 213 213 213 213 213 213 213 209 191 105 28 1 10 58 149 212 212 213 213 213 213 213 213 213 213 213 213 213 213 213 213
213 213 213 213 213 213 213 213 213 213 213 213 213 213 213 213 213 213 213 213 213 213 213 213 212 213 213 213 213 213 213 213 213 213 213 213 213 213 213 213 213 204 166 81 6 0 20 100 182 212 213 213 213 213 213 213 213 213 213 213 213 213 213 213
213 213 213 213 213 213 213 213 213 213 213 213 213 213 213 213 213 213 213 213 213 213 213 213 213 213 213 213 213 213 213 213 213 213 213 213 213 213 213 213 213 213 199 142 62 8 5 80 175 209 213 213 213 213 213 213 213 213 213 213 213 213 213 213
213 213 213 213 213 213 213 213 213 213 213 213 213 213 213 213 213 213 213 213 213 213 213 213 213 213 213 213 213 213 213 213 213 213 213 213 213 213 213 213 213 213 212 194 131 70 62 114 190 210 213 213 213 213 213 213 213 213 213 213 213 213 213 213
213 213 213 213 213 213 213 213 213 213 213 213 213 213 213 213 213 213 213 213 213 213 213 213 213 213 213 213 213 213 213 213 213 213 213 213 213 213 213 213 213 213 213 208 193 168 155 182 207 213 213 213 213 213 213 213 213 213 213 213 213 213 213 213
213 213 213 213 213 213 213 213 213 213 213 213 213 213 213 213 213 213 213 213 213 213 213 213 213 213 213 213 213 213 213 213 213 213 213 213 213 213 213 213 213 213 213 213 210 207 205 212 212 213 213 213 213 213 213 213 213 213 213 213 213 213 213 213
213 213 213 213 213 213 213 213 213 213 213 213 213 213 213 213 213 213 213 213 213 213 213 213 213 213 213 213 213 213 213 213 213 213 213 213 213 213 213 213 213 213 213 213 213 212 213 213 213 213 213 213 213 213 213 213 213 213 213 213 213 213 213 213
213 213 213 213 213 213 213 213 213 213 213 213 213 213 213 213 213 213 213 213 213 213 213 213 213 213 213 213 213 213 213 213 213 213 213 213 213 213 213 213 213 213 213 213 213 213 213 213 213 213 213 213 213 213 213 213 213 213 213 213 213 213 213 213
213 213 213 213 213 213 213 213 213 213 213 213 213 213 213 213 213 213 213 213 213 213 213 213 213 213 213 213 213 213 213 213 213 213 213 213 213 213 213 213 213 213 213 213 213 213 213 213 213 213 213 213 213 213 213 213 213 213 213 213 213 213 213 213
213 213 213 213 213 213 213 213 213 213 213 213 213 213 213 213 213 213 213 213 213 213 213 213 213 213 213 213 213 213 213 213 213 213 213 213 213 213 213 213 213 213 213 213 213 213 213 213 213 213 213 213 213 213 213 213 213 213 213 213 213 213 213 213
213 213 213 213 213 213 213 213 213 213 213 213 213 213 213 213 213 213 213 213 213 213 213 213 213 213 213 213 213 213 213 213 213 213 213 213 213 213 213 213 213 213 213 213 213 213 213 213 213 213 213 213 213 213 213 213 213 213 213 213 213 213 213 213
213 213 213 213 213 213 213 213 213 213 213 213 213 213 213 213 213 213 213 213 213 213 213 213 213 213 213 213 213 213 213 213 213 213 213 213 213 213 213 213 213 213 213 213 213 213 213 213 213 213 213 213 213 213 213 213 213 213 213 213 213 213 213 213
213 213 213 213 213 213 213 213 213 213 213 213 213 213 213 213 213 213 213 213 213 213 213 213 213 213 213 213 213 213 213 213 213 213 213 213 213 213 213 213 213 213 213 213 213 213 213 213 213 213 213 213 213 213 213 213 213 213 213 213 213 213 213 213
213 213 213 213 213 213 213 213 213 213 213 213 213 213 213 213 213 213 213 213 213 213 213 213 213 213 213 213 213 213 213 213 213 213 213 213 213 213 213 213 213 213 213 213 213 213 213 213 213 213 213 213 213 213 213 213 213 213 213 213 213 213 213 213
213 213 213 213 213 213 213 213 213 213 213 213 213 213 213 213 213 213 213 213 213 213 213 213 213 213 213 213 213 213 213 213 213 213 213 213 213 213 213 213 213 213 213 213 213 213 213 213 213 213 213 213 213 213 213 213 213 213 213 213 213 213 213 213
213 213 213 213 213 213 213 213 213 213 213 213 213 213 213 213 213 213 213 213 213 213 213 213 213 213 213 213 213 213 213 213 213 213 213 213 213 213 213 213 213 213 213 213 213 213 213 213 213 213 213 213 213 213 213 213 213 213 213 213 213 213 213 213
213 213 213 213 213 213 213 213 213 213 213 213 213 213 213 213 213 213 213 213 213 213 213 213 213 213 213 213 213 213 213 213 213 213 213 213 213 213 213 213 213 213 213 213 213 213 213 213 213 213 213 213 213 213 213 213 213 213 213 213 213 213 213 213
213 213 213 213 213 213 213 213 213 213 213 213 213 213 213 213 213 213 213 213 213 213 213 213 213 213 213 213 213 213 213 213 213 213 213 213 213 213 213 213 213 213 213 213 213 213 213 213 213 213 213 213 213 213 213 213 213 213 213 213 213 213 213 213
213 213 213 213 213 213 213 213 213 213 213 213 213 213 213 213 213 213 213 213 213 213 213 213 213 213 213 213 213 213 213 213 213 213 213 213 213 213 213 213 213 213 213 213 213 213 213 213 213 213 213 213 213 213 213 213 213 213 213 213 213 213 213 213
213 213 213 213 213 213 213 213 213 213 213 213 213 213 213 213 213 213 213 213 213 213 213 213 213 213 213 213 213 213 213 213 213 213 213 213 213 213 213 213 213 213 213 213 213 213 213 213 213 213 213 213 213 213 213 213 213 213 213 213 213 213 213 213
