P2
64 64
255
147 147 147 147 147 147 147 147 147 147 147 147 147 147 147 147 147 147 147 147 147 147 147 147 147 147 147 147 147 147 147 147 147 147 147 147 147 147 147 147 147 147 147 147 147 147 147 147 147 147 147 147 147 147 147 147 147 147 147 147 147 147 147 147
147 147 147 147 147 147 147 147 147 147 147 147 147 147 147 147 147 147 147 147 147 147 147 147 147 147 147 147 147 147 147 147 147 147 147 147 147 147 147 147 147 147 147 147 147 147 147 147 147 147 147 147 147 147 147 147 147 147 147 147 147 147 147 147
147 147 147 147 147 147 147 147 147 147 147 147 147 147 147 147 147 147 147 147 147 147 147 147 147 147 147 147 147 147 147 147 147 147 147 147 147 147 147 147 147 147 147 147 147 147 147 147 147 147 147 147 147 147 147 147 147 147 147 147 147 147 147 147
147 147 147 147 147 147 147 147 147 147 147 147 147 147 147 147 147 147 147 147 147 147 147 147 147 147 147 147 147 147 147 147 147 147 147 147 147 147 147 147 147 147 147 147 147 147 147 147 147 147 147 147 147 147 147 147 147 147 147 147 147 147 147 147
147 147 147 147 147 147 147 147 147 147 147 147 147 147 147 147 147 147 147 147 147 147 147 147 147 147 147 147 147 147 147 147 147 147 147 147 147 147 147 147 147 147 147 147 147 147 147 147 147 147 147 147 147 147 147 147 147 147 147 147 147 147 147 147
147 147 147 147 147 147 147 147 147 147 147 147 147 147 147 147 147 147 147 147 147 147 147 147 147 147 147 147 147 147 147 147 147 147 147 147 147 147 147 147 147 147 147 147 147 147 147 147 147 147 147 147 147 147 147 147 147 147 147 147 147 147 147 147
147 147 147 147 147 147 147 147 147 147 147 147 147 147 147 147 147 147 147 147 147 147 147 147 147 147 147 147 147 147 147 147 147 147 147 147 147 147 147 147 147 147 147 147 147 147 147 147 147 147 147 147 147 147 147 147 147 147 147 147 147 147 147 147
147 147 147 147 147 147 147 147 147 147 147 147 147 147 147 147 147 147 147 147 147 147 147 147 147 147 147 147 147 147 147 147 147 147 147 147 147 147 147 147 147 147 147 147 147 147 147 147 147 147 147 147 147 147 147 147 147 147 147 147 147 147 147 147
147 147 147 147 147 147 147 147 147 147 147 147 147 147 147 147 147 147 147 147 147 147 147 147 147 147 147 147 147 147 147 147 147 147 147 147 147 147 147 147 147 147 147 147 147 147 147 147 147 147 147 147 147 147 147 147 147 147 147 147 147 147 147 147
147 147 147 147 147 147 147 147 147 147 147 147 147 147 147 147 147 147 147 147 147 147 147 147 147 147 146 146 144 146 146 146 146 147 147 147 147 147 147 147 147 147 147 147 147 147 147 147 147 147 147 147 147 147 147 147 147 147 147 147 147 147 147 147
147 147 147 147 147 147 147 147 147 147 147 147 147 147 147 147 147 147 147 147 147 147 143 142 138 133 131 124 123 125 129 129 130 132 138 143 146 147 147 147 147 147 147 147 147 147 147 147 147 147 147 147 147 147 147 147 147 147 147 147 147 147 147 147
147 147 147 147 147 147 147 147 147 147 147 147 147 147 147 147 147 147 147 146 140 121 113 95 85 73 69 62 59 62 67 67 69 74 92 115 138 147 147 147 147 147 147 147 147 147 147 147 147 147 147 147 147 147 147 147 147 147 147 147 147 147 147 147
147 147 147 147 147 147 147 147 147 147 147 147 147 147 147 147 147 147 146 115 85 56 36 29 8 15 4 11 2 11 5 13 5 16 26 64 112 143 147 147 147 147 147 147 147 147 147 147 147 147 147 147 147 147 147 147 147 147 147 147 147 147 147 147
147 147 147 147 147 147 147 147 147 147 147 147 147 147 147 147 147 140 112 59 14 8 2 1 0 1 0 3 1 5 1 3 1 4 6 32 85 135 147 147 147 147 147 147 147 147 147 147 147 147 147 147 147 147 147 147 147 147 147 147 147 147 147 147
147 147 147 147 147 147 147 147 147 147 147 147 147 147 147 147 146 119 58 13 1 1 1 11 13 23 29 33 37 38 33 32 32 31 28 42 97 138 147 147 147 147 147 147 147 147 147 147 147 147 147 147 147 147 147 147 147 147 147 147 147 147 147 147
147 147 147 147 147 147 147 147 147 147 147 147 147 147 147 147 135 82 22 0 1 19 46 62 80 90 100 101 106 105 104 101 103 99 95 100 124 143 147 147 147 147 147 147 147 147 147 147 147 147 147 147 147 147 147 147 147 147 147 147 147 147 147 147
147 147 147 147 147 147 147 147 147 147 147 147 147 147 147 144 113 43 5 4 33 80 114 129 133 143 141 144 142 144 142 144 142 144 138 139 141 147 147 147 147 147 147 147 147 147 147 147 147 147 147 147 147 147 147 147 147 147 147 147 147 147 147 147
147 147 147 147 147 147 147 147 147 147 147 147 147 147 147 142 86 15 1 17 80 135 144 147 147 147 147 147 147 147 147 147 147 147 147 147 147 147 147 147 147 147 147 147 147 147 147 147 147 147 147 147 147 147 147 147 147 147 147 147 147 147 147 147
147 147 147 147 147 147 147 147 147 147 147 147 147 147 146 129 61 5 9 52 117 146 147 147 147 147 147 147 147 147 147 147 147 147 147 147 147 147 147 147 147 147 147 147 147 147 147 147 147 147 147 147 147 147 147 147 147 147 147 147 147 147 147 147
147 147 147 147 147 147 147 147 147 147 147 147 147 147 144 113 36 3 21 89 138 147 147 147 147 147 147 147 147 147 147 147 147 147 147 147 147 147 147 147 147 147 147 147 147 147 147 147 147 147 147 147 147 147 147 147 147 147 147 147 147 147 147 147
147 147 147 147 147 147 147 147 147 147 147 147 147 147 140 93 24 3 34 107 144 147 147 147 147 147 147 147 147 147 147 147 147 147 147 147 147 147 147 147 147 147 147 147 147 147 147 147 147 147 147 147 147 147 147 147 147 147 147 147 147 147 147 147
147 147 147 147 147 147 147 147 147 147 147 147 147 147 139 76 11 3 46 123 146 147 147 147 147 147 147 147 147 147 147 147 147 147 147 147 147 147 147 147 147 147 147 147 147 147 147 147 147 147 147 147 147 147 147 147 147 147 147 147 147 147 147 147
147 147 147 147 147 147 147 147 147 147 147 147 147 146 129 62 8 10 64 128 147 147 147 147 147 147 147 147 147 147 147 147 147 147 147 147 147 147 147 147 147 147 147 147 147 147 147 147 147 147 147 147 147 147 147 147 147 147 147 147 147 147 147 147
147 147 147 147 147 147 147 147 147 147 147 147 147 146 128 49 1 7 71 138 147 147 147 147 147 147 147 147 147 147 147 147 147 147 147 147 147 147 147 147 147 147 147 147 147 147 147 147 147 147 147 147 147 147 147 147 147 147 147 147 147 147 147 147
147 147 147 147 147 147 147 147 147 147 147 147 147 146 118 44 2 14 81 136 147 147 147 147 147 147 147 147 147 147 147 147 147 147 147 147 147 147 147 147 147 147 147 147 147 147 147 147 147 147 147 147 147 147 147 147 147 147 147 147 147 147 147 147
147 147 147 147 147 147 147 147 147 147 147 147 147 144 114 35 1 17 91 143 147 147 147 147 147 147 147 147 147 147 147 147 147 147 147 147 147 147 147 147 147 147 147 147 147 147 147 147 147 147 147 147 147 147 147 147 147 147 147 147 147 147 147 147
147 147 147 147 147 147 147 147 147 147 147 147 147 143 100 28 2 28 102 142 147 147 147 147 147 147 147 147 147 147 147 147 147 147 147 147 147 147 147 147 147 147 147 147 147 147 147 147 147 147 147 147 147 147 147 147 147 147 147 147 147 147 147 147
147 147 147 147 147 147 147 147 147 147 147 147 147 140 90 19 3 35 113 146 147 147 147 147 147 147 147 147 147 147 147 147 147 147 147 147 147 147 147 147 147 147 147 147 147 147 147 147 147 147 147 147 147 147 147 147 147 147 147 147 147 147 147 147
147 147 147 147 147 147 147 147 147 147 147 147 147 139 76 10 2 45 121 146 147 147 147 147 147 147 147 147 147 147 147 147 147 147 147 147 147 147 147 147 147 147 147 147 147 147 147 147 147 147 147 147 147 147 147 147 147 147 147 147 147 147 147 147
147 147 147 147 147 147 147 147 147 147 147 147 147 134 70 5 5 52 125 147 147 147 147 147 147 147 147 147 147 147 147 147 147 147 147 147 147 147 146 147 146 147 147 147 147 147 147 147 147 147 147 147 147 147 147 147 147 147 147 147 147 147 147 147
147 147 147 147 147 147 147 147 147 147 147 147 147 136 62 5 3 56 129 146 147 147 147 147 147 147 147 147 147 147 147 147 147 147 147 146 134 134 121 118 119 135 144 147 147 147 147 147 147 147 147 147 147 147 147 147 147 147 147 147 147 147 147 147
147 147 147 147 147 147 147 147 147 147 147 147 147 128 60 5 7 62 130 147 147 147 147 147 147 147 147 147 147 147 147 147 147 146 130 105 81 61 53 38 47 81 128 146 147 147 147 147 147 147 147 147 147 147 147 147 147 147 147 147 147 147 147 147
147 147 147 147 147 147 147 147 147 147 147 147 147 128 48 2 6 73 138 147 147 147 147 147 147 147 147 147 147 147 147 146 133 102 73 37 15 10 1 3 1 23 70 116 140 147 147 147 147 147 147 147 147 147 147 147 147 147 147 147 147 147 147 147
147 147 147 147 147 147 147 147 147 147 147 147 146 115 44 4 14 77 136 147 147 147 147 147 147 147 147 147 147 147 141 110 74 35 7 4 0 0 0 0 0 2 16 60 115 146 147 147 147 147 147 147 147 147 147 147 147 147 147 147 147 147 147 147
147 147 147 147 147 147 147 147 147 147 147 147 146 118 37 1 5 73 142 147 147 147 147 147 147 147 147 147 147 133 104 50 6 2 0 1 1 11 10 19 7 3 0 16 69 129 147 147 147 147 147 147 147 147 147 147 147 147 147 147 147 147 147 147
147 147 147 147 147 147 147 147 147 147 147 147 146 118 46 4 8 66 130 147 147 147 147 147 147 147 147 147 141 99 42 11 0 1 4 32 49 66 85 86 67 27 1 2 29 104 147 147 147 147 147 147 147 147 147 147 147 147 147 147 147 147 147 147
147 147 147 147 147 147 147 147 147 147 147 147 146 128 54 1 4 56 132 147 147 147 147 147 147 147 147 145 119 51 8 0 2 28 68 99 124 129 139 143 129 74 14 0 12 83 138 147 147 147 147 147 147 147 147 147 147 147 147 147 147 147 147 147
147 147 147 147 147 147 147 147 147 147 147 147 147 129 59 8 2 53 124 146 147 147 147 147 147 147 147 138 83 17 0 5 38 88 128 144 145 147 147 147 143 110 40 1 9 61 127 147 147 147 147 147 147 147 147 147 147 147 147 147 147 147 147 147
147 147 147 147 147 147 147 147 147 147 147 147 147 132 67 4 4 41 117 147 147 147 147 147 147 147 146 129 53 0 0 16 85 138 146 147 147 147 147 147 147 129 54 4 1 48 122 146 147 147 147 147 147 147 147 147 147 147 147 147 147 147 147 147
147 147 147 147 147 147 147 147 147 147 147 147 147 137 74 12 0 33 105 143 147 147 147 147 147 147 143 109 34 1 8 51 117 146 147 147 147 147 147 147 147 131 69 11 3 41 114 146 147 147 147 147 147 147 147 147 147 147 147 147 147 147 147 147
147 147 147 147 147 147 147 147 147 147 147 147 147 138 91 22 0 19 88 143 147 147 147 147 147 147 135 82 18 1 30 99 139 147 147 147 147 147 147 147 147 140 73 4 0 34 118 146 147 147 147 147 147 147 147 147 147 147 147 147 147 147 147 147
147 147 147 147 147 147 147 147 147 147 147 147 147 146 105 28 1 8 70 133 147 147 147 147 147 146 122 56 9 8 62 129 146 147 147 147 147 147 147 147 147 134 73 12 2 41 115 146 147 147 147 147 147 147 147 147 147 147 147 147 147 147 147 147
147 147 147 147 147 147 147 147 147 147 147 147 147 145 117 49 2 5 42 111 147 147 147 147 147 144 111 35 2 19 84 140 147 147 147 147 147 147 147 147 147 136 70 8 5 52 128 147 147 147 147 147 147 147 147 147 147 147 147 147 147 147 147 147
147 147 147 147 147 147 147 147 147 147 147 147 147 147 136 72 8 0 15 84 140 147 147 147 147 144 97 22 1 22 96 142 147 147 147 147 147 147 147 147 146 125 57 10 17 78 135 147 147 147 147 147 147 147 147 147 147 147 147 147 147 147 147 147
147 147 147 147 147 147 147 147 147 147 147 147 147 147 140 100 35 1 7 49 115 146 147 147 147 140 89 15 0 16 87 143 147 147 147 147 147 147 147 147 142 100 35 8 34 101 145 147 147 147 147 147 147 147 147 147 147 147 147 147 147 147 147 147
147 147 147 147 147 147 147 147 147 147 147 147 147 147 147 132 63 2 0 16 87 139 147 147 147 146 89 12 0 12 90 142 147 147 147 147 147 147 147 146 128 65 11 11 54 120 146 147 147 147 147 147 147 147 147 147 147 147 147 147 147 147 147 147
147 147 147 147 147 147 147 147 147 147 147 147 147 147 147 139 95 31 1 6 44 97 135 146 147 143 99 24 0 23 95 142 147 147 147 147 147 147 147 142 106 35 2 16 78 135 147 147 147 147 147 147 147 147 147 147 147 147 147 147 147 147 147 147
147 147 147 147 147 147 147 147 147 147 147 147 147 147 147 146 127 63 5 0 5 41 100 140 147 143 98 20 1 27 109 144 147 147 147 147 147 147 147 125 67 15 1 30 104 143 147 147 147 147 147 147 147 147 147 147 147 147 147 147 147 147 147 147
147 147 147 147 147 147 147 147 147 147 147 147 147 147 147 147 140 101 44 11 1 9 44 94 129 133 84 17 2 31 104 145 147 147 147 144 144 135 117 76 23 1 6 53 122 146 147 147 147 147 147 147 147 147 147 147 147 147 147 147 147 147 147 147
147 147 147 147 147 147 147 147 147 147 147 147 147 147 147 147 146 135 100 45 5 0 5 34 80 109 79 9 0 15 94 140 139 137 127 118 99 86 57 21 3 1 23 86 136 147 147 147 147 147 147 147 147 147 147 147 147 147 147 147 147 147 147 147
147 147 147 147 147 147 147 147 147 147 147 147 147 147 147 147 147 146 136 99 46 12 1 4 25 44 44 15 1 15 59 90 85 82 67 48 32 15 12 0 1 11 65 122 143 147 147 147 147 147 147 147 147 147 147 147 147 147 147 147 147 147 147 147
147 147 147 147 147 147 147 147 147 147 147 147 147 147 147 147 147 147 146 138 106 55 17 2 6 5 13 9 2 6 19 18 22 13 15 1 1 0 0 0 24 64 114 146 147 147 147 147 147 147 147 147 147 147 147 147 147 147 147 147 147 147 147 147
147 147 147 147 147 147 147 147 147 147 147 147 147 147 147 147 147 147 147 147 140 113 73 44 28 12 9 4 1 0 1 1 1 1 1 0 9 8 24 41 75 122 143 147 147 147 147 147 147 147 147 147 147 147 147 147 147 147 147 147 147 147 147 147
147 147 147 147 147 147 147 147 147 147 147 147 147 147 147 147 147 147 147 147 147 142 128 111 88 65 47 32 17 6 11 11 17 19 23 35 52 73 86 107 125 142 147 147 147 147 147 147 147 147 147 147 147 147 147 147 147 147 147 147 147 147 147 147
147 147 147 147 147 147 147 147 147 147 147 147 147 147 147 147 147 147 147 147 147 147 146 143 136 124 114 100 78 67 63 73 80 86 88 102 118 131 140 141 147 147 147 147 147 147 147 147 147 147 147 147 147 147 147 147 147 147 147 147 147 147 147 147
147 147 147 147 147 147 147 147 147 147 147 147 147 147 147 147 147 147 147 147 147 147 147 147 147 145 145 140 137 128 131 130 139 135 140 140 147 147 147 147 147 147 147 147 147 147 147 147 147 147 147 147 147 147 147 147 147 147 147 147 147 147 147 147
147 147 147 147 147 147 147 147 147 147 147 147 147 147 147 147 147 147 147 147 147 147 147 147 147 147 147 147 147 146 147 147 147 147 147 147 147 147 147 147 147 147 147 147 147 147 147 147 147 147 147 147 147 147 147 147 147 147 147 147 147 147 147 147
147 147 147 147 147 147 147 147 147 147 147 147 147 147 147 147 147 147 147 147 147 147 147 147 147 147 147 147 147 147 147 147 147 147 147 147 147 147 147 147 147 147 147 147 147 147 147 147 147 147 147 147 147 147 147 147 147 147 147 147 147 147 147 147
147 147 147 147 147 147 147 147 147 147 147 147 147 147 147 147 147 147 147 147 147 147 147 147 147 147 147 147 147 147 147 147 147 147 147 147 147 147 147 147 147 147 147 147 147 147 147 147 147 147 147 147 147 147 147 147 147 147 147 147 147 147 147 147
147 147 147 147 147 147 147 147 147 147 147 147 147 147 147 147 147 147 147 147 147 147 147 147 147 147 147 147 147 147 147 147 147 147 147 147 147 147 147 147 147 147 147 147 147 147 147 147 147 147 147 147 147 147 147 147 147 147 147 147 147 147 147 147
147 147 147 147 147 147 147 147 147 147 147 147 147 147 147 147 147 147 147 147 147 147 147 147 147 147 147 147 147 147 147 147 147 147 147 147 147 147 147 147 147 147 147 147 147 147 147 147 147 147 147 147 147 147 147 147 147 147 147 147 147 147 147 147
147 147 147 147 147 147 147 147 147 147 147 147 147 147 147 147 147 147 147 147 147 147 147 147 147 147 147 147 147 147 147 147 147 147 147 147 147 147 147 147 147 147 147 147 147 147 147 147 147 147 147 147 147 147 147 147 147 147 147 147 147 147 147 147
147 147 147 147 147 147 147 147 147 147 147 147 147 147 147 147 147 147 147 147 147 147 147 147 147 147 147 147 147 147 147 147 147 147 147 147 147 147 147 147 147 147 147 147 147 147 147 147 147 147 147 147 147 147 147 147 147 147 147 147 147 147 147 147
147 147 147 147 147 147 147 147 147 147 147 147 147 147 147 147 147 147 147 147 147 147 147 147 147 147 147 147 147 147 147 147 147 147 147 147 147 147 147 147 147 147 147 147 147 147 147 147 147 147 147 147 147 147 147 147 147 147 147 147 147 147 147 147
