P2
64 64
255
197 197 197 197 197 197 197 197 197 197 197 197 197 197 197 197 197 197 197 197 197 197 197 197 197 197 197 197 197 197 197 197 197 197 197 197 197 197 197 197 197 197 197 197 197 197 197 197 197 197 197 197 197 197 197 197 197 197 197 197 197 197 197 197
197 197 197 197 197 197 197 197 197 197 197 197 197 197 197 197 197 197 197 197 197 197 197 197 197 197 197 197 197 197 197 197 197 197 197 197 197 197 197 197 197 197 197 197 197 197 197 197 197 197 197 197 197 197 197 197 197 197 197 197 197 197 197 197
197 197 197 197 197 197 197 197 197 197 197 197 197 197 197 197 197 197 197 197 197 197 197 197 197 197 197 197 197 197 197 197 197 197 197 197 197 197 197 197 197 197 197 197 197 197 197 197 197 197 197 197 197 197 197 197 197 197 197 197 197 197 197 197
197 197 197 197 197 197 197 197 197 197 197 197 197 197 197 197 197 197 197 197 197 197 197 197 197 197 197 197 197 197 197 197 197 197 197 197 197 197 197 197 197 197 197 197 197 197 197 197 197 197 197 197 197 197 197 197 197 197 197 197 197 197 197 197
197 197 197 197 197 197 197 197 197 197 197 197 197 197 197 197 197 197 197 197 197 197 197 196 196 195 197 196 196 196 197 197 197 197 197 197 197 197 197 197 197 197 197 197 197 197 197 197 197 197 197 197 197 197 197 197 197 197 197 197 197 197 197 197
197 197 197 197 197 197 197 197 197 197 197 197 197 197 197 197 197 197 197 197 197 197 197 195 192 188 180 178 186 196 196 196 197 197 197 197 197 197 197 197 197 197 197 197 197 197 197 197 197 197 197 197 197 197 197 197 197 197 197 197 197 197 197 197
197 197 197 197 197 197 197 197 197 197 197 197 197 197 197 197 197 197 197 197 197 197 197 192 178 154 129 123 137 150 171 192 196 196 196 197 197 197 197 197 197 197 197 197 197 197 197 197 197 197 197 197 197 197 197 197 197 197 197 197 197 197 197 197
197 197 197 197 197 197 197 197 197 197 197 197 197 197 197 197 197 197 197 197 197 197 195 190 154 102 65 44 52 78 108 134 157 178 196 196 196 196 197 197 197 197 197 197 197 197 197 197 197 197 197 197 197 197 197 197 197 197 197 197 197 197 197 197
197 197 197 197 197 197 197 197 197 197 197 197 197 197 197 197 197 197 197 197 197 197 195 183 148 75 24 6 11 17 25 56 88 119 143 165 187 196 196 196 197 197 197 197 197 197 197 197 197 197 197 197 197 197 197 197 197 197 197 197 197 197 197 197
197 197 197 197 197 197 197 197 197 197 197 197 197 197 197 197 197 197 197 197 197 196 195 187 154 92 27 8 2 0 4 11 18 37 68 100 131 155 178 195 196 196 196 197 197 197 197 197 197 197 197 197 197 197 197 197 197 197 197 197 197 197 197 197
197 197 197 197 197 197 197 197 197 197 197 197 197 197 197 197 197 197 197 197 197 197 196 192 174 139 92 51 21 3 1 0 0 7 14 22 52 89 130 157 173 187 196 196 196 197 197 197 197 197 197 197 197 197 197 197 197 197 197 197 197 197 197 197
197 197 197 197 197 197 197 197 197 197 197 197 197 197 197 197 197 197 197 197 197 197 196 195 191 181 151 118 87 61 36 10 2 1 0 3 12 26 50 87 119 150 164 178 192 196 196 197 197 197 197 197 197 197 197 197 197 197 197 197 197 197 197 197
197 197 197 197 197 197 197 197 197 197 197 197 197 197 197 197 197 197 197 197 197 197 197 197 197 193 187 180 161 133 104 76 51 26 3 2 0 0 12 29 45 70 101 133 159 176 190 197 197 197 197 197 197 197 197 197 197 197 197 197 197 197 197 197
197 197 197 197 197 197 197 197 197 197 197 197 197 197 197 197 197 197 197 197 197 197 197 197 197 197 197 195 189 184 178 150 121 92 65 38 13 0 0 1 4 20 36 52 89 129 171 190 195 196 197 197 197 197 197 197 197 197 197 197 197 197 197 197
197 197 197 197 197 197 197 197 197 197 197 197 197 197 197 197 197 197 197 197 197 197 197 197 197 197 197 197 197 197 193 187 181 167 137 101 63 38 19 3 1 1 1 11 31 61 100 139 172 195 196 196 196 197 197 197 197 197 197 197 197 197 197 197
197 197 197 197 197 197 197 197 197 197 197 197 197 197 197 197 197 197 197 197 197 197 197 197 197 197 197 197 197 197 197 197 197 191 183 170 137 101 68 44 28 13 1 0 1 3 33 67 103 133 161 185 195 196 197 197 197 197 197 197 197 197 197 197
197 197 197 197 197 197 197 197 197 197 197 197 197 197 197 197 197 197 197 197 197 197 197 197 197 197 197 197 197 197 197 197 197 197 197 193 180 164 148 116 86 54 36 17 3 0 2 6 21 56 92 128 159 186 196 197 197 197 197 197 197 197 197 197
197 197 197 197 197 197 197 197 197 197 197 197 197 197 197 197 197 197 197 197 197 197 197 197 197 197 197 197 197 197 197 197 197 197 197 196 196 196 185 172 158 135 100 61 23 8 2 0 2 7 11 47 103 164 191 196 197 197 197 197 197 197 197 197
197 197 197 197 197 197 197 197 197 197 197 197 197 197 197 197 197 197 197 197 197 197 197 197 197 197 197 197 197 197 197 197 197 197 197 197 197 196 196 196 194 180 163 138 95 53 17 3 0 0 1 10 51 125 181 196 196 197 197 197 197 197 197 197
197 197 197 197 197 197 197 197 197 197 197 197 197 197 197 197 197 197 197 197 197 197 197 197 197 197 197 197 197 197 197 197 197 197 197 197 197 197 197 197 196 196 196 186 160 125 84 30 3 0 0 1 17 110 173 195 197 197 197 197 197 197 197 197
197 197 197 197 197 197 197 197 197 197 197 197 197 197 197 197 197 197 197 197 197 197 197 197 197 197 197 197 197 197 197 197 197 197 197 197 197 197 197 197 197 197 196 196 195 172 106 41 1 0 0 6 37 124 181 195 197 197 197 197 197 197 197 197
197 197 197 197 197 197 197 197 197 197 197 197 197 197 197 197 197 197 197 197 197 197 197 196 196 196 197 196 196 197 197 197 197 197 197 197 197 197 197 197 197 197 197 196 188 154 80 27 1 2 6 33 92 150 190 196 197 197 197 197 197 197 197 197
197 197 197 197 197 197 197 197 197 197 197 197 197 197 197 197 197 197 197 197 196 195 195 189 187 186 183 187 196 195 195 196 196 196 196 197 197 197 197 197 197 197 197 196 170 116 44 6 0 16 50 102 154 180 194 197 197 197 197 197 197 197 197 197
197 197 197 197 197 197 197 197 197 197 197 197 197 197 197 197 197 196 196 195 188 178 163 153 142 130 133 144 150 163 177 178 179 188 196 196 196 197 197 197 197 197 196 195 146 75 23 0 1 41 105 154 188 195 196 197 197 197 197 197 197 197 197 197
197 197 197 197 197 197 197 197 197 197 197 197 197 197 197 197 196 195 186 172 150 112 91 71 57 52 51 56 74 91 99 110 130 153 166 179 193 196 196 196 197 197 196 174 116 36 8 0 21 72 147 183 196 196 197 197 197 197 197 197 197 197 197 197
197 197 197 197 197 197 197 197 197 197 197 197 197 197 197 195 194 182 149 109 66 35 17 12 11 4 3 11 14 11 27 40 51 74 102 131 150 161 180 196 196 196 196 150 81 18 0 2 47 113 171 196 196 197 197 197 197 197 197 197 197 197 197 197
197 197 197 197 197 197 197 197 197 197 197 197 197 197 197 191 171 137 83 36 16 3 0 1 5 3 1 1 0 0 1 1 6 21 35 47 71 94 122 144 167 188 184 128 47 10 0 15 78 150 185 197 197 197 197 197 197 197 197 197 197 197 197 197
197 197 197 197 197 197 197 197 197 197 197 197 197 196 194 177 126 74 27 3 1 4 16 29 33 36 36 23 6 8 10 1 0 1 0 9 17 22 39 71 106 143 137 91 20 2 2 41 109 178 194 197 197 197 197 197 197 197 197 197 197 197 197 197
197 197 197 197 197 197 197 197 197 197 197 197 197 196 179 140 73 21 5 3 13 35 75 96 113 116 107 92 79 65 49 39 27 11 0 0 0 0 7 17 30 68 77 47 11 0 3 67 139 185 197 197 197 197 197 197 197 197 197 197 197 197 197 197
197 197 197 197 197 197 197 197 197 197 197 197 196 194 154 92 35 1 0 17 57 105 148 175 177 175 177 171 154 144 136 113 84 54 41 27 9 2 1 0 5 17 23 7 2 1 27 94 168 191 197 197 197 197 197 197 197 197 197 197 197 197 197 197
197 197 197 197 197 197 197 197 197 197 197 197 191 168 112 41 12 0 13 47 114 161 188 195 195 196 196 193 193 195 183 171 157 136 111 90 71 49 24 2 0 0 0 0 0 2 52 123 181 197 197 197 197 197 197 197 197 197 197 197 197 197 197 197
197 197 197 197 197 197 197 197 197 197 196 196 176 123 61 8 0 3 40 97 159 191 196 197 197 197 197 197 197 196 196 196 193 181 173 170 147 119 85 51 23 3 0 0 0 11 75 152 188 197 197 197 197 197 197 197 197 197 197 197 197 197 197 197
197 197 197 197 197 197 197 197 197 197 196 182 145 72 24 1 4 18 81 146 182 196 197 197 197 197 197 197 197 197 197 197 196 196 196 192 186 180 160 118 67 16 0 0 0 35 103 178 194 197 197 197 197 197 197 197 197 197 197 197 197 197 197 197
197 197 197 197 197 197 197 197 197 197 195 158 98 34 1 0 20 65 131 186 194 196 197 197 197 197 197 197 197 197 197 197 197 197 196 197 197 197 188 171 133 71 27 8 7 71 137 185 197 197 197 197 197 197 197 197 197 197 197 197 197 197 197 197
197 197 197 197 197 197 197 197 197 195 185 128 54 13 0 7 49 119 167 195 197 197 197 197 197 197 197 197 197 197 197 197 197 197 197 197 197 197 196 195 182 133 79 55 76 125 174 191 197 197 197 197 197 197 197 197 197 197 197 197 197 197 197 197
197 197 197 197 197 197 197 197 197 191 154 88 14 3 2 34 94 165 189 196 197 197 197 197 197 197 197 197 197 197 197 197 197 197 197 197 197 197 197 197 193 180 159 143 148 171 191 196 197 197 197 197 197 197 197 197 197 197 197 197 197 197 197 197
197 197 197 197 197 197 197 197 195 183 119 49 4 0 6 69 137 183 197 196 197 197 197 197 197 197 197 197 197 197 197 197 197 197 197 197 197 197 197 197 197 196 192 185 189 193 195 197 197 197 197 197 197 197 197 197 197 197 197 197 197 197 197 197
197 197 197 197 197 197 197 197 188 156 85 17 1 6 35 109 174 192 197 197 197 197 197 197 197 197 197 197 197 197 197 197 197 197 197 197 197 197 197 197 197 197 196 197 197 196 196 197 197 197 197 197 197 197 197 197 197 197 197 197 197 197 197 197
197 197 197 197 197 197 197 197 182 126 56 3 0 14 75 143 193 196 197 197 197 197 197 197 197 197 197 197 197 197 197 197 197 197 197 197 197 197 197 197 197 197 197 197 197 197 197 197 197 197 197 197 197 197 197 197 197 197 197 197 197 197 197 197
197 197 197 197 197 197 197 193 174 100 30 2 6 30 112 171 195 197 197 197 197 197 197 197 197 197 197 197 197 197 197 197 197 197 197 197 197 197 197 197 197 197 197 197 197 197 197 197 197 197 197 197 197 197 197 197 197 197 197 197 197 197 197 197
197 197 197 197 197 197 197 192 153 79 5 0 11 61 138 195 196 197 197 197 197 197 197 197 197 197 197 197 197 197 197 197 197 197 197 197 197 197 197 197 197 197 197 197 197 197 197 197 197 197 197 197 197 197 197 197 197 197 197 197 197 197 197 197
197 197 197 197 197 197 196 193 138 59 6 0 13 89 158 195 197 197 197 197 197 197 197 197 197 197 197 197 197 197 197 197 197 197 197 197 197 197 197 197 197 197 197 197 197 197 197 197 197 197 197 197 197 197 197 197 197 197 197 197 197 197 197 197
197 197 197 197 197 197 196 185 137 45 7 2 27 105 177 195 197 197 197 197 197 197 197 197 197 197 197 197 197 197 197 197 197 197 197 197 197 196 197 197 196 196 197 197 197 197 197 197 197 197 197 197 197 197 197 197 197 197 197 197 197 197 197 197
197 197 197 197 197 197 197 184 133 51 3 0 28 97 177 196 197 197 197 197 197 197 197 197 197 197 197 197 197 197 197 197 197 197 197 197 197 195 191 188 191 196 196 197 197 197 197 197 197 197 197 197 197 197 197 197 197 197 197 197 197 197 197 197
197 197 197 197 197 197 196 190 141 61 6 0 13 71 150 188 196 196 197 197 197 197 197 197 197 197 197 197 197 197 197 197 197 197 197 195 194 184 161 152 162 174 190 196 197 197 197 197 197 197 197 197 197 197 197 197 197 197 197 197 197 197 197 197
197 197 197 197 197 197 196 191 160 68 12 0 3 24 95 154 185 196 196 196 197 197 197 197 197 197 197 197 197 197 197 197 197 197 197 188 166 129 92 75 92 136 178 194 196 197 197 197 197 197 197 197 197 197 197 197 197 197 197 197 197 197 197 197
197 197 197 197 197 197 197 193 165 89 12 0 0 6 45 102 146 164 178 192 196 196 196 197 196 196 197 197 196 197 197 195 196 195 190 161 101 57 23 10 39 106 161 190 197 197 197 197 197 197 197 197 197 197 197 197 197 197 197 197 197 197 197 197
197 197 197 197 197 197 196 196 180 127 51 11 0 1 13 35 68 100 130 152 164 178 193 189 187 194 194 191 192 193 188 187 185 173 150 103 36 10 0 4 30 99 163 189 196 197 197 197 197 197 197 197 197 197 197 197 197 197 197 197 197 197 197 197
197 197 197 197 197 197 197 196 194 164 106 44 11 2 0 3 19 35 48 74 97 118 130 138 146 146 147 155 157 148 146 140 122 112 87 47 11 0 0 10 58 125 181 194 196 197 197 197 197 197 197 197 197 197 197 197 197 197 197 197 197 197 197 197
197 197 197 197 197 197 197 197 196 188 162 120 69 30 4 1 1 1 10 20 24 32 50 58 55 63 70 69 71 72 64 54 47 37 27 13 4 0 10 35 108 163 191 197 197 197 197 197 197 197 197 197 197 197 197 197 197 197 197 197 197 197 197 197
197 197 197 197 197 197 197 197 197 196 195 173 131 86 51 29 13 1 0 0 0 5 4 2 10 11 5 11 16 11 7 9 5 3 9 10 10 23 54 97 157 191 196 197 197 197 197 197 197 197 197 197 197 197 197 197 197 197 197 197 197 197 197 197
197 197 197 197 197 197 197 197 197 197 196 191 180 158 121 87 56 39 26 10 3 3 2 0 0 1 0 0 1 0 2 5 5 8 27 47 71 94 124 157 183 196 197 197 197 197 197 197 197 197 197 197 197 197 197 197 197 197 197 197 197 197 197 197
197 197 197 197 197 197 197 197 197 197 197 197 196 188 173 158 137 109 85 68 55 37 23 32 30 16 21 26 20 20 32 39 49 66 86 122 146 164 181 190 195 197 197 197 197 197 197 197 197 197 197 197 197 197 197 197 197 197 197 197 197 197 197 197
197 197 197 197 197 197 197 197 197 197 197 197 196 196 196 195 181 170 165 148 130 118 113 107 102 99 95 92 94 98 103 119 130 141 162 179 188 194 195 196 197 197 197 197 197 197 197 197 197 197 197 197 197 197 197 197 197 197 197 197 197 197 197 197
197 197 197 197 197 197 197 197 197 197 197 197 197 197 197 196 196 196 192 188 188 185 174 175 181 169 166 174 167 166 175 180 182 188 191 194 197 196 196 197 197 197 197 197 197 197 197 197 197 197 197 197 197 197 197 197 197 197 197 197 197 197 197 197
197 197 197 197 197 197 197 197 197 197 197 197 197 197 197 197 197 196 197 197 197 195 196 197 195 195 196 194 194 195 195 195 196 197 196 196 197 197 197 197 197 197 197 197 197 197 197 197 197 197 197 197 197 197 197 197 197 197 197 197 197 197 197 197
197 197 197 197 197 197 197 197 197 197 197 197 197 197 197 197 197 197 197 197 197 197 197 197 197 197 196 197 197 197 197 197 197 197 197 197 197 197 197 197 197 197 197 197 197 197 197 197 197 197 197 197 197 197 197 197 197 197 197 197 197 197 197 197
197 197 197 197 197 197 197 197 197 197 197 197 197 197 197 197 197 197 197 197 197 197 197 197 197 197 197 197 197 197 197 197 197 197 197 197 197 197 197 197 197 197 197 197 197 197 197 197 197 197 197 197 197 197 197 197 197 197 197 197 197 197 197 197
197 197 197 197 197 197 197 197 197 197 197 197 197 197 197 197 197 197 197 197 197 197 197 197 197 197 197 197 197 197 197 197 197 197 197 197 197 197 197 197 197 197 197 197 197 197 197 197 197 197 197 197 197 197 197 197 197 197 197 197 197 197 197 197
197 197 197 197 197 197 197 197 197 197 197 197 197 197 197 197 197 197 197 197 197 197 197 197 197 197 197 197 197 197 197 197 197 197 197 197 197 197 197 197 197 197 197 197 197 197 197 197 197 197 197 197 197 197 197 197 197 197 197 197 197 197 197 197
197 197 197 197 197 197 197 197 197 197 197 197 197 197 197 197 197 197 197 197 197 197 197 197 197 197 197 197 197 197 197 197 197 197 197 197 197 197 197 197 197 197 197 197 197 197 197 197 197 197 197 197 197 197 197 197 197 197 197 197 197 197 197 197
197 197 197 197 197 197 197 197 197 197 197 197 197 197 197 197 197 197 197 197 197 197 197 197 197 197 197 197 197 197 197 197 197 197 197 197 197 197 197 197 197 197 197 197 197 197 197 197 197 197 197 197 197 197 197 197 197 197 197 197 197 197 197 197
197 197 197 197 197 197 197 197 197 197 197 197 197 197 197 197 197 197 197 197 197 197 197 197 197 197 197 197 197 197 197 197 197 197 197 197 197 197 197 197 197 197 197 197 197 197 197 197 197 197 197 197 197 197 197 197 197 197 197 197 197 197 197 197
197 197 197 197 197 197 197 197 197 197 197 197 197 197 197 197 197 197 197 197 197 197 197 197 197 197 197 197 197 197 197 197 197 197 197 197 197 197 197 197 197 197 197 197 197 197 197 197 197 197 197 197 197 197 197 197 197 197 197 197 197 197 197 197
