P2
64 64
255
237 237 237 237 237 237 237 237 237 237 237 237 237 237 237 237 237 237 237 237 237 237 237 237 237 237 237 237 237 237 237 237 237 237 237 237 237 237 237 237 237 237 237 237 237 237 237 237 237 237 237 237 237 237 237 237 237 237 237 237 237 237 237 237
237 237 237 237 237 237 237 237 237 237 237 237 237 237 237 237 237 237 237 237 237 237 237 237 237 237 237 237 237 237 237 237 237 237 237 237 237 237 237 237 237 237 237 237 237 237 237 237 237 237 237 237 237 237 237 237 237 237 237 237 237 237 237 237
237 237 237 237 237 237 237 237 237 237 237 237 237 237 237 237 237 237 237 237 237 237 237 237 237 237 237 237 237 237 237 237 237 237 237 237 237 237 237 237 237 237 237 237 237 237 237 237 237 237 237 237 237 237 237 237 237 237 237 237 237 237 237 237
237 237 237 237 237 237 237 237 237 237 237 237 237 237 237 237 237 237 237 237 237 237 237 237 237 237 237 237 237 237 237 237 237 237 237 237 237 237 237 237 237 237 237 237 237 237 237 237 237 237 237 237 237 237 237 237 237 237 237 237 237 237 237 237
237 237 237 237 237 237 237 237 237 237 237 237 237 237 237 237 237 237 237 237 237 237 237 237 237 237 237 237 237 237 237 237 237 237 237 237 237 237 237 237 237 237 237 237 237 237 237 237 237 237 237 237 237 237 237 237 237 237 237 237 237 237 237 237
237 237 237 237 237 237 237 237 237 237 237 237 237 237 237 237 237 237 237 237 237 237 237 237 237 237 237 237 237 237 237 237 237 237 237 237 237 237 237 237 237 237 237 237 237 237 237 237 237 237 237 237 237 237 237 237 237 237 237 237 237 237 237 237
237 237 237 237 237 237 237 237 237 237 237 237 237 237 237 237 237 237 237 237 237 237 237 237 237 237 237 237 237 237 237 237 237 237 237 237 237 237 237 237 237 237 237 237 237 237 237 237 237 237 237 237 237 237 237 237 237 237 237 237 237 237 237 237
237 237 237 237 237 237 237 237 237 237 237 237 237 237 237 237 237 237 237 237 237 237 237 237 237 237 237 237 237 237 237 237 237 237 237 237 237 237 237 237 237 237 237 237 237 237 237 237 237 237 237 237 237 237 237 237 237 237 237 237 237 237 237 237
237 237 237 237 237 237 237 237 237 237 237 237 237 237 237 237 237 237 237 237 237 237 237 237 237 237 237 237 237 237 237 236 236 231 230 229 237 237 237 237 237 237 237 237 237 237 237 237 237 237 237 237 237 237 237 237 237 237 237 237 237 237 237 237
237 237 237 237 237 237 237 237 237 237 237 237 237 237 237 237 237 237 237 237 237 237 237 237 237 237 237 237 236 228 220 207 194 171 139 152 170 213 226 234 237 237 237 237 237 237 237 237 237 237 237 237 237 237 237 237 237 237 237 237 237 237 237 237
237 237 237 237 237 237 237 237 237 237 237 237 237 237 237 237 237 237 237 237 237 237 237 237 237 237 234 221 199 167 125 98 69 36 22 13 46 90 139 181 196 231 231 237 237 237 237 237 237 237 237 237 237 237 237 237 237 237 237 237 237 237 237 237
237 237 237 237 237 237 237 237 237 237 237 237 237 237 237 237 237 237 237 237 237 237 237 237 237 232 211 152 91 51 27 13 6 0 0 0 0 0 34 46 87 129 171 209 221 237 237 237 237 237 237 237 237 237 237 237 237 237 237 237 237 237 237 237
237 237 237 237 237 237 237 237 237 237 237 237 237 237 237 237 237 237 237 237 237 237 237 237 237 192 119 53 13 2 5 13 27 7 0 0 0 0 0 0 7 17 62 99 151 198 226 237 237 237 237 237 237 237 237 237 237 237 237 237 237 237 237 237
237 237 237 237 237 237 237 237 237 237 237 237 237 237 237 237 237 237 237 237 237 237 237 236 199 117 32 0 0 19 62 107 128 99 67 25 41 35 34 5 5 0 1 15 50 110 190 230 237 237 237 237 237 237 237 237 237 237 237 237 237 237 237 237
237 237 237 237 237 237 237 237 237 237 237 237 237 237 237 237 237 237 237 237 237 237 237 227 139 32 4 1 38 98 164 215 226 231 192 188 168 171 142 108 62 26 13 0 1 39 125 208 236 237 237 237 237 237 237 237 237 237 237 237 237 237 237 237
237 237 237 237 237 237 237 237 237 237 237 237 237 237 237 237 237 237 237 237 237 237 236 168 67 4 1 24 111 199 226 236 237 237 237 236 235 233 228 214 176 135 80 35 5 9 62 165 228 237 237 237 237 237 237 237 237 237 237 237 237 237 237 237
237 237 237 237 237 237 237 237 237 237 237 237 237 237 237 237 237 237 237 237 237 237 200 105 8 0 7 97 189 232 237 237 237 237 237 237 237 237 237 237 237 218 186 111 26 2 19 111 212 236 237 237 237 237 237 237 237 237 237 237 237 237 237 237
237 237 237 237 237 237 237 237 237 237 237 237 237 237 237 237 237 237 237 237 237 232 142 35 2 4 60 163 235 237 237 237 237 237 237 237 237 237 237 237 237 237 232 173 67 8 0 65 180 229 237 237 237 237 237 237 237 237 237 237 237 237 237 237
237 237 237 237 237 237 237 237 237 237 237 237 237 237 237 237 237 237 237 237 237 181 78 6 1 22 130 222 237 237 237 237 237 237 237 237 237 237 237 237 237 237 237 209 120 33 1 38 135 216 237 237 237 237 237 237 237 237 237 237 237 237 237 237
237 237 237 237 237 237 237 237 237 237 237 237 237 237 237 237 237 237 237 237 216 138 21 0 3 86 187 236 237 237 237 237 237 237 237 237 237 237 237 237 237 237 237 228 185 81 11 13 83 189 233 237 237 237 237 237 237 237 237 237 237 237 237 237
237 237 237 237 237 237 237 237 237 237 237 237 237 237 237 237 237 237 237 237 197 79 13 0 28 126 227 237 237 237 237 237 237 237 237 237 237 237 237 237 237 237 237 237 227 130 29 5 49 160 230 237 237 237 237 237 237 237 237 237 237 237 237 237
237 237 237 237 237 237 237 237 237 237 237 237 237 237 237 237 237 237 237 233 176 60 0 0 30 158 225 237 237 237 237 237 237 237 237 237 237 237 237 237 237 237 237 237 229 163 55 7 29 143 223 237 237 237 237 237 237 237 237 237 237 237 237 237
237 237 237 237 237 237 237 237 237 237 237 237 237 237 237 237 237 237 237 234 181 42 2 0 44 160 232 237 237 237 237 237 237 237 237 237 237 237 237 237 237 237 237 237 233 186 68 10 22 114 211 237 237 237 237 237 237 237 237 237 237 237 237 237
237 237 237 237 237 237 237 237 237 237 237 237 237 237 237 237 237 237 237 234 173 52 0 0 30 163 230 237 237 237 237 237 237 237 237 237 237 237 237 237 237 237 237 237 234 183 74 5 8 69 190 234 237 237 237 237 237 237 237 237 237 237 237 237
237 237 237 237 237 237 237 237 237 237 237 237 237 237 237 237 237 237 237 235 196 79 12 0 34 146 227 237 237 237 237 237 237 237 237 237 237 237 237 237 237 237 237 237 233 188 56 4 0 52 167 232 237 237 237 237 237 237 237 237 237 237 237 237
237 237 237 237 237 237 237 237 237 237 237 237 237 237 237 237 237 237 237 237 222 149 43 4 26 121 217 237 237 237 237 237 237 237 237 237 237 237 237 237 237 237 237 237 233 167 56 1 6 55 182 235 237 237 237 237 237 237 237 237 237 237 237 237
237 237 237 237 237 237 237 237 237 237 237 237 237 237 237 237 237 237 237 237 234 197 91 13 9 69 169 223 237 237 237 237 237 237 237 237 237 237 237 237 237 237 237 237 222 153 38 0 7 97 197 236 237 237 237 237 237 237 237 237 237 237 237 237
237 237 237 237 237 237 237 237 237 237 237 237 237 237 237 237 237 237 237 237 237 220 136 36 1 22 83 166 229 237 237 237 237 237 237 237 237 237 237 237 237 237 237 236 210 110 25 0 34 129 222 237 237 237 237 237 237 237 237 237 237 237 237 237
237 237 237 237 237 237 237 237 237 237 237 237 237 237 237 237 237 236 226 221 223 219 175 72 7 0 5 71 155 207 237 237 237 237 237 237 237 237 237 237 237 237 237 215 150 61 2 3 49 167 227 237 237 237 237 237 237 237 237 237 237 237 237 237
237 237 237 237 237 237 237 237 237 237 237 237 237 237 237 231 215 186 150 117 117 124 128 79 32 3 0 12 47 130 187 209 236 237 237 237 237 237 237 237 237 236 218 167 73 8 0 20 104 195 237 237 237 237 237 237 237 237 237 237 237 237 237 237
237 237 237 237 237 237 237 237 237 237 237 237 237 235 219 182 126 65 25 15 6 21 17 26 19 1 0 0 4 34 57 102 147 203 232 231 237 237 237 237 232 222 155 78 22 0 16 67 167 237 237 237 237 237 237 237 237 237 237 237 237 237 237 237
237 237 237 237 237 237 237 237 237 237 237 237 236 225 154 72 25 6 0 0 0 0 0 1 0 0 0 0 0 0 3 4 31 86 128 170 190 217 217 221 181 118 56 13 0 6 56 151 215 237 237 237 237 237 237 237 237 237 237 237 237 237 237 237
237 237 237 237 237 237 237 237 237 237 237 237 218 155 69 9 0 0 4 24 29 54 47 38 6 6 0 0 1 1 0 0 0 0 24 38 75 97 108 110 76 18 0 0 7 62 141 207 237 237 237 237 237 237 237 237 237 237 237 237 237 237 237 237
237 237 237 237 237 237 237 237 237 237 237 217 163 74 5 0 1 34 87 134 170 177 181 147 114 76 55 52 56 39 7 0 0 0 0 0 7 3 15 13 9 0 0 14 62 145 217 236 237 237 237 237 237 237 237 237 237 237 237 237 237 237 237 237
237 237 237 237 237 237 237 237 237 237 233 170 75 20 0 13 50 125 204 229 234 234 233 229 219 193 174 173 182 157 96 22 0 0 0 0 0 0 8 11 20 21 41 83 163 215 234 237 237 237 237 237 237 237 237 237 237 237 237 237 237 237 237 237
237 237 237 237 237 237 237 237 237 237 185 95 22 0 10 55 153 212 234 237 237 237 237 237 237 237 230 229 232 236 196 132 69 7 0 0 9 46 71 97 112 140 166 197 223 237 237 237 237 237 237 237 237 237 237 237 237 237 237 237 237 237 237 237
237 237 237 237 237 237 237 237 237 212 130 27 1 2 61 144 209 237 237 237 237 237 237 237 237 237 237 237 237 237 236 231 171 97 35 0 8 54 138 203 214 223 232 236 237 237 237 237 237 237 237 237 237 237 237 237 237 237 237 237 237 237 237 237
237 237 237 237 237 237 237 237 237 176 67 12 1 41 127 211 237 237 237 237 237 237 237 237 237 237 237 237 237 237 237 237 226 195 98 16 1 16 95 189 231 237 237 237 237 237 237 237 237 237 237 237 237 237 237 237 237 237 237 237 237 237 237 237
237 237 237 237 237 237 237 237 211 129 35 0 9 89 193 230 237 237 237 237 237 237 237 237 237 237 237 237 237 237 237 237 237 226 167 73 13 1 35 130 214 237 237 237 237 237 237 237 237 237 237 237 237 237 237 237 237 237 237 237 237 237 237 237
237 237 237 237 237 237 237 233 196 87 10 0 46 141 218 237 237 237 237 237 237 237 237 237 237 237 237 237 237 237 237 237 237 236 218 151 44 2 7 70 184 235 237 237 237 237 237 237 237 237 237 237 237 237 237 237 237 237 237 237 237 237 237 237
237 237 237 237 237 237 237 232 176 67 4 12 75 186 235 237 237 237 237 237 237 237 237 237 237 237 237 237 237 237 237 237 237 237 236 195 85 8 0 27 145 223 237 237 237 237 237 237 237 237 237 237 237 237 237 237 237 237 237 237 237 237 237 237
237 237 237 237 237 237 237 227 167 48 0 9 97 200 236 237 237 237 237 237 237 237 237 237 237 237 237 237 237 237 237 237 237 237 237 218 102 15 0 21 114 215 237 237 237 237 237 237 237 237 237 237 237 237 237 237 237 237 237 237 237 237 237 237
237 237 237 237 237 237 237 231 147 33 0 12 91 206 237 237 237 237 237 237 237 237 237 237 237 237 237 237 237 237 237 237 237 237 236 194 97 13 0 13 117 213 237 237 237 237 237 237 237 237 237 237 237 237 237 237 237 237 237 237 237 237 237 237
237 237 237 237 237 237 237 224 143 27 0 1 69 198 236 237 237 237 237 237 237 237 237 237 237 237 237 237 237 237 237 237 237 237 227 168 43 3 0 37 136 218 237 237 237 237 237 237 237 237 237 237 237 237 237 237 237 237 237 237 237 237 237 237
237 237 237 237 237 237 237 231 163 35 0 0 55 178 234 237 237 237 237 237 237 237 237 237 237 237 237 237 237 237 237 237 237 237 215 118 27 0 7 59 177 234 237 237 237 237 237 237 237 237 237 237 237 237 237 237 237 237 237 237 237 237 237 237
237 237 237 237 237 237 237 235 185 69 3 0 31 146 219 237 237 237 237 237 237 237 237 237 237 237 237 237 237 237 237 237 237 224 171 73 1 0 20 122 207 237 237 237 237 237 237 237 237 237 237 237 237 237 237 237 237 237 237 237 237 237 237 237
237 237 237 237 237 237 237 237 215 124 32 1 14 77 174 234 237 237 237 237 237 237 237 237 237 237 237 237 237 237 237 237 230 199 105 21 0 14 83 179 237 237 237 237 237 237 237 237 237 237 237 237 237 237 237 237 237 237 237 237 237 237 237 237
237 237 237 237 237 237 237 237 230 188 89 9 1 13 105 201 230 237 237 237 237 237 237 237 237 237 237 237 237 237 237 237 201 123 43 1 7 46 153 228 237 237 237 237 237 237 237 237 237 237 237 237 237 237 237 237 237 237 237 237 237 237 237 237
237 237 237 237 237 237 237 237 236 226 157 55 9 0 38 111 191 236 237 237 237 237 237 237 237 237 237 237 237 237 236 209 142 54 1 0 29 120 202 237 237 237 237 237 237 237 237 237 237 237 237 237 237 237 237 237 237 237 237 237 237 237 237 237
237 237 237 237 237 237 237 237 237 237 209 138 44 0 1 24 109 183 220 237 237 237 237 237 237 237 237 237 237 232 215 151 60 13 0 28 97 184 237 237 237 237 237 237 237 237 237 237 237 237 237 237 237 237 237 237 237 237 237 237 237 237 237 237
237 237 237 237 237 237 237 237 237 237 234 208 102 13 0 3 27 83 152 195 223 236 237 237 237 237 237 237 234 202 133 59 13 0 17 78 178 227 237 237 237 237 237 237 237 237 237 237 237 237 237 237 237 237 237 237 237 237 237 237 237 237 237 237
237 237 237 237 237 237 237 237 237 237 237 229 167 71 16 0 0 17 46 88 145 186 221 224 234 235 234 210 172 114 50 3 0 11 76 158 215 237 237 237 237 237 237 237 237 237 237 237 237 237 237 237 237 237 237 237 237 237 237 237 237 237 237 237
237 237 237 237 237 237 237 237 237 237 237 236 220 162 86 41 13 0 0 14 28 81 119 141 169 172 167 124 65 22 6 1 27 86 162 220 237 237 237 237 237 237 237 237 237 237 237 237 237 237 237 237 237 237 237 237 237 237 237 237 237 237 237 237
237 237 237 237 237 237 237 237 237 237 237 237 237 223 192 143 81 36 4 0 0 10 11 36 41 57 47 30 10 3 13 40 96 179 228 236 237 237 237 237 237 237 237 237 237 237 237 237 237 237 237 237 237 237 237 237 237 237 237 237 237 237 237 237
237 237 237 237 237 237 237 237 237 237 237 237 237 237 237 217 187 123 47 22 2 3 0 1 1 8 12 14 13 33 79 139 189 223 237 237 237 237 237 237 237 237 237 237 237 237 237 237 237 237 237 237 237 237 237 237 237 237 237 237 237 237 237 237
237 237 237 237 237 237 237 237 237 237 237 237 237 237 237 237 237 206 166 113 83 73 53 42 32 49 68 83 105 141 184 216 231 237 237 237 237 237 237 237 237 237 237 237 237 237 237 237 237 237 237 237 237 237 237 237 237 237 237 237 237 237 237 237
237 237 237 237 237 237 237 237 237 237 237 237 237 237 237 237 237 237 235 212 207 187 179 155 161 170 188 196 206 222 234 237 237 237 237 237 237 237 237 237 237 237 237 237 237 237 237 237 237 237 237 237 237 237 237 237 237 237 237 237 237 237 237 237
237 237 237 237 237 237 237 237 237 237 237 237 237 237 237 237 237 237 237 237 236 235 232 230 229 234 235 237 236 237 237 237 237 237 237 237 237 237 237 237 237 237 237 237 237 237 237 237 237 237 237 237 237 237 237 237 237 237 237 237 237 237 237 237
237 237 237 237 237 237 237 237 237 237 237 237 237 237 237 237 237 237 237 237 237 237 237 237 237 237 237 237 237 237 237 237 237 237 237 237 237 237 237 237 237 237 237 237 237 237 237 237 237 237 237 237 237 237 237 237 237 237 237 237 237 237 237 237
237 237 237 237 237 237 237 237 237 237 237 237 237 237 237 237 237 237 237 237 237 237 237 237 237 237 237 237 237 237 237 237 237 237 237 237 237 237 237 237 237 237 237 237 237 237 237 237 237 237 237 237 237 237 237 237 237 237 237 237 237 237 237 237
237 237 237 237 237 237 237 237 237 237 237 237 237 237 237 237 237 237 237 237 237 237 237 237 237 237 237 237 237 237 237 237 237 237 237 237 237 237 237 237 237 237 237 237 237 237 237 237 237 237 237 237 237 237 237 237 237 237 237 237 237 237 237 237
237 237 237 237 237 237 237 237 237 237 237 237 237 237 237 237 237 237 237 237 237 237 237 237 237 237 237 237 237 237 237 237 237 237 237 237 237 237 237 237 237 237 237 237 237 237 237 237 237 237 237 237 237 237 237 237 237 237 237 237 237 237 237 237
237 237 237 237 237 237 237 237 237 237 237 237 237 237 237 237 237 237 237 237 237 237 237 237 237 237 237 237 237 237 237 237 237 237 237 237 237 237 237 237 237 237 237 237 237 237 237 237 237 237 237 237 237 237 237 237 237 237 237 237 237 237 237 237
237 237 237 237 237 237 237 237 237 237 237 237 237 237 237 237 237 237 237 237 237 237 237 237 237 237 237 237 237 237 237 237 237 237 237 237 237 237 237 237 237 237 237 237 237 237 237 237 237 237 237 237 237 237 237 237 237 237 237 237 237 237 237 237
