P2
64 64
255
136 136 136 136 136 136 136 136 136 136 136 136 136 136 136 136 136 136 136 136 136 136 136 136 136 136 136 136 136 136 136 136 136 136 136 136 136 136 136 136 136 136 136 136 136 136 136 136 136 136 136 136 136 136 136 136 136 136 136 136 136 136 136 136
136 136 136 136 136 136 136 136 136 136 136 136 136 136 136 136 136 136 136 136 136 136 136 136 136 136 136 136 136 136 136 136 136 136 136 136 136 136 136 136 136 136 136 136 136 136 136 136 136 136 136 136 136 136 136 136 136 136 136 136 136 136 136 136
136 136 136 136 136 136 136 136 136 136 136 136 136 136 136 136 136 136 136 136 136 136 136 136 136 136 136 136 136 136 136 136 136 136 136 136 136 136 136 136 136 136 136 136 136 136 136 136 136 136 136 136 136 136 136 136 136 136 136 136 136 136 136 136
136 136 136 136 136 136 136 136 136 136 136 136 136 136 136 136 136 136 136 136 136 136 136 136 136 136 136 136 136 136 136 136 136 136 136 136 136 136 136 136 136 136 136 136 136 136 136 136 136 136 136 136 136 136 136 136 136 136 136 136 136 136 136 136
136 136 136 136 136 136 136 136 136 136 136 136 136 136 136 136 136 136 136 136 136 136 136 136 136 136 136 136 136 136 136 136 136 136 136 136 136 136 136 136 136 136 136 136 136 136 136 136 136 136 136 136 136 136 136 136 136 136 136 136 136 136 136 136
136 136 136 136 136 136 136 136 136 136 136 136 136 136 136 136 136 136 136 136 136 136 136 136 136 136 136 136 136 136 136 136 136 136 136 136 136 136 136 136 136 136 136 136 136 136 136 136 136 136 136 136 136 136 136 136 136 136 136 136 136 136 136 136
136 136 136 136 136 136 136 136 136 136 136 136 136 136 136 136 136 136 136 136 136 136 136 136 136 136 136 136 136 136 136 136 136 136 136 136 136 136 136 136 136 136 136 136 136 136 136 136 136 136 136 136 136 136 136 136 136 136 136 136 136 136 136 136
136 136 136 136 136 136 136 136 136 136 136 136 136 136 136 136 136 136 136 136 136 136 136 136 136 136 136 136 136 136 136 136 136 136 136 136 136 136 136 136 136 136 136 136 136 136 136 136 136 136 136 136 136 136 136 136 136 136 136 136 136 136 136 136
136 136 136 136 136 136 136 136 136 136 136 136 136 136 136 136 136 136 136 136 136 136 136 136 136 136 136 136 136 136 136 136 136 136 136 136 136 136 136 136 136 136 136 136 136 136 136 136 136 136 136 136 136 136 136 136 136 136 136 136 136 136 136 136
136 136 136 136 136 136 136 136 136 136 136 136 136 136 136 136 136 136 136 136 136 136 136 136 136 136 136 136 136 136 136 136 136 136 136 136 136 136 136 136 136 136 136 136 136 136 136 136 136 136 136 136 136 136 136 136 136 136 136 136 136 136 136 136
136 136 136 136 136 136 136 136 136 136 136 136 136 136 136 136 136 136 136 136 136 136 136 136 136 136 136 136 136 136 136 136 136 136 136 136 136 136 136 136 136 136 136 136 136 136 136 136 136 136 136 136 136 136 136 136 136 136 136 136 136 136 136 136
136 136 136 136 136 136 136 136 136 136 136 136 136 136 136 136 136 136 136 136 136 136 136 136 136 136 136 136 136 136 136 136 136 136 136 136 136 136 136 136 136 136 136 136 136 136 136 136 136 136 136 136 136 136 136 136 136 136 136 136 136 136 136 136
136 136 136 136 136 136 136 136 136 136 136 136 136 136 136 136 136 136 136 136 136 136 136 136 136 136 136 136 136 136 136 136 136 136 136 136 136 136 136 136 136 136 136 136 136 136 136 136 136 136 136 136 136 136 136 136 136 136 136 136 136 136 136 136
136 136 136 136 136 136 136 136 136 136 136 136 136 136 136 136 136 136 136 136 136 136 136 136 136 136 136 136 136 136 136 136 136 136 136 136 136 136 136 136 136 136 136 136 136 136 136 136 136 136 136 136 136 136 136 136 136 136 136 136 136 136 136 136
136 136 136 136 136 136 136 136 136 136 136 136 136 136 136 136 136 136 136 136 136 136 136 136 136 136 136 136 136 136 136 136 136 136 136 136 136 136 136 136 136 136 136 136 136 136 136 136 136 136 136 136 136 136 136 136 136 136 136 136 136 136 136 136
136 136 136 136 136 136 136 136 136 136 136 136 136 136 136 136 136 136 136 136 136 136 136 136 136 136 136 136 136 136 136 136 136 136 136 136 136 136 136 136 136 136 136 136 136 136 136 136 136 136 136 136 136 136 136 136 136 136 136 136 136 136 136 136
136 136 136 136 136 136 136 136 136 136 136 136 136 136 136 136 136 136 136 136 136 136 136 136 136 136 136 136 136 136 134 131 128 121 125 136 136 136 136 136 136 136 136 136 136 136 136 136 136 136 136 136 136 136 136 136 136 136 136 136 136 136 136 136
136 136 136 136 136 136 136 136 136 136 136 136 136 136 136 136 136 136 136 136 136 136 136 136 136 136 136 136 135 126 101 82 63 54 66 85 99 113 129 136 136 136 136 136 136 136 136 136 136 136 136 136 136 136 136 136 136 136 136 136 136 136 136 136
136 136 136 136 136 136 136 136 136 136 136 136 136 136 136 136 136 136 136 136 136 136 136 136 136 136 136 134 119 73 29 12 2 4 9 14 24 47 74 106 124 134 136 136 136 136 136 136 136 136 136 136 136 136 136 136 136 136 136 136 136 136 136 136
136 136 136 136 136 136 136 136 136 136 136 136 136 136 136 136 136 136 136 136 136 136 136 136 136 136 133 118 75 19 1 0 0 0 0 0 0 5 16 36 74 114 133 136 136 136 136 136 136 136 136 136 136 136 136 136 136 136 136 136 136 136 136 136
136 136 136 136 136 136 136 136 136 136 136 136 136 136 136 136 136 136 136 136 136 136 136 136 136 133 110 60 19 2 0 6 19 23 29 25 10 1 0 1 15 65 115 135 136 136 136 136 136 136 136 136 136 136 136 136 136 136 136 136 136 136 136 136
136 136 136 136 136 136 136 136 136 136 136 136 136 136 136 136 136 136 136 136 136 136 136 136 134 110 57 12 2 11 35 69 92 104 107 94 74 46 23 5 0 20 74 124 136 136 136 136 136 136 136 136 136 136 136 136 136 136 136 136 136 136 136 136
136 136 136 136 136 136 136 136 136 136 136 136 136 136 136 136 136 136 136 136 136 136 136 133 112 60 16 1 10 50 103 131 134 136 136 132 126 114 83 34 3 1 24 93 133 136 136 136 136 136 136 136 136 136 136 136 136 136 136 136 136 136 136 136
136 136 136 136 136 136 136 136 136 136 136 136 136 136 136 136 136 136 136 136 136 136 135 118 70 17 1 5 44 104 132 136 136 136 136 136 136 136 130 80 13 0 6 56 121 136 136 136 136 136 136 136 136 136 136 136 136 136 136 136 136 136 136 136
136 136 136 136 136 136 136 136 136 136 136 136 136 136 136 136 136 136 136 136 136 136 124 75 20 0 5 39 96 130 136 136 136 136 136 136 136 136 135 110 44 3 1 38 107 134 136 136 136 136 136 136 136 136 136 136 136 136 136 136 136 136 136 136
136 136 136 136 136 136 136 136 136 136 136 136 136 136 136 136 136 136 136 136 136 128 75 19 1 3 30 86 125 136 136 136 136 136 136 136 136 136 136 130 80 17 0 17 93 132 136 136 136 136 136 136 136 136 136 136 136 136 136 136 136 136 136 136
136 136 136 136 136 136 136 136 136 136 136 136 136 136 136 136 136 136 136 136 128 83 21 0 0 16 77 124 136 136 136 136 136 136 136 136 136 136 136 136 104 27 0 14 78 128 136 136 136 136 136 136 136 136 136 136 136 136 136 136 136 136 136 136
136 136 136 136 136 136 136 136 136 136 136 136 136 136 136 136 136 136 136 134 105 38 3 0 0 41 117 135 136 136 136 136 136 136 136 136 136 136 136 134 108 39 2 11 72 126 136 136 136 136 136 136 136 136 136 136 136 136 136 136 136 136 136 136
136 136 136 136 136 136 136 136 136 136 136 136 136 136 136 136 136 136 136 130 79 9 0 2 25 89 131 136 136 136 136 136 136 136 136 136 136 136 136 136 109 40 3 3 64 127 136 136 136 136 136 136 136 136 136 136 136 136 136 136 136 136 136 136
136 136 136 136 136 136 136 136 136 136 136 136 136 136 136 136 136 136 136 117 51 3 1 25 82 124 136 136 136 136 136 136 136 136 136 136 136 136 136 136 110 35 0 9 64 123 136 136 136 136 136 136 136 136 136 136 136 136 136 136 136 136 136 136
136 136 136 136 136 136 136 136 136 136 136 136 136 136 136 136 136 136 131 95 29 1 9 62 123 136 136 136 136 136 136 136 136 136 136 136 136 136 136 133 100 32 0 14 73 126 136 136 136 136 136 136 136 136 136 136 136 136 136 136 136 136 136 136
136 136 136 136 136 136 136 136 136 136 136 136 136 136 136 136 136 136 127 74 11 0 16 90 134 136 136 136 136 136 136 136 136 136 136 136 136 136 136 130 86 20 0 15 86 136 136 136 136 136 136 136 136 136 136 136 136 136 136 136 136 136 136 136
136 136 136 136 136 136 136 136 136 136 136 136 136 136 136 136 136 136 123 55 2 3 38 106 136 136 136 136 136 136 136 136 136 136 136 136 136 136 136 131 76 5 0 24 96 135 136 136 136 136 136 136 136 136 136 136 136 136 136 136 136 136 136 136
136 136 136 136 136 136 136 136 136 136 136 136 136 136 136 136 136 133 104 37 1 8 61 122 136 136 136 136 136 136 136 136 136 136 136 136 136 136 136 127 66 8 1 37 105 134 136 136 136 136 136 136 136 136 136 136 136 136 136 136 136 136 136 136
136 136 136 136 136 136 136 136 136 136 136 136 136 136 136 136 136 131 87 21 0 13 83 136 136 136 136 136 136 136 136 136 136 136 136 136 136 136 136 113 48 5 2 49 118 136 136 136 136 136 136 136 136 136 136 136 136 136 136 136 136 136 136 136
136 136 136 136 136 136 136 136 136 136 136 136 136 136 136 136 136 131 80 8 0 23 94 134 136 136 136 136 136 136 136 136 136 136 136 136 136 136 136 98 26 0 3 65 125 136 136 136 136 136 136 136 136 136 136 136 136 136 136 136 136 136 136 136
136 136 136 136 136 136 136 136 136 136 136 136 136 136 136 136 136 130 80 15 1 31 100 133 136 136 136 136 136 136 136 136 136 136 136 136 136 136 134 76 10 0 23 87 130 136 136 136 136 136 136 136 136 136 136 136 136 136 136 136 136 136 136 136
136 136 136 136 136 136 136 136 136 136 136 136 136 136 136 136 136 129 80 16 0 28 103 136 136 136 136 136 136 136 136 136 136 136 136 136 136 135 114 47 3 2 44 111 134 136 136 136 136 136 136 136 136 136 136 136 136 136 136 136 136 136 136 136
136 136 136 136 136 136 136 136 136 136 136 136 136 136 136 136 136 132 77 6 0 19 94 134 136 136 136 136 136 136 136 136 136 136 136 136 136 130 87 21 0 5 72 132 136 136 136 136 136 136 136 136 136 136 136 136 136 136 136 136 136 136 136 136
136 136 136 136 136 136 136 136 136 136 136 136 136 136 136 136 136 132 80 10 0 16 83 130 136 136 136 136 136 136 136 136 136 136 136 136 136 118 56 2 1 27 97 135 136 136 136 136 136 136 136 136 136 136 136 136 136 136 136 136 136 136 136 136
136 136 136 136 136 136 136 136 136 136 136 136 136 136 136 136 136 131 91 21 0 6 68 128 136 136 136 136 136 136 136 136 136 136 136 136 133 93 29 0 10 57 117 136 136 136 136 136 136 136 136 136 136 136 136 136 136 136 136 136 136 136 136 136
136 136 136 136 136 136 136 136 136 136 136 136 136 136 136 136 136 135 115 46 2 3 48 116 135 136 136 136 136 136 136 136 136 136 136 134 115 57 11 0 27 90 132 136 136 136 136 136 136 136 136 136 136 136 136 136 136 136 136 136 136 136 136 136
136 136 136 136 136 136 136 136 136 136 136 136 136 136 136 136 136 136 129 80 15 1 21 84 128 136 136 136 136 136 136 136 136 136 136 127 81 20 1 2 55 117 136 136 136 136 136 136 136 136 136 136 136 136 136 136 136 136 136 136 136 136 136 136
136 136 136 136 136 136 136 136 136 136 136 136 136 136 136 136 136 136 133 96 24 0 2 35 108 134 136 136 136 136 136 136 136 136 134 107 41 1 3 29 92 130 136 136 136 136 136 136 136 136 136 136 136 136 136 136 136 136 136 136 136 136 136 136
136 136 136 136 136 136 136 136 136 136 136 136 136 136 136 136 136 136 136 117 47 0 0 9 64 122 135 136 136 136 136 136 136 134 118 66 16 0 17 70 122 135 136 136 136 136 136 136 136 136 136 136 136 136 136 136 136 136 136 136 136 136 136 136
136 136 136 136 136 136 136 136 136 136 136 136 136 136 136 136 136 136 136 131 96 27 1 1 23 81 118 133 136 136 136 136 134 121 78 26 3 4 46 108 136 136 136 136 136 136 136 136 136 136 136 136 136 136 136 136 136 136 136 136 136 136 136 136
136 136 136 136 136 136 136 136 136 136 136 136 136 136 136 136 136 136 136 136 125 76 19 1 1 20 62 100 122 126 129 134 120 83 31 3 1 28 88 128 136 136 136 136 136 136 136 136 136 136 136 136 136 136 136 136 136 136 136 136 136 136 136 136
136 136 136 136 136 136 136 136 136 136 136 136 136 136 136 136 136 136 136 136 134 119 68 14 0 0 11 33 54 69 80 82 61 27 2 2 24 74 120 134 136 136 136 136 136 136 136 136 136 136 136 136 136 136 136 136 136 136 136 136 136 136 136 136
136 136 136 136 136 136 136 136 136 136 136 136 136 136 136 136 136 136 136 136 136 134 117 58 15 2 0 1 2 8 16 14 7 5 8 27 74 116 133 136 136 136 136 136 136 136 136 136 136 136 136 136 136 136 136 136 136 136 136 136 136 136 136 136
136 136 136 136 136 136 136 136 136 136 136 136 136 136 136 136 136 136 136 136 136 136 133 111 68 38 17 10 5 0 0 2 6 24 53 90 123 135 136 136 136 136 136 136 136 136 136 136 136 136 136 136 136 136 136 136 136 136 136 136 136 136 136 136
136 136 136 136 136 136 136 136 136 136 136 136 136 136 136 136 136 136 136 136 136 136 136 135 123 108 91 69 49 35 33 37 55 92 116 130 135 136 136 136 136 136 136 136 136 136 136 136 136 136 136 136 136 136 136 136 136 136 136 136 136 136 136 136
136 136 136 136 136 136 136 136 136 136 136 136 136 136 136 136 136 136 136 136 136 136 136 136 136 136 136 129 116 108 108 108 120 133 134 136 136 136 136 136 136 136 136 136 136 136 136 136 136 136 136 136 136 136 136 136 136 136 136 136 136 136 136 136
136 136 136 136 136 136 136 136 136 136 136 136 136 136 136 136 136 136 136 136 136 136 136 136 136 136 136 136 136 136 136 134 136 136 136 136 136 136 136 136 136 136 136 136 136 136 136 136 136 136 136 136 136 136 136 136 136 136 136 136 136 136 136 136
136 136 136 136 136 136 136 136 136 136 136 136 136 136 136 136 136 136 136 136 136 136 136 136 136 136 136 136 136 136 136 136 136 136 136 136 136 136 136 136 136 136 136 136 136 136 136 136 136 136 136 136 136 136 136 136 136 136 136 136 136 136 136 136
136 136 136 136 136 136 136 136 136 136 136 136 136 136 136 136 136 136 136 136 136 136 136 136 136 136 136 136 136 136 136 136 136 136 136 136 136 136 136 136 136 136 136 136 136 136 136 136 136 136 136 136 136 136 136 136 136 136 136 136 136 136 136 136
136 136 136 136 136 136 136 136 136 136 136 136 136 136 136 136 136 136 136 136 136 136 136 136 136 136 136 136 136 136 136 136 136 136 136 136 136 136 136 136 136 136 136 136 136 136 136 136 136 136 136 136 136 136 136 136 136 136 136 136 136 136 136 136
136 136 136 136 136 136 136 136 136 136 136 136 136 136 136 136 136 136 136 136 136 136 136 136 136 136 136 136 136 136 136 136 136 136 136 136 136 136 136 136 136 136 136 136 136 136 136 136 136 136 136 136 136 136 136 136 136 136 136 136 136 136 136 136
136 136 136 136 136 136 136 136 136 136 136 136 136 136 136 136 136 136 136 136 136 136 136 136 136 136 136 136 136 136 136 136 136 136 136 136 136 136 136 136 136 136 136 136 136 136 136 136 136 136 136 136 136 136 136 136 136 136 136 136 136 136 136 136
136 136 136 136 136 136 136 136 136 136 136 136 136 136 136 136 136 136 136 136 136 136 136 136 136 136 136 136 136 136 136 136 136 136 136 136 136 136 136 136 136 136 136 136 136 136 136 136 136 136 136 136 136 136 136 136 136 136 136 136 136 136 136 136
136 136 136 136 136 136 136 136 136 136 136 136 136 136 136 136 136 136 136 136 136 136 136 136 136 136 136 136 136 136 136 136 136 136 136 136 136 136 136 136 136 136 136 136 136 136 136 136 136 136 136 136 136 136 136 136 136 136 136 136 136 136 136 136
136 136 136 136 136 136 136 136 136 136 136 136 136 136 136 136 136 136 136 136 136 136 136 136 136 136 136 136 136 136 136 136 136 136 136 136 136 136 136 136 136 136 136 136 136 136 136 136 136 136 136 136 136 136 136 136 136 136 136 136 136 136 136 136
136 136 136 136 136 136 136 136 136 136 136 136 136 136 136 136 136 136 136 136 136 136 136 136 136 136 136 136 136 136 136 136 136 136 136 136 136 136 136 136 136 136 136 136 136 136 136 136 136 136 136 136 136 136 136 136 136 136 136 136 136 136 136 136
136 136 136 136 136 136 136 136 136 136 136 136 136 136 136 136 136 136 136 136 136 136 136 136 136 136 136 136 136 136 136 136 136 136 136 136 136 136 136 136 136 136 136 136 136 136 136 136 136 136 136 136 136 136 136 136 136 136 136 136 136 136 136 136
136 136 136 136 136 136 136 136 136 136 136 136 136 136 136 136 136 136 136 136 136 136 136 136 136 136 136 136 136 136 136 136 136 136 136 136 136 136 136 136 136 136 136 136 136 136 136 136 136 136 136 136 136 136 136 136 136 136 136 136 136 136 136 136
