P2
64 64
255
153 153 153 153 153 153 153 153 153 153 153 153 153 153 153 153 153 153 153 153 153 153 153 153 153 153 153 153 151 150 142 138 130 125 123 115 113 116 119 129 137 144 150 151 152 152 153 153 153 153 153 153 153 153 153 153 153 153 153 153 153 153 153 153
153 153 153 153 153 153 153 153 153 153 153 153 153 153 153 153 153 153 153 153 153 153 153 153 153 153 152 148 139 120 104 78 67 52 51 43 44 45 56 66 84 102 117 137 141 152 152 153 153 153 153 153 153 153 153 153 153 153 153 153 153 153 153 153
153 153 153 153 153 153 153 153 153 153 153 153 153 153 153 153 153 153 153 153 153 153 153 152 152 147 141 118 92 61 37 20 7 9 3 6 3 6 6 16 19 37 57 80 108 124 146 152 152 153 153 153 153 153 153 153 153 153 153 153 153 153 153 153
153 153 153 153 153 153 153 153 153 153 153 153 153 153 153 153 153 153 153 153 153 153 152 152 138 126 90 61 27 16 1 1 0 0 0 4 1 4 0 0 1 3 10 26 40 71 102 132 152 152 153 153 153 153 153 153 153 153 153 153 153 153 153 153
153 153 153 153 153 153 153 153 153 153 153 153 153 153 153 153 153 153 153 153 153 152 152 135 110 65 34 9 4 0 0 3 3 13 25 34 40 30 25 9 6 1 0 0 7 9 45 84 117 151 152 153 153 153 153 153 153 153 153 153 153 153 153 153
153 153 153 153 153 153 153 153 153 153 153 153 153 153 153 153 153 153 153 153 152 152 140 112 60 19 5 0 0 4 20 31 51 66 89 102 105 101 83 65 42 26 13 1 0 1 4 27 67 104 137 152 152 153 153 153 153 153 153 153 153 153 153 153
153 153 153 153 153 153 153 153 153 153 153 153 153 153 153 153 153 153 153 153 152 144 120 72 24 6 0 0 11 36 74 99 120 129 139 147 148 142 144 122 110 83 56 34 4 2 0 3 10 50 91 125 152 152 153 153 153 153 153 153 153 153 153 153
153 153 153 153 153 153 153 153 153 153 153 153 153 153 153 153 153 153 153 152 147 126 83 34 10 0 0 13 39 89 122 147 148 150 152 152 152 152 152 152 143 136 119 89 57 19 3 0 1 4 36 83 122 147 152 153 153 153 153 153 153 153 153 153
153 153 153 153 153 153 153 153 153 153 153 153 153 153 153 153 153 153 153 150 135 95 44 15 0 0 17 42 90 125 152 152 153 152 153 153 153 153 153 152 152 152 149 143 111 75 34 3 0 0 7 33 86 131 147 153 153 153 153 153 153 153 153 153
153 153 153 153 153 153 153 153 153 153 153 153 153 153 153 153 153 153 152 147 116 63 22 1 0 18 46 94 126 152 152 153 153 153 153 153 153 153 153 153 153 153 153 152 152 123 83 37 4 0 0 13 46 101 143 150 152 153 153 153 153 153 153 153
153 153 153 153 153 153 153 153 153 153 153 153 153 153 153 153 153 153 152 137 95 41 3 0 13 39 92 128 150 152 153 153 153 153 153 153 153 153 153 153 153 153 153 153 152 150 127 73 27 7 0 1 22 76 125 148 152 153 153 153 153 153 153 153
153 153 153 153 153 153 153 153 153 153 153 153 153 153 153 153 153 153 148 126 73 19 3 4 20 76 122 148 152 153 153 153 153 153 153 153 153 153 153 153 153 153 153 153 153 153 143 121 68 21 7 0 12 45 104 145 152 153 153 153 153 153 153 153
153 153 153 153 153 153 153 153 153 153 153 153 153 153 153 153 153 152 146 110 52 13 1 4 49 102 142 152 153 153 153 153 153 153 153 153 153 153 153 153 153 153 153 153 153 153 152 140 113 67 22 3 1 24 77 126 149 153 153 153 153 153 153 153
153 153 153 153 153 153 153 153 153 153 153 153 153 153 153 153 153 152 140 102 39 4 0 22 67 124 149 153 153 153 153 153 153 153 153 153 153 153 153 153 153 153 153 153 153 153 152 152 143 101 40 8 0 8 36 99 144 152 153 153 153 153 153 153
153 153 153 153 153 153 153 153 153 153 153 153 153 153 153 153 153 151 142 94 34 5 4 28 88 134 152 153 153 153 153 153 153 153 153 153 153 153 153 153 153 153 153 153 153 153 153 153 148 120 61 10 0 0 19 69 127 150 153 153 153 153 153 153
153 153 153 153 153 153 153 153 153 153 153 153 153 153 153 153 152 152 139 102 41 6 6 42 98 145 152 153 153 153 153 153 153 153 153 153 153 153 153 153 153 153 153 153 153 153 153 153 150 134 72 16 0 0 7 47 114 149 152 153 153 153 153 153
153 153 153 153 153 153 153 153 153 153 153 153 153 153 153 153 153 152 145 106 49 13 15 46 104 141 152 153 153 153 153 153 153 153 153 153 153 153 153 153 153 153 153 153 153 153 153 153 152 137 92 28 1 0 0 44 113 145 152 153 153 153 153 153
153 153 153 153 153 153 153 153 153 153 153 153 153 153 152 151 151 151 144 107 45 14 6 32 79 125 151 152 153 153 153 153 153 153 153 153 153 153 153 153 153 153 153 153 153 153 153 153 152 146 112 45 5 0 5 35 102 144 152 153 153 153 153 153
153 153 153 153 153 153 153 153 153 153 152 152 151 150 140 131 126 125 122 98 51 7 1 8 43 96 132 150 153 153 153 153 153 153 153 153 153 153 153 153 153 153 153 153 153 153 153 153 152 151 120 61 14 0 1 31 95 144 152 153 153 153 153 153
153 153 153 153 153 153 153 153 152 151 147 142 138 115 93 65 58 52 64 68 36 12 1 1 18 53 105 142 150 153 153 153 153 153 153 153 153 153 153 153 153 153 153 153 153 153 153 153 153 149 133 76 19 0 1 28 92 137 152 153 153 153 153 153
153 153 153 153 153 153 153 152 150 134 117 99 76 54 26 16 1 9 9 18 22 7 0 0 0 24 67 113 146 152 152 153 153 153 153 153 153 153 153 153 153 153 153 153 153 153 153 153 152 152 139 90 29 5 3 29 86 140 152 153 153 153 153 153
153 153 153 153 153 153 151 149 120 92 55 38 18 9 2 0 0 0 0 1 1 1 0 0 0 1 22 65 104 134 152 152 153 153 153 153 153 153 153 153 153 153 153 153 153 153 153 153 153 152 139 96 38 3 4 28 88 136 151 152 153 153 153 153
153 153 153 152 153 149 144 110 73 32 15 1 2 1 0 2 6 4 9 3 3 0 0 0 0 0 3 6 46 87 120 152 152 153 153 153 153 153 153 153 153 153 153 153 153 153 153 153 153 151 137 89 28 5 4 28 89 138 151 153 153 153 153 153
153 153 153 152 147 136 102 63 23 5 0 1 11 19 32 39 48 55 54 47 33 22 11 0 0 0 0 1 3 28 76 120 147 153 153 153 153 153 153 153 153 153 153 153 153 153 153 153 152 150 126 72 22 1 2 40 98 140 152 153 153 153 153 153
153 153 152 147 129 95 54 21 1 0 3 18 49 76 101 111 122 125 126 111 102 79 54 30 1 0 0 0 0 4 24 86 136 150 153 153 153 153 153 153 153 153 153 153 153 153 153 153 152 144 113 55 10 1 11 47 110 144 152 153 153 153 153 153
153 153 150 134 96 49 19 1 0 8 25 67 102 135 141 148 150 151 149 149 141 138 117 85 53 16 2 0 0 0 12 46 100 142 152 152 153 153 153 153 153 153 153 153 153 153 153 153 151 141 93 34 6 0 9 48 105 149 152 153 153 153 153 153
153 152 145 114 63 22 1 0 12 30 76 114 148 150 152 152 153 153 153 152 153 152 149 142 110 77 36 5 2 0 0 14 54 96 131 152 152 153 153 153 153 153 153 153 153 153 153 152 151 125 74 21 0 0 1 28 81 128 150 153 153 153 153 153
153 151 138 99 42 4 0 12 33 82 119 149 152 153 153 153 153 153 153 153 153 153 153 152 152 126 96 56 15 5 0 1 4 43 83 117 150 150 153 153 153 153 153 153 153 153 153 153 144 117 52 9 0 0 0 9 51 112 144 152 153 153 153 153
152 150 137 85 26 4 4 21 75 119 147 152 153 153 153 153 153 153 153 153 153 153 153 153 152 152 140 110 73 29 4 1 1 4 26 66 99 131 143 147 152 152 153 153 153 152 151 144 131 86 33 4 0 0 0 12 50 109 143 152 153 153 153 153
152 151 126 72 22 1 4 42 96 140 152 153 153 153 153 153 153 153 153 153 153 153 153 153 153 153 152 152 119 85 43 5 2 0 3 9 44 70 97 120 132 149 149 151 151 145 132 110 76 38 12 0 0 0 9 28 78 124 148 153 153 153 153 153
153 147 122 61 13 0 12 49 113 146 153 153 153 153 153 153 153 153 153 153 153 153 153 153 153 153 153 152 152 131 98 60 19 3 0 1 2 19 32 54 81 100 122 125 122 108 81 52 18 9 0 0 0 13 36 76 117 143 152 153 153 153 153 153
152 147 113 56 10 1 10 62 120 150 152 153 153 153 153 153 153 153 153 153 153 153 153 153 153 153 153 153 152 152 145 111 76 36 6 4 0 0 3 9 18 39 50 61 57 45 28 5 3 0 0 4 16 52 89 127 143 152 152 153 153 153 153 153
152 144 115 51 10 0 15 63 124 147 153 153 153 153 153 153 153 153 153 153 153 153 153 153 153 153 153 153 153 153 152 152 125 94 58 23 9 0 0 0 1 1 10 8 13 7 1 0 2 0 15 26 69 104 140 146 152 152 153 153 153 153 153 153
152 149 110 48 6 0 12 52 113 149 152 153 153 153 153 153 153 153 153 153 153 153 153 153 153 153 153 153 153 153 153 152 152 140 114 78 33 3 0 0 0 0 0 5 7 5 9 13 25 43 59 92 119 147 150 153 153 153 153 153 153 153 153 153
153 146 113 51 10 0 5 46 111 144 152 153 153 153 153 153 153 153 153 153 153 153 153 153 153 153 153 153 153 153 153 153 153 152 150 116 61 19 0 0 0 2 18 28 39 46 48 68 86 108 123 138 149 152 153 153 153 153 153 153 153 153 153 153
152 147 124 61 9 1 6 39 103 143 152 153 153 153 153 153 153 153 153 153 153 153 153 153 153 153 153 153 153 153 153 153 153 153 151 138 96 34 7 0 0 4 21 66 93 111 116 125 138 144 150 152 153 153 153 153 153 153 153 153 153 153 153 153
152 152 125 66 18 1 3 34 93 141 152 153 153 153 153 153 153 153 153 153 153 153 153 153 153 153 153 153 153 153 153 153 153 153 153 150 121 76 29 1 0 0 16 51 106 139 146 150 151 152 152 153 153 153 153 153 153 153 153 153 153 153 153 153
153 150 132 79 24 1 4 28 91 137 152 153 153 153 153 153 153 153 153 153 153 153 153 153 153 153 153 153 153 153 153 153 153 153 153 152 146 112 59 22 3 0 1 27 76 121 148 152 153 153 153 153 153 153 153 153 153 153 153 153 153 153 153 153
153 151 140 96 37 12 6 39 92 140 152 153 153 153 153 153 153 153 153 153 153 153 153 153 153 153 153 153 153 153 153 153 153 153 153 153 150 137 107 55 17 4 0 7 37 95 137 150 153 153 153 153 153 153 153 153 153 153 153 153 153 153 153 153
153 153 146 114 60 20 12 37 86 132 152 152 153 153 153 153 153 153 153 153 153 153 153 153 153 153 153 153 153 153 153 153 153 153 153 153 152 152 135 107 59 13 2 0 18 59 115 149 152 153 153 153 153 153 153 153 153 153 153 153 153 153 153 153
153 152 147 125 69 18 6 13 67 126 147 153 153 153 153 153 153 153 153 153 153 153 153 153 153 153 153 153 153 153 153 153 153 153 153 153 153 152 152 137 98 44 7 0 2 31 96 140 151 153 153 153 153 153 153 153 153 153 153 153 153 153 153 153
153 152 149 129 76 24 3 12 49 110 145 152 153 153 153 153 153 153 153 153 153 153 153 153 153 153 153 153 153 153 153 153 153 153 153 153 153 153 152 149 127 63 11 0 0 22 75 131 151 153 153 153 153 153 153 153 153 153 153 153 153 153 153 153
153 153 152 133 90 33 4 6 40 98 144 151 153 153 153 153 153 153 153 153 153 153 153 153 153 153 153 153 153 153 153 153 153 153 153 153 153 153 153 152 134 75 18 1 1 10 72 129 151 152 153 153 153 153 153 153 153 153 153 153 153 153 153 153
153 153 151 144 100 40 5 3 29 84 129 150 152 153 153 153 153 153 153 153 153 153 153 153 153 153 153 153 153 153 153 153 153 153 153 153 153 153 153 152 135 89 25 0 0 21 75 135 150 153 153 153 153 153 153 153 153 153 153 153 153 153 153 153
153 152 152 145 111 53 14 2 18 65 121 147 152 153 153 153 153 153 153 153 153 153 153 153 153 153 153 153 153 153 153 153 153 153 153 153 153 153 153 151 142 79 25 1 1 27 90 134 152 153 153 153 153 153 153 153 153 153 153 153 153 153 153 153
153 153 153 147 127 72 18 4 10 52 111 143 152 153 153 153 153 153 153 153 153 153 153 153 153 153 153 153 153 153 153 153 153 153 153 153 153 153 152 151 111 61 11 1 5 39 97 145 152 153 153 153 153 153 153 153 153 153 153 153 153 153 153 153
153 153 152 151 134 87 33 6 7 36 87 134 152 153 153 153 153 153 153 153 153 153 153 153 153 153 153 153 153 153 153 153 153 153 153 153 153 152 152 121 79 27 4 0 11 52 118 145 153 153 153 153 153 153 153 153 153 153 153 153 153 153 153 153
153 153 153 152 141 103 46 4 2 10 58 116 144 153 153 153 153 153 153 153 153 153 153 153 153 153 153 153 153 153 153 153 153 153 153 153 152 152 125 86 36 9 0 3 28 84 128 152 152 153 153 153 153 153 153 153 153 153 153 153 153 153 153 153
153 153 153 152 146 117 60 17 1 6 28 79 131 150 152 153 153 153 153 153 153 153 153 153 153 153 153 153 153 153 153 153 153 153 153 152 152 128 91 40 11 0 1 19 64 111 148 152 153 153 153 153 153 153 153 153 153 153 153 153 153 153 153 153
153 153 153 153 151 133 93 36 3 0 7 43 90 129 152 152 153 153 153 153 153 153 153 153 153 153 153 153 153 153 153 153 153 153 152 152 131 96 45 12 1 1 14 55 100 142 150 153 153 153 153 153 153 153 153 153 153 153 153 153 153 153 153 153
153 153 153 153 152 149 120 66 22 1 1 6 43 89 122 149 152 152 153 153 153 153 153 153 153 153 153 153 153 153 153 153 153 152 152 134 98 50 13 2 1 10 49 93 138 147 153 153 153 153 153 153 153 153 153 153 153 153 153 153 153 153 153 153
153 153 153 153 153 152 140 105 46 7 0 1 9 33 85 126 147 153 153 153 153 153 153 153 153 153 153 153 153 153 153 152 152 146 130 93 50 12 3 1 6 46 89 134 146 153 153 153 153 153 153 153 153 153 153 153 153 153 153 153 153 153 153 153
153 153 153 153 153 153 152 129 89 39 3 0 0 12 36 91 139 149 153 153 153 153 153 153 153 153 153 153 152 152 149 146 129 113 78 43 7 3 1 3 43 85 130 146 153 153 153 153 153 153 153 153 153 153 153 153 153 153 153 153 153 153 153 153
153 153 153 153 153 153 152 150 127 74 29 6 0 0 15 50 95 131 146 150 152 152 153 152 152 152 152 152 147 139 127 102 77 47 27 2 1 1 4 42 84 126 145 153 153 153 153 153 153 153 153 153 153 153 153 153 153 153 153 153 153 153 153 153
153 153 153 153 153 153 153 152 143 121 67 22 9 0 1 9 45 78 107 131 139 151 149 152 147 142 138 128 116 93 69 41 21 7 0 0 4 9 45 87 128 146 153 153 153 153 153 153 153 153 153 153 153 153 153 153 153 153 153 153 153 153 153 153
153 153 153 153 153 153 153 153 152 140 115 76 31 9 1 1 3 25 48 73 101 113 128 117 112 93 79 66 51 36 12 9 0 0 3 12 28 59 96 131 149 152 153 153 153 153 153 153 153 153 153 153 153 153 153 153 153 153 153 153 153 153 153 153
153 153 153 153 153 153 153 153 152 152 146 120 85 39 7 3 0 1 8 23 36 52 54 52 37 28 13 13 8 2 2 3 3 19 33 61 87 121 137 152 152 153 153 153 153 153 153 153 153 153 153 153 153 153 153 153 153 153 153 153 153 153 153 153
153 153 153 153 153 153 153 153 153 153 152 152 126 94 55 20 12 1 0 0 6 6 9 5 4 0 0 0 0 3 10 22 43 66 96 119 141 146 152 152 153 153 153 153 153 153 153 153 153 153 153 153 153 153 153 153 153 153 153 153 153 153 153 153
153 153 153 153 153 153 153 153 153 153 153 152 152 138 111 84 52 32 16 7 8 4 3 1 1 0 3 4 21 33 57 78 105 122 140 149 152 153 153 153 153 153 153 153 153 153 153 153 153 153 153 153 153 153 153 153 153 153 153 153 153 153 153 153
153 153 153 153 153 153 153 153 153 153 153 153 153 152 152 130 117 88 69 57 46 40 25 25 24 28 33 52 73 99 117 134 141 149 151 153 153 153 153 153 153 153 153 153 153 153 153 153 153 153 153 153 153 153 153 153 153 153 153 153 153 153 153 153
153 153 153 153 153 153 153 153 153 153 153 153 153 153 152 152 144 138 127 125 115 105 95 90 93 99 105 123 131 145 147 150 152 152 153 153 153 153 153 153 153 153 153 153 153 153 153 153 153 153 153 153 153 153 153 153 153 153 153 153 153 153 153 153
153 153 153 153 153 153 153 153 153 153 153 153 153 153 153 152 152 152 150 150 150 147 141 143 142 146 147 149 152 152 152 153 153 153 153 153 153 153 153 153 153 153 153 153 153 153 153 153 153 153 153 153 153 153 153 153 153 153 153 153 153 153 153 153
153 153 153 153 153 153 153 153 153 153 153 153 153 153 153 153 153 153 153 153 153 153 153 152 153 152 153 153 153 153 153 153 153 153 153 153 153 153 153 153 153 153 153 153 153 153 153 153 153 153 153 153 153 153 153 153 153 153 153 153 153 153 153 153
153 153 153 153 153 153 153 153 153 153 153 153 153 153 153 153 153 153 153 153 153 153 153 153 153 153 153 153 153 153 153 153 153 153 153 153 153 153 153 153 153 153 153 153 153 153 153 153 153 153 153 153 153 153 153 153 153 153 153 153 153 153 153 153
