P2
# Created by GIMP version 2.10.32 PNM plug-in
64 64
255
255
255
255
255
255
255
255
255
255
255
255
255
255
255
255
255
255
255
255
255
255
255
255
255
255
255
255
255
255
255
255
255
255
255
255
255
255
255
255
255
255
255
255
255
255
255
255
255
255
255
255
255
255
255
255
255
255
255
255
255
255
255
255
255
255
255
255
255
255
255
255
255
255
255
255
255
255
255
255
255
255
255
255
255
255
255
255
255
255
255
255
255
255
255
255
255
255
255
255
255
255
255
255
255
255
255
255
255
255
255
255
255
255
255
255
255
255
255
255
255
255
255
255
255
255
255
255
255
255
255
255
255
255
255
255
255
255
255
255
255
255
255
255
255
255
255
255
255
255
255
255
255
255
255
255
255
255
255
255
255
255
255
255
255
255
255
255
255
255
255
255
255
255
255
255
255
255
255
255
255
255
255
255
255
255
255
255
255
255
255
255
255
255
255
255
255
255
255
255
255
255
255
255
255
255
255
255
255
255
255
255
255
255
255
255
255
255
255
255
255
255
255
255
255
255
255
255
255
255
255
255
255
255
255
255
255
255
255
255
255
255
255
255
255
255
255
255
255
255
255
255
255
255
255
255
255
255
255
255
255
255
255
255
255
255
255
255
255
255
255
255
255
255
255
255
255
255
255
255
255
255
255
255
255
255
255
255
255
255
255
255
255
255
255
255
255
255
255
255
255
255
255
255
255
255
255
255
255
255
255
255
255
255
255
255
255
255
255
255
255
255
255
255
255
255
255
255
255
255
255
255
255
255
255
255
255
255
255
255
255
255
255
255
255
255
255
255
255
255
255
254
254
254
255
255
255
255
255
255
255
255
255
255
255
255
255
255
255
255
255
255
255
255
255
255
255
255
255
255
255
255
255
255
255
255
255
255
255
255
255
255
255
255
255
255
255
255
255
255
255
255
255
255
255
255
255
255
255
255
255
255
255
251
235
211
200
205
221
235
246
252
254
255
255
255
255
255
255
255
255
255
255
255
255
255
255
255
255
255
255
255
255
255
255
255
255
255
255
255
255
255
255
255
255
255
255
255
255
255
255
255
255
255
255
255
255
255
255
255
255
255
255
255
255
254
243
202
138
91
74
79
97
117
137
163
195
224
243
251
254
255
255
255
255
255
255
255
255
255
255
255
255
255
255
255
255
255
255
255
255
255
255
255
255
255
255
255
255
255
255
255
255
255
255
255
255
255
255
255
255
255
255
255
255
255
255
255
252
228
165
86
29
5
2
2
4
6
12
32
62
91
108
132
179
229
252
255
255
255
255
255
255
255
255
255
255
255
255
255
255
255
255
255
255
255
255
255
255
255
255
255
255
255
255
255
255
255
255
255
255
255
255
255
255
255
255
255
255
255
255
251
216
130
47
7
1
1
1
1
0
0
0
0
1
2
1
3
24
104
211
252
255
255
255
255
255
255
255
255
255
255
255
255
255
255
255
255
255
255
255
255
255
255
255
255
255
255
255
255
255
255
255
255
255
255
255
255
255
255
255
255
255
254
243
198
115
29
2
1
6
36
58
54
37
24
10
4
1
0
0
0
0
5
104
211
250
255
255
255
255
255
255
255
255
255
255
255
255
255
255
255
255
255
255
255
255
255
255
255
255
255
255
255
255
255
255
255
255
255
255
255
255
255
255
255
255
244
180
87
27
4
1
18
75
153
188
186
170
155
131
99
50
3
0
0
0
0
25
111
203
250
255
255
255
255
255
255
255
255
255
255
255
255
255
255
255
255
255
255
255
255
255
255
255
255
255
255
255
255
255
255
255
255
255
255
255
255
255
255
249
192
78
11
0
14
43
108
190
243
253
254
254
252
244
224
180
96
24
2
1
2
3
28
107
210
252
255
255
255
255
255
255
255
255
255
255
255
255
255
255
255
255
255
255
255
255
255
255
255
255
255
255
255
255
255
255
255
255
255
255
255
255
250
202
99
20
3
15
81
163
220
248
255
255
255
255
255
255
255
251
229
177
124
91
52
9
3
31
130
227
254
255
255
255
255
255
255
255
255
255
255
255
255
255
255
255
255
255
255
255
255
255
255
255
255
255
255
255
255
255
255
255
255
255
255
249
194
87
19
3
16
85
188
247
255
255
255
255
255
255
255
255
255
255
255
254
251
234
158
51
4
3
54
172
245
255
255
255
255
255
255
255
255
255
255
255
255
255
255
255
255
255
255
255
255
255
255
255
255
255
255
255
255
255
255
255
255
255
255
219
98
8
0
4
64
178
244
255
255
255
255
255
255
255
255
255
255
255
255
255
255
254
227
121
22
1
10
110
224
255
255
255
255
255
255
255
255
255
255
255
255
255
255
255
255
255
255
255
255
255
255
255
255
255
255
255
255
255
255
255
255
255
252
175
39
0
0
23
138
236
254
255
255
255
255
255
255
255
255
255
255
255
255
255
255
255
251
184
59
2
2
64
195
254
255
255
255
255
255
255
255
255
255
255
255
255
255
255
255
255
255
255
255
255
255
255
255
255
255
255
255
255
255
255
255
255
244
139
18
0
1
70
205
253
255
255
255
255
255
255
255
255
255
255
255
255
255
255
255
255
255
224
99
4
0
33
166
254
255
255
255
255
255
255
255
255
255
255
255
255
255
255
255
255
255
255
255
255
255
255
255
255
255
255
255
255
255
255
255
255
224
102
5
0
21
136
241
255
255
255
255
255
255
255
255
255
255
255
255
255
255
255
255
255
255
244
126
7
0
14
149
253
255
255
255
255
255
255
255
255
255
255
255
255
255
255
255
255
255
255
255
255
255
255
255
255
255
255
255
255
255
255
255
254
196
66
2
1
60
190
253
255
255
255
255
255
255
255
255
255
255
255
255
255
255
255
255
255
255
252
139
9
0
10
143
253
255
255
255
255
255
255
255
255
255
255
255
255
255
255
255
255
255
255
255
255
255
255
255
255
255
255
255
255
255
255
255
254
173
40
0
3
91
218
255
255
255
255
255
255
255
255
255
255
255
255
255
255
255
255
255
255
255
253
142
10
0
10
142
253
255
255
255
255
255
255
255
255
255
255
255
255
255
255
255
255
255
255
255
255
255
255
255
255
255
255
255
255
255
255
255
254
165
33
0
5
103
227
255
255
255
255
255
255
255
255
255
255
255
255
255
255
255
255
255
255
255
253
142
10
0
10
142
253
255
255
255
255
255
255
255
255
255
255
255
255
255
255
255
255
255
255
255
255
255
255
255
255
255
255
255
255
255
255
255
254
171
39
0
4
94
219
255
255
255
255
255
255
255
255
255
255
255
255
255
255
255
255
255
255
255
253
142
10
0
10
142
253
255
255
255
255
255
255
255
255
255
255
255
255
255
255
255
255
255
255
255
255
255
255
255
255
255
255
255
255
255
255
255
254
187
56
1
2
75
204
254
255
255
255
255
255
255
255
255
255
255
255
255
255
255
255
255
255
255
250
134
8
0
11
144
253
255
255
255
255
255
255
255
255
255
255
255
255
255
255
255
255
255
255
255
255
255
255
255
255
255
255
255
255
255
255
255
254
205
78
2
1
53
182
253
255
255
255
255
255
255
255
255
255
255
255
255
255
255
255
255
255
255
232
103
4
0
16
153
253
255
255
255
255
255
255
255
255
255
255
255
255
255
255
255
255
255
255
255
255
255
255
255
255
255
255
255
255
255
255
255
255
226
106
6
0
20
135
241
255
255
255
255
255
255
255
255
255
255
255
255
255
255
255
255
255
253
191
54
0
0
32
170
254
255
255
255
255
255
255
255
255
255
255
255
255
255
255
255
255
255
255
255
255
255
255
255
255
255
255
255
255
255
255
255
255
244
139
18
0
1
70
205
253
255
255
255
255
255
255
255
255
255
255
255
255
255
255
255
255
236
119
11
0
0
47
186
253
255
255
255
255
255
255
255
255
255
255
255
255
255
255
255
255
255
255
255
255
255
255
255
255
255
255
255
255
255
255
255
255
252
175
39
0
0
23
144
241
255
255
255
255
255
255
255
255
255
255
255
255
255
255
255
249
168
36
0
0
3
93
220
255
255
255
255
255
255
255
255
255
255
255
255
255
255
255
255
255
255
255
255
255
255
255
255
255
255
255
255
255
255
255
255
255
255
219
96
6
0
4
68
154
217
248
253
255
255
255
255
255
255
255
255
255
255
255
249
200
73
2
0
0
31
166
247
255
255
255
255
255
255
255
255
255
255
255
255
255
255
255
255
255
255
255
255
255
255
255
255
255
255
255
255
255
255
255
255
255
255
248
187
75
8
2
13
36
90
151
186
220
246
253
252
254
255
254
254
252
244
223
173
93
19
0
0
6
105
228
255
255
255
255
255
255
255
255
255
255
255
255
255
255
255
255
255
255
255
255
255
255
255
255
255
255
255
255
255
255
255
255
255
255
255
255
244
184
83
23
2
1
5
27
44
77
114
131
136
162
195
200
182
156
129
96
51
15
3
6
31
100
203
251
255
255
255
255
255
255
255
255
255
255
255
255
255
255
255
255
255
255
255
255
255
255
255
255
255
255
255
255
255
255
255
255
255
255
255
255
254
244
194
106
27
2
0
0
0
0
2
3
5
19
53
65
45
22
8
4
1
0
14
73
157
222
251
255
255
255
255
255
255
255
255
255
255
255
255
255
255
255
255
255
255
255
255
255
255
255
255
255
255
255
255
255
255
255
255
255
255
255
255
255
255
255
245
197
105
28
1
0
0
0
0
0
0
0
0
1
0
0
0
0
2
19
89
188
242
254
255
255
255
255
255
255
255
255
255
255
255
255
255
255
255
255
255
255
255
255
255
255
255
255
255
255
255
255
255
255
255
255
255
255
255
255
255
255
252
232
183
119
60
15
1
0
0
0
0
0
0
0
0
0
0
0
0
14
55
117
201
248
255
255
255
255
255
255
255
255
255
255
255
255
255
255
255
255
255
255
255
255
255
255
255
255
255
255
255
255
255
255
255
255
255
255
255
255
255
255
255
250
210
132
58
13
2
1
1
2
2
3
3
6
12
12
5
0
0
0
2
23
65
129
207
248
255
255
255
255
255
255
255
255
255
255
255
255
255
255
255
255
255
255
255
255
255
255
255
255
255
255
255
255
255
255
255
255
255
255
255
255
255
255
249
193
87
20
2
0
1
9
46
88
114
126
130
145
157
131
58
6
1
0
0
1
4
28
76
144
215
249
255
255
255
255
255
255
255
255
255
255
255
255
255
255
255
255
255
255
255
255
255
255
255
255
255
255
255
255
255
255
255
255
255
255
255
252
206
87
5
0
1
9
51
106
167
213
235
246
251
253
254
235
172
96
48
17
6
3
1
1
1
17
95
204
252
255
255
255
255
255
255
255
255
255
255
255
255
255
255
255
255
255
255
255
255
255
255
255
255
255
255
255
255
255
255
255
255
255
255
235
137
22
0
0
15
90
177
223
245
253
255
255
255
255
255
252
236
209
181
147
114
78
33
1
0
0
10
114
227
254
255
255
255
255
255
255
255
255
255
255
255
255
255
255
255
255
255
255
255
255
255
255
255
255
255
255
255
255
255
255
255
255
254
209
82
2
0
4
79
199
251
255
255
255
255
255
255
255
255
255
255
254
254
250
235
204
141
45
1
0
0
35
158
242
255
255
255
255
255
255
255
255
255
255
255
255
255
255
255
255
255
255
255
255
255
255
255
255
255
255
255
255
255
255
255
255
254
184
47
0
0
31
155
247
255
255
255
255
255
255
255
255
255
255
255
255
255
255
255
253
239
169
58
4
0
2
75
205
253
255
255
255
255
255
255
255
255
255
255
255
255
255
255
255
255
255
255
255
255
255
255
255
255
255
255
255
255
255
255
255
253
166
28
0
0
44
183
253
255
255
255
255
255
255
255
255
255
255
255
255
255
255
255
255
255
247
156
31
0
0
27
159
247
255
255
255
255
255
255
255
255
255
255
255
255
255
255
255
255
255
255
255
255
255
255
255
255
255
255
255
255
255
255
255
254
160
25
0
1
67
206
255
255
255
255
255
255
255
255
255
255
255
255
255
255
255
255
255
255
255
219
83
2
0
8
128
241
255
255
255
255
255
255
255
255
255
255
255
255
255
255
255
255
255
255
255
255
255
255
255
255
255
255
255
255
255
255
255
254
162
28
0
3
98
226
255
255
255
255
255
255
255
255
255
255
255
255
255
255
255
255
255
255
255
247
140
15
0
5
105
229
255
255
255
255
255
255
255
255
255
255
255
255
255
255
255
255
255
255
255
255
255
255
255
255
255
255
255
255
255
255
255
254
162
30
0
5
110
230
255
255
255
255
255
255
255
255
255
255
255
255
255
255
255
255
255
255
255
254
181
47
1
3
81
209
254
255
255
255
255
255
255
255
255
255
255
255
255
255
255
255
255
255
255
255
255
255
255
255
255
255
255
255
255
255
255
254
164
32
0
5
107
228
255
255
255
255
255
255
255
255
255
255
255
255
255
255
255
255
255
255
255
254
203
74
2
1
57
188
254
255
255
255
255
255
255
255
255
255
255
255
255
255
255
255
255
255
255
255
255
255
255
255
255
255
255
255
255
255
255
254
171
39
0
4
94
219
255
255
255
255
255
255
255
255
255
255
255
255
255
255
255
255
255
255
255
255
219
94
4
0
39
171
254
255
255
255
255
255
255
255
255
255
255
255
255
255
255
255
255
255
255
255
255
255
255
255
255
255
255
255
255
255
255
254
186
54
1
2
79
205
254
255
255
255
255
255
255
255
255
255
255
255
255
255
255
255
255
255
255
255
228
107
5
0
32
164
254
255
255
255
255
255
255
255
255
255
255
255
255
255
255
255
255
255
255
255
255
255
255
255
255
255
255
255
255
255
255
254
196
67
2
2
67
195
254
255
255
255
255
255
255
255
255
255
255
255
255
255
255
255
255
255
255
255
228
107
5
0
32
164
254
255
255
255
255
255
255
255
255
255
255
255
255
255
255
255
255
255
255
255
255
255
255
255
255
255
255
255
255
255
255
254
206
81
3
1
51
181
253
255
255
255
255
255
255
255
255
255
255
255
255
255
255
255
255
255
255
255
219
94
4
0
39
171
254
255
255
255
255
255
255
255
255
255
255
255
255
255
255
255
255
255
255
255
255
255
255
255
255
255
255
255
255
255
255
255
226
108
7
0
26
147
245
255
255
255
255
255
255
255
255
255
255
255
255
255
255
255
255
255
255
254
204
75
2
1
56
187
254
255
255
255
255
255
255
255
255
255
255
255
255
255
255
255
255
255
255
255
255
255
255
255
255
255
255
255
255
255
255
255
245
147
26
0
7
107
226
255
255
255
255
255
255
255
255
255
255
255
255
255
255
255
255
255
255
251
176
51
1
3
78
205
254
255
255
255
255
255
255
255
255
255
255
255
255
255
255
255
255
255
255
255
255
255
255
255
255
255
255
255
255
255
255
255
253
183
55
1
3
71
193
251
255
255
255
255
255
255
255
255
255
255
255
255
255
255
255
255
255
230
117
17
1
10
114
226
255
255
255
255
255
255
255
255
255
255
255
255
255
255
255
255
255
255
255
255
255
255
255
255
255
255
255
255
255
255
255
255
254
210
92
6
2
32
138
234
255
255
255
255
255
255
255
255
255
255
255
255
255
255
255
255
246
157
39
1
1
44
168
245
255
255
255
255
255
255
255
255
255
255
255
255
255
255
255
255
255
255
255
255
255
255
255
255
255
255
255
255
255
255
255
255
255
235
150
41
3
4
71
188
251
255
255
255
255
255
255
255
255
255
255
255
255
255
255
248
181
50
1
0
2
89
218
253
255
255
255
255
255
255
255
255
255
255
255
255
255
255
255
255
255
255
255
255
255
255
255
255
255
255
255
255
255
255
255
255
255
251
211
101
12
1
26
114
211
249
254
255
255
255
255
255
255
255
255
255
255
251
233
176
68
2
0
0
19
151
245
255
255
255
255
255
255
255
255
255
255
255
255
255
255
255
255
255
255
255
255
255
255
255
255
255
255
255
255
255
255
255
255
255
255
255
245
172
60
6
8
39
101
166
208
235
251
253
254
254
254
254
253
244
223
179
119
57
8
0
0
5
93
218
254
255
255
255
255
255
255
255
255
255
255
255
255
255
255
255
255
255
255
255
255
255
255
255
255
255
255
255
255
255
255
255
255
255
255
255
254
228
151
62
18
6
16
45
84
129
164
173
183
193
196
191
169
131
94
50
12
2
0
1
10
82
197
251
255
255
255
255
255
255
255
255
255
255
255
255
255
255
255
255
255
255
255
255
255
255
255
255
255
255
255
255
255
255
255
255
255
255
255
255
255
252
230
170
81
16
0
1
4
19
33
35
46
61
67
58
34
11
3
1
0
1
8
45
115
203
249
255
255
255
255
255
255
255
255
255
255
255
255
255
255
255
255
255
255
255
255
255
255
255
255
255
255
255
255
255
255
255
255
255
255
255
255
255
255
255
254
243
188
89
20
3
1
0
0
0
0
1
2
1
0
0
0
1
12
51
107
172
227
252
255
255
255
255
255
255
255
255
255
255
255
255
255
255
255
255
255
255
255
255
255
255
255
255
255
255
255
255
255
255
255
255
255
255
255
255
255
255
255
255
255
255
248
204
133
81
41
6
1
0
0
1
2
1
0
0
7
54
119
179
223
245
254
255
255
255
255
255
255
255
255
255
255
255
255
255
255
255
255
255
255
255
255
255
255
255
255
255
255
255
255
255
255
255
255
255
255
255
255
255
255
255
255
255
255
255
255
252
235
204
162
104
57
38
46
61
67
63
57
62
108
180
233
251
255
255
255
255
255
255
255
255
255
255
255
255
255
255
255
255
255
255
255
255
255
255
255
255
255
255
255
255
255
255
255
255
255
255
255
255
255
255
255
255
255
255
255
255
255
255
255
255
255
253
245
223
193
176
183
193
196
195
193
202
229
250
255
255
255
255
255
255
255
255
255
255
255
255
255
255
255
255
255
255
255
255
255
255
255
255
255
255
255
255
255
255
255
255
255
255
255
255
255
255
255
255
255
255
255
255
255
255
255
255
255
255
255
255
255
255
254
253
254
254
254
254
254
254
255
255
255
255
255
255
255
255
255
255
255
255
255
255
255
255
255
255
255
255
255
255
255
255
255
255
255
255
255
255
255
255
255
255
255
255
255
255
255
255
255
255
255
255
255
255
255
255
255
255
255
255
255
255
255
255
255
255
255
255
255
255
255
255
255
255
255
255
255
255
255
255
255
255
255
255
255
255
255
255
255
255
255
255
255
255
255
255
255
255
255
