P2
64 64
255
255 255 255 255 255 255 255 255 255 255 255 255 255 255 255 255 255 255 255 255 255 255 255 255 253 231 194 161 139 127 129 142 163 190 216 238 252 255 255 255 255 255 255 255 255 255 255 255 255 255 255 255 255 255 255 255 255 255 255 255 255 255 255 255
255 255 255 255 255 255 255 255 255 255 255 255 255 255 255 255 255 255 255 255 255 255 255 253 226 165 96 47 31 30 38 51 69 95 134 181 226 249 255 255 255 255 255 255 255 255 255 255 255 255 255 255 255 255 255 255 255 255 255 255 255 255 255 255
255 255 255 255 255 255 255 255 255 255 255 255 255 255 255 255 255 255 255 255 255 255 255 234 168 72 13 6 5 3 2 3 5 12 34 76 129 180 219 244 255 255 255 255 255 255 255 255 255 255 255 255 255 255 255 255 255 255 255 255 255 255 255 255
255 255 255 255 255 255 255 255 255 255 255 255 255 255 255 255 255 255 255 255 255 255 245 191 90 18 1 0 2 8 9 5 2 0 5 19 45 90 143 193 232 253 255 255 255 255 255 255 255 255 255 255 255 255 255 255 255 255 255 255 255 255 255 255
255 255 255 255 255 255 255 255 255 255 255 255 255 255 255 255 255 255 255 255 255 250 213 127 39 3 0 9 32 51 48 31 16 6 2 2 7 24 56 102 165 221 250 255 255 255 255 255 255 255 255 255 255 255 255 255 255 255 255 255 255 255 255 255
255 255 255 255 255 255 255 255 255 255 255 255 255 255 255 255 255 255 255 255 255 225 145 62 13 1 14 51 108 151 158 140 112 77 44 20 6 1 3 20 67 129 188 232 253 255 255 255 255 255 255 255 255 255 255 255 255 255 255 255 255 255 255 255
255 255 255 255 255 255 255 255 255 255 255 255 255 255 255 255 255 255 255 255 240 164 73 20 5 17 62 138 214 241 237 225 203 170 124 73 29 4 1 4 18 48 103 180 239 255 255 255 255 255 255 255 255 255 255 255 255 255 255 255 255 255 255 255
255 255 255 255 255 255 255 255 255 255 255 255 255 255 255 255 255 255 255 255 201 95 23 4 16 66 151 223 250 255 255 255 253 241 214 171 116 65 24 4 1 4 32 114 211 253 255 255 255 255 255 255 255 255 255 255 255 255 255 255 255 255 255 255
255 255 255 255 255 255 255 255 255 255 255 255 255 255 255 255 255 255 255 236 145 37 1 4 53 151 224 251 255 255 255 255 255 255 255 239 205 143 63 12 0 0 5 71 183 247 255 255 255 255 255 255 255 255 255 255 255 255 255 255 255 255 255 255
255 255 255 255 255 255 255 255 255 255 255 255 255 255 255 255 255 255 248 195 87 8 1 20 115 217 252 255 255 255 255 255 255 255 255 255 246 197 94 19 0 0 4 56 159 236 255 255 255 255 255 255 255 255 255 255 255 255 255 255 255 255 255 255
255 255 255 255 255 255 255 255 255 255 255 255 255 255 255 255 255 255 226 143 44 1 9 66 176 247 255 255 255 255 255 255 255 255 255 255 255 225 118 23 0 0 1 30 117 209 251 255 255 255 255 255 255 255 255 255 255 255 255 255 255 255 255 255
255 255 255 255 255 255 255 255 255 255 255 255 255 255 255 255 255 247 191 91 16 3 31 121 218 255 255 255 255 255 255 255 255 255 255 255 255 242 169 68 14 2 1 8 61 158 235 255 255 255 255 255 255 255 255 255 255 255 255 255 255 255 255 255
255 255 255 255 255 255 255 255 255 255 255 255 255 255 255 255 255 233 150 50 4 13 71 171 243 255 255 255 255 255 255 255 255 255 255 255 255 253 221 148 77 35 11 1 13 77 185 245 255 255 255 255 255 255 255 255 255 255 255 255 255 255 255 255
255 255 255 255 255 255 255 255 255 255 255 255 255 255 255 255 255 214 112 27 2 30 116 210 254 255 255 255 255 255 255 255 255 255 255 255 255 255 248 217 164 105 41 3 1 20 120 225 255 255 255 255 255 255 255 255 255 255 255 255 255 255 255 255
255 255 255 255 255 255 255 255 255 255 255 255 255 255 255 255 255 191 74 11 2 54 158 236 255 255 255 255 255 255 255 255 255 255 255 255 255 255 255 254 237 196 104 16 0 4 70 203 255 255 255 255 255 255 255 255 255 255 255 255 255 255 255 255
255 255 255 255 255 255 255 255 255 255 255 255 255 255 255 255 251 164 44 3 5 83 197 251 255 255 255 255 255 255 255 255 255 255 255 255 255 255 255 255 255 240 162 43 0 4 47 180 255 255 255 255 255 255 255 255 255 255 255 255 255 255 255 255
255 255 255 255 255 255 255 255 255 255 255 255 255 255 255 255 238 131 23 1 11 113 224 255 255 255 255 255 255 255 255 255 255 255 255 255 255 255 255 255 255 251 193 73 3 3 43 167 254 255 255 255 255 255 255 255 255 255 255 255 255 255 255 255
255 255 255 255 255 255 255 255 255 255 255 255 255 255 255 255 215 90 7 0 24 143 241 255 255 255 255 255 255 255 255 255 255 255 255 255 255 255 255 255 255 255 212 102 12 2 38 151 245 255 255 255 255 255 255 255 255 255 255 255 255 255 255 255
255 255 255 255 255 255 255 255 255 255 255 255 255 255 255 251 181 51 0 0 32 167 252 255 255 255 255 255 255 255 255 255 255 255 255 255 255 255 255 255 255 255 227 129 29 1 32 132 231 255 255 255 255 255 255 255 255 255 255 255 255 255 255 255
255 255 255 255 255 255 255 255 255 255 255 255 255 255 255 242 154 33 0 3 46 180 255 255 255 255 255 255 255 255 255 255 255 255 255 255 255 255 255 255 255 255 237 146 39 1 25 118 220 255 255 255 255 255 255 255 255 255 255 255 255 255 255 255
255 255 255 255 255 255 255 255 255 255 255 255 255 255 255 236 145 30 0 7 62 190 255 255 255 255 255 255 255 255 255 255 255 255 255 255 255 255 255 255 255 255 241 149 40 1 21 112 217 255 255 255 255 255 255 255 255 255 255 255 255 255 255 255
255 255 255 255 255 255 255 255 255 255 255 255 255 255 255 230 132 27 0 12 80 202 255 255 255 255 255 255 255 255 255 255 255 255 255 255 255 255 255 255 255 255 243 150 37 1 18 114 220 255 255 255 255 255 255 255 255 255 255 255 255 255 255 255
255 255 255 255 255 255 255 255 255 255 255 255 255 255 255 220 117 22 0 15 93 208 255 255 255 255 255 255 255 255 255 255 255 255 255 255 255 255 255 255 255 255 247 152 34 2 15 115 223 255 255 255 255 255 255 255 255 255 255 255 255 255 255 255
255 255 255 255 255 255 255 255 255 255 255 255 255 255 255 213 102 18 0 17 102 213 255 255 255 255 255 255 255 255 255 255 255 255 255 255 255 255 255 255 255 255 252 156 33 2 8 112 224 255 255 255 255 255 255 255 255 255 255 255 255 255 255 255
255 255 255 255 255 255 255 255 255 255 255 255 255 255 255 211 97 17 0 25 120 221 255 255 255 255 255 255 255 255 255 255 255 255 255 255 255 255 255 255 255 255 251 158 29 0 5 109 227 255 255 255 255 255 255 255 255 255 255 255 255 255 255 255
255 255 255 255 255 255 255 255 255 255 255 255 255 255 255 213 99 18 0 35 139 231 255 255 255 255 255 255 255 255 255 255 255 255 255 255 255 255 255 255 255 255 245 155 32 0 9 107 230 255 255 255 255 255 255 255 255 255 255 255 255 255 255 255
255 255 255 255 255 255 255 255 255 255 255 255 255 255 255 218 104 17 1 38 149 236 255 255 255 255 255 255 255 255 255 255 255 255 255 255 255 255 255 255 255 255 240 154 38 0 16 107 225 255 255 255 255 255 255 255 255 255 255 255 255 255 255 255
255 255 255 255 255 255 255 255 255 255 255 255 255 255 255 232 118 18 1 28 141 235 255 255 255 255 255 255 255 255 255 255 255 255 255 255 255 255 255 255 255 255 236 150 40 1 20 107 218 255 255 255 255 255 255 255 255 255 255 255 255 255 255 255
255 255 255 255 255 255 255 255 255 255 255 255 255 255 255 241 133 17 0 7 114 228 255 255 255 255 255 255 255 255 255 255 255 255 255 255 255 255 255 255 255 255 230 138 37 1 25 114 219 255 255 255 255 255 255 255 255 255 255 255 255 255 255 255
255 255 255 255 255 255 255 255 255 255 255 255 255 255 255 242 143 22 0 5 80 214 255 255 255 255 255 255 255 255 255 255 255 255 255 255 255 255 255 255 255 255 218 117 27 1 35 131 226 255 255 255 255 255 255 255 255 255 255 255 255 255 255 255
255 255 255 255 255 255 255 255 255 255 255 255 255 255 255 240 148 29 0 5 57 184 253 255 255 255 255 255 255 255 255 255 255 255 255 255 255 255 255 255 255 255 202 89 15 2 49 154 236 255 255 255 255 255 255 255 255 255 255 255 255 255 255 255
255 255 255 255 255 255 255 255 255 255 255 255 255 255 255 243 168 51 1 3 38 144 238 255 255 255 255 255 255 255 255 255 255 255 255 255 255 255 255 255 255 255 190 68 8 2 65 177 245 255 255 255 255 255 255 255 255 255 255 255 255 255 255 255
255 255 255 255 255 255 255 255 255 255 255 255 255 255 255 250 200 98 20 3 21 95 197 244 255 255 255 255 255 255 255 255 255 255 255 255 255 255 255 255 255 253 171 51 5 3 78 194 250 255 255 255 255 255 255 255 255 255 255 255 255 255 255 255
255 255 255 255 255 255 255 255 255 255 255 255 255 255 255 255 232 156 62 11 9 47 116 174 214 240 252 255 255 255 255 255 255 255 255 255 255 255 255 255 239 195 107 27 2 7 93 205 251 255 255 255 255 255 255 255 255 255 255 255 255 255 255 255
255 255 255 255 255 255 255 255 255 255 255 255 255 255 255 255 253 213 126 39 9 17 46 87 136 185 221 246 255 255 255 255 255 255 255 255 255 253 237 207 161 100 35 4 0 19 128 227 255 255 255 255 255 255 255 255 255 255 255 255 255 255 255 255
255 255 255 255 255 255 255 255 255 255 255 255 255 255 255 255 255 245 184 94 35 12 9 21 47 86 129 168 194 209 223 232 239 244 247 243 224 194 158 118 70 23 0 0 8 74 189 249 255 255 255 255 255 255 255 255 255 255 255 255 255 255 255 255
255 255 255 255 255 255 255 255 255 255 255 255 255 255 255 255 255 254 228 165 96 38 9 1 1 11 31 64 95 122 145 165 181 187 173 150 128 100 68 37 11 0 0 6 52 152 234 255 255 255 255 255 255 255 255 255 255 255 255 255 255 255 255 255
255 255 255 255 255 255 255 255 255 255 255 255 255 255 255 255 255 255 251 226 174 98 33 5 1 1 3 12 24 36 50 62 72 75 66 54 43 27 9 1 1 1 9 46 127 214 255 255 255 255 255 255 255 255 255 255 255 255 255 255 255 255 255 255
255 255 255 255 255 255 255 255 255 255 255 255 255 255 255 255 255 255 255 255 237 189 123 67 21 3 0 0 0 1 2 9 16 18 12 5 2 1 0 0 6 24 59 117 194 246 255 255 255 255 255 255 255 255 255 255 255 255 255 255 255 255 255 255
255 255 255 255 255 255 255 255 255 255 255 255 255 255 255 255 255 255 255 255 255 240 205 133 40 4 0 1 3 1 1 2 1 1 2 5 6 1 0 0 4 24 70 139 207 247 255 255 255 255 255 255 255 255 255 255 255 255 255 255 255 255 255 255
255 255 255 255 255 255 255 255 255 255 255 255 255 255 255 255 255 255 255 255 255 255 239 154 39 2 0 11 46 54 44 35 29 25 25 31 42 33 10 1 1 10 34 76 133 198 242 255 255 255 255 255 255 255 255 255 255 255 255 255 255 255 255 255
255 255 255 255 255 255 255 255 255 255 255 255 255 255 255 255 255 255 255 255 255 255 223 121 20 0 4 60 137 148 128 112 99 98 113 137 147 115 58 22 8 2 1 6 36 101 184 240 255 255 255 255 255 255 255 255 255 255 255 255 255 255 255 255
255 255 255 255 255 255 255 255 255 255 255 255 255 255 255 255 255 255 255 255 255 244 180 69 4 4 33 127 212 226 215 207 203 204 214 224 224 193 133 79 41 10 1 1 6 35 112 204 250 255 255 255 255 255 255 255 255 255 255 255 255 255 255 255
255 255 255 255 255 255 255 255 255 255 255 255 255 255 255 255 255 255 255 255 255 223 128 30 1 16 84 189 250 255 255 255 250 247 251 255 255 244 215 179 139 88 40 8 0 3 44 151 237 255 255 255 255 255 255 255 255 255 255 255 255 255 255 255
255 255 255 255 255 255 255 255 255 255 255 255 255 255 255 255 255 255 255 255 249 190 82 10 3 40 138 231 255 255 255 255 255 255 255 255 255 255 255 246 225 183 124 48 6 0 5 94 214 254 255 255 255 255 255 255 255 255 255 255 255 255 255 255
255 255 255 255 255 255 255 255 255 255 255 255 255 255 255 255 255 255 255 255 235 152 50 3 12 76 185 251 255 255 255 255 255 255 255 255 255 255 255 255 254 240 206 122 22 0 0 54 187 250 255 255 255 255 255 255 255 255 255 255 255 255 255 255
255 255 255 255 255 255 255 255 255 255 255 255 255 255 255 255 255 255 255 255 216 114 28 1 29 120 218 255 255 255 255 255 255 255 255 255 255 255 255 255 255 255 252 200 71 3 0 27 155 246 255 255 255 255 255 255 255 255 255 255 255 255 255 255
255 255 255 255 255 255 255 255 255 255 255 255 255 255 255 255 255 255 255 255 194 76 13 2 52 158 236 255 255 255 255 255 255 255 255 255 255 255 255 255 255 255 255 228 122 21 1 19 125 235 255 255 255 255 255 255 255 255 255 255 255 255 255 255
255 255 255 255 255 255 255 255 255 255 255 255 255 255 255 255 255 255 255 255 172 44 4 4 81 194 249 255 255 255 255 255 255 255 255 255 255 255 255 255 255 255 255 235 145 36 1 19 108 220 255 255 255 255 255 255 255 255 255 255 255 255 255 255
255 255 255 255 255 255 255 255 255 255 255 255 255 255 255 255 255 255 255 255 154 24 1 6 107 224 255 255 255 255 255 255 255 255 255 255 255 255 255 255 255 255 255 234 148 41 1 22 107 216 255 255 255 255 255 255 255 255 255 255 255 255 255 255
255 255 255 255 255 255 255 255 255 255 255 255 255 255 255 255 255 255 255 253 142 11 0 8 129 243 255 255 255 255 255 255 255 255 255 255 255 255 255 255 255 255 255 229 137 38 2 27 117 219 255 255 255 255 255 255 255 255 255 255 255 255 255 255
255 255 255 255 255 255 255 255 255 255 255 255 255 255 255 255 255 255 255 242 129 9 0 15 145 255 255 255 255 255 255 255 255 255 255 255 255 255 255 255 255 255 255 221 122 30 2 34 130 226 255 255 255 255 255 255 255 255 255 255 255 255 255 255
255 255 255 255 255 255 255 255 255 255 255 255 255 255 255 255 255 255 255 232 117 8 1 27 156 255 255 255 255 255 255 255 255 255 255 255 255 255 255 255 255 255 255 210 100 21 1 44 147 233 255 255 255 255 255 255 255 255 255 255 255 255 255 255
255 255 255 255 255 255 255 255 255 255 255 255 255 255 255 255 255 255 255 220 104 7 2 39 167 255 255 255 255 255 255 255 255 255 255 255 255 255 255 255 255 255 255 189 71 11 2 61 170 241 255 255 255 255 255 255 255 255 255 255 255 255 255 255
255 255 255 255 255 255 255 255 255 255 255 255 255 255 255 255 255 255 255 211 93 6 3 51 176 255 255 255 255 255 255 255 255 255 255 255 255 255 255 255 255 255 249 155 39 3 5 86 199 250 255 255 255 255 255 255 255 255 255 255 255 255 255 255
255 255 255 255 255 255 255 255 255 255 255 255 255 255 255 255 255 255 255 205 86 7 3 58 178 254 255 255 255 255 255 255 255 255 255 255 255 255 255 255 255 254 214 103 13 0 12 118 228 255 255 255 255 255 255 255 255 255 255 255 255 255 255 255
255 255 255 255 255 255 255 255 255 255 255 255 255 255 255 255 255 255 255 207 92 14 2 54 170 247 255 255 255 255 255 255 255 255 255 255 255 255 255 255 253 221 143 45 1 0 35 160 248 255 255 255 255 255 255 255 255 255 255 255 255 255 255 255
255 255 255 255 255 255 255 255 255 255 255 255 255 255 255 255 255 255 255 220 109 22 1 43 151 238 255 255 255 255 255 255 255 255 255 255 255 255 255 255 232 162 64 5 0 10 84 203 255 255 255 255 255 255 255 255 255 255 255 255 255 255 255 255
255 255 255 255 255 255 255 255 255 255 255 255 255 255 255 255 255 255 255 233 130 29 2 27 127 227 255 255 255 255 255 255 255 255 255 255 255 255 255 240 186 91 16 0 5 41 141 234 255 255 255 255 255 255 255 255 255 255 255 255 255 255 255 255
255 255 255 255 255 255 255 255 255 255 255 255 255 255 255 255 255 255 255 244 156 40 4 13 89 194 247 255 255 255 255 255 255 255 255 255 255 255 243 200 119 37 3 3 28 99 195 251 255 255 255 255 255 255 255 255 255 255 255 255 255 255 255 255
255 255 255 255 255 255 255 255 255 255 255 255 255 255 255 255 255 255 255 252 190 69 8 4 40 136 223 255 255 255 255 255 255 255 255 255 255 244 202 125 49 11 4 29 88 171 236 255 255 255 255 255 255 255 255 255 255 255 255 255 255 255 255 255
255 255 255 255 255 255 255 255 255 255 255 255 255 255 255 255 255 255 255 255 225 123 23 1 10 70 178 241 254 255 255 255 255 255 255 254 244 204 122 49 14 9 32 91 171 232 255 255 255 255 255 255 255 255 255 255 255 255 255 255 255 255 255 255
255 255 255 255 255 255 255 255 255 255 255 255 255 255 255 255 255 255 255 255 242 173 57 1 0 19 101 183 203 213 219 227 232 236 236 230 189 114 47 12 8 35 94 175 237 255 255 255 255 255 255 255 255 255 255 255 255 255 255 255 255 255 255 255
255 255 255 255 255 255 255 255 255 255 255 255 255 255 255 255 255 255 255 255 252 209 102 15 1 3 29 76 104 123 138 153 164 167 155 131 87 38 9 4 30 96 179 236 254 255 255 255 255 255 255 255 255 255 255 255 255 255 255 255 255 255 255 255
