P2
64 64
255
255 255 255 255 255 255 255 255 255 255 255 255 255 255 255 255 255 255 255 255 255 255 255 255 255 255 255 255 255 255 255 255 255 255 255 255 255 255 255 255 255 255 255 255 255 255 255 255 255 255 255 255 255 255 255 255 255 255 255 255 255 255 255 255
255 255 255 255 255 255 255 255 255 255 255 255 255 255 255 255 255 255 255 255 255 255 255 255 255 255 255 255 255 255 255 255 255 255 255 255 255 255 255 255 255 255 255 255 255 255 255 255 255 255 255 255 255 255 255 255 255 255 255 255 255 255 255 255
255 255 255 255 255 255 255 255 255 255 255 255 255 255 255 255 255 255 255 255 255 255 255 255 255 255 255 255 255 255 255 255 255 255 255 255 255 255 255 255 255 255 255 255 255 255 255 255 255 255 255 255 255 255 255 255 255 255 255 255 255 255 255 255
255 255 255 255 255 255 255 255 255 255 255 255 255 255 255 255 255 255 255 255 255 255 255 255 255 255 255 255 255 255 255 255 255 255 255 255 255 255 255 255 255 255 255 255 255 255 255 255 255 255 255 255 255 255 255 255 255 255 255 255 255 255 255 255
255 255 255 255 255 255 255 255 255 255 255 255 255 255 255 255 255 255 255 255 255 255 255 255 255 255 255 255 255 255 255 255 255 255 255 255 255 255 255 255 255 255 255 255 255 255 255 255 255 255 255 255 255 255 255 255 255 255 255 255 255 255 255 255
255 255 255 255 255 255 255 255 255 255 255 255 255 255 255 255 255 255 255 255 255 255 255 255 255 255 255 255 255 255 255 255 255 255 255 255 255 255 255 255 255 255 255 255 255 255 255 255 255 255 255 255 255 255 255 255 255 255 255 255 255 255 255 255
255 255 255 255 255 255 255 255 255 255 255 255 255 255 255 255 255 255 255 255 255 255 255 255 255 255 255 255 255 255 255 255 255 255 255 255 255 255 255 255 255 255 255 255 255 255 255 255 255 255 255 255 255 255 255 255 255 255 255 255 255 255 255 255
255 255 255 255 255 255 255 255 255 255 255 255 255 255 255 255 255 255 255 255 255 255 255 255 255 255 247 248 242 242 240 247 255 255 255 255 255 255 255 255 255 255 255 255 255 255 255 255 255 255 255 255 255 255 255 255 255 255 255 255 255 255 255 255
255 255 255 255 255 255 255 255 255 255 255 255 255 255 255 255 255 255 255 255 255 255 255 227 212 181 165 152 143 129 130 162 190 221 246 255 255 255 255 255 255 255 255 255 255 255 255 255 255 255 255 255 255 255 255 255 255 255 255 255 255 255 255 255
255 255 255 255 255 255 255 255 255 255 255 255 255 255 255 255 255 255 255 255 251 223 172 129 85 65 38 41 27 22 24 38 68 111 145 181 221 239 255 255 255 255 255 255 255 255 255 255 255 255 255 255 255 255 255 255 255 255 255 255 255 255 255 255
255 255 255 255 255 255 255 255 255 255 255 255 255 255 255 255 255 255 255 248 191 124 65 22 15 3 2 3 2 0 0 2 11 21 33 61 99 141 192 224 249 255 255 255 255 255 255 255 255 255 255 255 255 255 255 255 255 255 255 255 255 255 255 255
255 255 255 255 255 255 255 255 255 255 255 255 255 255 255 255 255 255 248 172 99 33 5 1 3 3 22 22 24 21 11 15 8 8 3 4 10 41 75 123 181 220 250 255 255 255 255 255 255 255 255 255 255 255 255 255 255 255 255 255 255 255 255 255
255 255 255 255 255 255 255 255 255 255 255 255 255 255 255 255 255 237 166 85 11 2 2 15 42 82 110 132 130 110 107 101 88 51 28 15 2 1 6 34 67 121 183 228 255 255 255 255 255 255 255 255 255 255 255 255 255 255 255 255 255 255 255 255
255 255 255 255 255 255 255 255 255 255 255 255 255 255 255 255 222 160 74 9 2 7 25 87 150 193 229 241 239 229 225 233 202 173 134 83 50 23 2 2 6 33 69 144 207 249 255 255 255 255 255 255 255 255 255 255 255 255 255 255 255 255 255 255
255 255 255 255 255 255 255 255 255 255 255 255 255 255 255 218 141 53 14 1 6 30 114 187 240 255 255 255 255 255 255 255 255 255 231 205 158 99 57 23 1 1 10 45 108 188 234 255 255 255 255 255 255 255 255 255 255 255 255 255 255 255 255 255
255 255 255 255 255 255 255 255 255 255 255 255 255 255 243 148 43 12 0 2 40 126 202 255 255 255 255 255 255 255 255 255 255 255 255 255 239 211 163 102 52 8 0 2 34 81 161 223 255 255 255 255 255 255 255 255 255 255 255 255 255 255 255 255
255 255 255 255 255 255 255 255 255 255 255 255 255 255 179 76 12 0 0 38 115 206 255 255 255 255 255 255 255 255 255 255 255 255 255 255 255 255 242 216 147 76 29 1 0 16 61 134 217 251 255 255 255 255 255 255 255 255 255 255 255 255 255 255
255 255 255 255 255 255 255 255 255 255 255 255 255 222 114 14 1 3 27 96 201 253 255 255 255 255 255 255 255 255 255 255 255 255 255 255 255 255 255 255 233 184 102 46 5 0 5 56 131 222 255 255 255 255 255 255 255 255 255 255 255 255 255 255
255 255 255 255 255 255 255 255 255 255 255 255 251 163 57 7 3 18 97 191 244 255 255 255 255 255 255 255 255 255 255 255 255 255 255 255 255 255 255 255 255 244 206 131 54 16 1 3 59 138 216 255 255 255 255 255 255 255 255 255 255 255 255 255
255 255 255 255 255 255 255 255 255 255 255 255 214 110 17 3 16 97 187 248 255 255 255 255 255 255 255 255 255 255 255 255 255 255 255 255 255 255 255 255 255 255 255 220 155 59 17 1 9 54 136 211 255 255 255 255 255 255 255 255 255 255 255 255
255 255 255 255 255 255 255 255 255 255 255 253 165 59 8 10 65 168 255 255 255 255 255 255 255 255 255 255 255 255 255 255 255 255 255 255 255 255 255 255 255 255 255 255 221 148 55 14 1 13 44 143 221 255 255 255 255 255 255 255 255 255 255 255
255 255 255 255 255 255 255 255 255 255 255 226 124 21 3 21 119 225 255 255 255 255 255 255 255 255 255 255 255 255 255 255 255 255 255 255 255 255 255 255 255 255 255 255 255 218 145 66 7 1 14 59 161 237 255 255 255 255 255 255 255 255 255 255
255 255 255 255 255 255 255 255 255 255 255 190 79 13 7 59 166 255 255 255 255 255 255 255 255 255 255 255 255 255 255 255 255 255 255 255 255 255 255 255 255 255 255 255 255 255 226 147 68 4 0 18 82 184 253 255 255 255 255 255 255 255 255 255
255 255 255 255 255 255 255 255 255 255 247 159 33 4 14 100 213 255 255 255 255 255 255 255 255 255 255 255 255 255 255 255 255 255 255 255 255 255 255 255 255 255 255 255 255 255 255 231 141 56 3 0 28 113 210 255 255 255 255 255 255 255 255 255
255 255 255 255 255 255 255 255 255 255 236 130 28 2 34 138 241 255 255 255 255 255 255 255 255 255 255 255 255 255 255 255 255 255 255 255 255 255 255 255 255 255 255 255 255 255 255 255 216 120 36 2 8 50 155 231 255 255 255 255 255 255 255 255
255 255 255 255 255 255 255 255 255 255 226 111 23 5 63 180 250 255 255 255 255 255 255 255 255 255 255 255 255 255 255 255 255 255 255 255 255 255 255 255 255 255 255 255 255 255 255 255 250 189 88 15 1 23 86 192 249 255 255 255 255 255 255 255
255 255 255 255 255 255 255 255 255 255 217 103 16 13 92 211 255 255 255 255 255 255 255 255 255 255 255 255 255 255 255 255 255 252 239 231 231 232 242 237 246 245 255 255 255 255 255 255 255 237 149 57 1 2 44 133 240 255 255 255 255 255 255 255
255 255 255 255 255 255 255 255 255 255 214 96 17 29 112 225 255 255 255 255 255 255 255 255 255 255 255 255 255 255 250 218 188 162 142 123 118 123 132 139 139 157 193 212 234 251 255 255 255 255 213 111 33 1 5 89 194 255 255 255 255 255 255 255
255 255 255 255 255 255 255 255 255 255 214 116 31 45 131 228 255 255 255 255 255 255 255 255 255 255 255 255 255 218 167 109 65 50 33 24 20 24 33 25 31 46 72 94 129 167 204 234 252 255 243 178 63 10 6 44 163 242 255 255 255 255 255 255
255 255 255 255 255 255 255 255 255 255 239 145 82 68 158 237 255 255 255 255 255 255 255 255 255 255 255 243 180 118 50 18 7 3 1 3 5 7 9 8 7 4 12 13 30 46 89 132 174 227 249 208 113 11 2 31 119 234 255 255 255 255 255 255
255 255 255 255 255 255 255 255 255 255 252 213 158 165 203 251 255 255 255 255 255 255 255 255 255 250 212 143 81 15 4 0 3 15 30 42 56 69 61 62 52 46 24 3 4 4 13 24 69 120 178 220 139 49 2 6 92 201 255 255 255 255 255 255
255 255 255 255 255 255 255 255 255 255 255 251 238 232 248 255 255 255 255 255 255 255 255 255 243 186 114 53 5 1 4 9 54 97 133 158 178 187 187 180 179 148 106 68 30 13 8 3 7 24 75 119 141 60 11 10 65 192 255 255 255 255 255 255
255 255 255 255 255 255 255 255 255 255 255 255 255 255 255 255 255 255 255 255 255 255 249 223 154 90 29 3 0 12 28 97 161 213 237 249 252 255 255 255 252 242 223 177 138 100 50 22 6 3 3 32 61 50 9 6 69 183 255 255 255 255 255 255
255 255 255 255 255 255 255 255 255 255 255 255 255 255 255 255 255 255 255 255 255 255 207 127 63 6 2 3 21 64 141 201 255 255 255 255 255 255 255 255 255 255 255 253 243 208 164 107 41 20 2 3 6 16 6 5 63 186 255 255 255 255 255 255
255 255 255 255 255 255 255 255 255 255 255 255 255 255 255 255 255 255 255 255 255 216 131 50 4 1 9 27 93 171 226 255 255 255 255 255 255 255 255 255 255 255 255 255 255 255 249 206 158 89 27 7 0 1 0 4 61 194 255 255 255 255 255 255
255 255 255 255 255 255 255 255 255 255 255 255 255 255 255 255 255 255 255 255 241 160 55 10 1 17 47 123 191 246 255 255 255 255 255 255 255 255 255 255 255 255 255 255 255 255 255 255 244 193 122 34 10 0 0 0 53 179 255 255 255 255 255 255
255 255 255 255 255 255 255 255 255 255 255 255 255 255 255 255 255 255 255 255 195 81 20 0 11 70 152 212 255 255 255 255 255 255 255 255 255 255 255 255 255 255 255 255 255 255 255 255 255 255 207 131 37 2 0 2 33 163 247 255 255 255 255 255
255 255 255 255 255 255 255 255 255 255 255 255 255 255 255 255 255 255 255 246 154 40 1 0 52 145 225 255 255 255 255 255 255 255 255 255 255 255 255 255 255 255 255 255 255 255 255 255 255 255 255 201 85 7 0 0 30 132 240 255 255 255 255 255
255 255 255 255 255 255 255 255 255 255 255 255 255 255 255 255 255 255 255 228 122 23 1 18 99 212 255 255 255 255 255 255 255 255 255 255 255 255 255 255 255 255 255 255 255 255 255 255 255 255 255 219 104 15 0 0 27 141 232 255 255 255 255 255
255 255 255 255 255 255 255 255 255 255 255 255 255 255 255 255 255 255 255 225 112 20 1 33 136 237 255 255 255 255 255 255 255 255 255 255 255 255 255 255 255 255 255 255 255 255 255 255 255 255 255 204 85 12 0 17 71 182 251 255 255 255 255 255
255 255 255 255 255 255 255 255 255 255 255 255 255 255 255 255 255 255 255 227 116 24 2 25 125 225 255 255 255 255 255 255 255 255 255 255 255 255 255 255 255 255 255 255 255 255 255 255 255 255 233 162 55 6 8 65 167 233 255 255 255 255 255 255
255 255 255 255 255 255 255 255 255 255 255 255 255 255 255 255 255 255 255 234 144 32 3 12 71 175 251 255 255 255 255 255 255 255 255 255 255 255 255 255 255 255 255 255 255 255 255 255 255 247 184 86 25 1 31 119 221 255 255 255 255 255 255 255
255 255 255 255 255 255 255 255 255 255 255 255 255 255 255 255 255 255 255 255 180 75 6 0 23 102 195 255 255 255 255 255 255 255 255 255 255 255 255 255 255 255 255 255 255 255 255 255 255 184 99 33 1 6 60 174 245 255 255 255 255 255 255 255
255 255 255 255 255 255 255 255 255 255 255 255 255 255 255 255 255 255 255 255 227 132 41 3 5 28 122 203 255 255 255 255 255 255 255 255 255 255 255 255 255 255 255 255 255 255 255 246 174 97 24 2 1 41 118 211 255 255 255 255 255 255 255 255
255 255 255 255 255 255 255 255 255 255 255 255 255 255 255 255 255 255 255 255 253 198 104 21 2 8 34 115 189 238 255 255 255 255 255 255 255 255 255 255 255 255 255 255 255 255 224 157 79 7 2 3 27 99 197 247 255 255 255 255 255 255 255 255
255 255 255 255 255 255 255 255 255 255 255 255 255 255 255 255 255 255 255 255 255 247 177 88 6 2 5 31 85 159 209 246 255 255 255 255 255 255 255 255 255 255 255 248 243 186 126 52 6 1 6 21 96 188 243 255 255 255 255 255 255 255 255 255
255 255 255 255 255 255 255 255 255 255 255 255 255 255 255 255 255 255 255 255 255 255 246 165 83 13 2 2 23 53 108 163 205 223 243 245 253 255 255 255 250 251 207 173 119 80 22 4 0 5 33 118 191 250 255 255 255 255 255 255 255 255 255 255
255 255 255 255 255 255 255 255 255 255 255 255 255 255 255 255 255 255 255 255 255 255 255 243 173 96 41 3 3 5 26 48 77 103 115 141 170 173 183 179 174 143 102 41 29 2 1 2 8 59 140 208 255 255 255 255 255 255 255 255 255 255 255 255
255 255 255 255 255 255 255 255 255 255 255 255 255 255 255 255 255 255 255 255 255 255 255 255 244 203 125 70 27 2 4 3 8 2 17 25 33 44 50 61 50 42 11 6 0 0 9 17 91 164 229 255 255 255 255 255 255 255 255 255 255 255 255 255
255 255 255 255 255 255 255 255 255 255 255 255 255 255 255 255 255 255 255 255 255 255 255 255 255 250 224 172 114 72 30 8 3 0 0 0 0 1 3 2 7 3 0 1 3 21 53 131 193 253 255 255 255 255 255 255 255 255 255 255 255 255 255 255
255 255 255 255 255 255 255 255 255 255 255 255 255 255 255 255 255 255 255 255 255 255 255 255 255 255 255 246 225 180 132 84 26 14 7 1 1 0 11 9 25 23 34 46 64 105 171 221 255 255 255 255 255 255 255 255 255 255 255 255 255 255 255 255
255 255 255 255 255 255 255 255 255 255 255 255 255 255 255 255 255 255 255 255 255 255 255 255 255 255 255 255 255 252 241 194 150 115 75 66 50 64 80 111 122 130 141 166 190 223 245 255 255 255 255 255 255 255 255 255 255 255 255 255 255 255 255 255
255 255 255 255 255 255 255 255 255 255 255 255 255 255 255 255 255 255 255 255 255 255 255 255 255 255 255 255 255 255 255 255 248 233 216 201 189 188 221 224 239 231 240 251 255 255 255 255 255 255 255 255 255 255 255 255 255 255 255 255 255 255 255 255
255 255 255 255 255 255 255 255 255 255 255 255 255 255 255 255 255 255 255 255 255 255 255 255 255 255 255 255 255 255 255 255 255 255 255 255 255 255 255 255 255 255 255 255 255 255 255 255 255 255 255 255 255 255 255 255 255 255 255 255 255 255 255 255
255 255 255 255 255 255 255 255 255 255 255 255 255 255 255 255 255 255 255 255 255 255 255 255 255 255 255 255 255 255 255 255 255 255 255 255 255 255 255 255 255 255 255 255 255 255 255 255 255 255 255 255 255 255 255 255 255 255 255 255 255 255 255 255
255 255 255 255 255 255 255 255 255 255 255 255 255 255 255 255 255 255 255 255 255 255 255 255 255 255 255 255 255 255 255 255 255 255 255 255 255 255 255 255 255 255 255 255 255 255 255 255 255 255 255 255 255 255 255 255 255 255 255 255 255 255 255 255
255 255 255 255 255 255 255 255 255 255 255 255 255 255 255 255 255 255 255 255 255 255 255 255 255 255 255 255 255 255 255 255 255 255 255 255 255 255 255 255 255 255 255 255 255 255 255 255 255 255 255 255 255 255 255 255 255 255 255 255 255 255 255 255
255 255 255 255 255 255 255 255 255 255 255 255 255 255 255 255 255 255 255 255 255 255 255 255 255 255 255 255 255 255 255 255 255 255 255 255 255 255 255 255 255 255 255 255 255 255 255 255 255 255 255 255 255 255 255 255 255 255 255 255 255 255 255 255
255 255 255 255 255 255 255 255 255 255 255 255 255 255 255 255 255 255 255 255 255 255 255 255 255 255 255 255 255 255 255 255 255 255 255 255 255 255 255 255 255 255 255 255 255 255 255 255 255 255 255 255 255 255 255 255 255 255 255 255 255 255 255 255
255 255 255 255 255 255 255 255 255 255 255 255 255 255 255 255 255 255 255 255 255 255 255 255 255 255 255 255 255 255 255 255 255 255 255 255 255 255 255 255 255 255 255 255 255 255 255 255 255 255 255 255 255 255 255 255 255 255 255 255 255 255 255 255
255 255 255 255 255 255 255 255 255 255 255 255 255 255 255 255 255 255 255 255 255 255 255 255 255 255 255 255 255 255 255 255 255 255 255 255 255 255 255 255 255 255 255 255 255 255 255 255 255 255 255 255 255 255 255 255 255 255 255 255 255 255 255 255
255 255 255 255 255 255 255 255 255 255 255 255 255 255 255 255 255 255 255 255 255 255 255 255 255 255 255 255 255 255 255 255 255 255 255 255 255 255 255 255 255 255 255 255 255 255 255 255 255 255 255 255 255 255 255 255 255 255 255 255 255 255 255 255
255 255 255 255 255 255 255 255 255 255 255 255 255 255 255 255 255 255 255 255 255 255 255 255 255 255 255 255 255 255 255 255 255 255 255 255 255 255 255 255 255 255 255 255 255 255 255 255 255 255 255 255 255 255 255 255 255 255 255 255 255 255 255 255
255 255 255 255 255 255 255 255 255 255 255 255 255 255 255 255 255 255 255 255 255 255 255 255 255 255 255 255 255 255 255 255 255 255 255 255 255 255 255 255 255 255 255 255 255 255 255 255 255 255 255 255 255 255 255 255 255 255 255 255 255 255 255 255
