P2
64 64
255
147 147 147 147 147 147 147 147 147 147 147 147 147 147 147 147 147 147 147 147 147 147 147 147 147 147 147 147 147 147 147 147 147 147 147 147 147 147 147 147 147 147 147 147 147 147 147 147 147 147 147 147 147 147 147 147 147 147 147 147 147 147 147 147
147 147 147 147 147 147 147 147 147 147 147 147 147 147 147 147 147 147 147 147 147 147 147 147 147 147 147 147 147 147 147 147 147 147 147 147 147 147 147 147 147 147 147 147 147 147 147 147 147 147 147 147 147 147 147 147 147 147 147 147 147 147 147 147
147 147 147 147 147 147 147 147 147 147 147 147 147 147 147 147 147 147 147 147 147 147 147 147 147 147 147 147 147 147 147 147 147 147 147 147 147 147 147 147 147 147 147 147 147 147 147 147 147 147 147 147 147 147 147 147 147 147 147 147 147 147 147 147
147 147 147 147 147 147 147 147 147 147 147 147 147 147 147 147 147 147 147 147 147 147 147 147 147 147 147 147 147 147 147 147 147 147 147 147 147 147 147 147 147 147 147 147 147 147 147 147 147 147 147 147 147 147 147 147 147 147 147 147 147 147 147 147
147 147 147 147 147 147 147 147 147 147 147 147 147 147 147 147 147 147 147 147 147 147 147 147 147 147 147 147 147 147 147 147 147 147 147 147 147 147 147 147 147 147 147 147 147 147 147 147 147 147 147 147 147 147 147 147 147 147 147 147 147 147 147 147
147 147 147 147 147 147 147 147 147 147 147 147 147 147 147 147 147 147 147 147 147 147 147 147 147 147 147 147 147 147 147 147 147 147 147 147 147 147 147 147 147 147 147 147 147 147 147 147 147 147 147 147 147 147 147 147 147 147 147 147 147 147 147 147
147 147 147 147 147 147 147 147 147 147 147 147 147 147 147 147 147 147 147 147 147 147 147 147 147 147 147 147 147 147 147 146 146 147 147 147 147 147 147 147 147 147 147 147 147 147 147 147 147 147 147 147 147 147 147 147 147 147 147 147 147 147 147 147
147 147 147 147 147 147 147 147 147 147 147 147 147 147 147 147 147 147 147 147 147 147 147 147 147 147 147 146 142 138 135 128 124 126 138 144 146 147 147 147 147 147 147 147 147 147 147 147 147 147 147 147 147 147 147 147 147 147 147 147 147 147 147 147
147 147 147 147 147 147 147 147 147 147 147 147 147 147 147 147 147 147 147 147 147 147 147 147 147 147 140 122 100 81 66 57 54 55 72 105 130 144 147 147 147 147 147 147 147 147 147 147 147 147 147 147 147 147 147 147 147 147 147 147 147 147 147 147
147 147 147 147 147 147 147 147 147 147 147 147 147 147 147 147 147 147 147 147 147 147 147 144 136 118 85 54 30 13 2 2 5 6 6 31 76 121 144 147 147 147 147 147 147 147 147 147 147 147 147 147 147 147 147 147 147 147 147 147 147 147 147 147
147 147 147 147 147 147 147 147 147 147 147 147 147 147 147 147 147 147 147 147 147 146 136 116 84 46 20 6 1 0 1 4 2 0 0 2 20 68 119 142 147 147 147 147 147 147 147 147 147 147 147 147 147 147 147 147 147 147 147 147 147 147 147 147
147 147 147 147 147 147 147 147 147 147 147 147 147 147 147 147 147 147 147 147 144 125 92 55 20 2 0 1 5 13 31 46 44 17 2 0 0 17 56 105 135 146 147 147 147 147 147 147 147 147 147 147 147 147 147 147 147 147 147 147 147 147 147 147
147 147 147 147 147 147 147 147 147 147 147 147 147 147 147 147 147 147 146 138 111 66 30 10 1 2 14 35 62 90 107 118 120 95 52 23 7 2 11 45 95 132 146 147 147 147 147 147 147 147 147 147 147 147 147 147 147 147 147 147 147 147 147 147
147 147 147 147 147 147 147 147 147 147 147 147 147 147 147 147 147 143 123 84 42 14 2 0 2 28 64 100 131 144 146 147 146 142 121 86 47 14 1 9 42 96 138 147 147 147 147 147 147 147 147 147 147 147 147 147 147 147 147 147 147 147 147 147
147 147 147 147 147 147 147 147 147 147 147 147 147 147 147 147 145 126 75 20 2 0 3 19 53 92 122 140 147 147 147 147 147 147 144 134 106 52 9 0 8 48 108 142 147 147 147 147 147 147 147 147 147 147 147 147 147 147 147 147 147 147 147 147
147 147 147 147 147 147 147 147 147 147 147 147 147 147 147 147 142 109 45 2 0 0 9 48 107 138 145 147 147 147 147 147 147 147 147 147 142 106 43 6 0 12 60 115 142 147 147 147 147 147 147 147 147 147 147 147 147 147 147 147 147 147 147 147
147 147 147 147 147 147 147 147 147 147 147 147 147 147 147 147 139 100 36 2 0 0 7 55 125 147 147 147 147 147 147 147 147 147 147 147 147 135 92 38 7 1 24 78 128 147 147 147 147 147 147 147 147 147 147 147 147 147 147 147 147 147 147 147
147 147 147 147 147 147 147 147 147 147 147 147 147 147 147 146 127 69 11 0 0 3 28 88 133 146 147 147 147 147 147 147 147 147 147 147 147 145 126 80 26 1 6 40 106 146 147 147 147 147 147 147 147 147 147 147 147 147 147 147 147 147 147 147
147 147 147 147 147 147 147 147 147 147 147 147 147 147 147 135 87 28 2 2 16 43 86 126 143 147 147 147 147 147 147 147 147 147 147 147 147 147 143 120 56 3 0 9 77 139 147 147 147 147 147 147 147 147 147 147 147 147 147 147 147 147 147 147
147 147 147 147 147 147 147 147 147 147 147 147 147 147 143 108 45 5 0 17 59 106 138 146 147 147 147 147 147 147 147 147 147 147 147 147 147 147 147 143 89 20 1 1 43 106 140 147 147 147 147 147 147 147 147 147 147 147 147 147 147 147 147 147
147 147 147 147 147 147 147 147 147 147 147 147 147 147 137 89 22 0 4 35 104 142 147 147 147 147 147 147 147 147 147 147 147 147 147 147 147 147 147 146 114 49 7 0 16 68 125 147 147 147 147 147 147 147 147 147 147 147 147 147 147 147 147 147
147 147 147 147 147 147 147 147 147 147 147 147 147 147 140 86 12 0 1 53 128 146 147 147 147 147 147 147 147 147 147 147 147 147 147 147 147 147 147 147 129 72 13 0 5 41 111 146 147 147 147 147 147 147 147 147 147 147 147 147 147 147 147 147
147 147 147 147 147 147 147 147 147 147 147 147 147 147 141 82 16 0 9 71 130 147 147 147 147 147 147 147 147 147 147 147 147 147 147 147 147 147 147 147 140 94 20 0 0 23 100 143 147 147 147 147 147 147 147 147 147 147 147 147 147 147 147 147
147 147 147 147 147 147 147 147 147 147 147 147 147 147 133 77 19 0 19 78 133 147 147 147 147 147 147 147 147 147 147 147 147 147 147 147 147 147 147 147 147 111 38 4 0 16 78 132 147 147 147 147 147 147 147 147 147 147 147 147 147 147 147 147
147 147 147 147 147 147 147 147 147 147 147 147 147 147 132 77 16 0 15 74 135 147 147 147 147 147 147 147 147 147 147 147 147 147 147 147 147 147 147 147 147 120 56 9 0 11 60 122 147 147 147 147 147 147 147 147 147 147 147 147 147 147 147 147
147 147 147 147 147 147 147 147 147 147 147 147 147 147 140 86 15 0 4 68 133 146 147 147 147 147 147 147 147 147 147 147 147 147 147 147 147 147 147 147 147 132 80 19 0 7 51 119 147 147 147 147 147 147 147 147 147 147 147 147 147 147 147 147
147 147 147 147 147 147 147 147 147 147 147 147 147 147 143 93 24 1 6 62 124 146 147 147 147 147 147 147 147 147 147 147 147 147 147 147 147 147 147 147 147 142 102 28 0 1 46 118 144 147 147 147 147 147 147 147 147 147 147 147 147 147 147 147
147 147 147 147 147 147 147 147 147 147 147 147 147 147 142 98 33 1 7 52 117 146 147 147 147 147 147 147 147 147 147 147 147 147 147 147 147 147 147 147 147 144 103 33 3 4 51 116 144 147 147 147 147 147 147 147 147 147 147 147 147 147 147 147
147 147 147 147 147 147 147 147 147 147 147 147 147 147 142 108 42 1 5 38 109 147 147 147 147 147 147 147 147 147 147 147 147 147 147 147 147 147 147 147 147 140 93 27 1 5 47 114 146 147 147 147 147 147 147 147 147 147 147 147 147 147 147 147
147 147 147 147 147 147 147 147 147 147 147 147 147 147 144 118 48 1 0 30 104 143 147 147 147 147 147 147 147 147 147 147 147 147 147 147 147 147 147 147 147 136 85 19 0 4 39 114 147 147 147 147 147 147 147 147 147 147 147 147 147 147 147 147
147 147 147 147 147 147 147 147 147 147 147 147 147 147 147 122 57 9 0 25 86 134 147 147 147 147 147 147 147 147 147 147 147 147 147 147 147 147 147 147 146 133 68 8 0 1 53 124 146 147 147 147 147 147 147 147 147 147 147 147 147 147 147 147
147 147 147 147 147 147 147 147 147 147 147 147 147 147 147 128 75 21 0 13 60 120 147 147 147 147 147 147 147 147 147 147 147 147 147 147 147 147 147 146 138 103 40 6 2 27 92 135 146 147 147 147 147 147 147 147 147 147 147 147 147 147 147 147
147 147 147 147 147 147 147 147 147 147 147 147 147 147 147 138 101 38 1 4 32 103 146 147 147 147 147 147 147 147 147 147 147 147 147 147 147 144 136 117 86 48 16 5 21 72 124 145 147 147 147 147 147 147 147 147 147 147 147 147 147 147 147 147
147 147 147 147 147 147 147 147 147 147 147 147 147 147 147 146 126 57 2 0 12 80 136 142 145 147 147 147 147 147 147 147 147 147 147 146 138 117 88 52 19 7 5 18 53 109 140 147 147 147 147 147 147 147 147 147 147 147 147 147 147 147 147 147
147 147 147 147 147 147 147 147 147 147 147 147 147 147 147 147 134 77 19 1 4 28 67 97 115 129 140 141 142 144 146 144 136 128 117 103 79 48 24 6 0 3 20 62 110 138 146 147 147 147 147 147 147 147 147 147 147 147 147 147 147 147 147 147
147 147 147 147 147 147 147 147 147 147 147 147 147 147 147 147 140 107 53 14 1 1 7 26 46 63 81 94 99 102 106 101 86 67 46 24 13 3 0 0 6 28 69 115 142 147 147 147 147 147 147 147 147 147 147 147 147 147 147 147 147 147 147 147
147 147 147 147 147 147 147 147 147 147 147 147 147 147 147 147 146 138 109 60 16 0 0 1 4 6 11 23 27 24 24 27 22 13 4 0 0 0 0 6 38 85 122 142 147 147 147 147 147 147 147 147 147 147 147 147 147 147 147 147 147 147 147 147
147 147 147 147 147 147 147 147 147 147 147 147 147 147 147 147 147 147 144 121 73 26 12 6 1 0 0 0 0 0 0 0 0 1 0 7 8 2 0 9 47 105 141 147 147 147 147 147 147 147 147 147 147 147 147 147 147 147 147 147 147 147 147 147
147 147 147 147 147 147 147 147 147 147 147 147 147 147 147 147 147 147 147 142 124 84 38 11 1 0 2 11 16 10 11 16 23 31 42 58 54 24 1 1 18 70 128 147 147 147 147 147 147 147 147 147 147 147 147 147 147 147 147 147 147 147 147 147
147 147 147 147 147 147 147 147 147 147 147 147 147 147 147 147 147 147 141 120 81 42 16 3 0 2 22 57 82 84 78 78 88 103 117 126 121 75 19 2 1 26 86 133 146 147 147 147 147 147 147 147 147 147 147 147 147 147 147 147 147 147 147 147
147 147 147 147 147 147 147 147 147 147 147 147 147 147 147 147 147 141 113 59 12 1 0 2 12 35 73 114 138 144 139 135 138 144 147 147 144 122 70 20 1 5 42 102 139 147 147 147 147 147 147 147 147 147 147 147 147 147 147 147 147 147 147 147
147 147 147 147 147 147 147 147 147 147 147 147 147 147 147 147 146 126 65 10 0 1 13 41 77 106 127 142 147 147 147 147 147 147 147 147 147 143 113 55 11 1 16 64 122 147 147 147 147 147 147 147 147 147 147 147 147 147 147 147 147 147 147 147
147 147 147 147 147 147 147 147 147 147 147 147 147 147 147 147 143 97 28 1 0 17 61 108 137 144 147 147 147 147 147 147 147 147 147 147 147 147 138 97 33 0 2 26 97 146 147 147 147 147 147 147 147 147 147 147 147 147 147 147 147 147 147 147
147 147 147 147 147 147 147 147 147 147 147 147 147 147 147 147 133 75 16 0 8 51 113 144 147 147 147 147 147 147 147 147 147 147 147 147 147 147 147 129 67 11 0 6 68 131 147 147 147 147 147 147 147 147 147 147 147 147 147 147 147 147 147 147
147 147 147 147 147 147 147 147 147 147 147 147 147 147 147 146 124 62 6 0 19 82 139 147 147 147 147 147 147 147 147 147 147 147 147 147 147 147 147 143 99 32 1 2 46 114 146 147 147 147 147 147 147 147 147 147 147 147 147 147 147 147 147 147
147 147 147 147 147 147 147 147 147 147 147 147 147 147 147 145 123 53 1 0 25 99 142 147 147 147 147 147 147 147 147 147 147 147 147 147 147 147 147 146 120 53 3 1 27 97 146 147 147 147 147 147 147 147 147 147 147 147 147 147 147 147 147 147
147 147 147 147 147 147 147 147 147 147 147 147 147 147 147 147 122 57 9 0 26 89 135 147 147 147 147 147 147 147 147 147 147 147 147 147 147 147 147 147 136 73 5 0 8 82 144 147 147 147 147 147 147 147 147 147 147 147 147 147 147 147 147 147
147 147 147 147 147 147 147 147 147 147 147 147 147 147 147 147 127 72 19 1 17 70 126 147 147 147 147 147 147 147 147 147 147 147 147 147 147 147 147 147 146 90 17 0 4 64 129 147 147 147 147 147 147 147 147 147 147 147 147 147 147 147 147 147
147 147 147 147 147 147 147 147 147 147 147 147 147 147 147 147 136 91 30 0 7 45 112 146 147 147 147 147 147 147 147 147 147 147 147 147 147 147 147 147 146 102 33 1 4 50 118 147 147 147 147 147 147 147 147 147 147 147 147 147 147 147 147 147
147 147 147 147 147 147 147 147 147 147 147 147 147 147 147 147 144 115 48 1 0 17 84 136 146 147 147 147 147 147 147 147 147 147 147 147 147 147 147 147 143 107 38 1 6 47 118 147 147 147 147 147 147 147 147 147 147 147 147 147 147 147 147 147
147 147 147 147 147 147 147 147 147 147 147 147 147 147 147 147 147 134 80 20 1 4 44 100 134 146 147 147 147 147 147 147 147 147 147 147 147 147 147 147 142 103 29 0 3 54 126 146 147 147 147 147 147 147 147 147 147 147 147 147 147 147 147 147
147 147 147 147 147 147 147 147 147 147 147 147 147 147 147 147 147 144 112 53 9 0 11 42 87 128 144 147 147 147 147 147 147 147 147 147 147 147 147 147 138 84 22 2 9 68 126 145 147 147 147 147 147 147 147 147 147 147 147 147 147 147 147 147
147 147 147 147 147 147 147 147 147 147 147 147 147 147 147 147 147 147 136 96 36 2 0 5 27 78 125 144 147 147 147 147 147 147 147 147 147 147 147 143 111 51 9 1 27 86 133 147 147 147 147 147 147 147 147 147 147 147 147 147 147 147 147 147
147 147 147 147 147 147 147 147 147 147 147 147 147 147 147 147 147 147 147 135 85 28 5 0 2 24 68 108 134 145 147 147 147 147 147 147 147 147 147 126 74 19 1 6 46 111 143 147 147 147 147 147 147 147 147 147 147 147 147 147 147 147 147 147
147 147 147 147 147 147 147 147 147 147 147 147 147 147 147 147 147 147 147 146 131 91 49 18 2 3 16 44 82 120 136 143 146 147 141 133 126 118 105 76 31 3 0 10 73 134 147 147 147 147 147 147 147 147 147 147 147 147 147 147 147 147 147 147
147 147 147 147 147 147 147 147 147 147 147 147 147 147 147 147 147 147 147 147 146 136 115 80 38 15 4 5 19 49 81 97 101 103 93 78 62 45 31 18 4 0 4 45 108 141 147 147 147 147 147 147 147 147 147 147 147 147 147 147 147 147 147 147
147 147 147 147 147 147 147 147 147 147 147 147 147 147 147 147 147 147 147 147 147 147 144 135 110 67 28 4 0 2 17 26 21 22 23 18 10 1 0 0 1 9 45 99 135 146 147 147 147 147 147 147 147 147 147 147 147 147 147 147 147 147 147 147
147 147 147 147 147 147 147 147 147 147 147 147 147 147 147 147 147 147 147 147 147 147 147 147 145 127 93 52 17 6 2 1 0 0 0 0 1 2 11 21 37 66 107 136 146 147 147 147 147 147 147 147 147 147 147 147 147 147 147 147 147 147 147 147
147 147 147 147 147 147 147 147 147 147 147 147 147 147 147 147 147 147 147 147 147 147 147 147 147 146 138 120 85 52 32 17 6 15 21 27 34 47 64 82 105 132 143 147 147 147 147 147 147 147 147 147 147 147 147 147 147 147 147 147 147 147 147 147
147 147 147 147 147 147 147 147 147 147 147 147 147 147 147 147 147 147 147 147 147 147 147 147 147 147 147 146 139 121 103 89 81 81 85 95 110 120 126 135 143 147 147 147 147 147 147 147 147 147 147 147 147 147 147 147 147 147 147 147 147 147 147 147
147 147 147 147 147 147 147 147 147 147 147 147 147 147 147 147 147 147 147 147 147 147 147 147 147 147 147 147 147 146 142 140 140 138 137 141 147 147 147 147 147 147 147 147 147 147 147 147 147 147 147 147 147 147 147 147 147 147 147 147 147 147 147 147
147 147 147 147 147 147 147 147 147 147 147 147 147 147 147 147 147 147 147 147 147 147 147 147 147 147 147 147 147 147 147 147 147 147 147 147 147 147 147 147 147 147 147 147 147 147 147 147 147 147 147 147 147 147 147 147 147 147 147 147 147 147 147 147
147 147 147 147 147 147 147 147 147 147 147 147 147 147 147 147 147 147 147 147 147 147 147 147 147 147 147 147 147 147 147 147 147 147 147 147 147 147 147 147 147 147 147 147 147 147 147 147 147 147 147 147 147 147 147 147 147 147 147 147 147 147 147 147
147 147 147 147 147 147 147 147 147 147 147 147 147 147 147 147 147 147 147 147 147 147 147 147 147 147 147 147 147 147 147 147 147 147 147 147 147 147 147 147 147 147 147 147 147 147 147 147 147 147 147 147 147 147 147 147 147 147 147 147 147 147 147 147
