P2
64 64
255
205 205 205 205 205 205 205 205 205 205 205 205 205 205 205 205 205 205 205 205 205 205 205 205 205 205 205 205 205 205 205 205 205 205 205 205 205 205 205 205 205 205 205 205 205 205 205 205 205 205 205 205 205 205 205 205 205 205 205 205 205 205 205 205
205 205 205 205 205 205 205 205 205 205 205 205 205 205 205 205 205 205 205 205 205 205 205 205 205 205 205 205 205 205 205 205 205 205 205 205 205 205 205 205 205 205 205 205 205 205 205 205 205 205 205 205 205 205 205 205 205 205 205 205 205 205 205 205
205 205 205 205 205 205 205 205 205 205 205 205 205 205 205 205 205 205 205 205 205 205 205 205 205 205 205 205 205 205 205 205 205 205 205 205 205 205 205 205 205 205 205 205 205 205 205 205 205 205 205 205 205 205 205 205 205 205 205 205 205 205 205 205
205 205 205 205 205 205 205 205 205 205 205 205 205 205 205 205 205 205 205 205 205 205 205 205 205 205 205 205 205 205 205 205 205 205 205 205 205 205 205 205 205 205 205 205 205 205 205 205 205 205 205 205 205 205 205 205 205 205 205 205 205 205 205 205
205 205 205 205 205 205 205 205 205 205 205 205 205 205 205 205 205 205 205 205 205 205 205 205 205 205 205 205 205 205 205 205 205 205 205 205 205 205 205 205 205 205 205 205 205 205 205 205 205 205 205 205 205 205 205 205 205 205 205 205 205 205 205 205
205 205 205 205 205 205 205 205 205 205 205 205 205 205 205 205 205 205 205 205 205 205 205 205 205 205 205 205 205 205 205 205 205 205 205 205 205 205 205 205 205 205 205 205 205 205 205 205 205 205 205 205 205 205 205 205 205 205 205 205 205 205 205 205
205 205 205 205 205 205 205 205 205 205 205 205 205 205 205 205 205 205 205 205 205 205 205 205 205 205 205 205 205 205 205 205 205 205 205 205 205 205 205 205 205 205 205 205 205 205 205 205 205 205 205 205 205 205 205 205 205 205 205 205 205 205 205 205
205 205 205 205 205 205 205 205 205 205 205 205 205 205 205 205 205 205 205 205 205 205 205 202 198 198 202 203 203 205 205 205 205 205 205 205 205 205 205 205 205 205 205 205 205 205 205 205 205 205 205 205 205 205 205 205 205 205 205 205 205 205 205 205
205 205 205 205 205 205 205 205 205 205 205 205 205 205 205 205 205 205 204 203 198 190 186 168 149 141 149 168 178 190 201 205 204 205 205 205 205 205 205 205 205 205 205 205 205 205 205 205 205 205 205 205 205 205 205 205 205 205 205 205 205 205 205 205
205 205 205 205 205 205 205 205 205 205 205 205 205 205 205 205 205 205 201 180 147 115 89 70 53 42 43 62 89 119 155 187 198 204 205 205 205 205 205 205 205 205 205 205 205 205 205 205 205 205 205 205 205 205 205 205 205 205 205 205 205 205 205 205
205 205 205 205 205 205 205 205 205 205 205 205 205 205 205 205 204 200 169 109 57 23 4 2 2 1 1 2 12 32 60 107 154 185 201 204 205 205 205 205 205 205 205 205 205 205 205 205 205 205 205 205 205 205 205 205 205 205 205 205 205 205 205 205
205 205 205 205 205 205 205 205 205 205 205 205 205 205 205 205 203 178 100 33 7 0 0 6 11 12 5 8 3 2 6 22 66 111 153 190 203 204 205 205 205 205 205 205 205 205 205 205 205 205 205 205 205 205 205 205 205 205 205 205 205 205 205 205
205 205 205 205 205 205 205 205 205 205 205 205 205 205 205 204 188 120 33 2 3 14 33 58 81 96 91 74 52 29 5 4 9 29 60 124 177 198 204 205 205 205 205 205 205 205 205 205 205 205 205 205 205 205 205 205 205 205 205 205 205 205 205 205
205 205 205 205 205 205 205 205 205 205 205 205 205 205 204 199 157 58 6 6 41 100 137 157 173 186 190 171 149 120 74 32 9 2 8 45 103 149 182 199 203 204 205 205 205 205 205 205 205 205 205 205 205 205 205 205 205 205 205 205 205 205 205 205
205 205 205 205 205 205 205 205 205 205 205 205 205 205 204 195 127 26 0 24 103 182 202 204 204 204 205 204 199 189 169 119 70 35 11 9 27 58 99 149 182 199 204 205 205 205 205 205 205 205 205 205 205 205 205 205 205 205 205 205 205 205 205 205
205 205 205 205 205 205 205 205 205 205 205 205 205 205 205 193 107 8 2 41 141 201 205 205 205 205 205 205 204 204 203 189 160 122 62 17 4 8 20 56 113 162 194 204 204 205 205 205 205 205 205 205 205 205 205 205 205 205 205 205 205 205 205 205
205 205 205 205 205 205 205 205 205 205 205 205 205 205 205 188 100 9 0 44 155 204 205 205 205 205 205 205 205 205 205 204 200 187 149 87 44 12 1 4 31 79 145 192 203 204 205 205 205 205 205 205 205 205 205 205 205 205 205 205 205 205 205 205
205 205 205 205 205 205 205 205 205 205 205 205 205 205 204 186 106 20 0 40 150 203 205 205 205 205 205 205 205 205 205 205 205 203 195 169 130 82 33 8 0 13 64 140 186 202 205 205 205 205 205 205 205 205 205 205 205 205 205 205 205 205 205 205
205 205 205 205 205 205 205 205 205 205 205 205 205 205 204 192 123 33 0 25 113 190 204 205 205 205 205 205 205 205 205 205 205 204 204 203 191 167 120 56 15 1 9 53 130 184 203 205 205 205 205 205 205 205 205 205 205 205 205 205 205 205 205 205
205 205 205 205 205 205 205 205 205 205 205 205 205 205 205 202 154 58 4 7 57 146 194 204 205 205 205 205 205 205 205 205 205 205 205 205 204 201 189 138 74 26 4 5 51 132 192 204 205 205 205 205 205 205 205 205 205 205 205 205 205 205 205 205
205 205 205 205 205 205 205 205 205 205 205 205 205 205 205 204 190 109 24 1 16 78 153 194 204 204 205 205 205 205 205 205 205 205 205 205 205 204 204 194 157 97 33 4 10 64 152 202 205 205 205 205 205 205 205 205 205 205 205 205 205 205 205 205
205 205 205 205 205 205 205 205 205 205 205 205 205 205 205 205 203 167 82 11 0 20 77 147 191 203 205 205 205 205 205 205 205 205 205 205 205 205 205 204 199 169 99 28 3 25 99 178 203 205 205 205 205 205 205 205 205 205 205 205 205 205 205 205
205 205 205 205 205 205 205 205 205 205 205 205 205 205 205 205 205 197 154 74 14 1 16 67 140 189 203 205 205 205 205 205 205 205 205 205 205 205 205 205 205 201 167 82 22 17 71 157 198 204 205 205 205 205 205 205 205 205 205 205 205 205 205 205
205 205 205 205 205 205 205 205 205 205 205 205 205 205 205 205 205 204 194 152 75 20 4 9 57 139 189 203 205 205 205 205 205 205 205 205 205 205 205 205 205 204 198 152 83 53 91 165 199 205 205 205 205 205 205 205 205 205 205 205 205 205 205 205
205 205 205 205 205 205 205 205 205 205 205 205 205 205 205 205 205 205 204 194 152 83 25 2 6 58 131 182 203 204 205 205 205 205 205 205 205 205 205 205 205 205 204 191 160 137 159 189 203 205 205 205 205 205 205 205 205 205 205 205 205 205 205 205
205 205 205 205 205 205 205 205 205 205 205 205 205 205 205 205 205 205 205 204 195 158 89 26 4 11 51 121 180 198 204 205 205 205 205 205 205 205 205 205 205 205 205 203 196 191 198 202 204 205 205 205 205 205 205 205 205 205 205 205 205 205 205 205
205 205 205 205 205 205 205 205 205 205 205 205 205 205 205 205 205 205 205 205 204 198 164 100 37 11 15 53 99 153 191 203 205 205 205 205 205 205 205 205 205 205 205 204 204 203 205 205 205 205 205 205 205 205 205 205 205 205 205 205 205 205 205 205
205 205 205 205 205 205 205 205 205 205 205 205 205 205 205 205 205 205 205 205 205 205 200 177 116 58 27 17 18 65 131 183 204 204 205 205 205 205 205 205 205 205 205 205 205 205 205 205 205 205 205 205 205 205 205 205 205 205 205 205 205 205 205 205
205 205 205 205 205 205 205 205 205 205 205 205 205 205 205 205 205 205 205 205 205 205 204 203 186 143 83 25 2 12 53 116 178 199 205 205 205 205 205 205 205 205 205 205 205 205 205 205 205 205 205 205 205 205 205 205 205 205 205 205 205 205 205 205
205 205 205 205 205 205 205 205 205 205 205 205 205 205 205 205 205 205 205 205 205 205 205 204 203 196 158 83 27 8 10 40 102 164 196 204 205 205 205 205 205 205 205 205 205 205 205 205 205 205 205 205 205 205 205 205 205 205 205 205 205 205 205 205
205 205 205 205 205 205 205 205 205 205 205 205 205 205 205 205 205 205 205 205 205 205 205 205 205 205 195 165 103 44 11 5 24 86 153 194 204 204 205 205 205 205 205 205 205 205 205 205 205 205 205 205 205 205 205 205 205 205 205 205 205 205 205 205
205 205 205 205 205 205 205 205 205 205 205 205 205 205 205 205 205 205 205 205 205 205 205 205 205 205 204 202 181 126 58 8 1 20 78 146 190 202 204 205 205 205 205 205 205 205 205 205 205 205 205 205 205 205 205 205 205 205 205 205 205 205 205 205
205 205 205 205 205 205 205 205 205 205 205 205 205 205 205 205 205 205 205 205 205 205 205 205 205 205 205 205 203 187 142 66 12 2 20 66 134 183 202 205 205 205 205 205 205 205 205 205 205 205 205 205 205 205 205 205 205 205 205 205 205 205 205 205
205 205 205 205 205 205 205 205 205 205 205 205 205 205 205 205 205 205 205 205 205 205 205 205 205 205 205 205 205 203 192 149 77 25 5 9 49 124 182 203 205 205 205 205 205 205 205 205 205 205 205 205 205 205 205 205 205 205 205 205 205 205 205 205
205 205 205 205 205 205 205 205 205 205 205 205 205 205 205 205 205 205 205 205 205 205 205 205 205 205 205 205 205 205 203 194 156 94 35 5 4 42 121 182 203 204 205 205 205 205 205 205 205 205 205 205 205 205 205 205 205 205 205 205 205 205 205 205
205 205 205 205 205 205 205 205 205 205 205 205 205 205 205 205 205 205 205 205 205 205 205 205 205 205 205 205 205 205 204 204 197 166 105 36 6 8 50 111 172 198 204 205 205 205 205 205 205 205 205 205 205 205 205 205 205 205 205 205 205 205 205 205
205 205 205 205 205 205 205 205 205 205 205 205 205 205 205 205 205 205 205 205 205 205 205 205 205 205 205 205 205 205 205 205 204 200 175 115 49 17 14 29 88 163 198 205 205 205 205 205 205 205 205 205 205 205 205 205 205 205 205 205 205 205 205 205
205 205 205 205 205 205 205 205 205 205 205 205 205 205 205 205 205 205 205 205 205 205 205 205 205 205 205 205 205 205 205 205 205 205 203 186 135 67 16 2 21 84 157 198 204 205 205 205 205 205 205 205 205 205 205 205 205 205 205 205 205 205 205 205
205 205 205 205 205 205 205 205 205 205 205 205 205 205 205 205 205 205 205 205 205 205 205 205 205 205 205 205 205 205 205 205 205 205 205 204 194 138 58 9 2 21 77 151 195 204 205 205 205 205 205 205 205 205 205 205 205 205 205 205 205 205 205 205
205 205 205 205 205 205 205 205 205 205 205 205 205 205 205 205 205 205 205 205 205 205 205 205 205 205 205 205 205 205 205 205 205 205 205 205 205 190 139 61 14 2 20 74 153 195 204 205 205 205 205 205 205 205 205 205 205 205 205 205 205 205 205 205
205 205 205 205 205 205 205 205 205 205 205 205 205 205 205 205 205 205 205 205 205 205 205 205 205 205 205 205 205 205 205 205 205 205 205 205 205 203 194 156 73 16 2 20 85 155 192 203 204 205 205 205 205 205 205 205 205 205 205 205 205 205 205 205
205 205 205 205 205 205 205 205 205 205 205 205 205 205 205 205 205 205 205 205 205 205 205 205 205 205 205 205 205 205 205 205 205 205 205 205 205 205 204 198 151 70 6 1 21 72 138 190 204 205 205 205 205 205 205 205 205 205 205 205 205 205 205 205
205 205 205 205 205 205 205 205 205 205 205 205 205 205 205 205 205 205 205 205 205 205 205 205 205 205 205 205 205 205 205 205 205 205 205 205 205 205 205 204 191 136 54 6 0 9 58 143 194 203 205 205 205 205 205 205 205 205 205 205 205 205 205 205
205 205 205 205 205 205 205 205 205 205 205 205 205 205 205 205 205 205 205 205 205 205 205 205 205 205 205 205 205 205 205 205 205 205 205 205 205 205 205 204 203 183 127 48 8 0 7 61 145 190 203 205 205 205 205 205 205 205 205 205 205 205 205 205
205 205 205 205 205 205 205 205 205 205 205 205 205 205 205 205 205 205 205 205 205 205 205 205 205 205 205 205 205 205 205 205 205 205 203 199 197 198 202 191 186 189 178 120 44 8 0 4 54 136 191 205 204 205 205 205 205 205 205 205 205 205 205 205
205 205 205 205 205 205 205 205 205 205 205 205 205 205 205 205 205 205 205 205 205 205 205 205 205 205 205 205 205 205 201 196 192 187 176 155 138 128 119 108 107 114 116 104 62 20 1 0 6 49 118 181 199 205 205 205 205 205 205 205 205 205 205 205
205 205 205 205 205 205 205 205 205 205 205 205 205 205 205 205 205 205 205 205 205 205 205 205 205 204 202 195 190 185 163 141 120 98 78 58 42 28 13 16 22 23 13 16 17 9 0 0 0 4 25 85 168 204 205 205 205 205 205 205 205 205 205 205
205 205 205 205 205 205 205 205 205 205 205 205 205 205 205 205 205 205 205 205 205 205 205 204 204 193 165 135 108 85 66 47 28 8 3 2 1 0 0 0 0 0 0 0 0 0 0 0 0 0 0 20 115 192 204 205 205 205 205 205 205 205 205 205
205 205 205 205 205 205 205 205 205 205 205 205 205 205 205 205 205 205 205 205 204 202 194 179 157 116 72 40 17 3 2 1 0 0 4 9 14 15 18 33 39 32 18 28 37 33 16 15 13 1 0 15 102 186 204 205 205 205 205 205 205 205 205 205
205 205 205 205 205 205 205 205 205 205 205 205 205 205 205 205 205 205 205 204 199 177 138 96 54 25 8 1 0 2 7 12 18 24 49 73 95 111 120 131 136 132 128 128 132 132 124 112 91 55 26 53 139 194 205 205 205 205 205 205 205 205 205 205
205 205 205 205 205 205 205 205 205 205 205 205 205 205 205 205 204 203 194 178 153 104 49 17 0 0 2 9 19 38 62 87 111 133 150 167 182 197 198 197 196 197 202 198 195 195 202 196 181 157 143 154 187 203 205 205 205 205 205 205 205 205 205 205
205 205 205 205 205 205 205 205 205 205 205 205 205 205 205 205 204 192 149 94 56 27 6 0 2 19 46 84 121 143 160 177 194 204 204 204 204 204 205 205 205 204 205 205 205 204 205 205 203 200 201 203 204 205 205 205 205 205 205 205 205 205 205 205
205 205 205 205 205 205 205 205 205 205 205 205 205 205 205 205 204 176 88 15 2 0 5 20 51 93 136 176 202 204 204 204 204 205 205 205 205 205 205 205 205 205 205 205 205 205 205 205 205 205 204 205 205 205 205 205 205 205 205 205 205 205 205 205
205 205 205 205 205 205 205 205 205 205 205 205 205 205 205 205 204 170 66 4 9 21 53 104 149 176 194 203 205 205 205 205 205 205 205 205 205 205 205 205 205 205 205 205 205 205 205 205 205 205 205 205 205 205 205 205 205 205 205 205 205 205 205 205
205 205 205 205 205 205 205 205 205 205 205 205 205 205 205 205 204 183 121 67 68 93 139 186 203 204 204 205 205 205 205 205 205 205 205 205 205 205 205 205 205 205 205 205 205 205 205 205 205 205 205 205 205 205 205 205 205 205 205 205 205 205 205 205
205 205 205 205 205 205 205 205 205 205 205 205 205 205 205 205 205 199 182 166 164 176 194 204 205 205 205 205 205 205 205 205 205 205 205 205 205 205 205 205 205 205 205 205 205 205 205 205 205 205 205 205 205 205 205 205 205 205 205 205 205 205 205 205
205 205 205 205 205 205 205 205 205 205 205 205 205 205 205 205 205 204 203 204 204 204 204 205 205 205 205 205 205 205 205 205 205 205 205 205 205 205 205 205 205 205 205 205 205 205 205 205 205 205 205 205 205 205 205 205 205 205 205 205 205 205 205 205
205 205 205 205 205 205 205 205 205 205 205 205 205 205 205 205 205 205 205 205 205 205 205 205 205 205 205 205 205 205 205 205 205 205 205 205 205 205 205 205 205 205 205 205 205 205 205 205 205 205 205 205 205 205 205 205 205 205 205 205 205 205 205 205
205 205 205 205 205 205 205 205 205 205 205 205 205 205 205 205 205 205 205 205 205 205 205 205 205 205 205 205 205 205 205 205 205 205 205 205 205 205 205 205 205 205 205 205 205 205 205 205 205 205 205 205 205 205 205 205 205 205 205 205 205 205 205 205
205 205 205 205 205 205 205 205 205 205 205 205 205 205 205 205 205 205 205 205 205 205 205 205 205 205 205 205 205 205 205 205 205 205 205 205 205 205 205 205 205 205 205 205 205 205 205 205 205 205 205 205 205 205 205 205 205 205 205 205 205 205 205 205
205 205 205 205 205 205 205 205 205 205 205 205 205 205 205 205 205 205 205 205 205 205 205 205 205 205 205 205 205 205 205 205 205 205 205 205 205 205 205 205 205 205 205 205 205 205 205 205 205 205 205 205 205 205 205 205 205 205 205 205 205 205 205 205
205 205 205 205 205 205 205 205 205 205 205 205 205 205 205 205 205 205 205 205 205 205 205 205 205 205 205 205 205 205 205 205 205 205 205 205 205 205 205 205 205 205 205 205 205 205 205 205 205 205 205 205 205 205 205 205 205 205 205 205 205 205 205 205
205 205 205 205 205 205 205 205 205 205 205 205 205 205 205 205 205 205 205 205 205 205 205 205 205 205 205 205 205 205 205 205 205 205 205 205 205 205 205 205 205 205 205 205 205 205 205 205 205 205 205 205 205 205 205 205 205 205 205 205 205 205 205 205
205 205 205 205 205 205 205 205 205 205 205 205 205 205 205 205 205 205 205 205 205 205 205 205 205 205 205 205 205 205 205 205 205 205 205 205 205 205 205 205 205 205 205 205 205 205 205 205 205 205 205 205 205 205 205 205 205 205 205 205 205 205 205 205
