P2
64 64
255
218 218 218 218 218 218 218 218 218 218 218 218 218 218 218 218 218 218 218 218 218 218 218 218 218 218 218 218 218 218 218 218 218 218 218 218 218 218 218 218 218 218 218 218 218 218 218 218 218 218 218 218 218 218 218 218 218 218 218 218 218 218 218 218
218 218 218 218 218 218 218 218 218 218 218 218 218 218 218 218 218 218 218 218 218 218 218 218 218 218 218 218 218 218 218 218 218 218 218 218 218 218 218 218 218 218 218 218 218 218 218 218 218 218 218 218 218 218 218 218 218 218 218 218 218 218 218 218
218 218 218 218 218 218 218 218 218 218 218 218 218 218 218 218 218 218 218 218 218 218 218 218 218 218 218 218 218 218 218 218 218 218 218 218 218 218 218 218 218 218 218 218 218 218 218 218 218 218 218 218 218 218 218 218 218 218 218 218 218 218 218 218
218 218 218 218 218 218 218 218 218 218 218 218 218 218 218 218 218 218 218 218 218 218 218 218 218 218 218 218 218 218 218 218 218 218 218 218 218 218 218 218 218 218 218 218 218 218 218 218 218 218 218 218 218 218 218 218 218 218 218 218 218 218 218 218
218 218 218 218 218 218 218 218 218 218 218 218 218 218 218 218 218 218 218 218 218 218 218 218 218 218 218 218 218 218 218 218 218 218 218 218 218 218 218 218 218 218 218 218 218 218 218 218 218 218 218 218 218 218 218 218 218 218 218 218 218 218 218 218
218 218 218 218 218 218 218 218 218 218 218 218 218 218 218 218 218 218 218 218 218 218 218 218 218 218 218 218 218 218 218 218 218 218 218 218 218 218 218 218 218 218 218 218 218 218 218 218 218 218 218 218 218 218 218 218 218 218 218 218 218 218 218 218
218 218 218 218 218 218 218 218 218 218 218 218 218 218 218 218 218 218 218 218 218 218 218 218 218 218 218 218 218 218 218 218 217 218 218 217 216 218 218 218 218 218 218 218 218 218 218 218 218 218 218 218 218 218 218 218 218 218 218 218 218 218 218 218
218 218 218 218 218 218 218 218 218 218 218 218 218 218 218 218 218 218 218 218 218 218 218 218 218 218 218 218 218 218 215 206 198 196 181 178 187 193 190 199 212 218 218 218 218 218 218 218 218 218 218 218 218 218 218 218 218 218 218 218 218 218 218 218
218 218 218 218 218 218 218 218 218 218 218 218 218 218 218 218 218 218 218 218 218 218 218 218 218 218 218 218 214 209 181 147 117 89 79 82 88 95 109 132 163 187 206 216 218 218 218 218 218 218 218 218 218 218 218 218 218 218 218 218 218 218 218 218
218 218 218 218 218 218 218 218 218 218 218 218 218 218 218 218 218 218 218 218 218 218 218 218 218 218 213 200 179 141 92 50 13 10 11 6 3 16 30 42 63 107 157 198 217 218 218 218 218 218 218 218 218 218 218 218 218 218 218 218 218 218 218 218
218 218 218 218 218 218 218 218 218 218 218 218 218 218 218 218 218 218 218 218 218 218 218 218 216 208 181 141 94 49 23 6 0 0 0 0 0 0 0 1 5 31 81 142 191 212 218 218 218 218 218 218 218 218 218 218 218 218 218 218 218 218 218 218
218 218 218 218 218 218 218 218 218 218 218 218 218 218 218 218 218 218 218 218 218 218 213 205 195 157 101 54 19 9 11 18 12 17 22 24 24 31 24 9 0 3 20 56 117 180 212 218 218 218 218 218 218 218 218 218 218 218 218 218 218 218 218 218
218 218 218 218 218 218 218 218 218 218 218 218 218 218 218 218 218 218 218 218 218 203 164 129 97 59 25 6 4 17 50 86 107 108 106 117 130 121 96 61 29 8 1 3 39 121 194 217 218 218 218 218 218 218 218 218 218 218 218 218 218 218 218 218
218 218 218 218 218 218 218 218 218 218 218 218 218 218 218 218 218 218 218 218 217 151 71 24 3 7 4 15 40 86 136 183 203 193 196 209 206 194 181 158 107 53 16 0 12 63 151 209 218 218 218 218 218 218 218 218 218 218 218 218 218 218 218 218
218 218 218 218 218 218 218 218 218 218 218 218 218 218 218 218 218 218 218 218 204 83 6 0 0 0 18 65 126 170 199 216 218 218 218 218 218 218 218 214 181 129 69 20 6 26 93 175 212 218 218 218 218 218 218 218 218 218 218 218 218 218 218 218
218 218 218 218 218 218 218 218 218 218 218 218 218 218 218 218 218 218 218 217 169 56 0 0 0 0 54 152 197 212 218 218 218 218 218 218 218 218 218 218 212 193 153 78 21 8 42 127 193 216 218 218 218 218 218 218 218 218 218 218 218 218 218 218
218 218 218 218 218 218 218 218 218 218 218 218 218 218 218 218 218 218 218 217 148 44 0 0 0 18 96 201 217 218 218 218 218 218 218 218 218 218 218 218 218 217 205 142 48 4 5 66 162 209 218 218 218 218 218 218 218 218 218 218 218 218 218 218
218 218 218 218 218 218 218 218 218 218 218 218 218 218 218 218 218 218 218 217 130 24 0 0 0 22 109 199 218 218 218 218 218 218 218 218 218 218 218 218 218 218 215 169 76 9 0 28 119 202 218 218 218 218 218 218 218 218 218 218 218 218 218 218
218 218 218 218 218 218 218 218 218 218 218 218 218 218 218 218 218 218 217 196 103 6 0 0 0 11 93 185 215 218 218 218 218 218 218 218 218 218 218 218 218 218 218 187 91 17 0 16 89 183 217 218 218 218 218 218 218 218 218 218 218 218 218 218
218 218 218 218 218 218 218 218 218 218 218 218 218 218 218 218 218 218 212 164 71 4 0 0 0 4 56 169 212 218 218 218 218 218 218 218 218 218 218 218 218 218 218 204 114 21 0 7 78 173 214 218 218 218 218 218 218 218 218 218 218 218 218 218
218 218 218 218 218 218 218 218 218 218 218 218 218 218 218 218 218 218 202 127 37 1 1 1 0 3 39 136 207 218 218 218 218 218 218 218 218 218 218 218 218 218 218 206 142 37 0 1 71 175 213 218 218 218 218 218 218 218 218 218 218 218 218 218
218 218 218 218 218 218 218 218 218 218 218 218 218 218 218 218 218 213 181 84 9 0 12 30 11 1 24 110 193 218 218 218 218 218 218 218 218 218 218 218 218 218 218 206 145 51 1 10 70 174 218 218 218 218 218 218 218 218 218 218 218 218 218 218
218 218 218 218 218 218 218 218 218 218 218 218 218 218 218 218 218 198 135 48 1 4 36 88 27 1 4 72 169 212 218 218 218 218 218 218 218 218 218 218 218 218 218 209 134 39 1 13 80 175 218 218 218 218 218 218 218 218 218 218 218 218 218 218
218 218 218 218 218 218 218 218 218 218 218 218 218 218 218 218 217 177 89 21 0 16 74 117 53 0 0 28 123 199 217 218 218 218 218 218 218 218 218 218 218 218 218 211 122 19 0 12 97 187 218 218 218 218 218 218 218 218 218 218 218 218 218 218
218 218 218 218 218 218 218 218 218 218 218 218 218 218 218 218 217 157 48 6 0 24 106 145 78 8 0 10 61 151 204 216 218 218 218 218 218 218 218 218 218 218 216 188 103 14 0 11 112 203 218 218 218 218 218 218 218 218 218 218 218 218 218 218
218 218 218 218 218 218 218 218 218 218 218 218 218 218 218 218 203 137 33 0 0 30 134 185 121 31 1 1 20 75 151 197 214 218 218 218 218 218 218 218 218 218 202 145 65 8 1 35 128 207 218 218 218 218 218 218 218 218 218 218 218 218 218 218
218 218 218 218 218 218 218 218 218 218 218 218 218 218 218 218 191 115 30 0 11 63 163 212 179 96 32 6 1 18 77 139 187 212 215 213 215 218 216 213 211 195 144 69 17 0 6 65 155 210 218 218 218 218 218 218 218 218 218 218 218 218 218 218
218 218 218 218 218 218 218 218 218 218 218 218 218 218 218 218 175 85 19 0 28 104 184 217 212 181 107 41 7 2 21 56 96 129 153 169 179 170 166 166 149 106 56 8 0 0 22 111 189 215 218 218 218 218 218 218 218 218 218 218 218 218 218 218
218 218 218 218 218 218 218 218 218 218 218 218 218 218 218 210 150 48 4 0 48 139 200 218 218 210 173 109 40 4 0 2 6 29 55 69 61 61 66 64 43 27 9 0 0 18 78 170 215 218 218 218 218 218 218 218 218 218 218 218 218 218 218 218
218 218 218 218 218 218 218 218 218 218 218 218 218 218 218 188 108 24 0 10 76 174 214 218 218 217 207 175 111 48 17 4 0 1 2 1 2 6 4 2 3 2 4 9 33 86 153 206 218 218 218 218 218 218 218 218 218 218 218 218 218 218 218 218
218 218 218 218 218 218 218 218 218 218 218 218 218 218 217 162 67 10 1 36 119 195 218 218 218 218 218 212 187 132 82 39 9 6 6 2 0 0 1 3 6 24 42 75 127 171 204 217 218 218 218 218 218 218 218 218 218 218 218 218 218 218 218 218
218 218 218 218 218 218 218 218 218 218 218 218 218 218 217 133 29 2 4 69 159 209 218 218 218 218 218 218 216 197 170 140 110 82 58 32 24 30 37 49 81 109 141 182 201 214 218 218 218 218 218 218 218 218 218 218 218 218 218 218 218 218 218 218
218 218 218 218 218 218 218 218 218 218 218 218 218 218 194 103 6 0 6 104 196 216 218 218 218 218 218 218 218 218 218 217 201 178 159 141 125 123 137 163 175 190 206 215 217 218 218 218 218 218 218 218 218 218 218 218 218 218 218 218 218 218 218 218
218 218 218 218 218 218 218 218 218 218 218 218 218 217 168 72 5 1 35 137 216 218 218 218 218 218 218 218 218 218 218 218 218 218 218 217 200 202 212 215 213 217 218 218 218 218 218 218 218 218 218 218 218 218 218 218 218 218 218 218 218 218 218 218
218 218 218 218 218 218 218 218 218 218 218 218 218 212 139 40 2 4 66 163 217 218 218 218 218 218 218 218 218 218 218 218 218 218 218 218 218 218 218 218 218 218 218 218 218 218 218 218 218 218 218 218 218 218 218 218 218 218 218 218 218 218 218 218
218 218 218 218 218 218 218 218 218 218 218 218 216 196 105 9 0 7 97 189 218 218 218 218 218 218 218 218 218 218 218 218 218 218 218 218 218 218 218 218 218 218 218 218 218 218 218 218 218 218 218 218 218 218 218 218 218 218 218 218 218 218 218 218
218 218 218 218 218 218 218 218 218 218 218 218 210 163 72 3 2 28 132 214 218 218 218 218 218 218 218 218 218 218 218 218 218 218 218 218 218 218 218 218 218 218 218 218 218 218 218 218 218 218 218 218 218 218 218 218 218 218 218 218 218 218 218 218
218 218 218 218 218 218 218 218 218 218 218 218 204 133 44 1 10 64 160 218 218 218 218 218 218 218 218 218 218 218 218 218 218 218 218 218 218 218 218 218 218 218 218 218 218 218 218 218 218 218 218 218 218 218 218 218 218 218 218 218 218 218 218 218
218 218 218 218 218 218 218 218 218 218 218 218 198 105 19 0 17 96 183 218 218 218 218 218 218 218 218 218 218 218 218 218 218 218 218 218 218 218 218 218 218 218 218 218 218 218 218 218 218 218 218 218 218 218 218 218 218 218 218 218 218 218 218 218
218 218 218 218 218 218 218 218 218 218 218 212 175 79 3 0 24 127 205 218 218 218 218 218 218 218 218 218 218 218 218 218 218 218 218 218 218 218 218 218 218 218 218 218 218 218 218 218 218 218 218 218 218 218 218 218 218 218 218 218 218 218 218 218
218 218 218 218 218 218 218 218 218 218 218 206 147 56 2 6 51 151 218 218 218 218 218 218 218 218 218 218 218 218 218 218 218 218 218 218 218 218 218 218 218 218 218 218 218 218 218 218 218 218 218 218 218 218 218 218 218 218 218 218 218 218 218 218
218 218 218 218 218 218 218 218 218 218 218 200 120 32 0 13 81 172 218 218 218 218 218 218 218 218 218 218 218 218 218 218 218 218 218 218 218 218 218 218 218 218 218 218 218 218 218 218 218 218 218 218 218 218 218 218 218 218 218 218 218 218 218 218
218 218 218 218 218 218 218 218 218 218 215 188 92 8 0 20 111 193 218 218 218 218 218 218 218 218 218 218 218 218 218 218 218 218 218 218 218 218 218 218 218 218 218 218 218 218 218 218 218 218 218 218 218 218 218 218 218 218 218 218 218 218 218 218
218 218 218 218 218 218 218 218 218 218 209 162 68 2 3 35 140 214 218 218 218 218 218 218 218 218 218 218 218 218 218 218 218 218 218 218 218 218 218 218 218 218 218 218 218 218 218 218 218 218 218 218 218 218 218 218 218 218 218 218 218 218 218 218
218 218 218 218 218 218 218 218 218 218 202 130 42 1 10 66 162 218 218 218 218 218 218 218 218 218 218 218 218 218 218 218 218 218 218 218 218 218 218 218 218 218 218 218 218 218 218 218 218 218 218 218 218 218 218 218 218 218 218 218 218 218 218 218
218 218 218 218 218 218 218 218 218 218 184 84 15 0 15 94 182 218 218 218 218 218 218 218 218 218 218 218 218 218 218 218 218 218 218 218 218 218 218 218 218 218 218 218 218 218 218 218 218 218 218 218 218 218 218 218 218 218 218 218 218 218 218 218
218 218 218 218 218 218 218 218 218 202 139 41 0 0 18 121 203 218 218 218 218 218 218 218 218 218 218 218 218 218 218 218 218 218 218 218 218 218 218 218 218 218 218 218 218 218 218 218 218 218 218 218 218 218 218 218 218 218 218 218 218 218 218 218
218 218 218 218 218 218 218 218 218 184 100 22 0 5 43 146 217 218 218 218 218 218 218 218 218 218 218 218 218 218 218 218 218 218 218 218 218 218 218 218 218 218 218 218 218 218 218 218 218 218 218 218 218 218 218 218 218 218 218 218 218 218 218 218
218 218 218 218 218 218 218 218 218 181 90 19 1 22 92 176 217 218 218 218 218 218 218 218 218 218 218 218 218 218 218 218 218 218 218 218 218 218 218 218 218 218 218 218 218 218 218 218 218 218 218 218 218 218 218 218 218 218 218 218 218 218 218 218
218 218 218 218 218 218 218 218 216 195 121 41 21 68 149 202 218 218 218 218 218 218 218 218 218 218 218 218 218 218 218 218 218 218 218 218 218 218 218 218 218 218 218 218 218 218 218 218 218 218 218 218 218 218 218 218 218 218 218 218 218 218 218 218
218 218 218 218 218 218 218 218 218 208 170 116 102 147 195 216 218 218 218 218 218 218 218 218 218 218 218 218 218 218 218 218 218 218 218 218 218 218 218 218 218 218 218 218 218 218 218 218 218 218 218 218 218 218 218 218 218 218 218 218 218 218 218 218
218 218 218 218 218 218 218 218 218 217 206 192 190 199 212 218 218 218 218 218 218 218 218 218 218 218 218 218 218 218 218 218 218 218 218 218 218 218 218 218 218 218 218 218 218 218 218 218 218 218 218 218 218 218 218 218 218 218 218 218 218 218 218 218
218 218 218 218 218 218 218 218 218 218 218 218 218 216 218 218 218 218 218 218 218 218 218 218 218 218 218 218 218 218 218 218 218 218 218 218 218 218 218 218 218 218 218 218 218 218 218 218 218 218 218 218 218 218 218 218 218 218 218 218 218 218 218 218
218 218 218 218 218 218 218 218 218 218 218 218 218 218 218 218 218 218 218 218 218 218 218 218 218 218 218 218 218 218 218 218 218 218 218 218 218 218 218 218 218 218 218 218 218 218 218 218 218 218 218 218 218 218 218 218 218 218 218 218 218 218 218 218
218 218 218 218 218 218 218 218 218 218 218 218 218 218 218 218 218 218 218 218 218 218 218 218 218 218 218 218 218 218 218 218 218 218 218 218 218 218 218 218 218 218 218 218 218 218 218 218 218 218 218 218 218 218 218 218 218 218 218 218 218 218 218 218
218 218 218 218 218 218 218 218 218 218 218 218 218 218 218 218 218 218 218 218 218 218 218 218 218 218 218 218 218 218 218 218 218 218 218 218 218 218 218 218 218 218 218 218 218 218 218 218 218 218 218 218 218 218 218 218 218 218 218 218 218 218 218 218
218 218 218 218 218 218 218 218 218 218 218 218 218 218 218 218 218 218 218 218 218 218 218 218 218 218 218 218 218 218 218 218 218 218 218 218 218 218 218 218 218 218 218 218 218 218 218 218 218 218 218 218 218 218 218 218 218 218 218 218 218 218 218 218
218 218 218 218 218 218 218 218 218 218 218 218 218 218 218 218 218 218 218 218 218 218 218 218 218 218 218 218 218 218 218 218 218 218 218 218 218 218 218 218 218 218 218 218 218 218 218 218 218 218 218 218 218 218 218 218 218 218 218 218 218 218 218 218
218 218 218 218 218 218 218 218 218 218 218 218 218 218 218 218 218 218 218 218 218 218 218 218 218 218 218 218 218 218 218 218 218 218 218 218 218 218 218 218 218 218 218 218 218 218 218 218 218 218 218 218 218 218 218 218 218 218 218 218 218 218 218 218
218 218 218 218 218 218 218 218 218 218 218 218 218 218 218 218 218 218 218 218 218 218 218 218 218 218 218 218 218 218 218 218 218 218 218 218 218 218 218 218 218 218 218 218 218 218 218 218 218 218 218 218 218 218 218 218 218 218 218 218 218 218 218 218
218 218 218 218 218 218 218 218 218 218 218 218 218 218 218 218 218 218 218 218 218 218 218 218 218 218 218 218 218 218 218 218 218 218 218 218 218 218 218 218 218 218 218 218 218 218 218 218 218 218 218 218 218 218 218 218 218 218 218 218 218 218 218 218
218 218 218 218 218 218 218 218 218 218 218 218 218 218 218 218 218 218 218 218 218 218 218 218 218 218 218 218 218 218 218 218 218 218 218 218 218 218 218 218 218 218 218 218 218 218 218 218 218 218 218 218 218 218 218 218 218 218 218 218 218 218 218 218
218 218 218 218 218 218 218 218 218 218 218 218 218 218 218 218 218 218 218 218 218 218 218 218 218 218 218 218 218 218 218 218 218 218 218 218 218 218 218 218 218 218 218 218 218 218 218 218 218 218 218 218 218 218 218 218 218 218 218 218 218 218 218 218
218 218 218 218 218 218 218 218 218 218 218 218 218 218 218 218 218 218 218 218 218 218 218 218 218 218 218 218 218 218 218 218 218 218 218 218 218 218 218 218 218 218 218 218 218 218 218 218 218 218 218 218 218 218 218 218 218 218 218 218 218 218 218 218
