P2
64 64
255
188 188 188 188 188 188 188 188 188 188 188 188 188 188 188 188 188 188 188 188 188 188 188 188 188 188 188 186 139 48 5 0 2 14 43 65 73 72 49 17 4 0 1 25 80 135 174 187 188 188 188 188 188 188 188 188 188 188 188 188 188 188 188 188
188 188 188 188 188 188 188 188 188 188 188 188 188 188 188 188 188 188 188 188 188 188 188 188 188 188 186 162 80 11 0 0 20 66 114 143 150 147 122 72 33 11 2 1 22 70 141 181 187 188 188 188 188 188 188 188 188 188 188 188 188 188 188 188
188 188 188 188 188 188 188 188 188 188 188 188 188 188 188 188 188 188 188 188 188 188 188 188 188 187 168 109 34 2 0 21 84 141 170 184 187 187 179 153 105 53 19 3 0 19 95 167 187 188 188 188 188 188 188 188 188 188 188 188 188 188 188 188
188 188 188 188 188 188 188 188 188 188 188 188 188 188 188 188 188 188 188 188 188 188 188 188 187 178 127 51 8 5 25 79 147 178 185 187 187 187 187 186 174 136 76 21 0 4 53 140 182 187 188 188 188 188 188 188 188 188 188 188 188 188 188 188
188 188 188 188 188 188 188 188 188 188 188 188 188 188 188 188 188 188 188 188 188 188 188 187 184 153 75 14 1 27 83 141 178 187 188 188 188 188 188 187 186 178 147 76 11 2 24 99 169 187 188 188 188 188 188 188 188 188 188 188 188 188 188 188
188 188 188 188 188 188 188 188 188 188 188 188 188 188 188 188 188 188 188 188 188 188 188 187 173 112 31 1 2 65 143 178 187 188 188 188 188 188 188 188 187 187 178 142 70 17 7 50 139 185 188 188 188 188 188 188 188 188 188 188 188 188 188 188
188 188 188 188 188 188 188 188 188 188 188 188 188 188 188 188 188 188 188 188 188 188 188 185 147 65 8 1 19 109 177 187 188 188 188 188 188 188 188 188 188 188 187 176 132 45 3 21 103 178 188 188 188 188 188 188 188 188 188 188 188 188 188 188
188 188 188 188 188 188 188 188 188 188 188 188 188 188 188 188 188 188 188 188 188 188 188 178 106 25 2 11 66 154 187 188 188 188 188 188 188 188 188 188 188 188 188 187 168 74 4 7 75 169 188 188 188 188 188 188 188 188 188 188 188 188 188 188
188 188 188 188 188 188 188 188 188 188 188 188 188 188 188 188 188 188 188 188 188 188 186 154 61 6 9 55 136 182 188 188 188 188 188 188 188 188 188 188 188 188 188 188 182 99 11 2 55 155 187 188 188 188 188 188 188 188 188 188 188 188 188 188
188 188 188 188 188 188 188 188 188 188 188 188 188 188 188 188 188 188 188 188 188 187 176 113 27 2 30 110 174 187 188 188 188 188 188 188 188 188 188 188 188 188 188 188 186 120 21 0 42 139 187 188 188 188 188 188 188 188 188 188 188 188 188 188
188 188 188 188 188 188 188 188 188 188 188 188 188 188 188 188 188 188 188 188 188 185 153 67 8 8 64 148 184 188 188 188 188 188 188 188 188 188 188 188 188 188 188 188 187 135 31 0 33 127 185 188 188 188 188 188 188 188 188 188 188 188 188 188
188 188 188 188 188 188 188 188 188 188 188 188 188 188 188 188 188 188 188 188 187 176 116 29 2 26 104 171 187 188 188 188 188 188 188 188 188 188 188 188 188 188 188 188 187 143 38 1 28 120 184 188 188 188 188 188 188 188 188 188 188 188 188 188
188 188 188 188 188 188 188 188 188 188 188 188 188 188 188 188 188 188 188 188 186 158 75 8 5 56 141 183 187 188 188 188 188 188 188 188 188 188 188 188 188 188 188 188 187 145 41 1 26 117 183 188 188 188 188 188 188 188 188 188 188 188 188 188
188 188 188 188 188 188 188 188 188 188 188 188 188 188 188 188 188 188 188 187 181 128 38 2 15 96 169 187 188 188 188 188 188 188 188 188 188 188 188 188 188 188 188 188 187 146 42 1 25 114 181 188 188 188 188 188 188 188 188 188 188 188 188 188
188 188 188 188 188 188 188 188 188 188 188 188 188 188 188 188 188 188 188 187 172 94 15 1 42 138 183 188 188 188 188 188 188 188 188 188 188 188 188 188 188 188 188 188 187 147 43 1 24 112 181 188 188 188 188 188 188 188 188 188 188 188 188 188
188 188 188 188 188 188 188 188 188 188 188 188 188 188 188 188 188 188 184 165 123 49 4 4 78 170 187 188 188 188 188 188 188 188 188 188 188 188 188 188 188 188 188 188 187 148 45 1 22 110 179 188 188 188 188 188 188 188 188 188 188 188 188 188
188 188 188 188 188 188 188 188 188 188 188 188 188 188 188 188 188 188 171 108 48 13 0 17 114 182 187 188 188 188 188 188 188 188 188 188 188 188 188 188 188 188 188 188 187 150 46 1 22 107 178 187 188 188 188 188 188 188 188 188 188 188 188 188
188 188 188 188 188 188 188 188 188 188 188 188 188 188 188 188 188 187 146 47 7 0 0 40 147 187 188 188 188 188 188 188 188 188 188 188 188 188 188 188 188 188 188 188 187 150 47 1 20 105 178 187 188 188 188 188 188 188 188 188 188 188 188 188
188 188 188 188 188 188 188 188 188 188 188 188 188 188 188 188 188 187 123 10 0 0 5 74 169 188 188 188 188 188 188 188 188 188 188 188 188 188 188 188 188 188 188 188 187 152 48 1 19 103 176 187 188 188 188 188 188 188 188 188 188 188 188 188
188 188 188 188 188 188 188 188 188 188 188 188 188 188 188 188 188 187 115 2 0 0 18 110 181 188 188 188 188 188 188 188 188 188 188 188 188 188 188 188 188 188 188 188 187 153 50 1 18 100 175 187 188 188 188 188 188 188 188 188 188 188 188 188
188 188 188 188 188 188 188 188 188 188 188 188 188 188 188 188 188 187 122 6 0 0 28 127 183 188 188 188 188 188 188 188 188 188 188 188 188 188 188 188 188 188 188 188 187 153 52 1 17 98 174 187 188 188 188 188 188 188 188 188 188 188 188 188
188 188 188 188 188 188 188 188 188 188 188 188 188 188 188 188 188 187 130 12 0 0 18 100 168 185 187 188 188 188 188 188 188 188 188 188 188 188 188 188 188 188 188 188 187 153 51 0 17 98 173 187 188 188 188 188 188 188 188 188 188 188 188 188
188 188 188 188 188 188 188 188 188 188 188 188 188 188 188 188 188 187 138 23 0 0 3 42 115 168 184 187 188 188 188 188 188 188 188 188 188 188 188 188 188 188 188 188 187 149 45 0 18 104 175 187 188 188 188 188 188 188 188 188 188 188 188 188
188 188 188 188 188 188 188 188 188 188 188 188 188 188 188 188 188 187 151 43 0 0 0 8 43 104 161 184 187 187 187 188 188 188 188 188 188 188 188 188 188 188 188 188 186 136 30 0 22 116 180 187 188 188 188 188 188 188 188 188 188 188 188 188
188 188 188 188 188 188 188 188 188 188 188 188 188 188 188 188 188 187 166 69 0 0 0 1 9 36 89 139 174 186 187 188 188 187 188 188 188 188 188 188 188 188 188 187 176 106 15 0 28 131 184 188 188 188 188 188 188 188 188 188 188 188 188 188
188 188 188 188 188 188 188 188 188 188 188 188 188 188 188 188 188 188 175 89 2 1 13 14 2 7 26 61 110 150 169 182 187 187 188 188 188 187 187 187 187 187 186 180 145 61 5 0 41 147 187 188 188 188 188 188 188 188 188 188 188 188 188 188
188 188 188 188 188 188 188 188 188 188 188 188 188 188 188 188 188 188 178 99 3 2 33 53 25 2 2 14 42 79 105 130 150 164 177 185 187 187 187 187 187 184 175 148 83 16 0 0 63 164 187 188 188 188 188 188 188 188 188 188 188 188 188 188
188 188 188 188 188 188 188 188 188 188 188 188 188 188 188 188 188 188 177 100 5 2 49 108 79 22 0 0 5 22 36 57 79 98 115 127 134 136 133 131 129 124 107 70 22 0 0 3 96 178 188 188 188 188 188 188 188 188 188 188 188 188 188 188
188 188 188 188 188 188 188 188 188 188 188 188 188 188 188 188 188 188 177 101 6 2 53 144 143 73 18 5 1 0 2 10 22 32 42 49 56 57 54 51 48 44 33 14 3 0 0 32 143 186 188 188 188 188 188 188 188 188 188 188 188 188 188 188
188 188 188 188 188 188 188 188 188 188 188 188 188 188 188 188 188 188 177 103 8 2 51 152 181 144 76 35 19 12 6 1 0 0 2 4 8 10 10 9 8 7 4 0 0 3 28 104 175 187 188 188 188 188 188 188 188 188 188 188 188 188 188 188
188 188 188 188 188 188 188 188 188 188 188 188 188 188 188 188 188 188 178 105 10 1 48 150 187 183 159 117 83 59 37 19 12 8 4 2 1 1 0 1 1 1 3 14 32 57 102 159 186 188 188 188 188 188 188 188 188 188 188 188 188 188 188 188
188 188 188 188 188 188 188 188 188 188 188 188 188 188 188 188 188 188 178 107 11 1 46 149 187 187 184 177 162 142 116 85 62 45 30 22 22 22 24 26 28 32 40 63 97 130 161 184 188 188 188 188 188 188 188 188 188 188 188 188 188 188 188 188
188 188 188 188 188 188 188 188 188 188 188 188 188 188 188 188 188 188 178 109 14 0 44 147 187 188 188 187 184 181 175 161 145 130 116 104 96 92 93 96 98 102 113 135 160 178 186 187 188 188 188 188 188 188 188 188 188 188 188 188 188 188 188 188
188 188 188 188 188 188 188 188 188 188 188 188 188 188 188 188 188 188 179 111 16 0 42 146 187 188 188 188 187 187 187 184 180 179 178 175 171 168 170 170 170 172 175 182 187 188 188 188 188 188 188 188 188 188 188 188 188 188 188 188 188 188 188 188
188 188 188 188 188 188 188 188 188 188 188 188 188 188 188 188 188 188 179 113 17 0 39 144 187 188 188 188 188 188 188 188 187 187 187 187 186 185 185 186 187 187 188 188 188 188 188 188 188 188 188 188 188 188 188 188 188 188 188 188 188 188 188 188
188 188 188 188 188 188 188 188 188 188 188 188 188 188 188 188 188 188 180 116 19 0 36 142 187 188 188 188 188 188 188 188 188 188 188 188 188 188 188 188 188 188 188 188 188 188 188 188 188 188 188 188 188 188 188 188 188 188 188 188 188 188 188 188
188 188 188 188 188 188 188 188 188 188 188 188 188 188 188 188 188 188 181 118 21 0 34 141 187 188 188 188 188 188 188 188 188 188 188 188 188 188 188 188 188 188 188 188 188 188 188 188 188 188 188 188 188 188 188 188 188 188 188 188 188 188 188 188
188 188 188 188 188 188 188 188 188 188 188 188 188 188 188 188 188 188 181 120 23 0 32 139 187 188 188 188 188 188 188 188 188 188 188 188 188 188 188 188 188 188 188 188 188 188 188 188 188 188 188 188 188 188 188 188 188 188 188 188 188 188 188 188
188 188 188 188 188 188 188 188 188 188 188 188 188 188 188 188 188 188 181 122 25 0 30 137 187 188 188 188 188 188 188 188 188 188 188 188 188 188 188 188 188 188 188 188 188 188 188 188 188 188 188 188 188 188 188 188 188 188 188 188 188 188 188 188
188 188 188 188 188 188 188 188 188 188 188 188 188 188 188 188 188 188 182 124 27 0 27 136 187 188 188 188 188 188 188 188 188 188 188 188 188 188 188 188 188 188 188 188 188 188 188 188 188 188 188 188 188 188 188 188 188 188 188 188 188 188 188 188
188 188 188 188 188 188 188 188 188 188 188 188 188 188 188 188 188 188 182 127 30 0 25 134 187 188 188 188 188 188 188 188 188 188 188 188 188 188 188 188 188 188 188 188 188 188 188 188 188 188 188 188 188 188 188 188 188 188 188 188 188 188 188 188
188 188 188 188 188 188 188 188 188 188 188 188 188 188 188 188 188 188 184 132 33 0 20 130 187 188 188 188 188 188 188 188 188 188 188 188 188 188 188 188 188 188 188 188 188 188 188 188 188 188 188 188 188 188 188 188 188 188 188 188 188 188 188 188
188 188 188 188 188 188 188 188 188 188 188 188 188 188 188 188 188 188 185 139 37 0 14 125 187 188 188 188 188 188 188 188 188 188 188 188 188 188 188 188 188 188 188 188 188 188 188 188 188 188 188 188 188 188 188 188 188 188 188 188 188 188 188 188
188 188 188 188 188 188 188 188 188 188 188 188 188 188 188 188 188 188 187 147 42 0 8 119 187 188 188 188 188 188 188 188 188 188 188 188 188 188 188 188 188 188 188 188 188 188 188 188 188 188 188 188 188 188 188 188 188 188 188 188 188 188 188 188
188 188 188 188 188 188 188 188 188 188 188 188 188 188 188 188 188 188 187 153 48 1 6 115 187 188 188 188 188 188 188 188 188 188 188 188 188 188 188 188 188 188 188 188 188 188 188 188 188 188 188 188 188 188 188 188 188 188 188 188 188 188 188 188
188 188 188 188 188 188 188 188 188 188 188 188 188 188 188 188 188 188 187 157 51 1 6 112 187 188 188 188 188 188 188 188 188 188 188 188 188 188 188 188 188 188 188 188 188 188 188 188 188 188 188 188 188 188 188 188 188 188 188 188 188 188 188 188
188 188 188 188 188 188 188 188 188 188 188 188 188 188 188 188 188 188 187 159 53 1 5 110 187 188 188 188 188 188 188 188 188 188 188 188 188 188 188 188 188 188 188 188 188 188 188 188 188 188 188 188 188 188 188 188 188 188 188 188 188 188 188 188
188 188 188 188 188 188 188 188 188 188 188 188 188 188 188 188 188 188 187 161 56 2 5 108 187 188 188 188 188 188 188 188 188 188 188 188 188 188 188 188 188 188 188 188 188 188 188 188 188 188 188 188 188 188 188 188 188 188 188 188 188 188 188 188
188 188 188 188 188 188 188 188 188 188 188 188 188 188 188 188 188 188 187 163 59 2 5 106 187 188 188 188 188 188 188 188 188 188 188 188 188 188 188 188 188 188 188 188 188 188 188 188 188 188 188 188 188 188 188 188 188 188 188 188 188 188 188 188
188 188 188 188 188 188 188 188 188 188 188 188 188 188 188 188 188 188 187 165 61 2 5 104 187 188 188 188 188 188 188 188 188 188 188 188 188 188 188 188 188 188 188 188 188 188 188 188 188 188 188 188 188 188 188 188 188 188 188 188 188 188 188 188
188 188 188 188 188 188 188 188 188 188 188 188 188 188 188 188 188 188 187 167 63 2 5 102 187 188 188 188 188 188 188 188 188 188 188 188 188 188 188 188 188 188 188 188 188 188 188 188 188 188 188 188 188 188 188 188 188 188 188 188 188 188 188 188
188 188 188 188 188 188 188 188 188 188 188 188 188 188 188 188 188 188 187 167 64 2 5 101 187 188 188 188 188 188 188 188 188 188 188 188 188 188 188 188 188 188 188 188 188 188 188 188 188 188 188 188 188 188 188 188 188 188 188 188 188 188 188 188
188 188 188 188 188 188 188 188 188 188 188 188 188 188 188 188 188 188 187 166 62 2 6 101 187 188 188 188 188 188 188 188 188 188 188 188 188 188 188 188 188 188 188 188 188 188 188 188 188 188 188 188 188 188 188 188 188 188 188 188 188 188 188 188
188 188 188 188 188 188 188 188 188 188 188 188 188 188 188 188 188 188 188 161 59 1 11 105 187 188 188 188 188 188 188 188 188 188 188 188 188 188 188 188 188 188 188 188 188 188 188 188 188 188 188 188 188 188 188 188 188 188 188 188 188 188 188 188
188 188 188 188 188 188 188 188 188 188 188 188 188 188 188 188 188 188 188 158 56 1 14 107 187 188 188 188 188 188 188 188 188 188 188 188 188 188 188 188 188 188 188 188 188 188 188 188 188 188 188 188 188 188 188 188 188 188 188 188 188 188 188 188
188 188 188 188 188 188 188 188 188 188 188 188 188 188 188 188 188 188 188 156 55 2 18 110 187 188 188 188 188 188 188 188 188 188 188 188 188 188 188 188 188 188 188 188 188 188 188 188 188 188 188 188 188 188 188 188 188 188 188 188 188 188 188 188
188 188 188 188 188 188 188 188 188 188 188 188 188 188 188 188 188 188 187 156 61 5 31 122 187 188 188 188 188 188 188 188 188 188 188 188 188 188 188 188 188 188 188 188 188 188 188 188 188 188 188 188 188 188 188 188 188 188 188 188 188 188 188 188
188 188 188 188 188 188 188 188 188 188 188 188 188 188 188 188 188 188 187 162 84 30 62 144 187 188 188 188 188 188 188 188 188 188 188 188 188 188 188 188 188 188 188 188 188 188 188 188 188 188 188 188 188 188 188 188 188 188 188 188 188 188 188 188
188 188 188 188 188 188 188 188 188 188 188 188 188 188 188 188 188 188 188 175 127 87 116 167 187 188 188 188 188 188 188 188 188 188 188 188 188 188 188 188 188 188 188 188 188 188 188 188 188 188 188 188 188 188 188 188 188 188 188 188 188 188 188 188
188 188 188 188 188 188 188 188 188 188 188 188 188 188 188 188 188 188 188 185 171 157 168 184 187 188 188 188 188 188 188 188 188 188 188 188 188 188 188 188 188 188 188 188 188 188 188 188 188 188 188 188 188 188 188 188 188 188 188 188 188 188 188 188
188 188 188 188 188 188 188 188 188 188 188 188 188 188 188 188 188 188 188 187 186 185 187 188 188 188 188 188 188 188 188 188 188 188 188 188 188 188 188 188 188 188 188 188 188 188 188 188 188 188 188 188 188 188 188 188 188 188 188 188 188 188 188 188
188 188 188 188 188 188 188 188 188 188 188 188 188 188 188 188 188 188 188 188 187 187 187 188 188 188 188 188 188 188 188 188 188 188 188 188 188 188 188 188 188 188 188 188 188 188 188 188 188 188 188 188 188 188 188 188 188 188 188 188 188 188 188 188
188 188 188 188 188 188 188 188 188 188 188 188 188 188 188 188 188 188 188 188 188 188 188 188 188 188 188 188 188 188 188 188 188 188 188 188 188 188 188 188 188 188 188 188 188 188 188 188 188 188 188 188 188 188 188 188 188 188 188 188 188 188 188 188
188 188 188 188 188 188 188 188 188 188 188 188 188 188 188 188 188 188 188 188 188 188 188 188 188 188 188 188 188 188 188 188 188 188 188 188 188 188 188 188 188 188 188 188 188 188 188 188 188 188 188 188 188 188 188 188 188 188 188 188 188 188 188 188
