P2
64 64
255
142 142 142 142 142 142 142 142 142 142 142 142 142 142 142 142 142 142 142 142 142 142 142 142 142 142 142 142 142 142 142 142 142 142 142 142 142 142 142 142 142 142 142 142 142 142 142 142 142 142 142 142 142 142 142 142 142 142 142 142 142 142 142 142
142 142 142 142 142 142 142 142 142 142 142 142 142 142 142 142 142 142 142 142 142 142 142 142 142 142 142 142 142 142 142 142 142 142 142 142 142 142 142 142 142 142 142 142 142 142 142 142 142 142 142 142 142 142 142 142 142 142 142 142 142 142 142 142
142 142 142 142 142 142 142 142 142 142 142 142 142 142 142 142 142 142 142 142 142 142 142 142 142 142 142 141 142 142 142 142 142 142 142 142 142 142 142 142 142 142 142 142 142 142 142 142 142 142 142 142 142 142 142 142 142 142 142 142 142 142 142 142
142 142 142 142 142 142 142 142 142 142 142 142 142 142 142 142 142 142 142 142 142 142 142 142 140 135 132 131 123 118 118 125 133 142 142 142 142 142 142 142 142 142 142 142 142 142 142 142 142 142 142 142 142 142 142 142 142 142 142 142 142 142 142 142
142 142 142 142 142 142 142 142 142 142 142 142 142 142 142 142 142 142 142 142 142 142 142 140 127 108 91 76 68 66 68 78 90 99 108 118 128 136 142 142 142 142 142 142 142 142 142 142 142 142 142 142 142 142 142 142 142 142 142 142 142 142 142 142
142 142 142 142 142 142 142 142 142 142 142 142 142 142 142 142 142 142 142 142 142 142 141 127 92 49 24 19 20 19 16 16 27 40 53 68 86 101 116 132 140 142 142 142 142 142 142 142 142 142 142 142 142 142 142 142 142 142 142 142 142 142 142 142
142 142 142 142 142 142 142 142 142 142 142 142 142 142 142 142 142 142 142 142 142 142 131 95 38 4 3 1 1 0 0 1 4 7 11 16 23 39 64 97 124 138 142 142 142 142 142 142 142 142 142 142 142 142 142 142 142 142 142 142 142 142 142 142
142 142 142 142 142 142 142 142 142 142 142 142 142 142 142 142 142 142 142 142 142 140 110 46 5 0 0 2 7 5 2 1 1 0 0 0 3 8 20 45 80 113 131 140 142 142 142 142 142 142 142 142 142 142 142 142 142 142 142 142 142 142 142 142
142 142 142 142 142 142 142 142 142 142 142 142 142 142 142 142 142 142 142 142 142 136 79 12 0 3 11 24 36 44 43 36 26 16 5 1 1 0 1 5 22 56 91 121 137 142 142 142 142 142 142 142 142 142 142 142 142 142 142 142 142 142 142 142
142 142 142 142 142 142 142 142 142 142 142 142 142 142 142 142 142 142 142 142 141 124 57 4 2 18 48 77 100 104 99 90 78 67 54 40 27 15 4 0 3 16 43 83 121 140 142 142 142 142 142 142 142 142 142 142 142 142 142 142 142 142 142 142
142 142 142 142 142 142 142 142 142 142 142 142 142 142 142 142 142 142 142 142 140 116 48 2 4 40 100 132 134 134 133 132 129 124 110 93 76 54 23 5 1 1 8 33 75 112 134 141 142 142 142 142 142 142 142 142 142 142 142 142 142 142 142 142
142 142 142 142 142 142 142 142 142 142 142 142 142 142 142 142 142 142 142 142 141 115 48 5 4 53 121 140 142 142 142 142 142 139 136 131 124 112 81 47 22 7 1 1 24 63 103 131 141 142 142 142 142 142 142 142 142 142 142 142 142 142 142 142
142 142 142 142 142 142 142 142 142 142 142 142 142 142 142 142 142 142 142 142 141 118 53 7 1 47 119 142 142 142 142 142 142 142 142 142 142 139 124 99 66 30 4 0 5 22 59 102 134 141 142 142 142 142 142 142 142 142 142 142 142 142 142 142
142 142 142 142 142 142 142 142 142 142 142 142 142 142 142 142 142 142 142 142 142 125 62 8 0 34 110 141 142 142 142 142 142 142 142 142 142 142 140 133 115 82 39 11 1 3 18 53 101 131 141 142 142 142 142 142 142 142 142 142 142 142 142 142
142 142 142 142 142 142 142 142 142 142 142 142 142 142 142 142 142 142 142 142 142 132 76 9 0 23 91 137 142 142 142 142 142 142 142 142 142 142 142 142 141 127 91 49 19 3 1 15 53 103 133 141 142 142 142 142 142 142 142 142 142 142 142 142
142 142 142 142 142 142 142 142 142 142 142 142 142 142 142 142 142 142 142 142 142 138 97 24 1 14 71 128 142 142 142 142 142 142 142 142 142 142 142 142 142 139 125 96 56 17 2 3 17 62 119 140 142 142 142 142 142 142 142 142 142 142 142 142
142 142 142 142 142 142 142 142 142 142 142 142 142 142 142 142 142 142 142 142 142 140 114 43 2 6 49 114 141 142 142 142 142 142 142 142 142 142 142 142 142 142 140 131 106 62 21 2 1 26 96 136 142 142 142 142 142 142 142 142 142 142 142 142
142 142 142 142 142 142 142 142 142 142 142 142 142 142 142 142 142 142 142 142 142 142 124 62 9 1 29 98 136 142 142 142 142 142 142 142 142 142 142 142 142 142 142 141 136 109 61 17 6 21 86 133 142 142 142 142 142 142 142 142 142 142 142 142
142 142 142 142 142 142 142 142 142 142 142 142 142 142 142 142 142 142 142 142 142 142 132 81 20 1 14 72 123 139 142 142 142 142 142 142 142 142 142 142 142 142 142 142 141 133 103 56 29 49 103 136 142 142 142 142 142 142 142 142 142 142 142 142
142 142 142 142 142 142 142 142 142 142 142 142 142 142 142 142 142 142 142 142 142 142 138 104 39 4 6 39 90 121 137 142 142 142 142 142 142 142 142 142 142 142 142 142 142 141 131 107 89 98 124 139 142 142 142 142 142 142 142 142 142 142 142 142
142 142 142 142 142 142 142 142 142 142 142 142 142 142 142 142 142 142 142 142 142 142 141 128 75 18 2 14 41 78 115 135 141 142 142 142 142 142 142 142 142 142 142 142 142 142 141 138 128 129 137 141 142 142 142 142 142 142 142 142 142 142 142 142
142 142 142 142 142 142 142 142 142 142 142 142 142 142 142 142 142 142 142 142 142 142 142 141 111 48 8 1 5 22 61 99 124 136 141 142 142 142 142 142 142 142 142 142 142 142 142 141 140 141 141 142 142 142 142 142 142 142 142 142 142 142 142 142
142 142 142 142 142 142 142 142 142 142 142 142 142 142 142 142 142 142 142 142 142 142 142 142 129 84 33 7 0 4 19 50 84 113 135 141 142 142 142 142 142 142 142 142 142 142 142 142 142 142 142 142 142 142 142 142 142 142 142 142 142 142 142 142
142 142 142 142 142 142 142 142 142 142 142 142 142 142 142 142 142 142 142 142 142 142 142 142 138 116 73 31 7 1 2 12 31 58 91 119 134 140 142 142 142 142 142 142 142 142 142 142 142 142 142 142 142 142 142 142 142 142 142 142 142 142 142 142
142 142 142 142 142 142 142 142 142 142 142 142 142 142 142 142 142 142 142 142 142 142 142 142 139 132 116 83 44 15 1 0 0 10 35 67 98 123 140 141 142 142 142 142 142 142 142 142 142 142 142 142 142 142 142 142 142 142 142 142 142 142 142 142
142 142 142 142 142 142 142 142 142 142 142 142 142 142 142 142 142 142 142 142 142 141 138 130 121 114 104 80 52 23 2 0 0 0 6 17 32 48 73 98 119 135 141 142 142 142 142 142 142 142 142 142 142 142 142 142 142 142 142 142 142 142 142 142
142 142 142 142 142 142 142 142 142 142 142 142 142 142 142 142 142 142 141 141 136 124 108 92 74 55 44 35 28 16 2 0 0 0 0 0 0 7 20 39 71 110 137 142 142 142 142 142 142 142 142 142 142 142 142 142 142 142 142 142 142 142 142 142
142 142 142 142 142 142 142 142 142 142 142 142 142 142 142 142 142 139 133 118 96 76 54 35 17 11 9 3 1 0 0 0 0 0 0 0 0 0 0 1 12 52 113 138 142 142 142 142 142 142 142 142 142 142 142 142 142 142 142 142 142 142 142 142
142 142 142 142 142 142 142 142 142 142 142 142 142 142 142 142 137 122 90 60 40 24 7 1 2 1 1 2 2 0 2 4 7 6 2 0 0 0 0 0 0 16 81 132 142 142 142 142 142 142 142 142 142 142 142 142 142 142 142 142 142 142 142 142
142 142 142 142 142 142 142 142 142 142 142 142 142 142 142 139 121 75 33 15 5 1 0 0 5 14 18 19 24 36 42 42 41 36 29 24 17 7 1 0 0 11 68 128 142 142 142 142 142 142 142 142 142 142 142 142 142 142 142 142 142 142 142 142
142 142 142 142 142 142 142 142 142 142 142 142 142 142 141 128 83 28 5 0 0 2 7 25 41 55 66 77 87 94 99 100 104 104 96 86 70 41 11 0 4 28 83 131 142 142 142 142 142 142 142 142 142 142 142 142 142 142 142 142 142 142 142 142
142 142 142 142 142 142 142 142 142 142 142 142 142 142 135 99 37 4 0 1 9 31 58 78 94 109 124 128 129 132 137 140 141 135 132 131 128 110 75 51 49 72 113 138 142 142 142 142 142 142 142 142 142 142 142 142 142 142 142 142 142 142 142 142
142 142 142 142 142 142 142 142 142 142 142 142 142 142 121 57 7 0 2 15 52 92 112 124 134 140 140 141 142 142 142 142 142 142 142 142 142 140 127 112 108 121 136 141 142 142 142 142 142 142 142 142 142 142 142 142 142 142 142 142 142 142 142 142
142 142 142 142 142 142 142 142 142 142 142 142 142 141 103 28 0 1 15 60 108 129 138 141 142 142 142 142 142 142 142 142 142 142 142 142 142 142 142 141 141 142 142 142 142 142 142 142 142 142 142 142 142 142 142 142 142 142 142 142 142 142 142 142
142 142 142 142 142 142 142 142 142 142 142 142 142 138 87 17 0 5 42 102 134 141 142 142 142 142 142 142 142 142 142 142 142 142 142 142 142 142 142 142 142 142 142 142 142 142 142 142 142 142 142 142 142 142 142 142 142 142 142 142 142 142 142 142
142 142 142 142 142 142 142 142 142 142 142 142 142 131 73 12 0 14 69 125 141 142 142 142 142 142 142 142 142 142 142 142 142 142 142 142 142 142 142 142 142 142 142 142 142 142 142 142 142 142 142 142 142 142 142 142 142 142 142 142 142 142 142 142
142 142 142 142 142 142 142 142 142 142 142 142 142 124 61 9 0 29 94 136 142 142 142 142 142 142 142 142 142 142 142 142 142 142 142 142 142 142 142 142 142 142 142 142 142 142 142 142 142 142 142 142 142 142 142 142 142 142 142 142 142 142 142 142
142 142 142 142 142 142 142 142 142 142 142 142 142 118 50 6 1 43 113 140 142 142 142 142 142 142 142 142 142 142 142 142 142 142 142 142 142 142 142 142 142 142 142 142 142 142 142 142 142 142 142 142 142 142 142 142 142 142 142 142 142 142 142 142
142 142 142 142 142 142 142 142 142 142 142 142 142 115 45 4 1 49 123 142 142 142 142 142 142 142 142 142 142 142 142 142 142 142 142 142 142 142 142 142 142 142 142 142 142 142 142 142 142 142 142 142 142 142 142 142 142 142 142 142 142 142 142 142
142 142 142 142 142 142 142 142 142 142 142 142 142 118 47 3 0 47 121 142 142 142 142 142 142 142 142 142 142 142 142 142 142 142 142 142 142 142 142 142 142 142 142 142 142 142 142 142 142 142 142 142 142 142 142 142 142 142 142 142 142 142 142 142
142 142 142 142 142 142 142 142 142 142 142 142 142 126 53 1 3 43 115 142 142 142 142 142 142 142 142 142 142 142 142 142 142 142 142 142 142 142 142 142 142 142 142 142 142 142 142 142 142 142 142 142 142 142 142 142 142 142 142 142 142 142 142 142
142 142 142 142 142 142 142 142 142 142 142 142 142 131 62 4 3 38 109 141 142 142 142 142 142 142 142 142 142 142 142 142 142 142 142 142 142 142 142 142 142 142 142 142 142 142 142 142 142 142 142 142 142 142 142 142 142 142 142 142 142 142 142 142
142 142 142 142 142 142 142 142 142 142 142 142 142 131 73 11 1 30 100 137 142 142 142 142 142 142 142 142 142 142 142 142 142 142 142 142 142 142 142 142 142 142 142 142 142 142 142 142 142 142 142 142 142 142 142 142 142 142 142 142 142 142 142 142
142 142 142 142 142 142 142 142 142 142 142 142 142 133 86 22 1 21 85 132 142 142 142 142 142 142 142 142 142 142 142 142 142 142 142 142 142 142 142 142 142 142 142 142 142 142 142 142 142 142 142 142 142 142 142 142 142 142 142 142 142 142 142 142
142 142 142 142 142 142 142 142 142 142 142 142 142 138 101 35 3 9 66 126 142 142 142 142 142 142 142 142 142 142 142 142 142 142 142 142 142 142 142 142 142 142 142 142 142 142 142 142 142 142 142 142 142 142 142 142 142 142 142 142 142 142 142 142
142 142 142 142 142 142 142 142 142 142 142 142 142 141 117 51 6 2 44 115 141 142 142 142 142 142 142 142 142 142 142 142 142 142 142 142 142 142 142 142 142 142 142 142 142 142 142 142 142 142 142 142 142 142 142 142 142 142 142 142 142 142 142 142
142 142 142 142 142 142 142 142 142 142 142 142 142 142 130 72 12 1 26 91 135 142 142 142 142 142 142 142 142 142 142 142 142 142 142 142 142 142 142 142 142 142 142 142 142 142 142 142 142 142 142 142 142 142 142 142 142 142 142 142 142 142 142 142
142 142 142 142 142 142 142 142 142 142 142 142 142 142 138 98 31 3 11 59 118 140 142 142 142 142 142 142 142 142 142 142 142 142 142 142 142 142 142 142 142 142 142 140 139 141 142 142 142 142 142 142 142 142 142 142 142 142 142 142 142 142 142 142
142 142 142 142 142 142 142 142 142 142 142 142 142 142 140 119 62 12 3 30 87 128 141 142 142 142 142 142 142 142 142 142 142 142 142 142 142 142 142 142 142 141 129 115 119 135 142 142 142 142 142 142 142 142 142 142 142 142 142 142 142 142 142 142
142 142 142 142 142 142 142 142 142 142 142 142 142 142 142 134 95 31 3 11 49 101 134 142 142 142 142 142 142 142 142 142 142 142 142 142 142 142 142 142 141 127 90 66 78 117 138 142 142 142 142 142 142 142 142 142 142 142 142 142 142 142 142 142
142 142 142 142 142 142 142 142 142 142 142 142 142 142 142 141 122 64 15 3 16 53 106 136 142 142 142 142 142 142 142 142 142 142 142 142 142 142 142 141 131 92 42 15 29 88 133 142 142 142 142 142 142 142 142 142 142 142 142 142 142 142 142 142
142 142 142 142 142 142 142 142 142 142 142 142 142 142 142 142 136 99 40 6 1 10 56 107 134 141 142 142 142 142 142 142 142 142 142 142 142 141 136 120 94 51 11 0 17 80 132 142 142 142 142 142 142 142 142 142 142 142 142 142 142 142 142 142
142 142 142 142 142 142 142 142 142 142 142 142 142 142 142 142 141 127 78 20 0 2 21 64 111 137 142 142 142 142 142 142 142 142 142 141 137 128 98 68 45 19 3 4 35 96 137 142 142 142 142 142 142 142 142 142 142 142 142 142 142 142 142 142
142 142 142 142 142 142 142 142 142 142 142 142 142 142 142 142 142 140 117 64 19 2 4 24 67 113 134 140 142 141 141 142 140 135 131 127 112 75 42 21 10 5 7 31 77 123 142 142 142 142 142 142 142 142 142 142 142 142 142 142 142 142 142 142
142 142 142 142 142 142 142 142 142 142 142 142 142 142 142 142 142 142 138 111 62 20 3 2 20 61 95 116 128 134 131 122 113 103 94 78 49 25 7 1 2 10 38 81 120 139 142 142 142 142 142 142 142 142 142 142 142 142 142 142 142 142 142 142
142 142 142 142 142 142 142 142 142 142 142 142 142 142 142 142 142 142 141 133 104 57 16 0 3 19 44 66 81 84 76 70 62 49 34 20 11 3 0 1 10 48 89 122 140 142 142 142 142 142 142 142 142 142 142 142 142 142 142 142 142 142 142 142
142 142 142 142 142 142 142 142 142 142 142 142 142 142 142 142 142 142 142 141 133 103 50 11 1 1 7 12 17 24 24 22 15 6 3 2 0 1 4 14 53 98 125 138 142 142 142 142 142 142 142 142 142 142 142 142 142 142 142 142 142 142 142 142
142 142 142 142 142 142 142 142 142 142 142 142 142 142 142 142 142 142 142 142 142 136 103 52 19 5 0 0 2 2 1 0 0 0 1 3 11 16 26 67 106 130 140 142 142 142 142 142 142 142 142 142 142 142 142 142 142 142 142 142 142 142 142 142
142 142 142 142 142 142 142 142 142 142 142 142 142 142 142 142 142 142 142 142 142 141 131 99 60 27 6 2 2 2 6 5 3 15 26 34 49 69 95 118 134 141 142 142 142 142 142 142 142 142 142 142 142 142 142 142 142 142 142 142 142 142 142 142
142 142 142 142 142 142 142 142 142 142 142 142 142 142 142 142 142 142 142 142 142 142 140 131 110 82 59 44 36 30 33 38 50 64 77 90 110 127 132 138 141 142 142 142 142 142 142 142 142 142 142 142 142 142 142 142 142 142 142 142 142 142 142 142
142 142 142 142 142 142 142 142 142 142 142 142 142 142 142 142 142 142 142 142 142 142 142 142 140 129 112 99 91 89 97 101 105 114 124 134 140 140 142 142 142 142 142 142 142 142 142 142 142 142 142 142 142 142 142 142 142 142 142 142 142 142 142 142
142 142 142 142 142 142 142 142 142 142 142 142 142 142 142 142 142 142 142 142 142 142 142 142 142 140 137 134 134 137 136 133 135 139 141 142 142 142 142 142 142 142 142 142 142 142 142 142 142 142 142 142 142 142 142 142 142 142 142 142 142 142 142 142
142 142 142 142 142 142 142 142 142 142 142 142 142 142 142 142 142 142 142 142 142 142 142 142 142 142 142 142 142 142 142 142 142 142 142 142 142 142 142 142 142 142 142 142 142 142 142 142 142 142 142 142 142 142 142 142 142 142 142 142 142 142 142 142
142 142 142 142 142 142 142 142 142 142 142 142 142 142 142 142 142 142 142 142 142 142 142 142 142 142 142 142 142 142 142 142 142 142 142 142 142 142 142 142 142 142 142 142 142 142 142 142 142 142 142 142 142 142 142 142 142 142 142 142 142 142 142 142
