P2
64 64
255
141 141 141 141 141 141 141 141 141 141 141 141 141 141 141 141 141 141 141 141 141 141 141 141 141 141 141 141 135 123 80 40 2 0 1 1 0 14 72 126 141 141 141 141 141 141 141 141 141 141 141 141 141 141 141 141 141 141 141 141 141 141 141 141
141 141 141 141 141 141 141 141 141 141 141 141 141 141 141 141 141 141 141 141 141 141 141 141 141 141 141 135 125 82 42 3 0 3 9 10 1 8 54 123 139 141 141 141 141 141 141 141 141 141 141 141 141 141 141 141 141 141 141 141 141 141 141 141
141 141 141 141 141 141 141 141 141 141 141 141 141 141 141 141 141 141 141 141 141 141 141 141 141 141 136 126 83 43 5 0 3 14 42 30 2 1 40 102 139 141 141 141 141 141 141 141 141 141 141 141 141 141 141 141 141 141 141 141 141 141 141 141
141 141 141 141 141 141 141 141 141 141 141 141 141 141 141 141 141 141 141 141 141 141 141 140 140 134 126 85 44 6 1 3 14 55 85 55 10 1 18 85 129 140 141 141 141 141 141 141 141 141 141 141 141 141 141 141 141 141 141 141 141 141 141 141
141 141 141 141 141 141 141 141 141 141 141 141 141 141 141 141 141 141 141 141 141 141 140 140 132 121 83 44 7 1 3 13 53 97 119 81 12 0 12 58 116 140 141 141 141 141 141 141 141 141 141 141 141 141 141 141 141 141 141 141 141 141 141 141
141 141 141 141 141 141 141 141 141 141 141 141 141 141 141 141 141 141 141 141 141 141 140 131 113 75 41 8 1 2 13 51 96 129 137 97 36 1 2 33 95 131 141 141 141 141 141 141 141 141 141 141 141 141 141 141 141 141 141 141 141 141 141 141
141 141 141 141 141 141 141 141 141 141 141 141 141 141 141 141 141 141 141 141 141 140 131 111 69 33 8 1 2 13 50 95 128 140 138 119 55 11 0 18 67 127 139 141 141 141 141 141 141 141 141 141 141 141 141 141 141 141 141 141 141 141 141 141
141 141 141 141 141 141 141 141 141 141 141 141 141 141 141 141 141 141 141 141 140 132 111 69 30 6 0 2 14 49 94 127 140 141 141 128 81 25 0 1 43 100 137 141 141 141 141 141 141 141 141 141 141 141 141 141 141 141 141 141 141 141 141 141
141 141 141 141 141 141 141 141 141 141 141 141 141 141 141 141 141 141 141 140 133 112 70 30 7 1 4 19 50 94 126 140 141 141 140 137 108 45 8 1 16 75 128 140 141 141 141 141 141 141 141 141 141 141 141 141 141 141 141 141 141 141 141 141
141 141 141 141 141 141 141 141 141 141 141 141 141 141 141 141 141 141 140 133 112 71 30 7 1 4 25 58 97 126 140 141 141 141 141 140 122 75 14 1 3 48 107 139 140 141 141 141 141 141 141 141 141 141 141 141 141 141 141 141 141 141 141 141
141 141 141 141 141 141 141 141 141 141 141 141 141 141 141 141 141 140 134 113 73 32 8 1 3 27 63 105 127 140 140 141 141 141 141 140 140 101 42 3 2 19 87 128 140 141 141 141 141 141 141 141 141 141 141 141 141 141 141 141 141 141 141 141
141 141 141 141 141 141 141 141 141 141 141 141 141 141 141 141 140 134 113 75 32 9 1 3 26 63 108 128 140 140 141 141 141 141 141 141 140 124 69 11 0 13 56 113 139 140 141 141 141 141 141 141 141 141 141 141 141 141 141 141 141 141 141 141
141 141 141 141 141 141 141 141 141 141 141 141 141 141 141 140 135 115 76 33 9 1 2 25 61 107 128 140 140 141 141 141 141 141 141 141 141 136 92 34 1 1 31 87 127 141 141 141 141 141 141 141 141 141 141 141 141 141 141 141 141 141 141 141
141 141 141 141 141 141 141 141 141 141 141 141 141 141 140 135 114 77 34 11 1 1 24 59 106 128 140 140 141 141 141 141 141 141 141 141 141 138 118 55 12 0 14 56 118 137 141 141 141 141 141 141 141 141 141 141 141 141 141 141 141 141 141 141
141 141 141 141 141 141 141 141 141 141 141 141 141 140 135 110 74 33 11 1 1 24 58 104 127 140 140 141 141 141 141 141 141 141 141 141 141 140 127 84 29 0 1 34 89 131 141 141 141 141 141 141 141 141 141 141 141 141 141 141 141 141 141 141
141 141 141 141 141 141 141 141 141 141 141 141 140 137 109 69 24 10 0 1 23 56 103 126 140 140 141 141 141 141 141 141 141 141 141 141 141 140 138 111 53 13 0 10 59 116 137 141 141 141 141 141 141 141 141 141 141 141 141 141 141 141 141 141
141 141 141 141 141 141 141 141 141 140 140 137 135 110 72 21 7 0 0 22 55 101 126 140 140 141 141 141 141 141 141 141 141 141 141 141 141 141 140 126 85 21 2 1 32 87 136 140 141 141 141 141 141 141 141 141 141 141 141 141 141 141 141 141
141 141 141 141 141 141 141 141 140 140 131 127 96 66 23 7 0 0 18 52 100 125 140 140 141 141 141 141 141 141 141 141 141 141 141 141 141 141 140 140 108 53 10 0 3 58 114 139 141 141 141 141 141 141 141 141 141 141 141 141 141 141 141 141
141 141 141 141 141 141 141 140 140 126 111 77 48 13 7 0 0 12 43 96 124 140 140 141 141 141 141 141 141 141 141 141 141 141 141 141 141 141 141 140 130 87 25 3 2 27 88 136 140 141 141 141 141 141 141 141 141 141 141 141 141 141 141 141
141 141 141 141 141 141 141 140 126 99 59 32 6 2 0 0 14 35 87 122 140 140 141 141 141 141 141 141 141 141 141 141 141 141 141 141 141 141 141 141 140 112 58 5 0 7 57 110 140 141 141 141 141 141 141 141 141 141 141 141 141 141 141 141
141 141 141 141 141 141 141 133 103 53 21 3 1 1 2 25 47 86 117 140 140 141 141 141 141 141 141 141 141 141 141 141 141 141 141 141 141 141 141 140 140 136 86 26 1 3 23 85 127 140 141 141 141 141 141 141 141 141 141 141 141 141 141 141
141 141 141 141 141 141 139 128 77 23 2 0 6 12 39 68 100 120 139 140 141 141 141 141 141 141 141 141 141 141 141 141 141 141 141 141 141 140 139 138 129 124 91 44 2 0 9 48 105 139 140 141 141 141 141 141 141 141 141 141 141 141 141 141
141 141 141 141 141 141 139 122 67 11 3 9 29 58 89 117 129 140 140 141 141 141 141 141 141 141 141 141 141 141 141 141 141 141 140 141 137 134 124 110 100 78 63 28 6 0 1 13 71 117 139 141 141 141 141 141 141 141 141 141 141 141 141 141
141 141 141 141 141 141 141 127 76 35 21 44 75 107 127 137 140 140 141 141 141 141 141 141 141 141 141 141 141 141 141 141 141 139 139 129 123 101 82 60 43 30 12 10 1 0 0 4 29 93 133 140 141 141 141 141 141 141 141 141 141 141 141 141
141 141 141 141 141 141 140 134 112 74 74 91 120 132 140 141 141 141 141 141 141 141 141 141 141 141 141 141 141 141 141 139 137 131 117 103 75 53 27 18 7 1 1 1 0 0 0 0 8 60 117 140 141 141 141 141 141 141 141 141 141 141 141 141
141 141 141 141 141 141 141 140 129 119 117 130 136 140 141 141 141 141 141 141 141 141 141 141 141 141 141 141 140 140 136 132 114 96 74 48 29 6 6 0 0 2 6 7 9 5 0 0 3 35 109 137 141 141 141 141 141 141 141 141 141 141 141 141
141 141 141 141 141 141 141 141 140 137 138 138 141 141 141 141 141 141 141 141 141 141 141 141 141 141 141 140 140 129 120 90 67 41 25 12 1 1 2 1 13 18 34 47 48 35 5 1 0 40 105 137 141 141 141 141 141 141 141 141 141 141 141 141
141 141 141 141 141 141 141 141 141 140 140 141 141 141 141 141 141 141 141 141 141 141 141 141 141 141 140 140 124 107 71 43 12 10 1 1 1 7 12 34 49 71 87 101 110 82 43 17 17 47 114 137 141 141 141 141 141 141 141 141 141 141 141 141
141 141 141 141 141 141 141 141 141 141 141 141 141 141 141 141 141 141 141 141 141 141 141 141 141 140 138 120 94 56 29 3 2 0 0 8 16 34 59 81 106 117 131 132 134 124 95 60 55 91 127 140 141 141 141 141 141 141 141 141 141 141 141 141
141 141 141 141 141 141 141 141 141 141 141 141 141 141 141 141 141 141 141 141 141 141 141 141 140 135 115 80 42 18 2 0 3 3 23 37 62 85 109 125 133 139 139 140 141 139 125 111 109 122 139 140 141 141 141 141 141 141 141 141 141 141 141 141
141 141 141 141 141 141 141 141 141 141 141 141 141 141 141 141 141 141 141 141 141 141 141 140 132 109 71 32 7 1 0 7 18 44 66 92 108 128 134 139 141 140 141 141 141 140 139 135 134 139 140 141 141 141 141 141 141 141 141 141 141 141 141 141
141 141 141 141 141 141 141 141 141 141 141 141 141 141 141 141 141 141 141 141 141 141 140 131 107 66 28 3 0 1 11 32 64 94 118 127 138 138 140 141 141 141 141 141 141 141 141 140 140 140 141 141 141 141 141 141 141 141 141 141 141 141 141 141
141 141 141 141 141 141 141 141 141 141 141 141 141 141 141 141 141 141 141 141 141 141 132 107 65 27 2 0 2 15 47 79 111 129 137 140 140 141 141 141 141 141 141 141 141 141 141 141 141 141 141 141 141 141 141 141 141 141 141 141 141 141 141 141
141 141 141 141 141 141 141 141 141 141 141 141 141 141 141 141 141 141 141 141 141 134 110 66 27 2 0 6 19 60 94 123 133 140 141 141 141 141 141 141 141 141 141 141 141 141 141 141 141 141 141 141 141 141 141 141 141 141 141 141 141 141 141 141
141 141 141 141 141 141 141 141 141 141 141 141 141 141 141 141 141 141 141 141 138 117 71 29 2 0 7 24 69 104 134 137 140 141 141 141 141 141 141 141 141 141 141 141 141 141 141 141 141 141 141 141 141 141 141 141 141 141 141 141 141 141 141 141
141 141 141 141 141 141 141 141 141 141 141 141 141 141 141 141 141 141 141 140 126 82 33 2 0 7 25 72 109 139 139 141 141 141 141 141 141 141 141 141 141 141 141 141 141 141 141 141 141 141 141 141 141 141 141 141 141 141 141 141 141 141 141 141
141 141 141 141 141 141 141 141 141 141 141 141 141 141 141 141 141 141 141 136 103 46 4 0 7 23 71 110 140 140 141 141 141 141 141 141 141 141 141 141 141 141 141 141 141 141 141 141 141 141 141 141 141 141 141 141 141 141 141 141 141 141 141 141
141 141 141 141 141 141 141 141 141 141 141 141 141 141 141 141 141 141 139 127 75 16 1 4 20 69 108 140 140 141 141 141 141 141 141 141 141 141 141 141 141 141 141 141 141 141 141 141 141 141 141 141 141 141 141 141 141 141 141 141 141 141 141 141
141 141 141 141 141 141 141 141 141 141 141 141 141 141 141 141 141 140 139 110 48 7 1 11 64 107 140 140 141 141 141 141 141 141 141 141 141 141 141 141 141 141 141 141 141 141 141 141 140 141 139 141 141 141 141 141 141 141 141 141 141 141 141 141
141 141 141 141 141 141 141 141 141 141 141 141 141 141 141 141 141 141 133 94 26 1 2 45 98 139 140 141 141 141 141 141 141 141 141 141 141 141 141 141 141 141 141 141 141 141 141 140 139 129 130 135 140 141 141 141 141 141 141 141 141 141 141 141
141 141 141 141 141 141 141 141 141 141 141 141 141 141 141 141 141 140 131 68 13 0 15 69 132 139 141 141 141 141 141 141 141 141 141 141 141 141 141 141 141 141 141 141 141 141 141 141 123 102 96 120 139 140 141 141 141 141 141 141 141 141 141 141
141 141 141 141 141 141 141 141 141 141 141 141 141 141 141 141 141 140 120 55 1 0 19 92 133 141 141 141 141 141 141 141 141 141 141 141 141 141 141 141 141 141 141 141 141 141 141 134 103 48 50 89 129 141 141 141 141 141 141 141 141 141 141 141
141 141 141 141 141 141 141 141 141 141 141 141 141 141 141 141 141 139 117 40 3 1 25 97 138 140 141 141 141 141 141 141 141 141 141 141 141 141 141 141 141 141 141 141 141 141 140 126 69 22 15 66 128 139 141 141 141 141 141 141 141 141 141 141
141 141 141 141 141 141 141 141 141 141 141 141 141 141 141 141 141 140 117 46 2 0 34 107 138 141 141 141 141 141 141 141 141 141 141 141 141 141 141 141 141 141 141 141 141 141 137 108 44 2 3 59 122 139 141 141 141 141 141 141 141 141 141 141
141 141 141 141 141 141 141 141 141 141 141 141 141 141 141 141 141 139 117 48 4 4 43 112 139 141 141 141 141 141 141 141 141 141 141 141 141 141 141 141 141 141 141 141 141 140 133 84 18 1 7 53 127 140 141 141 141 141 141 141 141 141 141 141
141 141 141 141 141 141 141 141 141 141 141 141 141 141 141 141 141 139 119 54 7 4 45 113 138 141 141 141 141 141 141 141 141 141 141 141 141 141 141 141 141 141 141 141 141 139 117 60 9 0 2 67 126 140 141 141 141 141 141 141 141 141 141 141
141 141 141 141 141 141 141 141 141 141 141 141 141 141 141 141 141 139 121 58 6 3 43 108 139 140 141 141 141 141 141 141 141 141 141 141 141 141 141 141 141 141 141 141 141 132 102 37 2 0 20 80 136 140 141 141 141 141 141 141 141 141 141 141
141 141 141 141 141 141 141 141 141 141 141 141 141 141 141 141 141 141 123 65 12 3 31 104 136 141 141 141 141 141 141 141 141 141 141 141 141 141 141 141 141 141 141 141 138 124 68 20 0 4 38 107 136 141 141 141 141 141 141 141 141 141 141 141
141 141 141 141 141 141 141 141 141 141 141 141 141 141 141 141 141 140 129 74 14 1 30 92 138 140 141 141 141 141 141 141 141 141 141 141 141 141 141 141 141 141 141 140 136 92 39 2 1 19 72 121 140 141 141 141 141 141 141 141 141 141 141 141
141 141 141 141 141 141 141 141 141 141 141 141 141 141 141 141 141 140 132 81 18 1 16 81 124 140 141 141 141 141 141 141 141 141 141 141 141 141 141 141 141 141 140 139 108 60 9 0 8 43 99 136 140 141 141 141 141 141 141 141 141 141 141 141
141 141 141 141 141 141 141 141 141 141 141 141 141 141 141 141 141 140 133 92 22 1 12 51 107 137 140 141 141 141 141 141 141 141 141 141 141 141 141 141 141 140 140 117 77 22 4 3 23 76 124 139 141 141 141 141 141 141 141 141 141 141 141 141
141 141 141 141 141 141 141 141 141 141 141 141 141 141 141 141 141 141 136 100 39 1 0 23 71 113 138 141 141 141 141 141 141 141 141 141 141 141 141 141 140 140 120 87 36 9 0 7 53 107 134 140 141 141 141 141 141 141 141 141 141 141 141 141
141 141 141 141 141 141 141 141 141 141 141 141 141 141 141 141 141 141 138 120 56 13 0 7 27 81 121 135 140 141 141 141 141 141 141 141 141 141 141 140 140 121 91 43 15 0 1 34 86 128 140 141 141 141 141 141 141 141 141 141 141 141 141 141
141 141 141 141 141 141 141 141 141 141 141 141 141 141 141 141 141 141 140 126 85 27 0 0 8 39 81 121 133 137 140 141 141 141 141 141 141 141 140 139 120 91 46 18 1 0 23 66 117 137 141 141 141 141 141 141 141 141 141 141 141 141 141 141
141 141 141 141 141 141 141 141 141 141 141 141 141 141 141 141 141 141 140 139 111 53 13 0 1 5 39 69 94 121 136 138 141 141 141 141 141 139 139 116 87 44 18 1 1 18 50 103 132 141 141 141 141 141 141 141 141 141 141 141 141 141 141 141
141 141 141 141 141 141 141 141 141 141 141 141 141 141 141 141 141 141 141 140 127 89 28 7 1 1 8 17 38 74 103 129 138 139 140 139 138 136 115 81 36 15 0 1 16 43 92 125 141 141 141 141 141 141 141 141 141 141 141 141 141 141 141 141
141 141 141 141 141 141 141 141 141 141 141 141 141 141 141 141 141 141 141 140 139 115 77 40 11 2 0 0 9 23 57 94 115 127 128 129 123 102 76 33 11 0 0 14 40 87 120 140 140 141 141 141 141 141 141 141 141 141 141 141 141 141 141 141
141 141 141 141 141 141 141 141 141 141 141 141 141 141 141 141 141 141 141 141 140 136 123 87 55 25 2 0 0 2 20 42 65 85 91 85 74 54 27 9 0 0 10 36 85 118 139 140 141 141 141 141 141 141 141 141 141 141 141 141 141 141 141 141
141 141 141 141 141 141 141 141 141 141 141 141 141 141 141 141 141 141 141 141 141 141 137 125 106 65 28 11 1 0 0 6 22 32 34 33 24 13 4 0 0 7 25 79 117 139 140 141 141 141 141 141 141 141 141 141 141 141 141 141 141 141 141 141
141 141 141 141 141 141 141 141 141 141 141 141 141 141 141 141 141 141 141 141 141 141 141 139 132 110 79 42 23 12 3 1 2 4 6 3 4 1 1 2 13 25 71 112 138 140 141 141 141 141 141 141 141 141 141 141 141 141 141 141 141 141 141 141
141 141 141 141 141 141 141 141 141 141 141 141 141 141 141 141 141 141 141 141 141 141 141 140 139 138 122 97 76 50 23 12 9 6 1 0 2 2 16 30 48 77 110 137 140 141 141 141 141 141 141 141 141 141 141 141 141 141 141 141 141 141 141 141
141 141 141 141 141 141 141 141 141 141 141 141 141 141 141 141 141 141 141 141 141 141 141 141 141 140 137 135 123 100 77 59 42 25 19 19 17 37 54 81 101 121 136 140 141 141 141 141 141 141 141 141 141 141 141 141 141 141 141 141 141 141 141 141
141 141 141 141 141 141 141 141 141 141 141 141 141 141 141 141 141 141 141 141 141 141 141 141 141 141 141 140 137 133 126 108 95 82 70 66 72 85 108 120 134 138 140 141 141 141 141 141 141 141 141 141 141 141 141 141 141 141 141 141 141 141 141 141
141 141 141 141 141 141 141 141 141 141 141 141 141 141 141 141 141 141 141 141 141 141 141 141 141 141 141 141 141 140 138 135 130 127 122 115 119 128 132 139 139 141 141 141 141 141 141 141 141 141 141 141 141 141 141 141 141 141 141 141 141 141 141 141
