P2
64 64
255
164 164 164 164 164 164 164 164 164 164 164 164 164 164 164 164 164 164 164 164 164 164 164 164 164 164 164 164 164 164 164 164 164 164 164 164 164 164 164 164 164 164 164 164 164 164 164 164 164 164 164 164 164 164 164 164 164 164 164 164 164 164 164 164
164 164 164 164 164 164 164 164 164 164 164 164 164 164 164 164 164 164 164 164 164 164 164 164 164 164 164 164 164 164 164 164 164 164 164 164 164 164 164 164 164 164 164 164 164 164 164 164 164 164 164 164 164 164 164 164 164 164 164 164 164 164 164 164
164 164 164 164 164 164 164 164 164 164 164 164 164 164 164 164 164 164 164 164 164 164 164 164 164 164 164 164 164 164 164 164 164 164 164 164 164 164 164 164 164 164 164 164 164 164 164 164 164 164 164 164 164 164 164 164 164 164 164 164 164 164 164 164
164 164 164 164 164 164 164 164 164 164 164 164 164 164 164 164 164 164 164 164 164 164 164 164 164 164 164 164 164 164 164 164 164 164 164 164 164 164 164 164 164 164 164 164 164 164 164 164 164 164 164 164 164 164 164 164 164 164 164 164 164 164 164 164
164 164 164 164 164 164 164 164 164 164 164 164 164 164 164 164 164 164 164 164 164 164 164 164 164 164 164 164 164 164 164 164 164 164 164 164 164 164 164 164 164 164 164 164 164 164 164 164 164 164 164 164 164 164 164 164 164 164 164 164 164 164 164 164
164 164 164 164 164 164 164 164 164 164 164 164 164 164 164 164 164 164 164 164 164 164 164 164 164 164 164 164 164 164 164 164 164 162 158 153 148 143 139 140 149 156 160 163 164 164 164 164 164 164 164 164 164 164 164 164 164 164 164 164 164 164 164 164
164 164 164 164 164 164 164 164 164 164 164 164 164 164 164 164 164 164 164 164 164 164 164 164 164 164 164 164 164 163 160 152 140 127 113 102 91 80 72 72 88 113 134 151 161 164 164 164 164 164 164 164 164 164 164 164 164 164 164 164 164 164 164 164
164 164 164 164 164 164 164 164 164 164 164 164 164 164 164 164 164 164 164 164 164 164 164 164 164 164 162 155 140 124 107 88 66 47 36 30 25 20 15 12 19 40 71 108 145 160 164 164 164 164 164 164 164 164 164 164 164 164 164 164 164 164 164 164
164 164 164 164 164 164 164 164 164 164 164 164 164 164 164 164 164 164 164 164 164 164 164 164 164 161 146 113 74 47 30 18 7 0 1 1 1 1 1 1 1 3 12 41 102 144 160 164 164 164 164 164 164 164 164 164 164 164 164 164 164 164 164 164
164 164 164 164 164 164 164 164 164 164 164 164 164 164 164 164 164 164 164 164 164 164 164 162 155 133 88 45 16 4 1 0 0 1 7 13 19 24 28 25 13 2 0 8 55 114 151 164 164 164 164 164 164 164 164 164 164 164 164 164 164 164 164 164
164 164 164 164 164 164 164 164 164 164 164 164 164 164 164 164 164 164 164 164 164 164 161 148 114 64 25 5 0 0 0 3 16 36 54 68 79 90 98 95 65 20 3 0 25 81 138 164 164 164 164 164 164 164 164 164 164 164 164 164 164 164 164 164
164 164 164 164 164 164 164 164 164 164 164 164 164 164 164 164 164 164 164 164 164 159 141 97 48 12 1 2 8 19 37 63 94 118 130 137 142 147 151 151 112 41 7 0 10 53 122 163 164 164 164 164 164 164 164 164 164 164 164 164 164 164 164 164
164 164 164 164 164 164 164 164 164 164 164 164 164 164 164 164 164 164 164 164 162 145 94 38 9 1 6 23 51 83 113 140 156 163 164 164 164 164 164 162 127 59 14 0 5 34 109 162 164 164 164 164 164 164 164 164 164 164 164 164 164 164 164 164
164 164 164 164 164 164 164 164 164 164 164 164 164 164 164 164 164 164 164 163 153 109 49 11 1 9 38 81 120 144 156 162 164 164 164 164 164 164 164 164 144 87 28 0 2 22 99 153 164 164 164 164 164 164 164 164 164 164 164 164 164 164 164 164
164 164 164 164 164 164 164 164 164 164 164 164 164 164 164 164 164 164 164 158 123 62 18 5 15 49 100 140 158 163 164 164 164 164 164 164 164 164 164 164 155 114 47 1 0 16 87 145 164 164 164 164 164 164 164 164 164 164 164 164 164 164 164 164
164 164 164 164 164 164 164 164 164 164 164 164 164 164 164 164 164 164 163 142 82 27 3 7 37 102 150 161 164 164 164 164 164 164 164 164 164 164 164 164 158 129 62 2 0 14 75 136 164 164 164 164 164 164 164 164 164 164 164 164 164 164 164 164
164 164 164 164 164 164 164 164 164 164 164 164 164 164 164 164 164 164 158 113 47 7 0 10 62 138 161 164 164 164 164 164 164 164 164 164 164 164 164 164 160 140 71 11 0 12 63 127 164 164 164 164 164 164 164 164 164 164 164 164 164 164 164 164
164 164 164 164 164 164 164 164 164 164 164 164 164 164 164 164 164 164 144 83 22 0 1 17 91 149 163 164 164 164 164 164 164 164 164 164 164 164 164 164 163 148 82 21 0 9 52 120 164 164 164 164 164 164 164 164 164 164 164 164 164 164 164 164
164 164 164 164 164 164 164 164 164 164 164 164 164 164 164 164 164 160 125 59 7 0 1 44 120 156 164 164 164 164 164 164 164 164 164 164 164 164 164 164 164 149 89 27 0 7 41 114 164 164 164 164 164 164 164 164 164 164 164 164 164 164 164 164
164 164 164 164 164 164 164 164 164 164 164 164 164 164 164 164 164 151 103 36 1 0 22 88 143 162 164 164 164 164 164 164 164 164 164 164 164 164 164 164 164 146 87 27 0 4 31 109 156 164 164 164 164 164 164 164 164 164 164 164 164 164 164 164
164 164 164 164 164 164 164 164 164 164 164 164 164 164 164 164 161 135 74 14 0 10 60 124 159 164 164 164 164 164 164 164 164 164 164 164 164 164 164 164 164 141 83 21 0 1 21 97 149 164 164 164 164 164 164 164 164 164 164 164 164 164 164 164
164 164 164 164 164 164 164 164 164 164 164 164 164 164 164 164 155 117 44 4 1 28 91 144 163 164 164 164 164 164 164 164 164 164 164 164 164 164 164 164 164 143 87 19 0 0 26 95 147 164 164 164 164 164 164 164 164 164 164 164 164 164 164 164
164 164 164 164 164 164 164 164 164 164 164 162 155 140 133 142 144 93 23 3 6 48 113 156 164 164 164 164 164 164 164 164 164 164 164 164 164 164 164 164 164 150 98 21 1 0 35 101 151 164 164 164 164 164 164 164 164 164 164 164 164 164 164 164
164 164 164 164 164 164 164 164 164 164 164 155 122 75 45 49 78 55 12 1 16 66 130 162 164 164 164 164 164 164 164 164 164 164 164 164 164 164 164 164 163 153 95 25 3 3 43 109 155 164 164 164 164 164 164 164 164 164 164 164 164 164 164 164
164 164 164 164 164 164 164 164 164 164 164 142 85 20 3 3 4 6 2 0 22 81 146 164 164 164 164 164 164 164 164 164 164 164 164 164 164 164 164 164 162 144 75 20 1 12 57 122 160 164 164 164 164 164 164 164 164 164 164 164 164 164 164 164
164 164 164 164 164 164 164 164 164 164 163 141 76 2 0 0 0 0 0 0 20 79 145 160 163 161 162 164 164 164 164 164 164 164 164 164 164 164 164 162 155 107 43 8 0 20 75 142 163 164 164 164 164 164 164 164 164 164 164 164 164 164 164 164
164 164 164 164 164 164 164 164 164 164 164 153 103 20 2 0 0 0 0 0 7 41 82 102 118 129 140 148 155 160 162 163 162 157 153 148 143 136 126 110 84 43 12 0 3 29 98 155 163 164 164 164 164 164 164 164 164 164 164 164 164 164 164 164
164 164 164 164 164 164 164 164 164 164 164 163 142 70 19 0 0 0 0 0 0 9 16 22 32 52 72 91 102 108 111 111 112 108 100 91 80 66 46 25 9 3 0 0 11 56 127 158 164 164 164 164 164 164 164 164 164 164 164 164 164 164 164 164
164 164 164 164 164 164 164 164 164 164 164 164 159 116 54 10 0 0 8 15 10 3 0 1 0 3 12 23 29 31 29 27 27 30 29 25 19 12 5 1 0 0 1 11 45 107 149 162 164 164 164 164 164 164 164 164 164 164 164 164 164 164 164 164
164 164 164 164 164 164 164 164 164 164 164 164 163 140 87 27 0 1 22 51 54 39 20 7 3 5 1 1 0 1 1 1 0 0 1 1 1 0 0 0 1 9 25 58 108 146 161 164 164 164 164 164 164 164 164 164 164 164 164 164 164 164 164 164
164 164 164 164 164 164 164 164 164 164 164 164 164 153 116 49 1 0 18 69 107 111 93 76 60 43 28 21 15 9 4 3 5 9 14 19 24 28 29 28 37 62 94 126 151 162 164 164 164 164 164 164 164 164 164 164 164 164 164 164 164 164 164 164
164 164 164 164 164 164 164 164 164 164 164 164 164 160 138 69 11 0 11 62 124 155 151 149 142 121 101 86 77 71 69 69 67 67 71 80 90 100 107 114 122 139 152 160 163 164 164 164 164 164 164 164 164 164 164 164 164 164 164 164 164 164 164 164
164 164 164 164 164 164 164 164 164 164 164 164 164 163 152 87 23 1 6 45 114 163 164 164 163 160 154 147 143 142 144 146 144 140 140 143 147 152 156 162 163 164 164 164 164 164 164 164 164 164 164 164 164 164 164 164 164 164 164 164 164 164 164 164
164 164 164 164 164 164 164 164 164 164 164 164 164 164 158 105 37 2 2 27 102 163 164 164 164 164 164 164 164 163 163 164 164 164 164 164 164 164 164 164 164 164 164 164 164 164 164 164 164 164 164 164 164 164 164 164 164 164 164 164 164 164 164 164
164 164 164 164 164 164 164 164 164 164 164 164 164 164 162 120 51 3 1 14 90 153 164 164 164 164 164 164 164 164 164 164 164 164 164 164 164 164 164 164 164 164 164 164 164 164 164 164 164 164 164 164 164 164 164 164 164 164 164 164 164 164 164 164
164 164 164 164 164 164 164 164 164 164 164 164 164 164 163 133 65 5 0 5 77 143 164 164 164 164 164 164 164 164 164 164 164 164 164 164 164 164 164 164 164 164 164 164 164 164 164 164 164 164 164 164 164 164 164 164 164 164 164 164 164 164 164 164
164 164 164 164 164 164 164 164 164 164 164 164 164 164 164 143 77 5 0 5 65 133 163 164 164 164 164 164 164 164 164 164 164 164 164 164 164 164 164 164 164 164 164 164 164 164 164 164 164 164 164 164 164 164 164 164 164 164 164 164 164 164 164 164
164 164 164 164 164 164 164 164 164 164 164 164 164 164 164 153 89 14 1 3 53 122 163 164 164 164 164 164 164 164 164 164 164 164 164 164 164 164 164 164 164 164 164 164 164 164 164 164 164 164 164 164 164 164 164 164 164 164 164 164 164 164 164 164
164 164 164 164 164 164 164 164 164 164 164 164 164 164 164 163 100 26 1 3 41 112 163 164 164 164 164 164 164 164 164 164 164 164 164 164 164 164 164 164 164 164 164 164 164 164 164 164 164 164 164 164 164 164 164 164 164 164 164 164 164 164 164 164
164 164 164 164 164 164 164 164 164 164 164 164 164 164 164 163 110 38 2 1 29 102 163 164 164 164 164 164 164 164 164 164 164 164 164 164 164 164 164 164 164 164 164 164 164 164 164 164 164 164 164 164 164 164 164 164 164 164 164 164 164 164 164 164
164 164 164 164 164 164 164 164 164 164 164 164 164 164 164 163 120 51 3 1 16 92 155 164 164 164 164 164 164 164 164 164 164 164 164 164 164 164 164 164 164 164 164 164 164 164 164 164 164 164 164 164 164 164 164 164 164 164 164 164 164 164 164 164
164 164 164 164 164 164 164 164 164 164 164 164 164 164 164 163 130 62 4 0 5 78 144 163 164 164 164 164 164 164 164 164 164 164 164 164 164 164 164 164 164 164 164 164 164 164 164 164 164 164 164 164 164 164 164 164 164 164 164 164 164 164 164 164
164 164 164 164 164 164 164 164 164 164 164 164 164 164 164 164 141 76 6 0 4 63 130 161 164 164 164 164 164 164 164 164 164 164 164 164 164 164 164 164 164 164 164 164 164 164 164 164 164 164 164 164 164 164 164 164 164 164 164 164 164 164 164 164
164 164 164 164 164 164 164 164 164 164 164 164 164 164 164 164 151 91 16 1 2 47 113 156 164 164 164 164 164 164 164 164 164 164 164 164 164 164 164 164 164 164 164 164 164 164 164 164 164 164 164 164 164 164 164 164 164 164 164 164 164 164 164 164
164 164 164 164 164 164 164 164 164 164 164 164 164 164 164 164 162 107 34 5 1 34 98 152 164 164 164 164 164 164 164 164 164 164 164 164 164 164 164 164 164 164 164 164 164 164 164 164 164 164 164 164 164 164 164 164 164 164 164 164 164 164 164 164
164 164 164 164 164 164 164 164 164 164 164 164 164 164 164 164 164 118 48 8 1 23 85 149 163 164 164 164 164 164 164 164 164 164 164 164 164 164 164 164 164 164 164 164 164 164 164 164 164 164 164 164 164 164 164 164 164 164 164 164 164 164 164 164
164 164 164 164 164 164 164 164 164 164 164 164 164 164 164 164 164 126 61 11 0 13 74 142 161 164 164 164 164 164 164 164 164 164 164 164 164 164 164 164 164 164 164 164 164 164 164 164 164 164 164 164 164 164 164 164 164 164 164 164 164 164 164 164
164 164 164 164 164 164 164 164 164 164 164 164 164 164 164 164 164 134 72 14 0 3 63 131 158 164 164 164 164 164 164 164 164 164 164 164 164 164 164 164 164 164 164 164 164 164 164 164 164 164 164 164 164 164 164 164 164 164 164 164 164 164 164 164
164 164 164 164 164 164 164 164 164 164 164 164 164 164 164 164 164 143 85 16 0 2 54 120 156 164 164 164 164 164 164 164 164 164 164 164 164 164 164 164 164 164 164 164 164 164 164 164 164 164 164 164 164 164 164 164 164 164 164 164 164 164 164 164
164 164 164 164 164 164 164 164 164 164 164 164 164 164 164 164 164 151 97 21 2 1 44 109 154 164 164 164 164 164 164 164 164 164 164 164 164 164 164 164 164 164 164 164 164 164 164 164 164 164 164 164 164 164 164 164 164 164 164 164 164 164 164 164
164 164 164 164 164 164 164 164 164 164 164 164 164 164 164 164 164 160 107 34 5 1 34 98 152 164 164 164 164 164 164 164 164 164 164 164 164 164 164 164 164 164 164 164 164 164 164 164 164 164 164 164 164 164 164 164 164 164 164 164 164 164 164 164
164 164 164 164 164 164 164 164 164 164 164 164 164 164 164 164 164 164 116 46 8 1 25 87 149 164 164 164 164 164 164 164 164 164 164 164 164 164 164 164 164 164 164 164 164 164 164 164 164 164 164 164 164 164 164 164 164 164 164 164 164 164 164 164
164 164 164 164 164 164 164 164 164 164 164 164 164 164 164 164 164 164 124 58 10 0 15 76 144 162 164 164 164 164 164 164 164 164 164 164 164 164 164 164 164 164 164 164 164 164 164 164 164 164 164 164 164 164 164 164 164 164 164 164 164 164 164 164
164 164 164 164 164 164 164 164 164 164 164 164 164 164 164 164 164 164 133 72 15 0 7 70 136 160 164 164 164 164 164 164 164 164 164 164 164 164 164 164 164 164 164 164 164 164 164 164 164 164 164 164 164 164 164 164 164 164 164 164 164 164 164 164
164 164 164 164 164 164 164 164 164 164 164 164 164 164 164 164 164 164 144 93 29 1 14 78 135 160 164 164 164 164 164 164 164 164 164 164 164 164 164 164 164 164 164 164 164 164 164 164 164 164 164 164 164 164 164 164 164 164 164 164 164 164 164 164
164 164 164 164 164 164 164 164 164 164 164 164 164 164 164 164 164 164 156 125 74 43 61 111 147 162 164 164 164 164 164 164 164 164 164 164 164 164 164 164 164 164 164 164 164 164 164 164 164 164 164 164 164 164 164 164 164 164 164 164 164 164 164 164
164 164 164 164 164 164 164 164 164 164 164 164 164 164 164 164 164 164 163 153 133 120 131 149 160 164 164 164 164 164 164 164 164 164 164 164 164 164 164 164 164 164 164 164 164 164 164 164 164 164 164 164 164 164 164 164 164 164 164 164 164 164 164 164
164 164 164 164 164 164 164 164 164 164 164 164 164 164 164 164 164 164 164 163 160 158 162 164 164 164 164 164 164 164 164 164 164 164 164 164 164 164 164 164 164 164 164 164 164 164 164 164 164 164 164 164 164 164 164 164 164 164 164 164 164 164 164 164
164 164 164 164 164 164 164 164 164 164 164 164 164 164 164 164 164 164 164 164 164 164 164 164 164 164 164 164 164 164 164 164 164 164 164 164 164 164 164 164 164 164 164 164 164 164 164 164 164 164 164 164 164 164 164 164 164 164 164 164 164 164 164 164
164 164 164 164 164 164 164 164 164 164 164 164 164 164 164 164 164 164 164 164 164 164 164 164 164 164 164 164 164 164 164 164 164 164 164 164 164 164 164 164 164 164 164 164 164 164 164 164 164 164 164 164 164 164 164 164 164 164 164 164 164 164 164 164
164 164 164 164 164 164 164 164 164 164 164 164 164 164 164 164 164 164 164 164 164 164 164 164 164 164 164 164 164 164 164 164 164 164 164 164 164 164 164 164 164 164 164 164 164 164 164 164 164 164 164 164 164 164 164 164 164 164 164 164 164 164 164 164
164 164 164 164 164 164 164 164 164 164 164 164 164 164 164 164 164 164 164 164 164 164 164 164 164 164 164 164 164 164 164 164 164 164 164 164 164 164 164 164 164 164 164 164 164 164 164 164 164 164 164 164 164 164 164 164 164 164 164 164 164 164 164 164
164 164 164 164 164 164 164 164 164 164 164 164 164 164 164 164 164 164 164 164 164 164 164 164 164 164 164 164 164 164 164 164 164 164 164 164 164 164 164 164 164 164 164 164 164 164 164 164 164 164 164 164 164 164 164 164 164 164 164 164 164 164 164 164
164 164 164 164 164 164 164 164 164 164 164 164 164 164 164 164 164 164 164 164 164 164 164 164 164 164 164 164 164 164 164 164 164 164 164 164 164 164 164 164 164 164 164 164 164 164 164 164 164 164 164 164 164 164 164 164 164 164 164 164 164 164 164 164
