P2
64 64
255
194 194 194 194 194 194 194 194 194 194 194 194 194 194 194 194 194 194 194 194 194 194 194 194 194 194 194 194 194 194 194 194 194 194 194 194 194 194 194 194 194 194 194 194 194 194 194 194 194 194 194 194 194 194 194 194 194 194 194 194 194 194 194 194
194 194 194 194 194 194 194 194 194 194 194 194 194 194 194 194 194 194 194 194 194 194 194 194 194 194 194 194 194 194 194 194 194 194 194 194 194 194 194 194 194 194 194 194 194 194 194 194 194 194 194 194 194 194 194 194 194 194 194 194 194 194 194 194
194 194 194 194 194 194 194 194 194 194 194 194 194 194 194 194 194 194 194 194 194 194 194 194 194 194 194 194 194 194 194 194 194 194 194 194 194 194 194 194 194 194 194 194 194 194 194 194 194 194 194 194 194 194 194 194 194 194 194 194 194 194 194 194
194 194 194 194 194 194 194 194 194 194 194 194 194 194 194 194 194 194 194 194 194 194 194 194 194 194 194 194 194 194 194 194 194 194 194 194 194 194 194 194 194 193 193 194 194 194 194 194 194 194 194 194 194 194 194 194 194 194 194 194 194 194 194 194
194 194 194 194 194 194 194 194 194 194 194 194 194 194 194 194 194 194 194 194 194 194 194 194 194 194 194 194 194 194 194 194 194 194 194 194 194 194 193 189 180 179 187 193 194 194 194 194 194 194 194 194 194 194 194 194 194 194 194 194 194 194 194 194
194 194 194 194 194 194 194 194 194 194 194 194 194 194 194 194 194 194 194 194 194 194 194 194 194 194 194 194 194 194 194 194 194 194 194 194 194 194 192 172 138 132 162 189 194 194 194 194 194 194 194 194 194 194 194 194 194 194 194 194 194 194 194 194
194 194 194 194 194 194 194 194 194 194 194 194 194 194 194 194 194 194 194 194 194 194 194 194 194 194 194 194 194 194 194 194 194 194 194 194 194 194 188 148 70 56 119 176 193 194 194 194 194 194 194 194 194 194 194 194 194 194 194 194 194 194 194 194
194 194 194 194 194 194 194 194 194 194 194 194 194 194 194 194 194 194 194 194 194 194 194 194 194 194 194 194 194 194 194 194 194 194 194 194 194 194 186 135 49 18 70 158 193 194 194 194 194 194 194 194 194 194 194 194 194 194 194 194 194 194 194 194
194 194 194 194 194 194 194 194 194 194 194 194 194 194 194 194 194 194 194 194 194 194 194 194 194 194 194 194 194 194 194 194 194 194 194 194 194 194 191 141 45 3 37 128 189 194 194 194 194 194 194 194 194 194 194 194 194 194 194 194 194 194 194 194
194 194 194 194 194 194 194 194 194 194 194 194 194 194 194 194 194 194 194 194 194 194 194 194 194 194 194 194 194 194 194 194 194 194 194 194 194 194 193 155 51 1 17 97 177 193 194 194 194 194 194 194 194 194 194 194 194 194 194 194 194 194 194 194
194 194 194 194 194 194 194 194 194 194 194 194 194 194 194 194 194 194 194 194 194 194 194 194 194 194 194 194 194 194 194 194 194 194 194 194 194 194 193 166 74 6 2 74 170 193 194 194 194 194 194 194 194 194 194 194 194 194 194 194 194 194 194 194
194 194 194 194 194 194 194 194 194 194 194 194 194 194 194 194 194 194 194 194 194 194 194 194 193 193 194 193 194 194 194 194 194 194 194 194 194 194 193 178 97 15 1 65 174 194 194 194 194 194 194 194 194 194 194 194 194 194 194 194 194 194 194 194
194 194 194 194 194 194 194 194 194 194 194 194 194 194 194 194 194 194 194 194 194 194 194 194 184 173 182 189 194 194 194 194 194 194 194 194 194 194 194 193 114 15 1 53 159 193 194 194 194 194 194 194 194 194 194 194 194 194 194 194 194 194 194 194
194 194 194 194 194 194 194 194 194 194 194 194 194 194 194 194 194 194 194 194 194 194 193 186 145 102 125 173 193 194 194 194 194 194 194 194 194 194 194 193 128 12 0 29 138 193 194 194 194 194 194 194 194 194 194 194 194 194 194 194 194 194 194 194
194 194 194 194 194 194 194 194 194 194 194 194 194 194 194 194 194 194 194 194 194 194 193 172 96 32 50 133 187 193 194 194 194 194 194 194 194 194 194 193 149 41 1 6 114 193 194 194 194 194 194 194 194 194 194 194 194 194 194 194 194 194 194 194
194 194 194 194 194 194 194 194 194 194 194 194 194 194 194 194 194 194 194 194 194 194 193 165 70 4 16 93 173 193 194 194 194 194 194 194 194 194 194 193 174 72 3 4 84 184 194 194 194 194 194 194 194 194 194 194 194 194 194 194 194 194 194 194
194 194 194 194 194 194 194 194 194 194 194 194 194 194 194 194 194 194 194 194 194 194 193 169 83 9 1 62 160 193 194 194 194 194 194 194 194 194 194 194 193 102 6 2 54 159 193 194 194 194 194 194 194 194 194 194 194 194 194 194 194 194 194 194
194 194 194 194 194 194 194 194 194 194 194 194 194 194 194 194 194 194 194 194 194 194 193 182 109 23 0 44 148 193 194 194 194 194 194 194 194 194 194 194 193 128 18 0 23 135 193 194 194 194 194 194 194 194 194 194 194 194 194 194 194 194 194 194
194 194 194 194 194 194 194 194 194 194 194 194 194 194 194 194 194 194 194 194 194 194 194 193 137 33 0 33 130 188 194 194 194 194 194 194 194 194 194 194 193 152 46 1 9 115 193 194 194 194 194 194 194 194 194 194 194 194 194 194 194 194 194 194
194 194 194 194 194 194 194 194 194 194 194 194 194 194 194 194 194 194 194 194 194 194 194 193 149 40 0 18 114 186 194 194 194 194 194 194 194 194 194 194 194 173 70 2 9 90 180 193 194 194 194 194 194 194 194 194 194 194 194 194 194 194 194 194
194 194 194 194 194 194 194 194 194 194 194 194 194 194 194 194 194 194 194 194 194 194 194 193 161 61 4 4 99 188 194 194 194 194 194 194 194 194 194 194 194 181 90 3 5 60 159 193 194 194 194 194 194 194 194 194 194 194 194 194 194 194 194 194
194 194 194 194 194 194 194 194 194 194 194 194 194 194 194 194 194 194 194 194 194 194 194 193 180 83 5 3 77 180 193 194 194 194 194 194 194 194 194 194 194 184 115 19 0 29 138 193 194 194 194 194 194 194 194 194 194 194 194 194 194 194 194 194
194 194 194 194 194 194 194 194 194 194 194 194 194 194 194 194 194 194 194 194 194 194 194 194 193 109 6 1 48 154 193 194 194 194 194 194 194 194 194 194 194 189 142 44 0 17 113 193 194 194 194 194 194 194 194 194 194 194 194 194 194 194 194 194
194 194 194 194 194 194 194 194 194 194 194 194 194 194 194 194 194 194 194 194 194 194 194 194 193 133 23 0 18 128 193 194 194 194 194 194 194 194 194 194 194 194 170 68 2 10 84 176 193 194 194 194 194 194 194 194 194 194 194 194 194 194 194 194
194 194 194 194 194 194 194 194 194 194 194 194 194 194 194 194 194 194 194 194 194 194 194 194 193 159 54 2 6 103 193 194 194 194 194 194 194 194 194 194 194 194 179 92 2 3 56 157 193 194 194 194 194 194 194 194 194 194 194 194 194 194 194 194
194 194 194 194 194 194 194 194 194 194 194 194 194 194 194 194 194 194 194 194 194 194 194 194 194 184 83 3 4 75 175 193 194 194 194 194 194 194 194 194 194 194 183 108 16 0 27 139 193 194 194 194 194 194 194 194 194 194 194 194 194 194 194 194
194 194 194 194 194 194 194 194 194 194 194 194 194 194 194 194 194 194 194 194 194 194 194 194 194 189 106 4 3 51 155 193 194 194 194 194 194 194 194 194 194 194 188 118 22 0 18 115 190 194 194 194 194 194 194 194 194 194 194 194 194 194 194 194
194 194 194 194 194 194 194 194 194 194 194 194 194 194 194 194 194 194 194 194 194 194 194 194 194 188 125 25 0 24 135 193 194 194 194 194 194 194 194 194 194 194 193 135 27 0 12 93 177 193 194 194 194 194 194 194 194 194 194 194 194 194 194 194
194 194 194 194 194 194 194 194 194 194 194 194 194 194 194 194 194 194 194 194 194 194 194 194 194 191 148 48 1 16 109 193 194 194 194 194 194 194 194 194 194 194 193 157 58 3 3 73 167 193 194 194 194 194 194 194 194 194 194 194 194 194 194 194
194 194 194 194 194 194 194 194 194 194 194 194 194 194 194 194 194 194 194 194 194 194 194 194 194 194 174 71 2 9 82 173 193 194 194 194 194 194 194 194 194 194 193 177 94 16 0 58 165 194 194 194 194 194 194 194 194 194 194 194 194 194 194 194
194 194 194 194 194 194 194 194 194 194 194 194 194 194 194 194 194 194 194 194 194 194 194 194 194 194 179 92 4 3 60 160 193 194 194 194 194 194 194 194 194 194 194 190 119 22 0 46 147 191 194 194 194 194 194 194 194 194 194 194 194 194 194 194
194 194 194 194 194 194 194 194 194 194 194 194 194 194 194 194 194 194 194 194 194 194 194 194 194 194 183 111 21 0 41 150 193 194 194 194 194 194 194 194 194 194 194 193 135 25 0 27 124 186 194 194 194 194 194 194 194 194 194 194 194 194 194 194
194 194 194 194 194 194 194 194 194 194 194 194 194 194 194 194 194 194 194 194 194 194 194 194 194 194 189 131 35 1 32 126 189 194 194 194 194 194 194 194 194 194 194 193 153 51 3 3 101 184 194 194 194 194 194 194 194 194 194 194 194 194 194 194
194 194 194 194 194 194 194 194 194 194 194 194 194 194 194 194 194 194 194 194 194 194 194 194 194 194 193 153 48 1 17 96 176 193 194 194 194 194 194 194 194 193 193 193 173 78 7 3 81 184 194 194 194 194 194 194 194 194 194 194 194 194 194 194
194 194 194 194 194 194 194 194 194 194 194 194 194 194 194 194 194 194 194 194 194 194 194 194 194 194 193 166 74 6 2 67 162 193 194 193 193 194 192 193 193 174 167 173 163 86 5 2 57 162 193 194 194 194 194 194 194 194 194 194 194 194 194 194
194 194 194 194 194 194 194 194 194 194 194 194 194 194 194 194 194 194 194 194 194 194 194 194 194 194 193 180 105 21 1 45 151 193 193 183 175 177 161 147 132 99 79 73 74 44 2 0 27 138 193 194 194 194 194 194 194 194 194 194 194 194 194 194
194 194 194 194 194 194 194 194 194 194 194 194 194 194 194 194 194 194 194 194 194 194 194 194 194 194 194 193 134 34 0 32 122 164 154 126 102 85 70 52 26 17 12 2 7 6 0 0 6 119 193 194 194 194 194 194 194 194 194 194 194 194 194 194
194 194 194 194 194 194 194 194 194 194 194 194 194 194 194 194 194 194 194 194 194 194 194 194 194 194 194 193 150 40 0 14 71 88 60 39 24 6 3 4 0 0 0 0 3 1 0 0 16 114 188 194 194 194 194 194 194 194 194 194 194 194 194 194
194 194 194 194 194 194 194 194 194 194 194 194 194 194 194 194 194 194 194 194 194 194 194 194 194 194 192 179 132 40 1 0 15 21 6 1 0 0 5 4 1 12 20 34 52 55 33 25 51 138 187 194 194 194 194 194 194 194 194 194 194 194 194 194
194 194 194 194 194 194 194 194 194 194 194 194 194 194 194 194 194 194 194 194 194 194 194 193 193 189 168 122 69 16 0 0 0 0 1 13 28 32 52 70 75 78 102 138 147 151 135 112 130 177 193 194 194 194 194 194 194 194 194 194 194 194 194 194
194 194 194 194 194 194 194 194 194 194 194 194 194 194 194 194 194 194 194 194 193 193 193 189 167 130 83 41 11 0 0 0 2 22 46 76 109 135 146 161 176 167 175 193 193 190 189 183 186 193 194 194 194 194 194 194 194 194 194 194 194 194 194 194
194 194 194 194 194 194 194 194 194 194 194 194 194 194 194 194 194 194 194 193 191 176 160 138 95 41 6 1 0 5 1 0 6 72 141 160 176 191 193 193 194 193 193 194 194 194 194 194 193 194 194 194 194 194 194 194 194 194 194 194 194 194 194 194
194 194 194 194 194 194 194 194 194 194 194 194 194 194 194 194 194 194 193 183 154 112 75 45 23 4 0 9 26 47 22 0 4 99 189 193 193 193 194 194 194 194 194 194 194 194 194 194 194 194 194 194 194 194 194 194 194 194 194 194 194 194 194 194
194 194 194 194 194 194 194 194 194 194 194 194 194 194 194 194 194 194 189 154 80 33 13 1 0 2 19 65 112 139 65 3 6 85 180 193 194 194 194 194 194 194 194 194 194 194 194 194 194 194 194 194 194 194 194 194 194 194 194 194 194 194 194 194
194 194 194 194 194 194 194 194 194 194 194 194 194 194 194 194 194 193 186 130 35 3 1 6 25 52 100 149 182 186 95 3 4 63 162 193 194 194 194 194 194 194 194 194 194 194 194 194 194 194 194 194 194 194 194 194 194 194 194 194 194 194 194 194
194 194 194 194 194 194 194 194 194 194 194 194 194 194 194 194 194 194 193 146 57 32 40 61 96 138 177 190 193 184 110 16 0 44 152 193 194 194 194 194 194 194 194 194 194 194 194 194 194 194 194 194 194 194 194 194 194 194 194 194 194 194 194 194
194 194 194 194 194 194 194 194 194 194 194 194 194 194 194 194 194 194 193 177 135 110 128 154 170 186 193 194 194 187 126 31 0 35 138 193 194 194 194 194 194 194 194 194 194 194 194 194 194 194 194 194 194 194 194 194 194 194 194 194 194 194 194 194
194 194 194 194 194 194 194 194 194 194 194 194 194 194 194 194 194 194 194 191 184 176 183 193 193 193 194 194 194 193 147 42 1 24 110 182 193 194 194 194 194 194 194 194 194 194 194 194 194 194 194 194 194 194 194 194 194 194 194 194 194 194 194 194
194 194 194 194 194 194 194 194 194 194 194 194 194 194 194 194 194 194 194 193 194 193 193 194 194 194 194 194 194 193 160 61 1 9 80 168 193 194 194 194 194 194 194 194 194 194 194 194 194 194 194 194 194 194 194 194 194 194 194 194 194 194 194 194
194 194 194 194 194 194 194 194 194 194 194 194 194 194 194 194 194 194 194 194 194 194 194 194 194 194 194 194 194 193 173 91 14 1 51 155 193 194 194 194 194 194 194 194 194 194 194 194 194 194 194 194 194 194 194 194 194 194 194 194 194 194 194 194
194 194 194 194 194 194 194 194 194 194 194 194 194 194 194 194 194 194 194 194 194 194 194 194 194 194 194 194 194 193 186 121 29 1 35 132 192 194 194 194 194 194 194 194 194 194 194 194 194 194 194 194 194 194 194 194 194 194 194 194 194 194 194 194
194 194 194 194 194 194 194 194 194 194 194 194 194 194 194 194 194 194 194 194 194 194 194 194 194 194 194 194 194 194 193 150 45 1 20 102 178 193 194 194 194 194 194 194 194 194 194 194 194 194 194 194 194 194 194 194 194 194 194 194 194 194 194 194
194 194 194 194 194 194 194 194 194 194 194 194 194 194 194 194 194 194 194 194 194 194 194 194 194 194 194 194 194 194 193 164 69 3 5 72 164 193 194 194 194 194 194 194 194 194 194 194 194 194 194 194 194 194 194 194 194 194 194 194 194 194 194 194
194 194 194 194 194 194 194 194 194 194 194 194 194 194 194 194 194 194 194 194 194 194 194 194 194 194 194 194 194 194 193 177 99 17 0 45 151 193 194 194 194 194 194 194 194 194 194 194 194 194 194 194 194 194 194 194 194 194 194 194 194 194 194 194
194 194 194 194 194 194 194 194 194 194 194 194 194 194 194 194 194 194 194 194 194 194 194 194 194 194 194 194 194 194 194 190 124 25 0 28 123 188 194 194 194 194 194 194 194 194 194 194 194 194 194 194 194 194 194 194 194 194 194 194 194 194 194 194
194 194 194 194 194 194 194 194 194 194 194 194 194 194 194 194 194 194 194 194 194 194 194 194 194 194 194 194 194 194 194 193 140 25 0 16 101 180 193 194 194 194 194 194 194 194 194 194 194 194 194 194 194 194 194 194 194 194 194 194 194 194 194 194
194 194 194 194 194 194 194 194 194 194 194 194 194 194 194 194 194 194 194 194 194 194 194 194 194 194 194 194 194 194 194 193 154 55 4 18 112 183 194 194 194 194 194 194 194 194 194 194 194 194 194 194 194 194 194 194 194 194 194 194 194 194 194 194
194 194 194 194 194 194 194 194 194 194 194 194 194 194 194 194 194 194 194 194 194 194 194 194 194 194 194 194 194 194 194 193 179 120 64 82 153 191 194 194 194 194 194 194 194 194 194 194 194 194 194 194 194 194 194 194 194 194 194 194 194 194 194 194
194 194 194 194 194 194 194 194 194 194 194 194 194 194 194 194 194 194 194 194 194 194 194 194 194 194 194 194 194 194 194 194 194 177 162 162 185 194 194 194 194 194 194 194 194 194 194 194 194 194 194 194 194 194 194 194 194 194 194 194 194 194 194 194
194 194 194 194 194 194 194 194 194 194 194 194 194 194 194 194 194 194 194 194 194 194 194 194 194 194 194 194 194 194 194 194 194 193 194 193 193 194 194 194 194 194 194 194 194 194 194 194 194 194 194 194 194 194 194 194 194 194 194 194 194 194 194 194
194 194 194 194 194 194 194 194 194 194 194 194 194 194 194 194 194 194 194 194 194 194 194 194 194 194 194 194 194 194 194 194 194 194 194 194 194 194 194 194 194 194 194 194 194 194 194 194 194 194 194 194 194 194 194 194 194 194 194 194 194 194 194 194
194 194 194 194 194 194 194 194 194 194 194 194 194 194 194 194 194 194 194 194 194 194 194 194 194 194 194 194 194 194 194 194 194 194 194 194 194 194 194 194 194 194 194 194 194 194 194 194 194 194 194 194 194 194 194 194 194 194 194 194 194 194 194 194
194 194 194 194 194 194 194 194 194 194 194 194 194 194 194 194 194 194 194 194 194 194 194 194 194 194 194 194 194 194 194 194 194 194 194 194 194 194 194 194 194 194 194 194 194 194 194 194 194 194 194 194 194 194 194 194 194 194 194 194 194 194 194 194
194 194 194 194 194 194 194 194 194 194 194 194 194 194 194 194 194 194 194 194 194 194 194 194 194 194 194 194 194 194 194 194 194 194 194 194 194 194 194 194 194 194 194 194 194 194 194 194 194 194 194 194 194 194 194 194 194 194 194 194 194 194 194 194
