P2
64 64
255
222 222 222 222 222 222 222 222 222 222 222 222 222 222 222 222 222 222 222 222 222 222 222 222 222 222 222 222 222 222 222 222 222 222 222 222 222 222 222 222 222 222 222 222 222 222 222 222 222 222 222 222 222 222 222 222 222 222 222 222 222 222 222 222
222 222 222 222 222 222 222 222 222 222 222 222 222 222 222 222 222 222 222 222 222 222 222 222 222 222 222 222 222 222 222 222 222 222 222 222 222 222 222 222 222 222 222 222 222 222 222 222 222 222 222 222 222 222 222 222 222 222 222 222 222 222 222 222
222 222 222 222 222 222 222 222 222 222 222 222 222 222 222 222 222 222 222 222 222 222 222 222 222 222 222 222 222 222 222 222 222 222 222 222 222 222 222 222 222 222 222 222 222 222 222 222 222 222 222 222 222 222 222 222 222 222 222 222 222 222 222 222
222 222 222 222 222 222 222 222 222 222 222 222 222 222 222 222 222 222 222 222 222 222 222 222 222 222 222 222 222 222 222 222 222 222 222 222 222 222 222 222 222 222 222 222 222 222 222 222 222 222 222 222 222 222 222 222 222 222 222 222 222 222 222 222
222 222 222 222 222 222 222 222 222 222 222 222 222 222 222 222 222 222 222 222 222 222 222 222 222 222 222 222 222 222 222 222 222 222 222 222 222 222 222 222 222 222 222 222 222 222 222 222 222 222 222 222 222 222 222 222 222 222 222 222 222 222 222 222
222 222 222 222 222 222 222 222 222 222 222 222 222 222 222 222 222 222 222 222 222 222 222 222 222 222 222 222 222 222 222 222 222 222 222 222 222 222 222 222 222 222 222 222 222 222 222 222 222 222 222 222 222 222 222 222 222 222 222 222 222 222 222 222
222 222 222 222 222 222 222 222 222 222 222 222 222 222 222 222 222 222 222 222 222 222 222 222 222 222 222 222 222 222 222 222 222 222 222 222 222 222 222 222 222 222 222 222 222 222 222 222 222 222 222 222 222 222 222 222 222 222 222 222 222 222 222 222
222 222 222 222 222 222 222 222 222 222 222 222 222 222 222 222 222 222 222 222 222 222 222 222 222 222 222 222 222 222 222 222 222 222 222 222 222 222 222 222 222 222 222 222 222 222 222 222 222 222 222 222 222 222 222 222 222 222 222 222 222 222 222 222
222 222 222 222 222 222 222 222 222 222 222 222 222 222 222 222 222 222 222 222 222 222 222 222 222 222 222 222 222 222 222 222 222 222 222 222 222 222 222 222 222 222 222 222 222 222 222 222 222 222 222 222 222 222 222 222 222 222 222 222 222 222 222 222
222 222 222 222 222 222 222 222 222 222 222 222 222 222 222 222 222 222 222 222 222 222 222 222 222 222 222 222 222 222 222 222 222 222 222 222 222 222 222 222 222 222 222 222 222 222 222 222 222 222 222 222 222 222 222 222 222 222 222 222 222 222 222 222
222 222 222 222 222 222 222 222 222 222 222 222 222 222 222 222 222 222 222 222 218 214 213 215 218 217 217 220 222 222 221 222 222 222 222 222 222 222 222 222 222 222 222 222 222 222 222 222 222 222 222 222 222 222 222 222 222 222 222 222 222 222 222 222
222 222 222 222 222 222 222 222 222 222 222 222 222 222 221 219 214 207 201 185 165 147 134 134 141 151 163 181 202 212 215 219 221 222 222 222 222 222 222 222 222 222 222 222 222 222 222 222 222 222 222 222 222 222 222 222 222 222 222 222 222 222 222 222
222 222 222 222 222 222 222 222 222 222 222 222 222 219 206 180 146 113 87 67 49 33 18 13 25 35 42 60 89 125 155 185 209 220 220 221 222 222 222 222 222 222 222 222 222 222 222 222 222 222 222 222 222 222 222 222 222 222 222 222 222 222 222 222
222 222 222 222 222 222 222 222 222 222 222 222 216 191 142 83 33 7 3 1 0 0 0 3 1 0 1 0 8 24 45 77 126 164 187 205 218 222 221 222 222 222 222 222 222 222 222 222 222 222 222 222 222 222 222 222 222 222 222 222 222 222 222 222
222 222 222 222 222 222 222 222 222 222 222 217 189 128 56 10 0 3 9 15 21 28 48 60 60 49 28 20 13 3 3 6 24 49 80 124 181 208 216 220 222 222 222 222 222 222 222 222 222 222 222 222 222 222 222 222 222 222 222 222 222 222 222 222
222 222 222 222 222 222 222 222 222 222 219 197 135 49 8 1 14 47 85 116 141 156 169 178 181 177 156 130 102 70 37 16 6 3 6 29 77 126 161 189 209 218 220 221 222 222 222 222 222 222 222 222 222 222 222 222 222 222 222 222 222 222 222 222
222 222 222 222 222 222 222 222 222 221 212 171 75 15 0 15 66 141 193 217 220 221 221 220 221 221 219 211 200 182 148 103 66 39 19 11 14 30 51 78 123 161 190 210 220 222 222 222 222 222 222 222 222 222 222 222 222 222 222 222 222 222 222 222
222 222 222 222 222 222 222 222 222 220 210 143 52 5 3 32 114 199 219 222 222 222 222 222 222 222 222 221 221 220 215 200 178 148 101 53 21 6 4 4 22 55 95 141 191 212 219 221 222 222 222 222 222 222 222 222 222 222 222 222 222 222 222 222
222 222 222 222 222 222 222 222 222 222 204 138 53 1 3 35 132 200 221 222 222 222 222 222 222 222 222 222 222 222 222 221 219 215 194 154 110 71 33 14 6 5 13 28 86 147 190 214 221 222 222 222 222 222 222 222 222 222 222 222 222 222 222 222
222 222 222 222 222 222 222 222 222 221 204 148 59 2 0 34 114 187 220 222 222 222 222 222 222 222 222 222 222 222 222 222 222 221 220 212 201 182 145 101 56 20 4 1 16 52 104 165 206 216 221 222 222 222 222 222 222 222 222 222 222 222 222 222
222 222 222 222 222 222 222 222 222 221 213 174 82 20 0 16 64 144 209 219 222 222 222 222 222 222 222 222 222 222 222 222 222 222 222 221 221 220 215 200 161 106 53 21 6 5 16 64 131 182 213 222 222 222 222 222 222 222 222 222 222 222 222 222
222 222 222 222 222 222 222 222 222 221 221 197 132 57 6 0 8 67 142 194 218 221 222 222 222 222 222 222 222 222 222 222 222 222 222 222 222 222 222 221 215 198 159 107 51 14 2 11 47 109 180 217 221 222 222 222 222 222 222 222 222 222 222 222
222 222 222 222 222 222 222 222 222 222 222 216 189 130 48 10 2 15 53 113 175 208 218 221 222 222 222 222 222 222 222 222 222 222 222 222 222 222 222 222 222 221 218 197 146 80 28 3 8 41 120 185 214 221 222 222 222 222 222 222 222 222 222 222
222 222 222 222 222 222 222 222 222 222 222 221 219 203 141 74 26 5 5 21 74 134 181 211 221 222 222 222 222 222 222 222 222 222 222 222 222 222 222 222 222 222 222 219 205 164 97 33 13 26 89 162 208 221 222 222 222 222 222 222 222 222 222 222
222 222 222 222 222 222 222 222 222 222 222 222 222 220 205 167 107 40 9 4 12 41 93 159 205 217 221 222 222 222 222 222 222 222 222 222 222 222 222 222 222 222 222 221 220 213 178 127 87 83 124 180 213 221 222 222 222 222 222 222 222 222 222 222
222 222 222 222 222 222 222 222 222 222 222 222 222 222 221 215 195 139 80 34 6 2 13 59 121 169 203 219 221 222 222 222 222 222 222 222 222 222 222 222 222 222 222 222 222 221 214 201 189 181 190 208 218 221 222 222 222 222 222 222 222 222 222 222
222 222 222 222 222 222 222 222 222 222 222 222 222 222 222 222 219 206 173 120 53 10 5 9 33 78 136 181 204 216 221 222 222 222 222 222 222 222 222 222 222 222 222 222 222 222 221 220 218 216 218 220 221 222 222 222 222 222 222 222 222 222 222 222
222 222 222 222 222 222 222 222 222 222 222 222 222 222 222 222 222 221 216 203 161 100 53 22 10 20 47 77 120 166 203 217 221 221 222 222 222 222 222 222 222 222 222 222 222 222 222 222 222 222 222 222 222 222 222 222 222 222 222 222 222 222 222 222
222 222 222 222 222 222 222 222 222 222 222 222 222 222 222 222 222 222 222 221 214 189 151 107 57 32 12 10 28 64 123 178 206 217 221 222 222 222 222 222 222 222 222 222 222 222 222 222 222 222 222 222 222 222 222 222 222 222 222 222 222 222 222 222
222 222 222 222 222 222 222 222 222 222 222 222 222 222 222 222 222 222 222 222 221 219 213 202 158 98 47 14 3 4 32 79 133 181 211 220 222 222 222 222 222 222 222 222 222 222 222 222 222 222 222 222 222 222 222 222 222 222 222 222 222 222 222 222
222 222 222 222 222 222 222 222 222 222 222 222 222 222 222 222 222 222 222 222 222 222 221 222 210 182 141 86 38 15 6 13 34 80 148 194 214 221 222 222 222 222 222 222 222 222 222 222 222 222 222 222 222 222 222 222 222 222 222 222 222 222 222 222
222 222 222 222 222 222 222 222 222 222 222 222 222 222 222 222 222 222 222 222 222 222 222 222 221 218 214 191 141 88 40 7 0 7 49 106 160 201 216 221 221 222 222 222 222 222 222 222 222 222 222 222 222 222 222 222 222 222 222 222 222 222 222 222
222 222 222 222 222 222 222 222 222 222 222 222 222 222 222 222 222 222 222 222 222 222 222 222 222 222 222 219 208 184 138 67 25 8 8 26 60 117 173 205 218 222 222 222 222 222 222 222 222 222 222 222 222 222 222 222 222 222 222 222 222 222 222 222
222 222 222 222 222 222 222 222 222 222 222 222 222 222 222 222 222 222 222 222 222 222 222 222 222 222 222 222 221 220 210 169 114 62 23 5 3 27 75 134 187 215 221 221 222 222 222 222 222 222 222 222 222 222 222 222 222 222 222 222 222 222 222 222
222 222 222 222 222 222 222 222 222 222 222 222 222 222 222 222 222 222 222 222 222 222 222 222 222 222 222 222 222 222 221 214 195 161 103 47 16 4 13 41 100 163 195 213 220 221 222 222 222 222 222 222 222 222 222 222 222 222 222 222 222 222 222 222
222 222 222 222 222 222 222 222 222 222 222 222 222 222 222 222 222 222 222 222 222 222 222 222 222 222 222 222 222 222 222 221 221 216 194 142 85 34 6 4 27 60 105 159 204 219 221 222 222 222 222 222 222 222 222 222 222 222 222 222 222 222 222 222
222 222 222 222 222 222 222 222 222 222 222 222 222 222 222 222 222 222 222 222 222 222 222 222 222 222 222 222 222 222 222 222 222 222 219 208 181 138 78 37 12 6 21 57 128 182 208 220 222 222 222 222 222 222 222 222 222 222 222 222 222 222 222 222
222 222 222 222 222 222 222 222 222 222 222 222 222 222 222 222 222 222 222 222 222 222 222 222 222 222 222 222 222 222 222 222 222 222 222 221 219 212 173 112 51 10 0 3 33 87 146 195 218 222 222 222 222 222 222 222 222 222 222 222 222 222 222 222
222 222 222 222 222 222 222 222 222 222 222 222 222 222 222 222 222 222 222 222 222 222 222 222 222 222 222 222 222 222 222 222 222 222 222 222 221 222 214 191 146 79 31 10 3 17 50 117 182 211 220 222 222 222 222 222 222 222 222 222 222 222 222 222
222 222 222 222 222 222 222 222 222 222 222 222 222 222 222 222 222 222 222 222 222 222 222 222 222 222 222 222 222 222 222 222 222 222 222 222 222 222 221 220 213 185 129 69 21 1 1 38 96 152 195 217 221 221 222 222 222 222 222 222 222 222 222 222
222 222 222 222 222 222 222 222 222 222 222 222 222 222 222 222 222 222 222 222 222 222 222 222 222 222 222 222 222 222 222 222 222 222 222 222 222 222 222 222 222 218 202 161 87 26 6 5 19 44 97 169 206 219 222 222 222 222 222 222 222 222 222 222
222 222 222 222 222 222 222 222 222 222 222 222 222 222 222 222 222 222 222 222 222 222 222 222 222 222 222 222 222 222 222 222 222 222 222 222 222 222 222 222 222 221 221 210 169 104 46 8 0 0 17 74 139 190 217 221 221 222 222 222 222 222 222 222
222 222 222 222 222 222 222 222 222 222 222 222 222 222 222 222 222 222 222 222 222 222 222 222 222 222 222 222 222 222 222 222 222 222 222 222 222 222 221 220 220 221 221 220 208 183 134 62 16 2 0 13 41 95 169 203 217 222 222 222 222 222 222 222
222 222 222 222 222 222 222 222 222 222 222 222 222 222 222 222 222 222 222 222 222 222 222 222 222 222 222 222 222 222 222 222 220 216 212 208 204 201 187 177 166 157 158 160 161 158 142 114 67 23 1 0 0 10 60 117 167 203 218 221 222 222 222 222
222 222 222 222 222 222 222 222 222 222 222 222 222 222 222 222 222 222 222 222 222 222 222 222 222 222 220 215 211 208 203 197 177 157 137 117 97 81 69 58 43 26 29 38 42 37 27 23 22 14 1 0 0 0 4 20 46 107 177 210 221 222 222 222
222 222 222 222 222 222 222 222 222 222 222 222 222 222 222 222 222 222 222 222 221 221 221 220 216 207 181 156 135 115 95 78 60 42 25 7 3 2 2 2 0 0 0 0 0 0 0 0 0 0 0 0 0 0 0 0 0 26 111 188 220 222 222 222
222 222 222 222 222 222 222 222 222 222 222 222 222 222 222 222 222 222 222 220 214 203 188 164 133 94 65 43 24 6 3 2 1 0 0 2 7 12 15 15 18 33 44 46 38 27 33 46 52 46 30 30 33 24 6 0 4 34 107 188 221 222 222 222
222 222 222 222 222 222 222 222 222 222 222 222 222 222 222 221 221 220 212 188 155 119 82 44 20 7 2 0 0 3 8 13 18 23 37 59 80 102 121 134 142 153 162 168 168 158 159 166 173 176 166 157 155 141 107 75 74 108 168 210 220 222 222 222
222 222 222 222 222 222 222 222 222 222 222 222 221 221 216 206 194 177 137 90 47 20 2 0 0 3 9 19 39 61 83 106 128 147 161 177 193 208 219 218 216 216 218 221 221 220 219 218 220 221 221 219 217 215 210 197 190 200 215 222 222 222 222 222
222 222 222 222 222 222 222 222 222 222 222 222 221 216 188 140 92 60 36 15 3 0 6 20 41 70 107 141 163 179 195 209 221 221 221 221 221 222 222 222 222 222 222 222 222 222 222 222 222 222 222 222 222 222 222 222 221 221 222 222 222 222 222 222
222 222 222 222 222 222 222 222 222 222 222 222 222 203 141 59 11 1 0 1 9 36 74 111 148 184 210 218 221 221 221 222 222 222 222 222 222 222 222 222 222 222 222 222 222 222 222 222 222 222 222 222 222 222 222 222 222 222 222 222 222 222 222 222
222 222 222 222 222 222 222 222 222 222 222 222 221 200 138 62 23 24 31 52 94 142 180 202 215 221 222 222 222 222 222 222 222 222 222 222 222 222 222 222 222 222 222 222 222 222 222 222 222 222 222 222 222 222 222 222 222 222 222 222 222 222 222 222
222 222 222 222 222 222 222 222 222 222 222 222 221 215 194 153 126 128 144 168 192 211 219 221 222 222 222 222 222 222 222 222 222 222 222 222 222 222 222 222 222 222 222 222 222 222 222 222 222 222 222 222 222 222 222 222 222 222 222 222 222 222 222 222
222 222 222 222 222 222 222 222 222 222 222 222 222 222 219 212 208 213 221 221 221 221 222 222 222 222 222 222 222 222 222 222 222 222 222 222 222 222 222 222 222 222 222 222 222 222 222 222 222 222 222 222 222 222 222 222 222 222 222 222 222 222 222 222
222 222 222 222 222 222 222 222 222 222 222 222 222 222 222 222 221 222 222 222 222 222 222 222 222 222 222 222 222 222 222 222 222 222 222 222 222 222 222 222 222 222 222 222 222 222 222 222 222 222 222 222 222 222 222 222 222 222 222 222 222 222 222 222
222 222 222 222 222 222 222 222 222 222 222 222 222 222 222 222 222 222 222 222 222 222 222 222 222 222 222 222 222 222 222 222 222 222 222 222 222 222 222 222 222 222 222 222 222 222 222 222 222 222 222 222 222 222 222 222 222 222 222 222 222 222 222 222
222 222 222 222 222 222 222 222 222 222 222 222 222 222 222 222 222 222 222 222 222 222 222 222 222 222 222 222 222 222 222 222 222 222 222 222 222 222 222 222 222 222 222 222 222 222 222 222 222 222 222 222 222 222 222 222 222 222 222 222 222 222 222 222
222 222 222 222 222 222 222 222 222 222 222 222 222 222 222 222 222 222 222 222 222 222 222 222 222 222 222 222 222 222 222 222 222 222 222 222 222 222 222 222 222 222 222 222 222 222 222 222 222 222 222 222 222 222 222 222 222 222 222 222 222 222 222 222
222 222 222 222 222 222 222 222 222 222 222 222 222 222 222 222 222 222 222 222 222 222 222 222 222 222 222 222 222 222 222 222 222 222 222 222 222 222 222 222 222 222 222 222 222 222 222 222 222 222 222 222 222 222 222 222 222 222 222 222 222 222 222 222
222 222 222 222 222 222 222 222 222 222 222 222 222 222 222 222 222 222 222 222 222 222 222 222 222 222 222 222 222 222 222 222 222 222 222 222 222 222 222 222 222 222 222 222 222 222 222 222 222 222 222 222 222 222 222 222 222 222 222 222 222 222 222 222
222 222 222 222 222 222 222 222 222 222 222 222 222 222 222 222 222 222 222 222 222 222 222 222 222 222 222 222 222 222 222 222 222 222 222 222 222 222 222 222 222 222 222 222 222 222 222 222 222 222 222 222 222 222 222 222 222 222 222 222 222 222 222 222
222 222 222 222 222 222 222 222 222 222 222 222 222 222 222 222 222 222 222 222 222 222 222 222 222 222 222 222 222 222 222 222 222 222 222 222 222 222 222 222 222 222 222 222 222 222 222 222 222 222 222 222 222 222 222 222 222 222 222 222 222 222 222 222
222 222 222 222 222 222 222 222 222 222 222 222 222 222 222 222 222 222 222 222 222 222 222 222 222 222 222 222 222 222 222 222 222 222 222 222 222 222 222 222 222 222 222 222 222 222 222 222 222 222 222 222 222 222 222 222 222 222 222 222 222 222 222 222
222 222 222 222 222 222 222 222 222 222 222 222 222 222 222 222 222 222 222 222 222 222 222 222 222 222 222 222 222 222 222 222 222 222 222 222 222 222 222 222 222 222 222 222 222 222 222 222 222 222 222 222 222 222 222 222 222 222 222 222 222 222 222 222
