P2
# Created by GIMP version 2.10.32 PNM plug-in
64 64
255
255
255
255
255
255
255
255
255
255
255
255
255
255
255
255
255
255
255
255
255
255
255
255
255
255
255
255
255
255
255
255
255
255
255
255
255
255
255
255
255
255
255
255
255
255
255
255
255
255
255
255
255
255
255
255
255
255
255
255
255
255
255
255
255
255
255
255
255
255
255
255
255
255
255
255
255
255
255
255
255
255
255
255
255
255
255
255
255
255
255
255
255
255
255
255
255
255
255
255
255
255
255
255
255
255
255
255
255
255
255
255
255
255
255
255
255
255
255
255
255
255
255
255
255
255
255
255
255
255
255
255
255
255
255
255
255
255
255
255
255
255
255
255
255
255
255
255
255
255
255
255
255
255
255
255
255
255
255
255
255
255
255
255
255
255
255
255
255
255
255
255
255
255
255
255
255
255
255
255
255
255
255
255
255
255
255
255
255
255
255
255
255
255
255
255
255
255
255
255
255
255
255
255
255
255
255
255
255
255
255
255
255
255
255
255
255
255
255
255
255
255
255
255
255
255
255
255
255
255
255
255
255
255
255
255
255
255
255
255
255
255
255
255
255
255
255
255
255
255
255
255
255
255
255
255
255
255
255
255
255
255
255
255
255
255
255
255
255
255
255
255
255
255
255
255
255
255
255
255
255
255
255
255
255
255
255
255
255
255
255
255
255
255
255
255
255
255
255
255
255
255
255
255
255
255
255
255
255
255
255
255
255
255
255
255
255
255
255
255
255
255
255
255
255
255
255
255
255
255
255
255
255
255
255
255
255
255
255
255
255
255
255
255
255
253
246
237
231
231
237
246
252
254
255
255
255
255
255
255
255
255
255
255
255
255
255
255
255
255
255
255
255
255
255
255
255
255
255
255
255
255
255
255
255
255
255
255
255
255
255
255
255
255
255
255
255
255
255
255
255
255
255
255
255
255
255
252
234
194
154
126
113
113
121
137
163
195
224
245
253
255
255
255
255
255
255
255
255
255
255
255
255
255
255
255
255
255
255
255
255
255
255
255
255
255
255
255
255
255
255
255
255
255
255
255
255
255
255
255
255
255
255
255
255
255
255
255
255
255
252
215
127
56
25
9
6
6
7
12
32
64
104
148
191
224
245
253
255
255
255
255
255
255
255
255
255
255
255
255
255
255
255
255
255
255
255
255
255
255
255
255
255
255
255
255
255
255
255
255
255
255
255
255
255
255
255
255
255
255
255
255
255
254
224
111
16
0
0
0
0
0
0
0
0
2
6
28
62
104
155
209
242
253
255
255
255
255
255
255
255
255
255
255
255
255
255
255
255
255
255
255
255
255
255
255
255
255
255
255
255
255
255
255
255
255
255
255
255
255
255
255
255
255
255
255
255
243
151
23
0
0
0
13
28
29
23
10
4
2
1
1
2
7
33
79
132
194
239
253
255
255
255
255
255
255
255
255
255
255
255
255
255
255
255
255
255
255
255
255
255
255
255
255
255
255
255
255
255
255
255
255
255
255
255
255
255
255
255
255
249
194
72
2
0
1
37
119
158
162
153
131
99
62
28
6
2
0
1
2
14
76
185
246
255
255
255
255
255
255
255
255
255
255
255
255
255
255
255
255
255
255
255
255
255
255
255
255
255
255
255
255
255
255
255
255
255
255
255
255
255
255
255
252
210
104
20
1
3
51
157
238
252
254
252
244
224
191
148
104
57
15
1
0
0
11
121
229
255
255
255
255
255
255
255
255
255
255
255
255
255
255
255
255
255
255
255
255
255
255
255
255
255
255
255
255
255
255
255
255
255
255
255
255
255
255
255
232
133
30
2
7
59
165
240
255
255
255
255
255
255
253
245
223
157
52
2
0
0
6
77
191
249
255
255
255
255
255
255
255
255
255
255
255
255
255
255
255
255
255
255
255
255
255
255
255
255
255
255
255
255
255
255
255
255
255
255
255
255
255
251
183
58
2
3
49
158
237
254
255
255
255
255
255
255
255
255
254
208
83
4
0
0
1
17
98
202
250
255
255
255
255
255
255
255
255
255
255
255
255
255
255
255
255
255
255
255
255
255
255
255
255
255
255
255
255
255
255
255
255
255
255
255
255
233
120
13
0
12
113
227
254
255
255
255
255
255
255
255
255
255
255
236
162
65
12
2
1
1
17
87
194
249
255
255
255
255
255
255
255
255
255
255
255
255
255
255
255
255
255
255
255
255
255
255
255
255
255
255
255
255
255
255
255
255
255
255
251
189
65
2
1
51
179
251
255
255
255
255
255
255
255
255
255
255
255
252
233
183
121
72
28
2
0
8
98
219
255
255
255
255
255
255
255
255
255
255
255
255
255
255
255
255
255
255
255
255
255
255
255
255
255
255
255
255
255
255
255
255
255
255
235
133
24
1
9
106
223
255
255
255
255
255
255
255
255
255
255
255
255
255
255
251
233
198
115
20
0
0
40
178
253
255
255
255
255
255
255
255
255
255
255
255
255
255
255
255
255
255
255
255
255
255
255
255
255
255
255
255
255
255
255
255
255
254
208
84
4
1
41
162
245
255
255
255
255
255
255
255
255
255
255
255
255
255
255
255
255
253
204
67
1
0
20
148
250
255
255
255
255
255
255
255
255
255
255
255
255
255
255
255
255
255
255
255
255
255
255
255
255
255
255
255
255
255
255
255
255
254
181
48
1
3
78
204
253
255
255
255
255
255
255
255
255
255
255
255
255
255
255
255
255
255
241
128
11
0
7
112
233
255
255
255
255
255
255
255
255
255
255
255
255
255
255
255
255
255
255
255
255
255
255
255
255
255
255
255
255
255
255
255
255
252
152
18
0
6
113
235
255
255
255
255
255
255
255
255
255
255
255
255
255
255
255
255
255
255
253
184
51
1
2
70
200
254
255
255
255
255
255
255
255
255
255
255
255
255
255
255
255
255
255
255
255
255
255
255
255
255
255
255
255
255
255
255
255
244
128
8
0
13
141
250
255
255
255
255
255
255
255
255
255
255
255
255
255
255
255
255
255
255
255
217
88
3
0
41
173
254
255
255
255
255
255
255
255
255
255
255
255
255
255
255
255
255
255
255
255
255
255
255
255
255
255
255
255
255
255
255
255
223
95
3
0
28
163
254
255
255
255
255
255
255
255
255
255
255
255
255
255
255
255
255
255
255
255
230
109
5
0
30
160
252
255
255
255
255
255
255
255
255
255
255
255
255
255
255
255
255
255
255
255
255
255
255
255
255
255
255
255
255
255
255
254
193
56
0
0
35
173
254
255
255
255
255
255
255
255
255
255
255
255
255
255
255
255
255
255
255
255
237
125
9
0
21
144
246
255
255
255
255
255
255
255
255
255
255
255
255
255
255
255
255
255
255
255
255
255
255
255
255
255
255
255
255
255
255
253
176
38
0
0
35
173
253
255
255
255
255
255
255
255
255
255
255
255
255
255
255
255
255
255
255
255
246
144
21
0
9
125
237
255
255
255
255
255
255
255
255
255
255
255
255
255
255
255
255
255
255
255
255
255
255
255
255
255
255
255
255
255
255
254
181
42
0
0
42
181
254
255
255
255
255
255
255
255
255
255
255
255
255
255
255
255
255
255
255
255
252
160
30
0
5
109
230
255
255
255
255
255
255
255
255
255
255
255
255
255
255
255
255
255
255
255
255
255
255
255
255
255
255
255
255
255
255
254
181
42
0
0
42
181
254
255
255
255
255
255
255
255
255
255
255
255
255
255
255
255
255
255
255
255
254
171
38
0
4
94
219
255
255
255
255
255
255
255
255
255
255
255
255
255
255
255
255
255
255
255
255
255
255
255
255
255
255
255
255
255
255
253
175
37
0
0
37
175
253
255
255
255
255
255
255
255
255
255
255
255
255
255
255
255
255
255
255
255
254
186
54
1
2
79
205
254
255
255
255
255
255
255
255
255
255
255
255
255
255
255
255
255
255
255
255
255
255
255
255
255
255
255
255
255
255
254
183
46
0
0
46
183
254
255
255
255
255
255
255
255
255
255
255
255
255
255
255
255
255
255
255
255
254
192
62
1
2
72
199
254
255
255
255
255
255
255
255
255
255
255
255
255
255
255
255
255
255
255
255
255
255
255
255
255
255
255
255
255
255
254
196
65
1
1
56
187
253
255
255
255
255
255
255
255
255
255
255
255
255
255
255
255
255
255
255
255
254
185
52
1
2
80
206
254
255
255
255
255
255
255
255
255
255
255
255
255
255
255
255
255
255
255
255
255
255
255
255
255
255
255
255
255
255
254
211
89
4
1
40
165
247
255
255
255
255
255
255
255
255
255
255
255
255
255
255
255
255
255
255
255
254
167
34
0
4
97
223
255
255
255
255
255
255
255
255
255
255
255
255
255
255
255
255
255
255
255
255
255
255
255
255
255
255
255
255
255
255
255
235
123
15
0
8
117
232
255
255
255
255
255
255
255
255
255
255
255
255
255
255
255
255
255
255
255
253
160
23
0
5
105
229
255
255
255
255
255
255
255
255
255
255
255
255
255
255
255
255
255
255
255
255
255
255
255
255
255
255
255
255
255
255
255
250
152
24
0
1
63
200
253
255
255
255
255
255
255
255
255
255
255
255
255
255
255
255
255
255
255
247
145
25
0
6
110
227
254
255
255
255
255
255
255
255
255
255
255
255
255
255
255
255
255
255
255
255
255
255
255
255
255
255
255
255
255
255
255
253
175
37
0
0
26
144
241
255
255
255
255
255
255
255
255
255
255
255
255
255
255
255
255
251
229
158
55
4
0
20
141
238
255
255
255
255
255
255
255
255
255
255
255
255
255
255
255
255
255
255
255
255
255
255
255
255
255
255
255
255
255
255
255
255
210
84
3
0
5
70
179
235
250
255
255
255
255
255
255
255
255
255
255
255
255
251
233
189
116
37
1
0
5
81
204
252
255
255
255
255
255
255
255
255
255
255
255
255
255
255
255
255
255
255
255
255
255
255
255
255
255
255
255
255
255
255
255
255
243
177
62
9
2
20
76
127
169
209
233
246
253
254
254
254
254
254
253
244
224
184
127
67
19
1
0
0
46
171
248
255
255
255
255
255
255
255
255
255
255
255
255
255
255
255
255
255
255
255
255
255
255
255
255
255
255
255
255
255
255
255
255
255
254
243
172
73
12
6
9
21
42
78
113
142
168
178
187
194
196
193
175
138
100
58
20
2
1
1
3
34
139
233
255
255
255
255
255
255
255
255
255
255
255
255
255
255
255
255
255
255
255
255
255
255
255
255
255
255
255
255
255
255
255
255
255
255
255
255
234
166
75
31
4
1
1
2
5
12
33
44
56
64
67
62
43
15
5
2
0
0
1
17
57
128
210
247
255
255
255
255
255
255
255
255
255
255
255
255
255
255
255
255
255
255
255
255
255
255
255
255
255
255
255
255
255
255
255
255
255
255
255
255
252
236
193
130
58
13
3
1
0
0
0
1
1
2
2
1
1
0
0
1
1
1
1
4
25
64
109
163
220
250
255
255
255
255
255
255
255
255
255
255
255
255
255
255
255
255
255
255
255
255
255
255
255
255
255
255
255
255
255
255
255
255
255
255
255
255
251
228
178
124
73
19
1
0
0
2
2
2
2
2
3
9
30
51
34
4
0
0
0
2
5
28
96
191
247
255
255
255
255
255
255
255
255
255
255
255
255
255
255
255
255
255
255
255
255
255
255
255
255
255
255
255
255
255
255
255
255
255
255
255
255
254
247
231
159
42
1
0
13
59
75
69
67
71
86
117
158
180
145
80
40
21
5
1
0
0
8
76
194
252
255
255
255
255
255
255
255
255
255
255
255
255
255
255
255
255
255
255
255
255
255
255
255
255
255
255
255
255
255
255
255
255
255
255
255
255
255
243
144
25
0
3
72
175
204
197
196
198
211
235
250
251
234
201
169
140
98
48
7
0
0
7
109
231
255
255
255
255
255
255
255
255
255
255
255
255
255
255
255
255
255
255
255
255
255
255
255
255
255
255
255
255
255
255
255
255
255
255
255
255
255
213
86
4
1
29
145
241
254
254
254
254
254
255
255
255
255
254
252
245
222
179
93
12
0
0
46
183
251
255
255
255
255
255
255
255
255
255
255
255
255
255
255
255
255
255
255
255
255
255
255
255
255
255
255
255
255
255
255
255
255
255
255
255
250
165
36
1
3
81
209
253
255
255
255
255
255
255
255
255
255
255
255
255
255
253
208
80
4
0
12
125
235
255
255
255
255
255
255
255
255
255
255
255
255
255
255
255
255
255
255
255
255
255
255
255
255
255
255
255
255
255
255
255
255
255
255
255
235
118
9
0
14
133
242
255
255
255
255
255
255
255
255
255
255
255
255
255
255
255
248
158
36
1
3
87
211
254
255
255
255
255
255
255
255
255
255
255
255
255
255
255
255
255
255
255
255
255
255
255
255
255
255
255
255
255
255
255
255
255
255
254
208
81
3
1
46
178
253
255
255
255
255
255
255
255
255
255
255
255
255
255
255
255
254
193
62
1
2
71
198
254
255
255
255
255
255
255
255
255
255
255
255
255
255
255
255
255
255
255
255
255
255
255
255
255
255
255
255
255
255
255
255
255
255
254
181
47
1
2
80
208
254
255
255
255
255
255
255
255
255
255
255
255
255
255
255
255
254
196
67
2
2
67
196
254
255
255
255
255
255
255
255
255
255
255
255
255
255
255
255
255
255
255
255
255
255
255
255
255
255
255
255
255
255
255
255
255
255
253
155
19
0
6
112
235
255
255
255
255
255
255
255
255
255
255
255
255
255
255
255
255
254
194
64
2
2
69
197
254
255
255
255
255
255
255
255
255
255
255
255
255
255
255
255
255
255
255
255
255
255
255
255
255
255
255
255
255
255
255
255
255
255
253
144
11
0
8
134
250
255
255
255
255
255
255
255
255
255
255
255
255
255
255
255
255
254
185
52
1
2
80
206
254
255
255
255
255
255
255
255
255
255
255
255
255
255
255
255
255
255
255
255
255
255
255
255
255
255
255
255
255
255
255
255
255
255
253
142
10
0
10
142
253
255
255
255
255
255
255
255
255
255
255
255
255
255
255
255
255
252
162
30
0
5
103
226
255
255
255
255
255
255
255
255
255
255
255
255
255
255
255
255
255
255
255
255
255
255
255
255
255
255
255
255
255
255
255
255
255
255
253
142
10
0
10
142
253
255
255
255
255
255
255
255
255
255
255
255
255
255
255
255
255
242
126
10
0
12
133
244
255
255
255
255
255
255
255
255
255
255
255
255
255
255
255
255
255
255
255
255
255
255
255
255
255
255
255
255
255
255
255
255
255
255
253
142
10
0
10
142
253
255
255
255
255
255
255
255
255
255
255
255
255
255
255
255
248
186
62
2
0
38
171
252
255
255
255
255
255
255
255
255
255
255
255
255
255
255
255
255
255
255
255
255
255
255
255
255
255
255
255
255
255
255
255
255
255
255
253
143
10
0
9
139
252
255
255
255
255
255
255
255
255
255
255
255
255
255
255
252
206
88
7
0
3
85
213
255
255
255
255
255
255
255
255
255
255
255
255
255
255
255
255
255
255
255
255
255
255
255
255
255
255
255
255
255
255
255
255
255
255
255
253
150
15
0
7
122
242
255
255
255
255
255
255
255
255
255
255
255
255
255
255
231
128
22
0
0
29
148
242
255
255
255
255
255
255
255
255
255
255
255
255
255
255
255
255
255
255
255
255
255
255
255
255
255
255
255
255
255
255
255
255
255
255
255
254
173
38
0
3
84
214
255
255
255
255
255
255
255
255
255
255
255
255
254
243
168
55
2
1
13
102
214
254
255
255
255
255
255
255
255
255
255
255
255
255
255
255
255
255
255
255
255
255
255
255
255
255
255
255
255
255
255
255
255
255
255
255
255
255
208
78
3
1
43
169
250
255
255
255
255
255
255
255
255
255
255
255
243
179
71
11
0
14
96
203
249
255
255
255
255
255
255
255
255
255
255
255
255
255
255
255
255
255
255
255
255
255
255
255
255
255
255
255
255
255
255
255
255
255
255
255
255
255
233
124
13
1
16
99
206
249
255
255
255
255
255
255
255
255
255
247
183
75
9
3
20
93
203
252
255
255
255
255
255
255
255
255
255
255
255
255
255
255
255
255
255
255
255
255
255
255
255
255
255
255
255
255
255
255
255
255
255
255
255
255
255
255
247
178
59
4
2
22
106
214
254
254
254
254
254
254
254
250
232
171
74
10
0
16
94
197
248
255
255
255
255
255
255
255
255
255
255
255
255
255
255
255
255
255
255
255
255
255
255
255
255
255
255
255
255
255
255
255
255
255
255
255
255
255
255
255
254
228
137
31
1
0
21
108
180
193
196
196
196
193
180
152
113
53
7
0
11
84
195
250
255
255
255
255
255
255
255
255
255
255
255
255
255
255
255
255
255
255
255
255
255
255
255
255
255
255
255
255
255
255
255
255
255
255
255
255
255
255
255
255
255
251
210
88
3
0
2
18
48
62
67
67
67
62
46
21
12
2
0
10
82
191
248
255
255
255
255
255
255
255
255
255
255
255
255
255
255
255
255
255
255
255
255
255
255
255
255
255
255
255
255
255
255
255
255
255
255
255
255
255
255
255
255
255
255
255
246
177
61
8
1
0
1
1
2
2
2
1
1
0
0
2
18
87
191
248
255
255
255
255
255
255
255
255
255
255
255
255
255
255
255
255
255
255
255
255
255
255
255
255
255
255
255
255
255
255
255
255
255
255
255
255
255
255
255
255
255
255
255
255
254
241
182
94
27
5
2
2
2
2
2
2
3
6
16
55
123
203
248
255
255
255
255
255
255
255
255
255
255
255
255
255
255
255
255
255
255
255
255
255
255
255
255
255
255
255
255
255
255
255
255
255
255
255
255
255
255
255
255
255
255
255
255
255
255
255
249
215
153
104
79
69
67
67
67
71
84
107
137
182
227
252
255
255
255
255
255
255
255
255
255
255
255
255
255
255
255
255
255
255
255
255
255
255
255
255
255
255
255
255
255
255
255
255
255
255
255
255
255
255
255
255
255
255
255
255
255
255
255
255
255
254
245
226
206
197
196
196
196
198
210
229
241
248
254
255
255
255
255
255
255
255
255
255
255
255
255
255
255
255
255
255
255
255
255
255
255
255
255
255
255
255
255
255
255
255
255
255
255
255
255
255
255
255
255
255
255
255
255
255
255
255
255
255
255
255
255
255
254
254
254
254
254
254
254
255
255
255
255
255
255
255
255
255
255
255
255
255
255
255
255
255
255
255
255
255
255
255
255
255
255
255
